<svg viewBox="0 0 800 800" preserveAspectRatio="xMidYMin slice" xmlns="http://www.w3.org/2000/svg" xlink="http://www.w3.org/1999/xlink"><defs><g id="unit-02"><path d="M 0 0 L 63.7 36.8 L 63.7 134.8 L 0 98 Z" fill="#f8c630" stroke="black" stroke-width="1"></path><path d="M 63.7 134.8 L 63.7 61.3 L 148.5 12.3 L 148.5 85.8 Z" fill="#e54f6d" stroke="black" stroke-width="1"></path><path d="M 148.5 12.3 L 84.9 49 L 0 0 L 63.7 -36.8 Z" fill="#724e91" stroke="black" stroke-width="1"></path></g></defs><rect x="0" y="0" width="800" height="800" fill="#451f55"></rect><use href="#unit-02" transform="translate(326.5, 351)"></use><use href="#unit-02" transform="translate(241.6, 228.5)"></use><use href="#unit-02" transform="translate(178, 363.2)"></use><use href="#unit-02" transform="translate(262.8, 485.8)"></use><use href="#unit-02" transform="translate(411.4, 473.5)"></use><use href="#unit-02" transform="translate(475, 338.8)"></use><use href="#unit-02" transform="translate(390.2, 216.3)"></use><use href="#unit-02" transform="translate(156.8, 106)"></use><use href="#unit-02" transform="translate(93.1, 240.7)"></use><use href="#unit-02" transform="translate(29.5, 375.5)"></use><use href="#unit-02" transform="translate(114.3, 498)"></use><use href="#unit-02" transform="translate(199.2, 620.5)"></use><use href="#unit-02" transform="translate(347.7, 608.3)"></use><use href="#unit-02" transform="translate(496.2, 596)"></use><use href="#unit-02" transform="translate(559.9, 461.3)"></use><use href="#unit-02" transform="translate(623.5, 326.5)"></use><use href="#unit-02" transform="translate(538.7, 204)"></use><use href="#unit-02" transform="translate(453.8, 81.5)"></use><use href="#unit-02" transform="translate(305.3, 93.7)"></use><use href="#unit-02" transform="translate(71.9, -16.5)"></use><use href="#unit-02" transform="translate(8.2, 118.2)"></use><use href="#unit-02" transform="translate(-55.4, 253)"></use><use href="#unit-02" transform="translate(-119.1, 387.7)"></use><use href="#unit-02" transform="translate(-34.2, 510.2)"></use><use href="#unit-02" transform="translate(50.7, 632.8)"></use><use href="#unit-02" transform="translate(135.5, 755.3)"></use><use href="#unit-02" transform="translate(284.1, 743)"></use><use href="#unit-02" transform="translate(432.6, 730.8)"></use><use href="#unit-02" transform="translate(581.1, 718.5)"></use><use href="#unit-02" transform="translate(644.8, 583.8)"></use><use href="#unit-02" transform="translate(708.4, 449)"></use><use href="#unit-02" transform="translate(772.1, 314.3)"></use><use href="#unit-02" transform="translate(687.2, 191.8)"></use><use href="#unit-02" transform="translate(602.3, 69.3)"></use><use href="#unit-02" transform="translate(517.5, -53.2)"></use><use href="#unit-02" transform="translate(368.9, -41)"></use><use href="#unit-02" transform="translate(220.4, -28.8)"></use><ellipse cx="400" cy="400" rx="600" ry="600" fill="none" stroke="white" stroke-width="560"></ellipse><ellipse cx="400" cy="400" rx="320" ry="320" fill="none" stroke="black" stroke-width="1"></ellipse></svg>