<svg viewBox="0 0 800 800" preserveAspectRatio="xMidYMin slice" xmlns="http://www.w3.org/2000/svg" xlink="http://www.w3.org/1999/xlink"><defs><g id="unit-03"><line x1="0" y1="0" x2="30.300605204917748" y2="17.494062571667833" fill="white" stroke="#dd6e42" stroke-width="2"></line><line x1="0" y1="0" x2="2.0283758837361553e-15" y2="33.125892055544334" fill="white" stroke="#dd6e42" stroke-width="2"></line><line x1="0" y1="0" x2="-27.390790685997764" y2="15.814080375877499" fill="white" stroke="#dd6e42" stroke-width="2"></line><line x1="0" y1="0" x2="-27.401467823035393" y2="-15.820244823820358" fill="white" stroke="#dd6e42" stroke-width="2"></line><line x1="0" y1="0" x2="-5.920709341447776e-15" y2="-32.23084046529445" fill="white" stroke="#dd6e42" stroke-width="2"></line><line x1="0" y1="0" x2="28.03219841004172" y2="-16.184397298014606" fill="white" stroke="#dd6e42" stroke-width="2"></line><line x1="-22.5" y1="0" x2="22.5" y2="0" fill="white" stroke="#dd6e42" stroke-width="1"></line><line x1="37.5" y1="0" x2="50" y2="0" fill="white" stroke="#4f6d7a" stroke-width="1"></line><line x1="-11.250000000000004" y1="-19.48557158514987" x2="11.250000000000004" y2="19.48557158514987" fill="white" stroke="#dd6e42" stroke-width="1"></line><line x1="18.750000000000007" y1="32.47595264191645" x2="25.000000000000007" y2="43.30127018922193" fill="white" stroke="#4f6d7a" stroke-width="1"></line><line x1="11.249999999999995" y1="-19.485571585149874" x2="-11.249999999999995" y2="19.485571585149874" fill="white" stroke="#dd6e42" stroke-width="1"></line><line x1="-18.749999999999993" y1="32.47595264191645" x2="-24.99999999999999" y2="43.30127018922194" fill="white" stroke="#4f6d7a" stroke-width="1"></line><line x1="22.5" y1="-2.7554552980815448e-15" x2="-22.5" y2="2.7554552980815448e-15" fill="white" stroke="#dd6e42" stroke-width="1"></line><line x1="-37.5" y1="4.592425496802574e-15" x2="-50" y2="6.123233995736766e-15" fill="white" stroke="#4f6d7a" stroke-width="1"></line><line x1="11.25000000000001" y1="19.485571585149863" x2="-11.25000000000001" y2="-19.485571585149863" fill="white" stroke="#dd6e42" stroke-width="1"></line><line x1="-18.750000000000014" y1="-32.475952641916436" x2="-25.00000000000002" y2="-43.30127018922192" fill="white" stroke="#4f6d7a" stroke-width="1"></line><line x1="-11.25" y1="19.48557158514987" x2="11.25" y2="-19.48557158514987" fill="white" stroke="#dd6e42" stroke-width="1"></line><line x1="18.75" y1="-32.47595264191645" x2="25" y2="-43.30127018922193" fill="white" stroke="#4f6d7a" stroke-width="1"></line></g></defs><rect x="0" y="0" width="800" height="800" fill="#eaeaea"></rect><use href="#unit-03" transform="translate(387.5, 425)"></use><use href="#unit-03" transform="translate(312.5, 381.7)"></use><use href="#unit-03" transform="translate(312.5, 468.3)"></use><use href="#unit-03" transform="translate(387.5, 511.6)"></use><use href="#unit-03" transform="translate(462.5, 468.3)"></use><use href="#unit-03" transform="translate(462.5, 381.7)"></use><use href="#unit-03" transform="translate(387.5, 338.4)"></use><use href="#unit-03" transform="translate(237.5, 338.4)"></use><use href="#unit-03" transform="translate(237.5, 425)"></use><use href="#unit-03" transform="translate(237.5, 511.6)"></use><use href="#unit-03" transform="translate(312.5, 554.9)"></use><use href="#unit-03" transform="translate(387.5, 598.2)"></use><use href="#unit-03" transform="translate(462.5, 554.9)"></use><use href="#unit-03" transform="translate(537.5, 511.6)"></use><use href="#unit-03" transform="translate(537.5, 425)"></use><use href="#unit-03" transform="translate(537.5, 338.4)"></use><use href="#unit-03" transform="translate(462.5, 295.1)"></use><use href="#unit-03" transform="translate(387.5, 251.8)"></use><use href="#unit-03" transform="translate(312.5, 295.1)"></use><use href="#unit-03" transform="translate(162.5, 295.1)"></use><use href="#unit-03" transform="translate(162.5, 381.7)"></use><use href="#unit-03" transform="translate(162.5, 468.3)"></use><use href="#unit-03" transform="translate(162.5, 554.9)"></use><use href="#unit-03" transform="translate(237.5, 598.2)"></use><use href="#unit-03" transform="translate(312.5, 641.5)"></use><use href="#unit-03" transform="translate(387.5, 684.8)"></use><use href="#unit-03" transform="translate(462.5, 641.5)"></use><use href="#unit-03" transform="translate(537.5, 598.2)"></use><use href="#unit-03" transform="translate(612.5, 554.9)"></use><use href="#unit-03" transform="translate(612.5, 468.3)"></use><use href="#unit-03" transform="translate(612.5, 381.7)"></use><use href="#unit-03" transform="translate(612.5, 295.1)"></use><use href="#unit-03" transform="translate(537.5, 251.8)"></use><use href="#unit-03" transform="translate(462.5, 208.5)"></use><use href="#unit-03" transform="translate(387.5, 165.2)"></use><use href="#unit-03" transform="translate(312.5, 208.5)"></use><use href="#unit-03" transform="translate(237.5, 251.8)"></use><use href="#unit-03" transform="translate(87.5, 251.8)"></use><use href="#unit-03" transform="translate(87.5, 338.4)"></use><use href="#unit-03" transform="translate(87.5, 425)"></use><use href="#unit-03" transform="translate(87.5, 511.6)"></use><use href="#unit-03" transform="translate(87.5, 598.2)"></use><use href="#unit-03" transform="translate(162.5, 641.5)"></use><use href="#unit-03" transform="translate(237.5, 684.8)"></use><use href="#unit-03" transform="translate(312.5, 728.1)"></use><use href="#unit-03" transform="translate(387.5, 771.4)"></use><use href="#unit-03" transform="translate(462.5, 728.1)"></use><use href="#unit-03" transform="translate(537.5, 684.8)"></use><use href="#unit-03" transform="translate(612.5, 641.5)"></use><use href="#unit-03" transform="translate(687.5, 598.2)"></use><use href="#unit-03" transform="translate(687.5, 511.6)"></use><use href="#unit-03" transform="translate(687.5, 425)"></use><use href="#unit-03" transform="translate(687.5, 338.4)"></use><use href="#unit-03" transform="translate(687.5, 251.8)"></use><use href="#unit-03" transform="translate(612.5, 208.5)"></use><use href="#unit-03" transform="translate(537.5, 165.2)"></use><use href="#unit-03" transform="translate(462.5, 121.9)"></use><use href="#unit-03" transform="translate(387.5, 78.6)"></use><use href="#unit-03" transform="translate(312.5, 121.9)"></use><use href="#unit-03" transform="translate(237.5, 165.2)"></use><use href="#unit-03" transform="translate(162.5, 208.5)"></use><use href="#unit-03" transform="translate(12.5, 208.5)"></use><use href="#unit-03" transform="translate(12.5, 295.1)"></use><use href="#unit-03" transform="translate(12.5, 381.7)"></use><use href="#unit-03" transform="translate(12.5, 468.3)"></use><use href="#unit-03" transform="translate(12.5, 554.9)"></use><use href="#unit-03" transform="translate(12.5, 641.5)"></use><use href="#unit-03" transform="translate(87.5, 684.8)"></use><use href="#unit-03" transform="translate(162.5, 728.1)"></use><use href="#unit-03" transform="translate(237.5, 771.4)"></use><use href="#unit-03" transform="translate(312.5, 814.7)"></use><use href="#unit-03" transform="translate(387.5, 858)"></use><use href="#unit-03" transform="translate(462.5, 814.7)"></use><use href="#unit-03" transform="translate(537.5, 771.4)"></use><use href="#unit-03" transform="translate(612.5, 728.1)"></use><use href="#unit-03" transform="translate(687.5, 684.8)"></use><use href="#unit-03" transform="translate(762.5, 641.5)"></use><use href="#unit-03" transform="translate(762.5, 554.9)"></use><use href="#unit-03" transform="translate(762.5, 468.3)"></use><use href="#unit-03" transform="translate(762.5, 381.7)"></use><use href="#unit-03" transform="translate(762.5, 295.1)"></use><use href="#unit-03" transform="translate(762.5, 208.5)"></use><use href="#unit-03" transform="translate(687.5, 165.2)"></use><use href="#unit-03" transform="translate(612.5, 121.9)"></use><use href="#unit-03" transform="translate(537.5, 78.6)"></use><use href="#unit-03" transform="translate(462.5, 35.3)"></use><use href="#unit-03" transform="translate(387.5, -8)"></use><use href="#unit-03" transform="translate(312.5, 35.3)"></use><use href="#unit-03" transform="translate(237.5, 78.6)"></use><use href="#unit-03" transform="translate(162.5, 121.9)"></use><use href="#unit-03" transform="translate(87.5, 165.2)"></use><ellipse cx="400" cy="400" rx="600" ry="600" fill="none" stroke="white" stroke-width="560"></ellipse><ellipse cx="400" cy="400" rx="320" ry="320" fill="none" stroke="#4f6d7a" stroke-width="1"></ellipse></svg>