<svg viewBox="0 0 800 800" preserveAspectRatio="xMidYMin slice" xmlns="http://www.w3.org/2000/svg" xlink="http://www.w3.org/1999/xlink"><rect x="0" y="0" width="800" height="800" fill="#805d93"></rect><path d="M -360 -56 L -322 -56 L -322 -94 L -284 -94 L -284 -56 L -246 -56 L -246 -94 L -208 -94 L -208 -56 L -170 -56 L -170 -18 L -208 -18 L -208 20 L -170 20 L -170 58 L -208 58 L -208 96 L -246 96 L -246 58 L -284 58 L -284 96 L -322 96 L -322 58 L -360 58 L -360 20 L -322 20 L -322 -18 L -360 -18 L -360 -56 Z M -284 -18 L -284 20 L -246 20 L -246 -18 Z" fill="#ffd3ba" stroke="#231F20" stroke-width="3"></path><path d="M -322 96 L -284 96 L -284 58 L -246 58 L -246 96 L -208 96 L -208 58 L -170 58 L -170 96 L -132 96 L -132 134 L -170 134 L -170 172 L -132 172 L -132 210 L -170 210 L -170 248 L -208 248 L -208 210 L -246 210 L -246 248 L -284 248 L -284 210 L -322 210 L -322 172 L -284 172 L -284 134 L -322 134 L -322 96 Z M -246 134 L -246 172 L -208 172 L -208 134 Z" fill="#f49fbc" stroke="#231F20" stroke-width="3"></path><path d="M -284 248 L -246 248 L -246 210 L -208 210 L -208 248 L -170 248 L -170 210 L -132 210 L -132 248 L -94 248 L -94 286 L -132 286 L -132 324 L -94 324 L -94 362 L -132 362 L -132 400 L -170 400 L -170 362 L -208 362 L -208 400 L -246 400 L -246 362 L -284 362 L -284 324 L -246 324 L -246 286 L -284 286 L -284 248 Z M -208 286 L -208 324 L -170 324 L -170 286 Z" fill="#ffd3ba" stroke="#231F20" stroke-width="3"></path><path d="M -246 400 L -208 400 L -208 362 L -170 362 L -170 400 L -132 400 L -132 362 L -94 362 L -94 400 L -56 400 L -56 438 L -94 438 L -94 476 L -56 476 L -56 514 L -94 514 L -94 552 L -132 552 L -132 514 L -170 514 L -170 552 L -208 552 L -208 514 L -246 514 L -246 476 L -208 476 L -208 438 L -246 438 L -246 400 Z M -170 438 L -170 476 L -132 476 L -132 438 Z" fill="#f49fbc" stroke="#231F20" stroke-width="3"></path><path d="M -208 552 L -170 552 L -170 514 L -132 514 L -132 552 L -94 552 L -94 514 L -56 514 L -56 552 L -18 552 L -18 590 L -56 590 L -56 628 L -18 628 L -18 666 L -56 666 L -56 704 L -94 704 L -94 666 L -132 666 L -132 704 L -170 704 L -170 666 L -208 666 L -208 628 L -170 628 L -170 590 L -208 590 L -208 552 Z M -132 590 L -132 628 L -94 628 L -94 590 Z" fill="#ffd3ba" stroke="#231F20" stroke-width="3"></path><path d="M -170 704 L -132 704 L -132 666 L -94 666 L -94 704 L -56 704 L -56 666 L -18 666 L -18 704 L 20 704 L 20 742 L -18 742 L -18 780 L 20 780 L 20 818 L -18 818 L -18 856 L -56 856 L -56 818 L -94 818 L -94 856 L -132 856 L -132 818 L -170 818 L -170 780 L -132 780 L -132 742 L -170 742 L -170 704 Z M -94 742 L -94 780 L -56 780 L -56 742 Z" fill="#f49fbc" stroke="#231F20" stroke-width="3"></path><path d="M -132 856 L -94 856 L -94 818 L -56 818 L -56 856 L -18 856 L -18 818 L 20 818 L 20 856 L 58 856 L 58 894 L 20 894 L 20 932 L 58 932 L 58 970 L 20 970 L 20 1008 L -18 1008 L -18 970 L -56 970 L -56 1008 L -94 1008 L -94 970 L -132 970 L -132 932 L -94 932 L -94 894 L -132 894 L -132 856 Z M -56 894 L -56 932 L -18 932 L -18 894 Z" fill="#ffd3ba" stroke="#231F20" stroke-width="3"></path><path d="M -94 1008 L -56 1008 L -56 970 L -18 970 L -18 1008 L 20 1008 L 20 970 L 58 970 L 58 1008 L 96 1008 L 96 1046 L 58 1046 L 58 1084 L 96 1084 L 96 1122 L 58 1122 L 58 1160 L 20 1160 L 20 1122 L -18 1122 L -18 1160 L -56 1160 L -56 1122 L -94 1122 L -94 1084 L -56 1084 L -56 1046 L -94 1046 L -94 1008 Z M -18 1046 L -18 1084 L 20 1084 L 20 1046 Z" fill="#f49fbc" stroke="#231F20" stroke-width="3"></path><path d="M -56 1160 L -18 1160 L -18 1122 L 20 1122 L 20 1160 L 58 1160 L 58 1122 L 96 1122 L 96 1160 L 134 1160 L 134 1198 L 96 1198 L 96 1236 L 134 1236 L 134 1274 L 96 1274 L 96 1312 L 58 1312 L 58 1274 L 20 1274 L 20 1312 L -18 1312 L -18 1274 L -56 1274 L -56 1236 L -18 1236 L -18 1198 L -56 1198 L -56 1160 Z M 20 1198 L 20 1236 L 58 1236 L 58 1198 Z" fill="#ffd3ba" stroke="#231F20" stroke-width="3"></path><path d="M -208 -94 L -170 -94 L -170 -132 L -132 -132 L -132 -94 L -94 -94 L -94 -132 L -56 -132 L -56 -94 L -18 -94 L -18 -56 L -56 -56 L -56 -18 L -18 -18 L -18 20 L -56 20 L -56 58 L -94 58 L -94 20 L -132 20 L -132 58 L -170 58 L -170 20 L -208 20 L -208 -18 L -170 -18 L -170 -56 L -208 -56 L -208 -94 Z M -132 -56 L -132 -18 L -94 -18 L -94 -56 Z" fill="#f49fbc" stroke="#231F20" stroke-width="3"></path><path d="M -170 58 L -132 58 L -132 20 L -94 20 L -94 58 L -56 58 L -56 20 L -18 20 L -18 58 L 20 58 L 20 96 L -18 96 L -18 134 L 20 134 L 20 172 L -18 172 L -18 210 L -56 210 L -56 172 L -94 172 L -94 210 L -132 210 L -132 172 L -170 172 L -170 134 L -132 134 L -132 96 L -170 96 L -170 58 Z M -94 96 L -94 134 L -56 134 L -56 96 Z" fill="#ffd3ba" stroke="#231F20" stroke-width="3"></path><path d="M -132 210 L -94 210 L -94 172 L -56 172 L -56 210 L -18 210 L -18 172 L 20 172 L 20 210 L 58 210 L 58 248 L 20 248 L 20 286 L 58 286 L 58 324 L 20 324 L 20 362 L -18 362 L -18 324 L -56 324 L -56 362 L -94 362 L -94 324 L -132 324 L -132 286 L -94 286 L -94 248 L -132 248 L -132 210 Z M -56 248 L -56 286 L -18 286 L -18 248 Z" fill="#f49fbc" stroke="#231F20" stroke-width="3"></path><path d="M -94 362 L -56 362 L -56 324 L -18 324 L -18 362 L 20 362 L 20 324 L 58 324 L 58 362 L 96 362 L 96 400 L 58 400 L 58 438 L 96 438 L 96 476 L 58 476 L 58 514 L 20 514 L 20 476 L -18 476 L -18 514 L -56 514 L -56 476 L -94 476 L -94 438 L -56 438 L -56 400 L -94 400 L -94 362 Z M -18 400 L -18 438 L 20 438 L 20 400 Z" fill="#ffd3ba" stroke="#231F20" stroke-width="3"></path><path d="M -56 514 L -18 514 L -18 476 L 20 476 L 20 514 L 58 514 L 58 476 L 96 476 L 96 514 L 134 514 L 134 552 L 96 552 L 96 590 L 134 590 L 134 628 L 96 628 L 96 666 L 58 666 L 58 628 L 20 628 L 20 666 L -18 666 L -18 628 L -56 628 L -56 590 L -18 590 L -18 552 L -56 552 L -56 514 Z M 20 552 L 20 590 L 58 590 L 58 552 Z" fill="#f49fbc" stroke="#231F20" stroke-width="3"></path><path d="M -18 666 L 20 666 L 20 628 L 58 628 L 58 666 L 96 666 L 96 628 L 134 628 L 134 666 L 172 666 L 172 704 L 134 704 L 134 742 L 172 742 L 172 780 L 134 780 L 134 818 L 96 818 L 96 780 L 58 780 L 58 818 L 20 818 L 20 780 L -18 780 L -18 742 L 20 742 L 20 704 L -18 704 L -18 666 Z M 58 704 L 58 742 L 96 742 L 96 704 Z" fill="#ffd3ba" stroke="#231F20" stroke-width="3"></path><path d="M 20 818 L 58 818 L 58 780 L 96 780 L 96 818 L 134 818 L 134 780 L 172 780 L 172 818 L 210 818 L 210 856 L 172 856 L 172 894 L 210 894 L 210 932 L 172 932 L 172 970 L 134 970 L 134 932 L 96 932 L 96 970 L 58 970 L 58 932 L 20 932 L 20 894 L 58 894 L 58 856 L 20 856 L 20 818 Z M 96 856 L 96 894 L 134 894 L 134 856 Z" fill="#f49fbc" stroke="#231F20" stroke-width="3"></path><path d="M 58 970 L 96 970 L 96 932 L 134 932 L 134 970 L 172 970 L 172 932 L 210 932 L 210 970 L 248 970 L 248 1008 L 210 1008 L 210 1046 L 248 1046 L 248 1084 L 210 1084 L 210 1122 L 172 1122 L 172 1084 L 134 1084 L 134 1122 L 96 1122 L 96 1084 L 58 1084 L 58 1046 L 96 1046 L 96 1008 L 58 1008 L 58 970 Z M 134 1008 L 134 1046 L 172 1046 L 172 1008 Z" fill="#ffd3ba" stroke="#231F20" stroke-width="3"></path><path d="M 96 1122 L 134 1122 L 134 1084 L 172 1084 L 172 1122 L 210 1122 L 210 1084 L 248 1084 L 248 1122 L 286 1122 L 286 1160 L 248 1160 L 248 1198 L 286 1198 L 286 1236 L 248 1236 L 248 1274 L 210 1274 L 210 1236 L 172 1236 L 172 1274 L 134 1274 L 134 1236 L 96 1236 L 96 1198 L 134 1198 L 134 1160 L 96 1160 L 96 1122 Z M 172 1160 L 172 1198 L 210 1198 L 210 1160 Z" fill="#f49fbc" stroke="#231F20" stroke-width="3"></path><path d="M -56 -132 L -18 -132 L -18 -170 L 20 -170 L 20 -132 L 58 -132 L 58 -170 L 96 -170 L 96 -132 L 134 -132 L 134 -94 L 96 -94 L 96 -56 L 134 -56 L 134 -18 L 96 -18 L 96 20 L 58 20 L 58 -18 L 20 -18 L 20 20 L -18 20 L -18 -18 L -56 -18 L -56 -56 L -18 -56 L -18 -94 L -56 -94 L -56 -132 Z M 20 -94 L 20 -56 L 58 -56 L 58 -94 Z" fill="#ffd3ba" stroke="#231F20" stroke-width="3"></path><path d="M -18 20 L 20 20 L 20 -18 L 58 -18 L 58 20 L 96 20 L 96 -18 L 134 -18 L 134 20 L 172 20 L 172 58 L 134 58 L 134 96 L 172 96 L 172 134 L 134 134 L 134 172 L 96 172 L 96 134 L 58 134 L 58 172 L 20 172 L 20 134 L -18 134 L -18 96 L 20 96 L 20 58 L -18 58 L -18 20 Z M 58 58 L 58 96 L 96 96 L 96 58 Z" fill="#f49fbc" stroke="#231F20" stroke-width="3"></path><path d="M 20 172 L 58 172 L 58 134 L 96 134 L 96 172 L 134 172 L 134 134 L 172 134 L 172 172 L 210 172 L 210 210 L 172 210 L 172 248 L 210 248 L 210 286 L 172 286 L 172 324 L 134 324 L 134 286 L 96 286 L 96 324 L 58 324 L 58 286 L 20 286 L 20 248 L 58 248 L 58 210 L 20 210 L 20 172 Z M 96 210 L 96 248 L 134 248 L 134 210 Z" fill="#ffd3ba" stroke="#231F20" stroke-width="3"></path><path d="M 58 324 L 96 324 L 96 286 L 134 286 L 134 324 L 172 324 L 172 286 L 210 286 L 210 324 L 248 324 L 248 362 L 210 362 L 210 400 L 248 400 L 248 438 L 210 438 L 210 476 L 172 476 L 172 438 L 134 438 L 134 476 L 96 476 L 96 438 L 58 438 L 58 400 L 96 400 L 96 362 L 58 362 L 58 324 Z M 134 362 L 134 400 L 172 400 L 172 362 Z" fill="#f49fbc" stroke="#231F20" stroke-width="3"></path><path d="M 96 476 L 134 476 L 134 438 L 172 438 L 172 476 L 210 476 L 210 438 L 248 438 L 248 476 L 286 476 L 286 514 L 248 514 L 248 552 L 286 552 L 286 590 L 248 590 L 248 628 L 210 628 L 210 590 L 172 590 L 172 628 L 134 628 L 134 590 L 96 590 L 96 552 L 134 552 L 134 514 L 96 514 L 96 476 Z M 172 514 L 172 552 L 210 552 L 210 514 Z" fill="#ffd3ba" stroke="#231F20" stroke-width="3"></path><path d="M 134 628 L 172 628 L 172 590 L 210 590 L 210 628 L 248 628 L 248 590 L 286 590 L 286 628 L 324 628 L 324 666 L 286 666 L 286 704 L 324 704 L 324 742 L 286 742 L 286 780 L 248 780 L 248 742 L 210 742 L 210 780 L 172 780 L 172 742 L 134 742 L 134 704 L 172 704 L 172 666 L 134 666 L 134 628 Z M 210 666 L 210 704 L 248 704 L 248 666 Z" fill="#f49fbc" stroke="#231F20" stroke-width="3"></path><path d="M 172 780 L 210 780 L 210 742 L 248 742 L 248 780 L 286 780 L 286 742 L 324 742 L 324 780 L 362 780 L 362 818 L 324 818 L 324 856 L 362 856 L 362 894 L 324 894 L 324 932 L 286 932 L 286 894 L 248 894 L 248 932 L 210 932 L 210 894 L 172 894 L 172 856 L 210 856 L 210 818 L 172 818 L 172 780 Z M 248 818 L 248 856 L 286 856 L 286 818 Z" fill="#ffd3ba" stroke="#231F20" stroke-width="3"></path><path d="M 210 932 L 248 932 L 248 894 L 286 894 L 286 932 L 324 932 L 324 894 L 362 894 L 362 932 L 400 932 L 400 970 L 362 970 L 362 1008 L 400 1008 L 400 1046 L 362 1046 L 362 1084 L 324 1084 L 324 1046 L 286 1046 L 286 1084 L 248 1084 L 248 1046 L 210 1046 L 210 1008 L 248 1008 L 248 970 L 210 970 L 210 932 Z M 286 970 L 286 1008 L 324 1008 L 324 970 Z" fill="#f49fbc" stroke="#231F20" stroke-width="3"></path><path d="M 248 1084 L 286 1084 L 286 1046 L 324 1046 L 324 1084 L 362 1084 L 362 1046 L 400 1046 L 400 1084 L 438 1084 L 438 1122 L 400 1122 L 400 1160 L 438 1160 L 438 1198 L 400 1198 L 400 1236 L 362 1236 L 362 1198 L 324 1198 L 324 1236 L 286 1236 L 286 1198 L 248 1198 L 248 1160 L 286 1160 L 286 1122 L 248 1122 L 248 1084 Z M 324 1122 L 324 1160 L 362 1160 L 362 1122 Z" fill="#ffd3ba" stroke="#231F20" stroke-width="3"></path><path d="M 96 -170 L 134 -170 L 134 -208 L 172 -208 L 172 -170 L 210 -170 L 210 -208 L 248 -208 L 248 -170 L 286 -170 L 286 -132 L 248 -132 L 248 -94 L 286 -94 L 286 -56 L 248 -56 L 248 -18 L 210 -18 L 210 -56 L 172 -56 L 172 -18 L 134 -18 L 134 -56 L 96 -56 L 96 -94 L 134 -94 L 134 -132 L 96 -132 L 96 -170 Z M 172 -132 L 172 -94 L 210 -94 L 210 -132 Z" fill="#f49fbc" stroke="#231F20" stroke-width="3"></path><path d="M 134 -18 L 172 -18 L 172 -56 L 210 -56 L 210 -18 L 248 -18 L 248 -56 L 286 -56 L 286 -18 L 324 -18 L 324 20 L 286 20 L 286 58 L 324 58 L 324 96 L 286 96 L 286 134 L 248 134 L 248 96 L 210 96 L 210 134 L 172 134 L 172 96 L 134 96 L 134 58 L 172 58 L 172 20 L 134 20 L 134 -18 Z M 210 20 L 210 58 L 248 58 L 248 20 Z" fill="#ffd3ba" stroke="#231F20" stroke-width="3"></path><path d="M 172 134 L 210 134 L 210 96 L 248 96 L 248 134 L 286 134 L 286 96 L 324 96 L 324 134 L 362 134 L 362 172 L 324 172 L 324 210 L 362 210 L 362 248 L 324 248 L 324 286 L 286 286 L 286 248 L 248 248 L 248 286 L 210 286 L 210 248 L 172 248 L 172 210 L 210 210 L 210 172 L 172 172 L 172 134 Z M 248 172 L 248 210 L 286 210 L 286 172 Z" fill="#f49fbc" stroke="#231F20" stroke-width="3"></path><path d="M 210 286 L 248 286 L 248 248 L 286 248 L 286 286 L 324 286 L 324 248 L 362 248 L 362 286 L 400 286 L 400 324 L 362 324 L 362 362 L 400 362 L 400 400 L 362 400 L 362 438 L 324 438 L 324 400 L 286 400 L 286 438 L 248 438 L 248 400 L 210 400 L 210 362 L 248 362 L 248 324 L 210 324 L 210 286 Z M 286 324 L 286 362 L 324 362 L 324 324 Z" fill="#ffd3ba" stroke="#231F20" stroke-width="3"></path><path d="M 248 438 L 286 438 L 286 400 L 324 400 L 324 438 L 362 438 L 362 400 L 400 400 L 400 438 L 438 438 L 438 476 L 400 476 L 400 514 L 438 514 L 438 552 L 400 552 L 400 590 L 362 590 L 362 552 L 324 552 L 324 590 L 286 590 L 286 552 L 248 552 L 248 514 L 286 514 L 286 476 L 248 476 L 248 438 Z M 324 476 L 324 514 L 362 514 L 362 476 Z" fill="#f49fbc" stroke="#231F20" stroke-width="3"></path><path d="M 286 590 L 324 590 L 324 552 L 362 552 L 362 590 L 400 590 L 400 552 L 438 552 L 438 590 L 476 590 L 476 628 L 438 628 L 438 666 L 476 666 L 476 704 L 438 704 L 438 742 L 400 742 L 400 704 L 362 704 L 362 742 L 324 742 L 324 704 L 286 704 L 286 666 L 324 666 L 324 628 L 286 628 L 286 590 Z M 362 628 L 362 666 L 400 666 L 400 628 Z" fill="#ffd3ba" stroke="#231F20" stroke-width="3"></path><path d="M 324 742 L 362 742 L 362 704 L 400 704 L 400 742 L 438 742 L 438 704 L 476 704 L 476 742 L 514 742 L 514 780 L 476 780 L 476 818 L 514 818 L 514 856 L 476 856 L 476 894 L 438 894 L 438 856 L 400 856 L 400 894 L 362 894 L 362 856 L 324 856 L 324 818 L 362 818 L 362 780 L 324 780 L 324 742 Z M 400 780 L 400 818 L 438 818 L 438 780 Z" fill="#f49fbc" stroke="#231F20" stroke-width="3"></path><path d="M 362 894 L 400 894 L 400 856 L 438 856 L 438 894 L 476 894 L 476 856 L 514 856 L 514 894 L 552 894 L 552 932 L 514 932 L 514 970 L 552 970 L 552 1008 L 514 1008 L 514 1046 L 476 1046 L 476 1008 L 438 1008 L 438 1046 L 400 1046 L 400 1008 L 362 1008 L 362 970 L 400 970 L 400 932 L 362 932 L 362 894 Z M 438 932 L 438 970 L 476 970 L 476 932 Z" fill="#ffd3ba" stroke="#231F20" stroke-width="3"></path><path d="M 400 1046 L 438 1046 L 438 1008 L 476 1008 L 476 1046 L 514 1046 L 514 1008 L 552 1008 L 552 1046 L 590 1046 L 590 1084 L 552 1084 L 552 1122 L 590 1122 L 590 1160 L 552 1160 L 552 1198 L 514 1198 L 514 1160 L 476 1160 L 476 1198 L 438 1198 L 438 1160 L 400 1160 L 400 1122 L 438 1122 L 438 1084 L 400 1084 L 400 1046 Z M 476 1084 L 476 1122 L 514 1122 L 514 1084 Z" fill="#f49fbc" stroke="#231F20" stroke-width="3"></path><path d="M 248 -208 L 286 -208 L 286 -246 L 324 -246 L 324 -208 L 362 -208 L 362 -246 L 400 -246 L 400 -208 L 438 -208 L 438 -170 L 400 -170 L 400 -132 L 438 -132 L 438 -94 L 400 -94 L 400 -56 L 362 -56 L 362 -94 L 324 -94 L 324 -56 L 286 -56 L 286 -94 L 248 -94 L 248 -132 L 286 -132 L 286 -170 L 248 -170 L 248 -208 Z M 324 -170 L 324 -132 L 362 -132 L 362 -170 Z" fill="#ffd3ba" stroke="#231F20" stroke-width="3"></path><path d="M 286 -56 L 324 -56 L 324 -94 L 362 -94 L 362 -56 L 400 -56 L 400 -94 L 438 -94 L 438 -56 L 476 -56 L 476 -18 L 438 -18 L 438 20 L 476 20 L 476 58 L 438 58 L 438 96 L 400 96 L 400 58 L 362 58 L 362 96 L 324 96 L 324 58 L 286 58 L 286 20 L 324 20 L 324 -18 L 286 -18 L 286 -56 Z M 362 -18 L 362 20 L 400 20 L 400 -18 Z" fill="#f49fbc" stroke="#231F20" stroke-width="3"></path><path d="M 324 96 L 362 96 L 362 58 L 400 58 L 400 96 L 438 96 L 438 58 L 476 58 L 476 96 L 514 96 L 514 134 L 476 134 L 476 172 L 514 172 L 514 210 L 476 210 L 476 248 L 438 248 L 438 210 L 400 210 L 400 248 L 362 248 L 362 210 L 324 210 L 324 172 L 362 172 L 362 134 L 324 134 L 324 96 Z M 400 134 L 400 172 L 438 172 L 438 134 Z" fill="#ffd3ba" stroke="#231F20" stroke-width="3"></path><path d="M 362 248 L 400 248 L 400 210 L 438 210 L 438 248 L 476 248 L 476 210 L 514 210 L 514 248 L 552 248 L 552 286 L 514 286 L 514 324 L 552 324 L 552 362 L 514 362 L 514 400 L 476 400 L 476 362 L 438 362 L 438 400 L 400 400 L 400 362 L 362 362 L 362 324 L 400 324 L 400 286 L 362 286 L 362 248 Z M 438 286 L 438 324 L 476 324 L 476 286 Z" fill="#f49fbc" stroke="#231F20" stroke-width="3"></path><path d="M 400 400 L 438 400 L 438 362 L 476 362 L 476 400 L 514 400 L 514 362 L 552 362 L 552 400 L 590 400 L 590 438 L 552 438 L 552 476 L 590 476 L 590 514 L 552 514 L 552 552 L 514 552 L 514 514 L 476 514 L 476 552 L 438 552 L 438 514 L 400 514 L 400 476 L 438 476 L 438 438 L 400 438 L 400 400 Z M 476 438 L 476 476 L 514 476 L 514 438 Z" fill="#ffd3ba" stroke="#231F20" stroke-width="3"></path><path d="M 438 552 L 476 552 L 476 514 L 514 514 L 514 552 L 552 552 L 552 514 L 590 514 L 590 552 L 628 552 L 628 590 L 590 590 L 590 628 L 628 628 L 628 666 L 590 666 L 590 704 L 552 704 L 552 666 L 514 666 L 514 704 L 476 704 L 476 666 L 438 666 L 438 628 L 476 628 L 476 590 L 438 590 L 438 552 Z M 514 590 L 514 628 L 552 628 L 552 590 Z" fill="#f49fbc" stroke="#231F20" stroke-width="3"></path><path d="M 476 704 L 514 704 L 514 666 L 552 666 L 552 704 L 590 704 L 590 666 L 628 666 L 628 704 L 666 704 L 666 742 L 628 742 L 628 780 L 666 780 L 666 818 L 628 818 L 628 856 L 590 856 L 590 818 L 552 818 L 552 856 L 514 856 L 514 818 L 476 818 L 476 780 L 514 780 L 514 742 L 476 742 L 476 704 Z M 552 742 L 552 780 L 590 780 L 590 742 Z" fill="#ffd3ba" stroke="#231F20" stroke-width="3"></path><path d="M 514 856 L 552 856 L 552 818 L 590 818 L 590 856 L 628 856 L 628 818 L 666 818 L 666 856 L 704 856 L 704 894 L 666 894 L 666 932 L 704 932 L 704 970 L 666 970 L 666 1008 L 628 1008 L 628 970 L 590 970 L 590 1008 L 552 1008 L 552 970 L 514 970 L 514 932 L 552 932 L 552 894 L 514 894 L 514 856 Z M 590 894 L 590 932 L 628 932 L 628 894 Z" fill="#f49fbc" stroke="#231F20" stroke-width="3"></path><path d="M 552 1008 L 590 1008 L 590 970 L 628 970 L 628 1008 L 666 1008 L 666 970 L 704 970 L 704 1008 L 742 1008 L 742 1046 L 704 1046 L 704 1084 L 742 1084 L 742 1122 L 704 1122 L 704 1160 L 666 1160 L 666 1122 L 628 1122 L 628 1160 L 590 1160 L 590 1122 L 552 1122 L 552 1084 L 590 1084 L 590 1046 L 552 1046 L 552 1008 Z M 628 1046 L 628 1084 L 666 1084 L 666 1046 Z" fill="#ffd3ba" stroke="#231F20" stroke-width="3"></path><path d="M 400 -246 L 438 -246 L 438 -284 L 476 -284 L 476 -246 L 514 -246 L 514 -284 L 552 -284 L 552 -246 L 590 -246 L 590 -208 L 552 -208 L 552 -170 L 590 -170 L 590 -132 L 552 -132 L 552 -94 L 514 -94 L 514 -132 L 476 -132 L 476 -94 L 438 -94 L 438 -132 L 400 -132 L 400 -170 L 438 -170 L 438 -208 L 400 -208 L 400 -246 Z M 476 -208 L 476 -170 L 514 -170 L 514 -208 Z" fill="#f49fbc" stroke="#231F20" stroke-width="3"></path><path d="M 438 -94 L 476 -94 L 476 -132 L 514 -132 L 514 -94 L 552 -94 L 552 -132 L 590 -132 L 590 -94 L 628 -94 L 628 -56 L 590 -56 L 590 -18 L 628 -18 L 628 20 L 590 20 L 590 58 L 552 58 L 552 20 L 514 20 L 514 58 L 476 58 L 476 20 L 438 20 L 438 -18 L 476 -18 L 476 -56 L 438 -56 L 438 -94 Z M 514 -56 L 514 -18 L 552 -18 L 552 -56 Z" fill="#ffd3ba" stroke="#231F20" stroke-width="3"></path><path d="M 476 58 L 514 58 L 514 20 L 552 20 L 552 58 L 590 58 L 590 20 L 628 20 L 628 58 L 666 58 L 666 96 L 628 96 L 628 134 L 666 134 L 666 172 L 628 172 L 628 210 L 590 210 L 590 172 L 552 172 L 552 210 L 514 210 L 514 172 L 476 172 L 476 134 L 514 134 L 514 96 L 476 96 L 476 58 Z M 552 96 L 552 134 L 590 134 L 590 96 Z" fill="#f49fbc" stroke="#231F20" stroke-width="3"></path><path d="M 514 210 L 552 210 L 552 172 L 590 172 L 590 210 L 628 210 L 628 172 L 666 172 L 666 210 L 704 210 L 704 248 L 666 248 L 666 286 L 704 286 L 704 324 L 666 324 L 666 362 L 628 362 L 628 324 L 590 324 L 590 362 L 552 362 L 552 324 L 514 324 L 514 286 L 552 286 L 552 248 L 514 248 L 514 210 Z M 590 248 L 590 286 L 628 286 L 628 248 Z" fill="#ffd3ba" stroke="#231F20" stroke-width="3"></path><path d="M 552 362 L 590 362 L 590 324 L 628 324 L 628 362 L 666 362 L 666 324 L 704 324 L 704 362 L 742 362 L 742 400 L 704 400 L 704 438 L 742 438 L 742 476 L 704 476 L 704 514 L 666 514 L 666 476 L 628 476 L 628 514 L 590 514 L 590 476 L 552 476 L 552 438 L 590 438 L 590 400 L 552 400 L 552 362 Z M 628 400 L 628 438 L 666 438 L 666 400 Z" fill="#f49fbc" stroke="#231F20" stroke-width="3"></path><path d="M 590 514 L 628 514 L 628 476 L 666 476 L 666 514 L 704 514 L 704 476 L 742 476 L 742 514 L 780 514 L 780 552 L 742 552 L 742 590 L 780 590 L 780 628 L 742 628 L 742 666 L 704 666 L 704 628 L 666 628 L 666 666 L 628 666 L 628 628 L 590 628 L 590 590 L 628 590 L 628 552 L 590 552 L 590 514 Z M 666 552 L 666 590 L 704 590 L 704 552 Z" fill="#ffd3ba" stroke="#231F20" stroke-width="3"></path><path d="M 628 666 L 666 666 L 666 628 L 704 628 L 704 666 L 742 666 L 742 628 L 780 628 L 780 666 L 818 666 L 818 704 L 780 704 L 780 742 L 818 742 L 818 780 L 780 780 L 780 818 L 742 818 L 742 780 L 704 780 L 704 818 L 666 818 L 666 780 L 628 780 L 628 742 L 666 742 L 666 704 L 628 704 L 628 666 Z M 704 704 L 704 742 L 742 742 L 742 704 Z" fill="#f49fbc" stroke="#231F20" stroke-width="3"></path><path d="M 666 818 L 704 818 L 704 780 L 742 780 L 742 818 L 780 818 L 780 780 L 818 780 L 818 818 L 856 818 L 856 856 L 818 856 L 818 894 L 856 894 L 856 932 L 818 932 L 818 970 L 780 970 L 780 932 L 742 932 L 742 970 L 704 970 L 704 932 L 666 932 L 666 894 L 704 894 L 704 856 L 666 856 L 666 818 Z M 742 856 L 742 894 L 780 894 L 780 856 Z" fill="#ffd3ba" stroke="#231F20" stroke-width="3"></path><path d="M 704 970 L 742 970 L 742 932 L 780 932 L 780 970 L 818 970 L 818 932 L 856 932 L 856 970 L 894 970 L 894 1008 L 856 1008 L 856 1046 L 894 1046 L 894 1084 L 856 1084 L 856 1122 L 818 1122 L 818 1084 L 780 1084 L 780 1122 L 742 1122 L 742 1084 L 704 1084 L 704 1046 L 742 1046 L 742 1008 L 704 1008 L 704 970 Z M 780 1008 L 780 1046 L 818 1046 L 818 1008 Z" fill="#f49fbc" stroke="#231F20" stroke-width="3"></path><path d="M 552 -284 L 590 -284 L 590 -322 L 628 -322 L 628 -284 L 666 -284 L 666 -322 L 704 -322 L 704 -284 L 742 -284 L 742 -246 L 704 -246 L 704 -208 L 742 -208 L 742 -170 L 704 -170 L 704 -132 L 666 -132 L 666 -170 L 628 -170 L 628 -132 L 590 -132 L 590 -170 L 552 -170 L 552 -208 L 590 -208 L 590 -246 L 552 -246 L 552 -284 Z M 628 -246 L 628 -208 L 666 -208 L 666 -246 Z" fill="#ffd3ba" stroke="#231F20" stroke-width="3"></path><path d="M 590 -132 L 628 -132 L 628 -170 L 666 -170 L 666 -132 L 704 -132 L 704 -170 L 742 -170 L 742 -132 L 780 -132 L 780 -94 L 742 -94 L 742 -56 L 780 -56 L 780 -18 L 742 -18 L 742 20 L 704 20 L 704 -18 L 666 -18 L 666 20 L 628 20 L 628 -18 L 590 -18 L 590 -56 L 628 -56 L 628 -94 L 590 -94 L 590 -132 Z M 666 -94 L 666 -56 L 704 -56 L 704 -94 Z" fill="#f49fbc" stroke="#231F20" stroke-width="3"></path><path d="M 628 20 L 666 20 L 666 -18 L 704 -18 L 704 20 L 742 20 L 742 -18 L 780 -18 L 780 20 L 818 20 L 818 58 L 780 58 L 780 96 L 818 96 L 818 134 L 780 134 L 780 172 L 742 172 L 742 134 L 704 134 L 704 172 L 666 172 L 666 134 L 628 134 L 628 96 L 666 96 L 666 58 L 628 58 L 628 20 Z M 704 58 L 704 96 L 742 96 L 742 58 Z" fill="#ffd3ba" stroke="#231F20" stroke-width="3"></path><path d="M 666 172 L 704 172 L 704 134 L 742 134 L 742 172 L 780 172 L 780 134 L 818 134 L 818 172 L 856 172 L 856 210 L 818 210 L 818 248 L 856 248 L 856 286 L 818 286 L 818 324 L 780 324 L 780 286 L 742 286 L 742 324 L 704 324 L 704 286 L 666 286 L 666 248 L 704 248 L 704 210 L 666 210 L 666 172 Z M 742 210 L 742 248 L 780 248 L 780 210 Z" fill="#f49fbc" stroke="#231F20" stroke-width="3"></path><path d="M 704 324 L 742 324 L 742 286 L 780 286 L 780 324 L 818 324 L 818 286 L 856 286 L 856 324 L 894 324 L 894 362 L 856 362 L 856 400 L 894 400 L 894 438 L 856 438 L 856 476 L 818 476 L 818 438 L 780 438 L 780 476 L 742 476 L 742 438 L 704 438 L 704 400 L 742 400 L 742 362 L 704 362 L 704 324 Z M 780 362 L 780 400 L 818 400 L 818 362 Z" fill="#ffd3ba" stroke="#231F20" stroke-width="3"></path><path d="M 742 476 L 780 476 L 780 438 L 818 438 L 818 476 L 856 476 L 856 438 L 894 438 L 894 476 L 932 476 L 932 514 L 894 514 L 894 552 L 932 552 L 932 590 L 894 590 L 894 628 L 856 628 L 856 590 L 818 590 L 818 628 L 780 628 L 780 590 L 742 590 L 742 552 L 780 552 L 780 514 L 742 514 L 742 476 Z M 818 514 L 818 552 L 856 552 L 856 514 Z" fill="#f49fbc" stroke="#231F20" stroke-width="3"></path><path d="M 780 628 L 818 628 L 818 590 L 856 590 L 856 628 L 894 628 L 894 590 L 932 590 L 932 628 L 970 628 L 970 666 L 932 666 L 932 704 L 970 704 L 970 742 L 932 742 L 932 780 L 894 780 L 894 742 L 856 742 L 856 780 L 818 780 L 818 742 L 780 742 L 780 704 L 818 704 L 818 666 L 780 666 L 780 628 Z M 856 666 L 856 704 L 894 704 L 894 666 Z" fill="#ffd3ba" stroke="#231F20" stroke-width="3"></path><path d="M 818 780 L 856 780 L 856 742 L 894 742 L 894 780 L 932 780 L 932 742 L 970 742 L 970 780 L 1008 780 L 1008 818 L 970 818 L 970 856 L 1008 856 L 1008 894 L 970 894 L 970 932 L 932 932 L 932 894 L 894 894 L 894 932 L 856 932 L 856 894 L 818 894 L 818 856 L 856 856 L 856 818 L 818 818 L 818 780 Z M 894 818 L 894 856 L 932 856 L 932 818 Z" fill="#f49fbc" stroke="#231F20" stroke-width="3"></path><path d="M 856 932 L 894 932 L 894 894 L 932 894 L 932 932 L 970 932 L 970 894 L 1008 894 L 1008 932 L 1046 932 L 1046 970 L 1008 970 L 1008 1008 L 1046 1008 L 1046 1046 L 1008 1046 L 1008 1084 L 970 1084 L 970 1046 L 932 1046 L 932 1084 L 894 1084 L 894 1046 L 856 1046 L 856 1008 L 894 1008 L 894 970 L 856 970 L 856 932 Z M 932 970 L 932 1008 L 970 1008 L 970 970 Z" fill="#ffd3ba" stroke="#231F20" stroke-width="3"></path><path d="M 704 -322 L 742 -322 L 742 -360 L 780 -360 L 780 -322 L 818 -322 L 818 -360 L 856 -360 L 856 -322 L 894 -322 L 894 -284 L 856 -284 L 856 -246 L 894 -246 L 894 -208 L 856 -208 L 856 -170 L 818 -170 L 818 -208 L 780 -208 L 780 -170 L 742 -170 L 742 -208 L 704 -208 L 704 -246 L 742 -246 L 742 -284 L 704 -284 L 704 -322 Z M 780 -284 L 780 -246 L 818 -246 L 818 -284 Z" fill="#f49fbc" stroke="#231F20" stroke-width="3"></path><path d="M 742 -170 L 780 -170 L 780 -208 L 818 -208 L 818 -170 L 856 -170 L 856 -208 L 894 -208 L 894 -170 L 932 -170 L 932 -132 L 894 -132 L 894 -94 L 932 -94 L 932 -56 L 894 -56 L 894 -18 L 856 -18 L 856 -56 L 818 -56 L 818 -18 L 780 -18 L 780 -56 L 742 -56 L 742 -94 L 780 -94 L 780 -132 L 742 -132 L 742 -170 Z M 818 -132 L 818 -94 L 856 -94 L 856 -132 Z" fill="#ffd3ba" stroke="#231F20" stroke-width="3"></path><path d="M 780 -18 L 818 -18 L 818 -56 L 856 -56 L 856 -18 L 894 -18 L 894 -56 L 932 -56 L 932 -18 L 970 -18 L 970 20 L 932 20 L 932 58 L 970 58 L 970 96 L 932 96 L 932 134 L 894 134 L 894 96 L 856 96 L 856 134 L 818 134 L 818 96 L 780 96 L 780 58 L 818 58 L 818 20 L 780 20 L 780 -18 Z M 856 20 L 856 58 L 894 58 L 894 20 Z" fill="#f49fbc" stroke="#231F20" stroke-width="3"></path><path d="M 818 134 L 856 134 L 856 96 L 894 96 L 894 134 L 932 134 L 932 96 L 970 96 L 970 134 L 1008 134 L 1008 172 L 970 172 L 970 210 L 1008 210 L 1008 248 L 970 248 L 970 286 L 932 286 L 932 248 L 894 248 L 894 286 L 856 286 L 856 248 L 818 248 L 818 210 L 856 210 L 856 172 L 818 172 L 818 134 Z M 894 172 L 894 210 L 932 210 L 932 172 Z" fill="#ffd3ba" stroke="#231F20" stroke-width="3"></path><path d="M 856 286 L 894 286 L 894 248 L 932 248 L 932 286 L 970 286 L 970 248 L 1008 248 L 1008 286 L 1046 286 L 1046 324 L 1008 324 L 1008 362 L 1046 362 L 1046 400 L 1008 400 L 1008 438 L 970 438 L 970 400 L 932 400 L 932 438 L 894 438 L 894 400 L 856 400 L 856 362 L 894 362 L 894 324 L 856 324 L 856 286 Z M 932 324 L 932 362 L 970 362 L 970 324 Z" fill="#f49fbc" stroke="#231F20" stroke-width="3"></path><path d="M 894 438 L 932 438 L 932 400 L 970 400 L 970 438 L 1008 438 L 1008 400 L 1046 400 L 1046 438 L 1084 438 L 1084 476 L 1046 476 L 1046 514 L 1084 514 L 1084 552 L 1046 552 L 1046 590 L 1008 590 L 1008 552 L 970 552 L 970 590 L 932 590 L 932 552 L 894 552 L 894 514 L 932 514 L 932 476 L 894 476 L 894 438 Z M 970 476 L 970 514 L 1008 514 L 1008 476 Z" fill="#ffd3ba" stroke="#231F20" stroke-width="3"></path><path d="M 932 590 L 970 590 L 970 552 L 1008 552 L 1008 590 L 1046 590 L 1046 552 L 1084 552 L 1084 590 L 1122 590 L 1122 628 L 1084 628 L 1084 666 L 1122 666 L 1122 704 L 1084 704 L 1084 742 L 1046 742 L 1046 704 L 1008 704 L 1008 742 L 970 742 L 970 704 L 932 704 L 932 666 L 970 666 L 970 628 L 932 628 L 932 590 Z M 1008 628 L 1008 666 L 1046 666 L 1046 628 Z" fill="#f49fbc" stroke="#231F20" stroke-width="3"></path><path d="M 970 742 L 1008 742 L 1008 704 L 1046 704 L 1046 742 L 1084 742 L 1084 704 L 1122 704 L 1122 742 L 1160 742 L 1160 780 L 1122 780 L 1122 818 L 1160 818 L 1160 856 L 1122 856 L 1122 894 L 1084 894 L 1084 856 L 1046 856 L 1046 894 L 1008 894 L 1008 856 L 970 856 L 970 818 L 1008 818 L 1008 780 L 970 780 L 970 742 Z M 1046 780 L 1046 818 L 1084 818 L 1084 780 Z" fill="#ffd3ba" stroke="#231F20" stroke-width="3"></path><path d="M 1008 894 L 1046 894 L 1046 856 L 1084 856 L 1084 894 L 1122 894 L 1122 856 L 1160 856 L 1160 894 L 1198 894 L 1198 932 L 1160 932 L 1160 970 L 1198 970 L 1198 1008 L 1160 1008 L 1160 1046 L 1122 1046 L 1122 1008 L 1084 1008 L 1084 1046 L 1046 1046 L 1046 1008 L 1008 1008 L 1008 970 L 1046 970 L 1046 932 L 1008 932 L 1008 894 Z M 1084 932 L 1084 970 L 1122 970 L 1122 932 Z" fill="#f49fbc" stroke="#231F20" stroke-width="3"></path><path d="M 856 -360 L 894 -360 L 894 -398 L 932 -398 L 932 -360 L 970 -360 L 970 -398 L 1008 -398 L 1008 -360 L 1046 -360 L 1046 -322 L 1008 -322 L 1008 -284 L 1046 -284 L 1046 -246 L 1008 -246 L 1008 -208 L 970 -208 L 970 -246 L 932 -246 L 932 -208 L 894 -208 L 894 -246 L 856 -246 L 856 -284 L 894 -284 L 894 -322 L 856 -322 L 856 -360 Z M 932 -322 L 932 -284 L 970 -284 L 970 -322 Z" fill="#ffd3ba" stroke="#231F20" stroke-width="3"></path><path d="M 894 -208 L 932 -208 L 932 -246 L 970 -246 L 970 -208 L 1008 -208 L 1008 -246 L 1046 -246 L 1046 -208 L 1084 -208 L 1084 -170 L 1046 -170 L 1046 -132 L 1084 -132 L 1084 -94 L 1046 -94 L 1046 -56 L 1008 -56 L 1008 -94 L 970 -94 L 970 -56 L 932 -56 L 932 -94 L 894 -94 L 894 -132 L 932 -132 L 932 -170 L 894 -170 L 894 -208 Z M 970 -170 L 970 -132 L 1008 -132 L 1008 -170 Z" fill="#f49fbc" stroke="#231F20" stroke-width="3"></path><path d="M 932 -56 L 970 -56 L 970 -94 L 1008 -94 L 1008 -56 L 1046 -56 L 1046 -94 L 1084 -94 L 1084 -56 L 1122 -56 L 1122 -18 L 1084 -18 L 1084 20 L 1122 20 L 1122 58 L 1084 58 L 1084 96 L 1046 96 L 1046 58 L 1008 58 L 1008 96 L 970 96 L 970 58 L 932 58 L 932 20 L 970 20 L 970 -18 L 932 -18 L 932 -56 Z M 1008 -18 L 1008 20 L 1046 20 L 1046 -18 Z" fill="#ffd3ba" stroke="#231F20" stroke-width="3"></path><path d="M 970 96 L 1008 96 L 1008 58 L 1046 58 L 1046 96 L 1084 96 L 1084 58 L 1122 58 L 1122 96 L 1160 96 L 1160 134 L 1122 134 L 1122 172 L 1160 172 L 1160 210 L 1122 210 L 1122 248 L 1084 248 L 1084 210 L 1046 210 L 1046 248 L 1008 248 L 1008 210 L 970 210 L 970 172 L 1008 172 L 1008 134 L 970 134 L 970 96 Z M 1046 134 L 1046 172 L 1084 172 L 1084 134 Z" fill="#f49fbc" stroke="#231F20" stroke-width="3"></path><path d="M 1008 248 L 1046 248 L 1046 210 L 1084 210 L 1084 248 L 1122 248 L 1122 210 L 1160 210 L 1160 248 L 1198 248 L 1198 286 L 1160 286 L 1160 324 L 1198 324 L 1198 362 L 1160 362 L 1160 400 L 1122 400 L 1122 362 L 1084 362 L 1084 400 L 1046 400 L 1046 362 L 1008 362 L 1008 324 L 1046 324 L 1046 286 L 1008 286 L 1008 248 Z M 1084 286 L 1084 324 L 1122 324 L 1122 286 Z" fill="#ffd3ba" stroke="#231F20" stroke-width="3"></path><path d="M 1046 400 L 1084 400 L 1084 362 L 1122 362 L 1122 400 L 1160 400 L 1160 362 L 1198 362 L 1198 400 L 1236 400 L 1236 438 L 1198 438 L 1198 476 L 1236 476 L 1236 514 L 1198 514 L 1198 552 L 1160 552 L 1160 514 L 1122 514 L 1122 552 L 1084 552 L 1084 514 L 1046 514 L 1046 476 L 1084 476 L 1084 438 L 1046 438 L 1046 400 Z M 1122 438 L 1122 476 L 1160 476 L 1160 438 Z" fill="#f49fbc" stroke="#231F20" stroke-width="3"></path><path d="M 1084 552 L 1122 552 L 1122 514 L 1160 514 L 1160 552 L 1198 552 L 1198 514 L 1236 514 L 1236 552 L 1274 552 L 1274 590 L 1236 590 L 1236 628 L 1274 628 L 1274 666 L 1236 666 L 1236 704 L 1198 704 L 1198 666 L 1160 666 L 1160 704 L 1122 704 L 1122 666 L 1084 666 L 1084 628 L 1122 628 L 1122 590 L 1084 590 L 1084 552 Z M 1160 590 L 1160 628 L 1198 628 L 1198 590 Z" fill="#ffd3ba" stroke="#231F20" stroke-width="3"></path><path d="M 1122 704 L 1160 704 L 1160 666 L 1198 666 L 1198 704 L 1236 704 L 1236 666 L 1274 666 L 1274 704 L 1312 704 L 1312 742 L 1274 742 L 1274 780 L 1312 780 L 1312 818 L 1274 818 L 1274 856 L 1236 856 L 1236 818 L 1198 818 L 1198 856 L 1160 856 L 1160 818 L 1122 818 L 1122 780 L 1160 780 L 1160 742 L 1122 742 L 1122 704 Z M 1198 742 L 1198 780 L 1236 780 L 1236 742 Z" fill="#f49fbc" stroke="#231F20" stroke-width="3"></path><path d="M 1160 856 L 1198 856 L 1198 818 L 1236 818 L 1236 856 L 1274 856 L 1274 818 L 1312 818 L 1312 856 L 1350 856 L 1350 894 L 1312 894 L 1312 932 L 1350 932 L 1350 970 L 1312 970 L 1312 1008 L 1274 1008 L 1274 970 L 1236 970 L 1236 1008 L 1198 1008 L 1198 970 L 1160 970 L 1160 932 L 1198 932 L 1198 894 L 1160 894 L 1160 856 Z M 1236 894 L 1236 932 L 1274 932 L 1274 894 Z" fill="#ffd3ba" stroke="#231F20" stroke-width="3"></path><ellipse cx="400" cy="400" rx="600" ry="600" fill="none" stroke="white" stroke-width="560"></ellipse><ellipse cx="400" cy="400" rx="320" ry="320" fill="none" stroke="#805d93" stroke-width="3"></ellipse></svg>