<svg viewBox="0 0 800 800" preserveAspectRatio="xMidYMin slice" xmlns="http://www.w3.org/2000/svg" xlink="http://www.w3.org/1999/xlink"><path d="M 400 400 L 426.6 384.6 L 453.3 400 L 453.3 430.8 L 479.9 446.2 L 506.6 430.8 L 479.9 415.4 L 479.9 384.6 L 506.6 369.2 L 506.6 338.5 L 479.9 323.1 L 479.9 353.8 L 453.3 369.2 L 426.6 353.8 L 400 369.2 Z" fill="#0e79b2" stroke="black" stroke-width="0"></path><path d="M 400 400 L 426.6 415.4 L 426.6 446.2 L 400 461.5 L 400 492.3 L 426.6 507.7 L 426.6 476.9 L 453.3 461.5 L 479.9 476.9 L 506.6 461.5 L 506.6 430.8 L 479.9 446.2 L 453.3 430.8 L 453.3 400 L 426.6 384.6 Z" fill="#ffca3a" stroke="black" stroke-width="0"></path><path d="M 400 400 L 400 430.8 L 373.4 446.2 L 346.7 430.8 L 320.1 446.2 L 320.1 476.9 L 346.7 461.5 L 373.4 476.9 L 373.4 507.7 L 400 523.1 L 426.6 507.7 L 400 492.3 L 400 461.5 L 426.6 446.2 L 426.6 415.4 Z" fill="#0d2149" stroke="black" stroke-width="0"></path><path d="M 400 400 L 373.4 415.4 L 346.7 400 L 346.7 369.2 L 320.1 353.8 L 293.4 369.2 L 320.1 384.6 L 320.1 415.4 L 293.4 430.8 L 293.4 461.5 L 320.1 476.9 L 320.1 446.2 L 346.7 430.8 L 373.4 446.2 L 400 430.8 Z" fill="#0e79b2" stroke="black" stroke-width="0"></path><path d="M 400 400 L 373.4 384.6 L 373.4 353.8 L 400 338.5 L 400 307.7 L 373.4 292.3 L 373.4 323.1 L 346.7 338.5 L 320.1 323.1 L 293.4 338.5 L 293.4 369.2 L 320.1 353.8 L 346.7 369.2 L 346.7 400 L 373.4 415.4 Z" fill="#ffca3a" stroke="black" stroke-width="0"></path><path d="M 400 400 L 400 369.2 L 426.6 353.8 L 453.3 369.2 L 479.9 353.8 L 479.9 323.1 L 453.3 338.5 L 426.6 323.1 L 426.6 292.3 L 400 276.9 L 373.4 292.3 L 400 307.7 L 400 338.5 L 373.4 353.8 L 373.4 384.6 Z" fill="#0d2149" stroke="black" stroke-width="0"></path><path d="M 533.2 538.5 L 559.9 553.8 L 559.9 584.6 L 533.2 600 L 533.2 630.8 L 559.9 646.2 L 559.9 615.4 L 586.5 600 L 613.2 615.4 L 639.8 600 L 639.8 569.2 L 613.2 584.6 L 586.5 569.2 L 586.5 538.5 L 559.9 523.1 Z" fill="#0e79b2" stroke="black" stroke-width="0"></path><path d="M 533.2 538.5 L 533.2 569.2 L 506.6 584.6 L 479.9 569.2 L 453.3 584.6 L 453.3 615.4 L 479.9 600 L 506.6 615.4 L 506.6 646.2 L 533.2 661.5 L 559.9 646.2 L 533.2 630.8 L 533.2 600 L 559.9 584.6 L 559.9 553.8 Z" fill="#ffca3a" stroke="black" stroke-width="0"></path><path d="M 533.2 538.5 L 506.6 553.8 L 479.9 538.5 L 479.9 507.7 L 453.3 492.3 L 426.6 507.7 L 453.3 523.1 L 453.3 553.8 L 426.6 569.2 L 426.6 600 L 453.3 615.4 L 453.3 584.6 L 479.9 569.2 L 506.6 584.6 L 533.2 569.2 Z" fill="#0d2149" stroke="black" stroke-width="0"></path><path d="M 533.2 538.5 L 506.6 523.1 L 506.6 492.3 L 533.2 476.9 L 533.2 446.2 L 506.6 430.8 L 506.6 461.5 L 479.9 476.9 L 453.3 461.5 L 426.6 476.9 L 426.6 507.7 L 453.3 492.3 L 479.9 507.7 L 479.9 538.5 L 506.6 553.8 Z" fill="#0e79b2" stroke="black" stroke-width="0"></path><path d="M 533.2 538.5 L 533.2 507.7 L 559.9 492.3 L 586.5 507.7 L 613.2 492.3 L 613.2 461.5 L 586.5 476.9 L 559.9 461.5 L 559.9 430.8 L 533.2 415.4 L 506.6 430.8 L 533.2 446.2 L 533.2 476.9 L 506.6 492.3 L 506.6 523.1 Z" fill="#ffca3a" stroke="black" stroke-width="0"></path><path d="M 533.2 538.5 L 559.9 523.1 L 586.5 538.5 L 586.5 569.2 L 613.2 584.6 L 639.8 569.2 L 613.2 553.8 L 613.2 523.1 L 639.8 507.7 L 639.8 476.9 L 613.2 461.5 L 613.2 492.3 L 586.5 507.7 L 559.9 492.3 L 533.2 507.7 Z" fill="#0d2149" stroke="black" stroke-width="0"></path><path d="M 586.5 353.8 L 586.5 384.6 L 559.9 400 L 533.2 384.6 L 506.6 400 L 506.6 430.8 L 533.2 415.4 L 559.9 430.8 L 559.9 461.5 L 586.5 476.9 L 613.2 461.5 L 586.5 446.2 L 586.5 415.4 L 613.2 400 L 613.2 369.2 Z" fill="#0e79b2" stroke="black" stroke-width="0"></path><path d="M 586.5 353.8 L 559.9 369.2 L 533.2 353.8 L 533.2 323.1 L 506.6 307.7 L 479.9 323.1 L 506.6 338.5 L 506.6 369.2 L 479.9 384.6 L 479.9 415.4 L 506.6 430.8 L 506.6 400 L 533.2 384.6 L 559.9 400 L 586.5 384.6 Z" fill="#ffca3a" stroke="black" stroke-width="0"></path><path d="M 586.5 353.8 L 559.9 338.5 L 559.9 307.7 L 586.5 292.3 L 586.5 261.5 L 559.9 246.2 L 559.9 276.9 L 533.2 292.3 L 506.6 276.9 L 479.9 292.3 L 479.9 323.1 L 506.6 307.7 L 533.2 323.1 L 533.2 353.8 L 559.9 369.2 Z" fill="#0d2149" stroke="black" stroke-width="0"></path><path d="M 586.5 353.8 L 586.5 323.1 L 613.2 307.7 L 639.8 323.1 L 666.5 307.7 L 666.5 276.9 L 639.8 292.3 L 613.2 276.9 L 613.2 246.2 L 586.5 230.8 L 559.9 246.2 L 586.5 261.5 L 586.5 292.3 L 559.9 307.7 L 559.9 338.5 Z" fill="#0e79b2" stroke="black" stroke-width="0"></path><path d="M 586.5 353.8 L 613.2 338.5 L 639.8 353.8 L 639.8 384.6 L 666.5 400 L 693.1 384.6 L 666.5 369.2 L 666.5 338.5 L 693.1 323.1 L 693.1 292.3 L 666.5 276.9 L 666.5 307.7 L 639.8 323.1 L 613.2 307.7 L 586.5 323.1 Z" fill="#ffca3a" stroke="black" stroke-width="0"></path><path d="M 586.5 353.8 L 613.2 369.2 L 613.2 400 L 586.5 415.4 L 586.5 446.2 L 613.2 461.5 L 613.2 430.8 L 639.8 415.4 L 666.5 430.8 L 693.1 415.4 L 693.1 384.6 L 666.5 400 L 639.8 384.6 L 639.8 353.8 L 613.2 338.5 Z" fill="#0d2149" stroke="black" stroke-width="0"></path><path d="M 453.3 215.4 L 479.9 230.8 L 479.9 261.5 L 453.3 276.9 L 453.3 307.7 L 479.9 323.1 L 479.9 292.3 L 506.6 276.9 L 533.2 292.3 L 559.9 276.9 L 559.9 246.2 L 533.2 261.5 L 506.6 246.2 L 506.6 215.4 L 479.9 200 Z" fill="#0e79b2" stroke="black" stroke-width="0"></path><path d="M 453.3 215.4 L 453.3 246.2 L 426.6 261.5 L 400 246.2 L 373.4 261.5 L 373.4 292.3 L 400 276.9 L 426.6 292.3 L 426.6 323.1 L 453.3 338.5 L 479.9 323.1 L 453.3 307.7 L 453.3 276.9 L 479.9 261.5 L 479.9 230.8 Z" fill="#ffca3a" stroke="black" stroke-width="0"></path><path d="M 453.3 215.4 L 426.6 230.8 L 400 215.4 L 400 184.6 L 373.4 169.2 L 346.7 184.6 L 373.4 200 L 373.4 230.8 L 346.7 246.2 L 346.7 276.9 L 373.4 292.3 L 373.4 261.5 L 400 246.2 L 426.6 261.5 L 453.3 246.2 Z" fill="#0d2149" stroke="black" stroke-width="0"></path><path d="M 453.3 215.4 L 426.6 200 L 426.6 169.2 L 453.3 153.8 L 453.3 123.1 L 426.6 107.7 L 426.6 138.5 L 400 153.8 L 373.4 138.5 L 346.7 153.8 L 346.7 184.6 L 373.4 169.2 L 400 184.6 L 400 215.4 L 426.6 230.8 Z" fill="#0e79b2" stroke="black" stroke-width="0"></path><path d="M 453.3 215.4 L 453.3 184.6 L 479.9 169.2 L 506.6 184.6 L 533.2 169.2 L 533.2 138.5 L 506.6 153.8 L 479.9 138.5 L 479.9 107.7 L 453.3 92.3 L 426.6 107.7 L 453.3 123.1 L 453.3 153.8 L 426.6 169.2 L 426.6 200 Z" fill="#ffca3a" stroke="black" stroke-width="0"></path><path d="M 453.3 215.4 L 479.9 200 L 506.6 215.4 L 506.6 246.2 L 533.2 261.5 L 559.9 246.2 L 533.2 230.8 L 533.2 200 L 559.9 184.6 L 559.9 153.8 L 533.2 138.5 L 533.2 169.2 L 506.6 184.6 L 479.9 169.2 L 453.3 184.6 Z" fill="#0d2149" stroke="black" stroke-width="0"></path><path d="M 266.8 261.5 L 266.8 230.8 L 293.4 215.4 L 320.1 230.8 L 346.7 215.4 L 346.7 184.6 L 320.1 200 L 293.4 184.6 L 293.4 153.8 L 266.8 138.5 L 240.1 153.8 L 266.8 169.2 L 266.8 200 L 240.1 215.4 L 240.1 246.2 Z" fill="#0e79b2" stroke="black" stroke-width="0"></path><path d="M 266.8 261.5 L 293.4 246.2 L 320.1 261.5 L 320.1 292.3 L 346.7 307.7 L 373.4 292.3 L 346.7 276.9 L 346.7 246.2 L 373.4 230.8 L 373.4 200 L 346.7 184.6 L 346.7 215.4 L 320.1 230.8 L 293.4 215.4 L 266.8 230.8 Z" fill="#ffca3a" stroke="black" stroke-width="0"></path><path d="M 266.8 261.5 L 293.4 276.9 L 293.4 307.7 L 266.8 323.1 L 266.8 353.8 L 293.4 369.2 L 293.4 338.5 L 320.1 323.1 L 346.7 338.5 L 373.4 323.1 L 373.4 292.3 L 346.7 307.7 L 320.1 292.3 L 320.1 261.5 L 293.4 246.2 Z" fill="#0d2149" stroke="black" stroke-width="0"></path><path d="M 266.8 261.5 L 266.8 292.3 L 240.1 307.7 L 213.5 292.3 L 186.8 307.7 L 186.8 338.5 L 213.5 323.1 L 240.1 338.5 L 240.1 369.2 L 266.8 384.6 L 293.4 369.2 L 266.8 353.8 L 266.8 323.1 L 293.4 307.7 L 293.4 276.9 Z" fill="#0e79b2" stroke="black" stroke-width="0"></path><path d="M 266.8 261.5 L 240.1 276.9 L 213.5 261.5 L 213.5 230.8 L 186.8 215.4 L 160.2 230.8 L 186.8 246.2 L 186.8 276.9 L 160.2 292.3 L 160.2 323.1 L 186.8 338.5 L 186.8 307.7 L 213.5 292.3 L 240.1 307.7 L 266.8 292.3 Z" fill="#ffca3a" stroke="black" stroke-width="0"></path><path d="M 266.8 261.5 L 240.1 246.2 L 240.1 215.4 L 266.8 200 L 266.8 169.2 L 240.1 153.8 L 240.1 184.6 L 213.5 200 L 186.8 184.6 L 160.2 200 L 160.2 230.8 L 186.8 215.4 L 213.5 230.8 L 213.5 261.5 L 240.1 276.9 Z" fill="#0d2149" stroke="black" stroke-width="0"></path><path d="M 213.5 446.2 L 186.8 430.8 L 186.8 400 L 213.5 384.6 L 213.5 353.8 L 186.8 338.5 L 186.8 369.2 L 160.2 384.6 L 133.5 369.2 L 106.9 384.6 L 106.9 415.4 L 133.5 400 L 160.2 415.4 L 160.2 446.2 L 186.8 461.5 Z" fill="#0e79b2" stroke="black" stroke-width="0"></path><path d="M 213.5 446.2 L 213.5 415.4 L 240.1 400 L 266.8 415.4 L 293.4 400 L 293.4 369.2 L 266.8 384.6 L 240.1 369.2 L 240.1 338.5 L 213.5 323.1 L 186.8 338.5 L 213.5 353.8 L 213.5 384.6 L 186.8 400 L 186.8 430.8 Z" fill="#ffca3a" stroke="black" stroke-width="0"></path><path d="M 213.5 446.2 L 240.1 430.8 L 266.8 446.2 L 266.8 476.9 L 293.4 492.3 L 320.1 476.9 L 293.4 461.5 L 293.4 430.8 L 320.1 415.4 L 320.1 384.6 L 293.4 369.2 L 293.4 400 L 266.8 415.4 L 240.1 400 L 213.5 415.4 Z" fill="#0d2149" stroke="black" stroke-width="0"></path><path d="M 213.5 446.2 L 240.1 461.5 L 240.1 492.3 L 213.5 507.7 L 213.5 538.5 L 240.1 553.8 L 240.1 523.1 L 266.8 507.7 L 293.4 523.1 L 320.1 507.7 L 320.1 476.9 L 293.4 492.3 L 266.8 476.9 L 266.8 446.2 L 240.1 430.8 Z" fill="#0e79b2" stroke="black" stroke-width="0"></path><path d="M 213.5 446.2 L 213.5 476.9 L 186.8 492.3 L 160.2 476.9 L 133.5 492.3 L 133.5 523.1 L 160.2 507.7 L 186.8 523.1 L 186.8 553.8 L 213.5 569.2 L 240.1 553.8 L 213.5 538.5 L 213.5 507.7 L 240.1 492.3 L 240.1 461.5 Z" fill="#ffca3a" stroke="black" stroke-width="0"></path><path d="M 213.5 446.2 L 186.8 461.5 L 160.2 446.2 L 160.2 415.4 L 133.5 400 L 106.9 415.4 L 133.5 430.8 L 133.5 461.5 L 106.9 476.9 L 106.9 507.7 L 133.5 523.1 L 133.5 492.3 L 160.2 476.9 L 186.8 492.3 L 213.5 476.9 Z" fill="#0d2149" stroke="black" stroke-width="0"></path><path d="M 346.7 584.6 L 346.7 553.8 L 373.4 538.5 L 400 553.8 L 426.6 538.5 L 426.6 507.7 L 400 523.1 L 373.4 507.7 L 373.4 476.9 L 346.7 461.5 L 320.1 476.9 L 346.7 492.3 L 346.7 523.1 L 320.1 538.5 L 320.1 569.2 Z" fill="#0e79b2" stroke="black" stroke-width="0"></path><path d="M 346.7 584.6 L 373.4 569.2 L 400 584.6 L 400 615.4 L 426.6 630.8 L 453.3 615.4 L 426.6 600 L 426.6 569.2 L 453.3 553.8 L 453.3 523.1 L 426.6 507.7 L 426.6 538.5 L 400 553.8 L 373.4 538.5 L 346.7 553.8 Z" fill="#ffca3a" stroke="black" stroke-width="0"></path><path d="M 346.7 584.6 L 373.4 600 L 373.4 630.8 L 346.7 646.2 L 346.7 676.9 L 373.4 692.3 L 373.4 661.5 L 400 646.2 L 426.6 661.5 L 453.3 646.2 L 453.3 615.4 L 426.6 630.8 L 400 615.4 L 400 584.6 L 373.4 569.2 Z" fill="#0d2149" stroke="black" stroke-width="0"></path><path d="M 346.7 584.6 L 346.7 615.4 L 320.1 630.8 L 293.4 615.4 L 266.8 630.8 L 266.8 661.5 L 293.4 646.2 L 320.1 661.5 L 320.1 692.3 L 346.7 707.7 L 373.4 692.3 L 346.7 676.9 L 346.7 646.2 L 373.4 630.8 L 373.4 600 Z" fill="#0e79b2" stroke="black" stroke-width="0"></path><path d="M 346.7 584.6 L 320.1 600 L 293.4 584.6 L 293.4 553.8 L 266.8 538.5 L 240.1 553.8 L 266.8 569.2 L 266.8 600 L 240.1 615.4 L 240.1 646.2 L 266.8 661.5 L 266.8 630.8 L 293.4 615.4 L 320.1 630.8 L 346.7 615.4 Z" fill="#ffca3a" stroke="black" stroke-width="0"></path><path d="M 346.7 584.6 L 320.1 569.2 L 320.1 538.5 L 346.7 523.1 L 346.7 492.3 L 320.1 476.9 L 320.1 507.7 L 293.4 523.1 L 266.8 507.7 L 240.1 523.1 L 240.1 553.8 L 266.8 538.5 L 293.4 553.8 L 293.4 584.6 L 320.1 600 Z" fill="#0d2149" stroke="black" stroke-width="0"></path><path d="M 666.5 676.9 L 666.5 707.7 L 639.8 723.1 L 613.2 707.7 L 586.5 723.1 L 586.5 753.8 L 613.2 738.5 L 639.8 753.8 L 639.8 784.6 L 666.5 800 L 693.1 784.6 L 666.5 769.2 L 666.5 738.5 L 693.1 723.1 L 693.1 692.3 Z" fill="#0e79b2" stroke="black" stroke-width="0"></path><path d="M 666.5 676.9 L 639.8 692.3 L 613.2 676.9 L 613.2 646.2 L 586.5 630.8 L 559.9 646.2 L 586.5 661.5 L 586.5 692.3 L 559.9 707.7 L 559.9 738.5 L 586.5 753.8 L 586.5 723.1 L 613.2 707.7 L 639.8 723.1 L 666.5 707.7 Z" fill="#ffca3a" stroke="black" stroke-width="0"></path><path d="M 666.5 676.9 L 639.8 661.5 L 639.8 630.8 L 666.5 615.4 L 666.5 584.6 L 639.8 569.2 L 639.8 600 L 613.2 615.4 L 586.5 600 L 559.9 615.4 L 559.9 646.2 L 586.5 630.8 L 613.2 646.2 L 613.2 676.9 L 639.8 692.3 Z" fill="#0d2149" stroke="black" stroke-width="0"></path><path d="M 666.5 676.9 L 666.5 646.2 L 693.1 630.8 L 719.8 646.2 L 746.4 630.8 L 746.4 600 L 719.8 615.4 L 693.1 600 L 693.1 569.2 L 666.5 553.8 L 639.8 569.2 L 666.5 584.6 L 666.5 615.4 L 639.8 630.8 L 639.8 661.5 Z" fill="#0e79b2" stroke="black" stroke-width="0"></path><path d="M 666.5 676.9 L 693.1 661.5 L 719.8 676.9 L 719.8 707.7 L 746.4 723.1 L 773.1 707.7 L 746.4 692.3 L 746.4 661.5 L 773.1 646.2 L 773.1 615.4 L 746.4 600 L 746.4 630.8 L 719.8 646.2 L 693.1 630.8 L 666.5 646.2 Z" fill="#ffca3a" stroke="black" stroke-width="0"></path><path d="M 666.5 676.9 L 693.1 692.3 L 693.1 723.1 L 666.5 738.5 L 666.5 769.2 L 693.1 784.6 L 693.1 753.8 L 719.8 738.5 L 746.4 753.8 L 773.1 738.5 L 773.1 707.7 L 746.4 723.1 L 719.8 707.7 L 719.8 676.9 L 693.1 661.5 Z" fill="#0d2149" stroke="black" stroke-width="0"></path><path d="M 719.8 492.3 L 746.4 476.9 L 773.1 492.3 L 773.1 523.1 L 799.7 538.5 L 826.4 523.1 L 799.7 507.7 L 799.7 476.9 L 826.4 461.5 L 826.4 430.8 L 799.7 415.4 L 799.7 446.2 L 773.1 461.5 L 746.4 446.2 L 719.8 461.5 Z" fill="#0e79b2" stroke="black" stroke-width="0"></path><path d="M 719.8 492.3 L 746.4 507.7 L 746.4 538.5 L 719.8 553.8 L 719.8 584.6 L 746.4 600 L 746.4 569.2 L 773.1 553.8 L 799.7 569.2 L 826.4 553.8 L 826.4 523.1 L 799.7 538.5 L 773.1 523.1 L 773.1 492.3 L 746.4 476.9 Z" fill="#ffca3a" stroke="black" stroke-width="0"></path><path d="M 719.8 492.3 L 719.8 523.1 L 693.1 538.5 L 666.5 523.1 L 639.8 538.5 L 639.8 569.2 L 666.5 553.8 L 693.1 569.2 L 693.1 600 L 719.8 615.4 L 746.4 600 L 719.8 584.6 L 719.8 553.8 L 746.4 538.5 L 746.4 507.7 Z" fill="#0d2149" stroke="black" stroke-width="0"></path><path d="M 719.8 492.3 L 693.1 507.7 L 666.5 492.3 L 666.5 461.5 L 639.8 446.2 L 613.2 461.5 L 639.8 476.9 L 639.8 507.7 L 613.2 523.1 L 613.2 553.8 L 639.8 569.2 L 639.8 538.5 L 666.5 523.1 L 693.1 538.5 L 719.8 523.1 Z" fill="#0e79b2" stroke="black" stroke-width="0"></path><path d="M 719.8 492.3 L 693.1 476.9 L 693.1 446.2 L 719.8 430.8 L 719.8 400 L 693.1 384.6 L 693.1 415.4 L 666.5 430.8 L 639.8 415.4 L 613.2 430.8 L 613.2 461.5 L 639.8 446.2 L 666.5 461.5 L 666.5 492.3 L 693.1 507.7 Z" fill="#ffca3a" stroke="black" stroke-width="0"></path><path d="M 719.8 492.3 L 719.8 461.5 L 746.4 446.2 L 773.1 461.5 L 799.7 446.2 L 799.7 415.4 L 773.1 430.8 L 746.4 415.4 L 746.4 384.6 L 719.8 369.2 L 693.1 384.6 L 719.8 400 L 719.8 430.8 L 693.1 446.2 L 693.1 476.9 Z" fill="#0d2149" stroke="black" stroke-width="0"></path><path d="M 773.1 307.7 L 799.7 323.1 L 799.7 353.8 L 773.1 369.2 L 773.1 400 L 799.7 415.4 L 799.7 384.6 L 826.4 369.2 L 853 384.6 L 879.6 369.2 L 879.6 338.5 L 853 353.8 L 826.4 338.5 L 826.4 307.7 L 799.7 292.3 Z" fill="#0e79b2" stroke="black" stroke-width="0"></path><path d="M 773.1 307.7 L 773.1 338.5 L 746.4 353.8 L 719.8 338.5 L 693.1 353.8 L 693.1 384.6 L 719.8 369.2 L 746.4 384.6 L 746.4 415.4 L 773.1 430.8 L 799.7 415.4 L 773.1 400 L 773.1 369.2 L 799.7 353.8 L 799.7 323.1 Z" fill="#ffca3a" stroke="black" stroke-width="0"></path><path d="M 773.1 307.7 L 746.4 323.1 L 719.8 307.7 L 719.8 276.9 L 693.1 261.5 L 666.5 276.9 L 693.1 292.3 L 693.1 323.1 L 666.5 338.5 L 666.5 369.2 L 693.1 384.6 L 693.1 353.8 L 719.8 338.5 L 746.4 353.8 L 773.1 338.5 Z" fill="#0d2149" stroke="black" stroke-width="0"></path><path d="M 773.1 307.7 L 746.4 292.3 L 746.4 261.5 L 773.1 246.2 L 773.1 215.4 L 746.4 200 L 746.4 230.8 L 719.8 246.2 L 693.1 230.8 L 666.5 246.2 L 666.5 276.9 L 693.1 261.5 L 719.8 276.9 L 719.8 307.7 L 746.4 323.1 Z" fill="#0e79b2" stroke="black" stroke-width="0"></path><path d="M 773.1 307.7 L 773.1 276.9 L 799.7 261.5 L 826.4 276.9 L 853 261.5 L 853 230.8 L 826.4 246.2 L 799.7 230.8 L 799.7 200 L 773.1 184.6 L 746.4 200 L 773.1 215.4 L 773.1 246.2 L 746.4 261.5 L 746.4 292.3 Z" fill="#ffca3a" stroke="black" stroke-width="0"></path><path d="M 773.1 307.7 L 799.7 292.3 L 826.4 307.7 L 826.4 338.5 L 853 353.8 L 879.6 338.5 L 853 323.1 L 853 292.3 L 879.6 276.9 L 879.6 246.2 L 853 230.8 L 853 261.5 L 826.4 276.9 L 799.7 261.5 L 773.1 276.9 Z" fill="#0d2149" stroke="black" stroke-width="0"></path><path d="M 639.8 169.2 L 666.5 153.8 L 693.1 169.2 L 693.1 200 L 719.8 215.4 L 746.4 200 L 719.8 184.6 L 719.8 153.8 L 746.4 138.5 L 746.4 107.7 L 719.8 92.3 L 719.8 123.1 L 693.1 138.5 L 666.5 123.1 L 639.8 138.5 Z" fill="#0e79b2" stroke="black" stroke-width="0"></path><path d="M 639.8 169.2 L 666.5 184.6 L 666.5 215.4 L 639.8 230.8 L 639.8 261.5 L 666.5 276.9 L 666.5 246.2 L 693.1 230.8 L 719.8 246.2 L 746.4 230.8 L 746.4 200 L 719.8 215.4 L 693.1 200 L 693.1 169.2 L 666.5 153.8 Z" fill="#ffca3a" stroke="black" stroke-width="0"></path><path d="M 639.8 169.2 L 639.8 200 L 613.2 215.4 L 586.5 200 L 559.9 215.4 L 559.9 246.2 L 586.5 230.8 L 613.2 246.2 L 613.2 276.9 L 639.8 292.3 L 666.5 276.9 L 639.8 261.5 L 639.8 230.8 L 666.5 215.4 L 666.5 184.6 Z" fill="#0d2149" stroke="black" stroke-width="0"></path><path d="M 639.8 169.2 L 613.2 184.6 L 586.5 169.2 L 586.5 138.5 L 559.9 123.1 L 533.2 138.5 L 559.9 153.8 L 559.9 184.6 L 533.2 200 L 533.2 230.8 L 559.9 246.2 L 559.9 215.4 L 586.5 200 L 613.2 215.4 L 639.8 200 Z" fill="#0e79b2" stroke="black" stroke-width="0"></path><path d="M 639.8 169.2 L 613.2 153.8 L 613.2 123.1 L 639.8 107.7 L 639.8 76.9 L 613.2 61.5 L 613.2 92.3 L 586.5 107.7 L 559.9 92.3 L 533.2 107.7 L 533.2 138.5 L 559.9 123.1 L 586.5 138.5 L 586.5 169.2 L 613.2 184.6 Z" fill="#ffca3a" stroke="black" stroke-width="0"></path><path d="M 639.8 169.2 L 639.8 138.5 L 666.5 123.1 L 693.1 138.5 L 719.8 123.1 L 719.8 92.3 L 693.1 107.7 L 666.5 92.3 L 666.5 61.5 L 639.8 46.2 L 613.2 61.5 L 639.8 76.9 L 639.8 107.7 L 613.2 123.1 L 613.2 153.8 Z" fill="#0d2149" stroke="black" stroke-width="0"></path><path d="M 506.6 30.8 L 506.6 61.5 L 479.9 76.9 L 453.3 61.5 L 426.6 76.9 L 426.6 107.7 L 453.3 92.3 L 479.9 107.7 L 479.9 138.5 L 506.6 153.8 L 533.2 138.5 L 506.6 123.1 L 506.6 92.3 L 533.2 76.9 L 533.2 46.2 Z" fill="#0e79b2" stroke="black" stroke-width="0"></path><path d="M 506.6 30.8 L 479.9 46.2 L 453.3 30.8 L 453.3 0 L 426.6 -15.4 L 400 0 L 426.6 15.4 L 426.6 46.2 L 400 61.5 L 400 92.3 L 426.6 107.7 L 426.6 76.9 L 453.3 61.5 L 479.9 76.9 L 506.6 61.5 Z" fill="#ffca3a" stroke="black" stroke-width="0"></path><path d="M 506.6 30.8 L 479.9 15.4 L 479.9 -15.4 L 506.6 -30.8 L 506.6 -61.5 L 479.9 -76.9 L 479.9 -46.2 L 453.3 -30.8 L 426.6 -46.2 L 400 -30.8 L 400 0 L 426.6 -15.4 L 453.3 0 L 453.3 30.8 L 479.9 46.2 Z" fill="#0d2149" stroke="black" stroke-width="0"></path><path d="M 506.6 30.8 L 506.6 0 L 533.2 -15.4 L 559.9 0 L 586.5 -15.4 L 586.5 -46.2 L 559.9 -30.8 L 533.2 -46.2 L 533.2 -76.9 L 506.6 -92.3 L 479.9 -76.9 L 506.6 -61.5 L 506.6 -30.8 L 479.9 -15.4 L 479.9 15.4 Z" fill="#0e79b2" stroke="black" stroke-width="0"></path><path d="M 506.6 30.8 L 533.2 15.4 L 559.9 30.8 L 559.9 61.5 L 586.5 76.9 L 613.2 61.5 L 586.5 46.2 L 586.5 15.4 L 613.2 0 L 613.2 -30.8 L 586.5 -46.2 L 586.5 -15.4 L 559.9 0 L 533.2 -15.4 L 506.6 0 Z" fill="#ffca3a" stroke="black" stroke-width="0"></path><path d="M 506.6 30.8 L 533.2 46.2 L 533.2 76.9 L 506.6 92.3 L 506.6 123.1 L 533.2 138.5 L 533.2 107.7 L 559.9 92.3 L 586.5 107.7 L 613.2 92.3 L 613.2 61.5 L 586.5 76.9 L 559.9 61.5 L 559.9 30.8 L 533.2 15.4 Z" fill="#0d2149" stroke="black" stroke-width="0"></path><path d="M 320.1 76.9 L 346.7 61.5 L 373.4 76.9 L 373.4 107.7 L 400 123.1 L 426.6 107.7 L 400 92.3 L 400 61.5 L 426.6 46.2 L 426.6 15.4 L 400 0 L 400 30.8 L 373.4 46.2 L 346.7 30.8 L 320.1 46.2 Z" fill="#0e79b2" stroke="black" stroke-width="0"></path><path d="M 320.1 76.9 L 346.7 92.3 L 346.7 123.1 L 320.1 138.5 L 320.1 169.2 L 346.7 184.6 L 346.7 153.8 L 373.4 138.5 L 400 153.8 L 426.6 138.5 L 426.6 107.7 L 400 123.1 L 373.4 107.7 L 373.4 76.9 L 346.7 61.5 Z" fill="#ffca3a" stroke="black" stroke-width="0"></path><path d="M 320.1 76.9 L 320.1 107.7 L 293.4 123.1 L 266.8 107.7 L 240.1 123.1 L 240.1 153.8 L 266.8 138.5 L 293.4 153.8 L 293.4 184.6 L 320.1 200 L 346.7 184.6 L 320.1 169.2 L 320.1 138.5 L 346.7 123.1 L 346.7 92.3 Z" fill="#0d2149" stroke="black" stroke-width="0"></path><path d="M 320.1 76.9 L 293.4 92.3 L 266.8 76.9 L 266.8 46.2 L 240.1 30.8 L 213.5 46.2 L 240.1 61.5 L 240.1 92.3 L 213.5 107.7 L 213.5 138.5 L 240.1 153.8 L 240.1 123.1 L 266.8 107.7 L 293.4 123.1 L 320.1 107.7 Z" fill="#0e79b2" stroke="black" stroke-width="0"></path><path d="M 320.1 76.9 L 293.4 61.5 L 293.4 30.8 L 320.1 15.4 L 320.1 -15.4 L 293.4 -30.8 L 293.4 0 L 266.8 15.4 L 240.1 0 L 213.5 15.4 L 213.5 46.2 L 240.1 30.8 L 266.8 46.2 L 266.8 76.9 L 293.4 92.3 Z" fill="#ffca3a" stroke="black" stroke-width="0"></path><path d="M 320.1 76.9 L 320.1 46.2 L 346.7 30.8 L 373.4 46.2 L 400 30.8 L 400 0 L 373.4 15.4 L 346.7 0 L 346.7 -30.8 L 320.1 -46.2 L 293.4 -30.8 L 320.1 -15.4 L 320.1 15.4 L 293.4 30.8 L 293.4 61.5 Z" fill="#0d2149" stroke="black" stroke-width="0"></path><path d="M 133.5 123.1 L 106.9 107.7 L 106.9 76.9 L 133.5 61.5 L 133.5 30.8 L 106.9 15.4 L 106.9 46.2 L 80.2 61.5 L 53.6 46.2 L 26.9 61.5 L 26.9 92.3 L 53.6 76.9 L 80.2 92.3 L 80.2 123.1 L 106.9 138.5 Z" fill="#0e79b2" stroke="black" stroke-width="0"></path><path d="M 133.5 123.1 L 133.5 92.3 L 160.2 76.9 L 186.8 92.3 L 213.5 76.9 L 213.5 46.2 L 186.8 61.5 L 160.2 46.2 L 160.2 15.4 L 133.5 0 L 106.9 15.4 L 133.5 30.8 L 133.5 61.5 L 106.9 76.9 L 106.9 107.7 Z" fill="#ffca3a" stroke="black" stroke-width="0"></path><path d="M 133.5 123.1 L 160.2 107.7 L 186.8 123.1 L 186.8 153.8 L 213.5 169.2 L 240.1 153.8 L 213.5 138.5 L 213.5 107.7 L 240.1 92.3 L 240.1 61.5 L 213.5 46.2 L 213.5 76.9 L 186.8 92.3 L 160.2 76.9 L 133.5 92.3 Z" fill="#0d2149" stroke="black" stroke-width="0"></path><path d="M 133.5 123.1 L 160.2 138.5 L 160.2 169.2 L 133.5 184.6 L 133.5 215.4 L 160.2 230.8 L 160.2 200 L 186.8 184.6 L 213.5 200 L 240.1 184.6 L 240.1 153.8 L 213.5 169.2 L 186.8 153.8 L 186.8 123.1 L 160.2 107.7 Z" fill="#0e79b2" stroke="black" stroke-width="0"></path><path d="M 133.5 123.1 L 133.5 153.8 L 106.9 169.2 L 80.2 153.8 L 53.6 169.2 L 53.6 200 L 80.2 184.6 L 106.9 200 L 106.9 230.8 L 133.5 246.2 L 160.2 230.8 L 133.5 215.4 L 133.5 184.6 L 160.2 169.2 L 160.2 138.5 Z" fill="#ffca3a" stroke="black" stroke-width="0"></path><path d="M 133.5 123.1 L 106.9 138.5 L 80.2 123.1 L 80.2 92.3 L 53.6 76.9 L 26.9 92.3 L 53.6 107.7 L 53.6 138.5 L 26.9 153.8 L 26.9 184.6 L 53.6 200 L 53.6 169.2 L 80.2 153.8 L 106.9 169.2 L 133.5 153.8 Z" fill="#0d2149" stroke="black" stroke-width="0"></path><path d="M 80.2 307.7 L 106.9 292.3 L 133.5 307.7 L 133.5 338.5 L 160.2 353.8 L 186.8 338.5 L 160.2 323.1 L 160.2 292.3 L 186.8 276.9 L 186.8 246.2 L 160.2 230.8 L 160.2 261.5 L 133.5 276.9 L 106.9 261.5 L 80.2 276.9 Z" fill="#0e79b2" stroke="black" stroke-width="0"></path><path d="M 80.2 307.7 L 106.9 323.1 L 106.9 353.8 L 80.2 369.2 L 80.2 400 L 106.9 415.4 L 106.9 384.6 L 133.5 369.2 L 160.2 384.6 L 186.8 369.2 L 186.8 338.5 L 160.2 353.8 L 133.5 338.5 L 133.5 307.7 L 106.9 292.3 Z" fill="#ffca3a" stroke="black" stroke-width="0"></path><path d="M 80.2 307.7 L 80.2 338.5 L 53.6 353.8 L 26.9 338.5 L 0.3 353.8 L 0.3 384.6 L 26.9 369.2 L 53.6 384.6 L 53.6 415.4 L 80.2 430.8 L 106.9 415.4 L 80.2 400 L 80.2 369.2 L 106.9 353.8 L 106.9 323.1 Z" fill="#0d2149" stroke="black" stroke-width="0"></path><path d="M 80.2 307.7 L 53.6 323.1 L 26.9 307.7 L 26.9 276.9 L 0.3 261.5 L -26.4 276.9 L 0.3 292.3 L 0.3 323.1 L -26.4 338.5 L -26.4 369.2 L 0.3 384.6 L 0.3 353.8 L 26.9 338.5 L 53.6 353.8 L 80.2 338.5 Z" fill="#0e79b2" stroke="black" stroke-width="0"></path><path d="M 80.2 307.7 L 53.6 292.3 L 53.6 261.5 L 80.2 246.2 L 80.2 215.4 L 53.6 200 L 53.6 230.8 L 26.9 246.2 L 0.3 230.8 L -26.4 246.2 L -26.4 276.9 L 0.3 261.5 L 26.9 276.9 L 26.9 307.7 L 53.6 323.1 Z" fill="#ffca3a" stroke="black" stroke-width="0"></path><path d="M 80.2 307.7 L 80.2 276.9 L 106.9 261.5 L 133.5 276.9 L 160.2 261.5 L 160.2 230.8 L 133.5 246.2 L 106.9 230.8 L 106.9 200 L 80.2 184.6 L 53.6 200 L 80.2 215.4 L 80.2 246.2 L 53.6 261.5 L 53.6 292.3 Z" fill="#0d2149" stroke="black" stroke-width="0"></path><path d="M 26.9 492.3 L 26.9 461.5 L 53.6 446.2 L 80.2 461.5 L 106.9 446.2 L 106.9 415.4 L 80.2 430.8 L 53.6 415.4 L 53.6 384.6 L 26.9 369.2 L 0.3 384.6 L 26.9 400 L 26.9 430.8 L 0.3 446.2 L 0.3 476.9 Z" fill="#0e79b2" stroke="black" stroke-width="0"></path><path d="M 26.9 492.3 L 53.6 476.9 L 80.2 492.3 L 80.2 523.1 L 106.9 538.5 L 133.5 523.1 L 106.9 507.7 L 106.9 476.9 L 133.5 461.5 L 133.5 430.8 L 106.9 415.4 L 106.9 446.2 L 80.2 461.5 L 53.6 446.2 L 26.9 461.5 Z" fill="#ffca3a" stroke="black" stroke-width="0"></path><path d="M 26.9 492.3 L 53.6 507.7 L 53.6 538.5 L 26.9 553.8 L 26.9 584.6 L 53.6 600 L 53.6 569.2 L 80.2 553.8 L 106.9 569.2 L 133.5 553.8 L 133.5 523.1 L 106.9 538.5 L 80.2 523.1 L 80.2 492.3 L 53.6 476.9 Z" fill="#0d2149" stroke="black" stroke-width="0"></path><path d="M 26.9 492.3 L 26.9 523.1 L 0.3 538.5 L -26.4 523.1 L -53 538.5 L -53 569.2 L -26.4 553.8 L 0.3 569.2 L 0.3 600 L 26.9 615.4 L 53.6 600 L 26.9 584.6 L 26.9 553.8 L 53.6 538.5 L 53.6 507.7 Z" fill="#0e79b2" stroke="black" stroke-width="0"></path><path d="M 26.9 492.3 L 0.3 507.7 L -26.4 492.3 L -26.4 461.5 L -53 446.2 L -79.6 461.5 L -53 476.9 L -53 507.7 L -79.6 523.1 L -79.6 553.8 L -53 569.2 L -53 538.5 L -26.4 523.1 L 0.3 538.5 L 26.9 523.1 Z" fill="#ffca3a" stroke="black" stroke-width="0"></path><path d="M 26.9 492.3 L 0.3 476.9 L 0.3 446.2 L 26.9 430.8 L 26.9 400 L 0.3 384.6 L 0.3 415.4 L -26.4 430.8 L -53 415.4 L -79.6 430.8 L -79.6 461.5 L -53 446.2 L -26.4 461.5 L -26.4 492.3 L 0.3 507.7 Z" fill="#0d2149" stroke="black" stroke-width="0"></path><path d="M 160.2 630.8 L 186.8 615.4 L 213.5 630.8 L 213.5 661.5 L 240.1 676.9 L 266.8 661.5 L 240.1 646.2 L 240.1 615.4 L 266.8 600 L 266.8 569.2 L 240.1 553.8 L 240.1 584.6 L 213.5 600 L 186.8 584.6 L 160.2 600 Z" fill="#0e79b2" stroke="black" stroke-width="0"></path><path d="M 160.2 630.8 L 186.8 646.2 L 186.8 676.9 L 160.2 692.3 L 160.2 723.1 L 186.8 738.5 L 186.8 707.7 L 213.5 692.3 L 240.1 707.7 L 266.8 692.3 L 266.8 661.5 L 240.1 676.9 L 213.5 661.5 L 213.5 630.8 L 186.8 615.4 Z" fill="#ffca3a" stroke="black" stroke-width="0"></path><path d="M 160.2 630.8 L 160.2 661.5 L 133.5 676.9 L 106.9 661.5 L 80.2 676.9 L 80.2 707.7 L 106.9 692.3 L 133.5 707.7 L 133.5 738.5 L 160.2 753.8 L 186.8 738.5 L 160.2 723.1 L 160.2 692.3 L 186.8 676.9 L 186.8 646.2 Z" fill="#0d2149" stroke="black" stroke-width="0"></path><path d="M 160.2 630.8 L 133.5 646.2 L 106.9 630.8 L 106.9 600 L 80.2 584.6 L 53.6 600 L 80.2 615.4 L 80.2 646.2 L 53.6 661.5 L 53.6 692.3 L 80.2 707.7 L 80.2 676.9 L 106.9 661.5 L 133.5 676.9 L 160.2 661.5 Z" fill="#0e79b2" stroke="black" stroke-width="0"></path><path d="M 160.2 630.8 L 133.5 615.4 L 133.5 584.6 L 160.2 569.2 L 160.2 538.5 L 133.5 523.1 L 133.5 553.8 L 106.9 569.2 L 80.2 553.8 L 53.6 569.2 L 53.6 600 L 80.2 584.6 L 106.9 600 L 106.9 630.8 L 133.5 646.2 Z" fill="#ffca3a" stroke="black" stroke-width="0"></path><path d="M 160.2 630.8 L 160.2 600 L 186.8 584.6 L 213.5 600 L 240.1 584.6 L 240.1 553.8 L 213.5 569.2 L 186.8 553.8 L 186.8 523.1 L 160.2 507.7 L 133.5 523.1 L 160.2 538.5 L 160.2 569.2 L 133.5 584.6 L 133.5 615.4 Z" fill="#0d2149" stroke="black" stroke-width="0"></path><path d="M 293.4 769.2 L 266.8 753.8 L 266.8 723.1 L 293.4 707.7 L 293.4 676.9 L 266.8 661.5 L 266.8 692.3 L 240.1 707.7 L 213.5 692.3 L 186.8 707.7 L 186.8 738.5 L 213.5 723.1 L 240.1 738.5 L 240.1 769.2 L 266.8 784.6 Z" fill="#0e79b2" stroke="black" stroke-width="0"></path><path d="M 293.4 769.2 L 293.4 738.5 L 320.1 723.1 L 346.7 738.5 L 373.4 723.1 L 373.4 692.3 L 346.7 707.7 L 320.1 692.3 L 320.1 661.5 L 293.4 646.2 L 266.8 661.5 L 293.4 676.9 L 293.4 707.7 L 266.8 723.1 L 266.8 753.8 Z" fill="#ffca3a" stroke="black" stroke-width="0"></path><path d="M 293.4 769.2 L 320.1 753.8 L 346.7 769.2 L 346.7 800 L 373.4 815.4 L 400 800 L 373.4 784.6 L 373.4 753.8 L 400 738.5 L 400 707.7 L 373.4 692.3 L 373.4 723.1 L 346.7 738.5 L 320.1 723.1 L 293.4 738.5 Z" fill="#0d2149" stroke="black" stroke-width="0"></path><path d="M 293.4 769.2 L 320.1 784.6 L 320.1 815.4 L 293.4 830.8 L 293.4 861.5 L 320.1 876.9 L 320.1 846.2 L 346.7 830.8 L 373.4 846.2 L 400 830.8 L 400 800 L 373.4 815.4 L 346.7 800 L 346.7 769.2 L 320.1 753.8 Z" fill="#0e79b2" stroke="black" stroke-width="0"></path><path d="M 293.4 769.2 L 293.4 800 L 266.8 815.4 L 240.1 800 L 213.5 815.4 L 213.5 846.2 L 240.1 830.8 L 266.8 846.2 L 266.8 876.9 L 293.4 892.3 L 320.1 876.9 L 293.4 861.5 L 293.4 830.8 L 320.1 815.4 L 320.1 784.6 Z" fill="#ffca3a" stroke="black" stroke-width="0"></path><path d="M 293.4 769.2 L 266.8 784.6 L 240.1 769.2 L 240.1 738.5 L 213.5 723.1 L 186.8 738.5 L 213.5 753.8 L 213.5 784.6 L 186.8 800 L 186.8 830.8 L 213.5 846.2 L 213.5 815.4 L 240.1 800 L 266.8 815.4 L 293.4 800 Z" fill="#0d2149" stroke="black" stroke-width="0"></path><path d="M 479.9 723.1 L 506.6 707.7 L 533.2 723.1 L 533.2 753.8 L 559.9 769.2 L 586.5 753.8 L 559.9 738.5 L 559.9 707.7 L 586.5 692.3 L 586.5 661.5 L 559.9 646.2 L 559.9 676.9 L 533.2 692.3 L 506.6 676.9 L 479.9 692.3 Z" fill="#0e79b2" stroke="black" stroke-width="0"></path><path d="M 479.9 723.1 L 506.6 738.5 L 506.6 769.2 L 479.9 784.6 L 479.9 815.4 L 506.6 830.8 L 506.6 800 L 533.2 784.6 L 559.9 800 L 586.5 784.6 L 586.5 753.8 L 559.9 769.2 L 533.2 753.8 L 533.2 723.1 L 506.6 707.7 Z" fill="#ffca3a" stroke="black" stroke-width="0"></path><path d="M 479.9 723.1 L 479.9 753.8 L 453.3 769.2 L 426.6 753.8 L 400 769.2 L 400 800 L 426.6 784.6 L 453.3 800 L 453.3 830.8 L 479.9 846.2 L 506.6 830.8 L 479.9 815.4 L 479.9 784.6 L 506.6 769.2 L 506.6 738.5 Z" fill="#0d2149" stroke="black" stroke-width="0"></path><path d="M 479.9 723.1 L 453.3 738.5 L 426.6 723.1 L 426.6 692.3 L 400 676.9 L 373.4 692.3 L 400 707.7 L 400 738.5 L 373.4 753.8 L 373.4 784.6 L 400 800 L 400 769.2 L 426.6 753.8 L 453.3 769.2 L 479.9 753.8 Z" fill="#0e79b2" stroke="black" stroke-width="0"></path><path d="M 479.9 723.1 L 453.3 707.7 L 453.3 676.9 L 479.9 661.5 L 479.9 630.8 L 453.3 615.4 L 453.3 646.2 L 426.6 661.5 L 400 646.2 L 373.4 661.5 L 373.4 692.3 L 400 676.9 L 426.6 692.3 L 426.6 723.1 L 453.3 738.5 Z" fill="#ffca3a" stroke="black" stroke-width="0"></path><path d="M 479.9 723.1 L 479.9 692.3 L 506.6 676.9 L 533.2 692.3 L 559.9 676.9 L 559.9 646.2 L 533.2 661.5 L 506.6 646.2 L 506.6 615.4 L 479.9 600 L 453.3 615.4 L 479.9 630.8 L 479.9 661.5 L 453.3 676.9 L 453.3 707.7 Z" fill="#0d2149" stroke="black" stroke-width="0"></path><path d="M 799.7 815.4 L 826.4 800 L 853 815.4 L 853 846.2 L 879.6 861.5 L 906.3 846.2 L 879.6 830.8 L 879.6 800 L 906.3 784.6 L 906.3 753.8 L 879.6 738.5 L 879.6 769.2 L 853 784.6 L 826.4 769.2 L 799.7 784.6 Z" fill="#0e79b2" stroke="black" stroke-width="0"></path><path d="M 799.7 815.4 L 826.4 830.8 L 826.4 861.5 L 799.7 876.9 L 799.7 907.7 L 826.4 923.1 L 826.4 892.3 L 853 876.9 L 879.6 892.3 L 906.3 876.9 L 906.3 846.2 L 879.6 861.5 L 853 846.2 L 853 815.4 L 826.4 800 Z" fill="#ffca3a" stroke="black" stroke-width="0"></path><path d="M 799.7 815.4 L 799.7 846.2 L 773.1 861.5 L 746.4 846.2 L 719.8 861.5 L 719.8 892.3 L 746.4 876.9 L 773.1 892.3 L 773.1 923.1 L 799.7 938.5 L 826.4 923.1 L 799.7 907.7 L 799.7 876.9 L 826.4 861.5 L 826.4 830.8 Z" fill="#0d2149" stroke="black" stroke-width="0"></path><path d="M 799.7 815.4 L 773.1 830.8 L 746.4 815.4 L 746.4 784.6 L 719.8 769.2 L 693.1 784.6 L 719.8 800 L 719.8 830.8 L 693.1 846.2 L 693.1 876.9 L 719.8 892.3 L 719.8 861.5 L 746.4 846.2 L 773.1 861.5 L 799.7 846.2 Z" fill="#0e79b2" stroke="black" stroke-width="0"></path><path d="M 799.7 815.4 L 773.1 800 L 773.1 769.2 L 799.7 753.8 L 799.7 723.1 L 773.1 707.7 L 773.1 738.5 L 746.4 753.8 L 719.8 738.5 L 693.1 753.8 L 693.1 784.6 L 719.8 769.2 L 746.4 784.6 L 746.4 815.4 L 773.1 830.8 Z" fill="#ffca3a" stroke="black" stroke-width="0"></path><path d="M 799.7 815.4 L 799.7 784.6 L 826.4 769.2 L 853 784.6 L 879.6 769.2 L 879.6 738.5 L 853 753.8 L 826.4 738.5 L 826.4 707.7 L 799.7 692.3 L 773.1 707.7 L 799.7 723.1 L 799.7 753.8 L 773.1 769.2 L 773.1 800 Z" fill="#0d2149" stroke="black" stroke-width="0"></path><path d="M 853 630.8 L 879.6 646.2 L 879.6 676.9 L 853 692.3 L 853 723.1 L 879.6 738.5 L 879.6 707.7 L 906.3 692.3 L 932.9 707.7 L 959.6 692.3 L 959.6 661.5 L 932.9 676.9 L 906.3 661.5 L 906.3 630.8 L 879.6 615.4 Z" fill="#0e79b2" stroke="black" stroke-width="0"></path><path d="M 853 630.8 L 853 661.5 L 826.4 676.9 L 799.7 661.5 L 773.1 676.9 L 773.1 707.7 L 799.7 692.3 L 826.4 707.7 L 826.4 738.5 L 853 753.8 L 879.6 738.5 L 853 723.1 L 853 692.3 L 879.6 676.9 L 879.6 646.2 Z" fill="#ffca3a" stroke="black" stroke-width="0"></path><path d="M 853 630.8 L 826.4 646.2 L 799.7 630.8 L 799.7 600 L 773.1 584.6 L 746.4 600 L 773.1 615.4 L 773.1 646.2 L 746.4 661.5 L 746.4 692.3 L 773.1 707.7 L 773.1 676.9 L 799.7 661.5 L 826.4 676.9 L 853 661.5 Z" fill="#0d2149" stroke="black" stroke-width="0"></path><path d="M 853 630.8 L 826.4 615.4 L 826.4 584.6 L 853 569.2 L 853 538.5 L 826.4 523.1 L 826.4 553.8 L 799.7 569.2 L 773.1 553.8 L 746.4 569.2 L 746.4 600 L 773.1 584.6 L 799.7 600 L 799.7 630.8 L 826.4 646.2 Z" fill="#0e79b2" stroke="black" stroke-width="0"></path><path d="M 853 630.8 L 853 600 L 879.6 584.6 L 906.3 600 L 932.9 584.6 L 932.9 553.8 L 906.3 569.2 L 879.6 553.8 L 879.6 523.1 L 853 507.7 L 826.4 523.1 L 853 538.5 L 853 569.2 L 826.4 584.6 L 826.4 615.4 Z" fill="#ffca3a" stroke="black" stroke-width="0"></path><path d="M 853 630.8 L 879.6 615.4 L 906.3 630.8 L 906.3 661.5 L 932.9 676.9 L 959.6 661.5 L 932.9 646.2 L 932.9 615.4 L 959.6 600 L 959.6 569.2 L 932.9 553.8 L 932.9 584.6 L 906.3 600 L 879.6 584.6 L 853 600 Z" fill="#0d2149" stroke="black" stroke-width="0"></path><path d="M 906.3 446.2 L 906.3 476.9 L 879.6 492.3 L 853 476.9 L 826.4 492.3 L 826.4 523.1 L 853 507.7 L 879.6 523.1 L 879.6 553.8 L 906.3 569.2 L 932.9 553.8 L 906.3 538.5 L 906.3 507.7 L 932.9 492.3 L 932.9 461.5 Z" fill="#0e79b2" stroke="black" stroke-width="0"></path><path d="M 906.3 446.2 L 879.6 461.5 L 853 446.2 L 853 415.4 L 826.4 400 L 799.7 415.4 L 826.4 430.8 L 826.4 461.5 L 799.7 476.9 L 799.7 507.7 L 826.4 523.1 L 826.4 492.3 L 853 476.9 L 879.6 492.3 L 906.3 476.9 Z" fill="#ffca3a" stroke="black" stroke-width="0"></path><path d="M 906.3 446.2 L 879.6 430.8 L 879.6 400 L 906.3 384.6 L 906.3 353.8 L 879.6 338.5 L 879.6 369.2 L 853 384.6 L 826.4 369.2 L 799.7 384.6 L 799.7 415.4 L 826.4 400 L 853 415.4 L 853 446.2 L 879.6 461.5 Z" fill="#0d2149" stroke="black" stroke-width="0"></path><path d="M 906.3 446.2 L 906.3 415.4 L 932.9 400 L 959.6 415.4 L 986.2 400 L 986.2 369.2 L 959.6 384.6 L 932.9 369.2 L 932.9 338.5 L 906.3 323.1 L 879.6 338.5 L 906.3 353.8 L 906.3 384.6 L 879.6 400 L 879.6 430.8 Z" fill="#0e79b2" stroke="black" stroke-width="0"></path><path d="M 906.3 446.2 L 932.9 430.8 L 959.6 446.2 L 959.6 476.9 L 986.2 492.3 L 1012.9 476.9 L 986.2 461.5 L 986.2 430.8 L 1012.9 415.4 L 1012.9 384.6 L 986.2 369.2 L 986.2 400 L 959.6 415.4 L 932.9 400 L 906.3 415.4 Z" fill="#ffca3a" stroke="black" stroke-width="0"></path><path d="M 906.3 446.2 L 932.9 461.5 L 932.9 492.3 L 906.3 507.7 L 906.3 538.5 L 932.9 553.8 L 932.9 523.1 L 959.6 507.7 L 986.2 523.1 L 1012.9 507.7 L 1012.9 476.9 L 986.2 492.3 L 959.6 476.9 L 959.6 446.2 L 932.9 430.8 Z" fill="#0d2149" stroke="black" stroke-width="0"></path><path d="M 959.6 261.5 L 986.2 246.2 L 1012.9 261.5 L 1012.9 292.3 L 1039.5 307.7 L 1066.2 292.3 L 1039.5 276.9 L 1039.5 246.2 L 1066.2 230.8 L 1066.2 200 L 1039.5 184.6 L 1039.5 215.4 L 1012.9 230.8 L 986.2 215.4 L 959.6 230.8 Z" fill="#0e79b2" stroke="black" stroke-width="0"></path><path d="M 959.6 261.5 L 986.2 276.9 L 986.2 307.7 L 959.6 323.1 L 959.6 353.8 L 986.2 369.2 L 986.2 338.5 L 1012.9 323.1 L 1039.5 338.5 L 1066.2 323.1 L 1066.2 292.3 L 1039.5 307.7 L 1012.9 292.3 L 1012.9 261.5 L 986.2 246.2 Z" fill="#ffca3a" stroke="black" stroke-width="0"></path><path d="M 959.6 261.5 L 959.6 292.3 L 932.9 307.7 L 906.3 292.3 L 879.6 307.7 L 879.6 338.5 L 906.3 323.1 L 932.9 338.5 L 932.9 369.2 L 959.6 384.6 L 986.2 369.2 L 959.6 353.8 L 959.6 323.1 L 986.2 307.7 L 986.2 276.9 Z" fill="#0d2149" stroke="black" stroke-width="0"></path><path d="M 959.6 261.5 L 932.9 276.9 L 906.3 261.5 L 906.3 230.8 L 879.6 215.4 L 853 230.8 L 879.6 246.2 L 879.6 276.9 L 853 292.3 L 853 323.1 L 879.6 338.5 L 879.6 307.7 L 906.3 292.3 L 932.9 307.7 L 959.6 292.3 Z" fill="#0e79b2" stroke="black" stroke-width="0"></path><path d="M 959.6 261.5 L 932.9 246.2 L 932.9 215.4 L 959.6 200 L 959.6 169.2 L 932.9 153.8 L 932.9 184.6 L 906.3 200 L 879.6 184.6 L 853 200 L 853 230.8 L 879.6 215.4 L 906.3 230.8 L 906.3 261.5 L 932.9 276.9 Z" fill="#ffca3a" stroke="black" stroke-width="0"></path><path d="M 959.6 261.5 L 959.6 230.8 L 986.2 215.4 L 1012.9 230.8 L 1039.5 215.4 L 1039.5 184.6 L 1012.9 200 L 986.2 184.6 L 986.2 153.8 L 959.6 138.5 L 932.9 153.8 L 959.6 169.2 L 959.6 200 L 932.9 215.4 L 932.9 246.2 Z" fill="#0d2149" stroke="black" stroke-width="0"></path><path d="M 826.4 123.1 L 826.4 153.8 L 799.7 169.2 L 773.1 153.8 L 746.4 169.2 L 746.4 200 L 773.1 184.6 L 799.7 200 L 799.7 230.8 L 826.4 246.2 L 853 230.8 L 826.4 215.4 L 826.4 184.6 L 853 169.2 L 853 138.5 Z" fill="#0e79b2" stroke="black" stroke-width="0"></path><path d="M 826.4 123.1 L 799.7 138.5 L 773.1 123.1 L 773.1 92.3 L 746.4 76.9 L 719.8 92.3 L 746.4 107.7 L 746.4 138.5 L 719.8 153.8 L 719.8 184.6 L 746.4 200 L 746.4 169.2 L 773.1 153.8 L 799.7 169.2 L 826.4 153.8 Z" fill="#ffca3a" stroke="black" stroke-width="0"></path><path d="M 826.4 123.1 L 799.7 107.7 L 799.7 76.9 L 826.4 61.5 L 826.4 30.8 L 799.7 15.4 L 799.7 46.2 L 773.1 61.5 L 746.4 46.2 L 719.8 61.5 L 719.8 92.3 L 746.4 76.9 L 773.1 92.3 L 773.1 123.1 L 799.7 138.5 Z" fill="#0d2149" stroke="black" stroke-width="0"></path><path d="M 826.4 123.1 L 826.4 92.3 L 853 76.9 L 879.6 92.3 L 906.3 76.9 L 906.3 46.2 L 879.6 61.5 L 853 46.2 L 853 15.4 L 826.4 0 L 799.7 15.4 L 826.4 30.8 L 826.4 61.5 L 799.7 76.9 L 799.7 107.7 Z" fill="#0e79b2" stroke="black" stroke-width="0"></path><path d="M 826.4 123.1 L 853 107.7 L 879.6 123.1 L 879.6 153.8 L 906.3 169.2 L 932.9 153.8 L 906.3 138.5 L 906.3 107.7 L 932.9 92.3 L 932.9 61.5 L 906.3 46.2 L 906.3 76.9 L 879.6 92.3 L 853 76.9 L 826.4 92.3 Z" fill="#ffca3a" stroke="black" stroke-width="0"></path><path d="M 826.4 123.1 L 853 138.5 L 853 169.2 L 826.4 184.6 L 826.4 215.4 L 853 230.8 L 853 200 L 879.6 184.6 L 906.3 200 L 932.9 184.6 L 932.9 153.8 L 906.3 169.2 L 879.6 153.8 L 879.6 123.1 L 853 107.7 Z" fill="#0d2149" stroke="black" stroke-width="0"></path><path d="M 693.1 -15.4 L 719.8 0 L 719.8 30.8 L 693.1 46.2 L 693.1 76.9 L 719.8 92.3 L 719.8 61.5 L 746.4 46.2 L 773.1 61.5 L 799.7 46.2 L 799.7 15.4 L 773.1 30.8 L 746.4 15.4 L 746.4 -15.4 L 719.8 -30.8 Z" fill="#0e79b2" stroke="black" stroke-width="0"></path><path d="M 693.1 -15.4 L 693.1 15.4 L 666.5 30.8 L 639.8 15.4 L 613.2 30.8 L 613.2 61.5 L 639.8 46.2 L 666.5 61.5 L 666.5 92.3 L 693.1 107.7 L 719.8 92.3 L 693.1 76.9 L 693.1 46.2 L 719.8 30.8 L 719.8 0 Z" fill="#ffca3a" stroke="black" stroke-width="0"></path><path d="M 693.1 -15.4 L 666.5 0 L 639.8 -15.4 L 639.8 -46.2 L 613.2 -61.5 L 586.5 -46.2 L 613.2 -30.8 L 613.2 0 L 586.5 15.4 L 586.5 46.2 L 613.2 61.5 L 613.2 30.8 L 639.8 15.4 L 666.5 30.8 L 693.1 15.4 Z" fill="#0d2149" stroke="black" stroke-width="0"></path><path d="M 693.1 -15.4 L 666.5 -30.8 L 666.5 -61.5 L 693.1 -76.9 L 693.1 -107.7 L 666.5 -123.1 L 666.5 -92.3 L 639.8 -76.9 L 613.2 -92.3 L 586.5 -76.9 L 586.5 -46.2 L 613.2 -61.5 L 639.8 -46.2 L 639.8 -15.4 L 666.5 0 Z" fill="#0e79b2" stroke="black" stroke-width="0"></path><path d="M 693.1 -15.4 L 693.1 -46.2 L 719.8 -61.5 L 746.4 -46.2 L 773.1 -61.5 L 773.1 -92.3 L 746.4 -76.9 L 719.8 -92.3 L 719.8 -123.1 L 693.1 -138.5 L 666.5 -123.1 L 693.1 -107.7 L 693.1 -76.9 L 666.5 -61.5 L 666.5 -30.8 Z" fill="#ffca3a" stroke="black" stroke-width="0"></path><path d="M 693.1 -15.4 L 719.8 -30.8 L 746.4 -15.4 L 746.4 15.4 L 773.1 30.8 L 799.7 15.4 L 773.1 0 L 773.1 -30.8 L 799.7 -46.2 L 799.7 -76.9 L 773.1 -92.3 L 773.1 -61.5 L 746.4 -46.2 L 719.8 -61.5 L 693.1 -46.2 Z" fill="#0d2149" stroke="black" stroke-width="0"></path><path d="M 559.9 -153.8 L 586.5 -169.2 L 613.2 -153.8 L 613.2 -123.1 L 639.8 -107.7 L 666.5 -123.1 L 639.8 -138.5 L 639.8 -169.2 L 666.5 -184.6 L 666.5 -215.4 L 639.8 -230.8 L 639.8 -200 L 613.2 -184.6 L 586.5 -200 L 559.9 -184.6 Z" fill="#0e79b2" stroke="black" stroke-width="0"></path><path d="M 559.9 -153.8 L 586.5 -138.5 L 586.5 -107.7 L 559.9 -92.3 L 559.9 -61.5 L 586.5 -46.2 L 586.5 -76.9 L 613.2 -92.3 L 639.8 -76.9 L 666.5 -92.3 L 666.5 -123.1 L 639.8 -107.7 L 613.2 -123.1 L 613.2 -153.8 L 586.5 -169.2 Z" fill="#ffca3a" stroke="black" stroke-width="0"></path><path d="M 559.9 -153.8 L 559.9 -123.1 L 533.2 -107.7 L 506.6 -123.1 L 479.9 -107.7 L 479.9 -76.9 L 506.6 -92.3 L 533.2 -76.9 L 533.2 -46.2 L 559.9 -30.8 L 586.5 -46.2 L 559.9 -61.5 L 559.9 -92.3 L 586.5 -107.7 L 586.5 -138.5 Z" fill="#0d2149" stroke="black" stroke-width="0"></path><path d="M 559.9 -153.8 L 533.2 -138.5 L 506.6 -153.8 L 506.6 -184.6 L 479.9 -200 L 453.3 -184.6 L 479.9 -169.2 L 479.9 -138.5 L 453.3 -123.1 L 453.3 -92.3 L 479.9 -76.9 L 479.9 -107.7 L 506.6 -123.1 L 533.2 -107.7 L 559.9 -123.1 Z" fill="#0e79b2" stroke="black" stroke-width="0"></path><path d="M 559.9 -153.8 L 533.2 -169.2 L 533.2 -200 L 559.9 -215.4 L 559.9 -246.2 L 533.2 -261.5 L 533.2 -230.8 L 506.6 -215.4 L 479.9 -230.8 L 453.3 -215.4 L 453.3 -184.6 L 479.9 -200 L 506.6 -184.6 L 506.6 -153.8 L 533.2 -138.5 Z" fill="#ffca3a" stroke="black" stroke-width="0"></path><path d="M 559.9 -153.8 L 559.9 -184.6 L 586.5 -200 L 613.2 -184.6 L 639.8 -200 L 639.8 -230.8 L 613.2 -215.4 L 586.5 -230.8 L 586.5 -261.5 L 559.9 -276.9 L 533.2 -261.5 L 559.9 -246.2 L 559.9 -215.4 L 533.2 -200 L 533.2 -169.2 Z" fill="#0d2149" stroke="black" stroke-width="0"></path><path d="M 373.4 -107.7 L 400 -92.3 L 400 -61.5 L 373.4 -46.2 L 373.4 -15.4 L 400 0 L 400 -30.8 L 426.6 -46.2 L 453.3 -30.8 L 479.9 -46.2 L 479.9 -76.9 L 453.3 -61.5 L 426.6 -76.9 L 426.6 -107.7 L 400 -123.1 Z" fill="#0e79b2" stroke="black" stroke-width="0"></path><path d="M 373.4 -107.7 L 373.4 -76.9 L 346.7 -61.5 L 320.1 -76.9 L 293.4 -61.5 L 293.4 -30.8 L 320.1 -46.2 L 346.7 -30.8 L 346.7 0 L 373.4 15.4 L 400 0 L 373.4 -15.4 L 373.4 -46.2 L 400 -61.5 L 400 -92.3 Z" fill="#ffca3a" stroke="black" stroke-width="0"></path><path d="M 373.4 -107.7 L 346.7 -92.3 L 320.1 -107.7 L 320.1 -138.5 L 293.4 -153.8 L 266.8 -138.5 L 293.4 -123.1 L 293.4 -92.3 L 266.8 -76.9 L 266.8 -46.2 L 293.4 -30.8 L 293.4 -61.5 L 320.1 -76.9 L 346.7 -61.5 L 373.4 -76.9 Z" fill="#0d2149" stroke="black" stroke-width="0"></path><path d="M 373.4 -107.7 L 346.7 -123.1 L 346.7 -153.8 L 373.4 -169.2 L 373.4 -200 L 346.7 -215.4 L 346.7 -184.6 L 320.1 -169.2 L 293.4 -184.6 L 266.8 -169.2 L 266.8 -138.5 L 293.4 -153.8 L 320.1 -138.5 L 320.1 -107.7 L 346.7 -92.3 Z" fill="#0e79b2" stroke="black" stroke-width="0"></path><path d="M 373.4 -107.7 L 373.4 -138.5 L 400 -153.8 L 426.6 -138.5 L 453.3 -153.8 L 453.3 -184.6 L 426.6 -169.2 L 400 -184.6 L 400 -215.4 L 373.4 -230.8 L 346.7 -215.4 L 373.4 -200 L 373.4 -169.2 L 346.7 -153.8 L 346.7 -123.1 Z" fill="#ffca3a" stroke="black" stroke-width="0"></path><path d="M 373.4 -107.7 L 400 -123.1 L 426.6 -107.7 L 426.6 -76.9 L 453.3 -61.5 L 479.9 -76.9 L 453.3 -92.3 L 453.3 -123.1 L 479.9 -138.5 L 479.9 -169.2 L 453.3 -184.6 L 453.3 -153.8 L 426.6 -138.5 L 400 -153.8 L 373.4 -138.5 Z" fill="#0d2149" stroke="black" stroke-width="0"></path><path d="M 186.8 -61.5 L 186.8 -92.3 L 213.5 -107.7 L 240.1 -92.3 L 266.8 -107.7 L 266.8 -138.5 L 240.1 -123.1 L 213.5 -138.5 L 213.5 -169.2 L 186.8 -184.6 L 160.2 -169.2 L 186.8 -153.8 L 186.8 -123.1 L 160.2 -107.7 L 160.2 -76.9 Z" fill="#0e79b2" stroke="black" stroke-width="0"></path><path d="M 186.8 -61.5 L 213.5 -76.9 L 240.1 -61.5 L 240.1 -30.8 L 266.8 -15.4 L 293.4 -30.8 L 266.8 -46.2 L 266.8 -76.9 L 293.4 -92.3 L 293.4 -123.1 L 266.8 -138.5 L 266.8 -107.7 L 240.1 -92.3 L 213.5 -107.7 L 186.8 -92.3 Z" fill="#ffca3a" stroke="black" stroke-width="0"></path><path d="M 186.8 -61.5 L 213.5 -46.2 L 213.5 -15.4 L 186.8 0 L 186.8 30.8 L 213.5 46.2 L 213.5 15.4 L 240.1 0 L 266.8 15.4 L 293.4 0 L 293.4 -30.8 L 266.8 -15.4 L 240.1 -30.8 L 240.1 -61.5 L 213.5 -76.9 Z" fill="#0d2149" stroke="black" stroke-width="0"></path><path d="M 186.8 -61.5 L 186.8 -30.8 L 160.2 -15.4 L 133.5 -30.8 L 106.9 -15.4 L 106.9 15.4 L 133.5 0 L 160.2 15.4 L 160.2 46.2 L 186.8 61.5 L 213.5 46.2 L 186.8 30.8 L 186.8 0 L 213.5 -15.4 L 213.5 -46.2 Z" fill="#0e79b2" stroke="black" stroke-width="0"></path><path d="M 186.8 -61.5 L 160.2 -46.2 L 133.5 -61.5 L 133.5 -92.3 L 106.9 -107.7 L 80.2 -92.3 L 106.9 -76.9 L 106.9 -46.2 L 80.2 -30.8 L 80.2 0 L 106.9 15.4 L 106.9 -15.4 L 133.5 -30.8 L 160.2 -15.4 L 186.8 -30.8 Z" fill="#ffca3a" stroke="black" stroke-width="0"></path><path d="M 186.8 -61.5 L 160.2 -76.9 L 160.2 -107.7 L 186.8 -123.1 L 186.8 -153.8 L 160.2 -169.2 L 160.2 -138.5 L 133.5 -123.1 L 106.9 -138.5 L 80.2 -123.1 L 80.2 -92.3 L 106.9 -107.7 L 133.5 -92.3 L 133.5 -61.5 L 160.2 -46.2 Z" fill="#0d2149" stroke="black" stroke-width="0"></path><path d="M 0.3 -15.4 L 26.9 -30.8 L 53.6 -15.4 L 53.6 15.4 L 80.2 30.8 L 106.9 15.4 L 80.2 0 L 80.2 -30.8 L 106.9 -46.2 L 106.9 -76.9 L 80.2 -92.3 L 80.2 -61.5 L 53.6 -46.2 L 26.9 -61.5 L 0.3 -46.2 Z" fill="#0e79b2" stroke="black" stroke-width="0"></path><path d="M 0.3 -15.4 L 26.9 0 L 26.9 30.8 L 0.3 46.2 L 0.3 76.9 L 26.9 92.3 L 26.9 61.5 L 53.6 46.2 L 80.2 61.5 L 106.9 46.2 L 106.9 15.4 L 80.2 30.8 L 53.6 15.4 L 53.6 -15.4 L 26.9 -30.8 Z" fill="#ffca3a" stroke="black" stroke-width="0"></path><path d="M 0.3 -15.4 L 0.3 15.4 L -26.4 30.8 L -53 15.4 L -79.6 30.8 L -79.6 61.5 L -53 46.2 L -26.4 61.5 L -26.4 92.3 L 0.3 107.7 L 26.9 92.3 L 0.3 76.9 L 0.3 46.2 L 26.9 30.8 L 26.9 0 Z" fill="#0d2149" stroke="black" stroke-width="0"></path><path d="M 0.3 -15.4 L -26.4 0 L -53 -15.4 L -53 -46.2 L -79.6 -61.5 L -106.3 -46.2 L -79.6 -30.8 L -79.6 0 L -106.3 15.4 L -106.3 46.2 L -79.6 61.5 L -79.6 30.8 L -53 15.4 L -26.4 30.8 L 0.3 15.4 Z" fill="#0e79b2" stroke="black" stroke-width="0"></path><path d="M 0.3 -15.4 L -26.4 -30.8 L -26.4 -61.5 L 0.3 -76.9 L 0.3 -107.7 L -26.4 -123.1 L -26.4 -92.3 L -53 -76.9 L -79.6 -92.3 L -106.3 -76.9 L -106.3 -46.2 L -79.6 -61.5 L -53 -46.2 L -53 -15.4 L -26.4 0 Z" fill="#ffca3a" stroke="black" stroke-width="0"></path><path d="M 0.3 -15.4 L 0.3 -46.2 L 26.9 -61.5 L 53.6 -46.2 L 80.2 -61.5 L 80.2 -92.3 L 53.6 -76.9 L 26.9 -92.3 L 26.9 -123.1 L 0.3 -138.5 L -26.4 -123.1 L 0.3 -107.7 L 0.3 -76.9 L -26.4 -61.5 L -26.4 -30.8 Z" fill="#0d2149" stroke="black" stroke-width="0"></path><path d="M -53 169.2 L -53 138.5 L -26.4 123.1 L 0.3 138.5 L 26.9 123.1 L 26.9 92.3 L 0.3 107.7 L -26.4 92.3 L -26.4 61.5 L -53 46.2 L -79.6 61.5 L -53 76.9 L -53 107.7 L -79.6 123.1 L -79.6 153.8 Z" fill="#0e79b2" stroke="black" stroke-width="0"></path><path d="M -53 169.2 L -26.4 153.8 L 0.3 169.2 L 0.3 200 L 26.9 215.4 L 53.6 200 L 26.9 184.6 L 26.9 153.8 L 53.6 138.5 L 53.6 107.7 L 26.9 92.3 L 26.9 123.1 L 0.3 138.5 L -26.4 123.1 L -53 138.5 Z" fill="#ffca3a" stroke="black" stroke-width="0"></path><path d="M -53 169.2 L -26.4 184.6 L -26.4 215.4 L -53 230.8 L -53 261.5 L -26.4 276.9 L -26.4 246.2 L 0.3 230.8 L 26.9 246.2 L 53.6 230.8 L 53.6 200 L 26.9 215.4 L 0.3 200 L 0.3 169.2 L -26.4 153.8 Z" fill="#0d2149" stroke="black" stroke-width="0"></path><path d="M -53 169.2 L -53 200 L -79.6 215.4 L -106.3 200 L -132.9 215.4 L -132.9 246.2 L -106.3 230.8 L -79.6 246.2 L -79.6 276.9 L -53 292.3 L -26.4 276.9 L -53 261.5 L -53 230.8 L -26.4 215.4 L -26.4 184.6 Z" fill="#0e79b2" stroke="black" stroke-width="0"></path><path d="M -53 169.2 L -79.6 184.6 L -106.3 169.2 L -106.3 138.5 L -132.9 123.1 L -159.6 138.5 L -132.9 153.8 L -132.9 184.6 L -159.6 200 L -159.6 230.8 L -132.9 246.2 L -132.9 215.4 L -106.3 200 L -79.6 215.4 L -53 200 Z" fill="#ffca3a" stroke="black" stroke-width="0"></path><path d="M -53 169.2 L -79.6 153.8 L -79.6 123.1 L -53 107.7 L -53 76.9 L -79.6 61.5 L -79.6 92.3 L -106.3 107.7 L -132.9 92.3 L -159.6 107.7 L -159.6 138.5 L -132.9 123.1 L -106.3 138.5 L -106.3 169.2 L -79.6 184.6 Z" fill="#0d2149" stroke="black" stroke-width="0"></path><path d="M -106.3 353.8 L -132.9 338.5 L -132.9 307.7 L -106.3 292.3 L -106.3 261.5 L -132.9 246.2 L -132.9 276.9 L -159.6 292.3 L -186.2 276.9 L -212.9 292.3 L -212.9 323.1 L -186.2 307.7 L -159.6 323.1 L -159.6 353.8 L -132.9 369.2 Z" fill="#0e79b2" stroke="black" stroke-width="0"></path><path d="M -106.3 353.8 L -106.3 323.1 L -79.6 307.7 L -53 323.1 L -26.4 307.7 L -26.4 276.9 L -53 292.3 L -79.6 276.9 L -79.6 246.2 L -106.3 230.8 L -132.9 246.2 L -106.3 261.5 L -106.3 292.3 L -132.9 307.7 L -132.9 338.5 Z" fill="#ffca3a" stroke="black" stroke-width="0"></path><path d="M -106.3 353.8 L -79.6 338.5 L -53 353.8 L -53 384.6 L -26.4 400 L 0.3 384.6 L -26.4 369.2 L -26.4 338.5 L 0.3 323.1 L 0.3 292.3 L -26.4 276.9 L -26.4 307.7 L -53 323.1 L -79.6 307.7 L -106.3 323.1 Z" fill="#0d2149" stroke="black" stroke-width="0"></path><path d="M -106.3 353.8 L -79.6 369.2 L -79.6 400 L -106.3 415.4 L -106.3 446.2 L -79.6 461.5 L -79.6 430.8 L -53 415.4 L -26.4 430.8 L 0.3 415.4 L 0.3 384.6 L -26.4 400 L -53 384.6 L -53 353.8 L -79.6 338.5 Z" fill="#0e79b2" stroke="black" stroke-width="0"></path><path d="M -106.3 353.8 L -106.3 384.6 L -132.9 400 L -159.6 384.6 L -186.2 400 L -186.2 430.8 L -159.6 415.4 L -132.9 430.8 L -132.9 461.5 L -106.3 476.9 L -79.6 461.5 L -106.3 446.2 L -106.3 415.4 L -79.6 400 L -79.6 369.2 Z" fill="#ffca3a" stroke="black" stroke-width="0"></path><path d="M -106.3 353.8 L -132.9 369.2 L -159.6 353.8 L -159.6 323.1 L -186.2 307.7 L -212.9 323.1 L -186.2 338.5 L -186.2 369.2 L -212.9 384.6 L -212.9 415.4 L -186.2 430.8 L -186.2 400 L -159.6 384.6 L -132.9 400 L -106.3 384.6 Z" fill="#0d2149" stroke="black" stroke-width="0"></path><path d="M -159.6 538.5 L -132.9 523.1 L -106.3 538.5 L -106.3 569.2 L -79.6 584.6 L -53 569.2 L -79.6 553.8 L -79.6 523.1 L -53 507.7 L -53 476.9 L -79.6 461.5 L -79.6 492.3 L -106.3 507.7 L -132.9 492.3 L -159.6 507.7 Z" fill="#0e79b2" stroke="black" stroke-width="0"></path><path d="M -159.6 538.5 L -132.9 553.8 L -132.9 584.6 L -159.6 600 L -159.6 630.8 L -132.9 646.2 L -132.9 615.4 L -106.3 600 L -79.6 615.4 L -53 600 L -53 569.2 L -79.6 584.6 L -106.3 569.2 L -106.3 538.5 L -132.9 523.1 Z" fill="#ffca3a" stroke="black" stroke-width="0"></path><path d="M -159.6 538.5 L -159.6 569.2 L -186.2 584.6 L -212.9 569.2 L -239.5 584.6 L -239.5 615.4 L -212.9 600 L -186.2 615.4 L -186.2 646.2 L -159.6 661.5 L -132.9 646.2 L -159.6 630.8 L -159.6 600 L -132.9 584.6 L -132.9 553.8 Z" fill="#0d2149" stroke="black" stroke-width="0"></path><path d="M -159.6 538.5 L -186.2 553.8 L -212.9 538.5 L -212.9 507.7 L -239.5 492.3 L -266.2 507.7 L -239.5 523.1 L -239.5 553.8 L -266.2 569.2 L -266.2 600 L -239.5 615.4 L -239.5 584.6 L -212.9 569.2 L -186.2 584.6 L -159.6 569.2 Z" fill="#0e79b2" stroke="black" stroke-width="0"></path><path d="M -159.6 538.5 L -186.2 523.1 L -186.2 492.3 L -159.6 476.9 L -159.6 446.2 L -186.2 430.8 L -186.2 461.5 L -212.9 476.9 L -239.5 461.5 L -266.2 476.9 L -266.2 507.7 L -239.5 492.3 L -212.9 507.7 L -212.9 538.5 L -186.2 553.8 Z" fill="#ffca3a" stroke="black" stroke-width="0"></path><path d="M -159.6 538.5 L -159.6 507.7 L -132.9 492.3 L -106.3 507.7 L -79.6 492.3 L -79.6 461.5 L -106.3 476.9 L -132.9 461.5 L -132.9 430.8 L -159.6 415.4 L -186.2 430.8 L -159.6 446.2 L -159.6 476.9 L -186.2 492.3 L -186.2 523.1 Z" fill="#0d2149" stroke="black" stroke-width="0"></path><path d="M -26.4 676.9 L -53 661.5 L -53 630.8 L -26.4 615.4 L -26.4 584.6 L -53 569.2 L -53 600 L -79.6 615.4 L -106.3 600 L -132.9 615.4 L -132.9 646.2 L -106.3 630.8 L -79.6 646.2 L -79.6 676.9 L -53 692.3 Z" fill="#0e79b2" stroke="black" stroke-width="0"></path><path d="M -26.4 676.9 L -26.4 646.2 L 0.3 630.8 L 26.9 646.2 L 53.6 630.8 L 53.6 600 L 26.9 615.4 L 0.3 600 L 0.3 569.2 L -26.4 553.8 L -53 569.2 L -26.4 584.6 L -26.4 615.4 L -53 630.8 L -53 661.5 Z" fill="#ffca3a" stroke="black" stroke-width="0"></path><path d="M -26.4 676.9 L 0.3 661.5 L 26.9 676.9 L 26.9 707.7 L 53.6 723.1 L 80.2 707.7 L 53.6 692.3 L 53.6 661.5 L 80.2 646.2 L 80.2 615.4 L 53.6 600 L 53.6 630.8 L 26.9 646.2 L 0.3 630.8 L -26.4 646.2 Z" fill="#0d2149" stroke="black" stroke-width="0"></path><path d="M -26.4 676.9 L 0.3 692.3 L 0.3 723.1 L -26.4 738.5 L -26.4 769.2 L 0.3 784.6 L 0.3 753.8 L 26.9 738.5 L 53.6 753.8 L 80.2 738.5 L 80.2 707.7 L 53.6 723.1 L 26.9 707.7 L 26.9 676.9 L 0.3 661.5 Z" fill="#0e79b2" stroke="black" stroke-width="0"></path><path d="M -26.4 676.9 L -26.4 707.7 L -53 723.1 L -79.6 707.7 L -106.3 723.1 L -106.3 753.8 L -79.6 738.5 L -53 753.8 L -53 784.6 L -26.4 800 L 0.3 784.6 L -26.4 769.2 L -26.4 738.5 L 0.3 723.1 L 0.3 692.3 Z" fill="#ffca3a" stroke="black" stroke-width="0"></path><path d="M -26.4 676.9 L -53 692.3 L -79.6 676.9 L -79.6 646.2 L -106.3 630.8 L -132.9 646.2 L -106.3 661.5 L -106.3 692.3 L -132.9 707.7 L -132.9 738.5 L -106.3 753.8 L -106.3 723.1 L -79.6 707.7 L -53 723.1 L -26.4 707.7 Z" fill="#0d2149" stroke="black" stroke-width="0"></path><path d="M 106.9 815.4 L 106.9 784.6 L 133.5 769.2 L 160.2 784.6 L 186.8 769.2 L 186.8 738.5 L 160.2 753.8 L 133.5 738.5 L 133.5 707.7 L 106.9 692.3 L 80.2 707.7 L 106.9 723.1 L 106.9 753.8 L 80.2 769.2 L 80.2 800 Z" fill="#0e79b2" stroke="black" stroke-width="0"></path><path d="M 106.9 815.4 L 133.5 800 L 160.2 815.4 L 160.2 846.2 L 186.8 861.5 L 213.5 846.2 L 186.8 830.8 L 186.8 800 L 213.5 784.6 L 213.5 753.8 L 186.8 738.5 L 186.8 769.2 L 160.2 784.6 L 133.5 769.2 L 106.9 784.6 Z" fill="#ffca3a" stroke="black" stroke-width="0"></path><path d="M 106.9 815.4 L 133.5 830.8 L 133.5 861.5 L 106.9 876.9 L 106.9 907.7 L 133.5 923.1 L 133.5 892.3 L 160.2 876.9 L 186.8 892.3 L 213.5 876.9 L 213.5 846.2 L 186.8 861.5 L 160.2 846.2 L 160.2 815.4 L 133.5 800 Z" fill="#0d2149" stroke="black" stroke-width="0"></path><path d="M 106.9 815.4 L 106.9 846.2 L 80.2 861.5 L 53.6 846.2 L 26.9 861.5 L 26.9 892.3 L 53.6 876.9 L 80.2 892.3 L 80.2 923.1 L 106.9 938.5 L 133.5 923.1 L 106.9 907.7 L 106.9 876.9 L 133.5 861.5 L 133.5 830.8 Z" fill="#0e79b2" stroke="black" stroke-width="0"></path><path d="M 106.9 815.4 L 80.2 830.8 L 53.6 815.4 L 53.6 784.6 L 26.9 769.2 L 0.3 784.6 L 26.9 800 L 26.9 830.8 L 0.3 846.2 L 0.3 876.9 L 26.9 892.3 L 26.9 861.5 L 53.6 846.2 L 80.2 861.5 L 106.9 846.2 Z" fill="#ffca3a" stroke="black" stroke-width="0"></path><path d="M 106.9 815.4 L 80.2 800 L 80.2 769.2 L 106.9 753.8 L 106.9 723.1 L 80.2 707.7 L 80.2 738.5 L 53.6 753.8 L 26.9 738.5 L 0.3 753.8 L 0.3 784.6 L 26.9 769.2 L 53.6 784.6 L 53.6 815.4 L 80.2 830.8 Z" fill="#0d2149" stroke="black" stroke-width="0"></path><path d="M 240.1 953.8 L 266.8 938.5 L 293.4 953.8 L 293.4 984.6 L 320.1 1000 L 346.7 984.6 L 320.1 969.2 L 320.1 938.5 L 346.7 923.1 L 346.7 892.3 L 320.1 876.9 L 320.1 907.7 L 293.4 923.1 L 266.8 907.7 L 240.1 923.1 Z" fill="#0e79b2" stroke="black" stroke-width="0"></path><path d="M 240.1 953.8 L 266.8 969.2 L 266.8 1000 L 240.1 1015.4 L 240.1 1046.2 L 266.8 1061.5 L 266.8 1030.8 L 293.4 1015.4 L 320.1 1030.8 L 346.7 1015.4 L 346.7 984.6 L 320.1 1000 L 293.4 984.6 L 293.4 953.8 L 266.8 938.5 Z" fill="#ffca3a" stroke="black" stroke-width="0"></path><path d="M 240.1 953.8 L 240.1 984.6 L 213.5 1000 L 186.8 984.6 L 160.2 1000 L 160.2 1030.8 L 186.8 1015.4 L 213.5 1030.8 L 213.5 1061.5 L 240.1 1076.9 L 266.8 1061.5 L 240.1 1046.2 L 240.1 1015.4 L 266.8 1000 L 266.8 969.2 Z" fill="#0d2149" stroke="black" stroke-width="0"></path><path d="M 240.1 953.8 L 213.5 969.2 L 186.8 953.8 L 186.8 923.1 L 160.2 907.7 L 133.5 923.1 L 160.2 938.5 L 160.2 969.2 L 133.5 984.6 L 133.5 1015.4 L 160.2 1030.8 L 160.2 1000 L 186.8 984.6 L 213.5 1000 L 240.1 984.6 Z" fill="#0e79b2" stroke="black" stroke-width="0"></path><path d="M 240.1 953.8 L 213.5 938.5 L 213.5 907.7 L 240.1 892.3 L 240.1 861.5 L 213.5 846.2 L 213.5 876.9 L 186.8 892.3 L 160.2 876.9 L 133.5 892.3 L 133.5 923.1 L 160.2 907.7 L 186.8 923.1 L 186.8 953.8 L 213.5 969.2 Z" fill="#ffca3a" stroke="black" stroke-width="0"></path><path d="M 240.1 953.8 L 240.1 923.1 L 266.8 907.7 L 293.4 923.1 L 320.1 907.7 L 320.1 876.9 L 293.4 892.3 L 266.8 876.9 L 266.8 846.2 L 240.1 830.8 L 213.5 846.2 L 240.1 861.5 L 240.1 892.3 L 213.5 907.7 L 213.5 938.5 Z" fill="#0d2149" stroke="black" stroke-width="0"></path><path d="M 426.6 907.7 L 426.6 876.9 L 453.3 861.5 L 479.9 876.9 L 506.6 861.5 L 506.6 830.8 L 479.9 846.2 L 453.3 830.8 L 453.3 800 L 426.6 784.6 L 400 800 L 426.6 815.4 L 426.6 846.2 L 400 861.5 L 400 892.3 Z" fill="#0e79b2" stroke="black" stroke-width="0"></path><path d="M 426.6 907.7 L 453.3 892.3 L 479.9 907.7 L 479.9 938.5 L 506.6 953.8 L 533.2 938.5 L 506.6 923.1 L 506.6 892.3 L 533.2 876.9 L 533.2 846.2 L 506.6 830.8 L 506.6 861.5 L 479.9 876.9 L 453.3 861.5 L 426.6 876.9 Z" fill="#ffca3a" stroke="black" stroke-width="0"></path><path d="M 426.6 907.7 L 453.3 923.1 L 453.3 953.8 L 426.6 969.2 L 426.6 1000 L 453.3 1015.4 L 453.3 984.6 L 479.9 969.2 L 506.6 984.6 L 533.2 969.2 L 533.2 938.5 L 506.6 953.8 L 479.9 938.5 L 479.9 907.7 L 453.3 892.3 Z" fill="#0d2149" stroke="black" stroke-width="0"></path><path d="M 426.6 907.7 L 426.6 938.5 L 400 953.8 L 373.4 938.5 L 346.7 953.8 L 346.7 984.6 L 373.4 969.2 L 400 984.6 L 400 1015.4 L 426.6 1030.8 L 453.3 1015.4 L 426.6 1000 L 426.6 969.2 L 453.3 953.8 L 453.3 923.1 Z" fill="#0e79b2" stroke="black" stroke-width="0"></path><path d="M 426.6 907.7 L 400 923.1 L 373.4 907.7 L 373.4 876.9 L 346.7 861.5 L 320.1 876.9 L 346.7 892.3 L 346.7 923.1 L 320.1 938.5 L 320.1 969.2 L 346.7 984.6 L 346.7 953.8 L 373.4 938.5 L 400 953.8 L 426.6 938.5 Z" fill="#ffca3a" stroke="black" stroke-width="0"></path><path d="M 426.6 907.7 L 400 892.3 L 400 861.5 L 426.6 846.2 L 426.6 815.4 L 400 800 L 400 830.8 L 373.4 846.2 L 346.7 830.8 L 320.1 846.2 L 320.1 876.9 L 346.7 861.5 L 373.4 876.9 L 373.4 907.7 L 400 923.1 Z" fill="#0d2149" stroke="black" stroke-width="0"></path><path d="M 613.2 861.5 L 639.8 876.9 L 639.8 907.7 L 613.2 923.1 L 613.2 953.8 L 639.8 969.2 L 639.8 938.5 L 666.5 923.1 L 693.1 938.5 L 719.8 923.1 L 719.8 892.3 L 693.1 907.7 L 666.5 892.3 L 666.5 861.5 L 639.8 846.2 Z" fill="#0e79b2" stroke="black" stroke-width="0"></path><path d="M 613.2 861.5 L 613.2 892.3 L 586.5 907.7 L 559.9 892.3 L 533.2 907.7 L 533.2 938.5 L 559.9 923.1 L 586.5 938.5 L 586.5 969.2 L 613.2 984.6 L 639.8 969.2 L 613.2 953.8 L 613.2 923.1 L 639.8 907.7 L 639.8 876.9 Z" fill="#ffca3a" stroke="black" stroke-width="0"></path><path d="M 613.2 861.5 L 586.5 876.9 L 559.9 861.5 L 559.9 830.8 L 533.2 815.4 L 506.6 830.8 L 533.2 846.2 L 533.2 876.9 L 506.6 892.3 L 506.6 923.1 L 533.2 938.5 L 533.2 907.7 L 559.9 892.3 L 586.5 907.7 L 613.2 892.3 Z" fill="#0d2149" stroke="black" stroke-width="0"></path><path d="M 613.2 861.5 L 586.5 846.2 L 586.5 815.4 L 613.2 800 L 613.2 769.2 L 586.5 753.8 L 586.5 784.6 L 559.9 800 L 533.2 784.6 L 506.6 800 L 506.6 830.8 L 533.2 815.4 L 559.9 830.8 L 559.9 861.5 L 586.5 876.9 Z" fill="#0e79b2" stroke="black" stroke-width="0"></path><path d="M 613.2 861.5 L 613.2 830.8 L 639.8 815.4 L 666.5 830.8 L 693.1 815.4 L 693.1 784.6 L 666.5 800 L 639.8 784.6 L 639.8 753.8 L 613.2 738.5 L 586.5 753.8 L 613.2 769.2 L 613.2 800 L 586.5 815.4 L 586.5 846.2 Z" fill="#ffca3a" stroke="black" stroke-width="0"></path><path d="M 613.2 861.5 L 639.8 846.2 L 666.5 861.5 L 666.5 892.3 L 693.1 907.7 L 719.8 892.3 L 693.1 876.9 L 693.1 846.2 L 719.8 830.8 L 719.8 800 L 693.1 784.6 L 693.1 815.4 L 666.5 830.8 L 639.8 815.4 L 613.2 830.8 Z" fill="#0d2149" stroke="black" stroke-width="0"></path><ellipse cx="400" cy="400" rx="600" ry="600" fill="none" stroke="white" stroke-width="560"></ellipse><ellipse cx="400" cy="400" rx="320" ry="320" fill="none" stroke="black" stroke-width="0"></ellipse></svg>