<svg viewBox="0 0 800 800" preserveAspectRatio="xMidYMin slice" xmlns="http://www.w3.org/2000/svg" xlink="http://www.w3.org/1999/xlink"><defs><g id="unit-09"><path d="M -2.5 124.3 Q -90.5 64.3, -2.5 4.3 Q -10.5 110.5, -106.4 64.3 Q -10.5 18.1, -2.5 124.3" fill="#01161e" stroke="#01161e" stroke-width="1"></path><path d="M -2.5 124.3 Q -85.6 64.3, -2.5 4.3 Q -12.9 106.3, -106.4 64.3 Q -12.9 22.3, -2.5 124.3" fill="#598392" stroke="#01161e" stroke-width="1"></path><path d="M -44.5 51.6 Q -48.5 64.3, -44.5 77.1 L -44.5 77.1 Q -31.5 74.2, -22.4 64.3 L -22.4 64.3 Q -31.5 54.5, -44.5 51.6" fill="#01161e" stroke="#01161e" stroke-width="1"></path><path d="M -42.9 54.3 Q -45.2 64.3, -42.9 74.3 L -42.9 74.3 Q -33.1 71.3, -25.6 64.3 L -25.6 64.3 Q -33.1 57.3, -42.9 54.3" fill="#124559" stroke="#01161e" stroke-width="1"></path><path d="M 2.5 124.3 Q 10.5 18.1, 106.4 64.3 Q 10.5 110.5, 2.5 4.3 Q 90.5 64.3, 2.5 124.3" fill="#01161e" stroke="#01161e" stroke-width="1"></path><path d="M 2.5 124.3 Q 12.9 22.3, 106.4 64.3 Q 12.9 106.3, 2.5 4.3 Q 85.6 64.3, 2.5 124.3" fill="#598392" stroke="#01161e" stroke-width="1"></path><path d="M 44.5 51.6 Q 31.5 54.5, 22.4 64.3 L 22.4 64.3 Q 31.5 74.2, 44.5 77.1 L 44.5 77.1 Q 48.5 64.3, 44.5 51.6" fill="#01161e" stroke="#01161e" stroke-width="1"></path><path d="M 42.9 54.3 Q 33.1 57.3, 25.6 64.3 L 25.6 64.3 Q 33.1 71.3, 42.9 74.3 L 42.9 74.3 Q 45.2 64.3, 42.9 54.3" fill="#124559" stroke="#01161e" stroke-width="1"></path><path d="M 5 0 Q 101 -46.2, 108.9 60 Q 20.9 0, 108.9 -60 Q 101 46.2, 5 0" fill="#01161e" stroke="#01161e" stroke-width="1"></path><path d="M 5 0 Q 98.5 -42, 108.9 60 Q 25.8 0, 108.9 -60 Q 98.5 42, 5 0" fill="#598392" stroke="#01161e" stroke-width="1"></path><path d="M 89 0 Q 80 -9.8, 66.9 -12.8 L 66.9 -12.8 Q 62.9 0, 66.9 12.8 L 66.9 12.8 Q 80 9.8, 89 0" fill="#01161e" stroke="#01161e" stroke-width="1"></path><path d="M 85.8 0 Q 78.3 -7, 68.5 -10 L 68.5 -10 Q 66.2 0, 68.5 10 L 68.5 10 Q 78.3 7, 85.8 0" fill="#124559" stroke="#01161e" stroke-width="1"></path><path d="M 2.5 -124.3 Q 90.5 -64.3, 2.5 -4.3 Q 10.5 -110.5, 106.4 -64.3 Q 10.5 -18.1, 2.5 -124.3" fill="#01161e" stroke="#01161e" stroke-width="1"></path><path d="M 2.5 -124.3 Q 85.6 -64.3, 2.5 -4.3 Q 12.9 -106.3, 106.4 -64.3 Q 12.9 -22.3, 2.5 -124.3" fill="#598392" stroke="#01161e" stroke-width="1"></path><path d="M 44.5 -51.6 Q 48.5 -64.3, 44.5 -77.1 L 44.5 -77.1 Q 31.5 -74.2, 22.4 -64.3 L 22.4 -64.3 Q 31.5 -54.5, 44.5 -51.6" fill="#01161e" stroke="#01161e" stroke-width="1"></path><path d="M 42.9 -54.3 Q 45.2 -64.3, 42.9 -74.3 L 42.9 -74.3 Q 33.1 -71.3, 25.6 -64.3 L 25.6 -64.3 Q 33.1 -57.3, 42.9 -54.3" fill="#124559" stroke="#01161e" stroke-width="1"></path><path d="M -2.5 -124.3 Q -10.5 -18.1, -106.4 -64.3 Q -10.5 -110.5, -2.5 -4.3 Q -90.5 -64.3, -2.5 -124.3" fill="#01161e" stroke="#01161e" stroke-width="1"></path><path d="M -2.5 -124.3 Q -12.9 -22.3, -106.4 -64.3 Q -12.9 -106.3, -2.5 -4.3 Q -85.6 -64.3, -2.5 -124.3" fill="#598392" stroke="#01161e" stroke-width="1"></path><path d="M -44.5 -51.6 Q -31.5 -54.5, -22.4 -64.3 L -22.4 -64.3 Q -31.5 -74.2, -44.5 -77.1 L -44.5 -77.1 Q -48.5 -64.3, -44.5 -51.6" fill="#01161e" stroke="#01161e" stroke-width="1"></path><path d="M -42.9 -54.3 Q -33.1 -57.3, -25.6 -64.3 L -25.6 -64.3 Q -33.1 -71.3, -42.9 -74.3 L -42.9 -74.3 Q -45.2 -64.3, -42.9 -54.3" fill="#124559" stroke="#01161e" stroke-width="1"></path><path d="M -5 0 Q -101 46.2, -108.9 -60 Q -20.9 0, -108.9 60 Q -101 -46.2, -5 0" fill="#01161e" stroke="#01161e" stroke-width="1"></path><path d="M -5 0 Q -98.5 42, -108.9 -60 Q -25.8 0, -108.9 60 Q -98.5 -42, -5 0" fill="#598392" stroke="#01161e" stroke-width="1"></path><path d="M -89 0 Q -80 9.8, -66.9 12.8 L -66.9 12.8 Q -62.9 0, -66.9 -12.8 L -66.9 -12.8 Q -80 -9.8, -89 0" fill="#01161e" stroke="#01161e" stroke-width="1"></path><path d="M -85.8 0 Q -78.3 7, -68.5 10 L -68.5 10 Q -66.2 0, -68.5 -10 L -68.5 -10 Q -78.3 -7, -85.8 0" fill="#124559" stroke="#01161e" stroke-width="1"></path></g></defs><rect x="0" y="0" width="800" height="800" fill="#eff6e0"></rect><use href="#unit-09" transform="translate(400, 400)"></use><use href="#unit-09" transform="translate(288.6, 593)"></use><use href="#unit-09" transform="translate(511.4, 593)"></use><use href="#unit-09" transform="translate(622.8, 400)"></use><use href="#unit-09" transform="translate(511.4, 207)"></use><use href="#unit-09" transform="translate(288.6, 207)"></use><use href="#unit-09" transform="translate(177.2, 400)"></use><use href="#unit-09" transform="translate(177.2, 786)"></use><use href="#unit-09" transform="translate(400, 786)"></use><use href="#unit-09" transform="translate(622.8, 786)"></use><use href="#unit-09" transform="translate(734.3, 593)"></use><use href="#unit-09" transform="translate(845.7, 400)"></use><use href="#unit-09" transform="translate(734.3, 207)"></use><use href="#unit-09" transform="translate(622.8, 14)"></use><use href="#unit-09" transform="translate(400, 14)"></use><use href="#unit-09" transform="translate(177.2, 14)"></use><use href="#unit-09" transform="translate(65.7, 207)"></use><use href="#unit-09" transform="translate(-45.7, 400)"></use><use href="#unit-09" transform="translate(65.7, 593)"></use><ellipse cx="400" cy="400" rx="600" ry="600" fill="none" stroke="white" stroke-width="560"></ellipse><ellipse cx="400" cy="400" rx="320" ry="320" fill="none" stroke="#01161e" stroke-width="2"></ellipse></svg>