<svg viewBox="0 0 800 800" preserveAspectRatio="xMidYMin slice" xmlns="http://www.w3.org/2000/svg"><rect x="0" y="0" width="800" height="800" fill="#eff6e0"></rect><path d="M 397.5 524.3 Q 309.5 464.3, 397.5 404.3 Q 389.5 510.5, 293.6 464.3 Q 389.5 418.1, 397.5 524.3" fill="#01161e" stroke="#01161e" stroke-width="1"></path><path d="M 397.5 524.3 Q 314.4 464.3, 397.5 404.3 Q 387.1 506.3, 293.6 464.3 Q 387.1 422.3, 397.5 524.3" fill="#598392" stroke="#01161e" stroke-width="1"></path><path d="M 355.5 451.6 Q 351.5 464.3, 355.5 477.1 L 355.5 477.1 Q 368.5 474.2, 377.6 464.3 L 377.6 464.3 Q 368.5 454.5, 355.5 451.6" fill="#01161e" stroke="#01161e" stroke-width="1"></path><path d="M 357.1 454.3 Q 354.8 464.3, 357.1 474.3 L 357.1 474.3 Q 366.9 471.3, 374.4 464.3 L 374.4 464.3 Q 366.9 457.3, 357.1 454.3" fill="#124559" stroke="#01161e" stroke-width="1"></path><path d="M 402.5 524.3 Q 410.5 418.1, 506.4 464.3 Q 410.5 510.5, 402.5 404.3 Q 490.5 464.3, 402.5 524.3" fill="#01161e" stroke="#01161e" stroke-width="1"></path><path d="M 402.5 524.3 Q 412.9 422.3, 506.4 464.3 Q 412.9 506.3, 402.5 404.3 Q 485.6 464.3, 402.5 524.3" fill="#598392" stroke="#01161e" stroke-width="1"></path><path d="M 444.5 451.6 Q 431.5 454.5, 422.4 464.3 L 422.4 464.3 Q 431.5 474.2, 444.5 477.1 L 444.5 477.1 Q 448.5 464.3, 444.5 451.6" fill="#01161e" stroke="#01161e" stroke-width="1"></path><path d="M 442.9 454.3 Q 433.1 457.3, 425.6 464.3 L 425.6 464.3 Q 433.1 471.3, 442.9 474.3 L 442.9 474.3 Q 445.2 464.3, 442.9 454.3" fill="#124559" stroke="#01161e" stroke-width="1"></path><path d="M 405 400 Q 501 353.8, 508.9 460 Q 420.9 400, 508.9 340 Q 501 446.2, 405 400" fill="#01161e" stroke="#01161e" stroke-width="1"></path><path d="M 405 400 Q 498.5 358, 508.9 460 Q 425.8 400, 508.9 340 Q 498.5 442, 405 400" fill="#598392" stroke="#01161e" stroke-width="1"></path><path d="M 489 400 Q 480 390.2, 466.9 387.2 L 466.9 387.2 Q 462.9 400, 466.9 412.8 L 466.9 412.8 Q 480 409.8, 489 400" fill="#01161e" stroke="#01161e" stroke-width="1"></path><path d="M 485.8 400 Q 478.3 393, 468.5 390 L 468.5 390 Q 466.2 400, 468.5 410 L 468.5 410 Q 478.3 407, 485.8 400" fill="#124559" stroke="#01161e" stroke-width="1"></path><path d="M 402.5 275.7 Q 490.5 335.7, 402.5 395.7 Q 410.5 289.5, 506.4 335.7 Q 410.5 381.9, 402.5 275.7" fill="#01161e" stroke="#01161e" stroke-width="1"></path><path d="M 402.5 275.7 Q 485.6 335.7, 402.5 395.7 Q 412.9 293.7, 506.4 335.7 Q 412.9 377.7, 402.5 275.7" fill="#598392" stroke="#01161e" stroke-width="1"></path><path d="M 444.5 348.4 Q 448.5 335.7, 444.5 322.9 L 444.5 322.9 Q 431.5 325.8, 422.4 335.7 L 422.4 335.7 Q 431.5 345.5, 444.5 348.4" fill="#01161e" stroke="#01161e" stroke-width="1"></path><path d="M 442.9 345.7 Q 445.2 335.7, 442.9 325.7 L 442.9 325.7 Q 433.1 328.7, 425.6 335.7 L 425.6 335.7 Q 433.1 342.7, 442.9 345.7" fill="#124559" stroke="#01161e" stroke-width="1"></path><path d="M 397.5 275.7 Q 389.5 381.9, 293.6 335.7 Q 389.5 289.5, 397.5 395.7 Q 309.5 335.7, 397.5 275.7" fill="#01161e" stroke="#01161e" stroke-width="1"></path><path d="M 397.5 275.7 Q 387.1 377.7, 293.6 335.7 Q 387.1 293.7, 397.5 395.7 Q 314.4 335.7, 397.5 275.7" fill="#598392" stroke="#01161e" stroke-width="1"></path><path d="M 355.5 348.4 Q 368.5 345.5, 377.6 335.7 L 377.6 335.7 Q 368.5 325.8, 355.5 322.9 L 355.5 322.9 Q 351.5 335.7, 355.5 348.4" fill="#01161e" stroke="#01161e" stroke-width="1"></path><path d="M 357.1 345.7 Q 366.9 342.7, 374.4 335.7 L 374.4 335.7 Q 366.9 328.7, 357.1 325.7 L 357.1 325.7 Q 354.8 335.7, 357.1 345.7" fill="#124559" stroke="#01161e" stroke-width="1"></path><path d="M 395 400 Q 299 446.2, 291.1 340 Q 379.1 400, 291.1 460 Q 299 353.8, 395 400" fill="#01161e" stroke="#01161e" stroke-width="1"></path><path d="M 395 400 Q 301.5 442, 291.1 340 Q 374.2 400, 291.1 460 Q 301.5 358, 395 400" fill="#598392" stroke="#01161e" stroke-width="1"></path><path d="M 311 400 Q 320 409.8, 333.1 412.8 L 333.1 412.8 Q 337.1 400, 333.1 387.2 L 333.1 387.2 Q 320 390.2, 311 400" fill="#01161e" stroke="#01161e" stroke-width="1"></path><path d="M 314.2 400 Q 321.7 407, 331.5 410 L 331.5 410 Q 333.8 400, 331.5 390 L 331.5 390 Q 321.7 393, 314.2 400" fill="#124559" stroke="#01161e" stroke-width="1"></path><path d="M 286.1 717.3 Q 198.1 657.3, 286.1 597.3 Q 278.1 703.5, 182.2 657.3 Q 278.1 611.1, 286.1 717.3" fill="#01161e" stroke="#01161e" stroke-width="1"></path><path d="M 286.1 717.3 Q 202.9 657.3, 286.1 597.3 Q 275.7 699.3, 182.2 657.3 Q 275.7 615.3, 286.1 717.3" fill="#598392" stroke="#01161e" stroke-width="1"></path><path d="M 244.1 644.6 Q 240.1 657.3, 244.1 670.1 L 244.1 670.1 Q 257.1 667.1, 266.2 657.3 L 266.2 657.3 Q 257.1 647.5, 244.1 644.6" fill="#01161e" stroke="#01161e" stroke-width="1"></path><path d="M 245.7 647.3 Q 243.4 657.3, 245.7 667.3 L 245.7 667.3 Q 255.5 664.3, 263 657.3 L 263 657.3 Q 255.5 650.3, 245.7 647.3" fill="#124559" stroke="#01161e" stroke-width="1"></path><path d="M 291.1 717.3 Q 299 611.1, 395 657.3 Q 299 703.5, 291.1 597.3 Q 379.1 657.3, 291.1 717.3" fill="#01161e" stroke="#01161e" stroke-width="1"></path><path d="M 291.1 717.3 Q 301.5 615.3, 395 657.3 Q 301.5 699.3, 291.1 597.3 Q 374.2 657.3, 291.1 717.3" fill="#598392" stroke="#01161e" stroke-width="1"></path><path d="M 333.1 644.6 Q 320 647.5, 311 657.3 L 311 657.3 Q 320 667.1, 333.1 670.1 L 333.1 670.1 Q 337.1 657.3, 333.1 644.6" fill="#01161e" stroke="#01161e" stroke-width="1"></path><path d="M 331.5 647.3 Q 321.7 650.3, 314.2 657.3 L 314.2 657.3 Q 321.7 664.3, 331.5 667.3 L 331.5 667.3 Q 333.8 657.3, 331.5 647.3" fill="#124559" stroke="#01161e" stroke-width="1"></path><path d="M 293.6 593 Q 389.5 546.8, 397.5 653 Q 309.5 593, 397.5 533 Q 389.5 639.2, 293.6 593" fill="#01161e" stroke="#01161e" stroke-width="1"></path><path d="M 293.6 593 Q 387.1 551, 397.5 653 Q 314.4 593, 397.5 533 Q 387.1 635, 293.6 593" fill="#598392" stroke="#01161e" stroke-width="1"></path><path d="M 377.6 593 Q 368.5 583.2, 355.5 580.2 L 355.5 580.2 Q 351.5 593, 355.5 605.7 L 355.5 605.7 Q 368.5 602.8, 377.6 593" fill="#01161e" stroke="#01161e" stroke-width="1"></path><path d="M 374.4 593 Q 366.9 586, 357.1 583 L 357.1 583 Q 354.8 593, 357.1 603 L 357.1 603 Q 366.9 600, 374.4 593" fill="#124559" stroke="#01161e" stroke-width="1"></path><path d="M 291.1 468.7 Q 379.1 528.7, 291.1 588.7 Q 299 482.5, 395 528.7 Q 299 574.9, 291.1 468.7" fill="#01161e" stroke="#01161e" stroke-width="1"></path><path d="M 291.1 468.7 Q 374.2 528.7, 291.1 588.7 Q 301.5 486.7, 395 528.7 Q 301.5 570.7, 291.1 468.7" fill="#598392" stroke="#01161e" stroke-width="1"></path><path d="M 333.1 541.4 Q 337.1 528.7, 333.1 515.9 L 333.1 515.9 Q 320 518.8, 311 528.7 L 311 528.7 Q 320 538.5, 333.1 541.4" fill="#01161e" stroke="#01161e" stroke-width="1"></path><path d="M 331.5 538.7 Q 333.8 528.7, 331.5 518.7 L 331.5 518.7 Q 321.7 521.7, 314.2 528.7 L 314.2 528.7 Q 321.7 535.7, 331.5 538.7" fill="#124559" stroke="#01161e" stroke-width="1"></path><path d="M 286.1 468.7 Q 278.1 574.9, 182.2 528.7 Q 278.1 482.5, 286.1 588.7 Q 198.1 528.7, 286.1 468.7" fill="#01161e" stroke="#01161e" stroke-width="1"></path><path d="M 286.1 468.7 Q 275.7 570.7, 182.2 528.7 Q 275.7 486.7, 286.1 588.7 Q 202.9 528.7, 286.1 468.7" fill="#598392" stroke="#01161e" stroke-width="1"></path><path d="M 244.1 541.4 Q 257.1 538.5, 266.2 528.7 L 266.2 528.7 Q 257.1 518.8, 244.1 515.9 L 244.1 515.9 Q 240.1 528.7, 244.1 541.4" fill="#01161e" stroke="#01161e" stroke-width="1"></path><path d="M 245.7 538.7 Q 255.5 535.7, 263 528.7 L 263 528.7 Q 255.5 521.7, 245.7 518.7 L 245.7 518.7 Q 243.4 528.7, 245.7 538.7" fill="#124559" stroke="#01161e" stroke-width="1"></path><path d="M 283.6 593 Q 187.6 639.2, 179.7 533 Q 267.6 593, 179.7 653 Q 187.6 546.8, 283.6 593" fill="#01161e" stroke="#01161e" stroke-width="1"></path><path d="M 283.6 593 Q 190 635, 179.7 533 Q 262.8 593, 179.7 653 Q 190 551, 283.6 593" fill="#598392" stroke="#01161e" stroke-width="1"></path><path d="M 199.6 593 Q 208.6 602.8, 221.7 605.7 L 221.7 605.7 Q 225.6 593, 221.7 580.2 L 221.7 580.2 Q 208.6 583.2, 199.6 593" fill="#01161e" stroke="#01161e" stroke-width="1"></path><path d="M 202.7 593 Q 210.3 600, 220.1 603 L 220.1 603 Q 222.4 593, 220.1 583 L 220.1 583 Q 210.3 586, 202.7 593" fill="#124559" stroke="#01161e" stroke-width="1"></path><path d="M 508.9 717.3 Q 420.9 657.3, 508.9 597.3 Q 501 703.5, 405 657.3 Q 501 611.1, 508.9 717.3" fill="#01161e" stroke="#01161e" stroke-width="1"></path><path d="M 508.9 717.3 Q 425.8 657.3, 508.9 597.3 Q 498.5 699.3, 405 657.3 Q 498.5 615.3, 508.9 717.3" fill="#598392" stroke="#01161e" stroke-width="1"></path><path d="M 466.9 644.6 Q 462.9 657.3, 466.9 670.1 L 466.9 670.1 Q 480 667.1, 489 657.3 L 489 657.3 Q 480 647.5, 466.9 644.6" fill="#01161e" stroke="#01161e" stroke-width="1"></path><path d="M 468.5 647.3 Q 466.2 657.3, 468.5 667.3 L 468.5 667.3 Q 478.3 664.3, 485.8 657.3 L 485.8 657.3 Q 478.3 650.3, 468.5 647.3" fill="#124559" stroke="#01161e" stroke-width="1"></path><path d="M 513.9 717.3 Q 521.9 611.1, 617.8 657.3 Q 521.9 703.5, 513.9 597.3 Q 601.9 657.3, 513.9 717.3" fill="#01161e" stroke="#01161e" stroke-width="1"></path><path d="M 513.9 717.3 Q 524.3 615.3, 617.8 657.3 Q 524.3 699.3, 513.9 597.3 Q 597.1 657.3, 513.9 717.3" fill="#598392" stroke="#01161e" stroke-width="1"></path><path d="M 555.9 644.6 Q 542.9 647.5, 533.8 657.3 L 533.8 657.3 Q 542.9 667.1, 555.9 670.1 L 555.9 670.1 Q 559.9 657.3, 555.9 644.6" fill="#01161e" stroke="#01161e" stroke-width="1"></path><path d="M 554.3 647.3 Q 544.5 650.3, 537 657.3 L 537 657.3 Q 544.5 664.3, 554.3 667.3 L 554.3 667.3 Q 556.6 657.3, 554.3 647.3" fill="#124559" stroke="#01161e" stroke-width="1"></path><path d="M 516.4 593 Q 612.4 546.8, 620.3 653 Q 532.4 593, 620.3 533 Q 612.4 639.2, 516.4 593" fill="#01161e" stroke="#01161e" stroke-width="1"></path><path d="M 516.4 593 Q 610 551, 620.3 653 Q 537.2 593, 620.3 533 Q 610 635, 516.4 593" fill="#598392" stroke="#01161e" stroke-width="1"></path><path d="M 600.4 593 Q 591.4 583.2, 578.3 580.2 L 578.3 580.2 Q 574.4 593, 578.3 605.7 L 578.3 605.7 Q 591.4 602.8, 600.4 593" fill="#01161e" stroke="#01161e" stroke-width="1"></path><path d="M 597.3 593 Q 589.7 586, 579.9 583 L 579.9 583 Q 577.6 593, 579.9 603 L 579.9 603 Q 589.7 600, 597.3 593" fill="#124559" stroke="#01161e" stroke-width="1"></path><path d="M 513.9 468.7 Q 601.9 528.7, 513.9 588.7 Q 521.9 482.5, 617.8 528.7 Q 521.9 574.9, 513.9 468.7" fill="#01161e" stroke="#01161e" stroke-width="1"></path><path d="M 513.9 468.7 Q 597.1 528.7, 513.9 588.7 Q 524.3 486.7, 617.8 528.7 Q 524.3 570.7, 513.9 468.7" fill="#598392" stroke="#01161e" stroke-width="1"></path><path d="M 555.9 541.4 Q 559.9 528.7, 555.9 515.9 L 555.9 515.9 Q 542.9 518.8, 533.8 528.7 L 533.8 528.7 Q 542.9 538.5, 555.9 541.4" fill="#01161e" stroke="#01161e" stroke-width="1"></path><path d="M 554.3 538.7 Q 556.6 528.7, 554.3 518.7 L 554.3 518.7 Q 544.5 521.7, 537 528.7 L 537 528.7 Q 544.5 535.7, 554.3 538.7" fill="#124559" stroke="#01161e" stroke-width="1"></path><path d="M 508.9 468.7 Q 501 574.9, 405 528.7 Q 501 482.5, 508.9 588.7 Q 420.9 528.7, 508.9 468.7" fill="#01161e" stroke="#01161e" stroke-width="1"></path><path d="M 508.9 468.7 Q 498.5 570.7, 405 528.7 Q 498.5 486.7, 508.9 588.7 Q 425.8 528.7, 508.9 468.7" fill="#598392" stroke="#01161e" stroke-width="1"></path><path d="M 466.9 541.4 Q 480 538.5, 489 528.7 L 489 528.7 Q 480 518.8, 466.9 515.9 L 466.9 515.9 Q 462.9 528.7, 466.9 541.4" fill="#01161e" stroke="#01161e" stroke-width="1"></path><path d="M 468.5 538.7 Q 478.3 535.7, 485.8 528.7 L 485.8 528.7 Q 478.3 521.7, 468.5 518.7 L 468.5 518.7 Q 466.2 528.7, 468.5 538.7" fill="#124559" stroke="#01161e" stroke-width="1"></path><path d="M 506.4 593 Q 410.5 639.2, 402.5 533 Q 490.5 593, 402.5 653 Q 410.5 546.8, 506.4 593" fill="#01161e" stroke="#01161e" stroke-width="1"></path><path d="M 506.4 593 Q 412.9 635, 402.5 533 Q 485.6 593, 402.5 653 Q 412.9 551, 506.4 593" fill="#598392" stroke="#01161e" stroke-width="1"></path><path d="M 422.4 593 Q 431.5 602.8, 444.5 605.7 L 444.5 605.7 Q 448.5 593, 444.5 580.2 L 444.5 580.2 Q 431.5 583.2, 422.4 593" fill="#01161e" stroke="#01161e" stroke-width="1"></path><path d="M 425.6 593 Q 433.1 600, 442.9 603 L 442.9 603 Q 445.2 593, 442.9 583 L 442.9 583 Q 433.1 586, 425.6 593" fill="#124559" stroke="#01161e" stroke-width="1"></path><path d="M 620.3 524.3 Q 532.4 464.3, 620.3 404.3 Q 612.4 510.5, 516.4 464.3 Q 612.4 418.1, 620.3 524.3" fill="#01161e" stroke="#01161e" stroke-width="1"></path><path d="M 620.3 524.3 Q 537.2 464.3, 620.3 404.3 Q 610 506.3, 516.4 464.3 Q 610 422.3, 620.3 524.3" fill="#598392" stroke="#01161e" stroke-width="1"></path><path d="M 578.3 451.6 Q 574.4 464.3, 578.3 477.1 L 578.3 477.1 Q 591.4 474.2, 600.4 464.3 L 600.4 464.3 Q 591.4 454.5, 578.3 451.6" fill="#01161e" stroke="#01161e" stroke-width="1"></path><path d="M 579.9 454.3 Q 577.6 464.3, 579.9 474.3 L 579.9 474.3 Q 589.7 471.3, 597.3 464.3 L 597.3 464.3 Q 589.7 457.3, 579.9 454.3" fill="#124559" stroke="#01161e" stroke-width="1"></path><path d="M 625.3 524.3 Q 633.3 418.1, 729.3 464.3 Q 633.3 510.5, 625.3 404.3 Q 713.3 464.3, 625.3 524.3" fill="#01161e" stroke="#01161e" stroke-width="1"></path><path d="M 625.3 524.3 Q 635.7 422.3, 729.3 464.3 Q 635.7 506.3, 625.3 404.3 Q 708.5 464.3, 625.3 524.3" fill="#598392" stroke="#01161e" stroke-width="1"></path><path d="M 667.4 451.6 Q 654.3 454.5, 645.3 464.3 L 645.3 464.3 Q 654.3 474.2, 667.4 477.1 L 667.4 477.1 Q 671.3 464.3, 667.4 451.6" fill="#01161e" stroke="#01161e" stroke-width="1"></path><path d="M 665.8 454.3 Q 655.9 457.3, 648.4 464.3 L 648.4 464.3 Q 655.9 471.3, 665.8 474.3 L 665.8 474.3 Q 668.1 464.3, 665.8 454.3" fill="#124559" stroke="#01161e" stroke-width="1"></path><path d="M 627.8 400 Q 723.8 353.8, 731.8 460 Q 643.8 400, 731.8 340 Q 723.8 446.2, 627.8 400" fill="#01161e" stroke="#01161e" stroke-width="1"></path><path d="M 627.8 400 Q 721.4 358, 731.8 460 Q 648.6 400, 731.8 340 Q 721.4 442, 627.8 400" fill="#598392" stroke="#01161e" stroke-width="1"></path><path d="M 711.9 400 Q 702.8 390.2, 689.8 387.2 L 689.8 387.2 Q 685.8 400, 689.8 412.8 L 689.8 412.8 Q 702.8 409.8, 711.9 400" fill="#01161e" stroke="#01161e" stroke-width="1"></path><path d="M 708.7 400 Q 701.2 393, 691.4 390 L 691.4 390 Q 689 400, 691.4 410 L 691.4 410 Q 701.2 407, 708.7 400" fill="#124559" stroke="#01161e" stroke-width="1"></path><path d="M 625.3 275.7 Q 713.3 335.7, 625.3 395.7 Q 633.3 289.5, 729.3 335.7 Q 633.3 381.9, 625.3 275.7" fill="#01161e" stroke="#01161e" stroke-width="1"></path><path d="M 625.3 275.7 Q 708.5 335.7, 625.3 395.7 Q 635.7 293.7, 729.3 335.7 Q 635.7 377.7, 625.3 275.7" fill="#598392" stroke="#01161e" stroke-width="1"></path><path d="M 667.4 348.4 Q 671.3 335.7, 667.4 322.9 L 667.4 322.9 Q 654.3 325.8, 645.3 335.7 L 645.3 335.7 Q 654.3 345.5, 667.4 348.4" fill="#01161e" stroke="#01161e" stroke-width="1"></path><path d="M 665.8 345.7 Q 668.1 335.7, 665.8 325.7 L 665.8 325.7 Q 655.9 328.7, 648.4 335.7 L 648.4 335.7 Q 655.9 342.7, 665.8 345.7" fill="#124559" stroke="#01161e" stroke-width="1"></path><path d="M 620.3 275.7 Q 612.4 381.9, 516.4 335.7 Q 612.4 289.5, 620.3 395.7 Q 532.4 335.7, 620.3 275.7" fill="#01161e" stroke="#01161e" stroke-width="1"></path><path d="M 620.3 275.7 Q 610 377.7, 516.4 335.7 Q 610 293.7, 620.3 395.7 Q 537.2 335.7, 620.3 275.7" fill="#598392" stroke="#01161e" stroke-width="1"></path><path d="M 578.3 348.4 Q 591.4 345.5, 600.4 335.7 L 600.4 335.7 Q 591.4 325.8, 578.3 322.9 L 578.3 322.9 Q 574.4 335.7, 578.3 348.4" fill="#01161e" stroke="#01161e" stroke-width="1"></path><path d="M 579.9 345.7 Q 589.7 342.7, 597.3 335.7 L 597.3 335.7 Q 589.7 328.7, 579.9 325.7 L 579.9 325.7 Q 577.6 335.7, 579.9 345.7" fill="#124559" stroke="#01161e" stroke-width="1"></path><path d="M 617.8 400 Q 521.9 446.2, 513.9 340 Q 601.9 400, 513.9 460 Q 521.9 353.8, 617.8 400" fill="#01161e" stroke="#01161e" stroke-width="1"></path><path d="M 617.8 400 Q 524.3 442, 513.9 340 Q 597.1 400, 513.9 460 Q 524.3 358, 617.8 400" fill="#598392" stroke="#01161e" stroke-width="1"></path><path d="M 533.8 400 Q 542.9 409.8, 555.9 412.8 L 555.9 412.8 Q 559.9 400, 555.9 387.2 L 555.9 387.2 Q 542.9 390.2, 533.8 400" fill="#01161e" stroke="#01161e" stroke-width="1"></path><path d="M 537 400 Q 544.5 407, 554.3 410 L 554.3 410 Q 556.6 400, 554.3 390 L 554.3 390 Q 544.5 393, 537 400" fill="#124559" stroke="#01161e" stroke-width="1"></path><path d="M 508.9 331.3 Q 420.9 271.3, 508.9 211.3 Q 501 317.5, 405 271.3 Q 501 225.1, 508.9 331.3" fill="#01161e" stroke="#01161e" stroke-width="1"></path><path d="M 508.9 331.3 Q 425.8 271.3, 508.9 211.3 Q 498.5 313.3, 405 271.3 Q 498.5 229.3, 508.9 331.3" fill="#598392" stroke="#01161e" stroke-width="1"></path><path d="M 466.9 258.6 Q 462.9 271.3, 466.9 284.1 L 466.9 284.1 Q 480 281.2, 489 271.3 L 489 271.3 Q 480 261.5, 466.9 258.6" fill="#01161e" stroke="#01161e" stroke-width="1"></path><path d="M 468.5 261.3 Q 466.2 271.3, 468.5 281.3 L 468.5 281.3 Q 478.3 278.3, 485.8 271.3 L 485.8 271.3 Q 478.3 264.3, 468.5 261.3" fill="#124559" stroke="#01161e" stroke-width="1"></path><path d="M 513.9 331.3 Q 521.9 225.1, 617.8 271.3 Q 521.9 317.5, 513.9 211.3 Q 601.9 271.3, 513.9 331.3" fill="#01161e" stroke="#01161e" stroke-width="1"></path><path d="M 513.9 331.3 Q 524.3 229.3, 617.8 271.3 Q 524.3 313.3, 513.9 211.3 Q 597.1 271.3, 513.9 331.3" fill="#598392" stroke="#01161e" stroke-width="1"></path><path d="M 555.9 258.6 Q 542.9 261.5, 533.8 271.3 L 533.8 271.3 Q 542.9 281.2, 555.9 284.1 L 555.9 284.1 Q 559.9 271.3, 555.9 258.6" fill="#01161e" stroke="#01161e" stroke-width="1"></path><path d="M 554.3 261.3 Q 544.5 264.3, 537 271.3 L 537 271.3 Q 544.5 278.3, 554.3 281.3 L 554.3 281.3 Q 556.6 271.3, 554.3 261.3" fill="#124559" stroke="#01161e" stroke-width="1"></path><path d="M 516.4 207 Q 612.4 160.8, 620.3 267 Q 532.4 207, 620.3 147 Q 612.4 253.2, 516.4 207" fill="#01161e" stroke="#01161e" stroke-width="1"></path><path d="M 516.4 207 Q 610 165, 620.3 267 Q 537.2 207, 620.3 147 Q 610 249, 516.4 207" fill="#598392" stroke="#01161e" stroke-width="1"></path><path d="M 600.4 207 Q 591.4 197.2, 578.3 194.3 L 578.3 194.3 Q 574.4 207, 578.3 219.8 L 578.3 219.8 Q 591.4 216.8, 600.4 207" fill="#01161e" stroke="#01161e" stroke-width="1"></path><path d="M 597.3 207 Q 589.7 200, 579.9 197 L 579.9 197 Q 577.6 207, 579.9 217 L 579.9 217 Q 589.7 214, 597.3 207" fill="#124559" stroke="#01161e" stroke-width="1"></path><path d="M 513.9 82.7 Q 601.9 142.7, 513.9 202.7 Q 521.9 96.5, 617.8 142.7 Q 521.9 188.9, 513.9 82.7" fill="#01161e" stroke="#01161e" stroke-width="1"></path><path d="M 513.9 82.7 Q 597.1 142.7, 513.9 202.7 Q 524.3 100.7, 617.8 142.7 Q 524.3 184.7, 513.9 82.7" fill="#598392" stroke="#01161e" stroke-width="1"></path><path d="M 555.9 155.4 Q 559.9 142.7, 555.9 129.9 L 555.9 129.9 Q 542.9 132.9, 533.8 142.7 L 533.8 142.7 Q 542.9 152.5, 555.9 155.4" fill="#01161e" stroke="#01161e" stroke-width="1"></path><path d="M 554.3 152.7 Q 556.6 142.7, 554.3 132.7 L 554.3 132.7 Q 544.5 135.7, 537 142.7 L 537 142.7 Q 544.5 149.7, 554.3 152.7" fill="#124559" stroke="#01161e" stroke-width="1"></path><path d="M 508.9 82.7 Q 501 188.9, 405 142.7 Q 501 96.5, 508.9 202.7 Q 420.9 142.7, 508.9 82.7" fill="#01161e" stroke="#01161e" stroke-width="1"></path><path d="M 508.9 82.7 Q 498.5 184.7, 405 142.7 Q 498.5 100.7, 508.9 202.7 Q 425.8 142.7, 508.9 82.7" fill="#598392" stroke="#01161e" stroke-width="1"></path><path d="M 466.9 155.4 Q 480 152.5, 489 142.7 L 489 142.7 Q 480 132.9, 466.9 129.9 L 466.9 129.9 Q 462.9 142.7, 466.9 155.4" fill="#01161e" stroke="#01161e" stroke-width="1"></path><path d="M 468.5 152.7 Q 478.3 149.7, 485.8 142.7 L 485.8 142.7 Q 478.3 135.7, 468.5 132.7 L 468.5 132.7 Q 466.2 142.7, 468.5 152.7" fill="#124559" stroke="#01161e" stroke-width="1"></path><path d="M 506.4 207 Q 410.5 253.2, 402.5 147 Q 490.5 207, 402.5 267 Q 410.5 160.8, 506.4 207" fill="#01161e" stroke="#01161e" stroke-width="1"></path><path d="M 506.4 207 Q 412.9 249, 402.5 147 Q 485.6 207, 402.5 267 Q 412.9 165, 506.4 207" fill="#598392" stroke="#01161e" stroke-width="1"></path><path d="M 422.4 207 Q 431.5 216.8, 444.5 219.8 L 444.5 219.8 Q 448.5 207, 444.5 194.3 L 444.5 194.3 Q 431.5 197.2, 422.4 207" fill="#01161e" stroke="#01161e" stroke-width="1"></path><path d="M 425.6 207 Q 433.1 214, 442.9 217 L 442.9 217 Q 445.2 207, 442.9 197 L 442.9 197 Q 433.1 200, 425.6 207" fill="#124559" stroke="#01161e" stroke-width="1"></path><path d="M 286.1 331.3 Q 198.1 271.3, 286.1 211.3 Q 278.1 317.5, 182.2 271.3 Q 278.1 225.1, 286.1 331.3" fill="#01161e" stroke="#01161e" stroke-width="1"></path><path d="M 286.1 331.3 Q 202.9 271.3, 286.1 211.3 Q 275.7 313.3, 182.2 271.3 Q 275.7 229.3, 286.1 331.3" fill="#598392" stroke="#01161e" stroke-width="1"></path><path d="M 244.1 258.6 Q 240.1 271.3, 244.1 284.1 L 244.1 284.1 Q 257.1 281.2, 266.2 271.3 L 266.2 271.3 Q 257.1 261.5, 244.1 258.6" fill="#01161e" stroke="#01161e" stroke-width="1"></path><path d="M 245.7 261.3 Q 243.4 271.3, 245.7 281.3 L 245.7 281.3 Q 255.5 278.3, 263 271.3 L 263 271.3 Q 255.5 264.3, 245.7 261.3" fill="#124559" stroke="#01161e" stroke-width="1"></path><path d="M 291.1 331.3 Q 299 225.1, 395 271.3 Q 299 317.5, 291.1 211.3 Q 379.1 271.3, 291.1 331.3" fill="#01161e" stroke="#01161e" stroke-width="1"></path><path d="M 291.1 331.3 Q 301.5 229.3, 395 271.3 Q 301.5 313.3, 291.1 211.3 Q 374.2 271.3, 291.1 331.3" fill="#598392" stroke="#01161e" stroke-width="1"></path><path d="M 333.1 258.6 Q 320 261.5, 311 271.3 L 311 271.3 Q 320 281.2, 333.1 284.1 L 333.1 284.1 Q 337.1 271.3, 333.1 258.6" fill="#01161e" stroke="#01161e" stroke-width="1"></path><path d="M 331.5 261.3 Q 321.7 264.3, 314.2 271.3 L 314.2 271.3 Q 321.7 278.3, 331.5 281.3 L 331.5 281.3 Q 333.8 271.3, 331.5 261.3" fill="#124559" stroke="#01161e" stroke-width="1"></path><path d="M 293.6 207 Q 389.5 160.8, 397.5 267 Q 309.5 207, 397.5 147 Q 389.5 253.2, 293.6 207" fill="#01161e" stroke="#01161e" stroke-width="1"></path><path d="M 293.6 207 Q 387.1 165, 397.5 267 Q 314.4 207, 397.5 147 Q 387.1 249, 293.6 207" fill="#598392" stroke="#01161e" stroke-width="1"></path><path d="M 377.6 207 Q 368.5 197.2, 355.5 194.3 L 355.5 194.3 Q 351.5 207, 355.5 219.8 L 355.5 219.8 Q 368.5 216.8, 377.6 207" fill="#01161e" stroke="#01161e" stroke-width="1"></path><path d="M 374.4 207 Q 366.9 200, 357.1 197 L 357.1 197 Q 354.8 207, 357.1 217 L 357.1 217 Q 366.9 214, 374.4 207" fill="#124559" stroke="#01161e" stroke-width="1"></path><path d="M 291.1 82.7 Q 379.1 142.7, 291.1 202.7 Q 299 96.5, 395 142.7 Q 299 188.9, 291.1 82.7" fill="#01161e" stroke="#01161e" stroke-width="1"></path><path d="M 291.1 82.7 Q 374.2 142.7, 291.1 202.7 Q 301.5 100.7, 395 142.7 Q 301.5 184.7, 291.1 82.7" fill="#598392" stroke="#01161e" stroke-width="1"></path><path d="M 333.1 155.4 Q 337.1 142.7, 333.1 129.9 L 333.1 129.9 Q 320 132.9, 311 142.7 L 311 142.7 Q 320 152.5, 333.1 155.4" fill="#01161e" stroke="#01161e" stroke-width="1"></path><path d="M 331.5 152.7 Q 333.8 142.7, 331.5 132.7 L 331.5 132.7 Q 321.7 135.7, 314.2 142.7 L 314.2 142.7 Q 321.7 149.7, 331.5 152.7" fill="#124559" stroke="#01161e" stroke-width="1"></path><path d="M 286.1 82.7 Q 278.1 188.9, 182.2 142.7 Q 278.1 96.5, 286.1 202.7 Q 198.1 142.7, 286.1 82.7" fill="#01161e" stroke="#01161e" stroke-width="1"></path><path d="M 286.1 82.7 Q 275.7 184.7, 182.2 142.7 Q 275.7 100.7, 286.1 202.7 Q 202.9 142.7, 286.1 82.7" fill="#598392" stroke="#01161e" stroke-width="1"></path><path d="M 244.1 155.4 Q 257.1 152.5, 266.2 142.7 L 266.2 142.7 Q 257.1 132.9, 244.1 129.9 L 244.1 129.9 Q 240.1 142.7, 244.1 155.4" fill="#01161e" stroke="#01161e" stroke-width="1"></path><path d="M 245.7 152.7 Q 255.5 149.7, 263 142.7 L 263 142.7 Q 255.5 135.7, 245.7 132.7 L 245.7 132.7 Q 243.4 142.7, 245.7 152.7" fill="#124559" stroke="#01161e" stroke-width="1"></path><path d="M 283.6 207 Q 187.6 253.2, 179.7 147 Q 267.6 207, 179.7 267 Q 187.6 160.8, 283.6 207" fill="#01161e" stroke="#01161e" stroke-width="1"></path><path d="M 283.6 207 Q 190 249, 179.7 147 Q 262.8 207, 179.7 267 Q 190 165, 283.6 207" fill="#598392" stroke="#01161e" stroke-width="1"></path><path d="M 199.6 207 Q 208.6 216.8, 221.7 219.8 L 221.7 219.8 Q 225.6 207, 221.7 194.3 L 221.7 194.3 Q 208.6 197.2, 199.6 207" fill="#01161e" stroke="#01161e" stroke-width="1"></path><path d="M 202.7 207 Q 210.3 214, 220.1 217 L 220.1 217 Q 222.4 207, 220.1 197 L 220.1 197 Q 210.3 200, 202.7 207" fill="#124559" stroke="#01161e" stroke-width="1"></path><path d="M 174.7 524.3 Q 86.7 464.3, 174.7 404.3 Q 166.7 510.5, 70.7 464.3 Q 166.7 418.1, 174.7 524.3" fill="#01161e" stroke="#01161e" stroke-width="1"></path><path d="M 174.7 524.3 Q 91.5 464.3, 174.7 404.3 Q 164.3 506.3, 70.7 464.3 Q 164.3 422.3, 174.7 524.3" fill="#598392" stroke="#01161e" stroke-width="1"></path><path d="M 132.6 451.6 Q 128.7 464.3, 132.6 477.1 L 132.6 477.1 Q 145.7 474.2, 154.7 464.3 L 154.7 464.3 Q 145.7 454.5, 132.6 451.6" fill="#01161e" stroke="#01161e" stroke-width="1"></path><path d="M 134.2 454.3 Q 131.9 464.3, 134.2 474.3 L 134.2 474.3 Q 144.1 471.3, 151.6 464.3 L 151.6 464.3 Q 144.1 457.3, 134.2 454.3" fill="#124559" stroke="#01161e" stroke-width="1"></path><path d="M 179.7 524.3 Q 187.6 418.1, 283.6 464.3 Q 187.6 510.5, 179.7 404.3 Q 267.6 464.3, 179.7 524.3" fill="#01161e" stroke="#01161e" stroke-width="1"></path><path d="M 179.7 524.3 Q 190 422.3, 283.6 464.3 Q 190 506.3, 179.7 404.3 Q 262.8 464.3, 179.7 524.3" fill="#598392" stroke="#01161e" stroke-width="1"></path><path d="M 221.7 451.6 Q 208.6 454.5, 199.6 464.3 L 199.6 464.3 Q 208.6 474.2, 221.7 477.1 L 221.7 477.1 Q 225.6 464.3, 221.7 451.6" fill="#01161e" stroke="#01161e" stroke-width="1"></path><path d="M 220.1 454.3 Q 210.3 457.3, 202.7 464.3 L 202.7 464.3 Q 210.3 471.3, 220.1 474.3 L 220.1 474.3 Q 222.4 464.3, 220.1 454.3" fill="#124559" stroke="#01161e" stroke-width="1"></path><path d="M 182.2 400 Q 278.1 353.8, 286.1 460 Q 198.1 400, 286.1 340 Q 278.1 446.2, 182.2 400" fill="#01161e" stroke="#01161e" stroke-width="1"></path><path d="M 182.2 400 Q 275.7 358, 286.1 460 Q 202.9 400, 286.1 340 Q 275.7 442, 182.2 400" fill="#598392" stroke="#01161e" stroke-width="1"></path><path d="M 266.2 400 Q 257.1 390.2, 244.1 387.2 L 244.1 387.2 Q 240.1 400, 244.1 412.8 L 244.1 412.8 Q 257.1 409.8, 266.2 400" fill="#01161e" stroke="#01161e" stroke-width="1"></path><path d="M 263 400 Q 255.5 393, 245.7 390 L 245.7 390 Q 243.4 400, 245.7 410 L 245.7 410 Q 255.5 407, 263 400" fill="#124559" stroke="#01161e" stroke-width="1"></path><path d="M 179.7 275.7 Q 267.6 335.7, 179.7 395.7 Q 187.6 289.5, 283.6 335.7 Q 187.6 381.9, 179.7 275.7" fill="#01161e" stroke="#01161e" stroke-width="1"></path><path d="M 179.7 275.7 Q 262.8 335.7, 179.7 395.7 Q 190 293.7, 283.6 335.7 Q 190 377.7, 179.7 275.7" fill="#598392" stroke="#01161e" stroke-width="1"></path><path d="M 221.7 348.4 Q 225.6 335.7, 221.7 322.9 L 221.7 322.9 Q 208.6 325.8, 199.6 335.7 L 199.6 335.7 Q 208.6 345.5, 221.7 348.4" fill="#01161e" stroke="#01161e" stroke-width="1"></path><path d="M 220.1 345.7 Q 222.4 335.7, 220.1 325.7 L 220.1 325.7 Q 210.3 328.7, 202.7 335.7 L 202.7 335.7 Q 210.3 342.7, 220.1 345.7" fill="#124559" stroke="#01161e" stroke-width="1"></path><path d="M 174.7 275.7 Q 166.7 381.9, 70.7 335.7 Q 166.7 289.5, 174.7 395.7 Q 86.7 335.7, 174.7 275.7" fill="#01161e" stroke="#01161e" stroke-width="1"></path><path d="M 174.7 275.7 Q 164.3 377.7, 70.7 335.7 Q 164.3 293.7, 174.7 395.7 Q 91.5 335.7, 174.7 275.7" fill="#598392" stroke="#01161e" stroke-width="1"></path><path d="M 132.6 348.4 Q 145.7 345.5, 154.7 335.7 L 154.7 335.7 Q 145.7 325.8, 132.6 322.9 L 132.6 322.9 Q 128.7 335.7, 132.6 348.4" fill="#01161e" stroke="#01161e" stroke-width="1"></path><path d="M 134.2 345.7 Q 144.1 342.7, 151.6 335.7 L 151.6 335.7 Q 144.1 328.7, 134.2 325.7 L 134.2 325.7 Q 131.9 335.7, 134.2 345.7" fill="#124559" stroke="#01161e" stroke-width="1"></path><path d="M 172.2 400 Q 76.2 446.2, 68.2 340 Q 156.2 400, 68.2 460 Q 76.2 353.8, 172.2 400" fill="#01161e" stroke="#01161e" stroke-width="1"></path><path d="M 172.2 400 Q 78.6 442, 68.2 340 Q 151.4 400, 68.2 460 Q 78.6 358, 172.2 400" fill="#598392" stroke="#01161e" stroke-width="1"></path><path d="M 88.1 400 Q 97.2 409.8, 110.2 412.8 L 110.2 412.8 Q 114.2 400, 110.2 387.2 L 110.2 387.2 Q 97.2 390.2, 88.1 400" fill="#01161e" stroke="#01161e" stroke-width="1"></path><path d="M 91.3 400 Q 98.8 407, 108.6 410 L 108.6 410 Q 111 400, 108.6 390 L 108.6 390 Q 98.8 393, 91.3 400" fill="#124559" stroke="#01161e" stroke-width="1"></path><path d="M 174.7 910.3 Q 86.7 850.3, 174.7 790.3 Q 166.7 896.5, 70.7 850.3 Q 166.7 804.1, 174.7 910.3" fill="#01161e" stroke="#01161e" stroke-width="1"></path><path d="M 174.7 910.3 Q 91.5 850.3, 174.7 790.3 Q 164.3 892.3, 70.7 850.3 Q 164.3 808.3, 174.7 910.3" fill="#598392" stroke="#01161e" stroke-width="1"></path><path d="M 132.6 837.6 Q 128.7 850.3, 132.6 863.1 L 132.6 863.1 Q 145.7 860.1, 154.7 850.3 L 154.7 850.3 Q 145.7 840.5, 132.6 837.6" fill="#01161e" stroke="#01161e" stroke-width="1"></path><path d="M 134.2 840.3 Q 131.9 850.3, 134.2 860.3 L 134.2 860.3 Q 144.1 857.3, 151.6 850.3 L 151.6 850.3 Q 144.1 843.3, 134.2 840.3" fill="#124559" stroke="#01161e" stroke-width="1"></path><path d="M 179.7 910.3 Q 187.6 804.1, 283.6 850.3 Q 187.6 896.5, 179.7 790.3 Q 267.6 850.3, 179.7 910.3" fill="#01161e" stroke="#01161e" stroke-width="1"></path><path d="M 179.7 910.3 Q 190 808.3, 283.6 850.3 Q 190 892.3, 179.7 790.3 Q 262.8 850.3, 179.7 910.3" fill="#598392" stroke="#01161e" stroke-width="1"></path><path d="M 221.7 837.6 Q 208.6 840.5, 199.6 850.3 L 199.6 850.3 Q 208.6 860.1, 221.7 863.1 L 221.7 863.1 Q 225.6 850.3, 221.7 837.6" fill="#01161e" stroke="#01161e" stroke-width="1"></path><path d="M 220.1 840.3 Q 210.3 843.3, 202.7 850.3 L 202.7 850.3 Q 210.3 857.3, 220.1 860.3 L 220.1 860.3 Q 222.4 850.3, 220.1 840.3" fill="#124559" stroke="#01161e" stroke-width="1"></path><path d="M 182.2 786 Q 278.1 739.8, 286.1 846 Q 198.1 786, 286.1 726 Q 278.1 832.2, 182.2 786" fill="#01161e" stroke="#01161e" stroke-width="1"></path><path d="M 182.2 786 Q 275.7 744, 286.1 846 Q 202.9 786, 286.1 726 Q 275.7 828, 182.2 786" fill="#598392" stroke="#01161e" stroke-width="1"></path><path d="M 266.2 786 Q 257.1 776.2, 244.1 773.2 L 244.1 773.2 Q 240.1 786, 244.1 798.7 L 244.1 798.7 Q 257.1 795.8, 266.2 786" fill="#01161e" stroke="#01161e" stroke-width="1"></path><path d="M 263 786 Q 255.5 779, 245.7 776 L 245.7 776 Q 243.4 786, 245.7 796 L 245.7 796 Q 255.5 793, 263 786" fill="#124559" stroke="#01161e" stroke-width="1"></path><path d="M 179.7 661.7 Q 267.6 721.7, 179.7 781.7 Q 187.6 675.5, 283.6 721.7 Q 187.6 767.9, 179.7 661.7" fill="#01161e" stroke="#01161e" stroke-width="1"></path><path d="M 179.7 661.7 Q 262.8 721.7, 179.7 781.7 Q 190 679.7, 283.6 721.7 Q 190 763.7, 179.7 661.7" fill="#598392" stroke="#01161e" stroke-width="1"></path><path d="M 221.7 734.4 Q 225.6 721.7, 221.7 708.9 L 221.7 708.9 Q 208.6 711.8, 199.6 721.7 L 199.6 721.7 Q 208.6 731.5, 221.7 734.4" fill="#01161e" stroke="#01161e" stroke-width="1"></path><path d="M 220.1 731.7 Q 222.4 721.7, 220.1 711.7 L 220.1 711.7 Q 210.3 714.7, 202.7 721.7 L 202.7 721.7 Q 210.3 728.7, 220.1 731.7" fill="#124559" stroke="#01161e" stroke-width="1"></path><path d="M 174.7 661.7 Q 166.7 767.9, 70.7 721.7 Q 166.7 675.5, 174.7 781.7 Q 86.7 721.7, 174.7 661.7" fill="#01161e" stroke="#01161e" stroke-width="1"></path><path d="M 174.7 661.7 Q 164.3 763.7, 70.7 721.7 Q 164.3 679.7, 174.7 781.7 Q 91.5 721.7, 174.7 661.7" fill="#598392" stroke="#01161e" stroke-width="1"></path><path d="M 132.6 734.4 Q 145.7 731.5, 154.7 721.7 L 154.7 721.7 Q 145.7 711.8, 132.6 708.9 L 132.6 708.9 Q 128.7 721.7, 132.6 734.4" fill="#01161e" stroke="#01161e" stroke-width="1"></path><path d="M 134.2 731.7 Q 144.1 728.7, 151.6 721.7 L 151.6 721.7 Q 144.1 714.7, 134.2 711.7 L 134.2 711.7 Q 131.9 721.7, 134.2 731.7" fill="#124559" stroke="#01161e" stroke-width="1"></path><path d="M 172.2 786 Q 76.2 832.2, 68.2 726 Q 156.2 786, 68.2 846 Q 76.2 739.8, 172.2 786" fill="#01161e" stroke="#01161e" stroke-width="1"></path><path d="M 172.2 786 Q 78.6 828, 68.2 726 Q 151.4 786, 68.2 846 Q 78.6 744, 172.2 786" fill="#598392" stroke="#01161e" stroke-width="1"></path><path d="M 88.1 786 Q 97.2 795.8, 110.2 798.7 L 110.2 798.7 Q 114.2 786, 110.2 773.2 L 110.2 773.2 Q 97.2 776.2, 88.1 786" fill="#01161e" stroke="#01161e" stroke-width="1"></path><path d="M 91.3 786 Q 98.8 793, 108.6 796 L 108.6 796 Q 111 786, 108.6 776 L 108.6 776 Q 98.8 779, 91.3 786" fill="#124559" stroke="#01161e" stroke-width="1"></path><path d="M 397.5 910.3 Q 309.5 850.3, 397.5 790.3 Q 389.5 896.5, 293.6 850.3 Q 389.5 804.1, 397.5 910.3" fill="#01161e" stroke="#01161e" stroke-width="1"></path><path d="M 397.5 910.3 Q 314.4 850.3, 397.5 790.3 Q 387.1 892.3, 293.6 850.3 Q 387.1 808.3, 397.5 910.3" fill="#598392" stroke="#01161e" stroke-width="1"></path><path d="M 355.5 837.6 Q 351.5 850.3, 355.5 863.1 L 355.5 863.1 Q 368.5 860.1, 377.6 850.3 L 377.6 850.3 Q 368.5 840.5, 355.5 837.6" fill="#01161e" stroke="#01161e" stroke-width="1"></path><path d="M 357.1 840.3 Q 354.8 850.3, 357.1 860.3 L 357.1 860.3 Q 366.9 857.3, 374.4 850.3 L 374.4 850.3 Q 366.9 843.3, 357.1 840.3" fill="#124559" stroke="#01161e" stroke-width="1"></path><path d="M 402.5 910.3 Q 410.5 804.1, 506.4 850.3 Q 410.5 896.5, 402.5 790.3 Q 490.5 850.3, 402.5 910.3" fill="#01161e" stroke="#01161e" stroke-width="1"></path><path d="M 402.5 910.3 Q 412.9 808.3, 506.4 850.3 Q 412.9 892.3, 402.5 790.3 Q 485.6 850.3, 402.5 910.3" fill="#598392" stroke="#01161e" stroke-width="1"></path><path d="M 444.5 837.6 Q 431.5 840.5, 422.4 850.3 L 422.4 850.3 Q 431.5 860.1, 444.5 863.1 L 444.5 863.1 Q 448.5 850.3, 444.5 837.6" fill="#01161e" stroke="#01161e" stroke-width="1"></path><path d="M 442.9 840.3 Q 433.1 843.3, 425.6 850.3 L 425.6 850.3 Q 433.1 857.3, 442.9 860.3 L 442.9 860.3 Q 445.2 850.3, 442.9 840.3" fill="#124559" stroke="#01161e" stroke-width="1"></path><path d="M 405 786 Q 501 739.8, 508.9 846 Q 420.9 786, 508.9 726 Q 501 832.2, 405 786" fill="#01161e" stroke="#01161e" stroke-width="1"></path><path d="M 405 786 Q 498.5 744, 508.9 846 Q 425.8 786, 508.9 726 Q 498.5 828, 405 786" fill="#598392" stroke="#01161e" stroke-width="1"></path><path d="M 489 786 Q 480 776.2, 466.9 773.2 L 466.9 773.2 Q 462.9 786, 466.9 798.7 L 466.9 798.7 Q 480 795.8, 489 786" fill="#01161e" stroke="#01161e" stroke-width="1"></path><path d="M 485.8 786 Q 478.3 779, 468.5 776 L 468.5 776 Q 466.2 786, 468.5 796 L 468.5 796 Q 478.3 793, 485.8 786" fill="#124559" stroke="#01161e" stroke-width="1"></path><path d="M 402.5 661.7 Q 490.5 721.7, 402.5 781.7 Q 410.5 675.5, 506.4 721.7 Q 410.5 767.9, 402.5 661.7" fill="#01161e" stroke="#01161e" stroke-width="1"></path><path d="M 402.5 661.7 Q 485.6 721.7, 402.5 781.7 Q 412.9 679.7, 506.4 721.7 Q 412.9 763.7, 402.5 661.7" fill="#598392" stroke="#01161e" stroke-width="1"></path><path d="M 444.5 734.4 Q 448.5 721.7, 444.5 708.9 L 444.5 708.9 Q 431.5 711.8, 422.4 721.7 L 422.4 721.7 Q 431.5 731.5, 444.5 734.4" fill="#01161e" stroke="#01161e" stroke-width="1"></path><path d="M 442.9 731.7 Q 445.2 721.7, 442.9 711.7 L 442.9 711.7 Q 433.1 714.7, 425.6 721.7 L 425.6 721.7 Q 433.1 728.7, 442.9 731.7" fill="#124559" stroke="#01161e" stroke-width="1"></path><path d="M 397.5 661.7 Q 389.5 767.9, 293.6 721.7 Q 389.5 675.5, 397.5 781.7 Q 309.5 721.7, 397.5 661.7" fill="#01161e" stroke="#01161e" stroke-width="1"></path><path d="M 397.5 661.7 Q 387.1 763.7, 293.6 721.7 Q 387.1 679.7, 397.5 781.7 Q 314.4 721.7, 397.5 661.7" fill="#598392" stroke="#01161e" stroke-width="1"></path><path d="M 355.5 734.4 Q 368.5 731.5, 377.6 721.7 L 377.6 721.7 Q 368.5 711.8, 355.5 708.9 L 355.5 708.9 Q 351.5 721.7, 355.5 734.4" fill="#01161e" stroke="#01161e" stroke-width="1"></path><path d="M 357.1 731.7 Q 366.9 728.7, 374.4 721.7 L 374.4 721.7 Q 366.9 714.7, 357.1 711.7 L 357.1 711.7 Q 354.8 721.7, 357.1 731.7" fill="#124559" stroke="#01161e" stroke-width="1"></path><path d="M 395 786 Q 299 832.2, 291.1 726 Q 379.1 786, 291.1 846 Q 299 739.8, 395 786" fill="#01161e" stroke="#01161e" stroke-width="1"></path><path d="M 395 786 Q 301.5 828, 291.1 726 Q 374.2 786, 291.1 846 Q 301.5 744, 395 786" fill="#598392" stroke="#01161e" stroke-width="1"></path><path d="M 311 786 Q 320 795.8, 333.1 798.7 L 333.1 798.7 Q 337.1 786, 333.1 773.2 L 333.1 773.2 Q 320 776.2, 311 786" fill="#01161e" stroke="#01161e" stroke-width="1"></path><path d="M 314.2 786 Q 321.7 793, 331.5 796 L 331.5 796 Q 333.8 786, 331.5 776 L 331.5 776 Q 321.7 779, 314.2 786" fill="#124559" stroke="#01161e" stroke-width="1"></path><path d="M 620.3 910.3 Q 532.4 850.3, 620.3 790.3 Q 612.4 896.5, 516.4 850.3 Q 612.4 804.1, 620.3 910.3" fill="#01161e" stroke="#01161e" stroke-width="1"></path><path d="M 620.3 910.3 Q 537.2 850.3, 620.3 790.3 Q 610 892.3, 516.4 850.3 Q 610 808.3, 620.3 910.3" fill="#598392" stroke="#01161e" stroke-width="1"></path><path d="M 578.3 837.6 Q 574.4 850.3, 578.3 863.1 L 578.3 863.1 Q 591.4 860.1, 600.4 850.3 L 600.4 850.3 Q 591.4 840.5, 578.3 837.6" fill="#01161e" stroke="#01161e" stroke-width="1"></path><path d="M 579.9 840.3 Q 577.6 850.3, 579.9 860.3 L 579.9 860.3 Q 589.7 857.3, 597.3 850.3 L 597.3 850.3 Q 589.7 843.3, 579.9 840.3" fill="#124559" stroke="#01161e" stroke-width="1"></path><path d="M 625.3 910.3 Q 633.3 804.1, 729.3 850.3 Q 633.3 896.5, 625.3 790.3 Q 713.3 850.3, 625.3 910.3" fill="#01161e" stroke="#01161e" stroke-width="1"></path><path d="M 625.3 910.3 Q 635.7 808.3, 729.3 850.3 Q 635.7 892.3, 625.3 790.3 Q 708.5 850.3, 625.3 910.3" fill="#598392" stroke="#01161e" stroke-width="1"></path><path d="M 667.4 837.6 Q 654.3 840.5, 645.3 850.3 L 645.3 850.3 Q 654.3 860.1, 667.4 863.1 L 667.4 863.1 Q 671.3 850.3, 667.4 837.6" fill="#01161e" stroke="#01161e" stroke-width="1"></path><path d="M 665.8 840.3 Q 655.9 843.3, 648.4 850.3 L 648.4 850.3 Q 655.9 857.3, 665.8 860.3 L 665.8 860.3 Q 668.1 850.3, 665.8 840.3" fill="#124559" stroke="#01161e" stroke-width="1"></path><path d="M 627.8 786 Q 723.8 739.8, 731.8 846 Q 643.8 786, 731.8 726 Q 723.8 832.2, 627.8 786" fill="#01161e" stroke="#01161e" stroke-width="1"></path><path d="M 627.8 786 Q 721.4 744, 731.8 846 Q 648.6 786, 731.8 726 Q 721.4 828, 627.8 786" fill="#598392" stroke="#01161e" stroke-width="1"></path><path d="M 711.9 786 Q 702.8 776.2, 689.8 773.2 L 689.8 773.2 Q 685.8 786, 689.8 798.7 L 689.8 798.7 Q 702.8 795.8, 711.9 786" fill="#01161e" stroke="#01161e" stroke-width="1"></path><path d="M 708.7 786 Q 701.2 779, 691.4 776 L 691.4 776 Q 689 786, 691.4 796 L 691.4 796 Q 701.2 793, 708.7 786" fill="#124559" stroke="#01161e" stroke-width="1"></path><path d="M 625.3 661.7 Q 713.3 721.7, 625.3 781.7 Q 633.3 675.5, 729.3 721.7 Q 633.3 767.9, 625.3 661.7" fill="#01161e" stroke="#01161e" stroke-width="1"></path><path d="M 625.3 661.7 Q 708.5 721.7, 625.3 781.7 Q 635.7 679.7, 729.3 721.7 Q 635.7 763.7, 625.3 661.7" fill="#598392" stroke="#01161e" stroke-width="1"></path><path d="M 667.4 734.4 Q 671.3 721.7, 667.4 708.9 L 667.4 708.9 Q 654.3 711.8, 645.3 721.7 L 645.3 721.7 Q 654.3 731.5, 667.4 734.4" fill="#01161e" stroke="#01161e" stroke-width="1"></path><path d="M 665.8 731.7 Q 668.1 721.7, 665.8 711.7 L 665.8 711.7 Q 655.9 714.7, 648.4 721.7 L 648.4 721.7 Q 655.9 728.7, 665.8 731.7" fill="#124559" stroke="#01161e" stroke-width="1"></path><path d="M 620.3 661.7 Q 612.4 767.9, 516.4 721.7 Q 612.4 675.5, 620.3 781.7 Q 532.4 721.7, 620.3 661.7" fill="#01161e" stroke="#01161e" stroke-width="1"></path><path d="M 620.3 661.7 Q 610 763.7, 516.4 721.7 Q 610 679.7, 620.3 781.7 Q 537.2 721.7, 620.3 661.7" fill="#598392" stroke="#01161e" stroke-width="1"></path><path d="M 578.3 734.4 Q 591.4 731.5, 600.4 721.7 L 600.4 721.7 Q 591.4 711.8, 578.3 708.9 L 578.3 708.9 Q 574.4 721.7, 578.3 734.4" fill="#01161e" stroke="#01161e" stroke-width="1"></path><path d="M 579.9 731.7 Q 589.7 728.7, 597.3 721.7 L 597.3 721.7 Q 589.7 714.7, 579.9 711.7 L 579.9 711.7 Q 577.6 721.7, 579.9 731.7" fill="#124559" stroke="#01161e" stroke-width="1"></path><path d="M 617.8 786 Q 521.9 832.2, 513.9 726 Q 601.9 786, 513.9 846 Q 521.9 739.8, 617.8 786" fill="#01161e" stroke="#01161e" stroke-width="1"></path><path d="M 617.8 786 Q 524.3 828, 513.9 726 Q 597.1 786, 513.9 846 Q 524.3 744, 617.8 786" fill="#598392" stroke="#01161e" stroke-width="1"></path><path d="M 533.8 786 Q 542.9 795.8, 555.9 798.7 L 555.9 798.7 Q 559.9 786, 555.9 773.2 L 555.9 773.2 Q 542.9 776.2, 533.8 786" fill="#01161e" stroke="#01161e" stroke-width="1"></path><path d="M 537 786 Q 544.5 793, 554.3 796 L 554.3 796 Q 556.6 786, 554.3 776 L 554.3 776 Q 544.5 779, 537 786" fill="#124559" stroke="#01161e" stroke-width="1"></path><path d="M 731.8 717.3 Q 643.8 657.3, 731.8 597.3 Q 723.8 703.5, 627.8 657.3 Q 723.8 611.1, 731.8 717.3" fill="#01161e" stroke="#01161e" stroke-width="1"></path><path d="M 731.8 717.3 Q 648.6 657.3, 731.8 597.3 Q 721.4 699.3, 627.8 657.3 Q 721.4 615.3, 731.8 717.3" fill="#598392" stroke="#01161e" stroke-width="1"></path><path d="M 689.8 644.6 Q 685.8 657.3, 689.8 670.1 L 689.8 670.1 Q 702.8 667.1, 711.9 657.3 L 711.9 657.3 Q 702.8 647.5, 689.8 644.6" fill="#01161e" stroke="#01161e" stroke-width="1"></path><path d="M 691.4 647.3 Q 689 657.3, 691.4 667.3 L 691.4 667.3 Q 701.2 664.3, 708.7 657.3 L 708.7 657.3 Q 701.2 650.3, 691.4 647.3" fill="#124559" stroke="#01161e" stroke-width="1"></path><path d="M 736.8 717.3 Q 744.7 611.1, 840.7 657.3 Q 744.7 703.5, 736.8 597.3 Q 824.8 657.3, 736.8 717.3" fill="#01161e" stroke="#01161e" stroke-width="1"></path><path d="M 736.8 717.3 Q 747.2 615.3, 840.7 657.3 Q 747.2 699.3, 736.8 597.3 Q 819.9 657.3, 736.8 717.3" fill="#598392" stroke="#01161e" stroke-width="1"></path><path d="M 778.8 644.6 Q 765.7 647.5, 756.7 657.3 L 756.7 657.3 Q 765.7 667.1, 778.8 670.1 L 778.8 670.1 Q 782.8 657.3, 778.8 644.6" fill="#01161e" stroke="#01161e" stroke-width="1"></path><path d="M 777.2 647.3 Q 767.4 650.3, 759.9 657.3 L 759.9 657.3 Q 767.4 664.3, 777.2 667.3 L 777.2 667.3 Q 779.5 657.3, 777.2 647.3" fill="#124559" stroke="#01161e" stroke-width="1"></path><path d="M 739.3 593 Q 835.2 546.8, 843.2 653 Q 755.2 593, 843.2 533 Q 835.2 639.2, 739.3 593" fill="#01161e" stroke="#01161e" stroke-width="1"></path><path d="M 739.3 593 Q 832.8 551, 843.2 653 Q 760.1 593, 843.2 533 Q 832.8 635, 739.3 593" fill="#598392" stroke="#01161e" stroke-width="1"></path><path d="M 823.3 593 Q 814.2 583.2, 801.2 580.2 L 801.2 580.2 Q 797.2 593, 801.2 605.7 L 801.2 605.7 Q 814.2 602.8, 823.3 593" fill="#01161e" stroke="#01161e" stroke-width="1"></path><path d="M 820.1 593 Q 812.6 586, 802.8 583 L 802.8 583 Q 800.5 593, 802.8 603 L 802.8 603 Q 812.6 600, 820.1 593" fill="#124559" stroke="#01161e" stroke-width="1"></path><path d="M 736.8 468.7 Q 824.8 528.7, 736.8 588.7 Q 744.7 482.5, 840.7 528.7 Q 744.7 574.9, 736.8 468.7" fill="#01161e" stroke="#01161e" stroke-width="1"></path><path d="M 736.8 468.7 Q 819.9 528.7, 736.8 588.7 Q 747.2 486.7, 840.7 528.7 Q 747.2 570.7, 736.8 468.7" fill="#598392" stroke="#01161e" stroke-width="1"></path><path d="M 778.8 541.4 Q 782.8 528.7, 778.8 515.9 L 778.8 515.9 Q 765.7 518.8, 756.7 528.7 L 756.7 528.7 Q 765.7 538.5, 778.8 541.4" fill="#01161e" stroke="#01161e" stroke-width="1"></path><path d="M 777.2 538.7 Q 779.5 528.7, 777.2 518.7 L 777.2 518.7 Q 767.4 521.7, 759.9 528.7 L 759.9 528.7 Q 767.4 535.7, 777.2 538.7" fill="#124559" stroke="#01161e" stroke-width="1"></path><path d="M 731.8 468.7 Q 723.8 574.9, 627.8 528.7 Q 723.8 482.5, 731.8 588.7 Q 643.8 528.7, 731.8 468.7" fill="#01161e" stroke="#01161e" stroke-width="1"></path><path d="M 731.8 468.7 Q 721.4 570.7, 627.8 528.7 Q 721.4 486.7, 731.8 588.7 Q 648.6 528.7, 731.8 468.7" fill="#598392" stroke="#01161e" stroke-width="1"></path><path d="M 689.8 541.4 Q 702.8 538.5, 711.9 528.7 L 711.9 528.7 Q 702.8 518.8, 689.8 515.9 L 689.8 515.9 Q 685.8 528.7, 689.8 541.4" fill="#01161e" stroke="#01161e" stroke-width="1"></path><path d="M 691.4 538.7 Q 701.2 535.7, 708.7 528.7 L 708.7 528.7 Q 701.2 521.7, 691.4 518.7 L 691.4 518.7 Q 689 528.7, 691.4 538.7" fill="#124559" stroke="#01161e" stroke-width="1"></path><path d="M 729.3 593 Q 633.3 639.2, 625.3 533 Q 713.3 593, 625.3 653 Q 633.3 546.8, 729.3 593" fill="#01161e" stroke="#01161e" stroke-width="1"></path><path d="M 729.3 593 Q 635.7 635, 625.3 533 Q 708.5 593, 625.3 653 Q 635.7 551, 729.3 593" fill="#598392" stroke="#01161e" stroke-width="1"></path><path d="M 645.3 593 Q 654.3 602.8, 667.4 605.7 L 667.4 605.7 Q 671.3 593, 667.4 580.2 L 667.4 580.2 Q 654.3 583.2, 645.3 593" fill="#01161e" stroke="#01161e" stroke-width="1"></path><path d="M 648.4 593 Q 655.9 600, 665.8 603 L 665.8 603 Q 668.1 593, 665.8 583 L 665.8 583 Q 655.9 586, 648.4 593" fill="#124559" stroke="#01161e" stroke-width="1"></path><path d="M 843.2 524.3 Q 755.2 464.3, 843.2 404.3 Q 835.2 510.5, 739.3 464.3 Q 835.2 418.1, 843.2 524.3" fill="#01161e" stroke="#01161e" stroke-width="1"></path><path d="M 843.2 524.3 Q 760.1 464.3, 843.2 404.3 Q 832.8 506.3, 739.3 464.3 Q 832.8 422.3, 843.2 524.3" fill="#598392" stroke="#01161e" stroke-width="1"></path><path d="M 801.2 451.6 Q 797.2 464.3, 801.2 477.1 L 801.2 477.1 Q 814.2 474.2, 823.3 464.3 L 823.3 464.3 Q 814.2 454.5, 801.2 451.6" fill="#01161e" stroke="#01161e" stroke-width="1"></path><path d="M 802.8 454.3 Q 800.5 464.3, 802.8 474.3 L 802.8 474.3 Q 812.6 471.3, 820.1 464.3 L 820.1 464.3 Q 812.6 457.3, 802.8 454.3" fill="#124559" stroke="#01161e" stroke-width="1"></path><path d="M 848.2 524.3 Q 856.2 418.1, 952.1 464.3 Q 856.2 510.5, 848.2 404.3 Q 936.2 464.3, 848.2 524.3" fill="#01161e" stroke="#01161e" stroke-width="1"></path><path d="M 848.2 524.3 Q 858.6 422.3, 952.1 464.3 Q 858.6 506.3, 848.2 404.3 Q 931.3 464.3, 848.2 524.3" fill="#598392" stroke="#01161e" stroke-width="1"></path><path d="M 890.2 451.6 Q 877.2 454.5, 868.1 464.3 L 868.1 464.3 Q 877.2 474.2, 890.2 477.1 L 890.2 477.1 Q 894.2 464.3, 890.2 451.6" fill="#01161e" stroke="#01161e" stroke-width="1"></path><path d="M 888.6 454.3 Q 878.8 457.3, 871.3 464.3 L 871.3 464.3 Q 878.8 471.3, 888.6 474.3 L 888.6 474.3 Q 890.9 464.3, 888.6 454.3" fill="#124559" stroke="#01161e" stroke-width="1"></path><path d="M 850.7 400 Q 946.6 353.8, 954.6 460 Q 866.6 400, 954.6 340 Q 946.6 446.2, 850.7 400" fill="#01161e" stroke="#01161e" stroke-width="1"></path><path d="M 850.7 400 Q 944.2 358, 954.6 460 Q 871.5 400, 954.6 340 Q 944.2 442, 850.7 400" fill="#598392" stroke="#01161e" stroke-width="1"></path><path d="M 934.7 400 Q 925.6 390.2, 912.6 387.2 L 912.6 387.2 Q 908.6 400, 912.6 412.8 L 912.6 412.8 Q 925.6 409.8, 934.7 400" fill="#01161e" stroke="#01161e" stroke-width="1"></path><path d="M 931.5 400 Q 924 393, 914.2 390 L 914.2 390 Q 911.9 400, 914.2 410 L 914.2 410 Q 924 407, 931.5 400" fill="#124559" stroke="#01161e" stroke-width="1"></path><path d="M 848.2 275.7 Q 936.2 335.7, 848.2 395.7 Q 856.2 289.5, 952.1 335.7 Q 856.2 381.9, 848.2 275.7" fill="#01161e" stroke="#01161e" stroke-width="1"></path><path d="M 848.2 275.7 Q 931.3 335.7, 848.2 395.7 Q 858.6 293.7, 952.1 335.7 Q 858.6 377.7, 848.2 275.7" fill="#598392" stroke="#01161e" stroke-width="1"></path><path d="M 890.2 348.4 Q 894.2 335.7, 890.2 322.9 L 890.2 322.9 Q 877.2 325.8, 868.1 335.7 L 868.1 335.7 Q 877.2 345.5, 890.2 348.4" fill="#01161e" stroke="#01161e" stroke-width="1"></path><path d="M 888.6 345.7 Q 890.9 335.7, 888.6 325.7 L 888.6 325.7 Q 878.8 328.7, 871.3 335.7 L 871.3 335.7 Q 878.8 342.7, 888.6 345.7" fill="#124559" stroke="#01161e" stroke-width="1"></path><path d="M 843.2 275.7 Q 835.2 381.9, 739.3 335.7 Q 835.2 289.5, 843.2 395.7 Q 755.2 335.7, 843.2 275.7" fill="#01161e" stroke="#01161e" stroke-width="1"></path><path d="M 843.2 275.7 Q 832.8 377.7, 739.3 335.7 Q 832.8 293.7, 843.2 395.7 Q 760.1 335.7, 843.2 275.7" fill="#598392" stroke="#01161e" stroke-width="1"></path><path d="M 801.2 348.4 Q 814.2 345.5, 823.3 335.7 L 823.3 335.7 Q 814.2 325.8, 801.2 322.9 L 801.2 322.9 Q 797.2 335.7, 801.2 348.4" fill="#01161e" stroke="#01161e" stroke-width="1"></path><path d="M 802.8 345.7 Q 812.6 342.7, 820.1 335.7 L 820.1 335.7 Q 812.6 328.7, 802.8 325.7 L 802.8 325.7 Q 800.5 335.7, 802.8 345.7" fill="#124559" stroke="#01161e" stroke-width="1"></path><path d="M 840.7 400 Q 744.7 446.2, 736.8 340 Q 824.8 400, 736.8 460 Q 744.7 353.8, 840.7 400" fill="#01161e" stroke="#01161e" stroke-width="1"></path><path d="M 840.7 400 Q 747.2 442, 736.8 340 Q 819.9 400, 736.8 460 Q 747.2 358, 840.7 400" fill="#598392" stroke="#01161e" stroke-width="1"></path><path d="M 756.7 400 Q 765.7 409.8, 778.8 412.8 L 778.8 412.8 Q 782.8 400, 778.8 387.2 L 778.8 387.2 Q 765.7 390.2, 756.7 400" fill="#01161e" stroke="#01161e" stroke-width="1"></path><path d="M 759.9 400 Q 767.4 407, 777.2 410 L 777.2 410 Q 779.5 400, 777.2 390 L 777.2 390 Q 767.4 393, 759.9 400" fill="#124559" stroke="#01161e" stroke-width="1"></path><path d="M 731.8 331.3 Q 643.8 271.3, 731.8 211.3 Q 723.8 317.5, 627.8 271.3 Q 723.8 225.1, 731.8 331.3" fill="#01161e" stroke="#01161e" stroke-width="1"></path><path d="M 731.8 331.3 Q 648.6 271.3, 731.8 211.3 Q 721.4 313.3, 627.8 271.3 Q 721.4 229.3, 731.8 331.3" fill="#598392" stroke="#01161e" stroke-width="1"></path><path d="M 689.8 258.6 Q 685.8 271.3, 689.8 284.1 L 689.8 284.1 Q 702.8 281.2, 711.9 271.3 L 711.9 271.3 Q 702.8 261.5, 689.8 258.6" fill="#01161e" stroke="#01161e" stroke-width="1"></path><path d="M 691.4 261.3 Q 689 271.3, 691.4 281.3 L 691.4 281.3 Q 701.2 278.3, 708.7 271.3 L 708.7 271.3 Q 701.2 264.3, 691.4 261.3" fill="#124559" stroke="#01161e" stroke-width="1"></path><path d="M 736.8 331.3 Q 744.7 225.1, 840.7 271.3 Q 744.7 317.5, 736.8 211.3 Q 824.8 271.3, 736.8 331.3" fill="#01161e" stroke="#01161e" stroke-width="1"></path><path d="M 736.8 331.3 Q 747.2 229.3, 840.7 271.3 Q 747.2 313.3, 736.8 211.3 Q 819.9 271.3, 736.8 331.3" fill="#598392" stroke="#01161e" stroke-width="1"></path><path d="M 778.8 258.6 Q 765.7 261.5, 756.7 271.3 L 756.7 271.3 Q 765.7 281.2, 778.8 284.1 L 778.8 284.1 Q 782.8 271.3, 778.8 258.6" fill="#01161e" stroke="#01161e" stroke-width="1"></path><path d="M 777.2 261.3 Q 767.4 264.3, 759.9 271.3 L 759.9 271.3 Q 767.4 278.3, 777.2 281.3 L 777.2 281.3 Q 779.5 271.3, 777.2 261.3" fill="#124559" stroke="#01161e" stroke-width="1"></path><path d="M 739.3 207 Q 835.2 160.8, 843.2 267 Q 755.2 207, 843.2 147 Q 835.2 253.2, 739.3 207" fill="#01161e" stroke="#01161e" stroke-width="1"></path><path d="M 739.3 207 Q 832.8 165, 843.2 267 Q 760.1 207, 843.2 147 Q 832.8 249, 739.3 207" fill="#598392" stroke="#01161e" stroke-width="1"></path><path d="M 823.3 207 Q 814.2 197.2, 801.2 194.3 L 801.2 194.3 Q 797.2 207, 801.2 219.8 L 801.2 219.8 Q 814.2 216.8, 823.3 207" fill="#01161e" stroke="#01161e" stroke-width="1"></path><path d="M 820.1 207 Q 812.6 200, 802.8 197 L 802.8 197 Q 800.5 207, 802.8 217 L 802.8 217 Q 812.6 214, 820.1 207" fill="#124559" stroke="#01161e" stroke-width="1"></path><path d="M 736.8 82.7 Q 824.8 142.7, 736.8 202.7 Q 744.7 96.5, 840.7 142.7 Q 744.7 188.9, 736.8 82.7" fill="#01161e" stroke="#01161e" stroke-width="1"></path><path d="M 736.8 82.7 Q 819.9 142.7, 736.8 202.7 Q 747.2 100.7, 840.7 142.7 Q 747.2 184.7, 736.8 82.7" fill="#598392" stroke="#01161e" stroke-width="1"></path><path d="M 778.8 155.4 Q 782.8 142.7, 778.8 129.9 L 778.8 129.9 Q 765.7 132.9, 756.7 142.7 L 756.7 142.7 Q 765.7 152.5, 778.8 155.4" fill="#01161e" stroke="#01161e" stroke-width="1"></path><path d="M 777.2 152.7 Q 779.5 142.7, 777.2 132.7 L 777.2 132.7 Q 767.4 135.7, 759.9 142.7 L 759.9 142.7 Q 767.4 149.7, 777.2 152.7" fill="#124559" stroke="#01161e" stroke-width="1"></path><path d="M 731.8 82.7 Q 723.8 188.9, 627.8 142.7 Q 723.8 96.5, 731.8 202.7 Q 643.8 142.7, 731.8 82.7" fill="#01161e" stroke="#01161e" stroke-width="1"></path><path d="M 731.8 82.7 Q 721.4 184.7, 627.8 142.7 Q 721.4 100.7, 731.8 202.7 Q 648.6 142.7, 731.8 82.7" fill="#598392" stroke="#01161e" stroke-width="1"></path><path d="M 689.8 155.4 Q 702.8 152.5, 711.9 142.7 L 711.9 142.7 Q 702.8 132.9, 689.8 129.9 L 689.8 129.9 Q 685.8 142.7, 689.8 155.4" fill="#01161e" stroke="#01161e" stroke-width="1"></path><path d="M 691.4 152.7 Q 701.2 149.7, 708.7 142.7 L 708.7 142.7 Q 701.2 135.7, 691.4 132.7 L 691.4 132.7 Q 689 142.7, 691.4 152.7" fill="#124559" stroke="#01161e" stroke-width="1"></path><path d="M 729.3 207 Q 633.3 253.2, 625.3 147 Q 713.3 207, 625.3 267 Q 633.3 160.8, 729.3 207" fill="#01161e" stroke="#01161e" stroke-width="1"></path><path d="M 729.3 207 Q 635.7 249, 625.3 147 Q 708.5 207, 625.3 267 Q 635.7 165, 729.3 207" fill="#598392" stroke="#01161e" stroke-width="1"></path><path d="M 645.3 207 Q 654.3 216.8, 667.4 219.8 L 667.4 219.8 Q 671.3 207, 667.4 194.3 L 667.4 194.3 Q 654.3 197.2, 645.3 207" fill="#01161e" stroke="#01161e" stroke-width="1"></path><path d="M 648.4 207 Q 655.9 214, 665.8 217 L 665.8 217 Q 668.1 207, 665.8 197 L 665.8 197 Q 655.9 200, 648.4 207" fill="#124559" stroke="#01161e" stroke-width="1"></path><path d="M 620.3 138.3 Q 532.4 78.3, 620.3 18.3 Q 612.4 124.5, 516.4 78.3 Q 612.4 32.1, 620.3 138.3" fill="#01161e" stroke="#01161e" stroke-width="1"></path><path d="M 620.3 138.3 Q 537.2 78.3, 620.3 18.3 Q 610 120.3, 516.4 78.3 Q 610 36.3, 620.3 138.3" fill="#598392" stroke="#01161e" stroke-width="1"></path><path d="M 578.3 65.6 Q 574.4 78.3, 578.3 91.1 L 578.3 91.1 Q 591.4 88.2, 600.4 78.3 L 600.4 78.3 Q 591.4 68.5, 578.3 65.6" fill="#01161e" stroke="#01161e" stroke-width="1"></path><path d="M 579.9 68.3 Q 577.6 78.3, 579.9 88.3 L 579.9 88.3 Q 589.7 85.3, 597.3 78.3 L 597.3 78.3 Q 589.7 71.3, 579.9 68.3" fill="#124559" stroke="#01161e" stroke-width="1"></path><path d="M 625.3 138.3 Q 633.3 32.1, 729.3 78.3 Q 633.3 124.5, 625.3 18.3 Q 713.3 78.3, 625.3 138.3" fill="#01161e" stroke="#01161e" stroke-width="1"></path><path d="M 625.3 138.3 Q 635.7 36.3, 729.3 78.3 Q 635.7 120.3, 625.3 18.3 Q 708.5 78.3, 625.3 138.3" fill="#598392" stroke="#01161e" stroke-width="1"></path><path d="M 667.4 65.6 Q 654.3 68.5, 645.3 78.3 L 645.3 78.3 Q 654.3 88.2, 667.4 91.1 L 667.4 91.1 Q 671.3 78.3, 667.4 65.6" fill="#01161e" stroke="#01161e" stroke-width="1"></path><path d="M 665.8 68.3 Q 655.9 71.3, 648.4 78.3 L 648.4 78.3 Q 655.9 85.3, 665.8 88.3 L 665.8 88.3 Q 668.1 78.3, 665.8 68.3" fill="#124559" stroke="#01161e" stroke-width="1"></path><path d="M 627.8 14 Q 723.8 -32.2, 731.8 74 Q 643.8 14, 731.8 -46 Q 723.8 60.2, 627.8 14" fill="#01161e" stroke="#01161e" stroke-width="1"></path><path d="M 627.8 14 Q 721.4 -28, 731.8 74 Q 648.6 14, 731.8 -46 Q 721.4 56, 627.8 14" fill="#598392" stroke="#01161e" stroke-width="1"></path><path d="M 711.9 14 Q 702.8 4.2, 689.8 1.3 L 689.8 1.3 Q 685.8 14, 689.8 26.8 L 689.8 26.8 Q 702.8 23.8, 711.9 14" fill="#01161e" stroke="#01161e" stroke-width="1"></path><path d="M 708.7 14 Q 701.2 7, 691.4 4 L 691.4 4 Q 689 14, 691.4 24 L 691.4 24 Q 701.2 21, 708.7 14" fill="#124559" stroke="#01161e" stroke-width="1"></path><path d="M 625.3 -110.3 Q 713.3 -50.3, 625.3 9.7 Q 633.3 -96.5, 729.3 -50.3 Q 633.3 -4.1, 625.3 -110.3" fill="#01161e" stroke="#01161e" stroke-width="1"></path><path d="M 625.3 -110.3 Q 708.5 -50.3, 625.3 9.7 Q 635.7 -92.3, 729.3 -50.3 Q 635.7 -8.3, 625.3 -110.3" fill="#598392" stroke="#01161e" stroke-width="1"></path><path d="M 667.4 -37.6 Q 671.3 -50.3, 667.4 -63.1 L 667.4 -63.1 Q 654.3 -60.1, 645.3 -50.3 L 645.3 -50.3 Q 654.3 -40.5, 667.4 -37.6" fill="#01161e" stroke="#01161e" stroke-width="1"></path><path d="M 665.8 -40.3 Q 668.1 -50.3, 665.8 -60.3 L 665.8 -60.3 Q 655.9 -57.3, 648.4 -50.3 L 648.4 -50.3 Q 655.9 -43.3, 665.8 -40.3" fill="#124559" stroke="#01161e" stroke-width="1"></path><path d="M 620.3 -110.3 Q 612.4 -4.1, 516.4 -50.3 Q 612.4 -96.5, 620.3 9.7 Q 532.4 -50.3, 620.3 -110.3" fill="#01161e" stroke="#01161e" stroke-width="1"></path><path d="M 620.3 -110.3 Q 610 -8.3, 516.4 -50.3 Q 610 -92.3, 620.3 9.7 Q 537.2 -50.3, 620.3 -110.3" fill="#598392" stroke="#01161e" stroke-width="1"></path><path d="M 578.3 -37.6 Q 591.4 -40.5, 600.4 -50.3 L 600.4 -50.3 Q 591.4 -60.1, 578.3 -63.1 L 578.3 -63.1 Q 574.4 -50.3, 578.3 -37.6" fill="#01161e" stroke="#01161e" stroke-width="1"></path><path d="M 579.9 -40.3 Q 589.7 -43.3, 597.3 -50.3 L 597.3 -50.3 Q 589.7 -57.3, 579.9 -60.3 L 579.9 -60.3 Q 577.6 -50.3, 579.9 -40.3" fill="#124559" stroke="#01161e" stroke-width="1"></path><path d="M 617.8 14 Q 521.9 60.2, 513.9 -46 Q 601.9 14, 513.9 74 Q 521.9 -32.2, 617.8 14" fill="#01161e" stroke="#01161e" stroke-width="1"></path><path d="M 617.8 14 Q 524.3 56, 513.9 -46 Q 597.1 14, 513.9 74 Q 524.3 -28, 617.8 14" fill="#598392" stroke="#01161e" stroke-width="1"></path><path d="M 533.8 14 Q 542.9 23.8, 555.9 26.8 L 555.9 26.8 Q 559.9 14, 555.9 1.3 L 555.9 1.3 Q 542.9 4.2, 533.8 14" fill="#01161e" stroke="#01161e" stroke-width="1"></path><path d="M 537 14 Q 544.5 21, 554.3 24 L 554.3 24 Q 556.6 14, 554.3 4 L 554.3 4 Q 544.5 7, 537 14" fill="#124559" stroke="#01161e" stroke-width="1"></path><path d="M 397.5 138.3 Q 309.5 78.3, 397.5 18.3 Q 389.5 124.5, 293.6 78.3 Q 389.5 32.1, 397.5 138.3" fill="#01161e" stroke="#01161e" stroke-width="1"></path><path d="M 397.5 138.3 Q 314.4 78.3, 397.5 18.3 Q 387.1 120.3, 293.6 78.3 Q 387.1 36.3, 397.5 138.3" fill="#598392" stroke="#01161e" stroke-width="1"></path><path d="M 355.5 65.6 Q 351.5 78.3, 355.5 91.1 L 355.5 91.1 Q 368.5 88.2, 377.6 78.3 L 377.6 78.3 Q 368.5 68.5, 355.5 65.6" fill="#01161e" stroke="#01161e" stroke-width="1"></path><path d="M 357.1 68.3 Q 354.8 78.3, 357.1 88.3 L 357.1 88.3 Q 366.9 85.3, 374.4 78.3 L 374.4 78.3 Q 366.9 71.3, 357.1 68.3" fill="#124559" stroke="#01161e" stroke-width="1"></path><path d="M 402.5 138.3 Q 410.5 32.1, 506.4 78.3 Q 410.5 124.5, 402.5 18.3 Q 490.5 78.3, 402.5 138.3" fill="#01161e" stroke="#01161e" stroke-width="1"></path><path d="M 402.5 138.3 Q 412.9 36.3, 506.4 78.3 Q 412.9 120.3, 402.5 18.3 Q 485.6 78.3, 402.5 138.3" fill="#598392" stroke="#01161e" stroke-width="1"></path><path d="M 444.5 65.6 Q 431.5 68.5, 422.4 78.3 L 422.4 78.3 Q 431.5 88.2, 444.5 91.1 L 444.5 91.1 Q 448.5 78.3, 444.5 65.6" fill="#01161e" stroke="#01161e" stroke-width="1"></path><path d="M 442.9 68.3 Q 433.1 71.3, 425.6 78.3 L 425.6 78.3 Q 433.1 85.3, 442.9 88.3 L 442.9 88.3 Q 445.2 78.3, 442.9 68.3" fill="#124559" stroke="#01161e" stroke-width="1"></path><path d="M 405 14 Q 501 -32.2, 508.9 74 Q 420.9 14, 508.9 -46 Q 501 60.2, 405 14" fill="#01161e" stroke="#01161e" stroke-width="1"></path><path d="M 405 14 Q 498.5 -28, 508.9 74 Q 425.8 14, 508.9 -46 Q 498.5 56, 405 14" fill="#598392" stroke="#01161e" stroke-width="1"></path><path d="M 489 14 Q 480 4.2, 466.9 1.3 L 466.9 1.3 Q 462.9 14, 466.9 26.8 L 466.9 26.8 Q 480 23.8, 489 14" fill="#01161e" stroke="#01161e" stroke-width="1"></path><path d="M 485.8 14 Q 478.3 7, 468.5 4 L 468.5 4 Q 466.2 14, 468.5 24 L 468.5 24 Q 478.3 21, 485.8 14" fill="#124559" stroke="#01161e" stroke-width="1"></path><path d="M 402.5 -110.3 Q 490.5 -50.3, 402.5 9.7 Q 410.5 -96.5, 506.4 -50.3 Q 410.5 -4.1, 402.5 -110.3" fill="#01161e" stroke="#01161e" stroke-width="1"></path><path d="M 402.5 -110.3 Q 485.6 -50.3, 402.5 9.7 Q 412.9 -92.3, 506.4 -50.3 Q 412.9 -8.3, 402.5 -110.3" fill="#598392" stroke="#01161e" stroke-width="1"></path><path d="M 444.5 -37.6 Q 448.5 -50.3, 444.5 -63.1 L 444.5 -63.1 Q 431.5 -60.1, 422.4 -50.3 L 422.4 -50.3 Q 431.5 -40.5, 444.5 -37.6" fill="#01161e" stroke="#01161e" stroke-width="1"></path><path d="M 442.9 -40.3 Q 445.2 -50.3, 442.9 -60.3 L 442.9 -60.3 Q 433.1 -57.3, 425.6 -50.3 L 425.6 -50.3 Q 433.1 -43.3, 442.9 -40.3" fill="#124559" stroke="#01161e" stroke-width="1"></path><path d="M 397.5 -110.3 Q 389.5 -4.1, 293.6 -50.3 Q 389.5 -96.5, 397.5 9.7 Q 309.5 -50.3, 397.5 -110.3" fill="#01161e" stroke="#01161e" stroke-width="1"></path><path d="M 397.5 -110.3 Q 387.1 -8.3, 293.6 -50.3 Q 387.1 -92.3, 397.5 9.7 Q 314.4 -50.3, 397.5 -110.3" fill="#598392" stroke="#01161e" stroke-width="1"></path><path d="M 355.5 -37.6 Q 368.5 -40.5, 377.6 -50.3 L 377.6 -50.3 Q 368.5 -60.1, 355.5 -63.1 L 355.5 -63.1 Q 351.5 -50.3, 355.5 -37.6" fill="#01161e" stroke="#01161e" stroke-width="1"></path><path d="M 357.1 -40.3 Q 366.9 -43.3, 374.4 -50.3 L 374.4 -50.3 Q 366.9 -57.3, 357.1 -60.3 L 357.1 -60.3 Q 354.8 -50.3, 357.1 -40.3" fill="#124559" stroke="#01161e" stroke-width="1"></path><path d="M 395 14 Q 299 60.2, 291.1 -46 Q 379.1 14, 291.1 74 Q 299 -32.2, 395 14" fill="#01161e" stroke="#01161e" stroke-width="1"></path><path d="M 395 14 Q 301.5 56, 291.1 -46 Q 374.2 14, 291.1 74 Q 301.5 -28, 395 14" fill="#598392" stroke="#01161e" stroke-width="1"></path><path d="M 311 14 Q 320 23.8, 333.1 26.8 L 333.1 26.8 Q 337.1 14, 333.1 1.3 L 333.1 1.3 Q 320 4.2, 311 14" fill="#01161e" stroke="#01161e" stroke-width="1"></path><path d="M 314.2 14 Q 321.7 21, 331.5 24 L 331.5 24 Q 333.8 14, 331.5 4 L 331.5 4 Q 321.7 7, 314.2 14" fill="#124559" stroke="#01161e" stroke-width="1"></path><path d="M 174.7 138.3 Q 86.7 78.3, 174.7 18.3 Q 166.7 124.5, 70.7 78.3 Q 166.7 32.1, 174.7 138.3" fill="#01161e" stroke="#01161e" stroke-width="1"></path><path d="M 174.7 138.3 Q 91.5 78.3, 174.7 18.3 Q 164.3 120.3, 70.7 78.3 Q 164.3 36.3, 174.7 138.3" fill="#598392" stroke="#01161e" stroke-width="1"></path><path d="M 132.6 65.6 Q 128.7 78.3, 132.6 91.1 L 132.6 91.1 Q 145.7 88.2, 154.7 78.3 L 154.7 78.3 Q 145.7 68.5, 132.6 65.6" fill="#01161e" stroke="#01161e" stroke-width="1"></path><path d="M 134.2 68.3 Q 131.9 78.3, 134.2 88.3 L 134.2 88.3 Q 144.1 85.3, 151.6 78.3 L 151.6 78.3 Q 144.1 71.3, 134.2 68.3" fill="#124559" stroke="#01161e" stroke-width="1"></path><path d="M 179.7 138.3 Q 187.6 32.1, 283.6 78.3 Q 187.6 124.5, 179.7 18.3 Q 267.6 78.3, 179.7 138.3" fill="#01161e" stroke="#01161e" stroke-width="1"></path><path d="M 179.7 138.3 Q 190 36.3, 283.6 78.3 Q 190 120.3, 179.7 18.3 Q 262.8 78.3, 179.7 138.3" fill="#598392" stroke="#01161e" stroke-width="1"></path><path d="M 221.7 65.6 Q 208.6 68.5, 199.6 78.3 L 199.6 78.3 Q 208.6 88.2, 221.7 91.1 L 221.7 91.1 Q 225.6 78.3, 221.7 65.6" fill="#01161e" stroke="#01161e" stroke-width="1"></path><path d="M 220.1 68.3 Q 210.3 71.3, 202.7 78.3 L 202.7 78.3 Q 210.3 85.3, 220.1 88.3 L 220.1 88.3 Q 222.4 78.3, 220.1 68.3" fill="#124559" stroke="#01161e" stroke-width="1"></path><path d="M 182.2 14 Q 278.1 -32.2, 286.1 74 Q 198.1 14, 286.1 -46 Q 278.1 60.2, 182.2 14" fill="#01161e" stroke="#01161e" stroke-width="1"></path><path d="M 182.2 14 Q 275.7 -28, 286.1 74 Q 202.9 14, 286.1 -46 Q 275.7 56, 182.2 14" fill="#598392" stroke="#01161e" stroke-width="1"></path><path d="M 266.2 14 Q 257.1 4.2, 244.1 1.3 L 244.1 1.3 Q 240.1 14, 244.1 26.8 L 244.1 26.8 Q 257.1 23.8, 266.2 14" fill="#01161e" stroke="#01161e" stroke-width="1"></path><path d="M 263 14 Q 255.5 7, 245.7 4 L 245.7 4 Q 243.4 14, 245.7 24 L 245.7 24 Q 255.5 21, 263 14" fill="#124559" stroke="#01161e" stroke-width="1"></path><path d="M 179.7 -110.3 Q 267.6 -50.3, 179.7 9.7 Q 187.6 -96.5, 283.6 -50.3 Q 187.6 -4.1, 179.7 -110.3" fill="#01161e" stroke="#01161e" stroke-width="1"></path><path d="M 179.7 -110.3 Q 262.8 -50.3, 179.7 9.7 Q 190 -92.3, 283.6 -50.3 Q 190 -8.3, 179.7 -110.3" fill="#598392" stroke="#01161e" stroke-width="1"></path><path d="M 221.7 -37.6 Q 225.6 -50.3, 221.7 -63.1 L 221.7 -63.1 Q 208.6 -60.1, 199.6 -50.3 L 199.6 -50.3 Q 208.6 -40.5, 221.7 -37.6" fill="#01161e" stroke="#01161e" stroke-width="1"></path><path d="M 220.1 -40.3 Q 222.4 -50.3, 220.1 -60.3 L 220.1 -60.3 Q 210.3 -57.3, 202.7 -50.3 L 202.7 -50.3 Q 210.3 -43.3, 220.1 -40.3" fill="#124559" stroke="#01161e" stroke-width="1"></path><path d="M 174.7 -110.3 Q 166.7 -4.1, 70.7 -50.3 Q 166.7 -96.5, 174.7 9.7 Q 86.7 -50.3, 174.7 -110.3" fill="#01161e" stroke="#01161e" stroke-width="1"></path><path d="M 174.7 -110.3 Q 164.3 -8.3, 70.7 -50.3 Q 164.3 -92.3, 174.7 9.7 Q 91.5 -50.3, 174.7 -110.3" fill="#598392" stroke="#01161e" stroke-width="1"></path><path d="M 132.6 -37.6 Q 145.7 -40.5, 154.7 -50.3 L 154.7 -50.3 Q 145.7 -60.1, 132.6 -63.1 L 132.6 -63.1 Q 128.7 -50.3, 132.6 -37.6" fill="#01161e" stroke="#01161e" stroke-width="1"></path><path d="M 134.2 -40.3 Q 144.1 -43.3, 151.6 -50.3 L 151.6 -50.3 Q 144.1 -57.3, 134.2 -60.3 L 134.2 -60.3 Q 131.9 -50.3, 134.2 -40.3" fill="#124559" stroke="#01161e" stroke-width="1"></path><path d="M 172.2 14 Q 76.2 60.2, 68.2 -46 Q 156.2 14, 68.2 74 Q 76.2 -32.2, 172.2 14" fill="#01161e" stroke="#01161e" stroke-width="1"></path><path d="M 172.2 14 Q 78.6 56, 68.2 -46 Q 151.4 14, 68.2 74 Q 78.6 -28, 172.2 14" fill="#598392" stroke="#01161e" stroke-width="1"></path><path d="M 88.1 14 Q 97.2 23.8, 110.2 26.8 L 110.2 26.8 Q 114.2 14, 110.2 1.3 L 110.2 1.3 Q 97.2 4.2, 88.1 14" fill="#01161e" stroke="#01161e" stroke-width="1"></path><path d="M 91.3 14 Q 98.8 21, 108.6 24 L 108.6 24 Q 111 14, 108.6 4 L 108.6 4 Q 98.8 7, 91.3 14" fill="#124559" stroke="#01161e" stroke-width="1"></path><path d="M 63.2 331.3 Q -24.8 271.3, 63.2 211.3 Q 55.3 317.5, -40.7 271.3 Q 55.3 225.1, 63.2 331.3" fill="#01161e" stroke="#01161e" stroke-width="1"></path><path d="M 63.2 331.3 Q -19.9 271.3, 63.2 211.3 Q 52.8 313.3, -40.7 271.3 Q 52.8 229.3, 63.2 331.3" fill="#598392" stroke="#01161e" stroke-width="1"></path><path d="M 21.2 258.6 Q 17.2 271.3, 21.2 284.1 L 21.2 284.1 Q 34.3 281.2, 43.3 271.3 L 43.3 271.3 Q 34.3 261.5, 21.2 258.6" fill="#01161e" stroke="#01161e" stroke-width="1"></path><path d="M 22.8 261.3 Q 20.5 271.3, 22.8 281.3 L 22.8 281.3 Q 32.6 278.3, 40.1 271.3 L 40.1 271.3 Q 32.6 264.3, 22.8 261.3" fill="#124559" stroke="#01161e" stroke-width="1"></path><path d="M 68.2 331.3 Q 76.2 225.1, 172.2 271.3 Q 76.2 317.5, 68.2 211.3 Q 156.2 271.3, 68.2 331.3" fill="#01161e" stroke="#01161e" stroke-width="1"></path><path d="M 68.2 331.3 Q 78.6 229.3, 172.2 271.3 Q 78.6 313.3, 68.2 211.3 Q 151.4 271.3, 68.2 331.3" fill="#598392" stroke="#01161e" stroke-width="1"></path><path d="M 110.2 258.6 Q 97.2 261.5, 88.1 271.3 L 88.1 271.3 Q 97.2 281.2, 110.2 284.1 L 110.2 284.1 Q 114.2 271.3, 110.2 258.6" fill="#01161e" stroke="#01161e" stroke-width="1"></path><path d="M 108.6 261.3 Q 98.8 264.3, 91.3 271.3 L 91.3 271.3 Q 98.8 278.3, 108.6 281.3 L 108.6 281.3 Q 111 271.3, 108.6 261.3" fill="#124559" stroke="#01161e" stroke-width="1"></path><path d="M 70.7 207 Q 166.7 160.8, 174.7 267 Q 86.7 207, 174.7 147 Q 166.7 253.2, 70.7 207" fill="#01161e" stroke="#01161e" stroke-width="1"></path><path d="M 70.7 207 Q 164.3 165, 174.7 267 Q 91.5 207, 174.7 147 Q 164.3 249, 70.7 207" fill="#598392" stroke="#01161e" stroke-width="1"></path><path d="M 154.7 207 Q 145.7 197.2, 132.6 194.3 L 132.6 194.3 Q 128.7 207, 132.6 219.8 L 132.6 219.8 Q 145.7 216.8, 154.7 207" fill="#01161e" stroke="#01161e" stroke-width="1"></path><path d="M 151.6 207 Q 144.1 200, 134.2 197 L 134.2 197 Q 131.9 207, 134.2 217 L 134.2 217 Q 144.1 214, 151.6 207" fill="#124559" stroke="#01161e" stroke-width="1"></path><path d="M 68.2 82.7 Q 156.2 142.7, 68.2 202.7 Q 76.2 96.5, 172.2 142.7 Q 76.2 188.9, 68.2 82.7" fill="#01161e" stroke="#01161e" stroke-width="1"></path><path d="M 68.2 82.7 Q 151.4 142.7, 68.2 202.7 Q 78.6 100.7, 172.2 142.7 Q 78.6 184.7, 68.2 82.7" fill="#598392" stroke="#01161e" stroke-width="1"></path><path d="M 110.2 155.4 Q 114.2 142.7, 110.2 129.9 L 110.2 129.9 Q 97.2 132.9, 88.1 142.7 L 88.1 142.7 Q 97.2 152.5, 110.2 155.4" fill="#01161e" stroke="#01161e" stroke-width="1"></path><path d="M 108.6 152.7 Q 111 142.7, 108.6 132.7 L 108.6 132.7 Q 98.8 135.7, 91.3 142.7 L 91.3 142.7 Q 98.8 149.7, 108.6 152.7" fill="#124559" stroke="#01161e" stroke-width="1"></path><path d="M 63.2 82.7 Q 55.3 188.9, -40.7 142.7 Q 55.3 96.5, 63.2 202.7 Q -24.8 142.7, 63.2 82.7" fill="#01161e" stroke="#01161e" stroke-width="1"></path><path d="M 63.2 82.7 Q 52.8 184.7, -40.7 142.7 Q 52.8 100.7, 63.2 202.7 Q -19.9 142.7, 63.2 82.7" fill="#598392" stroke="#01161e" stroke-width="1"></path><path d="M 21.2 155.4 Q 34.3 152.5, 43.3 142.7 L 43.3 142.7 Q 34.3 132.9, 21.2 129.9 L 21.2 129.9 Q 17.2 142.7, 21.2 155.4" fill="#01161e" stroke="#01161e" stroke-width="1"></path><path d="M 22.8 152.7 Q 32.6 149.7, 40.1 142.7 L 40.1 142.7 Q 32.6 135.7, 22.8 132.7 L 22.8 132.7 Q 20.5 142.7, 22.8 152.7" fill="#124559" stroke="#01161e" stroke-width="1"></path><path d="M 60.7 207 Q -35.2 253.2, -43.2 147 Q 44.8 207, -43.2 267 Q -35.2 160.8, 60.7 207" fill="#01161e" stroke="#01161e" stroke-width="1"></path><path d="M 60.7 207 Q -32.8 249, -43.2 147 Q 39.9 207, -43.2 267 Q -32.8 165, 60.7 207" fill="#598392" stroke="#01161e" stroke-width="1"></path><path d="M -23.3 207 Q -14.2 216.8, -1.2 219.8 L -1.2 219.8 Q 2.8 207, -1.2 194.3 L -1.2 194.3 Q -14.2 197.2, -23.3 207" fill="#01161e" stroke="#01161e" stroke-width="1"></path><path d="M -20.1 207 Q -12.6 214, -2.8 217 L -2.8 217 Q -0.5 207, -2.8 197 L -2.8 197 Q -12.6 200, -20.1 207" fill="#124559" stroke="#01161e" stroke-width="1"></path><path d="M -48.2 524.3 Q -136.2 464.3, -48.2 404.3 Q -56.2 510.5, -152.1 464.3 Q -56.2 418.1, -48.2 524.3" fill="#01161e" stroke="#01161e" stroke-width="1"></path><path d="M -48.2 524.3 Q -131.3 464.3, -48.2 404.3 Q -58.6 506.3, -152.1 464.3 Q -58.6 422.3, -48.2 524.3" fill="#598392" stroke="#01161e" stroke-width="1"></path><path d="M -90.2 451.6 Q -94.2 464.3, -90.2 477.1 L -90.2 477.1 Q -77.2 474.2, -68.1 464.3 L -68.1 464.3 Q -77.2 454.5, -90.2 451.6" fill="#01161e" stroke="#01161e" stroke-width="1"></path><path d="M -88.6 454.3 Q -90.9 464.3, -88.6 474.3 L -88.6 474.3 Q -78.8 471.3, -71.3 464.3 L -71.3 464.3 Q -78.8 457.3, -88.6 454.3" fill="#124559" stroke="#01161e" stroke-width="1"></path><path d="M -43.2 524.3 Q -35.2 418.1, 60.7 464.3 Q -35.2 510.5, -43.2 404.3 Q 44.8 464.3, -43.2 524.3" fill="#01161e" stroke="#01161e" stroke-width="1"></path><path d="M -43.2 524.3 Q -32.8 422.3, 60.7 464.3 Q -32.8 506.3, -43.2 404.3 Q 39.9 464.3, -43.2 524.3" fill="#598392" stroke="#01161e" stroke-width="1"></path><path d="M -1.2 451.6 Q -14.2 454.5, -23.3 464.3 L -23.3 464.3 Q -14.2 474.2, -1.2 477.1 L -1.2 477.1 Q 2.8 464.3, -1.2 451.6" fill="#01161e" stroke="#01161e" stroke-width="1"></path><path d="M -2.8 454.3 Q -12.6 457.3, -20.1 464.3 L -20.1 464.3 Q -12.6 471.3, -2.8 474.3 L -2.8 474.3 Q -0.5 464.3, -2.8 454.3" fill="#124559" stroke="#01161e" stroke-width="1"></path><path d="M -40.7 400 Q 55.3 353.8, 63.2 460 Q -24.8 400, 63.2 340 Q 55.3 446.2, -40.7 400" fill="#01161e" stroke="#01161e" stroke-width="1"></path><path d="M -40.7 400 Q 52.8 358, 63.2 460 Q -19.9 400, 63.2 340 Q 52.8 442, -40.7 400" fill="#598392" stroke="#01161e" stroke-width="1"></path><path d="M 43.3 400 Q 34.3 390.2, 21.2 387.2 L 21.2 387.2 Q 17.2 400, 21.2 412.8 L 21.2 412.8 Q 34.3 409.8, 43.3 400" fill="#01161e" stroke="#01161e" stroke-width="1"></path><path d="M 40.1 400 Q 32.6 393, 22.8 390 L 22.8 390 Q 20.5 400, 22.8 410 L 22.8 410 Q 32.6 407, 40.1 400" fill="#124559" stroke="#01161e" stroke-width="1"></path><path d="M -43.2 275.7 Q 44.8 335.7, -43.2 395.7 Q -35.2 289.5, 60.7 335.7 Q -35.2 381.9, -43.2 275.7" fill="#01161e" stroke="#01161e" stroke-width="1"></path><path d="M -43.2 275.7 Q 39.9 335.7, -43.2 395.7 Q -32.8 293.7, 60.7 335.7 Q -32.8 377.7, -43.2 275.7" fill="#598392" stroke="#01161e" stroke-width="1"></path><path d="M -1.2 348.4 Q 2.8 335.7, -1.2 322.9 L -1.2 322.9 Q -14.2 325.8, -23.3 335.7 L -23.3 335.7 Q -14.2 345.5, -1.2 348.4" fill="#01161e" stroke="#01161e" stroke-width="1"></path><path d="M -2.8 345.7 Q -0.5 335.7, -2.8 325.7 L -2.8 325.7 Q -12.6 328.7, -20.1 335.7 L -20.1 335.7 Q -12.6 342.7, -2.8 345.7" fill="#124559" stroke="#01161e" stroke-width="1"></path><path d="M -48.2 275.7 Q -56.2 381.9, -152.1 335.7 Q -56.2 289.5, -48.2 395.7 Q -136.2 335.7, -48.2 275.7" fill="#01161e" stroke="#01161e" stroke-width="1"></path><path d="M -48.2 275.7 Q -58.6 377.7, -152.1 335.7 Q -58.6 293.7, -48.2 395.7 Q -131.3 335.7, -48.2 275.7" fill="#598392" stroke="#01161e" stroke-width="1"></path><path d="M -90.2 348.4 Q -77.2 345.5, -68.1 335.7 L -68.1 335.7 Q -77.2 325.8, -90.2 322.9 L -90.2 322.9 Q -94.2 335.7, -90.2 348.4" fill="#01161e" stroke="#01161e" stroke-width="1"></path><path d="M -88.6 345.7 Q -78.8 342.7, -71.3 335.7 L -71.3 335.7 Q -78.8 328.7, -88.6 325.7 L -88.6 325.7 Q -90.9 335.7, -88.6 345.7" fill="#124559" stroke="#01161e" stroke-width="1"></path><path d="M -50.7 400 Q -146.6 446.2, -154.6 340 Q -66.6 400, -154.6 460 Q -146.6 353.8, -50.7 400" fill="#01161e" stroke="#01161e" stroke-width="1"></path><path d="M -50.7 400 Q -144.2 442, -154.6 340 Q -71.5 400, -154.6 460 Q -144.2 358, -50.7 400" fill="#598392" stroke="#01161e" stroke-width="1"></path><path d="M -134.7 400 Q -125.6 409.8, -112.6 412.8 L -112.6 412.8 Q -108.6 400, -112.6 387.2 L -112.6 387.2 Q -125.6 390.2, -134.7 400" fill="#01161e" stroke="#01161e" stroke-width="1"></path><path d="M -131.5 400 Q -124 407, -114.2 410 L -114.2 410 Q -111.9 400, -114.2 390 L -114.2 390 Q -124 393, -131.5 400" fill="#124559" stroke="#01161e" stroke-width="1"></path><path d="M 63.2 717.3 Q -24.8 657.3, 63.2 597.3 Q 55.3 703.5, -40.7 657.3 Q 55.3 611.1, 63.2 717.3" fill="#01161e" stroke="#01161e" stroke-width="1"></path><path d="M 63.2 717.3 Q -19.9 657.3, 63.2 597.3 Q 52.8 699.3, -40.7 657.3 Q 52.8 615.3, 63.2 717.3" fill="#598392" stroke="#01161e" stroke-width="1"></path><path d="M 21.2 644.6 Q 17.2 657.3, 21.2 670.1 L 21.2 670.1 Q 34.3 667.1, 43.3 657.3 L 43.3 657.3 Q 34.3 647.5, 21.2 644.6" fill="#01161e" stroke="#01161e" stroke-width="1"></path><path d="M 22.8 647.3 Q 20.5 657.3, 22.8 667.3 L 22.8 667.3 Q 32.6 664.3, 40.1 657.3 L 40.1 657.3 Q 32.6 650.3, 22.8 647.3" fill="#124559" stroke="#01161e" stroke-width="1"></path><path d="M 68.2 717.3 Q 76.2 611.1, 172.2 657.3 Q 76.2 703.5, 68.2 597.3 Q 156.2 657.3, 68.2 717.3" fill="#01161e" stroke="#01161e" stroke-width="1"></path><path d="M 68.2 717.3 Q 78.6 615.3, 172.2 657.3 Q 78.6 699.3, 68.2 597.3 Q 151.4 657.3, 68.2 717.3" fill="#598392" stroke="#01161e" stroke-width="1"></path><path d="M 110.2 644.6 Q 97.2 647.5, 88.1 657.3 L 88.1 657.3 Q 97.2 667.1, 110.2 670.1 L 110.2 670.1 Q 114.2 657.3, 110.2 644.6" fill="#01161e" stroke="#01161e" stroke-width="1"></path><path d="M 108.6 647.3 Q 98.8 650.3, 91.3 657.3 L 91.3 657.3 Q 98.8 664.3, 108.6 667.3 L 108.6 667.3 Q 111 657.3, 108.6 647.3" fill="#124559" stroke="#01161e" stroke-width="1"></path><path d="M 70.7 593 Q 166.7 546.8, 174.7 653 Q 86.7 593, 174.7 533 Q 166.7 639.2, 70.7 593" fill="#01161e" stroke="#01161e" stroke-width="1"></path><path d="M 70.7 593 Q 164.3 551, 174.7 653 Q 91.5 593, 174.7 533 Q 164.3 635, 70.7 593" fill="#598392" stroke="#01161e" stroke-width="1"></path><path d="M 154.7 593 Q 145.7 583.2, 132.6 580.2 L 132.6 580.2 Q 128.7 593, 132.6 605.7 L 132.6 605.7 Q 145.7 602.8, 154.7 593" fill="#01161e" stroke="#01161e" stroke-width="1"></path><path d="M 151.6 593 Q 144.1 586, 134.2 583 L 134.2 583 Q 131.9 593, 134.2 603 L 134.2 603 Q 144.1 600, 151.6 593" fill="#124559" stroke="#01161e" stroke-width="1"></path><path d="M 68.2 468.7 Q 156.2 528.7, 68.2 588.7 Q 76.2 482.5, 172.2 528.7 Q 76.2 574.9, 68.2 468.7" fill="#01161e" stroke="#01161e" stroke-width="1"></path><path d="M 68.2 468.7 Q 151.4 528.7, 68.2 588.7 Q 78.6 486.7, 172.2 528.7 Q 78.6 570.7, 68.2 468.7" fill="#598392" stroke="#01161e" stroke-width="1"></path><path d="M 110.2 541.4 Q 114.2 528.7, 110.2 515.9 L 110.2 515.9 Q 97.2 518.8, 88.1 528.7 L 88.1 528.7 Q 97.2 538.5, 110.2 541.4" fill="#01161e" stroke="#01161e" stroke-width="1"></path><path d="M 108.6 538.7 Q 111 528.7, 108.6 518.7 L 108.6 518.7 Q 98.8 521.7, 91.3 528.7 L 91.3 528.7 Q 98.8 535.7, 108.6 538.7" fill="#124559" stroke="#01161e" stroke-width="1"></path><path d="M 63.2 468.7 Q 55.3 574.9, -40.7 528.7 Q 55.3 482.5, 63.2 588.7 Q -24.8 528.7, 63.2 468.7" fill="#01161e" stroke="#01161e" stroke-width="1"></path><path d="M 63.2 468.7 Q 52.8 570.7, -40.7 528.7 Q 52.8 486.7, 63.2 588.7 Q -19.9 528.7, 63.2 468.7" fill="#598392" stroke="#01161e" stroke-width="1"></path><path d="M 21.2 541.4 Q 34.3 538.5, 43.3 528.7 L 43.3 528.7 Q 34.3 518.8, 21.2 515.9 L 21.2 515.9 Q 17.2 528.7, 21.2 541.4" fill="#01161e" stroke="#01161e" stroke-width="1"></path><path d="M 22.8 538.7 Q 32.6 535.7, 40.1 528.7 L 40.1 528.7 Q 32.6 521.7, 22.8 518.7 L 22.8 518.7 Q 20.5 528.7, 22.8 538.7" fill="#124559" stroke="#01161e" stroke-width="1"></path><path d="M 60.7 593 Q -35.2 639.2, -43.2 533 Q 44.8 593, -43.2 653 Q -35.2 546.8, 60.7 593" fill="#01161e" stroke="#01161e" stroke-width="1"></path><path d="M 60.7 593 Q -32.8 635, -43.2 533 Q 39.9 593, -43.2 653 Q -32.8 551, 60.7 593" fill="#598392" stroke="#01161e" stroke-width="1"></path><path d="M -23.3 593 Q -14.2 602.8, -1.2 605.7 L -1.2 605.7 Q 2.8 593, -1.2 580.2 L -1.2 580.2 Q -14.2 583.2, -23.3 593" fill="#01161e" stroke="#01161e" stroke-width="1"></path><path d="M -20.1 593 Q -12.6 600, -2.8 603 L -2.8 603 Q -0.5 593, -2.8 583 L -2.8 583 Q -12.6 586, -20.1 593" fill="#124559" stroke="#01161e" stroke-width="1"></path><ellipse cx="400" cy="400" rx="600" ry="600" fill="none" stroke="white" stroke-width="560"></ellipse><ellipse cx="400" cy="400" rx="320" ry="320" fill="none" stroke="#01161e" stroke-width="2"></ellipse></svg>