<svg viewBox="0 0 800 800" preserveAspectRatio="xMidYMin slice" xmlns="http://www.w3.org/2000/svg" xlink="http://www.w3.org/1999/xlink"><rect x="0" y="0" width="800" height="800" fill="#f4fffd"></rect><path d="M -121.2 1148 L -108.5 1175.2 L -127.8 1198.2 L -115.1 1225.4 L -57.3 1156.4 L -44.6 1183.6 L -63.9 1206.6 L -51.2 1233.8" fill="none" stroke="#f9dc5c" stroke-width="5"></path><path d="M -121.2 1148 L -133.9 1120.8 L -114.6 1097.9 L -127.3 1070.7 L -185.1 1139.6 L -197.8 1112.4 L -178.5 1089.4 L -191.2 1062.3" fill="none" stroke="#465362" stroke-width="5"></path><path d="M -126.7 943.1 L -114.1 970.3 L -133.3 993.3 L -120.7 1020.5 L -62.8 951.6 L -50.1 978.7 L -69.4 1001.7 L -56.7 1028.9" fill="none" stroke="#f9dc5c" stroke-width="5"></path><path d="M -126.7 943.1 L -139.4 915.9 L -120.1 893 L -132.8 865.8 L -190.7 934.7 L -203.3 907.5 L -184.1 884.5 L -196.7 857.4" fill="none" stroke="#465362" stroke-width="5"></path><path d="M -132.3 738.2 L -119.6 765.4 L -138.9 788.4 L -126.2 815.6 L -68.3 746.7 L -55.7 773.9 L -75 796.8 L -62.3 824" fill="none" stroke="#f9dc5c" stroke-width="5"></path><path d="M -132.3 738.2 L -145 711.1 L -125.7 688.1 L -138.3 660.9 L -196.2 729.8 L -208.9 702.6 L -189.6 679.7 L -202.3 652.5" fill="none" stroke="#465362" stroke-width="5"></path><path d="M -137.8 533.4 L -125.1 560.5 L -144.4 583.5 L -131.7 610.7 L -73.9 541.8 L -61.2 569 L -80.5 591.9 L -67.8 619.1" fill="none" stroke="#f9dc5c" stroke-width="5"></path><path d="M -137.8 533.4 L -150.5 506.2 L -131.2 483.2 L -143.9 456 L -201.7 524.9 L -214.4 497.8 L -195.1 474.8 L -207.8 447.6" fill="none" stroke="#465362" stroke-width="5"></path><path d="M -143.4 328.5 L -130.7 355.7 L -150 378.6 L -137.3 405.8 L -79.4 336.9 L -66.8 364.1 L -86 387.1 L -73.4 414.2" fill="none" stroke="#f9dc5c" stroke-width="5"></path><path d="M -143.4 328.5 L -156 301.3 L -136.8 278.3 L -149.4 251.1 L -207.3 320 L -220 292.9 L -200.7 269.9 L -213.4 242.7" fill="none" stroke="#465362" stroke-width="5"></path><path d="M -148.9 123.6 L -136.2 150.8 L -155.5 173.7 L -142.8 200.9 L -85 132 L -72.3 159.2 L -91.6 182.2 L -78.9 209.4" fill="none" stroke="#f9dc5c" stroke-width="5"></path><path d="M -148.9 123.6 L -161.6 96.4 L -142.3 73.4 L -155 46.2 L -212.8 115.2 L -225.5 88 L -206.2 65 L -218.9 37.8" fill="none" stroke="#465362" stroke-width="5"></path><path d="M -154.4 -81.3 L -141.8 -54.1 L -161 -31.1 L -148.4 -4 L -90.5 -72.9 L -77.8 -45.7 L -97.1 -22.7 L -84.4 4.5" fill="none" stroke="#f9dc5c" stroke-width="5"></path><path d="M -154.4 -81.3 L -167.1 -108.5 L -147.8 -131.5 L -160.5 -158.7 L -218.4 -89.7 L -231 -116.9 L -211.8 -139.9 L -224.4 -167.1" fill="none" stroke="#465362" stroke-width="5"></path><path d="M 13.3 1114.7 L 25.9 1141.9 L 6.7 1164.9 L 19.3 1192 L 77.2 1123.1 L 89.9 1150.3 L 70.6 1173.3 L 83.3 1200.5" fill="none" stroke="#f9dc5c" stroke-width="5"></path><path d="M 13.3 1114.7 L 0.6 1087.5 L 19.9 1064.5 L 7.2 1037.3 L -50.7 1106.3 L -63.3 1079.1 L -44.1 1056.1 L -56.7 1028.9" fill="none" stroke="#465362" stroke-width="5"></path><path d="M 7.7 909.8 L 20.4 937 L 1.1 960 L 13.8 987.2 L 71.6 918.2 L 84.3 945.4 L 65 968.4 L 77.7 995.6" fill="none" stroke="#f9dc5c" stroke-width="5"></path><path d="M 7.7 909.8 L -5 882.6 L 14.3 859.6 L 1.6 832.4 L -56.2 901.4 L -68.9 874.2 L -49.6 851.2 L -62.3 824" fill="none" stroke="#465362" stroke-width="5"></path><path d="M 2.2 704.9 L 14.9 732.1 L -4.4 755.1 L 8.3 782.3 L 66.1 713.3 L 78.8 740.5 L 59.5 763.5 L 72.2 790.7" fill="none" stroke="#f9dc5c" stroke-width="5"></path><path d="M 2.2 704.9 L -10.5 677.7 L 8.8 654.7 L -3.9 627.5 L -61.7 696.5 L -74.4 669.3 L -55.1 646.3 L -67.8 619.1" fill="none" stroke="#465362" stroke-width="5"></path><path d="M -3.4 500 L 9.3 527.2 L -10 550.2 L 2.7 577.4 L 60.6 508.4 L 73.2 535.6 L 54 558.6 L 66.6 585.8" fill="none" stroke="#f9dc5c" stroke-width="5"></path><path d="M -3.4 500 L -16 472.8 L 3.2 449.8 L -9.4 422.7 L -67.3 491.6 L -80 464.4 L -60.7 441.4 L -73.4 414.2" fill="none" stroke="#465362" stroke-width="5"></path><path d="M -8.9 295.1 L 3.8 322.3 L -15.5 345.3 L -2.8 372.5 L 55 303.5 L 67.7 330.7 L 48.4 353.7 L 61.1 380.9" fill="none" stroke="#f9dc5c" stroke-width="5"></path><path d="M -8.9 295.1 L -21.6 267.9 L -2.3 245 L -15 217.8 L -72.8 286.7 L -85.5 259.5 L -66.2 236.5 L -78.9 209.4" fill="none" stroke="#465362" stroke-width="5"></path><path d="M -14.4 90.2 L -1.8 117.4 L -21.1 140.4 L -8.4 167.6 L 49.5 98.7 L 62.2 125.8 L 42.9 148.8 L 55.6 176" fill="none" stroke="#f9dc5c" stroke-width="5"></path><path d="M -14.4 90.2 L -27.1 63 L -7.8 40.1 L -20.5 12.9 L -78.4 81.8 L -91 54.6 L -71.8 31.7 L -84.4 4.5" fill="none" stroke="#465362" stroke-width="5"></path><path d="M -20 -114.7 L -7.3 -87.5 L -26.6 -64.5 L -13.9 -37.3 L 43.9 -106.2 L 56.6 -79 L 37.3 -56.1 L 50 -28.9" fill="none" stroke="#f9dc5c" stroke-width="5"></path><path d="M -20 -114.7 L -32.7 -141.8 L -13.4 -164.8 L -26.1 -192 L -83.9 -123.1 L -96.6 -150.3 L -77.3 -173.2 L -90 -200.4" fill="none" stroke="#465362" stroke-width="5"></path><path d="M 147.7 1081.3 L 160.4 1108.5 L 141.1 1131.5 L 153.8 1158.7 L 211.6 1089.8 L 224.3 1117 L 205 1139.9 L 217.7 1167.1" fill="none" stroke="#f9dc5c" stroke-width="5"></path><path d="M 147.7 1081.3 L 135 1054.2 L 154.3 1031.2 L 141.6 1004 L 83.8 1072.9 L 71.1 1045.7 L 90.4 1022.8 L 77.7 995.6" fill="none" stroke="#465362" stroke-width="5"></path><path d="M 142.2 876.5 L 154.9 903.6 L 135.6 926.6 L 148.2 953.8 L 206.1 884.9 L 218.8 912.1 L 199.5 935 L 212.2 962.2" fill="none" stroke="#f9dc5c" stroke-width="5"></path><path d="M 142.2 876.5 L 129.5 849.3 L 148.8 826.3 L 136.1 799.1 L 78.3 868 L 65.6 840.9 L 84.9 817.9 L 72.2 790.7" fill="none" stroke="#465362" stroke-width="5"></path><path d="M 136.6 671.6 L 149.3 698.8 L 130 721.7 L 142.7 748.9 L 200.6 680 L 213.2 707.2 L 194 730.2 L 206.6 757.3" fill="none" stroke="#f9dc5c" stroke-width="5"></path><path d="M 136.6 671.6 L 124 644.4 L 143.2 621.4 L 130.6 594.2 L 72.7 663.2 L 60 636 L 79.3 613 L 66.6 585.8" fill="none" stroke="#465362" stroke-width="5"></path><path d="M 131.1 466.7 L 143.8 493.9 L 124.5 516.8 L 137.2 544 L 195 475.1 L 207.7 502.3 L 188.4 525.3 L 201.1 552.5" fill="none" stroke="#f9dc5c" stroke-width="5"></path><path d="M 131.1 466.7 L 118.4 439.5 L 137.7 416.5 L 125 389.3 L 67.2 458.3 L 54.5 431.1 L 73.8 408.1 L 61.1 380.9" fill="none" stroke="#465362" stroke-width="5"></path><path d="M 125.6 261.8 L 138.2 289 L 118.9 312 L 131.6 339.1 L 189.5 270.2 L 202.2 297.4 L 182.9 320.4 L 195.5 347.6" fill="none" stroke="#f9dc5c" stroke-width="5"></path><path d="M 125.6 261.8 L 112.9 234.6 L 132.2 211.6 L 119.5 184.4 L 61.6 253.4 L 48.9 226.2 L 68.2 203.2 L 55.6 176" fill="none" stroke="#465362" stroke-width="5"></path><path d="M 120 56.9 L 132.7 84.1 L 113.4 107.1 L 126.1 134.3 L 183.9 65.3 L 196.6 92.5 L 177.3 115.5 L 190 142.7" fill="none" stroke="#f9dc5c" stroke-width="5"></path><path d="M 120 56.9 L 107.3 29.7 L 126.6 6.7 L 113.9 -20.5 L 56.1 48.5 L 43.4 21.3 L 62.7 -1.7 L 50 -28.9" fill="none" stroke="#465362" stroke-width="5"></path><path d="M 114.5 -148 L 127.1 -120.8 L 107.9 -97.8 L 120.5 -70.6 L 178.4 -139.6 L 191.1 -112.4 L 171.8 -89.4 L 184.5 -62.2" fill="none" stroke="#f9dc5c" stroke-width="5"></path><path d="M 114.5 -148 L 101.8 -175.2 L 121.1 -198.2 L 108.4 -225.4 L 50.5 -156.4 L 37.9 -183.6 L 57.1 -206.6 L 44.5 -233.8" fill="none" stroke="#465362" stroke-width="5"></path><path d="M 282.2 1048 L 294.9 1075.2 L 275.6 1098.2 L 288.2 1125.4 L 346.1 1056.4 L 358.8 1083.6 L 339.5 1106.6 L 352.2 1133.8" fill="none" stroke="#f9dc5c" stroke-width="5"></path><path d="M 282.2 1048 L 269.5 1020.8 L 288.8 997.8 L 276.1 970.6 L 218.2 1039.6 L 205.6 1012.4 L 224.9 989.4 L 212.2 962.2" fill="none" stroke="#465362" stroke-width="5"></path><path d="M 276.6 843.1 L 289.3 870.3 L 270 893.3 L 282.7 920.5 L 340.6 851.5 L 353.2 878.7 L 333.9 901.7 L 346.6 928.9" fill="none" stroke="#f9dc5c" stroke-width="5"></path><path d="M 276.6 843.1 L 264 815.9 L 283.2 792.9 L 270.6 765.8 L 212.7 834.7 L 200 807.5 L 219.3 784.5 L 206.6 757.3" fill="none" stroke="#465362" stroke-width="5"></path><path d="M 271.1 638.2 L 283.8 665.4 L 264.5 688.4 L 277.2 715.6 L 335 646.6 L 347.7 673.8 L 328.4 696.8 L 341.1 724" fill="none" stroke="#f9dc5c" stroke-width="5"></path><path d="M 271.1 638.2 L 258.4 611 L 277.7 588.1 L 265 560.9 L 207.2 629.8 L 194.5 602.6 L 213.8 579.6 L 201.1 552.5" fill="none" stroke="#465362" stroke-width="5"></path><path d="M 265.5 433.3 L 278.2 460.5 L 258.9 483.5 L 271.6 510.7 L 329.5 441.8 L 342.1 468.9 L 322.9 491.9 L 335.5 519.1" fill="none" stroke="#f9dc5c" stroke-width="5"></path><path d="M 265.5 433.3 L 252.9 406.1 L 272.2 383.2 L 259.5 356 L 201.6 424.9 L 188.9 397.7 L 208.2 374.8 L 195.5 347.6" fill="none" stroke="#465362" stroke-width="5"></path><path d="M 260 228.4 L 272.7 255.6 L 253.4 278.6 L 266.1 305.8 L 323.9 236.9 L 336.6 264.1 L 317.3 287 L 330 314.2" fill="none" stroke="#f9dc5c" stroke-width="5"></path><path d="M 260 228.4 L 247.3 201.3 L 266.6 178.3 L 253.9 151.1 L 196.1 220 L 183.4 192.8 L 202.7 169.9 L 190 142.7" fill="none" stroke="#465362" stroke-width="5"></path><path d="M 254.5 23.6 L 267.1 50.7 L 247.9 73.7 L 260.5 100.9 L 318.4 32 L 331.1 59.2 L 311.8 82.1 L 324.5 109.3" fill="none" stroke="#f9dc5c" stroke-width="5"></path><path d="M 254.5 23.6 L 241.8 -3.6 L 261.1 -26.6 L 248.4 -53.8 L 190.5 15.1 L 177.9 -12 L 197.1 -35 L 184.5 -62.2" fill="none" stroke="#465362" stroke-width="5"></path><path d="M 248.9 -181.3 L 261.6 -154.1 L 242.3 -131.2 L 255 -104 L 312.8 -172.9 L 325.5 -145.7 L 306.2 -122.7 L 318.9 -95.6" fill="none" stroke="#f9dc5c" stroke-width="5"></path><path d="M 248.9 -181.3 L 236.2 -208.5 L 255.5 -231.5 L 242.8 -258.7 L 185 -189.7 L 172.3 -216.9 L 191.6 -239.9 L 178.9 -267.1" fill="none" stroke="#465362" stroke-width="5"></path><path d="M 416.6 1014.7 L 429.3 1041.9 L 410 1064.8 L 422.7 1092 L 480.5 1023.1 L 493.2 1050.3 L 473.9 1073.3 L 486.6 1100.4" fill="none" stroke="#f9dc5c" stroke-width="5"></path><path d="M 416.6 1014.7 L 403.9 987.5 L 423.2 964.5 L 410.6 937.3 L 352.7 1006.3 L 340 979.1 L 359.3 956.1 L 346.6 928.9" fill="none" stroke="#465362" stroke-width="5"></path><path d="M 411.1 809.8 L 423.8 837 L 404.5 860 L 417.2 887.1 L 475 818.2 L 487.7 845.4 L 468.4 868.4 L 481.1 895.6" fill="none" stroke="#f9dc5c" stroke-width="5"></path><path d="M 411.1 809.8 L 398.4 782.6 L 417.7 759.6 L 405 732.4 L 347.2 801.4 L 334.5 774.2 L 353.8 751.2 L 341.1 724" fill="none" stroke="#465362" stroke-width="5"></path><path d="M 405.5 604.9 L 418.2 632.1 L 398.9 655.1 L 411.6 682.2 L 469.5 613.3 L 482.1 640.5 L 462.9 663.5 L 475.5 690.7" fill="none" stroke="#f9dc5c" stroke-width="5"></path><path d="M 405.5 604.9 L 392.9 577.7 L 412.1 554.7 L 399.5 527.5 L 341.6 596.5 L 328.9 569.3 L 348.2 546.3 L 335.5 519.1" fill="none" stroke="#465362" stroke-width="5"></path><path d="M 400 400 L 412.7 427.2 L 393.4 450.2 L 406.1 477.4 L 463.9 408.4 L 476.6 435.6 L 457.3 458.6 L 470 485.8" fill="none" stroke="#f9dc5c" stroke-width="5"></path><path d="M 400 400 L 387.3 372.8 L 406.6 349.8 L 393.9 322.6 L 336.1 391.6 L 323.4 364.4 L 342.7 341.4 L 330 314.2" fill="none" stroke="#465362" stroke-width="5"></path><path d="M 394.5 195.1 L 407.1 222.3 L 387.9 245.3 L 400.5 272.5 L 458.4 203.5 L 471.1 230.7 L 451.8 253.7 L 464.5 280.9" fill="none" stroke="#f9dc5c" stroke-width="5"></path><path d="M 394.5 195.1 L 381.8 167.9 L 401.1 144.9 L 388.4 117.8 L 330.5 186.7 L 317.9 159.5 L 337.1 136.5 L 324.5 109.3" fill="none" stroke="#465362" stroke-width="5"></path><path d="M 388.9 -9.8 L 401.6 17.4 L 382.3 40.4 L 395 67.6 L 452.8 -1.4 L 465.5 25.8 L 446.2 48.8 L 458.9 76" fill="none" stroke="#f9dc5c" stroke-width="5"></path><path d="M 388.9 -9.8 L 376.2 -37 L 395.5 -60 L 382.8 -87.1 L 325 -18.2 L 312.3 -45.4 L 331.6 -68.4 L 318.9 -95.6" fill="none" stroke="#465362" stroke-width="5"></path><path d="M 383.4 -214.7 L 396.1 -187.5 L 376.8 -164.5 L 389.4 -137.3 L 447.3 -206.3 L 460 -179.1 L 440.7 -156.1 L 453.4 -128.9" fill="none" stroke="#f9dc5c" stroke-width="5"></path><path d="M 383.4 -214.7 L 370.7 -241.9 L 390 -264.8 L 377.3 -292 L 319.5 -223.1 L 306.8 -250.3 L 326.1 -273.3 L 313.4 -300.4" fill="none" stroke="#465362" stroke-width="5"></path><path d="M 551.1 981.3 L 563.8 1008.5 L 544.5 1031.5 L 557.2 1058.7 L 615 989.7 L 627.7 1016.9 L 608.4 1039.9 L 621.1 1067.1" fill="none" stroke="#f9dc5c" stroke-width="5"></path><path d="M 551.1 981.3 L 538.4 954.1 L 557.7 931.2 L 545 904 L 487.2 972.9 L 474.5 945.7 L 493.8 922.7 L 481.1 895.6" fill="none" stroke="#465362" stroke-width="5"></path><path d="M 545.5 776.4 L 558.2 803.6 L 538.9 826.6 L 551.6 853.8 L 609.5 784.9 L 622.1 812 L 602.9 835 L 615.5 862.2" fill="none" stroke="#f9dc5c" stroke-width="5"></path><path d="M 545.5 776.4 L 532.9 749.3 L 552.1 726.3 L 539.5 699.1 L 481.6 768 L 468.9 740.8 L 488.2 717.9 L 475.5 690.7" fill="none" stroke="#465362" stroke-width="5"></path><path d="M 540 571.6 L 552.7 598.7 L 533.4 621.7 L 546.1 648.9 L 603.9 580 L 616.6 607.2 L 597.3 630.1 L 610 657.3" fill="none" stroke="#f9dc5c" stroke-width="5"></path><path d="M 540 571.6 L 527.3 544.4 L 546.6 521.4 L 533.9 494.2 L 476.1 563.1 L 463.4 535.9 L 482.7 513 L 470 485.8" fill="none" stroke="#465362" stroke-width="5"></path><path d="M 534.5 366.7 L 547.1 393.9 L 527.8 416.8 L 540.5 444 L 598.4 375.1 L 611.1 402.3 L 591.8 425.2 L 604.5 452.4" fill="none" stroke="#f9dc5c" stroke-width="5"></path><path d="M 534.5 366.7 L 521.8 339.5 L 541.1 316.5 L 528.4 289.3 L 470.5 358.2 L 457.9 331.1 L 477.1 308.1 L 464.5 280.9" fill="none" stroke="#465362" stroke-width="5"></path><path d="M 528.9 161.8 L 541.6 189 L 522.3 211.9 L 535 239.1 L 592.8 170.2 L 605.5 197.4 L 586.2 220.4 L 598.9 247.5" fill="none" stroke="#f9dc5c" stroke-width="5"></path><path d="M 528.9 161.8 L 516.2 134.6 L 535.5 111.6 L 522.8 84.4 L 465 153.4 L 452.3 126.2 L 471.6 103.2 L 458.9 76" fill="none" stroke="#465362" stroke-width="5"></path><path d="M 523.4 -43.1 L 536 -15.9 L 516.8 7.1 L 529.4 34.2 L 587.3 -34.7 L 600 -7.5 L 580.7 15.5 L 593.4 42.7" fill="none" stroke="#f9dc5c" stroke-width="5"></path><path d="M 523.4 -43.1 L 510.7 -70.3 L 530 -93.3 L 517.3 -120.5 L 459.4 -51.5 L 446.8 -78.7 L 466.1 -101.7 L 453.4 -128.9" fill="none" stroke="#465362" stroke-width="5"></path><path d="M 517.8 -248 L 530.5 -220.8 L 511.2 -197.8 L 523.9 -170.6 L 581.8 -239.6 L 594.4 -212.4 L 575.1 -189.4 L 587.8 -162.2" fill="none" stroke="#f9dc5c" stroke-width="5"></path><path d="M 517.8 -248 L 505.1 -275.2 L 524.4 -298.2 L 511.8 -325.4 L 453.9 -256.4 L 441.2 -283.6 L 460.5 -306.6 L 447.8 -333.8" fill="none" stroke="#465362" stroke-width="5"></path><path d="M 685.5 948 L 698.2 975.2 L 678.9 998.2 L 691.6 1025.4 L 749.5 956.4 L 762.1 983.6 L 742.9 1006.6 L 755.5 1033.8" fill="none" stroke="#f9dc5c" stroke-width="5"></path><path d="M 685.5 948 L 672.9 920.8 L 692.1 897.8 L 679.5 870.6 L 621.6 939.6 L 608.9 912.4 L 628.2 889.4 L 615.5 862.2" fill="none" stroke="#465362" stroke-width="5"></path><path d="M 680 743.1 L 692.7 770.3 L 673.4 793.3 L 686.1 820.5 L 743.9 751.5 L 756.6 778.7 L 737.3 801.7 L 750 828.9" fill="none" stroke="#f9dc5c" stroke-width="5"></path><path d="M 680 743.1 L 667.3 715.9 L 686.6 692.9 L 673.9 665.7 L 616.1 734.7 L 603.4 707.5 L 622.7 684.5 L 610 657.3" fill="none" stroke="#465362" stroke-width="5"></path><path d="M 674.4 538.2 L 687.1 565.4 L 667.8 588.4 L 680.5 615.6 L 738.4 546.6 L 751.1 573.8 L 731.8 596.8 L 744.4 624" fill="none" stroke="#f9dc5c" stroke-width="5"></path><path d="M 674.4 538.2 L 661.8 511 L 681.1 488 L 668.4 460.9 L 610.5 529.8 L 597.8 502.6 L 617.1 479.6 L 604.5 452.4" fill="none" stroke="#465362" stroke-width="5"></path><path d="M 668.9 333.3 L 681.6 360.5 L 662.3 383.5 L 675 410.7 L 732.8 341.7 L 745.5 368.9 L 726.2 391.9 L 738.9 419.1" fill="none" stroke="#f9dc5c" stroke-width="5"></path><path d="M 668.9 333.3 L 656.2 306.1 L 675.5 283.2 L 662.8 256 L 605 324.9 L 592.3 297.7 L 611.6 274.7 L 598.9 247.5" fill="none" stroke="#465362" stroke-width="5"></path><path d="M 663.4 128.4 L 676 155.6 L 656.8 178.6 L 669.4 205.8 L 727.3 136.8 L 740 164 L 720.7 187 L 733.4 214.2" fill="none" stroke="#f9dc5c" stroke-width="5"></path><path d="M 663.4 128.4 L 650.7 101.2 L 670 78.3 L 657.3 51.1 L 599.4 120 L 586.8 92.8 L 606 69.8 L 593.4 42.7" fill="none" stroke="#465362" stroke-width="5"></path><path d="M 657.8 -76.5 L 670.5 -49.3 L 651.2 -26.3 L 663.9 0.9 L 721.7 -68 L 734.4 -40.9 L 715.1 -17.9 L 727.8 9.3" fill="none" stroke="#f9dc5c" stroke-width="5"></path><path d="M 657.8 -76.5 L 645.1 -103.6 L 664.4 -126.6 L 651.8 -153.8 L 593.9 -84.9 L 581.2 -112.1 L 600.5 -135 L 587.8 -162.2" fill="none" stroke="#465362" stroke-width="5"></path><path d="M 652.3 -281.3 L 665 -254.2 L 645.7 -231.2 L 658.4 -204 L 716.2 -272.9 L 728.9 -245.7 L 709.6 -222.8 L 722.3 -195.6" fill="none" stroke="#f9dc5c" stroke-width="5"></path><path d="M 652.3 -281.3 L 639.6 -308.5 L 658.9 -331.5 L 646.2 -358.7 L 588.4 -289.8 L 575.7 -317 L 595 -339.9 L 582.3 -367.1" fill="none" stroke="#465362" stroke-width="5"></path><path d="M 820 914.7 L 832.7 941.8 L 813.4 964.8 L 826.1 992 L 883.9 923.1 L 896.6 950.3 L 877.3 973.2 L 890 1000.4" fill="none" stroke="#f9dc5c" stroke-width="5"></path><path d="M 820 914.7 L 807.3 887.5 L 826.6 864.5 L 813.9 837.3 L 756.1 906.2 L 743.4 879 L 762.7 856.1 L 750 828.9" fill="none" stroke="#465362" stroke-width="5"></path><path d="M 814.4 709.8 L 827.1 737 L 807.8 759.9 L 820.5 787.1 L 878.4 718.2 L 891 745.4 L 871.8 768.3 L 884.4 795.5" fill="none" stroke="#f9dc5c" stroke-width="5"></path><path d="M 814.4 709.8 L 801.8 682.6 L 821.1 659.6 L 808.4 632.4 L 750.5 701.3 L 737.8 674.2 L 757.1 651.2 L 744.4 624" fill="none" stroke="#465362" stroke-width="5"></path><path d="M 808.9 504.9 L 821.6 532.1 L 802.3 555 L 815 582.2 L 872.8 513.3 L 885.5 540.5 L 866.2 563.5 L 878.9 590.6" fill="none" stroke="#f9dc5c" stroke-width="5"></path><path d="M 808.9 504.9 L 796.2 477.7 L 815.5 454.7 L 802.8 427.5 L 745 496.5 L 732.3 469.3 L 751.6 446.3 L 738.9 419.1" fill="none" stroke="#465362" stroke-width="5"></path><path d="M 803.4 300 L 816 327.2 L 796.8 350.2 L 809.4 377.3 L 867.3 308.4 L 880 335.6 L 860.7 358.6 L 873.4 385.8" fill="none" stroke="#f9dc5c" stroke-width="5"></path><path d="M 803.4 300 L 790.7 272.8 L 810 249.8 L 797.3 222.6 L 739.4 291.6 L 726.8 264.4 L 746 241.4 L 733.4 214.2" fill="none" stroke="#465362" stroke-width="5"></path><path d="M 797.8 95.1 L 810.5 122.3 L 791.2 145.3 L 803.9 172.5 L 861.7 103.5 L 874.4 130.7 L 855.1 153.7 L 867.8 180.9" fill="none" stroke="#f9dc5c" stroke-width="5"></path><path d="M 797.8 95.1 L 785.1 67.9 L 804.4 44.9 L 791.7 17.7 L 733.9 86.7 L 721.2 59.5 L 740.5 36.5 L 727.8 9.3" fill="none" stroke="#465362" stroke-width="5"></path><path d="M 792.3 -109.8 L 805 -82.6 L 785.7 -59.6 L 798.4 -32.4 L 856.2 -101.4 L 868.9 -74.2 L 849.6 -51.2 L 862.3 -24" fill="none" stroke="#f9dc5c" stroke-width="5"></path><path d="M 792.3 -109.8 L 779.6 -137 L 798.9 -160 L 786.2 -187.2 L 728.4 -118.2 L 715.7 -145.4 L 735 -168.4 L 722.3 -195.6" fill="none" stroke="#465362" stroke-width="5"></path><path d="M 786.7 -314.7 L 799.4 -287.5 L 780.1 -264.5 L 792.8 -237.3 L 850.7 -306.3 L 863.3 -279.1 L 844.1 -256.1 L 856.7 -228.9" fill="none" stroke="#f9dc5c" stroke-width="5"></path><path d="M 786.7 -314.7 L 774.1 -341.9 L 793.3 -364.9 L 780.7 -392 L 722.8 -323.1 L 710.1 -350.3 L 729.4 -373.3 L 716.7 -400.5" fill="none" stroke="#465362" stroke-width="5"></path><path d="M 954.4 881.3 L 967.1 908.5 L 947.8 931.5 L 960.5 958.7 L 1018.4 889.7 L 1031 916.9 L 1011.8 939.9 L 1024.4 967.1" fill="none" stroke="#f9dc5c" stroke-width="5"></path><path d="M 954.4 881.3 L 941.8 854.1 L 961 831.1 L 948.4 804 L 890.5 872.9 L 877.8 845.7 L 897.1 822.7 L 884.4 795.5" fill="none" stroke="#465362" stroke-width="5"></path><path d="M 948.9 676.4 L 961.6 703.6 L 942.3 726.6 L 955 753.8 L 1012.8 684.8 L 1025.5 712 L 1006.2 735 L 1018.9 762.2" fill="none" stroke="#f9dc5c" stroke-width="5"></path><path d="M 948.9 676.4 L 936.2 649.2 L 955.5 626.3 L 942.8 599.1 L 885 668 L 872.3 640.8 L 891.6 617.8 L 878.9 590.6" fill="none" stroke="#465362" stroke-width="5"></path><path d="M 943.4 471.5 L 956 498.7 L 936.8 521.7 L 949.4 548.9 L 1007.3 480 L 1020 507.1 L 1000.7 530.1 L 1013.4 557.3" fill="none" stroke="#f9dc5c" stroke-width="5"></path><path d="M 943.4 471.5 L 930.7 444.3 L 950 421.4 L 937.3 394.2 L 879.4 463.1 L 866.8 435.9 L 886 412.9 L 873.4 385.8" fill="none" stroke="#465362" stroke-width="5"></path><path d="M 937.8 266.6 L 950.5 293.8 L 931.2 316.8 L 943.9 344 L 1001.7 275.1 L 1014.4 302.2 L 995.1 325.2 L 1007.8 352.4" fill="none" stroke="#f9dc5c" stroke-width="5"></path><path d="M 937.8 266.6 L 925.1 239.5 L 944.4 216.5 L 931.7 189.3 L 873.9 258.2 L 861.2 231 L 880.5 208.1 L 867.8 180.9" fill="none" stroke="#465362" stroke-width="5"></path><path d="M 932.3 61.8 L 945 88.9 L 925.7 111.9 L 938.3 139.1 L 996.2 70.2 L 1008.9 97.4 L 989.6 120.3 L 1002.3 147.5" fill="none" stroke="#f9dc5c" stroke-width="5"></path><path d="M 932.3 61.8 L 919.6 34.6 L 938.9 11.6 L 926.2 -15.6 L 868.3 53.3 L 855.7 26.1 L 875 3.2 L 862.3 -24" fill="none" stroke="#465362" stroke-width="5"></path><path d="M 926.7 -143.1 L 939.4 -115.9 L 920.1 -93 L 932.8 -65.8 L 990.7 -134.7 L 1003.3 -107.5 L 984.1 -84.5 L 996.7 -57.4" fill="none" stroke="#f9dc5c" stroke-width="5"></path><path d="M 926.7 -143.1 L 914.1 -170.3 L 933.3 -193.3 L 920.7 -220.5 L 862.8 -151.6 L 850.1 -178.7 L 869.4 -201.7 L 856.7 -228.9" fill="none" stroke="#465362" stroke-width="5"></path><path d="M 921.2 -348 L 933.9 -320.8 L 914.6 -297.9 L 927.3 -270.7 L 985.1 -339.6 L 997.8 -312.4 L 978.5 -289.4 L 991.2 -262.3" fill="none" stroke="#f9dc5c" stroke-width="5"></path><path d="M 921.2 -348 L 908.5 -375.2 L 927.8 -398.2 L 915.1 -425.4 L 857.3 -356.4 L 844.6 -383.6 L 863.9 -406.6 L 851.2 -433.8" fill="none" stroke="#465362" stroke-width="5"></path><path d="M -121.2 1148 L -101.9 1125 L -89.2 1152.2 L -69.9 1129.3 L -108 1047.7 L -88.7 1024.7 L -76 1051.9 L -56.7 1028.9" fill="none" stroke="#ed254e" stroke-width="5"></path><path d="M -121.2 1148 L -140.5 1171 L -153.2 1143.8 L -172.4 1166.8 L -134.4 1248.4 L -153.7 1271.3 L -166.4 1244.2 L -185.6 1267.1" fill="none" stroke="#011936" stroke-width="5"></path><path d="M -126.7 943.1 L -107.4 920.2 L -94.8 947.3 L -75.5 924.4 L -113.5 842.8 L -94.2 819.8 L -81.6 847 L -62.3 824" fill="none" stroke="#ed254e" stroke-width="5"></path><path d="M -126.7 943.1 L -146 966.1 L -158.7 938.9 L -178 961.9 L -139.9 1043.5 L -159.2 1066.5 L -171.9 1039.3 L -191.2 1062.3" fill="none" stroke="#011936" stroke-width="5"></path><path d="M -132.3 738.2 L -113 715.3 L -100.3 742.5 L -81 719.5 L -119.1 637.9 L -99.8 614.9 L -87.1 642.1 L -67.8 619.1" fill="none" stroke="#ed254e" stroke-width="5"></path><path d="M -132.3 738.2 L -151.6 761.2 L -164.2 734 L -183.5 757 L -145.5 838.6 L -164.8 861.6 L -177.4 834.4 L -196.7 857.4" fill="none" stroke="#011936" stroke-width="5"></path><path d="M -137.8 533.4 L -118.5 510.4 L -105.9 537.6 L -86.6 514.6 L -124.6 433 L -105.3 410 L -92.6 437.2 L -73.4 414.2" fill="none" stroke="#ed254e" stroke-width="5"></path><path d="M -137.8 533.4 L -157.1 556.3 L -169.8 529.1 L -189.1 552.1 L -151 633.7 L -170.3 656.7 L -183 629.5 L -202.3 652.5" fill="none" stroke="#011936" stroke-width="5"></path><path d="M -143.4 328.5 L -124.1 305.5 L -111.4 332.7 L -92.1 309.7 L -130.1 228.1 L -110.9 205.1 L -98.2 232.3 L -78.9 209.4" fill="none" stroke="#ed254e" stroke-width="5"></path><path d="M -143.4 328.5 L -162.6 351.4 L -175.3 324.3 L -194.6 347.2 L -156.6 428.8 L -175.9 451.8 L -188.5 424.6 L -207.8 447.6" fill="none" stroke="#011936" stroke-width="5"></path><path d="M -148.9 123.6 L -129.6 100.6 L -116.9 127.8 L -97.7 104.8 L -135.7 23.2 L -116.4 0.3 L -103.7 27.4 L -84.4 4.5" fill="none" stroke="#ed254e" stroke-width="5"></path><path d="M -148.9 123.6 L -168.2 146.6 L -180.9 119.4 L -200.1 142.3 L -162.1 223.9 L -181.4 246.9 L -194.1 219.7 L -213.4 242.7" fill="none" stroke="#011936" stroke-width="5"></path><path d="M -154.4 -81.3 L -135.2 -104.3 L -122.5 -77.1 L -103.2 -100.1 L -141.2 -181.7 L -121.9 -204.6 L -109.3 -177.4 L -90 -200.4" fill="none" stroke="#ed254e" stroke-width="5"></path><path d="M -154.4 -81.3 L -173.7 -58.3 L -186.4 -85.5 L -205.7 -62.5 L -167.7 19 L -186.9 42 L -199.6 14.8 L -218.9 37.8" fill="none" stroke="#011936" stroke-width="5"></path><path d="M 13.3 1114.7 L 32.5 1091.7 L 45.2 1118.9 L 64.5 1095.9 L 26.5 1014.3 L 45.8 991.4 L 58.4 1018.6 L 77.7 995.6" fill="none" stroke="#ed254e" stroke-width="5"></path><path d="M 13.3 1114.7 L -6 1137.7 L -18.7 1110.5 L -38 1133.5 L 0.1 1215 L -19.2 1238 L -31.9 1210.8 L -51.2 1233.8" fill="none" stroke="#011936" stroke-width="5"></path><path d="M 7.7 909.8 L 27 886.8 L 39.7 914 L 59 891 L 20.9 809.5 L 40.2 786.5 L 52.9 813.7 L 72.2 790.7" fill="none" stroke="#ed254e" stroke-width="5"></path><path d="M 7.7 909.8 L -11.6 932.8 L -24.2 905.6 L -43.5 928.6 L -5.5 1010.1 L -24.8 1033.1 L -37.4 1005.9 L -56.7 1028.9" fill="none" stroke="#011936" stroke-width="5"></path><path d="M 2.2 704.9 L 21.5 681.9 L 34.1 709.1 L 53.4 686.1 L 15.4 604.6 L 34.7 581.6 L 47.4 608.8 L 66.6 585.8" fill="none" stroke="#ed254e" stroke-width="5"></path><path d="M 2.2 704.9 L -17.1 727.9 L -29.8 700.7 L -49.1 723.7 L -11 805.2 L -30.3 828.2 L -43 801 L -62.3 824" fill="none" stroke="#011936" stroke-width="5"></path><path d="M -3.4 500 L 15.9 477 L 28.6 504.2 L 47.9 481.2 L 9.8 399.7 L 29.1 376.7 L 41.8 403.9 L 61.1 380.9" fill="none" stroke="#ed254e" stroke-width="5"></path><path d="M -3.4 500 L -22.6 523 L -35.3 495.8 L -54.6 518.8 L -16.6 600.4 L -35.9 623.3 L -48.5 596.2 L -67.8 619.1" fill="none" stroke="#011936" stroke-width="5"></path><path d="M -8.9 295.1 L 10.4 272.1 L 23.1 299.3 L 42.3 276.4 L 4.3 194.8 L 23.6 171.8 L 36.3 199 L 55.6 176" fill="none" stroke="#ed254e" stroke-width="5"></path><path d="M -8.9 295.1 L -28.2 318.1 L -40.9 290.9 L -60.1 313.9 L -22.1 395.5 L -41.4 418.4 L -54.1 391.3 L -73.4 414.2" fill="none" stroke="#011936" stroke-width="5"></path><path d="M -14.4 90.2 L 4.8 67.3 L 17.5 94.4 L 36.8 71.5 L -1.2 -10.1 L 18 -33.1 L 30.7 -5.9 L 50 -28.9" fill="none" stroke="#ed254e" stroke-width="5"></path><path d="M -14.4 90.2 L -33.7 113.2 L -46.4 86 L -65.7 109 L -27.7 190.6 L -46.9 213.6 L -59.6 186.4 L -78.9 209.4" fill="none" stroke="#011936" stroke-width="5"></path><path d="M -20 -114.7 L -0.7 -137.6 L 12 -110.4 L 31.3 -133.4 L -6.8 -215 L 12.5 -238 L 25.2 -210.8 L 44.5 -233.8" fill="none" stroke="#ed254e" stroke-width="5"></path><path d="M -20 -114.7 L -39.3 -91.7 L -51.9 -118.9 L -71.2 -95.9 L -33.2 -14.3 L -52.5 8.7 L -65.2 -18.5 L -84.4 4.5" fill="none" stroke="#011936" stroke-width="5"></path><path d="M 147.7 1081.3 L 167 1058.4 L 179.7 1085.6 L 199 1062.6 L 160.9 981 L 180.2 958 L 192.9 985.2 L 212.2 962.2" fill="none" stroke="#ed254e" stroke-width="5"></path><path d="M 147.7 1081.3 L 128.4 1104.3 L 115.8 1077.1 L 96.5 1100.1 L 134.5 1181.7 L 115.2 1204.7 L 102.5 1177.5 L 83.3 1200.5" fill="none" stroke="#011936" stroke-width="5"></path><path d="M 142.2 876.5 L 161.5 853.5 L 174.1 880.7 L 193.4 857.7 L 155.4 776.1 L 174.7 753.1 L 187.3 780.3 L 206.6 757.3" fill="none" stroke="#ed254e" stroke-width="5"></path><path d="M 142.2 876.5 L 122.9 899.4 L 110.2 872.3 L 90.9 895.2 L 129 976.8 L 109.7 999.8 L 97 972.6 L 77.7 995.6" fill="none" stroke="#011936" stroke-width="5"></path><path d="M 136.6 671.6 L 155.9 648.6 L 168.6 675.8 L 187.9 652.8 L 149.8 571.2 L 169.1 548.2 L 181.8 575.4 L 201.1 552.5" fill="none" stroke="#ed254e" stroke-width="5"></path><path d="M 136.6 671.6 L 117.4 694.5 L 104.7 667.4 L 85.4 690.3 L 123.4 771.9 L 104.1 794.9 L 91.5 767.7 L 72.2 790.7" fill="none" stroke="#011936" stroke-width="5"></path><path d="M 131.1 466.7 L 150.4 443.7 L 163.1 470.9 L 182.3 447.9 L 144.3 366.3 L 163.6 343.4 L 176.3 370.5 L 195.5 347.6" fill="none" stroke="#ed254e" stroke-width="5"></path><path d="M 131.1 466.7 L 111.8 489.7 L 99.1 462.5 L 79.8 485.5 L 117.9 567 L 98.6 590 L 85.9 562.8 L 66.6 585.8" fill="none" stroke="#011936" stroke-width="5"></path><path d="M 125.6 261.8 L 144.8 238.8 L 157.5 266 L 176.8 243 L 138.8 161.4 L 158 138.5 L 170.7 165.7 L 190 142.7" fill="none" stroke="#ed254e" stroke-width="5"></path><path d="M 125.6 261.8 L 106.3 284.8 L 93.6 257.6 L 74.3 280.6 L 112.3 362.1 L 93.1 385.1 L 80.4 357.9 L 61.1 380.9" fill="none" stroke="#011936" stroke-width="5"></path><path d="M 120 56.9 L 139.3 33.9 L 152 61.1 L 171.3 38.1 L 133.2 -43.4 L 152.5 -66.4 L 165.2 -39.2 L 184.5 -62.2" fill="none" stroke="#ed254e" stroke-width="5"></path><path d="M 120 56.9 L 100.7 79.9 L 88 52.7 L 68.8 75.7 L 106.8 157.2 L 87.5 180.2 L 74.8 153 L 55.6 176" fill="none" stroke="#011936" stroke-width="5"></path><path d="M 114.5 -148 L 133.8 -171 L 146.4 -143.8 L 165.7 -166.8 L 127.7 -248.3 L 147 -271.3 L 159.6 -244.1 L 178.9 -267.1" fill="none" stroke="#ed254e" stroke-width="5"></path><path d="M 114.5 -148 L 95.2 -125 L 82.5 -152.2 L 63.2 -129.2 L 101.3 -47.7 L 82 -24.7 L 69.3 -51.9 L 50 -28.9" fill="none" stroke="#011936" stroke-width="5"></path><path d="M 282.2 1048 L 301.5 1025 L 314.1 1052.2 L 333.4 1029.2 L 295.4 947.7 L 314.7 924.7 L 327.3 951.9 L 346.6 928.9" fill="none" stroke="#ed254e" stroke-width="5"></path><path d="M 282.2 1048 L 262.9 1071 L 250.2 1043.8 L 230.9 1066.8 L 269 1148.4 L 249.7 1171.3 L 237 1144.1 L 217.7 1167.1" fill="none" stroke="#011936" stroke-width="5"></path><path d="M 276.6 843.1 L 295.9 820.1 L 308.6 847.3 L 327.9 824.3 L 289.8 742.8 L 309.1 719.8 L 321.8 747 L 341.1 724" fill="none" stroke="#ed254e" stroke-width="5"></path><path d="M 276.6 843.1 L 257.3 866.1 L 244.7 838.9 L 225.4 861.9 L 263.4 943.5 L 244.1 966.4 L 231.5 939.3 L 212.2 962.2" fill="none" stroke="#011936" stroke-width="5"></path><path d="M 271.1 638.2 L 290.4 615.2 L 303.1 642.4 L 322.3 619.5 L 284.3 537.9 L 303.6 514.9 L 316.3 542.1 L 335.5 519.1" fill="none" stroke="#ed254e" stroke-width="5"></path><path d="M 271.1 638.2 L 251.8 661.2 L 239.1 634 L 219.8 657 L 257.9 738.6 L 238.6 761.6 L 225.9 734.4 L 206.6 757.3" fill="none" stroke="#011936" stroke-width="5"></path><path d="M 265.5 433.3 L 284.8 410.4 L 297.5 437.5 L 316.8 414.6 L 278.8 333 L 298 310 L 310.7 337.2 L 330 314.2" fill="none" stroke="#ed254e" stroke-width="5"></path><path d="M 265.5 433.3 L 246.3 456.3 L 233.6 429.1 L 214.3 452.1 L 252.3 533.7 L 233.1 556.7 L 220.4 529.5 L 201.1 552.5" fill="none" stroke="#011936" stroke-width="5"></path><path d="M 260 228.4 L 279.3 205.5 L 292 232.7 L 311.3 209.7 L 273.2 128.1 L 292.5 105.1 L 305.2 132.3 L 324.5 109.3" fill="none" stroke="#ed254e" stroke-width="5"></path><path d="M 260 228.4 L 240.7 251.4 L 228 224.2 L 208.8 247.2 L 246.8 328.8 L 227.5 351.8 L 214.8 324.6 L 195.5 347.6" fill="none" stroke="#011936" stroke-width="5"></path><path d="M 254.5 23.6 L 273.7 0.6 L 286.4 27.8 L 305.7 4.8 L 267.7 -76.8 L 287 -99.8 L 299.6 -72.6 L 318.9 -95.6" fill="none" stroke="#ed254e" stroke-width="5"></path><path d="M 254.5 23.6 L 235.2 46.5 L 222.5 19.4 L 203.2 42.3 L 241.3 123.9 L 222 146.9 L 209.3 119.7 L 190 142.7" fill="none" stroke="#011936" stroke-width="5"></path><path d="M 248.9 -181.3 L 268.2 -204.3 L 280.9 -177.1 L 300.2 -200.1 L 262.1 -281.7 L 281.4 -304.7 L 294.1 -277.5 L 313.4 -300.4" fill="none" stroke="#ed254e" stroke-width="5"></path><path d="M 248.9 -181.3 L 229.6 -158.4 L 217 -185.5 L 197.7 -162.6 L 235.7 -81 L 216.4 -58 L 203.7 -85.2 L 184.5 -62.2" fill="none" stroke="#011936" stroke-width="5"></path><path d="M 416.6 1014.7 L 435.9 991.7 L 448.6 1018.9 L 467.9 995.9 L 429.8 914.3 L 449.1 891.3 L 461.8 918.5 L 481.1 895.6" fill="none" stroke="#ed254e" stroke-width="5"></path><path d="M 416.6 1014.7 L 397.3 1037.7 L 384.7 1010.5 L 365.4 1033.4 L 403.4 1115 L 384.1 1138 L 371.5 1110.8 L 352.2 1133.8" fill="none" stroke="#011936" stroke-width="5"></path><path d="M 411.1 809.8 L 430.4 786.8 L 443 814 L 462.3 791 L 424.3 709.4 L 443.6 686.5 L 456.3 713.6 L 475.5 690.7" fill="none" stroke="#ed254e" stroke-width="5"></path><path d="M 411.1 809.8 L 391.8 832.8 L 379.1 805.6 L 359.8 828.6 L 397.9 910.1 L 378.6 933.1 L 365.9 905.9 L 346.6 928.9" fill="none" stroke="#011936" stroke-width="5"></path><path d="M 405.5 604.9 L 424.8 581.9 L 437.5 609.1 L 456.8 586.1 L 418.8 504.5 L 438 481.6 L 450.7 508.8 L 470 485.8" fill="none" stroke="#ed254e" stroke-width="5"></path><path d="M 405.5 604.9 L 386.3 627.9 L 373.6 600.7 L 354.3 623.7 L 392.3 705.2 L 373 728.2 L 360.4 701 L 341.1 724" fill="none" stroke="#011936" stroke-width="5"></path><path d="M 400 400 L 419.3 377 L 432 404.2 L 451.2 381.2 L 413.2 299.7 L 432.5 276.7 L 445.2 303.9 L 464.5 280.9" fill="none" stroke="#ed254e" stroke-width="5"></path><path d="M 400 400 L 380.7 423 L 368 395.8 L 348.8 418.8 L 386.8 500.3 L 367.5 523.3 L 354.8 496.1 L 335.5 519.1" fill="none" stroke="#011936" stroke-width="5"></path><path d="M 394.5 195.1 L 413.7 172.1 L 426.4 199.3 L 445.7 176.3 L 407.7 94.8 L 427 71.8 L 439.6 99 L 458.9 76" fill="none" stroke="#ed254e" stroke-width="5"></path><path d="M 394.5 195.1 L 375.2 218.1 L 362.5 190.9 L 343.2 213.9 L 381.2 295.5 L 362 318.4 L 349.3 291.2 L 330 314.2" fill="none" stroke="#011936" stroke-width="5"></path><path d="M 388.9 -9.8 L 408.2 -32.8 L 420.9 -5.6 L 440.2 -28.6 L 402.1 -110.1 L 421.4 -133.1 L 434.1 -105.9 L 453.4 -128.9" fill="none" stroke="#ed254e" stroke-width="5"></path><path d="M 388.9 -9.8 L 369.6 13.2 L 357 -14 L 337.7 9 L 375.7 90.6 L 356.4 113.5 L 343.7 86.4 L 324.5 109.3" fill="none" stroke="#011936" stroke-width="5"></path><path d="M 383.4 -214.7 L 402.7 -237.7 L 415.3 -210.5 L 434.6 -233.4 L 396.6 -315 L 415.9 -338 L 428.5 -310.8 L 447.8 -333.8" fill="none" stroke="#ed254e" stroke-width="5"></path><path d="M 383.4 -214.7 L 364.1 -191.7 L 351.4 -218.9 L 332.1 -195.9 L 370.2 -114.3 L 350.9 -91.3 L 338.2 -118.5 L 318.9 -95.6" fill="none" stroke="#011936" stroke-width="5"></path><path d="M 551.1 981.3 L 570.4 958.4 L 583 985.5 L 602.3 962.6 L 564.3 881 L 583.6 858 L 596.3 885.2 L 615.5 862.2" fill="none" stroke="#ed254e" stroke-width="5"></path><path d="M 551.1 981.3 L 531.8 1004.3 L 519.1 977.1 L 499.8 1000.1 L 537.9 1081.7 L 518.6 1104.7 L 505.9 1077.5 L 486.6 1100.4" fill="none" stroke="#011936" stroke-width="5"></path><path d="M 545.5 776.4 L 564.8 753.5 L 577.5 780.6 L 596.8 757.7 L 558.7 676.1 L 578 653.1 L 590.7 680.3 L 610 657.3" fill="none" stroke="#ed254e" stroke-width="5"></path><path d="M 545.5 776.4 L 526.3 799.4 L 513.6 772.2 L 494.3 795.2 L 532.3 876.8 L 513 899.8 L 500.4 872.6 L 481.1 895.6" fill="none" stroke="#011936" stroke-width="5"></path><path d="M 540 571.6 L 559.3 548.6 L 572 575.8 L 591.2 552.8 L 553.2 471.2 L 572.5 448.2 L 585.2 475.4 L 604.5 452.4" fill="none" stroke="#ed254e" stroke-width="5"></path><path d="M 540 571.6 L 520.7 594.5 L 508 567.3 L 488.7 590.3 L 526.8 671.9 L 507.5 694.9 L 494.8 667.7 L 475.5 690.7" fill="none" stroke="#011936" stroke-width="5"></path><path d="M 534.5 366.7 L 553.7 343.7 L 566.4 370.9 L 585.7 347.9 L 547.7 266.3 L 566.9 243.3 L 579.6 270.5 L 598.9 247.5" fill="none" stroke="#ed254e" stroke-width="5"></path><path d="M 534.5 366.7 L 515.2 389.6 L 502.5 362.5 L 483.2 385.4 L 521.2 467 L 502 490 L 489.3 462.8 L 470 485.8" fill="none" stroke="#011936" stroke-width="5"></path><path d="M 528.9 161.8 L 548.2 138.8 L 560.9 166 L 580.2 143 L 542.1 61.4 L 561.4 38.4 L 574.1 65.6 L 593.4 42.7" fill="none" stroke="#ed254e" stroke-width="5"></path><path d="M 528.9 161.8 L 509.6 184.8 L 496.9 157.6 L 477.7 180.5 L 515.7 262.1 L 496.4 285.1 L 483.7 257.9 L 464.5 280.9" fill="none" stroke="#011936" stroke-width="5"></path><path d="M 523.4 -43.1 L 542.7 -66.1 L 555.3 -38.9 L 574.6 -61.9 L 536.6 -143.5 L 555.9 -166.4 L 568.5 -139.3 L 587.8 -162.2" fill="none" stroke="#ed254e" stroke-width="5"></path><path d="M 523.4 -43.1 L 504.1 -20.1 L 491.4 -47.3 L 472.1 -24.3 L 510.2 57.2 L 490.9 80.2 L 478.2 53 L 458.9 76" fill="none" stroke="#011936" stroke-width="5"></path><path d="M 517.8 -248 L 537.1 -271 L 549.8 -243.8 L 569.1 -266.8 L 531 -348.4 L 550.3 -371.3 L 563 -344.1 L 582.3 -367.1" fill="none" stroke="#ed254e" stroke-width="5"></path><path d="M 517.8 -248 L 498.5 -225 L 485.9 -252.2 L 466.6 -229.2 L 504.6 -147.7 L 485.3 -124.7 L 472.7 -151.9 L 453.4 -128.9" fill="none" stroke="#011936" stroke-width="5"></path><path d="M 685.5 948 L 704.8 925 L 717.5 952.2 L 736.8 929.2 L 698.7 847.7 L 718 824.7 L 730.7 851.9 L 750 828.9" fill="none" stroke="#ed254e" stroke-width="5"></path><path d="M 685.5 948 L 666.2 971 L 653.6 943.8 L 634.3 966.8 L 672.3 1048.3 L 653 1071.3 L 640.4 1044.1 L 621.1 1067.1" fill="none" stroke="#011936" stroke-width="5"></path><path d="M 680 743.1 L 699.3 720.1 L 712 747.3 L 731.2 724.3 L 693.2 642.8 L 712.5 619.8 L 725.2 647 L 744.4 624" fill="none" stroke="#ed254e" stroke-width="5"></path><path d="M 680 743.1 L 660.7 766.1 L 648 738.9 L 628.7 761.9 L 666.8 843.4 L 647.5 866.4 L 634.8 839.2 L 615.5 862.2" fill="none" stroke="#011936" stroke-width="5"></path><path d="M 674.4 538.2 L 693.7 515.2 L 706.4 542.4 L 725.7 519.4 L 687.7 437.9 L 706.9 414.9 L 719.6 442.1 L 738.9 419.1" fill="none" stroke="#ed254e" stroke-width="5"></path><path d="M 674.4 538.2 L 655.2 561.2 L 642.5 534 L 623.2 557 L 661.2 638.6 L 642 661.5 L 629.3 634.3 L 610 657.3" fill="none" stroke="#011936" stroke-width="5"></path><path d="M 668.9 333.3 L 688.2 310.3 L 700.9 337.5 L 720.2 314.5 L 682.1 233 L 701.4 210 L 714.1 237.2 L 733.4 214.2" fill="none" stroke="#ed254e" stroke-width="5"></path><path d="M 668.9 333.3 L 649.6 356.3 L 636.9 329.1 L 617.7 352.1 L 655.7 433.7 L 636.4 456.6 L 623.7 429.5 L 604.5 452.4" fill="none" stroke="#011936" stroke-width="5"></path><path d="M 663.4 128.4 L 682.6 105.5 L 695.3 132.6 L 714.6 109.7 L 676.6 28.1 L 695.9 5.1 L 708.5 32.3 L 727.8 9.3" fill="none" stroke="#ed254e" stroke-width="5"></path><path d="M 663.4 128.4 L 644.1 151.4 L 631.4 124.2 L 612.1 147.2 L 650.2 228.8 L 630.9 251.8 L 618.2 224.6 L 598.9 247.5" fill="none" stroke="#011936" stroke-width="5"></path><path d="M 657.8 -76.5 L 677.1 -99.4 L 689.8 -72.3 L 709.1 -95.2 L 671 -176.8 L 690.3 -199.8 L 703 -172.6 L 722.3 -195.6" fill="none" stroke="#ed254e" stroke-width="5"></path><path d="M 657.8 -76.5 L 638.5 -53.5 L 625.9 -80.7 L 606.6 -57.7 L 644.6 23.9 L 625.3 46.9 L 612.7 19.7 L 593.4 42.7" fill="none" stroke="#011936" stroke-width="5"></path><path d="M 652.3 -281.3 L 671.6 -304.3 L 684.2 -277.1 L 703.5 -300.1 L 665.5 -381.7 L 684.8 -404.7 L 697.5 -377.5 L 716.7 -400.5" fill="none" stroke="#ed254e" stroke-width="5"></path><path d="M 652.3 -281.3 L 633 -258.4 L 620.3 -285.6 L 601 -262.6 L 639.1 -181 L 619.8 -158 L 607.1 -185.2 L 587.8 -162.2" fill="none" stroke="#011936" stroke-width="5"></path><path d="M 820 914.7 L 839.3 891.7 L 851.9 918.9 L 871.2 895.9 L 833.2 814.3 L 852.5 791.3 L 865.2 818.5 L 884.4 795.5" fill="none" stroke="#ed254e" stroke-width="5"></path><path d="M 820 914.7 L 800.7 937.6 L 788 910.4 L 768.7 933.4 L 806.8 1015 L 787.5 1038 L 774.8 1010.8 L 755.5 1033.8" fill="none" stroke="#011936" stroke-width="5"></path><path d="M 814.4 709.8 L 833.7 686.8 L 846.4 714 L 865.7 691 L 827.7 609.4 L 846.9 586.4 L 859.6 613.6 L 878.9 590.6" fill="none" stroke="#ed254e" stroke-width="5"></path><path d="M 814.4 709.8 L 795.2 732.7 L 782.5 705.6 L 763.2 728.5 L 801.2 810.1 L 782 833.1 L 769.3 805.9 L 750 828.9" fill="none" stroke="#011936" stroke-width="5"></path><path d="M 808.9 504.9 L 828.2 481.9 L 840.9 509.1 L 860.1 486.1 L 822.1 404.5 L 841.4 381.6 L 854.1 408.7 L 873.4 385.8" fill="none" stroke="#ed254e" stroke-width="5"></path><path d="M 808.9 504.9 L 789.6 527.9 L 776.9 500.7 L 757.7 523.6 L 795.7 605.2 L 776.4 628.2 L 763.7 601 L 744.4 624" fill="none" stroke="#011936" stroke-width="5"></path><path d="M 803.4 300 L 822.6 277 L 835.3 304.2 L 854.6 281.2 L 816.6 199.6 L 835.9 176.7 L 848.5 203.8 L 867.8 180.9" fill="none" stroke="#ed254e" stroke-width="5"></path><path d="M 803.4 300 L 784.1 323 L 771.4 295.8 L 752.1 318.8 L 790.2 400.3 L 770.9 423.3 L 758.2 396.1 L 738.9 419.1" fill="none" stroke="#011936" stroke-width="5"></path><path d="M 797.8 95.1 L 817.1 72.1 L 829.8 99.3 L 849.1 76.3 L 811 -5.2 L 830.3 -28.2 L 843 -1 L 862.3 -24" fill="none" stroke="#ed254e" stroke-width="5"></path><path d="M 797.8 95.1 L 778.5 118.1 L 765.9 90.9 L 746.6 113.9 L 784.6 195.4 L 765.3 218.4 L 752.6 191.2 L 733.4 214.2" fill="none" stroke="#011936" stroke-width="5"></path><path d="M 792.3 -109.8 L 811.6 -132.8 L 824.2 -105.6 L 843.5 -128.6 L 805.5 -210.1 L 824.8 -233.1 L 837.4 -205.9 L 856.7 -228.9" fill="none" stroke="#ed254e" stroke-width="5"></path><path d="M 792.3 -109.8 L 773 -86.8 L 760.3 -114 L 741 -91 L 779.1 -9.5 L 759.8 13.5 L 747.1 -13.7 L 727.8 9.3" fill="none" stroke="#011936" stroke-width="5"></path><path d="M 786.7 -314.7 L 806 -337.7 L 818.7 -310.5 L 838 -333.5 L 799.9 -415 L 819.2 -438 L 831.9 -410.8 L 851.2 -433.8" fill="none" stroke="#ed254e" stroke-width="5"></path><path d="M 786.7 -314.7 L 767.5 -291.7 L 754.8 -318.9 L 735.5 -295.9 L 773.5 -214.3 L 754.2 -191.4 L 741.6 -218.6 L 722.3 -195.6" fill="none" stroke="#011936" stroke-width="5"></path><path d="M 954.4 881.3 L 973.7 858.3 L 986.4 885.5 L 1005.7 862.5 L 967.7 781 L 986.9 758 L 999.6 785.2 L 1018.9 762.2" fill="none" stroke="#ed254e" stroke-width="5"></path><path d="M 954.4 881.3 L 935.2 904.3 L 922.5 877.1 L 903.2 900.1 L 941.2 981.7 L 921.9 1004.6 L 909.3 977.4 L 890 1000.4" fill="none" stroke="#011936" stroke-width="5"></path><path d="M 948.9 676.4 L 968.2 653.4 L 980.9 680.6 L 1000.1 657.7 L 962.1 576.1 L 981.4 553.1 L 994.1 580.3 L 1013.4 557.3" fill="none" stroke="#ed254e" stroke-width="5"></path><path d="M 948.9 676.4 L 929.6 699.4 L 916.9 672.2 L 897.7 695.2 L 935.7 776.8 L 916.4 799.7 L 903.7 772.6 L 884.4 795.5" fill="none" stroke="#011936" stroke-width="5"></path><path d="M 943.4 471.5 L 962.6 448.6 L 975.3 475.7 L 994.6 452.8 L 956.6 371.2 L 975.9 348.2 L 988.5 375.4 L 1007.8 352.4" fill="none" stroke="#ed254e" stroke-width="5"></path><path d="M 943.4 471.5 L 924.1 494.5 L 911.4 467.3 L 892.1 490.3 L 930.1 571.9 L 910.9 594.9 L 898.2 567.7 L 878.9 590.6" fill="none" stroke="#011936" stroke-width="5"></path><path d="M 937.8 266.6 L 957.1 243.7 L 969.8 270.9 L 989.1 247.9 L 951 166.3 L 970.3 143.3 L 983 170.5 L 1002.3 147.5" fill="none" stroke="#ed254e" stroke-width="5"></path><path d="M 937.8 266.6 L 918.5 289.6 L 905.9 262.4 L 886.6 285.4 L 924.6 367 L 905.3 390 L 892.6 362.8 L 873.4 385.8" fill="none" stroke="#011936" stroke-width="5"></path><path d="M 932.3 61.8 L 951.6 38.8 L 964.2 66 L 983.5 43 L 945.5 -38.6 L 964.8 -61.6 L 977.4 -34.4 L 996.7 -57.4" fill="none" stroke="#ed254e" stroke-width="5"></path><path d="M 932.3 61.8 L 913 84.7 L 900.3 57.5 L 881 80.5 L 919.1 162.1 L 899.8 185.1 L 887.1 157.9 L 867.8 180.9" fill="none" stroke="#011936" stroke-width="5"></path><path d="M 926.7 -143.1 L 946 -166.1 L 958.7 -138.9 L 978 -161.9 L 939.9 -243.5 L 959.2 -266.5 L 971.9 -239.3 L 991.2 -262.3" fill="none" stroke="#ed254e" stroke-width="5"></path><path d="M 926.7 -143.1 L 907.4 -120.2 L 894.8 -147.3 L 875.5 -124.4 L 913.5 -42.8 L 894.2 -19.8 L 881.6 -47 L 862.3 -24" fill="none" stroke="#011936" stroke-width="5"></path><path d="M 921.2 -348 L 940.5 -371 L 953.2 -343.8 L 972.4 -366.8 L 934.4 -448.4 L 953.7 -471.3 L 966.4 -444.2 L 985.6 -467.1" fill="none" stroke="#ed254e" stroke-width="5"></path><path d="M 921.2 -348 L 901.9 -325 L 889.2 -352.2 L 869.9 -329.3 L 908 -247.7 L 888.7 -224.7 L 876 -251.9 L 856.7 -228.9" fill="none" stroke="#011936" stroke-width="5"></path><ellipse cx="400" cy="400" rx="600" ry="600" fill="none" stroke="white" stroke-width="560"></ellipse><ellipse cx="400" cy="400" rx="320" ry="320" fill="none" stroke="#011936" stroke-width="5"></ellipse></svg>