<svg viewBox="0 0 800 800" preserveAspectRatio="xMidYMin slice" xmlns="http://www.w3.org/2000/svg" xlink="http://www.w3.org/1999/xlink"><rect x="0" y="0" width="800" height="800" fill="#b56576"></rect><path d="M -304.7 -151.5 L -274.1 -120.9 L -304.7 -90.3 L -274.1 -59.6 L -304.7 -29 L -335.4 -59.6 L -366 -29 L -396.7 -59.6 L -366 -90.3 L -396.7 -120.9 L -366 -151.5 L -335.4 -120.9 Z" fill="#e56b6f" stroke="#355070" stroke-width="4"></path><path d="M -335.4 -120.9 L -396.7 -182.2 L -366 -212.8 L -304.7 -151.5 Z" fill="#6d597a" stroke="#355070" stroke-width="4"></path><path d="M -335.4 -59.6 L -274.1 1.7 L -304.7 32.3 L -366 -29 Z" fill="#6d597a" stroke="#355070" stroke-width="4"></path><path d="M -366 -90.3 L -396.7 -120.9 L -458 -59.6 L -427.3 -29 Z" fill="#6d597a" stroke="#355070" stroke-width="4"></path><path d="M -304.7 -90.3 L -274.1 -59.6 L -212.8 -120.9 L -243.5 -151.5 Z" fill="#6d597a" stroke="#355070" stroke-width="4"></path><path d="M -151.5 -182.2 L -120.9 -151.5 L -151.5 -120.9 L -120.9 -90.3 L -151.5 -59.6 L -182.2 -90.3 L -212.8 -59.6 L -243.5 -90.3 L -212.8 -120.9 L -243.5 -151.5 L -212.8 -182.2 L -182.2 -151.5 Z" fill="#eaac8b" stroke="#355070" stroke-width="4"></path><path d="M -182.2 -151.5 L -243.5 -212.8 L -212.8 -243.5 L -151.5 -182.2 Z" fill="#6d597a" stroke="#355070" stroke-width="4"></path><path d="M -182.2 -90.3 L -120.9 -29 L -151.5 1.7 L -212.8 -59.6 Z" fill="#6d597a" stroke="#355070" stroke-width="4"></path><path d="M -212.8 -120.9 L -243.5 -151.5 L -304.7 -90.3 L -274.1 -59.6 Z" fill="#6d597a" stroke="#355070" stroke-width="4"></path><path d="M -151.5 -120.9 L -120.9 -90.3 L -59.6 -151.5 L -90.3 -182.2 Z" fill="#6d597a" stroke="#355070" stroke-width="4"></path><path d="M 1.7 -212.8 L 32.3 -182.2 L 1.7 -151.5 L 32.3 -120.9 L 1.7 -90.3 L -29 -120.9 L -59.6 -90.3 L -90.3 -120.9 L -59.6 -151.5 L -90.3 -182.2 L -59.6 -212.8 L -29 -182.2 Z" fill="#e56b6f" stroke="#355070" stroke-width="4"></path><path d="M -29 -182.2 L -90.3 -243.5 L -59.6 -274.1 L 1.7 -212.8 Z" fill="#6d597a" stroke="#355070" stroke-width="4"></path><path d="M -29 -120.9 L 32.3 -59.6 L 1.7 -29 L -59.6 -90.3 Z" fill="#6d597a" stroke="#355070" stroke-width="4"></path><path d="M -59.6 -151.5 L -90.3 -182.2 L -151.5 -120.9 L -120.9 -90.3 Z" fill="#6d597a" stroke="#355070" stroke-width="4"></path><path d="M 1.7 -151.5 L 32.3 -120.9 L 93.6 -182.2 L 62.9 -212.8 Z" fill="#6d597a" stroke="#355070" stroke-width="4"></path><path d="M 154.9 -243.5 L 185.5 -212.8 L 154.9 -182.2 L 185.5 -151.5 L 154.9 -120.9 L 124.2 -151.5 L 93.6 -120.9 L 62.9 -151.5 L 93.6 -182.2 L 62.9 -212.8 L 93.6 -243.5 L 124.2 -212.8 Z" fill="#eaac8b" stroke="#355070" stroke-width="4"></path><path d="M 124.2 -212.8 L 62.9 -274.1 L 93.6 -304.7 L 154.9 -243.5 Z" fill="#6d597a" stroke="#355070" stroke-width="4"></path><path d="M 124.2 -151.5 L 185.5 -90.3 L 154.9 -59.6 L 93.6 -120.9 Z" fill="#6d597a" stroke="#355070" stroke-width="4"></path><path d="M 93.6 -182.2 L 62.9 -212.8 L 1.7 -151.5 L 32.3 -120.9 Z" fill="#6d597a" stroke="#355070" stroke-width="4"></path><path d="M 154.9 -182.2 L 185.5 -151.5 L 246.8 -212.8 L 216.2 -243.5 Z" fill="#6d597a" stroke="#355070" stroke-width="4"></path><path d="M 308.1 -274.1 L 338.7 -243.5 L 308.1 -212.8 L 338.7 -182.2 L 308.1 -151.5 L 277.4 -182.2 L 246.8 -151.5 L 216.2 -182.2 L 246.8 -212.8 L 216.2 -243.5 L 246.8 -274.1 L 277.4 -243.5 Z" fill="#e56b6f" stroke="#355070" stroke-width="4"></path><path d="M 277.4 -243.5 L 216.2 -304.7 L 246.8 -335.4 L 308.1 -274.1 Z" fill="#6d597a" stroke="#355070" stroke-width="4"></path><path d="M 277.4 -182.2 L 338.7 -120.9 L 308.1 -90.3 L 246.8 -151.5 Z" fill="#6d597a" stroke="#355070" stroke-width="4"></path><path d="M 246.8 -212.8 L 216.2 -243.5 L 154.9 -182.2 L 185.5 -151.5 Z" fill="#6d597a" stroke="#355070" stroke-width="4"></path><path d="M 308.1 -212.8 L 338.7 -182.2 L 400 -243.5 L 369.4 -274.1 Z" fill="#6d597a" stroke="#355070" stroke-width="4"></path><path d="M 461.3 -304.7 L 491.9 -274.1 L 461.3 -243.5 L 491.9 -212.8 L 461.3 -182.2 L 430.6 -212.8 L 400 -182.2 L 369.4 -212.8 L 400 -243.5 L 369.4 -274.1 L 400 -304.7 L 430.6 -274.1 Z" fill="#eaac8b" stroke="#355070" stroke-width="4"></path><path d="M 430.6 -274.1 L 369.4 -335.4 L 400 -366 L 461.3 -304.7 Z" fill="#6d597a" stroke="#355070" stroke-width="4"></path><path d="M 430.6 -212.8 L 491.9 -151.5 L 461.3 -120.9 L 400 -182.2 Z" fill="#6d597a" stroke="#355070" stroke-width="4"></path><path d="M 400 -243.5 L 369.4 -274.1 L 308.1 -212.8 L 338.7 -182.2 Z" fill="#6d597a" stroke="#355070" stroke-width="4"></path><path d="M 461.3 -243.5 L 491.9 -212.8 L 553.2 -274.1 L 522.6 -304.7 Z" fill="#6d597a" stroke="#355070" stroke-width="4"></path><path d="M 614.5 -335.4 L 645.1 -304.7 L 614.5 -274.1 L 645.1 -243.5 L 614.5 -212.8 L 583.8 -243.5 L 553.2 -212.8 L 522.6 -243.5 L 553.2 -274.1 L 522.6 -304.7 L 553.2 -335.4 L 583.8 -304.7 Z" fill="#e56b6f" stroke="#355070" stroke-width="4"></path><path d="M 583.8 -304.7 L 522.6 -366 L 553.2 -396.7 L 614.5 -335.4 Z" fill="#6d597a" stroke="#355070" stroke-width="4"></path><path d="M 583.8 -243.5 L 645.1 -182.2 L 614.5 -151.5 L 553.2 -212.8 Z" fill="#6d597a" stroke="#355070" stroke-width="4"></path><path d="M 553.2 -274.1 L 522.6 -304.7 L 461.3 -243.5 L 491.9 -212.8 Z" fill="#6d597a" stroke="#355070" stroke-width="4"></path><path d="M 614.5 -274.1 L 645.1 -243.5 L 706.4 -304.7 L 675.8 -335.4 Z" fill="#6d597a" stroke="#355070" stroke-width="4"></path><path d="M 767.7 -366 L 798.3 -335.4 L 767.7 -304.7 L 798.3 -274.1 L 767.7 -243.5 L 737.1 -274.1 L 706.4 -243.5 L 675.8 -274.1 L 706.4 -304.7 L 675.8 -335.4 L 706.4 -366 L 737.1 -335.4 Z" fill="#eaac8b" stroke="#355070" stroke-width="4"></path><path d="M 737.1 -335.4 L 675.8 -396.7 L 706.4 -427.3 L 767.7 -366 Z" fill="#6d597a" stroke="#355070" stroke-width="4"></path><path d="M 737.1 -274.1 L 798.3 -212.8 L 767.7 -182.2 L 706.4 -243.5 Z" fill="#6d597a" stroke="#355070" stroke-width="4"></path><path d="M 706.4 -304.7 L 675.8 -335.4 L 614.5 -274.1 L 645.1 -243.5 Z" fill="#6d597a" stroke="#355070" stroke-width="4"></path><path d="M 767.7 -304.7 L 798.3 -274.1 L 859.6 -335.4 L 829 -366 Z" fill="#6d597a" stroke="#355070" stroke-width="4"></path><path d="M 920.9 -396.7 L 951.5 -366 L 920.9 -335.4 L 951.5 -304.7 L 920.9 -274.1 L 890.3 -304.7 L 859.6 -274.1 L 829 -304.7 L 859.6 -335.4 L 829 -366 L 859.6 -396.7 L 890.3 -366 Z" fill="#e56b6f" stroke="#355070" stroke-width="4"></path><path d="M 890.3 -366 L 829 -427.3 L 859.6 -458 L 920.9 -396.7 Z" fill="#6d597a" stroke="#355070" stroke-width="4"></path><path d="M 890.3 -304.7 L 951.5 -243.5 L 920.9 -212.8 L 859.6 -274.1 Z" fill="#6d597a" stroke="#355070" stroke-width="4"></path><path d="M 859.6 -335.4 L 829 -366 L 767.7 -304.7 L 798.3 -274.1 Z" fill="#6d597a" stroke="#355070" stroke-width="4"></path><path d="M 920.9 -335.4 L 951.5 -304.7 L 1012.8 -366 L 982.2 -396.7 Z" fill="#6d597a" stroke="#355070" stroke-width="4"></path><path d="M -274.1 1.7 L -243.5 32.3 L -274.1 62.9 L -243.5 93.6 L -274.1 124.2 L -304.7 93.6 L -335.4 124.2 L -366 93.6 L -335.4 62.9 L -366 32.3 L -335.4 1.7 L -304.7 32.3 Z" fill="#eaac8b" stroke="#355070" stroke-width="4"></path><path d="M -304.7 32.3 L -366 -29 L -335.4 -59.6 L -274.1 1.7 Z" fill="#6d597a" stroke="#355070" stroke-width="4"></path><path d="M -304.7 93.6 L -243.5 154.9 L -274.1 185.5 L -335.4 124.2 Z" fill="#6d597a" stroke="#355070" stroke-width="4"></path><path d="M -335.4 62.9 L -366 32.3 L -427.3 93.6 L -396.7 124.2 Z" fill="#6d597a" stroke="#355070" stroke-width="4"></path><path d="M -274.1 62.9 L -243.5 93.6 L -182.2 32.3 L -212.8 1.7 Z" fill="#6d597a" stroke="#355070" stroke-width="4"></path><path d="M -120.9 -29 L -90.3 1.7 L -120.9 32.3 L -90.3 62.9 L -120.9 93.6 L -151.5 62.9 L -182.2 93.6 L -212.8 62.9 L -182.2 32.3 L -212.8 1.7 L -182.2 -29 L -151.5 1.7 Z" fill="#e56b6f" stroke="#355070" stroke-width="4"></path><path d="M -151.5 1.7 L -212.8 -59.6 L -182.2 -90.3 L -120.9 -29 Z" fill="#6d597a" stroke="#355070" stroke-width="4"></path><path d="M -151.5 62.9 L -90.3 124.2 L -120.9 154.9 L -182.2 93.6 Z" fill="#6d597a" stroke="#355070" stroke-width="4"></path><path d="M -182.2 32.3 L -212.8 1.7 L -274.1 62.9 L -243.5 93.6 Z" fill="#6d597a" stroke="#355070" stroke-width="4"></path><path d="M -120.9 32.3 L -90.3 62.9 L -29 1.7 L -59.6 -29 Z" fill="#6d597a" stroke="#355070" stroke-width="4"></path><path d="M 32.3 -59.6 L 62.9 -29 L 32.3 1.7 L 62.9 32.3 L 32.3 62.9 L 1.7 32.3 L -29 62.9 L -59.6 32.3 L -29 1.7 L -59.6 -29 L -29 -59.6 L 1.7 -29 Z" fill="#eaac8b" stroke="#355070" stroke-width="4"></path><path d="M 1.7 -29 L -59.6 -90.3 L -29 -120.9 L 32.3 -59.6 Z" fill="#6d597a" stroke="#355070" stroke-width="4"></path><path d="M 1.7 32.3 L 62.9 93.6 L 32.3 124.2 L -29 62.9 Z" fill="#6d597a" stroke="#355070" stroke-width="4"></path><path d="M -29 1.7 L -59.6 -29 L -120.9 32.3 L -90.3 62.9 Z" fill="#6d597a" stroke="#355070" stroke-width="4"></path><path d="M 32.3 1.7 L 62.9 32.3 L 124.2 -29 L 93.6 -59.6 Z" fill="#6d597a" stroke="#355070" stroke-width="4"></path><path d="M 185.5 -90.3 L 216.2 -59.6 L 185.5 -29 L 216.2 1.7 L 185.5 32.3 L 154.9 1.7 L 124.2 32.3 L 93.6 1.7 L 124.2 -29 L 93.6 -59.6 L 124.2 -90.3 L 154.9 -59.6 Z" fill="#e56b6f" stroke="#355070" stroke-width="4"></path><path d="M 154.9 -59.6 L 93.6 -120.9 L 124.2 -151.5 L 185.5 -90.3 Z" fill="#6d597a" stroke="#355070" stroke-width="4"></path><path d="M 154.9 1.7 L 216.2 62.9 L 185.5 93.6 L 124.2 32.3 Z" fill="#6d597a" stroke="#355070" stroke-width="4"></path><path d="M 124.2 -29 L 93.6 -59.6 L 32.3 1.7 L 62.9 32.3 Z" fill="#6d597a" stroke="#355070" stroke-width="4"></path><path d="M 185.5 -29 L 216.2 1.7 L 277.4 -59.6 L 246.8 -90.3 Z" fill="#6d597a" stroke="#355070" stroke-width="4"></path><path d="M 338.7 -120.9 L 369.4 -90.3 L 338.7 -59.6 L 369.4 -29 L 338.7 1.7 L 308.1 -29 L 277.4 1.7 L 246.8 -29 L 277.4 -59.6 L 246.8 -90.3 L 277.4 -120.9 L 308.1 -90.3 Z" fill="#eaac8b" stroke="#355070" stroke-width="4"></path><path d="M 308.1 -90.3 L 246.8 -151.5 L 277.4 -182.2 L 338.7 -120.9 Z" fill="#6d597a" stroke="#355070" stroke-width="4"></path><path d="M 308.1 -29 L 369.4 32.3 L 338.7 62.9 L 277.4 1.7 Z" fill="#6d597a" stroke="#355070" stroke-width="4"></path><path d="M 277.4 -59.6 L 246.8 -90.3 L 185.5 -29 L 216.2 1.7 Z" fill="#6d597a" stroke="#355070" stroke-width="4"></path><path d="M 338.7 -59.6 L 369.4 -29 L 430.6 -90.3 L 400 -120.9 Z" fill="#6d597a" stroke="#355070" stroke-width="4"></path><path d="M 491.9 -151.5 L 522.6 -120.9 L 491.9 -90.3 L 522.6 -59.6 L 491.9 -29 L 461.3 -59.6 L 430.6 -29 L 400 -59.6 L 430.6 -90.3 L 400 -120.9 L 430.6 -151.5 L 461.3 -120.9 Z" fill="#e56b6f" stroke="#355070" stroke-width="4"></path><path d="M 461.3 -120.9 L 400 -182.2 L 430.6 -212.8 L 491.9 -151.5 Z" fill="#6d597a" stroke="#355070" stroke-width="4"></path><path d="M 461.3 -59.6 L 522.6 1.7 L 491.9 32.3 L 430.6 -29 Z" fill="#6d597a" stroke="#355070" stroke-width="4"></path><path d="M 430.6 -90.3 L 400 -120.9 L 338.7 -59.6 L 369.4 -29 Z" fill="#6d597a" stroke="#355070" stroke-width="4"></path><path d="M 491.9 -90.3 L 522.6 -59.6 L 583.8 -120.9 L 553.2 -151.5 Z" fill="#6d597a" stroke="#355070" stroke-width="4"></path><path d="M 645.1 -182.2 L 675.8 -151.5 L 645.1 -120.9 L 675.8 -90.3 L 645.1 -59.6 L 614.5 -90.3 L 583.8 -59.6 L 553.2 -90.3 L 583.8 -120.9 L 553.2 -151.5 L 583.8 -182.2 L 614.5 -151.5 Z" fill="#eaac8b" stroke="#355070" stroke-width="4"></path><path d="M 614.5 -151.5 L 553.2 -212.8 L 583.8 -243.5 L 645.1 -182.2 Z" fill="#6d597a" stroke="#355070" stroke-width="4"></path><path d="M 614.5 -90.3 L 675.8 -29 L 645.1 1.7 L 583.8 -59.6 Z" fill="#6d597a" stroke="#355070" stroke-width="4"></path><path d="M 583.8 -120.9 L 553.2 -151.5 L 491.9 -90.3 L 522.6 -59.6 Z" fill="#6d597a" stroke="#355070" stroke-width="4"></path><path d="M 645.1 -120.9 L 675.8 -90.3 L 737.1 -151.5 L 706.4 -182.2 Z" fill="#6d597a" stroke="#355070" stroke-width="4"></path><path d="M 798.3 -212.8 L 829 -182.2 L 798.3 -151.5 L 829 -120.9 L 798.3 -90.3 L 767.7 -120.9 L 737.1 -90.3 L 706.4 -120.9 L 737.1 -151.5 L 706.4 -182.2 L 737.1 -212.8 L 767.7 -182.2 Z" fill="#e56b6f" stroke="#355070" stroke-width="4"></path><path d="M 767.7 -182.2 L 706.4 -243.5 L 737.1 -274.1 L 798.3 -212.8 Z" fill="#6d597a" stroke="#355070" stroke-width="4"></path><path d="M 767.7 -120.9 L 829 -59.6 L 798.3 -29 L 737.1 -90.3 Z" fill="#6d597a" stroke="#355070" stroke-width="4"></path><path d="M 737.1 -151.5 L 706.4 -182.2 L 645.1 -120.9 L 675.8 -90.3 Z" fill="#6d597a" stroke="#355070" stroke-width="4"></path><path d="M 798.3 -151.5 L 829 -120.9 L 890.3 -182.2 L 859.6 -212.8 Z" fill="#6d597a" stroke="#355070" stroke-width="4"></path><path d="M 951.5 -243.5 L 982.2 -212.8 L 951.5 -182.2 L 982.2 -151.5 L 951.5 -120.9 L 920.9 -151.5 L 890.3 -120.9 L 859.6 -151.5 L 890.3 -182.2 L 859.6 -212.8 L 890.3 -243.5 L 920.9 -212.8 Z" fill="#eaac8b" stroke="#355070" stroke-width="4"></path><path d="M 920.9 -212.8 L 859.6 -274.1 L 890.3 -304.7 L 951.5 -243.5 Z" fill="#6d597a" stroke="#355070" stroke-width="4"></path><path d="M 920.9 -151.5 L 982.2 -90.3 L 951.5 -59.6 L 890.3 -120.9 Z" fill="#6d597a" stroke="#355070" stroke-width="4"></path><path d="M 890.3 -182.2 L 859.6 -212.8 L 798.3 -151.5 L 829 -120.9 Z" fill="#6d597a" stroke="#355070" stroke-width="4"></path><path d="M 951.5 -182.2 L 982.2 -151.5 L 1043.5 -212.8 L 1012.8 -243.5 Z" fill="#6d597a" stroke="#355070" stroke-width="4"></path><path d="M -243.5 154.9 L -212.8 185.5 L -243.5 216.2 L -212.8 246.8 L -243.5 277.4 L -274.1 246.8 L -304.7 277.4 L -335.4 246.8 L -304.7 216.2 L -335.4 185.5 L -304.7 154.9 L -274.1 185.5 Z" fill="#e56b6f" stroke="#355070" stroke-width="4"></path><path d="M -274.1 185.5 L -335.4 124.2 L -304.7 93.6 L -243.5 154.9 Z" fill="#6d597a" stroke="#355070" stroke-width="4"></path><path d="M -274.1 246.8 L -212.8 308.1 L -243.5 338.7 L -304.7 277.4 Z" fill="#6d597a" stroke="#355070" stroke-width="4"></path><path d="M -304.7 216.2 L -335.4 185.5 L -396.7 246.8 L -366 277.4 Z" fill="#6d597a" stroke="#355070" stroke-width="4"></path><path d="M -243.5 216.2 L -212.8 246.8 L -151.5 185.5 L -182.2 154.9 Z" fill="#6d597a" stroke="#355070" stroke-width="4"></path><path d="M -90.3 124.2 L -59.6 154.9 L -90.3 185.5 L -59.6 216.2 L -90.3 246.8 L -120.9 216.2 L -151.5 246.8 L -182.2 216.2 L -151.5 185.5 L -182.2 154.9 L -151.5 124.2 L -120.9 154.9 Z" fill="#eaac8b" stroke="#355070" stroke-width="4"></path><path d="M -120.9 154.9 L -182.2 93.6 L -151.5 62.9 L -90.3 124.2 Z" fill="#6d597a" stroke="#355070" stroke-width="4"></path><path d="M -120.9 216.2 L -59.6 277.4 L -90.3 308.1 L -151.5 246.8 Z" fill="#6d597a" stroke="#355070" stroke-width="4"></path><path d="M -151.5 185.5 L -182.2 154.9 L -243.5 216.2 L -212.8 246.8 Z" fill="#6d597a" stroke="#355070" stroke-width="4"></path><path d="M -90.3 185.5 L -59.6 216.2 L 1.7 154.9 L -29 124.2 Z" fill="#6d597a" stroke="#355070" stroke-width="4"></path><path d="M 62.9 93.6 L 93.6 124.2 L 62.9 154.9 L 93.6 185.5 L 62.9 216.2 L 32.3 185.5 L 1.7 216.2 L -29 185.5 L 1.7 154.9 L -29 124.2 L 1.7 93.6 L 32.3 124.2 Z" fill="#e56b6f" stroke="#355070" stroke-width="4"></path><path d="M 32.3 124.2 L -29 62.9 L 1.7 32.3 L 62.9 93.6 Z" fill="#6d597a" stroke="#355070" stroke-width="4"></path><path d="M 32.3 185.5 L 93.6 246.8 L 62.9 277.4 L 1.7 216.2 Z" fill="#6d597a" stroke="#355070" stroke-width="4"></path><path d="M 1.7 154.9 L -29 124.2 L -90.3 185.5 L -59.6 216.2 Z" fill="#6d597a" stroke="#355070" stroke-width="4"></path><path d="M 62.9 154.9 L 93.6 185.5 L 154.9 124.2 L 124.2 93.6 Z" fill="#6d597a" stroke="#355070" stroke-width="4"></path><path d="M 216.2 62.9 L 246.8 93.6 L 216.2 124.2 L 246.8 154.9 L 216.2 185.5 L 185.5 154.9 L 154.9 185.5 L 124.2 154.9 L 154.9 124.2 L 124.2 93.6 L 154.9 62.9 L 185.5 93.6 Z" fill="#eaac8b" stroke="#355070" stroke-width="4"></path><path d="M 185.5 93.6 L 124.2 32.3 L 154.9 1.7 L 216.2 62.9 Z" fill="#6d597a" stroke="#355070" stroke-width="4"></path><path d="M 185.5 154.9 L 246.8 216.2 L 216.2 246.8 L 154.9 185.5 Z" fill="#6d597a" stroke="#355070" stroke-width="4"></path><path d="M 154.9 124.2 L 124.2 93.6 L 62.9 154.9 L 93.6 185.5 Z" fill="#6d597a" stroke="#355070" stroke-width="4"></path><path d="M 216.2 124.2 L 246.8 154.9 L 308.1 93.6 L 277.4 62.9 Z" fill="#6d597a" stroke="#355070" stroke-width="4"></path><path d="M 369.4 32.3 L 400 62.9 L 369.4 93.6 L 400 124.2 L 369.4 154.9 L 338.7 124.2 L 308.1 154.9 L 277.4 124.2 L 308.1 93.6 L 277.4 62.9 L 308.1 32.3 L 338.7 62.9 Z" fill="#e56b6f" stroke="#355070" stroke-width="4"></path><path d="M 338.7 62.9 L 277.4 1.7 L 308.1 -29 L 369.4 32.3 Z" fill="#6d597a" stroke="#355070" stroke-width="4"></path><path d="M 338.7 124.2 L 400 185.5 L 369.4 216.2 L 308.1 154.9 Z" fill="#6d597a" stroke="#355070" stroke-width="4"></path><path d="M 308.1 93.6 L 277.4 62.9 L 216.2 124.2 L 246.8 154.9 Z" fill="#6d597a" stroke="#355070" stroke-width="4"></path><path d="M 369.4 93.6 L 400 124.2 L 461.3 62.9 L 430.6 32.3 Z" fill="#6d597a" stroke="#355070" stroke-width="4"></path><path d="M 522.6 1.7 L 553.2 32.3 L 522.6 62.9 L 553.2 93.6 L 522.6 124.2 L 491.9 93.6 L 461.3 124.2 L 430.6 93.6 L 461.3 62.9 L 430.6 32.3 L 461.3 1.7 L 491.9 32.3 Z" fill="#eaac8b" stroke="#355070" stroke-width="4"></path><path d="M 491.9 32.3 L 430.6 -29 L 461.3 -59.6 L 522.6 1.7 Z" fill="#6d597a" stroke="#355070" stroke-width="4"></path><path d="M 491.9 93.6 L 553.2 154.9 L 522.6 185.5 L 461.3 124.2 Z" fill="#6d597a" stroke="#355070" stroke-width="4"></path><path d="M 461.3 62.9 L 430.6 32.3 L 369.4 93.6 L 400 124.2 Z" fill="#6d597a" stroke="#355070" stroke-width="4"></path><path d="M 522.6 62.9 L 553.2 93.6 L 614.5 32.3 L 583.8 1.7 Z" fill="#6d597a" stroke="#355070" stroke-width="4"></path><path d="M 675.8 -29 L 706.4 1.7 L 675.8 32.3 L 706.4 62.9 L 675.8 93.6 L 645.1 62.9 L 614.5 93.6 L 583.8 62.9 L 614.5 32.3 L 583.8 1.7 L 614.5 -29 L 645.1 1.7 Z" fill="#e56b6f" stroke="#355070" stroke-width="4"></path><path d="M 645.1 1.7 L 583.8 -59.6 L 614.5 -90.3 L 675.8 -29 Z" fill="#6d597a" stroke="#355070" stroke-width="4"></path><path d="M 645.1 62.9 L 706.4 124.2 L 675.8 154.9 L 614.5 93.6 Z" fill="#6d597a" stroke="#355070" stroke-width="4"></path><path d="M 614.5 32.3 L 583.8 1.7 L 522.6 62.9 L 553.2 93.6 Z" fill="#6d597a" stroke="#355070" stroke-width="4"></path><path d="M 675.8 32.3 L 706.4 62.9 L 767.7 1.7 L 737.1 -29 Z" fill="#6d597a" stroke="#355070" stroke-width="4"></path><path d="M 829 -59.6 L 859.6 -29 L 829 1.7 L 859.6 32.3 L 829 62.9 L 798.3 32.3 L 767.7 62.9 L 737.1 32.3 L 767.7 1.7 L 737.1 -29 L 767.7 -59.6 L 798.3 -29 Z" fill="#eaac8b" stroke="#355070" stroke-width="4"></path><path d="M 798.3 -29 L 737.1 -90.3 L 767.7 -120.9 L 829 -59.6 Z" fill="#6d597a" stroke="#355070" stroke-width="4"></path><path d="M 798.3 32.3 L 859.6 93.6 L 829 124.2 L 767.7 62.9 Z" fill="#6d597a" stroke="#355070" stroke-width="4"></path><path d="M 767.7 1.7 L 737.1 -29 L 675.8 32.3 L 706.4 62.9 Z" fill="#6d597a" stroke="#355070" stroke-width="4"></path><path d="M 829 1.7 L 859.6 32.3 L 920.9 -29 L 890.3 -59.6 Z" fill="#6d597a" stroke="#355070" stroke-width="4"></path><path d="M 982.2 -90.3 L 1012.8 -59.6 L 982.2 -29 L 1012.8 1.7 L 982.2 32.3 L 951.5 1.7 L 920.9 32.3 L 890.3 1.7 L 920.9 -29 L 890.3 -59.6 L 920.9 -90.3 L 951.5 -59.6 Z" fill="#e56b6f" stroke="#355070" stroke-width="4"></path><path d="M 951.5 -59.6 L 890.3 -120.9 L 920.9 -151.5 L 982.2 -90.3 Z" fill="#6d597a" stroke="#355070" stroke-width="4"></path><path d="M 951.5 1.7 L 1012.8 62.9 L 982.2 93.6 L 920.9 32.3 Z" fill="#6d597a" stroke="#355070" stroke-width="4"></path><path d="M 920.9 -29 L 890.3 -59.6 L 829 1.7 L 859.6 32.3 Z" fill="#6d597a" stroke="#355070" stroke-width="4"></path><path d="M 982.2 -29 L 1012.8 1.7 L 1074.1 -59.6 L 1043.5 -90.3 Z" fill="#6d597a" stroke="#355070" stroke-width="4"></path><path d="M -212.8 308.1 L -182.2 338.7 L -212.8 369.4 L -182.2 400 L -212.8 430.6 L -243.5 400 L -274.1 430.6 L -304.7 400 L -274.1 369.4 L -304.7 338.7 L -274.1 308.1 L -243.5 338.7 Z" fill="#eaac8b" stroke="#355070" stroke-width="4"></path><path d="M -243.5 338.7 L -304.7 277.4 L -274.1 246.8 L -212.8 308.1 Z" fill="#6d597a" stroke="#355070" stroke-width="4"></path><path d="M -243.5 400 L -182.2 461.3 L -212.8 491.9 L -274.1 430.6 Z" fill="#6d597a" stroke="#355070" stroke-width="4"></path><path d="M -274.1 369.4 L -304.7 338.7 L -366 400 L -335.4 430.6 Z" fill="#6d597a" stroke="#355070" stroke-width="4"></path><path d="M -212.8 369.4 L -182.2 400 L -120.9 338.7 L -151.5 308.1 Z" fill="#6d597a" stroke="#355070" stroke-width="4"></path><path d="M -59.6 277.4 L -29 308.1 L -59.6 338.7 L -29 369.4 L -59.6 400 L -90.3 369.4 L -120.9 400 L -151.5 369.4 L -120.9 338.7 L -151.5 308.1 L -120.9 277.4 L -90.3 308.1 Z" fill="#e56b6f" stroke="#355070" stroke-width="4"></path><path d="M -90.3 308.1 L -151.5 246.8 L -120.9 216.2 L -59.6 277.4 Z" fill="#6d597a" stroke="#355070" stroke-width="4"></path><path d="M -90.3 369.4 L -29 430.6 L -59.6 461.3 L -120.9 400 Z" fill="#6d597a" stroke="#355070" stroke-width="4"></path><path d="M -120.9 338.7 L -151.5 308.1 L -212.8 369.4 L -182.2 400 Z" fill="#6d597a" stroke="#355070" stroke-width="4"></path><path d="M -59.6 338.7 L -29 369.4 L 32.3 308.1 L 1.7 277.4 Z" fill="#6d597a" stroke="#355070" stroke-width="4"></path><path d="M 93.6 246.8 L 124.2 277.4 L 93.6 308.1 L 124.2 338.7 L 93.6 369.4 L 62.9 338.7 L 32.3 369.4 L 1.7 338.7 L 32.3 308.1 L 1.7 277.4 L 32.3 246.8 L 62.9 277.4 Z" fill="#eaac8b" stroke="#355070" stroke-width="4"></path><path d="M 62.9 277.4 L 1.7 216.2 L 32.3 185.5 L 93.6 246.8 Z" fill="#6d597a" stroke="#355070" stroke-width="4"></path><path d="M 62.9 338.7 L 124.2 400 L 93.6 430.6 L 32.3 369.4 Z" fill="#6d597a" stroke="#355070" stroke-width="4"></path><path d="M 32.3 308.1 L 1.7 277.4 L -59.6 338.7 L -29 369.4 Z" fill="#6d597a" stroke="#355070" stroke-width="4"></path><path d="M 93.6 308.1 L 124.2 338.7 L 185.5 277.4 L 154.9 246.8 Z" fill="#6d597a" stroke="#355070" stroke-width="4"></path><path d="M 246.8 216.2 L 277.4 246.8 L 246.8 277.4 L 277.4 308.1 L 246.8 338.7 L 216.2 308.1 L 185.5 338.7 L 154.9 308.1 L 185.5 277.4 L 154.9 246.8 L 185.5 216.2 L 216.2 246.8 Z" fill="#e56b6f" stroke="#355070" stroke-width="4"></path><path d="M 216.2 246.8 L 154.9 185.5 L 185.5 154.9 L 246.8 216.2 Z" fill="#6d597a" stroke="#355070" stroke-width="4"></path><path d="M 216.2 308.1 L 277.4 369.4 L 246.8 400 L 185.5 338.7 Z" fill="#6d597a" stroke="#355070" stroke-width="4"></path><path d="M 185.5 277.4 L 154.9 246.8 L 93.6 308.1 L 124.2 338.7 Z" fill="#6d597a" stroke="#355070" stroke-width="4"></path><path d="M 246.8 277.4 L 277.4 308.1 L 338.7 246.8 L 308.1 216.2 Z" fill="#6d597a" stroke="#355070" stroke-width="4"></path><path d="M 400 185.5 L 430.6 216.2 L 400 246.8 L 430.6 277.4 L 400 308.1 L 369.4 277.4 L 338.7 308.1 L 308.1 277.4 L 338.7 246.8 L 308.1 216.2 L 338.7 185.5 L 369.4 216.2 Z" fill="#eaac8b" stroke="#355070" stroke-width="4"></path><path d="M 369.4 216.2 L 308.1 154.9 L 338.7 124.2 L 400 185.5 Z" fill="#6d597a" stroke="#355070" stroke-width="4"></path><path d="M 369.4 277.4 L 430.6 338.7 L 400 369.4 L 338.7 308.1 Z" fill="#6d597a" stroke="#355070" stroke-width="4"></path><path d="M 338.7 246.8 L 308.1 216.2 L 246.8 277.4 L 277.4 308.1 Z" fill="#6d597a" stroke="#355070" stroke-width="4"></path><path d="M 400 246.8 L 430.6 277.4 L 491.9 216.2 L 461.3 185.5 Z" fill="#6d597a" stroke="#355070" stroke-width="4"></path><path d="M 553.2 154.9 L 583.8 185.5 L 553.2 216.2 L 583.8 246.8 L 553.2 277.4 L 522.6 246.8 L 491.9 277.4 L 461.3 246.8 L 491.9 216.2 L 461.3 185.5 L 491.9 154.9 L 522.6 185.5 Z" fill="#e56b6f" stroke="#355070" stroke-width="4"></path><path d="M 522.6 185.5 L 461.3 124.2 L 491.9 93.6 L 553.2 154.9 Z" fill="#6d597a" stroke="#355070" stroke-width="4"></path><path d="M 522.6 246.8 L 583.8 308.1 L 553.2 338.7 L 491.9 277.4 Z" fill="#6d597a" stroke="#355070" stroke-width="4"></path><path d="M 491.9 216.2 L 461.3 185.5 L 400 246.8 L 430.6 277.4 Z" fill="#6d597a" stroke="#355070" stroke-width="4"></path><path d="M 553.2 216.2 L 583.8 246.8 L 645.1 185.5 L 614.5 154.9 Z" fill="#6d597a" stroke="#355070" stroke-width="4"></path><path d="M 706.4 124.2 L 737.1 154.9 L 706.4 185.5 L 737.1 216.2 L 706.4 246.8 L 675.8 216.2 L 645.1 246.8 L 614.5 216.2 L 645.1 185.5 L 614.5 154.9 L 645.1 124.2 L 675.8 154.9 Z" fill="#eaac8b" stroke="#355070" stroke-width="4"></path><path d="M 675.8 154.9 L 614.5 93.6 L 645.1 62.9 L 706.4 124.2 Z" fill="#6d597a" stroke="#355070" stroke-width="4"></path><path d="M 675.8 216.2 L 737.1 277.4 L 706.4 308.1 L 645.1 246.8 Z" fill="#6d597a" stroke="#355070" stroke-width="4"></path><path d="M 645.1 185.5 L 614.5 154.9 L 553.2 216.2 L 583.8 246.8 Z" fill="#6d597a" stroke="#355070" stroke-width="4"></path><path d="M 706.4 185.5 L 737.1 216.2 L 798.3 154.9 L 767.7 124.2 Z" fill="#6d597a" stroke="#355070" stroke-width="4"></path><path d="M 859.6 93.6 L 890.3 124.2 L 859.6 154.9 L 890.3 185.5 L 859.6 216.2 L 829 185.5 L 798.3 216.2 L 767.7 185.5 L 798.3 154.9 L 767.7 124.2 L 798.3 93.6 L 829 124.2 Z" fill="#e56b6f" stroke="#355070" stroke-width="4"></path><path d="M 829 124.2 L 767.7 62.9 L 798.3 32.3 L 859.6 93.6 Z" fill="#6d597a" stroke="#355070" stroke-width="4"></path><path d="M 829 185.5 L 890.3 246.8 L 859.6 277.4 L 798.3 216.2 Z" fill="#6d597a" stroke="#355070" stroke-width="4"></path><path d="M 798.3 154.9 L 767.7 124.2 L 706.4 185.5 L 737.1 216.2 Z" fill="#6d597a" stroke="#355070" stroke-width="4"></path><path d="M 859.6 154.9 L 890.3 185.5 L 951.5 124.2 L 920.9 93.6 Z" fill="#6d597a" stroke="#355070" stroke-width="4"></path><path d="M 1012.8 62.9 L 1043.5 93.6 L 1012.8 124.2 L 1043.5 154.9 L 1012.8 185.5 L 982.2 154.9 L 951.5 185.5 L 920.9 154.9 L 951.5 124.2 L 920.9 93.6 L 951.5 62.9 L 982.2 93.6 Z" fill="#eaac8b" stroke="#355070" stroke-width="4"></path><path d="M 982.2 93.6 L 920.9 32.3 L 951.5 1.7 L 1012.8 62.9 Z" fill="#6d597a" stroke="#355070" stroke-width="4"></path><path d="M 982.2 154.9 L 1043.5 216.2 L 1012.8 246.8 L 951.5 185.5 Z" fill="#6d597a" stroke="#355070" stroke-width="4"></path><path d="M 951.5 124.2 L 920.9 93.6 L 859.6 154.9 L 890.3 185.5 Z" fill="#6d597a" stroke="#355070" stroke-width="4"></path><path d="M 1012.8 124.2 L 1043.5 154.9 L 1104.7 93.6 L 1074.1 62.9 Z" fill="#6d597a" stroke="#355070" stroke-width="4"></path><path d="M -182.2 461.3 L -151.5 491.9 L -182.2 522.6 L -151.5 553.2 L -182.2 583.8 L -212.8 553.2 L -243.5 583.8 L -274.1 553.2 L -243.5 522.6 L -274.1 491.9 L -243.5 461.3 L -212.8 491.9 Z" fill="#e56b6f" stroke="#355070" stroke-width="4"></path><path d="M -212.8 491.9 L -274.1 430.6 L -243.5 400 L -182.2 461.3 Z" fill="#6d597a" stroke="#355070" stroke-width="4"></path><path d="M -212.8 553.2 L -151.5 614.5 L -182.2 645.1 L -243.5 583.8 Z" fill="#6d597a" stroke="#355070" stroke-width="4"></path><path d="M -243.5 522.6 L -274.1 491.9 L -335.4 553.2 L -304.7 583.8 Z" fill="#6d597a" stroke="#355070" stroke-width="4"></path><path d="M -182.2 522.6 L -151.5 553.2 L -90.3 491.9 L -120.9 461.3 Z" fill="#6d597a" stroke="#355070" stroke-width="4"></path><path d="M -29 430.6 L 1.7 461.3 L -29 491.9 L 1.7 522.6 L -29 553.2 L -59.6 522.6 L -90.3 553.2 L -120.9 522.6 L -90.3 491.9 L -120.9 461.3 L -90.3 430.6 L -59.6 461.3 Z" fill="#eaac8b" stroke="#355070" stroke-width="4"></path><path d="M -59.6 461.3 L -120.9 400 L -90.3 369.4 L -29 430.6 Z" fill="#6d597a" stroke="#355070" stroke-width="4"></path><path d="M -59.6 522.6 L 1.7 583.8 L -29 614.5 L -90.3 553.2 Z" fill="#6d597a" stroke="#355070" stroke-width="4"></path><path d="M -90.3 491.9 L -120.9 461.3 L -182.2 522.6 L -151.5 553.2 Z" fill="#6d597a" stroke="#355070" stroke-width="4"></path><path d="M -29 491.9 L 1.7 522.6 L 62.9 461.3 L 32.3 430.6 Z" fill="#6d597a" stroke="#355070" stroke-width="4"></path><path d="M 124.2 400 L 154.9 430.6 L 124.2 461.3 L 154.9 491.9 L 124.2 522.6 L 93.6 491.9 L 62.9 522.6 L 32.3 491.9 L 62.9 461.3 L 32.3 430.6 L 62.9 400 L 93.6 430.6 Z" fill="#e56b6f" stroke="#355070" stroke-width="4"></path><path d="M 93.6 430.6 L 32.3 369.4 L 62.9 338.7 L 124.2 400 Z" fill="#6d597a" stroke="#355070" stroke-width="4"></path><path d="M 93.6 491.9 L 154.9 553.2 L 124.2 583.8 L 62.9 522.6 Z" fill="#6d597a" stroke="#355070" stroke-width="4"></path><path d="M 62.9 461.3 L 32.3 430.6 L -29 491.9 L 1.7 522.6 Z" fill="#6d597a" stroke="#355070" stroke-width="4"></path><path d="M 124.2 461.3 L 154.9 491.9 L 216.2 430.6 L 185.5 400 Z" fill="#6d597a" stroke="#355070" stroke-width="4"></path><path d="M 277.4 369.4 L 308.1 400 L 277.4 430.6 L 308.1 461.3 L 277.4 491.9 L 246.8 461.3 L 216.2 491.9 L 185.5 461.3 L 216.2 430.6 L 185.5 400 L 216.2 369.4 L 246.8 400 Z" fill="#eaac8b" stroke="#355070" stroke-width="4"></path><path d="M 246.8 400 L 185.5 338.7 L 216.2 308.1 L 277.4 369.4 Z" fill="#6d597a" stroke="#355070" stroke-width="4"></path><path d="M 246.8 461.3 L 308.1 522.6 L 277.4 553.2 L 216.2 491.9 Z" fill="#6d597a" stroke="#355070" stroke-width="4"></path><path d="M 216.2 430.6 L 185.5 400 L 124.2 461.3 L 154.9 491.9 Z" fill="#6d597a" stroke="#355070" stroke-width="4"></path><path d="M 277.4 430.6 L 308.1 461.3 L 369.4 400 L 338.7 369.4 Z" fill="#6d597a" stroke="#355070" stroke-width="4"></path><path d="M 430.6 338.7 L 461.3 369.4 L 430.6 400 L 461.3 430.6 L 430.6 461.3 L 400 430.6 L 369.4 461.3 L 338.7 430.6 L 369.4 400 L 338.7 369.4 L 369.4 338.7 L 400 369.4 Z" fill="#e56b6f" stroke="#355070" stroke-width="4"></path><path d="M 400 369.4 L 338.7 308.1 L 369.4 277.4 L 430.6 338.7 Z" fill="#6d597a" stroke="#355070" stroke-width="4"></path><path d="M 400 430.6 L 461.3 491.9 L 430.6 522.6 L 369.4 461.3 Z" fill="#6d597a" stroke="#355070" stroke-width="4"></path><path d="M 369.4 400 L 338.7 369.4 L 277.4 430.6 L 308.1 461.3 Z" fill="#6d597a" stroke="#355070" stroke-width="4"></path><path d="M 430.6 400 L 461.3 430.6 L 522.6 369.4 L 491.9 338.7 Z" fill="#6d597a" stroke="#355070" stroke-width="4"></path><path d="M 583.8 308.1 L 614.5 338.7 L 583.8 369.4 L 614.5 400 L 583.8 430.6 L 553.2 400 L 522.6 430.6 L 491.9 400 L 522.6 369.4 L 491.9 338.7 L 522.6 308.1 L 553.2 338.7 Z" fill="#eaac8b" stroke="#355070" stroke-width="4"></path><path d="M 553.2 338.7 L 491.9 277.4 L 522.6 246.8 L 583.8 308.1 Z" fill="#6d597a" stroke="#355070" stroke-width="4"></path><path d="M 553.2 400 L 614.5 461.3 L 583.8 491.9 L 522.6 430.6 Z" fill="#6d597a" stroke="#355070" stroke-width="4"></path><path d="M 522.6 369.4 L 491.9 338.7 L 430.6 400 L 461.3 430.6 Z" fill="#6d597a" stroke="#355070" stroke-width="4"></path><path d="M 583.8 369.4 L 614.5 400 L 675.8 338.7 L 645.1 308.1 Z" fill="#6d597a" stroke="#355070" stroke-width="4"></path><path d="M 737.1 277.4 L 767.7 308.1 L 737.1 338.7 L 767.7 369.4 L 737.1 400 L 706.4 369.4 L 675.8 400 L 645.1 369.4 L 675.8 338.7 L 645.1 308.1 L 675.8 277.4 L 706.4 308.1 Z" fill="#e56b6f" stroke="#355070" stroke-width="4"></path><path d="M 706.4 308.1 L 645.1 246.8 L 675.8 216.2 L 737.1 277.4 Z" fill="#6d597a" stroke="#355070" stroke-width="4"></path><path d="M 706.4 369.4 L 767.7 430.6 L 737.1 461.3 L 675.8 400 Z" fill="#6d597a" stroke="#355070" stroke-width="4"></path><path d="M 675.8 338.7 L 645.1 308.1 L 583.8 369.4 L 614.5 400 Z" fill="#6d597a" stroke="#355070" stroke-width="4"></path><path d="M 737.1 338.7 L 767.7 369.4 L 829 308.1 L 798.3 277.4 Z" fill="#6d597a" stroke="#355070" stroke-width="4"></path><path d="M 890.3 246.8 L 920.9 277.4 L 890.3 308.1 L 920.9 338.7 L 890.3 369.4 L 859.6 338.7 L 829 369.4 L 798.3 338.7 L 829 308.1 L 798.3 277.4 L 829 246.8 L 859.6 277.4 Z" fill="#eaac8b" stroke="#355070" stroke-width="4"></path><path d="M 859.6 277.4 L 798.3 216.2 L 829 185.5 L 890.3 246.8 Z" fill="#6d597a" stroke="#355070" stroke-width="4"></path><path d="M 859.6 338.7 L 920.9 400 L 890.3 430.6 L 829 369.4 Z" fill="#6d597a" stroke="#355070" stroke-width="4"></path><path d="M 829 308.1 L 798.3 277.4 L 737.1 338.7 L 767.7 369.4 Z" fill="#6d597a" stroke="#355070" stroke-width="4"></path><path d="M 890.3 308.1 L 920.9 338.7 L 982.2 277.4 L 951.5 246.8 Z" fill="#6d597a" stroke="#355070" stroke-width="4"></path><path d="M 1043.5 216.2 L 1074.1 246.8 L 1043.5 277.4 L 1074.1 308.1 L 1043.5 338.7 L 1012.8 308.1 L 982.2 338.7 L 951.5 308.1 L 982.2 277.4 L 951.5 246.8 L 982.2 216.2 L 1012.8 246.8 Z" fill="#e56b6f" stroke="#355070" stroke-width="4"></path><path d="M 1012.8 246.8 L 951.5 185.5 L 982.2 154.9 L 1043.5 216.2 Z" fill="#6d597a" stroke="#355070" stroke-width="4"></path><path d="M 1012.8 308.1 L 1074.1 369.4 L 1043.5 400 L 982.2 338.7 Z" fill="#6d597a" stroke="#355070" stroke-width="4"></path><path d="M 982.2 277.4 L 951.5 246.8 L 890.3 308.1 L 920.9 338.7 Z" fill="#6d597a" stroke="#355070" stroke-width="4"></path><path d="M 1043.5 277.4 L 1074.1 308.1 L 1135.4 246.8 L 1104.7 216.2 Z" fill="#6d597a" stroke="#355070" stroke-width="4"></path><path d="M -151.5 614.5 L -120.9 645.1 L -151.5 675.8 L -120.9 706.4 L -151.5 737.1 L -182.2 706.4 L -212.8 737.1 L -243.5 706.4 L -212.8 675.8 L -243.5 645.1 L -212.8 614.5 L -182.2 645.1 Z" fill="#eaac8b" stroke="#355070" stroke-width="4"></path><path d="M -182.2 645.1 L -243.5 583.8 L -212.8 553.2 L -151.5 614.5 Z" fill="#6d597a" stroke="#355070" stroke-width="4"></path><path d="M -182.2 706.4 L -120.9 767.7 L -151.5 798.3 L -212.8 737.1 Z" fill="#6d597a" stroke="#355070" stroke-width="4"></path><path d="M -212.8 675.8 L -243.5 645.1 L -304.7 706.4 L -274.1 737.1 Z" fill="#6d597a" stroke="#355070" stroke-width="4"></path><path d="M -151.5 675.8 L -120.9 706.4 L -59.6 645.1 L -90.3 614.5 Z" fill="#6d597a" stroke="#355070" stroke-width="4"></path><path d="M 1.7 583.8 L 32.3 614.5 L 1.7 645.1 L 32.3 675.8 L 1.7 706.4 L -29 675.8 L -59.6 706.4 L -90.3 675.8 L -59.6 645.1 L -90.3 614.5 L -59.6 583.8 L -29 614.5 Z" fill="#e56b6f" stroke="#355070" stroke-width="4"></path><path d="M -29 614.5 L -90.3 553.2 L -59.6 522.6 L 1.7 583.8 Z" fill="#6d597a" stroke="#355070" stroke-width="4"></path><path d="M -29 675.8 L 32.3 737.1 L 1.7 767.7 L -59.6 706.4 Z" fill="#6d597a" stroke="#355070" stroke-width="4"></path><path d="M -59.6 645.1 L -90.3 614.5 L -151.5 675.8 L -120.9 706.4 Z" fill="#6d597a" stroke="#355070" stroke-width="4"></path><path d="M 1.7 645.1 L 32.3 675.8 L 93.6 614.5 L 62.9 583.8 Z" fill="#6d597a" stroke="#355070" stroke-width="4"></path><path d="M 154.9 553.2 L 185.5 583.8 L 154.9 614.5 L 185.5 645.1 L 154.9 675.8 L 124.2 645.1 L 93.6 675.8 L 62.9 645.1 L 93.6 614.5 L 62.9 583.8 L 93.6 553.2 L 124.2 583.8 Z" fill="#eaac8b" stroke="#355070" stroke-width="4"></path><path d="M 124.2 583.8 L 62.9 522.6 L 93.6 491.9 L 154.9 553.2 Z" fill="#6d597a" stroke="#355070" stroke-width="4"></path><path d="M 124.2 645.1 L 185.5 706.4 L 154.9 737.1 L 93.6 675.8 Z" fill="#6d597a" stroke="#355070" stroke-width="4"></path><path d="M 93.6 614.5 L 62.9 583.8 L 1.7 645.1 L 32.3 675.8 Z" fill="#6d597a" stroke="#355070" stroke-width="4"></path><path d="M 154.9 614.5 L 185.5 645.1 L 246.8 583.8 L 216.2 553.2 Z" fill="#6d597a" stroke="#355070" stroke-width="4"></path><path d="M 308.1 522.6 L 338.7 553.2 L 308.1 583.8 L 338.7 614.5 L 308.1 645.1 L 277.4 614.5 L 246.8 645.1 L 216.2 614.5 L 246.8 583.8 L 216.2 553.2 L 246.8 522.6 L 277.4 553.2 Z" fill="#e56b6f" stroke="#355070" stroke-width="4"></path><path d="M 277.4 553.2 L 216.2 491.9 L 246.8 461.3 L 308.1 522.6 Z" fill="#6d597a" stroke="#355070" stroke-width="4"></path><path d="M 277.4 614.5 L 338.7 675.8 L 308.1 706.4 L 246.8 645.1 Z" fill="#6d597a" stroke="#355070" stroke-width="4"></path><path d="M 246.8 583.8 L 216.2 553.2 L 154.9 614.5 L 185.5 645.1 Z" fill="#6d597a" stroke="#355070" stroke-width="4"></path><path d="M 308.1 583.8 L 338.7 614.5 L 400 553.2 L 369.4 522.6 Z" fill="#6d597a" stroke="#355070" stroke-width="4"></path><path d="M 461.3 491.9 L 491.9 522.6 L 461.3 553.2 L 491.9 583.8 L 461.3 614.5 L 430.6 583.8 L 400 614.5 L 369.4 583.8 L 400 553.2 L 369.4 522.6 L 400 491.9 L 430.6 522.6 Z" fill="#eaac8b" stroke="#355070" stroke-width="4"></path><path d="M 430.6 522.6 L 369.4 461.3 L 400 430.6 L 461.3 491.9 Z" fill="#6d597a" stroke="#355070" stroke-width="4"></path><path d="M 430.6 583.8 L 491.9 645.1 L 461.3 675.8 L 400 614.5 Z" fill="#6d597a" stroke="#355070" stroke-width="4"></path><path d="M 400 553.2 L 369.4 522.6 L 308.1 583.8 L 338.7 614.5 Z" fill="#6d597a" stroke="#355070" stroke-width="4"></path><path d="M 461.3 553.2 L 491.9 583.8 L 553.2 522.6 L 522.6 491.9 Z" fill="#6d597a" stroke="#355070" stroke-width="4"></path><path d="M 614.5 461.3 L 645.1 491.9 L 614.5 522.6 L 645.1 553.2 L 614.5 583.8 L 583.8 553.2 L 553.2 583.8 L 522.6 553.2 L 553.2 522.6 L 522.6 491.9 L 553.2 461.3 L 583.8 491.9 Z" fill="#e56b6f" stroke="#355070" stroke-width="4"></path><path d="M 583.8 491.9 L 522.6 430.6 L 553.2 400 L 614.5 461.3 Z" fill="#6d597a" stroke="#355070" stroke-width="4"></path><path d="M 583.8 553.2 L 645.1 614.5 L 614.5 645.1 L 553.2 583.8 Z" fill="#6d597a" stroke="#355070" stroke-width="4"></path><path d="M 553.2 522.6 L 522.6 491.9 L 461.3 553.2 L 491.9 583.8 Z" fill="#6d597a" stroke="#355070" stroke-width="4"></path><path d="M 614.5 522.6 L 645.1 553.2 L 706.4 491.9 L 675.8 461.3 Z" fill="#6d597a" stroke="#355070" stroke-width="4"></path><path d="M 767.7 430.6 L 798.3 461.3 L 767.7 491.9 L 798.3 522.6 L 767.7 553.2 L 737.1 522.6 L 706.4 553.2 L 675.8 522.6 L 706.4 491.9 L 675.8 461.3 L 706.4 430.6 L 737.1 461.3 Z" fill="#eaac8b" stroke="#355070" stroke-width="4"></path><path d="M 737.1 461.3 L 675.8 400 L 706.4 369.4 L 767.7 430.6 Z" fill="#6d597a" stroke="#355070" stroke-width="4"></path><path d="M 737.1 522.6 L 798.3 583.8 L 767.7 614.5 L 706.4 553.2 Z" fill="#6d597a" stroke="#355070" stroke-width="4"></path><path d="M 706.4 491.9 L 675.8 461.3 L 614.5 522.6 L 645.1 553.2 Z" fill="#6d597a" stroke="#355070" stroke-width="4"></path><path d="M 767.7 491.9 L 798.3 522.6 L 859.6 461.3 L 829 430.6 Z" fill="#6d597a" stroke="#355070" stroke-width="4"></path><path d="M 920.9 400 L 951.5 430.6 L 920.9 461.3 L 951.5 491.9 L 920.9 522.6 L 890.3 491.9 L 859.6 522.6 L 829 491.9 L 859.6 461.3 L 829 430.6 L 859.6 400 L 890.3 430.6 Z" fill="#e56b6f" stroke="#355070" stroke-width="4"></path><path d="M 890.3 430.6 L 829 369.4 L 859.6 338.7 L 920.9 400 Z" fill="#6d597a" stroke="#355070" stroke-width="4"></path><path d="M 890.3 491.9 L 951.5 553.2 L 920.9 583.8 L 859.6 522.6 Z" fill="#6d597a" stroke="#355070" stroke-width="4"></path><path d="M 859.6 461.3 L 829 430.6 L 767.7 491.9 L 798.3 522.6 Z" fill="#6d597a" stroke="#355070" stroke-width="4"></path><path d="M 920.9 461.3 L 951.5 491.9 L 1012.8 430.6 L 982.2 400 Z" fill="#6d597a" stroke="#355070" stroke-width="4"></path><path d="M 1074.1 369.4 L 1104.7 400 L 1074.1 430.6 L 1104.7 461.3 L 1074.1 491.9 L 1043.5 461.3 L 1012.8 491.9 L 982.2 461.3 L 1012.8 430.6 L 982.2 400 L 1012.8 369.4 L 1043.5 400 Z" fill="#eaac8b" stroke="#355070" stroke-width="4"></path><path d="M 1043.5 400 L 982.2 338.7 L 1012.8 308.1 L 1074.1 369.4 Z" fill="#6d597a" stroke="#355070" stroke-width="4"></path><path d="M 1043.5 461.3 L 1104.7 522.6 L 1074.1 553.2 L 1012.8 491.9 Z" fill="#6d597a" stroke="#355070" stroke-width="4"></path><path d="M 1012.8 430.6 L 982.2 400 L 920.9 461.3 L 951.5 491.9 Z" fill="#6d597a" stroke="#355070" stroke-width="4"></path><path d="M 1074.1 430.6 L 1104.7 461.3 L 1166 400 L 1135.4 369.4 Z" fill="#6d597a" stroke="#355070" stroke-width="4"></path><path d="M -120.9 767.7 L -90.3 798.3 L -120.9 829 L -90.3 859.6 L -120.9 890.3 L -151.5 859.6 L -182.2 890.3 L -212.8 859.6 L -182.2 829 L -212.8 798.3 L -182.2 767.7 L -151.5 798.3 Z" fill="#e56b6f" stroke="#355070" stroke-width="4"></path><path d="M -151.5 798.3 L -212.8 737.1 L -182.2 706.4 L -120.9 767.7 Z" fill="#6d597a" stroke="#355070" stroke-width="4"></path><path d="M -151.5 859.6 L -90.3 920.9 L -120.9 951.5 L -182.2 890.3 Z" fill="#6d597a" stroke="#355070" stroke-width="4"></path><path d="M -182.2 829 L -212.8 798.3 L -274.1 859.6 L -243.5 890.3 Z" fill="#6d597a" stroke="#355070" stroke-width="4"></path><path d="M -120.9 829 L -90.3 859.6 L -29 798.3 L -59.6 767.7 Z" fill="#6d597a" stroke="#355070" stroke-width="4"></path><path d="M 32.3 737.1 L 62.9 767.7 L 32.3 798.3 L 62.9 829 L 32.3 859.6 L 1.7 829 L -29 859.6 L -59.6 829 L -29 798.3 L -59.6 767.7 L -29 737.1 L 1.7 767.7 Z" fill="#eaac8b" stroke="#355070" stroke-width="4"></path><path d="M 1.7 767.7 L -59.6 706.4 L -29 675.8 L 32.3 737.1 Z" fill="#6d597a" stroke="#355070" stroke-width="4"></path><path d="M 1.7 829 L 62.9 890.3 L 32.3 920.9 L -29 859.6 Z" fill="#6d597a" stroke="#355070" stroke-width="4"></path><path d="M -29 798.3 L -59.6 767.7 L -120.9 829 L -90.3 859.6 Z" fill="#6d597a" stroke="#355070" stroke-width="4"></path><path d="M 32.3 798.3 L 62.9 829 L 124.2 767.7 L 93.6 737.1 Z" fill="#6d597a" stroke="#355070" stroke-width="4"></path><path d="M 185.5 706.4 L 216.2 737.1 L 185.5 767.7 L 216.2 798.3 L 185.5 829 L 154.9 798.3 L 124.2 829 L 93.6 798.3 L 124.2 767.7 L 93.6 737.1 L 124.2 706.4 L 154.9 737.1 Z" fill="#e56b6f" stroke="#355070" stroke-width="4"></path><path d="M 154.9 737.1 L 93.6 675.8 L 124.2 645.1 L 185.5 706.4 Z" fill="#6d597a" stroke="#355070" stroke-width="4"></path><path d="M 154.9 798.3 L 216.2 859.6 L 185.5 890.3 L 124.2 829 Z" fill="#6d597a" stroke="#355070" stroke-width="4"></path><path d="M 124.2 767.7 L 93.6 737.1 L 32.3 798.3 L 62.9 829 Z" fill="#6d597a" stroke="#355070" stroke-width="4"></path><path d="M 185.5 767.7 L 216.2 798.3 L 277.4 737.1 L 246.8 706.4 Z" fill="#6d597a" stroke="#355070" stroke-width="4"></path><path d="M 338.7 675.8 L 369.4 706.4 L 338.7 737.1 L 369.4 767.7 L 338.7 798.3 L 308.1 767.7 L 277.4 798.3 L 246.8 767.7 L 277.4 737.1 L 246.8 706.4 L 277.4 675.8 L 308.1 706.4 Z" fill="#eaac8b" stroke="#355070" stroke-width="4"></path><path d="M 308.1 706.4 L 246.8 645.1 L 277.4 614.5 L 338.7 675.8 Z" fill="#6d597a" stroke="#355070" stroke-width="4"></path><path d="M 308.1 767.7 L 369.4 829 L 338.7 859.6 L 277.4 798.3 Z" fill="#6d597a" stroke="#355070" stroke-width="4"></path><path d="M 277.4 737.1 L 246.8 706.4 L 185.5 767.7 L 216.2 798.3 Z" fill="#6d597a" stroke="#355070" stroke-width="4"></path><path d="M 338.7 737.1 L 369.4 767.7 L 430.6 706.4 L 400 675.8 Z" fill="#6d597a" stroke="#355070" stroke-width="4"></path><path d="M 491.9 645.1 L 522.6 675.8 L 491.9 706.4 L 522.6 737.1 L 491.9 767.7 L 461.3 737.1 L 430.6 767.7 L 400 737.1 L 430.6 706.4 L 400 675.8 L 430.6 645.1 L 461.3 675.8 Z" fill="#e56b6f" stroke="#355070" stroke-width="4"></path><path d="M 461.3 675.8 L 400 614.5 L 430.6 583.8 L 491.9 645.1 Z" fill="#6d597a" stroke="#355070" stroke-width="4"></path><path d="M 461.3 737.1 L 522.6 798.3 L 491.9 829 L 430.6 767.7 Z" fill="#6d597a" stroke="#355070" stroke-width="4"></path><path d="M 430.6 706.4 L 400 675.8 L 338.7 737.1 L 369.4 767.7 Z" fill="#6d597a" stroke="#355070" stroke-width="4"></path><path d="M 491.9 706.4 L 522.6 737.1 L 583.8 675.8 L 553.2 645.1 Z" fill="#6d597a" stroke="#355070" stroke-width="4"></path><path d="M 645.1 614.5 L 675.8 645.1 L 645.1 675.8 L 675.8 706.4 L 645.1 737.1 L 614.5 706.4 L 583.8 737.1 L 553.2 706.4 L 583.8 675.8 L 553.2 645.1 L 583.8 614.5 L 614.5 645.1 Z" fill="#eaac8b" stroke="#355070" stroke-width="4"></path><path d="M 614.5 645.1 L 553.2 583.8 L 583.8 553.2 L 645.1 614.5 Z" fill="#6d597a" stroke="#355070" stroke-width="4"></path><path d="M 614.5 706.4 L 675.8 767.7 L 645.1 798.3 L 583.8 737.1 Z" fill="#6d597a" stroke="#355070" stroke-width="4"></path><path d="M 583.8 675.8 L 553.2 645.1 L 491.9 706.4 L 522.6 737.1 Z" fill="#6d597a" stroke="#355070" stroke-width="4"></path><path d="M 645.1 675.8 L 675.8 706.4 L 737.1 645.1 L 706.4 614.5 Z" fill="#6d597a" stroke="#355070" stroke-width="4"></path><path d="M 798.3 583.8 L 829 614.5 L 798.3 645.1 L 829 675.8 L 798.3 706.4 L 767.7 675.8 L 737.1 706.4 L 706.4 675.8 L 737.1 645.1 L 706.4 614.5 L 737.1 583.8 L 767.7 614.5 Z" fill="#e56b6f" stroke="#355070" stroke-width="4"></path><path d="M 767.7 614.5 L 706.4 553.2 L 737.1 522.6 L 798.3 583.8 Z" fill="#6d597a" stroke="#355070" stroke-width="4"></path><path d="M 767.7 675.8 L 829 737.1 L 798.3 767.7 L 737.1 706.4 Z" fill="#6d597a" stroke="#355070" stroke-width="4"></path><path d="M 737.1 645.1 L 706.4 614.5 L 645.1 675.8 L 675.8 706.4 Z" fill="#6d597a" stroke="#355070" stroke-width="4"></path><path d="M 798.3 645.1 L 829 675.8 L 890.3 614.5 L 859.6 583.8 Z" fill="#6d597a" stroke="#355070" stroke-width="4"></path><path d="M 951.5 553.2 L 982.2 583.8 L 951.5 614.5 L 982.2 645.1 L 951.5 675.8 L 920.9 645.1 L 890.3 675.8 L 859.6 645.1 L 890.3 614.5 L 859.6 583.8 L 890.3 553.2 L 920.9 583.8 Z" fill="#eaac8b" stroke="#355070" stroke-width="4"></path><path d="M 920.9 583.8 L 859.6 522.6 L 890.3 491.9 L 951.5 553.2 Z" fill="#6d597a" stroke="#355070" stroke-width="4"></path><path d="M 920.9 645.1 L 982.2 706.4 L 951.5 737.1 L 890.3 675.8 Z" fill="#6d597a" stroke="#355070" stroke-width="4"></path><path d="M 890.3 614.5 L 859.6 583.8 L 798.3 645.1 L 829 675.8 Z" fill="#6d597a" stroke="#355070" stroke-width="4"></path><path d="M 951.5 614.5 L 982.2 645.1 L 1043.5 583.8 L 1012.8 553.2 Z" fill="#6d597a" stroke="#355070" stroke-width="4"></path><path d="M 1104.7 522.6 L 1135.4 553.2 L 1104.7 583.8 L 1135.4 614.5 L 1104.7 645.1 L 1074.1 614.5 L 1043.5 645.1 L 1012.8 614.5 L 1043.5 583.8 L 1012.8 553.2 L 1043.5 522.6 L 1074.1 553.2 Z" fill="#e56b6f" stroke="#355070" stroke-width="4"></path><path d="M 1074.1 553.2 L 1012.8 491.9 L 1043.5 461.3 L 1104.7 522.6 Z" fill="#6d597a" stroke="#355070" stroke-width="4"></path><path d="M 1074.1 614.5 L 1135.4 675.8 L 1104.7 706.4 L 1043.5 645.1 Z" fill="#6d597a" stroke="#355070" stroke-width="4"></path><path d="M 1043.5 583.8 L 1012.8 553.2 L 951.5 614.5 L 982.2 645.1 Z" fill="#6d597a" stroke="#355070" stroke-width="4"></path><path d="M 1104.7 583.8 L 1135.4 614.5 L 1196.7 553.2 L 1166 522.6 Z" fill="#6d597a" stroke="#355070" stroke-width="4"></path><path d="M -90.3 920.9 L -59.6 951.5 L -90.3 982.2 L -59.6 1012.8 L -90.3 1043.5 L -120.9 1012.8 L -151.5 1043.5 L -182.2 1012.8 L -151.5 982.2 L -182.2 951.5 L -151.5 920.9 L -120.9 951.5 Z" fill="#eaac8b" stroke="#355070" stroke-width="4"></path><path d="M -120.9 951.5 L -182.2 890.3 L -151.5 859.6 L -90.3 920.9 Z" fill="#6d597a" stroke="#355070" stroke-width="4"></path><path d="M -120.9 1012.8 L -59.6 1074.1 L -90.3 1104.7 L -151.5 1043.5 Z" fill="#6d597a" stroke="#355070" stroke-width="4"></path><path d="M -151.5 982.2 L -182.2 951.5 L -243.5 1012.8 L -212.8 1043.5 Z" fill="#6d597a" stroke="#355070" stroke-width="4"></path><path d="M -90.3 982.2 L -59.6 1012.8 L 1.7 951.5 L -29 920.9 Z" fill="#6d597a" stroke="#355070" stroke-width="4"></path><path d="M 62.9 890.3 L 93.6 920.9 L 62.9 951.5 L 93.6 982.2 L 62.9 1012.8 L 32.3 982.2 L 1.7 1012.8 L -29 982.2 L 1.7 951.5 L -29 920.9 L 1.7 890.3 L 32.3 920.9 Z" fill="#e56b6f" stroke="#355070" stroke-width="4"></path><path d="M 32.3 920.9 L -29 859.6 L 1.7 829 L 62.9 890.3 Z" fill="#6d597a" stroke="#355070" stroke-width="4"></path><path d="M 32.3 982.2 L 93.6 1043.5 L 62.9 1074.1 L 1.7 1012.8 Z" fill="#6d597a" stroke="#355070" stroke-width="4"></path><path d="M 1.7 951.5 L -29 920.9 L -90.3 982.2 L -59.6 1012.8 Z" fill="#6d597a" stroke="#355070" stroke-width="4"></path><path d="M 62.9 951.5 L 93.6 982.2 L 154.9 920.9 L 124.2 890.3 Z" fill="#6d597a" stroke="#355070" stroke-width="4"></path><path d="M 216.2 859.6 L 246.8 890.3 L 216.2 920.9 L 246.8 951.5 L 216.2 982.2 L 185.5 951.5 L 154.9 982.2 L 124.2 951.5 L 154.9 920.9 L 124.2 890.3 L 154.9 859.6 L 185.5 890.3 Z" fill="#eaac8b" stroke="#355070" stroke-width="4"></path><path d="M 185.5 890.3 L 124.2 829 L 154.9 798.3 L 216.2 859.6 Z" fill="#6d597a" stroke="#355070" stroke-width="4"></path><path d="M 185.5 951.5 L 246.8 1012.8 L 216.2 1043.5 L 154.9 982.2 Z" fill="#6d597a" stroke="#355070" stroke-width="4"></path><path d="M 154.9 920.9 L 124.2 890.3 L 62.9 951.5 L 93.6 982.2 Z" fill="#6d597a" stroke="#355070" stroke-width="4"></path><path d="M 216.2 920.9 L 246.8 951.5 L 308.1 890.3 L 277.4 859.6 Z" fill="#6d597a" stroke="#355070" stroke-width="4"></path><path d="M 369.4 829 L 400 859.6 L 369.4 890.3 L 400 920.9 L 369.4 951.5 L 338.7 920.9 L 308.1 951.5 L 277.4 920.9 L 308.1 890.3 L 277.4 859.6 L 308.1 829 L 338.7 859.6 Z" fill="#e56b6f" stroke="#355070" stroke-width="4"></path><path d="M 338.7 859.6 L 277.4 798.3 L 308.1 767.7 L 369.4 829 Z" fill="#6d597a" stroke="#355070" stroke-width="4"></path><path d="M 338.7 920.9 L 400 982.2 L 369.4 1012.8 L 308.1 951.5 Z" fill="#6d597a" stroke="#355070" stroke-width="4"></path><path d="M 308.1 890.3 L 277.4 859.6 L 216.2 920.9 L 246.8 951.5 Z" fill="#6d597a" stroke="#355070" stroke-width="4"></path><path d="M 369.4 890.3 L 400 920.9 L 461.3 859.6 L 430.6 829 Z" fill="#6d597a" stroke="#355070" stroke-width="4"></path><path d="M 522.6 798.3 L 553.2 829 L 522.6 859.6 L 553.2 890.3 L 522.6 920.9 L 491.9 890.3 L 461.3 920.9 L 430.6 890.3 L 461.3 859.6 L 430.6 829 L 461.3 798.3 L 491.9 829 Z" fill="#eaac8b" stroke="#355070" stroke-width="4"></path><path d="M 491.9 829 L 430.6 767.7 L 461.3 737.1 L 522.6 798.3 Z" fill="#6d597a" stroke="#355070" stroke-width="4"></path><path d="M 491.9 890.3 L 553.2 951.5 L 522.6 982.2 L 461.3 920.9 Z" fill="#6d597a" stroke="#355070" stroke-width="4"></path><path d="M 461.3 859.6 L 430.6 829 L 369.4 890.3 L 400 920.9 Z" fill="#6d597a" stroke="#355070" stroke-width="4"></path><path d="M 522.6 859.6 L 553.2 890.3 L 614.5 829 L 583.8 798.3 Z" fill="#6d597a" stroke="#355070" stroke-width="4"></path><path d="M 675.8 767.7 L 706.4 798.3 L 675.8 829 L 706.4 859.6 L 675.8 890.3 L 645.1 859.6 L 614.5 890.3 L 583.8 859.6 L 614.5 829 L 583.8 798.3 L 614.5 767.7 L 645.1 798.3 Z" fill="#e56b6f" stroke="#355070" stroke-width="4"></path><path d="M 645.1 798.3 L 583.8 737.1 L 614.5 706.4 L 675.8 767.7 Z" fill="#6d597a" stroke="#355070" stroke-width="4"></path><path d="M 645.1 859.6 L 706.4 920.9 L 675.8 951.5 L 614.5 890.3 Z" fill="#6d597a" stroke="#355070" stroke-width="4"></path><path d="M 614.5 829 L 583.8 798.3 L 522.6 859.6 L 553.2 890.3 Z" fill="#6d597a" stroke="#355070" stroke-width="4"></path><path d="M 675.8 829 L 706.4 859.6 L 767.7 798.3 L 737.1 767.7 Z" fill="#6d597a" stroke="#355070" stroke-width="4"></path><path d="M 829 737.1 L 859.6 767.7 L 829 798.3 L 859.6 829 L 829 859.6 L 798.3 829 L 767.7 859.6 L 737.1 829 L 767.7 798.3 L 737.1 767.7 L 767.7 737.1 L 798.3 767.7 Z" fill="#eaac8b" stroke="#355070" stroke-width="4"></path><path d="M 798.3 767.7 L 737.1 706.4 L 767.7 675.8 L 829 737.1 Z" fill="#6d597a" stroke="#355070" stroke-width="4"></path><path d="M 798.3 829 L 859.6 890.3 L 829 920.9 L 767.7 859.6 Z" fill="#6d597a" stroke="#355070" stroke-width="4"></path><path d="M 767.7 798.3 L 737.1 767.7 L 675.8 829 L 706.4 859.6 Z" fill="#6d597a" stroke="#355070" stroke-width="4"></path><path d="M 829 798.3 L 859.6 829 L 920.9 767.7 L 890.3 737.1 Z" fill="#6d597a" stroke="#355070" stroke-width="4"></path><path d="M 982.2 706.4 L 1012.8 737.1 L 982.2 767.7 L 1012.8 798.3 L 982.2 829 L 951.5 798.3 L 920.9 829 L 890.3 798.3 L 920.9 767.7 L 890.3 737.1 L 920.9 706.4 L 951.5 737.1 Z" fill="#e56b6f" stroke="#355070" stroke-width="4"></path><path d="M 951.5 737.1 L 890.3 675.8 L 920.9 645.1 L 982.2 706.4 Z" fill="#6d597a" stroke="#355070" stroke-width="4"></path><path d="M 951.5 798.3 L 1012.8 859.6 L 982.2 890.3 L 920.9 829 Z" fill="#6d597a" stroke="#355070" stroke-width="4"></path><path d="M 920.9 767.7 L 890.3 737.1 L 829 798.3 L 859.6 829 Z" fill="#6d597a" stroke="#355070" stroke-width="4"></path><path d="M 982.2 767.7 L 1012.8 798.3 L 1074.1 737.1 L 1043.5 706.4 Z" fill="#6d597a" stroke="#355070" stroke-width="4"></path><path d="M 1135.4 675.8 L 1166 706.4 L 1135.4 737.1 L 1166 767.7 L 1135.4 798.3 L 1104.7 767.7 L 1074.1 798.3 L 1043.5 767.7 L 1074.1 737.1 L 1043.5 706.4 L 1074.1 675.8 L 1104.7 706.4 Z" fill="#eaac8b" stroke="#355070" stroke-width="4"></path><path d="M 1104.7 706.4 L 1043.5 645.1 L 1074.1 614.5 L 1135.4 675.8 Z" fill="#6d597a" stroke="#355070" stroke-width="4"></path><path d="M 1104.7 767.7 L 1166 829 L 1135.4 859.6 L 1074.1 798.3 Z" fill="#6d597a" stroke="#355070" stroke-width="4"></path><path d="M 1074.1 737.1 L 1043.5 706.4 L 982.2 767.7 L 1012.8 798.3 Z" fill="#6d597a" stroke="#355070" stroke-width="4"></path><path d="M 1135.4 737.1 L 1166 767.7 L 1227.3 706.4 L 1196.7 675.8 Z" fill="#6d597a" stroke="#355070" stroke-width="4"></path><path d="M -59.6 1074.1 L -29 1104.7 L -59.6 1135.4 L -29 1166 L -59.6 1196.7 L -90.3 1166 L -120.9 1196.7 L -151.5 1166 L -120.9 1135.4 L -151.5 1104.7 L -120.9 1074.1 L -90.3 1104.7 Z" fill="#e56b6f" stroke="#355070" stroke-width="4"></path><path d="M -90.3 1104.7 L -151.5 1043.5 L -120.9 1012.8 L -59.6 1074.1 Z" fill="#6d597a" stroke="#355070" stroke-width="4"></path><path d="M -90.3 1166 L -29 1227.3 L -59.6 1258 L -120.9 1196.7 Z" fill="#6d597a" stroke="#355070" stroke-width="4"></path><path d="M -120.9 1135.4 L -151.5 1104.7 L -212.8 1166 L -182.2 1196.7 Z" fill="#6d597a" stroke="#355070" stroke-width="4"></path><path d="M -59.6 1135.4 L -29 1166 L 32.3 1104.7 L 1.7 1074.1 Z" fill="#6d597a" stroke="#355070" stroke-width="4"></path><path d="M 93.6 1043.5 L 124.2 1074.1 L 93.6 1104.7 L 124.2 1135.4 L 93.6 1166 L 62.9 1135.4 L 32.3 1166 L 1.7 1135.4 L 32.3 1104.7 L 1.7 1074.1 L 32.3 1043.5 L 62.9 1074.1 Z" fill="#eaac8b" stroke="#355070" stroke-width="4"></path><path d="M 62.9 1074.1 L 1.7 1012.8 L 32.3 982.2 L 93.6 1043.5 Z" fill="#6d597a" stroke="#355070" stroke-width="4"></path><path d="M 62.9 1135.4 L 124.2 1196.7 L 93.6 1227.3 L 32.3 1166 Z" fill="#6d597a" stroke="#355070" stroke-width="4"></path><path d="M 32.3 1104.7 L 1.7 1074.1 L -59.6 1135.4 L -29 1166 Z" fill="#6d597a" stroke="#355070" stroke-width="4"></path><path d="M 93.6 1104.7 L 124.2 1135.4 L 185.5 1074.1 L 154.9 1043.5 Z" fill="#6d597a" stroke="#355070" stroke-width="4"></path><path d="M 246.8 1012.8 L 277.4 1043.5 L 246.8 1074.1 L 277.4 1104.7 L 246.8 1135.4 L 216.2 1104.7 L 185.5 1135.4 L 154.9 1104.7 L 185.5 1074.1 L 154.9 1043.5 L 185.5 1012.8 L 216.2 1043.5 Z" fill="#e56b6f" stroke="#355070" stroke-width="4"></path><path d="M 216.2 1043.5 L 154.9 982.2 L 185.5 951.5 L 246.8 1012.8 Z" fill="#6d597a" stroke="#355070" stroke-width="4"></path><path d="M 216.2 1104.7 L 277.4 1166 L 246.8 1196.7 L 185.5 1135.4 Z" fill="#6d597a" stroke="#355070" stroke-width="4"></path><path d="M 185.5 1074.1 L 154.9 1043.5 L 93.6 1104.7 L 124.2 1135.4 Z" fill="#6d597a" stroke="#355070" stroke-width="4"></path><path d="M 246.8 1074.1 L 277.4 1104.7 L 338.7 1043.5 L 308.1 1012.8 Z" fill="#6d597a" stroke="#355070" stroke-width="4"></path><path d="M 400 982.2 L 430.6 1012.8 L 400 1043.5 L 430.6 1074.1 L 400 1104.7 L 369.4 1074.1 L 338.7 1104.7 L 308.1 1074.1 L 338.7 1043.5 L 308.1 1012.8 L 338.7 982.2 L 369.4 1012.8 Z" fill="#eaac8b" stroke="#355070" stroke-width="4"></path><path d="M 369.4 1012.8 L 308.1 951.5 L 338.7 920.9 L 400 982.2 Z" fill="#6d597a" stroke="#355070" stroke-width="4"></path><path d="M 369.4 1074.1 L 430.6 1135.4 L 400 1166 L 338.7 1104.7 Z" fill="#6d597a" stroke="#355070" stroke-width="4"></path><path d="M 338.7 1043.5 L 308.1 1012.8 L 246.8 1074.1 L 277.4 1104.7 Z" fill="#6d597a" stroke="#355070" stroke-width="4"></path><path d="M 400 1043.5 L 430.6 1074.1 L 491.9 1012.8 L 461.3 982.2 Z" fill="#6d597a" stroke="#355070" stroke-width="4"></path><path d="M 553.2 951.5 L 583.8 982.2 L 553.2 1012.8 L 583.8 1043.5 L 553.2 1074.1 L 522.6 1043.5 L 491.9 1074.1 L 461.3 1043.5 L 491.9 1012.8 L 461.3 982.2 L 491.9 951.5 L 522.6 982.2 Z" fill="#e56b6f" stroke="#355070" stroke-width="4"></path><path d="M 522.6 982.2 L 461.3 920.9 L 491.9 890.3 L 553.2 951.5 Z" fill="#6d597a" stroke="#355070" stroke-width="4"></path><path d="M 522.6 1043.5 L 583.8 1104.7 L 553.2 1135.4 L 491.9 1074.1 Z" fill="#6d597a" stroke="#355070" stroke-width="4"></path><path d="M 491.9 1012.8 L 461.3 982.2 L 400 1043.5 L 430.6 1074.1 Z" fill="#6d597a" stroke="#355070" stroke-width="4"></path><path d="M 553.2 1012.8 L 583.8 1043.5 L 645.1 982.2 L 614.5 951.5 Z" fill="#6d597a" stroke="#355070" stroke-width="4"></path><path d="M 706.4 920.9 L 737.1 951.5 L 706.4 982.2 L 737.1 1012.8 L 706.4 1043.5 L 675.8 1012.8 L 645.1 1043.5 L 614.5 1012.8 L 645.1 982.2 L 614.5 951.5 L 645.1 920.9 L 675.8 951.5 Z" fill="#eaac8b" stroke="#355070" stroke-width="4"></path><path d="M 675.8 951.5 L 614.5 890.3 L 645.1 859.6 L 706.4 920.9 Z" fill="#6d597a" stroke="#355070" stroke-width="4"></path><path d="M 675.8 1012.8 L 737.1 1074.1 L 706.4 1104.7 L 645.1 1043.5 Z" fill="#6d597a" stroke="#355070" stroke-width="4"></path><path d="M 645.1 982.2 L 614.5 951.5 L 553.2 1012.8 L 583.8 1043.5 Z" fill="#6d597a" stroke="#355070" stroke-width="4"></path><path d="M 706.4 982.2 L 737.1 1012.8 L 798.3 951.5 L 767.7 920.9 Z" fill="#6d597a" stroke="#355070" stroke-width="4"></path><path d="M 859.6 890.3 L 890.3 920.9 L 859.6 951.5 L 890.3 982.2 L 859.6 1012.8 L 829 982.2 L 798.3 1012.8 L 767.7 982.2 L 798.3 951.5 L 767.7 920.9 L 798.3 890.3 L 829 920.9 Z" fill="#e56b6f" stroke="#355070" stroke-width="4"></path><path d="M 829 920.9 L 767.7 859.6 L 798.3 829 L 859.6 890.3 Z" fill="#6d597a" stroke="#355070" stroke-width="4"></path><path d="M 829 982.2 L 890.3 1043.5 L 859.6 1074.1 L 798.3 1012.8 Z" fill="#6d597a" stroke="#355070" stroke-width="4"></path><path d="M 798.3 951.5 L 767.7 920.9 L 706.4 982.2 L 737.1 1012.8 Z" fill="#6d597a" stroke="#355070" stroke-width="4"></path><path d="M 859.6 951.5 L 890.3 982.2 L 951.5 920.9 L 920.9 890.3 Z" fill="#6d597a" stroke="#355070" stroke-width="4"></path><path d="M 1012.8 859.6 L 1043.5 890.3 L 1012.8 920.9 L 1043.5 951.5 L 1012.8 982.2 L 982.2 951.5 L 951.5 982.2 L 920.9 951.5 L 951.5 920.9 L 920.9 890.3 L 951.5 859.6 L 982.2 890.3 Z" fill="#eaac8b" stroke="#355070" stroke-width="4"></path><path d="M 982.2 890.3 L 920.9 829 L 951.5 798.3 L 1012.8 859.6 Z" fill="#6d597a" stroke="#355070" stroke-width="4"></path><path d="M 982.2 951.5 L 1043.5 1012.8 L 1012.8 1043.5 L 951.5 982.2 Z" fill="#6d597a" stroke="#355070" stroke-width="4"></path><path d="M 951.5 920.9 L 920.9 890.3 L 859.6 951.5 L 890.3 982.2 Z" fill="#6d597a" stroke="#355070" stroke-width="4"></path><path d="M 1012.8 920.9 L 1043.5 951.5 L 1104.7 890.3 L 1074.1 859.6 Z" fill="#6d597a" stroke="#355070" stroke-width="4"></path><path d="M 1166 829 L 1196.7 859.6 L 1166 890.3 L 1196.7 920.9 L 1166 951.5 L 1135.4 920.9 L 1104.7 951.5 L 1074.1 920.9 L 1104.7 890.3 L 1074.1 859.6 L 1104.7 829 L 1135.4 859.6 Z" fill="#e56b6f" stroke="#355070" stroke-width="4"></path><path d="M 1135.4 859.6 L 1074.1 798.3 L 1104.7 767.7 L 1166 829 Z" fill="#6d597a" stroke="#355070" stroke-width="4"></path><path d="M 1135.4 920.9 L 1196.7 982.2 L 1166 1012.8 L 1104.7 951.5 Z" fill="#6d597a" stroke="#355070" stroke-width="4"></path><path d="M 1104.7 890.3 L 1074.1 859.6 L 1012.8 920.9 L 1043.5 951.5 Z" fill="#6d597a" stroke="#355070" stroke-width="4"></path><path d="M 1166 890.3 L 1196.7 920.9 L 1258 859.6 L 1227.3 829 Z" fill="#6d597a" stroke="#355070" stroke-width="4"></path><ellipse cx="400" cy="400" rx="600" ry="600" fill="none" stroke="white" stroke-width="560"></ellipse><ellipse cx="400" cy="400" rx="320" ry="320" fill="none" stroke="#355070" stroke-width="4"></ellipse></svg>