<svg viewBox="0 0 800 800" preserveAspectRatio="xMidYMin slice" xmlns="http://www.w3.org/2000/svg" xlink="http://www.w3.org/1999/xlink"><defs><g id="unit-13"><path d="M 0 0 C 32.9 2.3, 38.4 63, 76.1 24.7" fill="none" stroke="#2D99AA" stroke-width="5"></path><path d="M 0 0" fill="none" stroke="#2D99AA" stroke-width="5"></path><path d="M 66 29.9 Q 60.9 19.8, 63.3 12.2" fill="none" stroke="#2D99AA" stroke-width="5"></path><path d="M 0 0 C -18.4 27.4, -73.7 1.8, -59.5 53.5" fill="none" stroke="#2D99AA" stroke-width="5"></path><path d="M 0 0" fill="none" stroke="#2D99AA" stroke-width="5"></path><path d="M -58.9 42.2 Q -47.6 42.8, -42.2 48.8" fill="none" stroke="#2D99AA" stroke-width="5"></path><path d="M 0 0 C -14.5 -29.6, 35.3 -64.8, -16.6 -78.3" fill="none" stroke="#2D99AA" stroke-width="5"></path><path d="M 0 0" fill="none" stroke="#2D99AA" stroke-width="5"></path><path d="M -7.1 -72.1 Q -13.3 -62.6, -21.1 -60.9" fill="none" stroke="#2D99AA" stroke-width="5"></path></g></defs><rect x="0" y="0" width="800" height="800" fill="#0A4976"></rect><use href="#unit-13" transform="translate(400, 400)"></use><use href="#unit-13" transform="translate(406.3, 519.8)"></use><use href="#unit-13" transform="translate(506.9, 454.5)"></use><use href="#unit-13" transform="translate(500.6, 334.6)"></use><use href="#unit-13" transform="translate(393.7, 280.2)"></use><use href="#unit-13" transform="translate(293.1, 345.5)"></use><use href="#unit-13" transform="translate(299.4, 465.4)"></use><use href="#unit-13" transform="translate(412.6, 639.7)"></use><use href="#unit-13" transform="translate(513.2, 574.3)"></use><use href="#unit-13" transform="translate(613.8, 509)"></use><use href="#unit-13" transform="translate(607.6, 389.1)"></use><use href="#unit-13" transform="translate(601.3, 269.3)"></use><use href="#unit-13" transform="translate(494.4, 214.8)"></use><use href="#unit-13" transform="translate(387.4, 160.3)"></use><use href="#unit-13" transform="translate(286.8, 225.7)"></use><use href="#unit-13" transform="translate(186.2, 291)"></use><use href="#unit-13" transform="translate(192.4, 410.9)"></use><use href="#unit-13" transform="translate(198.7, 530.7)"></use><use href="#unit-13" transform="translate(305.6, 585.2)"></use><use href="#unit-13" transform="translate(418.8, 759.5)"></use><use href="#unit-13" transform="translate(519.5, 694.1)"></use><use href="#unit-13" transform="translate(620.1, 628.8)"></use><use href="#unit-13" transform="translate(720.8, 563.4)"></use><use href="#unit-13" transform="translate(714.5, 443.6)"></use><use href="#unit-13" transform="translate(708.2, 323.8)"></use><use href="#unit-13" transform="translate(701.9, 203.9)"></use><use href="#unit-13" transform="translate(595, 149.5)"></use><use href="#unit-13" transform="translate(488.1, 95)"></use><use href="#unit-13" transform="translate(381.2, 40.5)"></use><use href="#unit-13" transform="translate(280.5, 105.9)"></use><use href="#unit-13" transform="translate(179.9, 171.2)"></use><use href="#unit-13" transform="translate(79.2, 236.6)"></use><use href="#unit-13" transform="translate(85.5, 356.4)"></use><use href="#unit-13" transform="translate(91.8, 476.2)"></use><use href="#unit-13" transform="translate(98.1, 596.1)"></use><use href="#unit-13" transform="translate(205, 650.5)"></use><use href="#unit-13" transform="translate(311.9, 705)"></use><use href="#unit-13" transform="translate(425.1, 879.3)"></use><use href="#unit-13" transform="translate(525.8, 814)"></use><use href="#unit-13" transform="translate(626.4, 748.6)"></use><use href="#unit-13" transform="translate(727, 683.3)"></use><use href="#unit-13" transform="translate(827.7, 617.9)"></use><use href="#unit-13" transform="translate(821.4, 498.1)"></use><use href="#unit-13" transform="translate(815.1, 378.2)"></use><use href="#unit-13" transform="translate(808.8, 258.4)"></use><use href="#unit-13" transform="translate(802.6, 138.6)"></use><use href="#unit-13" transform="translate(695.6, 84.1)"></use><use href="#unit-13" transform="translate(588.7, 29.6)"></use><use href="#unit-13" transform="translate(481.8, -24.9)"></use><use href="#unit-13" transform="translate(374.9, -79.3)"></use><use href="#unit-13" transform="translate(274.2, -14)"></use><use href="#unit-13" transform="translate(173.6, 51.4)"></use><use href="#unit-13" transform="translate(73, 116.7)"></use><use href="#unit-13" transform="translate(-27.7, 182.1)"></use><use href="#unit-13" transform="translate(-21.4, 301.9)"></use><use href="#unit-13" transform="translate(-15.1, 421.8)"></use><use href="#unit-13" transform="translate(-8.8, 541.6)"></use><use href="#unit-13" transform="translate(-2.6, 661.4)"></use><use href="#unit-13" transform="translate(104.4, 715.9)"></use><use href="#unit-13" transform="translate(211.3, 770.4)"></use><use href="#unit-13" transform="translate(318.2, 824.9)"></use><ellipse cx="400" cy="400" rx="600" ry="600" fill="none" stroke="white" stroke-width="560"></ellipse><ellipse cx="400" cy="400" rx="320" ry="320" fill="none" stroke="#2D99AA" stroke-width="5"></ellipse></svg>