<svg viewBox="0 0 800 800" preserveAspectRatio="xMidYMin slice" xmlns="http://www.w3.org/2000/svg" xlink="http://www.w3.org/1999/xlink"><defs><g id="unit-14"><path d="M 0 0 L 39.2 0 L 39.2 49 L 88.2 49 L 88.2 88.2 L 39.2 88.2 L 39.2 137.2 L 0 137.2 L 0 88.2 L -49 88.2 L -49 49 L 0 49 Z" fill="#565264" stroke="none" stroke-width="1"></path><path d="M -147 -49 L -107.8 -49 L -107.8 0 L -49 0 L -49 -49 L -9.8 -49 L -9.8 39.2 L -58.8 39.2 L -58.8 98 L -9.8 98 L -9.8 186.2 L -49 186.2 L -49 137.2 L -107.8 137.2 L -107.8 186.2 L -147 186.2 L -147 98 L -98 98 L -98 39.2 L -147 39.2 Z" fill="#706677" stroke="none" stroke-width="1"></path></g></defs><rect x="0" y="0" width="800" height="800" fill="#D6CFCB"></rect><use href="#unit-14" transform="translate(-41, -188)"></use><use href="#unit-14" transform="translate(-90, 8)"></use><use href="#unit-14" transform="translate(-139, 204)"></use><use href="#unit-14" transform="translate(-188, 400)"></use><use href="#unit-14" transform="translate(-237, 596)"></use><use href="#unit-14" transform="translate(-286, 792)"></use><use href="#unit-14" transform="translate(-335, 988)"></use><use href="#unit-14" transform="translate(155, -188)"></use><use href="#unit-14" transform="translate(106, 8)"></use><use href="#unit-14" transform="translate(57, 204)"></use><use href="#unit-14" transform="translate(8, 400)"></use><use href="#unit-14" transform="translate(-41, 596)"></use><use href="#unit-14" transform="translate(-90, 792)"></use><use href="#unit-14" transform="translate(-139, 988)"></use><use href="#unit-14" transform="translate(351, -188)"></use><use href="#unit-14" transform="translate(302, 8)"></use><use href="#unit-14" transform="translate(253, 204)"></use><use href="#unit-14" transform="translate(204, 400)"></use><use href="#unit-14" transform="translate(155, 596)"></use><use href="#unit-14" transform="translate(106, 792)"></use><use href="#unit-14" transform="translate(57, 988)"></use><use href="#unit-14" transform="translate(547, -188)"></use><use href="#unit-14" transform="translate(498, 8)"></use><use href="#unit-14" transform="translate(449, 204)"></use><use href="#unit-14" transform="translate(400, 400)"></use><use href="#unit-14" transform="translate(351, 596)"></use><use href="#unit-14" transform="translate(302, 792)"></use><use href="#unit-14" transform="translate(253, 988)"></use><use href="#unit-14" transform="translate(743, -188)"></use><use href="#unit-14" transform="translate(694, 8)"></use><use href="#unit-14" transform="translate(645, 204)"></use><use href="#unit-14" transform="translate(596, 400)"></use><use href="#unit-14" transform="translate(547, 596)"></use><use href="#unit-14" transform="translate(498, 792)"></use><use href="#unit-14" transform="translate(449, 988)"></use><use href="#unit-14" transform="translate(939, -188)"></use><use href="#unit-14" transform="translate(890, 8)"></use><use href="#unit-14" transform="translate(841, 204)"></use><use href="#unit-14" transform="translate(792, 400)"></use><use href="#unit-14" transform="translate(743, 596)"></use><use href="#unit-14" transform="translate(694, 792)"></use><use href="#unit-14" transform="translate(645, 988)"></use><use href="#unit-14" transform="translate(1135, -188)"></use><use href="#unit-14" transform="translate(1086, 8)"></use><use href="#unit-14" transform="translate(1037, 204)"></use><use href="#unit-14" transform="translate(988, 400)"></use><use href="#unit-14" transform="translate(939, 596)"></use><use href="#unit-14" transform="translate(890, 792)"></use><use href="#unit-14" transform="translate(841, 988)"></use><ellipse cx="400" cy="400" rx="600" ry="600" fill="none" stroke="white" stroke-width="560"></ellipse><ellipse cx="400" cy="400" rx="320" ry="320" fill="none" stroke="#D6CFCB" stroke-width="9.8"></ellipse></svg>