<svg viewBox="0 0 800 800" preserveAspectRatio="xMidYMin slice" xmlns="http://www.w3.org/2000/svg"><rect x="0" y="0" width="800" height="800" fill="#D6CFCB"></rect><path d="M -41 -188 L -1.8 -188 L -1.8 -139 L 47.2 -139 L 47.2 -99.8 L -1.8 -99.8 L -1.8 -50.8 L -41 -50.8 L -41 -99.8 L -90 -99.8 L -90 -139 L -41 -139 Z" fill="#565264" stroke="none" stroke-width="1"></path><path d="M -188 -237 L -148.8 -237 L -148.8 -188 L -90 -188 L -90 -237 L -50.8 -237 L -50.8 -148.8 L -99.8 -148.8 L -99.8 -90 L -50.8 -90 L -50.8 -1.8 L -90 -1.8 L -90 -50.8 L -148.8 -50.8 L -148.8 -1.8 L -188 -1.8 L -188 -90 L -139 -90 L -139 -148.8 L -188 -148.8 Z" fill="#706677" stroke="none" stroke-width="1"></path><path d="M -90 8 L -50.8 8 L -50.8 57 L -1.8 57 L -1.8 96.2 L -50.8 96.2 L -50.8 145.2 L -90 145.2 L -90 96.2 L -139 96.2 L -139 57 L -90 57 Z" fill="#565264" stroke="none" stroke-width="1"></path><path d="M -237 -41 L -197.8 -41 L -197.8 8 L -139 8 L -139 -41 L -99.8 -41 L -99.8 47.2 L -148.8 47.2 L -148.8 106 L -99.8 106 L -99.8 194.2 L -139 194.2 L -139 145.2 L -197.8 145.2 L -197.8 194.2 L -237 194.2 L -237 106 L -188 106 L -188 47.2 L -237 47.2 Z" fill="#706677" stroke="none" stroke-width="1"></path><path d="M -139 204 L -99.8 204 L -99.8 253 L -50.8 253 L -50.8 292.2 L -99.8 292.2 L -99.8 341.2 L -139 341.2 L -139 292.2 L -188 292.2 L -188 253 L -139 253 Z" fill="#565264" stroke="none" stroke-width="1"></path><path d="M -286 155 L -246.8 155 L -246.8 204 L -188 204 L -188 155 L -148.8 155 L -148.8 243.2 L -197.8 243.2 L -197.8 302 L -148.8 302 L -148.8 390.2 L -188 390.2 L -188 341.2 L -246.8 341.2 L -246.8 390.2 L -286 390.2 L -286 302 L -237 302 L -237 243.2 L -286 243.2 Z" fill="#706677" stroke="none" stroke-width="1"></path><path d="M -188 400 L -148.8 400 L -148.8 449 L -99.8 449 L -99.8 488.2 L -148.8 488.2 L -148.8 537.2 L -188 537.2 L -188 488.2 L -237 488.2 L -237 449 L -188 449 Z" fill="#565264" stroke="none" stroke-width="1"></path><path d="M -335 351 L -295.8 351 L -295.8 400 L -237 400 L -237 351 L -197.8 351 L -197.8 439.2 L -246.8 439.2 L -246.8 498 L -197.8 498 L -197.8 586.2 L -237 586.2 L -237 537.2 L -295.8 537.2 L -295.8 586.2 L -335 586.2 L -335 498 L -286 498 L -286 439.2 L -335 439.2 Z" fill="#706677" stroke="none" stroke-width="1"></path><path d="M -237 596 L -197.8 596 L -197.8 645 L -148.8 645 L -148.8 684.2 L -197.8 684.2 L -197.8 733.2 L -237 733.2 L -237 684.2 L -286 684.2 L -286 645 L -237 645 Z" fill="#565264" stroke="none" stroke-width="1"></path><path d="M -384 547 L -344.8 547 L -344.8 596 L -286 596 L -286 547 L -246.8 547 L -246.8 635.2 L -295.8 635.2 L -295.8 694 L -246.8 694 L -246.8 782.2 L -286 782.2 L -286 733.2 L -344.8 733.2 L -344.8 782.2 L -384 782.2 L -384 694 L -335 694 L -335 635.2 L -384 635.2 Z" fill="#706677" stroke="none" stroke-width="1"></path><path d="M -286 792 L -246.8 792 L -246.8 841 L -197.8 841 L -197.8 880.2 L -246.8 880.2 L -246.8 929.2 L -286 929.2 L -286 880.2 L -335 880.2 L -335 841 L -286 841 Z" fill="#565264" stroke="none" stroke-width="1"></path><path d="M -433 743 L -393.8 743 L -393.8 792 L -335 792 L -335 743 L -295.8 743 L -295.8 831.2 L -344.8 831.2 L -344.8 890 L -295.8 890 L -295.8 978.2 L -335 978.2 L -335 929.2 L -393.8 929.2 L -393.8 978.2 L -433 978.2 L -433 890 L -384 890 L -384 831.2 L -433 831.2 Z" fill="#706677" stroke="none" stroke-width="1"></path><path d="M -335 988 L -295.8 988 L -295.8 1037 L -246.8 1037 L -246.8 1076.2 L -295.8 1076.2 L -295.8 1125.2 L -335 1125.2 L -335 1076.2 L -384 1076.2 L -384 1037 L -335 1037 Z" fill="#565264" stroke="none" stroke-width="1"></path><path d="M -482 939 L -442.8 939 L -442.8 988 L -384 988 L -384 939 L -344.8 939 L -344.8 1027.2 L -393.8 1027.2 L -393.8 1086 L -344.8 1086 L -344.8 1174.2 L -384 1174.2 L -384 1125.2 L -442.8 1125.2 L -442.8 1174.2 L -482 1174.2 L -482 1086 L -433 1086 L -433 1027.2 L -482 1027.2 Z" fill="#706677" stroke="none" stroke-width="1"></path><path d="M 155 -188 L 194.2 -188 L 194.2 -139 L 243.2 -139 L 243.2 -99.8 L 194.2 -99.8 L 194.2 -50.8 L 155 -50.8 L 155 -99.8 L 106 -99.8 L 106 -139 L 155 -139 Z" fill="#565264" stroke="none" stroke-width="1"></path><path d="M 8 -237 L 47.2 -237 L 47.2 -188 L 106 -188 L 106 -237 L 145.2 -237 L 145.2 -148.8 L 96.2 -148.8 L 96.2 -90 L 145.2 -90 L 145.2 -1.8 L 106 -1.8 L 106 -50.8 L 47.2 -50.8 L 47.2 -1.8 L 8 -1.8 L 8 -90 L 57 -90 L 57 -148.8 L 8 -148.8 Z" fill="#706677" stroke="none" stroke-width="1"></path><path d="M 106 8 L 145.2 8 L 145.2 57 L 194.2 57 L 194.2 96.2 L 145.2 96.2 L 145.2 145.2 L 106 145.2 L 106 96.2 L 57 96.2 L 57 57 L 106 57 Z" fill="#565264" stroke="none" stroke-width="1"></path><path d="M -41 -41 L -1.8 -41 L -1.8 8 L 57 8 L 57 -41 L 96.2 -41 L 96.2 47.2 L 47.2 47.2 L 47.2 106 L 96.2 106 L 96.2 194.2 L 57 194.2 L 57 145.2 L -1.8 145.2 L -1.8 194.2 L -41 194.2 L -41 106 L 8 106 L 8 47.2 L -41 47.2 Z" fill="#706677" stroke="none" stroke-width="1"></path><path d="M 57 204 L 96.2 204 L 96.2 253 L 145.2 253 L 145.2 292.2 L 96.2 292.2 L 96.2 341.2 L 57 341.2 L 57 292.2 L 8 292.2 L 8 253 L 57 253 Z" fill="#565264" stroke="none" stroke-width="1"></path><path d="M -90 155 L -50.8 155 L -50.8 204 L 8 204 L 8 155 L 47.2 155 L 47.2 243.2 L -1.8 243.2 L -1.8 302 L 47.2 302 L 47.2 390.2 L 8 390.2 L 8 341.2 L -50.8 341.2 L -50.8 390.2 L -90 390.2 L -90 302 L -41 302 L -41 243.2 L -90 243.2 Z" fill="#706677" stroke="none" stroke-width="1"></path><path d="M 8 400 L 47.2 400 L 47.2 449 L 96.2 449 L 96.2 488.2 L 47.2 488.2 L 47.2 537.2 L 8 537.2 L 8 488.2 L -41 488.2 L -41 449 L 8 449 Z" fill="#565264" stroke="none" stroke-width="1"></path><path d="M -139 351 L -99.8 351 L -99.8 400 L -41 400 L -41 351 L -1.8 351 L -1.8 439.2 L -50.8 439.2 L -50.8 498 L -1.8 498 L -1.8 586.2 L -41 586.2 L -41 537.2 L -99.8 537.2 L -99.8 586.2 L -139 586.2 L -139 498 L -90 498 L -90 439.2 L -139 439.2 Z" fill="#706677" stroke="none" stroke-width="1"></path><path d="M -41 596 L -1.8 596 L -1.8 645 L 47.2 645 L 47.2 684.2 L -1.8 684.2 L -1.8 733.2 L -41 733.2 L -41 684.2 L -90 684.2 L -90 645 L -41 645 Z" fill="#565264" stroke="none" stroke-width="1"></path><path d="M -188 547 L -148.8 547 L -148.8 596 L -90 596 L -90 547 L -50.8 547 L -50.8 635.2 L -99.8 635.2 L -99.8 694 L -50.8 694 L -50.8 782.2 L -90 782.2 L -90 733.2 L -148.8 733.2 L -148.8 782.2 L -188 782.2 L -188 694 L -139 694 L -139 635.2 L -188 635.2 Z" fill="#706677" stroke="none" stroke-width="1"></path><path d="M -90 792 L -50.8 792 L -50.8 841 L -1.8 841 L -1.8 880.2 L -50.8 880.2 L -50.8 929.2 L -90 929.2 L -90 880.2 L -139 880.2 L -139 841 L -90 841 Z" fill="#565264" stroke="none" stroke-width="1"></path><path d="M -237 743 L -197.8 743 L -197.8 792 L -139 792 L -139 743 L -99.8 743 L -99.8 831.2 L -148.8 831.2 L -148.8 890 L -99.8 890 L -99.8 978.2 L -139 978.2 L -139 929.2 L -197.8 929.2 L -197.8 978.2 L -237 978.2 L -237 890 L -188 890 L -188 831.2 L -237 831.2 Z" fill="#706677" stroke="none" stroke-width="1"></path><path d="M -139 988 L -99.8 988 L -99.8 1037 L -50.8 1037 L -50.8 1076.2 L -99.8 1076.2 L -99.8 1125.2 L -139 1125.2 L -139 1076.2 L -188 1076.2 L -188 1037 L -139 1037 Z" fill="#565264" stroke="none" stroke-width="1"></path><path d="M -286 939 L -246.8 939 L -246.8 988 L -188 988 L -188 939 L -148.8 939 L -148.8 1027.2 L -197.8 1027.2 L -197.8 1086 L -148.8 1086 L -148.8 1174.2 L -188 1174.2 L -188 1125.2 L -246.8 1125.2 L -246.8 1174.2 L -286 1174.2 L -286 1086 L -237 1086 L -237 1027.2 L -286 1027.2 Z" fill="#706677" stroke="none" stroke-width="1"></path><path d="M 351 -188 L 390.2 -188 L 390.2 -139 L 439.2 -139 L 439.2 -99.8 L 390.2 -99.8 L 390.2 -50.8 L 351 -50.8 L 351 -99.8 L 302 -99.8 L 302 -139 L 351 -139 Z" fill="#565264" stroke="none" stroke-width="1"></path><path d="M 204 -237 L 243.2 -237 L 243.2 -188 L 302 -188 L 302 -237 L 341.2 -237 L 341.2 -148.8 L 292.2 -148.8 L 292.2 -90 L 341.2 -90 L 341.2 -1.8 L 302 -1.8 L 302 -50.8 L 243.2 -50.8 L 243.2 -1.8 L 204 -1.8 L 204 -90 L 253 -90 L 253 -148.8 L 204 -148.8 Z" fill="#706677" stroke="none" stroke-width="1"></path><path d="M 302 8 L 341.2 8 L 341.2 57 L 390.2 57 L 390.2 96.2 L 341.2 96.2 L 341.2 145.2 L 302 145.2 L 302 96.2 L 253 96.2 L 253 57 L 302 57 Z" fill="#565264" stroke="none" stroke-width="1"></path><path d="M 155 -41 L 194.2 -41 L 194.2 8 L 253 8 L 253 -41 L 292.2 -41 L 292.2 47.2 L 243.2 47.2 L 243.2 106 L 292.2 106 L 292.2 194.2 L 253 194.2 L 253 145.2 L 194.2 145.2 L 194.2 194.2 L 155 194.2 L 155 106 L 204 106 L 204 47.2 L 155 47.2 Z" fill="#706677" stroke="none" stroke-width="1"></path><path d="M 253 204 L 292.2 204 L 292.2 253 L 341.2 253 L 341.2 292.2 L 292.2 292.2 L 292.2 341.2 L 253 341.2 L 253 292.2 L 204 292.2 L 204 253 L 253 253 Z" fill="#565264" stroke="none" stroke-width="1"></path><path d="M 106 155 L 145.2 155 L 145.2 204 L 204 204 L 204 155 L 243.2 155 L 243.2 243.2 L 194.2 243.2 L 194.2 302 L 243.2 302 L 243.2 390.2 L 204 390.2 L 204 341.2 L 145.2 341.2 L 145.2 390.2 L 106 390.2 L 106 302 L 155 302 L 155 243.2 L 106 243.2 Z" fill="#706677" stroke="none" stroke-width="1"></path><path d="M 204 400 L 243.2 400 L 243.2 449 L 292.2 449 L 292.2 488.2 L 243.2 488.2 L 243.2 537.2 L 204 537.2 L 204 488.2 L 155 488.2 L 155 449 L 204 449 Z" fill="#565264" stroke="none" stroke-width="1"></path><path d="M 57 351 L 96.2 351 L 96.2 400 L 155 400 L 155 351 L 194.2 351 L 194.2 439.2 L 145.2 439.2 L 145.2 498 L 194.2 498 L 194.2 586.2 L 155 586.2 L 155 537.2 L 96.2 537.2 L 96.2 586.2 L 57 586.2 L 57 498 L 106 498 L 106 439.2 L 57 439.2 Z" fill="#706677" stroke="none" stroke-width="1"></path><path d="M 155 596 L 194.2 596 L 194.2 645 L 243.2 645 L 243.2 684.2 L 194.2 684.2 L 194.2 733.2 L 155 733.2 L 155 684.2 L 106 684.2 L 106 645 L 155 645 Z" fill="#565264" stroke="none" stroke-width="1"></path><path d="M 8 547 L 47.2 547 L 47.2 596 L 106 596 L 106 547 L 145.2 547 L 145.2 635.2 L 96.2 635.2 L 96.2 694 L 145.2 694 L 145.2 782.2 L 106 782.2 L 106 733.2 L 47.2 733.2 L 47.2 782.2 L 8 782.2 L 8 694 L 57 694 L 57 635.2 L 8 635.2 Z" fill="#706677" stroke="none" stroke-width="1"></path><path d="M 106 792 L 145.2 792 L 145.2 841 L 194.2 841 L 194.2 880.2 L 145.2 880.2 L 145.2 929.2 L 106 929.2 L 106 880.2 L 57 880.2 L 57 841 L 106 841 Z" fill="#565264" stroke="none" stroke-width="1"></path><path d="M -41 743 L -1.8 743 L -1.8 792 L 57 792 L 57 743 L 96.2 743 L 96.2 831.2 L 47.2 831.2 L 47.2 890 L 96.2 890 L 96.2 978.2 L 57 978.2 L 57 929.2 L -1.8 929.2 L -1.8 978.2 L -41 978.2 L -41 890 L 8 890 L 8 831.2 L -41 831.2 Z" fill="#706677" stroke="none" stroke-width="1"></path><path d="M 57 988 L 96.2 988 L 96.2 1037 L 145.2 1037 L 145.2 1076.2 L 96.2 1076.2 L 96.2 1125.2 L 57 1125.2 L 57 1076.2 L 8 1076.2 L 8 1037 L 57 1037 Z" fill="#565264" stroke="none" stroke-width="1"></path><path d="M -90 939 L -50.8 939 L -50.8 988 L 8 988 L 8 939 L 47.2 939 L 47.2 1027.2 L -1.8 1027.2 L -1.8 1086 L 47.2 1086 L 47.2 1174.2 L 8 1174.2 L 8 1125.2 L -50.8 1125.2 L -50.8 1174.2 L -90 1174.2 L -90 1086 L -41 1086 L -41 1027.2 L -90 1027.2 Z" fill="#706677" stroke="none" stroke-width="1"></path><path d="M 547 -188 L 586.2 -188 L 586.2 -139 L 635.2 -139 L 635.2 -99.8 L 586.2 -99.8 L 586.2 -50.8 L 547 -50.8 L 547 -99.8 L 498 -99.8 L 498 -139 L 547 -139 Z" fill="#565264" stroke="none" stroke-width="1"></path><path d="M 400 -237 L 439.2 -237 L 439.2 -188 L 498 -188 L 498 -237 L 537.2 -237 L 537.2 -148.8 L 488.2 -148.8 L 488.2 -90 L 537.2 -90 L 537.2 -1.8 L 498 -1.8 L 498 -50.8 L 439.2 -50.8 L 439.2 -1.8 L 400 -1.8 L 400 -90 L 449 -90 L 449 -148.8 L 400 -148.8 Z" fill="#706677" stroke="none" stroke-width="1"></path><path d="M 498 8 L 537.2 8 L 537.2 57 L 586.2 57 L 586.2 96.2 L 537.2 96.2 L 537.2 145.2 L 498 145.2 L 498 96.2 L 449 96.2 L 449 57 L 498 57 Z" fill="#565264" stroke="none" stroke-width="1"></path><path d="M 351 -41 L 390.2 -41 L 390.2 8 L 449 8 L 449 -41 L 488.2 -41 L 488.2 47.2 L 439.2 47.2 L 439.2 106 L 488.2 106 L 488.2 194.2 L 449 194.2 L 449 145.2 L 390.2 145.2 L 390.2 194.2 L 351 194.2 L 351 106 L 400 106 L 400 47.2 L 351 47.2 Z" fill="#706677" stroke="none" stroke-width="1"></path><path d="M 449 204 L 488.2 204 L 488.2 253 L 537.2 253 L 537.2 292.2 L 488.2 292.2 L 488.2 341.2 L 449 341.2 L 449 292.2 L 400 292.2 L 400 253 L 449 253 Z" fill="#565264" stroke="none" stroke-width="1"></path><path d="M 302 155 L 341.2 155 L 341.2 204 L 400 204 L 400 155 L 439.2 155 L 439.2 243.2 L 390.2 243.2 L 390.2 302 L 439.2 302 L 439.2 390.2 L 400 390.2 L 400 341.2 L 341.2 341.2 L 341.2 390.2 L 302 390.2 L 302 302 L 351 302 L 351 243.2 L 302 243.2 Z" fill="#706677" stroke="none" stroke-width="1"></path><path d="M 400 400 L 439.2 400 L 439.2 449 L 488.2 449 L 488.2 488.2 L 439.2 488.2 L 439.2 537.2 L 400 537.2 L 400 488.2 L 351 488.2 L 351 449 L 400 449 Z" fill="#565264" stroke="none" stroke-width="1"></path><path d="M 253 351 L 292.2 351 L 292.2 400 L 351 400 L 351 351 L 390.2 351 L 390.2 439.2 L 341.2 439.2 L 341.2 498 L 390.2 498 L 390.2 586.2 L 351 586.2 L 351 537.2 L 292.2 537.2 L 292.2 586.2 L 253 586.2 L 253 498 L 302 498 L 302 439.2 L 253 439.2 Z" fill="#706677" stroke="none" stroke-width="1"></path><path d="M 351 596 L 390.2 596 L 390.2 645 L 439.2 645 L 439.2 684.2 L 390.2 684.2 L 390.2 733.2 L 351 733.2 L 351 684.2 L 302 684.2 L 302 645 L 351 645 Z" fill="#565264" stroke="none" stroke-width="1"></path><path d="M 204 547 L 243.2 547 L 243.2 596 L 302 596 L 302 547 L 341.2 547 L 341.2 635.2 L 292.2 635.2 L 292.2 694 L 341.2 694 L 341.2 782.2 L 302 782.2 L 302 733.2 L 243.2 733.2 L 243.2 782.2 L 204 782.2 L 204 694 L 253 694 L 253 635.2 L 204 635.2 Z" fill="#706677" stroke="none" stroke-width="1"></path><path d="M 302 792 L 341.2 792 L 341.2 841 L 390.2 841 L 390.2 880.2 L 341.2 880.2 L 341.2 929.2 L 302 929.2 L 302 880.2 L 253 880.2 L 253 841 L 302 841 Z" fill="#565264" stroke="none" stroke-width="1"></path><path d="M 155 743 L 194.2 743 L 194.2 792 L 253 792 L 253 743 L 292.2 743 L 292.2 831.2 L 243.2 831.2 L 243.2 890 L 292.2 890 L 292.2 978.2 L 253 978.2 L 253 929.2 L 194.2 929.2 L 194.2 978.2 L 155 978.2 L 155 890 L 204 890 L 204 831.2 L 155 831.2 Z" fill="#706677" stroke="none" stroke-width="1"></path><path d="M 253 988 L 292.2 988 L 292.2 1037 L 341.2 1037 L 341.2 1076.2 L 292.2 1076.2 L 292.2 1125.2 L 253 1125.2 L 253 1076.2 L 204 1076.2 L 204 1037 L 253 1037 Z" fill="#565264" stroke="none" stroke-width="1"></path><path d="M 106 939 L 145.2 939 L 145.2 988 L 204 988 L 204 939 L 243.2 939 L 243.2 1027.2 L 194.2 1027.2 L 194.2 1086 L 243.2 1086 L 243.2 1174.2 L 204 1174.2 L 204 1125.2 L 145.2 1125.2 L 145.2 1174.2 L 106 1174.2 L 106 1086 L 155 1086 L 155 1027.2 L 106 1027.2 Z" fill="#706677" stroke="none" stroke-width="1"></path><path d="M 743 -188 L 782.2 -188 L 782.2 -139 L 831.2 -139 L 831.2 -99.8 L 782.2 -99.8 L 782.2 -50.8 L 743 -50.8 L 743 -99.8 L 694 -99.8 L 694 -139 L 743 -139 Z" fill="#565264" stroke="none" stroke-width="1"></path><path d="M 596 -237 L 635.2 -237 L 635.2 -188 L 694 -188 L 694 -237 L 733.2 -237 L 733.2 -148.8 L 684.2 -148.8 L 684.2 -90 L 733.2 -90 L 733.2 -1.8 L 694 -1.8 L 694 -50.8 L 635.2 -50.8 L 635.2 -1.8 L 596 -1.8 L 596 -90 L 645 -90 L 645 -148.8 L 596 -148.8 Z" fill="#706677" stroke="none" stroke-width="1"></path><path d="M 694 8 L 733.2 8 L 733.2 57 L 782.2 57 L 782.2 96.2 L 733.2 96.2 L 733.2 145.2 L 694 145.2 L 694 96.2 L 645 96.2 L 645 57 L 694 57 Z" fill="#565264" stroke="none" stroke-width="1"></path><path d="M 547 -41 L 586.2 -41 L 586.2 8 L 645 8 L 645 -41 L 684.2 -41 L 684.2 47.2 L 635.2 47.2 L 635.2 106 L 684.2 106 L 684.2 194.2 L 645 194.2 L 645 145.2 L 586.2 145.2 L 586.2 194.2 L 547 194.2 L 547 106 L 596 106 L 596 47.2 L 547 47.2 Z" fill="#706677" stroke="none" stroke-width="1"></path><path d="M 645 204 L 684.2 204 L 684.2 253 L 733.2 253 L 733.2 292.2 L 684.2 292.2 L 684.2 341.2 L 645 341.2 L 645 292.2 L 596 292.2 L 596 253 L 645 253 Z" fill="#565264" stroke="none" stroke-width="1"></path><path d="M 498 155 L 537.2 155 L 537.2 204 L 596 204 L 596 155 L 635.2 155 L 635.2 243.2 L 586.2 243.2 L 586.2 302 L 635.2 302 L 635.2 390.2 L 596 390.2 L 596 341.2 L 537.2 341.2 L 537.2 390.2 L 498 390.2 L 498 302 L 547 302 L 547 243.2 L 498 243.2 Z" fill="#706677" stroke="none" stroke-width="1"></path><path d="M 596 400 L 635.2 400 L 635.2 449 L 684.2 449 L 684.2 488.2 L 635.2 488.2 L 635.2 537.2 L 596 537.2 L 596 488.2 L 547 488.2 L 547 449 L 596 449 Z" fill="#565264" stroke="none" stroke-width="1"></path><path d="M 449 351 L 488.2 351 L 488.2 400 L 547 400 L 547 351 L 586.2 351 L 586.2 439.2 L 537.2 439.2 L 537.2 498 L 586.2 498 L 586.2 586.2 L 547 586.2 L 547 537.2 L 488.2 537.2 L 488.2 586.2 L 449 586.2 L 449 498 L 498 498 L 498 439.2 L 449 439.2 Z" fill="#706677" stroke="none" stroke-width="1"></path><path d="M 547 596 L 586.2 596 L 586.2 645 L 635.2 645 L 635.2 684.2 L 586.2 684.2 L 586.2 733.2 L 547 733.2 L 547 684.2 L 498 684.2 L 498 645 L 547 645 Z" fill="#565264" stroke="none" stroke-width="1"></path><path d="M 400 547 L 439.2 547 L 439.2 596 L 498 596 L 498 547 L 537.2 547 L 537.2 635.2 L 488.2 635.2 L 488.2 694 L 537.2 694 L 537.2 782.2 L 498 782.2 L 498 733.2 L 439.2 733.2 L 439.2 782.2 L 400 782.2 L 400 694 L 449 694 L 449 635.2 L 400 635.2 Z" fill="#706677" stroke="none" stroke-width="1"></path><path d="M 498 792 L 537.2 792 L 537.2 841 L 586.2 841 L 586.2 880.2 L 537.2 880.2 L 537.2 929.2 L 498 929.2 L 498 880.2 L 449 880.2 L 449 841 L 498 841 Z" fill="#565264" stroke="none" stroke-width="1"></path><path d="M 351 743 L 390.2 743 L 390.2 792 L 449 792 L 449 743 L 488.2 743 L 488.2 831.2 L 439.2 831.2 L 439.2 890 L 488.2 890 L 488.2 978.2 L 449 978.2 L 449 929.2 L 390.2 929.2 L 390.2 978.2 L 351 978.2 L 351 890 L 400 890 L 400 831.2 L 351 831.2 Z" fill="#706677" stroke="none" stroke-width="1"></path><path d="M 449 988 L 488.2 988 L 488.2 1037 L 537.2 1037 L 537.2 1076.2 L 488.2 1076.2 L 488.2 1125.2 L 449 1125.2 L 449 1076.2 L 400 1076.2 L 400 1037 L 449 1037 Z" fill="#565264" stroke="none" stroke-width="1"></path><path d="M 302 939 L 341.2 939 L 341.2 988 L 400 988 L 400 939 L 439.2 939 L 439.2 1027.2 L 390.2 1027.2 L 390.2 1086 L 439.2 1086 L 439.2 1174.2 L 400 1174.2 L 400 1125.2 L 341.2 1125.2 L 341.2 1174.2 L 302 1174.2 L 302 1086 L 351 1086 L 351 1027.2 L 302 1027.2 Z" fill="#706677" stroke="none" stroke-width="1"></path><path d="M 939 -188 L 978.2 -188 L 978.2 -139 L 1027.2 -139 L 1027.2 -99.8 L 978.2 -99.8 L 978.2 -50.8 L 939 -50.8 L 939 -99.8 L 890 -99.8 L 890 -139 L 939 -139 Z" fill="#565264" stroke="none" stroke-width="1"></path><path d="M 792 -237 L 831.2 -237 L 831.2 -188 L 890 -188 L 890 -237 L 929.2 -237 L 929.2 -148.8 L 880.2 -148.8 L 880.2 -90 L 929.2 -90 L 929.2 -1.8 L 890 -1.8 L 890 -50.8 L 831.2 -50.8 L 831.2 -1.8 L 792 -1.8 L 792 -90 L 841 -90 L 841 -148.8 L 792 -148.8 Z" fill="#706677" stroke="none" stroke-width="1"></path><path d="M 890 8 L 929.2 8 L 929.2 57 L 978.2 57 L 978.2 96.2 L 929.2 96.2 L 929.2 145.2 L 890 145.2 L 890 96.2 L 841 96.2 L 841 57 L 890 57 Z" fill="#565264" stroke="none" stroke-width="1"></path><path d="M 743 -41 L 782.2 -41 L 782.2 8 L 841 8 L 841 -41 L 880.2 -41 L 880.2 47.2 L 831.2 47.2 L 831.2 106 L 880.2 106 L 880.2 194.2 L 841 194.2 L 841 145.2 L 782.2 145.2 L 782.2 194.2 L 743 194.2 L 743 106 L 792 106 L 792 47.2 L 743 47.2 Z" fill="#706677" stroke="none" stroke-width="1"></path><path d="M 841 204 L 880.2 204 L 880.2 253 L 929.2 253 L 929.2 292.2 L 880.2 292.2 L 880.2 341.2 L 841 341.2 L 841 292.2 L 792 292.2 L 792 253 L 841 253 Z" fill="#565264" stroke="none" stroke-width="1"></path><path d="M 694 155 L 733.2 155 L 733.2 204 L 792 204 L 792 155 L 831.2 155 L 831.2 243.2 L 782.2 243.2 L 782.2 302 L 831.2 302 L 831.2 390.2 L 792 390.2 L 792 341.2 L 733.2 341.2 L 733.2 390.2 L 694 390.2 L 694 302 L 743 302 L 743 243.2 L 694 243.2 Z" fill="#706677" stroke="none" stroke-width="1"></path><path d="M 792 400 L 831.2 400 L 831.2 449 L 880.2 449 L 880.2 488.2 L 831.2 488.2 L 831.2 537.2 L 792 537.2 L 792 488.2 L 743 488.2 L 743 449 L 792 449 Z" fill="#565264" stroke="none" stroke-width="1"></path><path d="M 645 351 L 684.2 351 L 684.2 400 L 743 400 L 743 351 L 782.2 351 L 782.2 439.2 L 733.2 439.2 L 733.2 498 L 782.2 498 L 782.2 586.2 L 743 586.2 L 743 537.2 L 684.2 537.2 L 684.2 586.2 L 645 586.2 L 645 498 L 694 498 L 694 439.2 L 645 439.2 Z" fill="#706677" stroke="none" stroke-width="1"></path><path d="M 743 596 L 782.2 596 L 782.2 645 L 831.2 645 L 831.2 684.2 L 782.2 684.2 L 782.2 733.2 L 743 733.2 L 743 684.2 L 694 684.2 L 694 645 L 743 645 Z" fill="#565264" stroke="none" stroke-width="1"></path><path d="M 596 547 L 635.2 547 L 635.2 596 L 694 596 L 694 547 L 733.2 547 L 733.2 635.2 L 684.2 635.2 L 684.2 694 L 733.2 694 L 733.2 782.2 L 694 782.2 L 694 733.2 L 635.2 733.2 L 635.2 782.2 L 596 782.2 L 596 694 L 645 694 L 645 635.2 L 596 635.2 Z" fill="#706677" stroke="none" stroke-width="1"></path><path d="M 694 792 L 733.2 792 L 733.2 841 L 782.2 841 L 782.2 880.2 L 733.2 880.2 L 733.2 929.2 L 694 929.2 L 694 880.2 L 645 880.2 L 645 841 L 694 841 Z" fill="#565264" stroke="none" stroke-width="1"></path><path d="M 547 743 L 586.2 743 L 586.2 792 L 645 792 L 645 743 L 684.2 743 L 684.2 831.2 L 635.2 831.2 L 635.2 890 L 684.2 890 L 684.2 978.2 L 645 978.2 L 645 929.2 L 586.2 929.2 L 586.2 978.2 L 547 978.2 L 547 890 L 596 890 L 596 831.2 L 547 831.2 Z" fill="#706677" stroke="none" stroke-width="1"></path><path d="M 645 988 L 684.2 988 L 684.2 1037 L 733.2 1037 L 733.2 1076.2 L 684.2 1076.2 L 684.2 1125.2 L 645 1125.2 L 645 1076.2 L 596 1076.2 L 596 1037 L 645 1037 Z" fill="#565264" stroke="none" stroke-width="1"></path><path d="M 498 939 L 537.2 939 L 537.2 988 L 596 988 L 596 939 L 635.2 939 L 635.2 1027.2 L 586.2 1027.2 L 586.2 1086 L 635.2 1086 L 635.2 1174.2 L 596 1174.2 L 596 1125.2 L 537.2 1125.2 L 537.2 1174.2 L 498 1174.2 L 498 1086 L 547 1086 L 547 1027.2 L 498 1027.2 Z" fill="#706677" stroke="none" stroke-width="1"></path><path d="M 1135 -188 L 1174.2 -188 L 1174.2 -139 L 1223.2 -139 L 1223.2 -99.8 L 1174.2 -99.8 L 1174.2 -50.8 L 1135 -50.8 L 1135 -99.8 L 1086 -99.8 L 1086 -139 L 1135 -139 Z" fill="#565264" stroke="none" stroke-width="1"></path><path d="M 988 -237 L 1027.2 -237 L 1027.2 -188 L 1086 -188 L 1086 -237 L 1125.2 -237 L 1125.2 -148.8 L 1076.2 -148.8 L 1076.2 -90 L 1125.2 -90 L 1125.2 -1.8 L 1086 -1.8 L 1086 -50.8 L 1027.2 -50.8 L 1027.2 -1.8 L 988 -1.8 L 988 -90 L 1037 -90 L 1037 -148.8 L 988 -148.8 Z" fill="#706677" stroke="none" stroke-width="1"></path><path d="M 1086 8 L 1125.2 8 L 1125.2 57 L 1174.2 57 L 1174.2 96.2 L 1125.2 96.2 L 1125.2 145.2 L 1086 145.2 L 1086 96.2 L 1037 96.2 L 1037 57 L 1086 57 Z" fill="#565264" stroke="none" stroke-width="1"></path><path d="M 939 -41 L 978.2 -41 L 978.2 8 L 1037 8 L 1037 -41 L 1076.2 -41 L 1076.2 47.2 L 1027.2 47.2 L 1027.2 106 L 1076.2 106 L 1076.2 194.2 L 1037 194.2 L 1037 145.2 L 978.2 145.2 L 978.2 194.2 L 939 194.2 L 939 106 L 988 106 L 988 47.2 L 939 47.2 Z" fill="#706677" stroke="none" stroke-width="1"></path><path d="M 1037 204 L 1076.2 204 L 1076.2 253 L 1125.2 253 L 1125.2 292.2 L 1076.2 292.2 L 1076.2 341.2 L 1037 341.2 L 1037 292.2 L 988 292.2 L 988 253 L 1037 253 Z" fill="#565264" stroke="none" stroke-width="1"></path><path d="M 890 155 L 929.2 155 L 929.2 204 L 988 204 L 988 155 L 1027.2 155 L 1027.2 243.2 L 978.2 243.2 L 978.2 302 L 1027.2 302 L 1027.2 390.2 L 988 390.2 L 988 341.2 L 929.2 341.2 L 929.2 390.2 L 890 390.2 L 890 302 L 939 302 L 939 243.2 L 890 243.2 Z" fill="#706677" stroke="none" stroke-width="1"></path><path d="M 988 400 L 1027.2 400 L 1027.2 449 L 1076.2 449 L 1076.2 488.2 L 1027.2 488.2 L 1027.2 537.2 L 988 537.2 L 988 488.2 L 939 488.2 L 939 449 L 988 449 Z" fill="#565264" stroke="none" stroke-width="1"></path><path d="M 841 351 L 880.2 351 L 880.2 400 L 939 400 L 939 351 L 978.2 351 L 978.2 439.2 L 929.2 439.2 L 929.2 498 L 978.2 498 L 978.2 586.2 L 939 586.2 L 939 537.2 L 880.2 537.2 L 880.2 586.2 L 841 586.2 L 841 498 L 890 498 L 890 439.2 L 841 439.2 Z" fill="#706677" stroke="none" stroke-width="1"></path><path d="M 939 596 L 978.2 596 L 978.2 645 L 1027.2 645 L 1027.2 684.2 L 978.2 684.2 L 978.2 733.2 L 939 733.2 L 939 684.2 L 890 684.2 L 890 645 L 939 645 Z" fill="#565264" stroke="none" stroke-width="1"></path><path d="M 792 547 L 831.2 547 L 831.2 596 L 890 596 L 890 547 L 929.2 547 L 929.2 635.2 L 880.2 635.2 L 880.2 694 L 929.2 694 L 929.2 782.2 L 890 782.2 L 890 733.2 L 831.2 733.2 L 831.2 782.2 L 792 782.2 L 792 694 L 841 694 L 841 635.2 L 792 635.2 Z" fill="#706677" stroke="none" stroke-width="1"></path><path d="M 890 792 L 929.2 792 L 929.2 841 L 978.2 841 L 978.2 880.2 L 929.2 880.2 L 929.2 929.2 L 890 929.2 L 890 880.2 L 841 880.2 L 841 841 L 890 841 Z" fill="#565264" stroke="none" stroke-width="1"></path><path d="M 743 743 L 782.2 743 L 782.2 792 L 841 792 L 841 743 L 880.2 743 L 880.2 831.2 L 831.2 831.2 L 831.2 890 L 880.2 890 L 880.2 978.2 L 841 978.2 L 841 929.2 L 782.2 929.2 L 782.2 978.2 L 743 978.2 L 743 890 L 792 890 L 792 831.2 L 743 831.2 Z" fill="#706677" stroke="none" stroke-width="1"></path><path d="M 841 988 L 880.2 988 L 880.2 1037 L 929.2 1037 L 929.2 1076.2 L 880.2 1076.2 L 880.2 1125.2 L 841 1125.2 L 841 1076.2 L 792 1076.2 L 792 1037 L 841 1037 Z" fill="#565264" stroke="none" stroke-width="1"></path><path d="M 694 939 L 733.2 939 L 733.2 988 L 792 988 L 792 939 L 831.2 939 L 831.2 1027.2 L 782.2 1027.2 L 782.2 1086 L 831.2 1086 L 831.2 1174.2 L 792 1174.2 L 792 1125.2 L 733.2 1125.2 L 733.2 1174.2 L 694 1174.2 L 694 1086 L 743 1086 L 743 1027.2 L 694 1027.2 Z" fill="#706677" stroke="none" stroke-width="1"></path><ellipse cx="400" cy="400" rx="600" ry="600" fill="none" stroke="white" stroke-width="560"></ellipse><ellipse cx="400" cy="400" rx="320" ry="320" fill="none" stroke="#D6CFCB" stroke-width="9.8"></ellipse></svg>