<svg viewBox="0 0 800 800" preserveAspectRatio="xMidYMin slice" xmlns="http://www.w3.org/2000/svg" xlink="http://www.w3.org/1999/xlink"><defs><g id="unit-1-15"><path d="M 22.7 -183.3 L 20 -200 C 20 -220, 12 -240, 0 -240 C -12 -240, -20 -220, -20 -200 L -22.7 -183.3" fill="#e7ad99" stroke="none" stroke-width="1"></path><path d="M 30 -166.7 L 22.7 -183.3 C 16.2 -204, 12.8 -223.7, 0 -223.7 C -12.8 -223.7, -16.2 -204, -22.7 -183.3 L -30 -166.7" fill="#361134" stroke="none" stroke-width="1"></path><path d="M 40 -150 L 30 -166.7 C 17.8 -189.2, 15 -208.2, 0 -208.2 C -15 -208.2, -17.8 -189.2, -30 -166.7 L -40 -150" fill="#ce796b" stroke="none" stroke-width="1"></path><path d="M 50 -133.3 L 40 -150 C 24.3 -175, 18 -193, 0 -193 C -18 -193, -24.3 -175, -40 -150 L -50 -133.3" fill="#e7ad99" stroke="none" stroke-width="1"></path><path d="M 57.3 -116.7 L 50 -133.3 C 35 -160.8, 21 -177.8, 0 -177.8 C -21 -177.8, -35 -160.8, -50 -133.3 L -57.3 -116.7" fill="#361134" stroke="none" stroke-width="1"></path><path d="M 60 -100 L 57.3 -116.7 C 48.1 -146, 23.2 -162.3, 0 -162.3 C -23.2 -162.3, -48.1 -146, -57.3 -116.7 L -60 -100" fill="#ce796b" stroke="none" stroke-width="1"></path><path d="M 57.3 -83.3 L 60 -100 C 60 -130, 24 -146, 0 -146 C -24 -146, -60 -130, -60 -100 L -57.3 -83.3" fill="#e7ad99" stroke="none" stroke-width="1"></path><path d="M 50 -66.7 L 57.3 -83.3 C 66.5 -112.7, 23.2 -128.9, 0 -128.9 C -23.2 -128.9, -66.5 -112.7, -57.3 -83.3 L -50 -66.7" fill="#361134" stroke="none" stroke-width="1"></path><path d="M 40 -50 L 50 -66.7 C 65 -94.2, 21 -111.2, 0 -111.2 C -21 -111.2, -65 -94.2, -50 -66.7 L -40 -50" fill="#ce796b" stroke="none" stroke-width="1"></path><path d="M 30 -33.3 L 40 -50 C 55.7 -75, 18 -93, 0 -93 C -18 -93, -55.7 -75, -40 -50 L -30 -33.3" fill="#e7ad99" stroke="none" stroke-width="1"></path><path d="M 22.7 -16.7 L 30 -33.3 C 42.2 -55.8, 15 -74.8, 0 -74.8 C -15 -74.8, -42.2 -55.8, -30 -33.3 L -22.7 -16.7" fill="#361134" stroke="none" stroke-width="1"></path><path d="M 20 0 L 22.7 -16.7 C 29.2 -37.3, 12.8 -57.1, 0 -57.1 C -12.8 -57.1, -29.2 -37.3, -22.7 -16.7 L -20 0" fill="#ce796b" stroke="none" stroke-width="1"></path><path d="M 20 -200 L 20.7 -191.7 L 22.7 -183.3 L 25.9 -175 L 30 -166.7 L 34.8 -158.3 L 40 -150 L 45.2 -141.7 L 50 -133.3 L 54.1 -125 L 57.3 -116.7 L 59.3 -108.3 L 60 -100 L 59.3 -91.7 L 57.3 -83.3 L 54.1 -75 L 50 -66.7 L 45.2 -58.3 L 40 -50 L 34.8 -41.7 L 30 -33.3 L 25.9 -25 L 22.7 -16.7 L 20.7 -8.3 L 20 0" fill="none" stroke="black" stroke-width="2"></path><path d="M -20 -200 L -20.7 -191.7 L -22.7 -183.3 L -25.9 -175 L -30 -166.7 L -34.8 -158.3 L -40 -150 L -45.2 -141.7 L -50 -133.3 L -54.1 -125 L -57.3 -116.7 L -59.3 -108.3 L -60 -100 L -59.3 -91.7 L -57.3 -83.3 L -54.1 -75 L -50 -66.7 L -45.2 -58.3 L -40 -50 L -34.8 -41.7 L -30 -33.3 L -25.9 -25 L -22.7 -16.7 L -20.7 -8.3 L -20 0" fill="none" stroke="black" stroke-width="2"></path></g><g id="unit-2-15"><path d="M 110 66.7 L 102.7 83.3 C 96.2 104, 92.8 123.7, 80 123.7 C 67.2 123.7, 63.8 104, 57.3 83.3 L 50 66.7" fill="#ce796b" stroke="none" stroke-width="1"></path><path d="M 120 50 L 110 66.7 C 97.8 89.2, 95 108.2, 80 108.2 C 65 108.2, 62.2 89.2, 50 66.7 L 40 50" fill="#361134" stroke="none" stroke-width="1"></path><path d="M 130 33.3 L 120 50 C 104.3 75, 98 93, 80 93 C 62 93, 55.7 75, 40 50 L 30 33.3" fill="#e7ad99" stroke="none" stroke-width="1"></path><path d="M 137.3 16.7 L 130 33.3 C 115 60.8, 101 77.8, 80 77.8 C 59 77.8, 45 60.8, 30 33.3 L 22.7 16.7" fill="#ce796b" stroke="none" stroke-width="1"></path><path d="M 140 0 L 137.3 16.7 C 128.1 46, 103.2 62.3, 80 62.3 C 56.8 62.3, 31.9 46, 22.7 16.7 L 20 0" fill="#361134" stroke="none" stroke-width="1"></path><path d="M 137.3 -16.7 L 140 0 C 140 30, 104 46, 80 46 C 56 46, 20 30, 20 0 L 22.7 -16.7" fill="#e7ad99" stroke="none" stroke-width="1"></path><path d="M 130 -33.3 L 137.3 -16.7 C 146.5 12.7, 103.2 28.9, 80 28.9 C 56.8 28.9, 13.5 12.7, 22.7 -16.7 L 30 -33.3" fill="#ce796b" stroke="none" stroke-width="1"></path><path d="M 120 -50 L 130 -33.3 C 145 -5.8, 101 11.2, 80 11.2 C 59 11.2, 15 -5.8, 30 -33.3 L 40 -50" fill="#361134" stroke="none" stroke-width="1"></path><path d="M 110 -66.7 L 120 -50 C 135.7 -25, 98 -7, 80 -7 C 62 -7, 24.3 -25, 40 -50 L 50 -66.7" fill="#e7ad99" stroke="none" stroke-width="1"></path><path d="M 102.7 -83.3 L 110 -66.7 C 122.2 -44.2, 95 -25.2, 80 -25.2 C 65 -25.2, 37.8 -44.2, 50 -66.7 L 57.3 -83.3" fill="#ce796b" stroke="none" stroke-width="1"></path><path d="M 100 -100 L 102.7 -83.3 C 109.2 -62.7, 92.8 -42.9, 80 -42.9 C 67.2 -42.9, 50.8 -62.7, 57.3 -83.3 L 60 -100" fill="#361134" stroke="none" stroke-width="1"></path><path d="M 102.7 -116.7 L 100 -100 C 100 -80, 92 -60, 80 -60 C 68 -60, 60 -80, 60 -100 L 57.3 -116.7" fill="#e7ad99" stroke="none" stroke-width="1"></path><path d="M 100 -100 L 100.7 -91.7 L 102.7 -83.3 L 105.9 -75 L 110 -66.7 L 114.8 -58.3 L 120 -50 L 125.2 -41.7 L 130 -33.3 L 134.1 -25 L 137.3 -16.7 L 139.3 -8.3 L 140 0 L 139.3 8.3 L 137.3 16.7 L 134.1 25 L 130 33.3 L 125.2 41.7 L 120 50 L 114.8 58.3 L 110 66.7 L 105.9 75 L 102.7 83.3 L 100.7 91.7 L 100 100" fill="none" stroke="black" stroke-width="2"></path><path d="M 60 -100 L 59.3 -91.7 L 57.3 -83.3 L 54.1 -75 L 50 -66.7 L 45.2 -58.3 L 40 -50 L 34.8 -41.7 L 30 -33.3 L 25.9 -25 L 22.7 -16.7 L 20.7 -8.3 L 20 0 L 20.7 8.3 L 22.7 16.7 L 25.9 25 L 30 33.3 L 34.8 41.7 L 40 50 L 45.2 58.3 L 50 66.7 L 54.1 75 L 57.3 83.3 L 59.3 91.7 L 60 100" fill="none" stroke="black" stroke-width="2"></path></g></defs><use href="#unit-1-15" transform="translate(-80, 0)"></use><use href="#unit-1-15" transform="translate(80, 0)"></use><use href="#unit-1-15" transform="translate(240, 0)"></use><use href="#unit-1-15" transform="translate(400, 0)"></use><use href="#unit-1-15" transform="translate(560, 0)"></use><use href="#unit-1-15" transform="translate(720, 0)"></use><use href="#unit-1-15" transform="translate(880, 0)"></use><use href="#unit-1-15" transform="translate(-80, 200)"></use><use href="#unit-1-15" transform="translate(80, 200)"></use><use href="#unit-1-15" transform="translate(240, 200)"></use><use href="#unit-1-15" transform="translate(400, 200)"></use><use href="#unit-1-15" transform="translate(560, 200)"></use><use href="#unit-1-15" transform="translate(720, 200)"></use><use href="#unit-1-15" transform="translate(880, 200)"></use><use href="#unit-1-15" transform="translate(-80, 400)"></use><use href="#unit-1-15" transform="translate(80, 400)"></use><use href="#unit-1-15" transform="translate(240, 400)"></use><use href="#unit-1-15" transform="translate(400, 400)"></use><use href="#unit-1-15" transform="translate(560, 400)"></use><use href="#unit-1-15" transform="translate(720, 400)"></use><use href="#unit-1-15" transform="translate(880, 400)"></use><use href="#unit-1-15" transform="translate(-80, 600)"></use><use href="#unit-1-15" transform="translate(80, 600)"></use><use href="#unit-1-15" transform="translate(240, 600)"></use><use href="#unit-1-15" transform="translate(400, 600)"></use><use href="#unit-1-15" transform="translate(560, 600)"></use><use href="#unit-1-15" transform="translate(720, 600)"></use><use href="#unit-1-15" transform="translate(880, 600)"></use><use href="#unit-1-15" transform="translate(-80, 800)"></use><use href="#unit-1-15" transform="translate(80, 800)"></use><use href="#unit-1-15" transform="translate(240, 800)"></use><use href="#unit-1-15" transform="translate(400, 800)"></use><use href="#unit-1-15" transform="translate(560, 800)"></use><use href="#unit-1-15" transform="translate(720, 800)"></use><use href="#unit-1-15" transform="translate(880, 800)"></use><use href="#unit-2-15" transform="translate(-80, 800)"></use><use href="#unit-2-15" transform="translate(80, 800)"></use><use href="#unit-2-15" transform="translate(240, 800)"></use><use href="#unit-2-15" transform="translate(400, 800)"></use><use href="#unit-2-15" transform="translate(560, 800)"></use><use href="#unit-2-15" transform="translate(720, 800)"></use><use href="#unit-2-15" transform="translate(880, 800)"></use><use href="#unit-2-15" transform="translate(-80, 600)"></use><use href="#unit-2-15" transform="translate(80, 600)"></use><use href="#unit-2-15" transform="translate(240, 600)"></use><use href="#unit-2-15" transform="translate(400, 600)"></use><use href="#unit-2-15" transform="translate(560, 600)"></use><use href="#unit-2-15" transform="translate(720, 600)"></use><use href="#unit-2-15" transform="translate(880, 600)"></use><use href="#unit-2-15" transform="translate(-80, 400)"></use><use href="#unit-2-15" transform="translate(80, 400)"></use><use href="#unit-2-15" transform="translate(240, 400)"></use><use href="#unit-2-15" transform="translate(400, 400)"></use><use href="#unit-2-15" transform="translate(560, 400)"></use><use href="#unit-2-15" transform="translate(720, 400)"></use><use href="#unit-2-15" transform="translate(880, 400)"></use><use href="#unit-2-15" transform="translate(-80, 200)"></use><use href="#unit-2-15" transform="translate(80, 200)"></use><use href="#unit-2-15" transform="translate(240, 200)"></use><use href="#unit-2-15" transform="translate(400, 200)"></use><use href="#unit-2-15" transform="translate(560, 200)"></use><use href="#unit-2-15" transform="translate(720, 200)"></use><use href="#unit-2-15" transform="translate(880, 200)"></use><use href="#unit-2-15" transform="translate(-80, 0)"></use><use href="#unit-2-15" transform="translate(80, 0)"></use><use href="#unit-2-15" transform="translate(240, 0)"></use><use href="#unit-2-15" transform="translate(400, 0)"></use><use href="#unit-2-15" transform="translate(560, 0)"></use><use href="#unit-2-15" transform="translate(720, 0)"></use><use href="#unit-2-15" transform="translate(880, 0)"></use><ellipse cx="400" cy="400" rx="600" ry="600" fill="none" stroke="white" stroke-width="560"></ellipse><ellipse cx="400" cy="400" rx="320" ry="320" fill="none" stroke="black" stroke-width="2"></ellipse></svg>