<svg viewBox="0 0 800 800" preserveAspectRatio="xMidYMin slice" xmlns="http://www.w3.org/2000/svg" xlink="http://www.w3.org/1999/xlink"><rect x="0" y="0" width="800" height="800" fill="#b48291"></rect><path d="M -447.3 208 L -431.1 191.9 L -431.1 160.7 L -456.4 135.5 L -425.3 135.5 L -409.1 151.6 L -409.1 201 L -431.7 223.6 L -431.7 272.2 L -415.6 288.4 L -384.5 288.4 L -359.2 263.1 L -359.2 294.2 L -375.4 310.4 L -424.7 310.4 L -447.3 287.8 L -495.9 287.8 L -512.1 304 L -512.1 335.1 L -486.8 360.4 L -517.9 360.4 L -534.1 344.2 L -534.1 294.8 L -511.5 272.2 L -511.5 223.6 L -527.7 207.4 L -558.8 207.4 L -584.1 232.7 L -584.1 201.6 L -567.9 185.4 L -518.6 185.4 L -495.9 208 Z" fill="#b9cfd4" stroke="none" stroke-width="1"></path><path d="M -489.5 230 L -453.7 230 L -453.7 265.8 L -489.5 265.8 Z" fill="#a5243d" stroke="none" stroke-width="1"></path><path d="M -375.4 310.4 L -359.2 294.2 L -359.2 263.1 L -384.5 237.8 L -353.4 237.8 L -337.2 254 L -337.2 303.3 L -359.8 326 L -359.8 374.6 L -343.6 390.8 L -312.5 390.8 L -287.2 365.5 L -287.2 396.6 L -303.4 412.8 L -352.7 412.8 L -375.4 390.2 L -424 390.2 L -440.2 406.3 L -440.2 437.4 L -414.9 462.7 L -446 462.7 L -462.2 446.6 L -462.2 397.2 L -439.6 374.6 L -439.6 326 L -455.7 309.8 L -486.8 309.8 L -512.1 335.1 L -512.1 304 L -495.9 287.8 L -446.6 287.8 L -424 310.4 Z" fill="#a5243d" stroke="none" stroke-width="1"></path><path d="M -417.6 332.4 L -381.8 332.4 L -381.8 368.2 L -417.6 368.2 Z" fill="#b9cfd4" stroke="none" stroke-width="1"></path><path d="M -303.4 412.8 L -287.2 396.6 L -287.2 365.5 L -312.5 340.2 L -281.4 340.2 L -265.2 356.4 L -265.2 405.7 L -287.8 428.3 L -287.8 477 L -271.7 493.1 L -240.6 493.1 L -215.3 467.9 L -215.3 499 L -231.4 515.1 L -280.8 515.1 L -303.4 492.5 L -352 492.5 L -368.2 508.7 L -368.2 539.8 L -342.9 565.1 L -374 565.1 L -390.2 548.9 L -390.2 499.6 L -367.6 477 L -367.6 428.3 L -383.8 412.2 L -414.9 412.2 L -440.2 437.4 L -440.2 406.3 L -424 390.2 L -374.7 390.2 L -352 412.8 Z" fill="#b9cfd4" stroke="none" stroke-width="1"></path><path d="M -345.6 434.8 L -309.8 434.8 L -309.8 470.5 L -345.6 470.5 Z" fill="#a5243d" stroke="none" stroke-width="1"></path><path d="M -231.4 515.1 L -215.3 499 L -215.3 467.9 L -240.6 442.6 L -209.4 442.6 L -193.3 458.7 L -193.3 508.1 L -215.9 530.7 L -215.9 579.3 L -199.7 595.5 L -168.6 595.5 L -143.3 570.2 L -143.3 601.3 L -159.5 617.5 L -208.8 617.5 L -231.4 594.9 L -280.1 594.9 L -296.3 611.1 L -296.3 642.2 L -271 667.5 L -302.1 667.5 L -318.3 651.3 L -318.3 602 L -295.6 579.3 L -295.6 530.7 L -311.8 514.5 L -342.9 514.5 L -368.2 539.8 L -368.2 508.7 L -352 492.5 L -302.7 492.5 L -280.1 515.1 Z" fill="#a5243d" stroke="none" stroke-width="1"></path><path d="M -273.6 537.1 L -237.9 537.1 L -237.9 572.9 L -273.6 572.9 Z" fill="#b9cfd4" stroke="none" stroke-width="1"></path><path d="M -159.5 617.5 L -143.3 601.3 L -143.3 570.2 L -168.6 544.9 L -137.5 544.9 L -121.3 561.1 L -121.3 610.5 L -143.9 633.1 L -143.9 681.7 L -127.8 697.9 L -96.7 697.9 L -71.4 672.6 L -71.4 703.7 L -87.5 719.9 L -136.9 719.9 L -159.5 697.3 L -208.1 697.3 L -224.3 713.4 L -224.3 744.6 L -199 769.8 L -230.1 769.8 L -246.3 753.7 L -246.3 704.3 L -223.7 681.7 L -223.7 633.1 L -239.9 616.9 L -271 616.9 L -296.3 642.2 L -296.3 611.1 L -280.1 594.9 L -230.8 594.9 L -208.1 617.5 Z" fill="#b9cfd4" stroke="none" stroke-width="1"></path><path d="M -201.7 639.5 L -165.9 639.5 L -165.9 675.3 L -201.7 675.3 Z" fill="#a5243d" stroke="none" stroke-width="1"></path><path d="M -87.5 719.9 L -71.4 703.7 L -71.4 672.6 L -96.7 647.3 L -65.5 647.3 L -49.4 663.5 L -49.4 712.8 L -72 735.4 L -72 784.1 L -55.8 800.3 L -24.7 800.3 L 0.6 775 L 0.6 806.1 L -15.6 822.3 L -64.9 822.3 L -87.5 799.6 L -136.2 799.6 L -152.4 815.8 L -152.4 846.9 L -127.1 872.2 L -158.2 872.2 L -174.4 856 L -174.4 806.7 L -151.7 784.1 L -151.7 735.4 L -167.9 719.3 L -199 719.3 L -224.3 744.6 L -224.3 713.4 L -208.1 697.3 L -158.8 697.3 L -136.2 719.9 Z" fill="#a5243d" stroke="none" stroke-width="1"></path><path d="M -129.7 741.9 L -94 741.9 L -94 777.6 L -129.7 777.6 Z" fill="#b9cfd4" stroke="none" stroke-width="1"></path><path d="M -15.6 822.3 L 0.6 806.1 L 0.6 775 L -24.7 749.7 L 6.4 749.7 L 22.6 765.9 L 22.6 815.2 L 0 837.8 L 0 886.5 L 16.1 902.6 L 47.3 902.6 L 72.5 877.3 L 72.5 908.5 L 56.4 924.6 L 7 924.6 L -15.6 902 L -64.2 902 L -80.4 918.2 L -80.4 949.3 L -55.1 974.6 L -86.2 974.6 L -102.4 958.4 L -102.4 909.1 L -79.8 886.5 L -79.8 837.8 L -96 821.6 L -127.1 821.6 L -152.4 846.9 L -152.4 815.8 L -136.2 799.6 L -86.8 799.6 L -64.2 822.3 Z" fill="#b9cfd4" stroke="none" stroke-width="1"></path><path d="M -57.8 844.3 L -22 844.3 L -22 880 L -57.8 880 Z" fill="#a5243d" stroke="none" stroke-width="1"></path><path d="M 56.4 924.6 L 72.5 908.5 L 72.5 877.3 L 47.3 852.1 L 78.4 852.1 L 94.5 868.2 L 94.5 917.6 L 71.9 940.2 L 71.9 988.8 L 88.1 1005 L 119.2 1005 L 144.5 979.7 L 144.5 1010.8 L 128.3 1027 L 79 1027 L 56.4 1004.4 L 7.7 1004.4 L -8.4 1020.6 L -8.4 1051.7 L 16.8 1077 L -14.3 1077 L -30.4 1060.8 L -30.4 1011.4 L -7.8 988.8 L -7.8 940.2 L -24 924 L -55.1 924 L -80.4 949.3 L -80.4 918.2 L -64.2 902 L -14.9 902 L 7.7 924.6 Z" fill="#a5243d" stroke="none" stroke-width="1"></path><path d="M 14.2 946.6 L 49.9 946.6 L 49.9 982.4 L 14.2 982.4 Z" fill="#b9cfd4" stroke="none" stroke-width="1"></path><path d="M 128.3 1027 L 144.5 1010.8 L 144.5 979.7 L 119.2 954.4 L 150.3 954.4 L 166.5 970.6 L 166.5 1019.9 L 143.9 1042.6 L 143.9 1091.2 L 160 1107.4 L 191.2 1107.4 L 216.4 1082.1 L 216.4 1113.2 L 200.3 1129.4 L 150.9 1129.4 L 128.3 1106.8 L 79.7 1106.8 L 63.5 1122.9 L 63.5 1154 L 88.8 1179.3 L 57.7 1179.3 L 41.5 1163.2 L 41.5 1113.8 L 64.1 1091.2 L 64.1 1042.6 L 47.9 1026.4 L 16.8 1026.4 L -8.4 1051.7 L -8.4 1020.6 L 7.7 1004.4 L 57.1 1004.4 L 79.7 1027 Z" fill="#b9cfd4" stroke="none" stroke-width="1"></path><path d="M 86.1 1049 L 121.9 1049 L 121.9 1084.8 L 86.1 1084.8 Z" fill="#a5243d" stroke="none" stroke-width="1"></path><path d="M 200.3 1129.4 L 216.4 1113.2 L 216.4 1082.1 L 191.2 1056.8 L 222.3 1056.8 L 238.4 1073 L 238.4 1122.3 L 215.8 1144.9 L 215.8 1193.6 L 232 1209.7 L 263.1 1209.7 L 288.4 1184.5 L 288.4 1215.6 L 272.2 1231.7 L 222.9 1231.7 L 200.3 1209.1 L 151.6 1209.1 L 135.5 1225.3 L 135.5 1256.4 L 160.7 1281.7 L 129.6 1281.7 L 113.5 1265.5 L 113.5 1216.2 L 136.1 1193.6 L 136.1 1144.9 L 119.9 1128.8 L 88.8 1128.8 L 63.5 1154 L 63.5 1122.9 L 79.7 1106.8 L 129 1106.8 L 151.6 1129.4 Z" fill="#a5243d" stroke="none" stroke-width="1"></path><path d="M 158.1 1151.4 L 193.8 1151.4 L 193.8 1187.1 L 158.1 1187.1 Z" fill="#b9cfd4" stroke="none" stroke-width="1"></path><path d="M 272.2 1231.7 L 288.4 1215.6 L 288.4 1184.5 L 263.1 1159.2 L 294.2 1159.2 L 310.4 1175.4 L 310.4 1224.7 L 287.8 1247.3 L 287.8 1295.9 L 304 1312.1 L 335.1 1312.1 L 360.4 1286.8 L 360.4 1317.9 L 344.2 1334.1 L 294.8 1334.1 L 272.2 1311.5 L 223.6 1311.5 L 207.4 1327.7 L 207.4 1358.8 L 232.7 1384.1 L 201.6 1384.1 L 185.4 1367.9 L 185.4 1318.6 L 208 1295.9 L 208 1247.3 L 191.9 1231.1 L 160.7 1231.1 L 135.5 1256.4 L 135.5 1225.3 L 151.6 1209.1 L 201 1209.1 L 223.6 1231.7 Z" fill="#b9cfd4" stroke="none" stroke-width="1"></path><path d="M 230 1253.7 L 265.8 1253.7 L 265.8 1289.5 L 230 1289.5 Z" fill="#a5243d" stroke="none" stroke-width="1"></path><path d="M -344.9 136.1 L -328.8 119.9 L -328.8 88.8 L -354 63.5 L -322.9 63.5 L -306.8 79.7 L -306.8 129 L -329.4 151.6 L -329.4 200.3 L -313.2 216.4 L -282.1 216.4 L -256.8 191.2 L -256.8 222.3 L -273 238.4 L -322.3 238.4 L -344.9 215.8 L -393.6 215.8 L -409.7 232 L -409.7 263.1 L -384.5 288.4 L -415.6 288.4 L -431.7 272.2 L -431.7 222.9 L -409.1 200.3 L -409.1 151.6 L -425.3 135.5 L -456.4 135.5 L -481.7 160.7 L -481.7 129.6 L -465.5 113.5 L -416.2 113.5 L -393.6 136.1 Z" fill="#a5243d" stroke="none" stroke-width="1"></path><path d="M -387.1 158.1 L -351.4 158.1 L -351.4 193.8 L -387.1 193.8 Z" fill="#b9cfd4" stroke="none" stroke-width="1"></path><path d="M -273 238.4 L -256.8 222.3 L -256.8 191.2 L -282.1 165.9 L -251 165.9 L -234.8 182 L -234.8 231.4 L -257.4 254 L -257.4 302.6 L -241.3 318.8 L -210.1 318.8 L -184.9 293.5 L -184.9 324.6 L -201 340.8 L -250.4 340.8 L -273 318.2 L -321.6 318.2 L -337.8 334.4 L -337.8 365.5 L -312.5 390.8 L -343.6 390.8 L -359.8 374.6 L -359.8 325.3 L -337.2 302.6 L -337.2 254 L -353.4 237.8 L -384.5 237.8 L -409.7 263.1 L -409.7 232 L -393.6 215.8 L -344.2 215.8 L -321.6 238.4 Z" fill="#b9cfd4" stroke="none" stroke-width="1"></path><path d="M -315.2 260.4 L -279.4 260.4 L -279.4 296.2 L -315.2 296.2 Z" fill="#a5243d" stroke="none" stroke-width="1"></path><path d="M -201 340.8 L -184.9 324.6 L -184.9 293.5 L -210.1 268.2 L -179 268.2 L -162.9 284.4 L -162.9 333.8 L -185.5 356.4 L -185.5 405 L -169.3 421.2 L -138.2 421.2 L -112.9 395.9 L -112.9 427 L -129.1 443.2 L -178.4 443.2 L -201 420.6 L -249.7 420.6 L -265.8 436.7 L -265.8 467.9 L -240.6 493.1 L -271.7 493.1 L -287.8 477 L -287.8 427.6 L -265.2 405 L -265.2 356.4 L -281.4 340.2 L -312.5 340.2 L -337.8 365.5 L -337.8 334.4 L -321.6 318.2 L -272.3 318.2 L -249.7 340.8 Z" fill="#a5243d" stroke="none" stroke-width="1"></path><path d="M -243.2 362.8 L -207.5 362.8 L -207.5 398.6 L -243.2 398.6 Z" fill="#b9cfd4" stroke="none" stroke-width="1"></path><path d="M -129.1 443.2 L -112.9 427 L -112.9 395.9 L -138.2 370.6 L -107.1 370.6 L -90.9 386.8 L -90.9 436.1 L -113.5 458.7 L -113.5 507.4 L -97.3 523.6 L -66.2 523.6 L -40.9 498.3 L -40.9 529.4 L -57.1 545.6 L -106.5 545.6 L -129.1 522.9 L -177.7 522.9 L -193.9 539.1 L -193.9 570.2 L -168.6 595.5 L -199.7 595.5 L -215.9 579.3 L -215.9 530 L -193.3 507.4 L -193.3 458.7 L -209.4 442.6 L -240.6 442.6 L -265.8 467.9 L -265.8 436.7 L -249.7 420.6 L -200.3 420.6 L -177.7 443.2 Z" fill="#b9cfd4" stroke="none" stroke-width="1"></path><path d="M -171.3 465.2 L -135.5 465.2 L -135.5 500.9 L -171.3 500.9 Z" fill="#a5243d" stroke="none" stroke-width="1"></path><path d="M -57.1 545.6 L -40.9 529.4 L -40.9 498.3 L -66.2 473 L -35.1 473 L -18.9 489.2 L -18.9 538.5 L -41.6 561.1 L -41.6 609.8 L -25.4 625.9 L 5.7 625.9 L 31 600.6 L 31 631.8 L 14.8 647.9 L -34.5 647.9 L -57.1 625.3 L -105.8 625.3 L -121.9 641.5 L -121.9 672.6 L -96.7 697.9 L -127.8 697.9 L -143.9 681.7 L -143.9 632.4 L -121.3 609.8 L -121.3 561.1 L -137.5 544.9 L -168.6 544.9 L -193.9 570.2 L -193.9 539.1 L -177.7 522.9 L -128.4 522.9 L -105.8 545.6 Z" fill="#a5243d" stroke="none" stroke-width="1"></path><path d="M -99.3 567.6 L -63.6 567.6 L -63.6 603.3 L -99.3 603.3 Z" fill="#b9cfd4" stroke="none" stroke-width="1"></path><path d="M 14.8 647.9 L 31 631.8 L 31 600.6 L 5.7 575.4 L 36.8 575.4 L 53 591.5 L 53 640.9 L 30.4 663.5 L 30.4 712.1 L 46.6 728.3 L 77.7 728.3 L 103 703 L 103 734.1 L 86.8 750.3 L 37.4 750.3 L 14.8 727.7 L -33.8 727.7 L -50 743.9 L -50 775 L -24.7 800.3 L -55.8 800.3 L -72 784.1 L -72 734.7 L -49.4 712.1 L -49.4 663.5 L -65.5 647.3 L -96.7 647.3 L -121.9 672.6 L -121.9 641.5 L -105.8 625.3 L -56.4 625.3 L -33.8 647.9 Z" fill="#b9cfd4" stroke="none" stroke-width="1"></path><path d="M -27.4 669.9 L 8.4 669.9 L 8.4 705.7 L -27.4 705.7 Z" fill="#a5243d" stroke="none" stroke-width="1"></path><path d="M 86.8 750.3 L 103 734.1 L 103 703 L 77.7 677.7 L 108.8 677.7 L 125 693.9 L 125 743.2 L 102.3 765.9 L 102.3 814.5 L 118.5 830.7 L 149.6 830.7 L 174.9 805.4 L 174.9 836.5 L 158.7 852.7 L 109.4 852.7 L 86.8 830.1 L 38.1 830.1 L 22 846.2 L 22 877.3 L 47.3 902.6 L 16.1 902.6 L 0 886.5 L 0 837.1 L 22.6 814.5 L 22.6 765.9 L 6.4 749.7 L -24.7 749.7 L -50 775 L -50 743.9 L -33.8 727.7 L 15.5 727.7 L 38.1 750.3 Z" fill="#a5243d" stroke="none" stroke-width="1"></path><path d="M 44.6 772.3 L 80.3 772.3 L 80.3 808.1 L 44.6 808.1 Z" fill="#b9cfd4" stroke="none" stroke-width="1"></path><path d="M 158.7 852.7 L 174.9 836.5 L 174.9 805.4 L 149.6 780.1 L 180.7 780.1 L 196.9 796.3 L 196.9 845.6 L 174.3 868.2 L 174.3 916.9 L 190.5 933.1 L 221.6 933.1 L 246.9 907.8 L 246.9 938.9 L 230.7 955.1 L 181.4 955.1 L 158.7 932.4 L 110.1 932.4 L 93.9 948.6 L 93.9 979.7 L 119.2 1005 L 88.1 1005 L 71.9 988.8 L 71.9 939.5 L 94.5 916.9 L 94.5 868.2 L 78.4 852.1 L 47.3 852.1 L 22 877.3 L 22 846.2 L 38.1 830.1 L 87.5 830.1 L 110.1 852.7 Z" fill="#b9cfd4" stroke="none" stroke-width="1"></path><path d="M 116.5 874.7 L 152.3 874.7 L 152.3 910.4 L 116.5 910.4 Z" fill="#a5243d" stroke="none" stroke-width="1"></path><path d="M 230.7 955.1 L 246.9 938.9 L 246.9 907.8 L 221.6 882.5 L 252.7 882.5 L 268.9 898.7 L 268.9 948 L 246.2 970.6 L 246.2 1019.3 L 262.4 1035.4 L 293.5 1035.4 L 318.8 1010.1 L 318.8 1041.3 L 302.6 1057.4 L 253.3 1057.4 L 230.7 1034.8 L 182 1034.8 L 165.9 1051 L 165.9 1082.1 L 191.2 1107.4 L 160 1107.4 L 143.9 1091.2 L 143.9 1041.9 L 166.5 1019.3 L 166.5 970.6 L 150.3 954.4 L 119.2 954.4 L 93.9 979.7 L 93.9 948.6 L 110.1 932.4 L 159.4 932.4 L 182 955.1 Z" fill="#a5243d" stroke="none" stroke-width="1"></path><path d="M 188.5 977.1 L 224.2 977.1 L 224.2 1012.8 L 188.5 1012.8 Z" fill="#b9cfd4" stroke="none" stroke-width="1"></path><path d="M 302.6 1057.4 L 318.8 1041.3 L 318.8 1010.1 L 293.5 984.9 L 324.6 984.9 L 340.8 1001 L 340.8 1050.4 L 318.2 1073 L 318.2 1121.6 L 334.4 1137.8 L 365.5 1137.8 L 390.8 1112.5 L 390.8 1143.6 L 374.6 1159.8 L 325.3 1159.8 L 302.6 1137.2 L 254 1137.2 L 237.8 1153.4 L 237.8 1184.5 L 263.1 1209.7 L 232 1209.7 L 215.8 1193.6 L 215.8 1144.2 L 238.4 1121.6 L 238.4 1073 L 222.3 1056.8 L 191.2 1056.8 L 165.9 1082.1 L 165.9 1051 L 182 1034.8 L 231.4 1034.8 L 254 1057.4 Z" fill="#b9cfd4" stroke="none" stroke-width="1"></path><path d="M 260.4 1079.4 L 296.2 1079.4 L 296.2 1115.2 L 260.4 1115.2 Z" fill="#a5243d" stroke="none" stroke-width="1"></path><path d="M 374.6 1159.8 L 390.8 1143.6 L 390.8 1112.5 L 365.5 1087.2 L 396.6 1087.2 L 412.8 1103.4 L 412.8 1152.7 L 390.2 1175.4 L 390.2 1224 L 406.3 1240.2 L 437.4 1240.2 L 462.7 1214.9 L 462.7 1246 L 446.6 1262.2 L 397.2 1262.2 L 374.6 1239.6 L 326 1239.6 L 309.8 1255.7 L 309.8 1286.8 L 335.1 1312.1 L 304 1312.1 L 287.8 1295.9 L 287.8 1246.6 L 310.4 1224 L 310.4 1175.4 L 294.2 1159.2 L 263.1 1159.2 L 237.8 1184.5 L 237.8 1153.4 L 254 1137.2 L 303.3 1137.2 L 326 1159.8 Z" fill="#a5243d" stroke="none" stroke-width="1"></path><path d="M 332.4 1181.8 L 368.2 1181.8 L 368.2 1217.6 L 332.4 1217.6 Z" fill="#b9cfd4" stroke="none" stroke-width="1"></path><path d="M -242.6 64.1 L -226.4 47.9 L -226.4 16.8 L -251.7 -8.4 L -220.6 -8.4 L -204.4 7.7 L -204.4 57.1 L -227 79.7 L -227 128.3 L -210.8 144.5 L -179.7 144.5 L -154.4 119.2 L -154.4 150.3 L -170.6 166.5 L -219.9 166.5 L -242.6 143.9 L -291.2 143.9 L -307.4 160 L -307.4 191.2 L -282.1 216.4 L -313.2 216.4 L -329.4 200.3 L -329.4 150.9 L -306.8 128.3 L -306.8 79.7 L -322.9 63.5 L -354 63.5 L -379.3 88.8 L -379.3 57.7 L -363.2 41.5 L -313.8 41.5 L -291.2 64.1 Z" fill="#b9cfd4" stroke="none" stroke-width="1"></path><path d="M -284.8 86.1 L -249 86.1 L -249 121.9 L -284.8 121.9 Z" fill="#a5243d" stroke="none" stroke-width="1"></path><path d="M -170.6 166.5 L -154.4 150.3 L -154.4 119.2 L -179.7 93.9 L -148.6 93.9 L -132.4 110.1 L -132.4 159.4 L -155.1 182 L -155.1 230.7 L -138.9 246.9 L -107.8 246.9 L -82.5 221.6 L -82.5 252.7 L -98.7 268.9 L -148 268.9 L -170.6 246.2 L -219.3 246.2 L -235.4 262.4 L -235.4 293.5 L -210.1 318.8 L -241.3 318.8 L -257.4 302.6 L -257.4 253.3 L -234.8 230.7 L -234.8 182 L -251 165.9 L -282.1 165.9 L -307.4 191.2 L -307.4 160 L -291.2 143.9 L -241.9 143.9 L -219.3 166.5 Z" fill="#a5243d" stroke="none" stroke-width="1"></path><path d="M -212.8 188.5 L -177.1 188.5 L -177.1 224.2 L -212.8 224.2 Z" fill="#b9cfd4" stroke="none" stroke-width="1"></path><path d="M -98.7 268.9 L -82.5 252.7 L -82.5 221.6 L -107.8 196.3 L -76.7 196.3 L -60.5 212.5 L -60.5 261.8 L -83.1 284.4 L -83.1 333.1 L -66.9 349.2 L -35.8 349.2 L -10.5 324 L -10.5 355.1 L -26.7 371.2 L -76 371.2 L -98.7 348.6 L -147.3 348.6 L -163.5 364.8 L -163.5 395.9 L -138.2 421.2 L -169.3 421.2 L -185.5 405 L -185.5 355.7 L -162.9 333.1 L -162.9 284.4 L -179 268.2 L -210.1 268.2 L -235.4 293.5 L -235.4 262.4 L -219.3 246.2 L -169.9 246.2 L -147.3 268.9 Z" fill="#b9cfd4" stroke="none" stroke-width="1"></path><path d="M -140.9 290.9 L -105.1 290.9 L -105.1 326.6 L -140.9 326.6 Z" fill="#a5243d" stroke="none" stroke-width="1"></path><path d="M -26.7 371.2 L -10.5 355.1 L -10.5 324 L -35.8 298.7 L -4.7 298.7 L 11.5 314.8 L 11.5 364.2 L -11.1 386.8 L -11.1 435.4 L 5 451.6 L 36.1 451.6 L 61.4 426.3 L 61.4 457.4 L 45.3 473.6 L -4.1 473.6 L -26.7 451 L -75.3 451 L -91.5 467.2 L -91.5 498.3 L -66.2 523.6 L -97.3 523.6 L -113.5 507.4 L -113.5 458.1 L -90.9 435.4 L -90.9 386.8 L -107.1 370.6 L -138.2 370.6 L -163.5 395.9 L -163.5 364.8 L -147.3 348.6 L -98 348.6 L -75.3 371.2 Z" fill="#a5243d" stroke="none" stroke-width="1"></path><path d="M -68.9 393.2 L -33.1 393.2 L -33.1 429 L -68.9 429 Z" fill="#b9cfd4" stroke="none" stroke-width="1"></path><path d="M 45.3 473.6 L 61.4 457.4 L 61.4 426.3 L 36.1 401 L 67.3 401 L 83.4 417.2 L 83.4 466.6 L 60.8 489.2 L 60.8 537.8 L 77 554 L 108.1 554 L 133.4 528.7 L 133.4 559.8 L 117.2 576 L 67.9 576 L 45.3 553.4 L -3.4 553.4 L -19.6 569.5 L -19.6 600.6 L 5.7 625.9 L -25.4 625.9 L -41.6 609.8 L -41.6 560.4 L -18.9 537.8 L -18.9 489.2 L -35.1 473 L -66.2 473 L -91.5 498.3 L -91.5 467.2 L -75.3 451 L -26 451 L -3.4 473.6 Z" fill="#b9cfd4" stroke="none" stroke-width="1"></path><path d="M 3.1 495.6 L 38.8 495.6 L 38.8 531.4 L 3.1 531.4 Z" fill="#a5243d" stroke="none" stroke-width="1"></path><path d="M 117.2 576 L 133.4 559.8 L 133.4 528.7 L 108.1 503.4 L 139.2 503.4 L 155.4 519.6 L 155.4 568.9 L 132.8 591.5 L 132.8 640.2 L 148.9 656.4 L 180 656.4 L 205.3 631.1 L 205.3 662.2 L 189.2 678.4 L 139.8 678.4 L 117.2 655.7 L 68.6 655.7 L 52.4 671.9 L 52.4 703 L 77.7 728.3 L 46.6 728.3 L 30.4 712.1 L 30.4 662.8 L 53 640.2 L 53 591.5 L 36.8 575.4 L 5.7 575.4 L -19.6 600.6 L -19.6 569.5 L -3.4 553.4 L 45.9 553.4 L 68.6 576 Z" fill="#a5243d" stroke="none" stroke-width="1"></path><path d="M 75 598 L 110.8 598 L 110.8 633.7 L 75 633.7 Z" fill="#b9cfd4" stroke="none" stroke-width="1"></path><path d="M 189.2 678.4 L 205.3 662.2 L 205.3 631.1 L 180 605.8 L 211.2 605.8 L 227.3 622 L 227.3 671.3 L 204.7 693.9 L 204.7 742.6 L 220.9 758.7 L 252 758.7 L 277.3 733.4 L 277.3 764.6 L 261.1 780.7 L 211.8 780.7 L 189.2 758.1 L 140.5 758.1 L 124.3 774.3 L 124.3 805.4 L 149.6 830.7 L 118.5 830.7 L 102.3 814.5 L 102.3 765.2 L 125 742.6 L 125 693.9 L 108.8 677.7 L 77.7 677.7 L 52.4 703 L 52.4 671.9 L 68.6 655.7 L 117.9 655.7 L 140.5 678.4 Z" fill="#b9cfd4" stroke="none" stroke-width="1"></path><path d="M 147 700.4 L 182.7 700.4 L 182.7 736.1 L 147 736.1 Z" fill="#a5243d" stroke="none" stroke-width="1"></path><path d="M 261.1 780.7 L 277.3 764.6 L 277.3 733.4 L 252 708.2 L 283.1 708.2 L 299.3 724.3 L 299.3 773.7 L 276.7 796.3 L 276.7 844.9 L 292.8 861.1 L 324 861.1 L 349.2 835.8 L 349.2 866.9 L 333.1 883.1 L 283.7 883.1 L 261.1 860.5 L 212.5 860.5 L 196.3 876.7 L 196.3 907.8 L 221.6 933.1 L 190.5 933.1 L 174.3 916.9 L 174.3 867.5 L 196.9 844.9 L 196.9 796.3 L 180.7 780.1 L 149.6 780.1 L 124.3 805.4 L 124.3 774.3 L 140.5 758.1 L 189.9 758.1 L 212.5 780.7 Z" fill="#a5243d" stroke="none" stroke-width="1"></path><path d="M 218.9 802.7 L 254.7 802.7 L 254.7 838.5 L 218.9 838.5 Z" fill="#b9cfd4" stroke="none" stroke-width="1"></path><path d="M 333.1 883.1 L 349.2 866.9 L 349.2 835.8 L 324 810.5 L 355.1 810.5 L 371.2 826.7 L 371.2 876 L 348.6 898.7 L 348.6 947.3 L 364.8 963.5 L 395.9 963.5 L 421.2 938.2 L 421.2 969.3 L 405 985.5 L 355.7 985.5 L 333.1 962.9 L 284.4 962.9 L 268.2 979 L 268.2 1010.1 L 293.5 1035.4 L 262.4 1035.4 L 246.2 1019.3 L 246.2 969.9 L 268.9 947.3 L 268.9 898.7 L 252.7 882.5 L 221.6 882.5 L 196.3 907.8 L 196.3 876.7 L 212.5 860.5 L 261.8 860.5 L 284.4 883.1 Z" fill="#b9cfd4" stroke="none" stroke-width="1"></path><path d="M 290.9 905.1 L 326.6 905.1 L 326.6 940.9 L 290.9 940.9 Z" fill="#a5243d" stroke="none" stroke-width="1"></path><path d="M 405 985.5 L 421.2 969.3 L 421.2 938.2 L 395.9 912.9 L 427 912.9 L 443.2 929.1 L 443.2 978.4 L 420.6 1001 L 420.6 1049.7 L 436.7 1065.8 L 467.9 1065.8 L 493.1 1040.6 L 493.1 1071.7 L 477 1087.8 L 427.6 1087.8 L 405 1065.2 L 356.4 1065.2 L 340.2 1081.4 L 340.2 1112.5 L 365.5 1137.8 L 334.4 1137.8 L 318.2 1121.6 L 318.2 1072.3 L 340.8 1049.7 L 340.8 1001 L 324.6 984.9 L 293.5 984.9 L 268.2 1010.1 L 268.2 979 L 284.4 962.9 L 333.8 962.9 L 356.4 985.5 Z" fill="#a5243d" stroke="none" stroke-width="1"></path><path d="M 362.8 1007.5 L 398.6 1007.5 L 398.6 1043.2 L 362.8 1043.2 Z" fill="#b9cfd4" stroke="none" stroke-width="1"></path><path d="M 477 1087.8 L 493.1 1071.7 L 493.1 1040.6 L 467.9 1015.3 L 499 1015.3 L 515.1 1031.4 L 515.1 1080.8 L 492.5 1103.4 L 492.5 1152 L 508.7 1168.2 L 539.8 1168.2 L 565.1 1142.9 L 565.1 1174 L 548.9 1190.2 L 499.6 1190.2 L 477 1167.6 L 428.3 1167.6 L 412.2 1183.8 L 412.2 1214.9 L 437.4 1240.2 L 406.3 1240.2 L 390.2 1224 L 390.2 1174.7 L 412.8 1152 L 412.8 1103.4 L 396.6 1087.2 L 365.5 1087.2 L 340.2 1112.5 L 340.2 1081.4 L 356.4 1065.2 L 405.7 1065.2 L 428.3 1087.8 Z" fill="#b9cfd4" stroke="none" stroke-width="1"></path><path d="M 434.8 1109.8 L 470.5 1109.8 L 470.5 1145.6 L 434.8 1145.6 Z" fill="#a5243d" stroke="none" stroke-width="1"></path><path d="M -140.2 -7.8 L -124 -24 L -124 -55.1 L -149.3 -80.4 L -118.2 -80.4 L -102 -64.2 L -102 -14.9 L -124.6 7.7 L -124.6 56.4 L -108.5 72.5 L -77.3 72.5 L -52.1 47.3 L -52.1 78.4 L -68.2 94.5 L -117.6 94.5 L -140.2 71.9 L -188.8 71.9 L -205 88.1 L -205 119.2 L -179.7 144.5 L -210.8 144.5 L -227 128.3 L -227 79 L -204.4 56.4 L -204.4 7.7 L -220.6 -8.4 L -251.7 -8.4 L -277 16.8 L -277 -14.3 L -260.8 -30.4 L -211.4 -30.4 L -188.8 -7.8 Z" fill="#a5243d" stroke="none" stroke-width="1"></path><path d="M -182.4 14.2 L -146.6 14.2 L -146.6 49.9 L -182.4 49.9 Z" fill="#b9cfd4" stroke="none" stroke-width="1"></path><path d="M -68.2 94.5 L -52.1 78.4 L -52.1 47.3 L -77.3 22 L -46.2 22 L -30.1 38.1 L -30.1 87.5 L -52.7 110.1 L -52.7 158.7 L -36.5 174.9 L -5.4 174.9 L 19.9 149.6 L 19.9 180.7 L 3.7 196.9 L -45.6 196.9 L -68.2 174.3 L -116.9 174.3 L -133.1 190.5 L -133.1 221.6 L -107.8 246.9 L -138.9 246.9 L -155.1 230.7 L -155.1 181.4 L -132.4 158.7 L -132.4 110.1 L -148.6 93.9 L -179.7 93.9 L -205 119.2 L -205 88.1 L -188.8 71.9 L -139.5 71.9 L -116.9 94.5 Z" fill="#b9cfd4" stroke="none" stroke-width="1"></path><path d="M -110.4 116.5 L -74.7 116.5 L -74.7 152.3 L -110.4 152.3 Z" fill="#a5243d" stroke="none" stroke-width="1"></path><path d="M 3.7 196.9 L 19.9 180.7 L 19.9 149.6 L -5.4 124.3 L 25.7 124.3 L 41.9 140.5 L 41.9 189.9 L 19.3 212.5 L 19.3 261.1 L 35.4 277.3 L 66.6 277.3 L 91.8 252 L 91.8 283.1 L 75.7 299.3 L 26.3 299.3 L 3.7 276.7 L -44.9 276.7 L -61.1 292.8 L -61.1 324 L -35.8 349.2 L -66.9 349.2 L -83.1 333.1 L -83.1 283.7 L -60.5 261.1 L -60.5 212.5 L -76.7 196.3 L -107.8 196.3 L -133.1 221.6 L -133.1 190.5 L -116.9 174.3 L -67.5 174.3 L -44.9 196.9 Z" fill="#a5243d" stroke="none" stroke-width="1"></path><path d="M -38.5 218.9 L -2.7 218.9 L -2.7 254.7 L -38.5 254.7 Z" fill="#b9cfd4" stroke="none" stroke-width="1"></path><path d="M 75.7 299.3 L 91.8 283.1 L 91.8 252 L 66.6 226.7 L 97.7 226.7 L 113.8 242.9 L 113.8 292.2 L 91.2 314.8 L 91.2 363.5 L 107.4 379.7 L 138.5 379.7 L 163.8 354.4 L 163.8 385.5 L 147.6 401.7 L 98.3 401.7 L 75.7 379 L 27 379 L 10.9 395.2 L 10.9 426.3 L 36.1 451.6 L 5 451.6 L -11.1 435.4 L -11.1 386.1 L 11.5 363.5 L 11.5 314.8 L -4.7 298.7 L -35.8 298.7 L -61.1 324 L -61.1 292.8 L -44.9 276.7 L 4.4 276.7 L 27 299.3 Z" fill="#b9cfd4" stroke="none" stroke-width="1"></path><path d="M 33.5 321.3 L 69.2 321.3 L 69.2 357 L 33.5 357 Z" fill="#a5243d" stroke="none" stroke-width="1"></path><path d="M 147.6 401.7 L 163.8 385.5 L 163.8 354.4 L 138.5 329.1 L 169.6 329.1 L 185.8 345.3 L 185.8 394.6 L 163.2 417.2 L 163.2 465.9 L 179.4 482 L 210.5 482 L 235.7 456.7 L 235.7 487.9 L 219.6 504 L 170.2 504 L 147.6 481.4 L 99 481.4 L 82.8 497.6 L 82.8 528.7 L 108.1 554 L 77 554 L 60.8 537.8 L 60.8 488.5 L 83.4 465.9 L 83.4 417.2 L 67.3 401 L 36.1 401 L 10.9 426.3 L 10.9 395.2 L 27 379 L 76.4 379 L 99 401.7 Z" fill="#a5243d" stroke="none" stroke-width="1"></path><path d="M 105.4 423.7 L 141.2 423.7 L 141.2 459.4 L 105.4 459.4 Z" fill="#b9cfd4" stroke="none" stroke-width="1"></path><path d="M 219.6 504 L 235.7 487.9 L 235.7 456.7 L 210.5 431.5 L 241.6 431.5 L 257.7 447.6 L 257.7 497 L 235.1 519.6 L 235.1 568.2 L 251.3 584.4 L 282.4 584.4 L 307.7 559.1 L 307.7 590.2 L 291.5 606.4 L 242.2 606.4 L 219.6 583.8 L 170.9 583.8 L 154.8 600 L 154.8 631.1 L 180 656.4 L 148.9 656.4 L 132.8 640.2 L 132.8 590.8 L 155.4 568.2 L 155.4 519.6 L 139.2 503.4 L 108.1 503.4 L 82.8 528.7 L 82.8 497.6 L 99 481.4 L 148.3 481.4 L 170.9 504 Z" fill="#b9cfd4" stroke="none" stroke-width="1"></path><path d="M 177.4 526 L 213.1 526 L 213.1 561.8 L 177.4 561.8 Z" fill="#a5243d" stroke="none" stroke-width="1"></path><path d="M 291.5 606.4 L 307.7 590.2 L 307.7 559.1 L 282.4 533.8 L 313.5 533.8 L 329.7 550 L 329.7 599.3 L 307.1 622 L 307.1 670.6 L 323.3 686.8 L 354.4 686.8 L 379.7 661.5 L 379.7 692.6 L 363.5 708.8 L 314.1 708.8 L 291.5 686.2 L 242.9 686.2 L 226.7 702.3 L 226.7 733.4 L 252 758.7 L 220.9 758.7 L 204.7 742.6 L 204.7 693.2 L 227.3 670.6 L 227.3 622 L 211.2 605.8 L 180 605.8 L 154.8 631.1 L 154.8 600 L 170.9 583.8 L 220.3 583.8 L 242.9 606.4 Z" fill="#a5243d" stroke="none" stroke-width="1"></path><path d="M 249.3 628.4 L 285.1 628.4 L 285.1 664.2 L 249.3 664.2 Z" fill="#b9cfd4" stroke="none" stroke-width="1"></path><path d="M 363.5 708.8 L 379.7 692.6 L 379.7 661.5 L 354.4 636.2 L 385.5 636.2 L 401.7 652.4 L 401.7 701.7 L 379 724.3 L 379 773 L 395.2 789.1 L 426.3 789.1 L 451.6 763.9 L 451.6 795 L 435.4 811.1 L 386.1 811.1 L 363.5 788.5 L 314.8 788.5 L 298.7 804.7 L 298.7 835.8 L 324 861.1 L 292.8 861.1 L 276.7 844.9 L 276.7 795.6 L 299.3 773 L 299.3 724.3 L 283.1 708.2 L 252 708.2 L 226.7 733.4 L 226.7 702.3 L 242.9 686.2 L 292.2 686.2 L 314.8 708.8 Z" fill="#b9cfd4" stroke="none" stroke-width="1"></path><path d="M 321.3 730.8 L 357 730.8 L 357 766.5 L 321.3 766.5 Z" fill="#a5243d" stroke="none" stroke-width="1"></path><path d="M 435.4 811.1 L 451.6 795 L 451.6 763.9 L 426.3 738.6 L 457.4 738.6 L 473.6 754.7 L 473.6 804.1 L 451 826.7 L 451 875.3 L 467.2 891.5 L 498.3 891.5 L 523.6 866.2 L 523.6 897.3 L 507.4 913.5 L 458.1 913.5 L 435.4 890.9 L 386.8 890.9 L 370.6 907.1 L 370.6 938.2 L 395.9 963.5 L 364.8 963.5 L 348.6 947.3 L 348.6 898 L 371.2 875.3 L 371.2 826.7 L 355.1 810.5 L 324 810.5 L 298.7 835.8 L 298.7 804.7 L 314.8 788.5 L 364.2 788.5 L 386.8 811.1 Z" fill="#a5243d" stroke="none" stroke-width="1"></path><path d="M 393.2 833.1 L 429 833.1 L 429 868.9 L 393.2 868.9 Z" fill="#b9cfd4" stroke="none" stroke-width="1"></path><path d="M 507.4 913.5 L 523.6 897.3 L 523.6 866.2 L 498.3 840.9 L 529.4 840.9 L 545.6 857.1 L 545.6 906.5 L 522.9 929.1 L 522.9 977.7 L 539.1 993.9 L 570.2 993.9 L 595.5 968.6 L 595.5 999.7 L 579.3 1015.9 L 530 1015.9 L 507.4 993.3 L 458.7 993.3 L 442.6 1009.4 L 442.6 1040.6 L 467.9 1065.8 L 436.7 1065.8 L 420.6 1049.7 L 420.6 1000.3 L 443.2 977.7 L 443.2 929.1 L 427 912.9 L 395.9 912.9 L 370.6 938.2 L 370.6 907.1 L 386.8 890.9 L 436.1 890.9 L 458.7 913.5 Z" fill="#b9cfd4" stroke="none" stroke-width="1"></path><path d="M 465.2 935.5 L 500.9 935.5 L 500.9 971.3 L 465.2 971.3 Z" fill="#a5243d" stroke="none" stroke-width="1"></path><path d="M 579.3 1015.9 L 595.5 999.7 L 595.5 968.6 L 570.2 943.3 L 601.3 943.3 L 617.5 959.5 L 617.5 1008.8 L 594.9 1031.4 L 594.9 1080.1 L 611.1 1096.3 L 642.2 1096.3 L 667.5 1071 L 667.5 1102.1 L 651.3 1118.3 L 602 1118.3 L 579.3 1095.6 L 530.7 1095.6 L 514.5 1111.8 L 514.5 1142.9 L 539.8 1168.2 L 508.7 1168.2 L 492.5 1152 L 492.5 1102.7 L 515.1 1080.1 L 515.1 1031.4 L 499 1015.3 L 467.9 1015.3 L 442.6 1040.6 L 442.6 1009.4 L 458.7 993.3 L 508.1 993.3 L 530.7 1015.9 Z" fill="#a5243d" stroke="none" stroke-width="1"></path><path d="M 537.1 1037.9 L 572.9 1037.9 L 572.9 1073.6 L 537.1 1073.6 Z" fill="#b9cfd4" stroke="none" stroke-width="1"></path><path d="M -37.8 -79.8 L -21.6 -96 L -21.6 -127.1 L -46.9 -152.4 L -15.8 -152.4 L 0.4 -136.2 L 0.4 -86.8 L -22.3 -64.2 L -22.3 -15.6 L -6.1 0.6 L 25 0.6 L 50.3 -24.7 L 50.3 6.4 L 34.1 22.6 L -15.2 22.6 L -37.8 0 L -86.5 0 L -102.6 16.1 L -102.6 47.3 L -77.3 72.5 L -108.5 72.5 L -124.6 56.4 L -124.6 7 L -102 -15.6 L -102 -64.2 L -118.2 -80.4 L -149.3 -80.4 L -174.6 -55.1 L -174.6 -86.2 L -158.4 -102.4 L -109.1 -102.4 L -86.5 -79.8 Z" fill="#b9cfd4" stroke="none" stroke-width="1"></path><path d="M -80 -57.8 L -44.3 -57.8 L -44.3 -22 L -80 -22 Z" fill="#a5243d" stroke="none" stroke-width="1"></path><path d="M 34.1 22.6 L 50.3 6.4 L 50.3 -24.7 L 25 -50 L 56.1 -50 L 72.3 -33.8 L 72.3 15.5 L 49.7 38.1 L 49.7 86.8 L 65.9 103 L 97 103 L 122.3 77.7 L 122.3 108.8 L 106.1 125 L 56.8 125 L 34.1 102.3 L -14.5 102.3 L -30.7 118.5 L -30.7 149.6 L -5.4 174.9 L -36.5 174.9 L -52.7 158.7 L -52.7 109.4 L -30.1 86.8 L -30.1 38.1 L -46.2 22 L -77.3 22 L -102.6 47.3 L -102.6 16.1 L -86.5 0 L -37.1 0 L -14.5 22.6 Z" fill="#a5243d" stroke="none" stroke-width="1"></path><path d="M -8.1 44.6 L 27.7 44.6 L 27.7 80.3 L -8.1 80.3 Z" fill="#b9cfd4" stroke="none" stroke-width="1"></path><path d="M 106.1 125 L 122.3 108.8 L 122.3 77.7 L 97 52.4 L 128.1 52.4 L 144.3 68.6 L 144.3 117.9 L 121.6 140.5 L 121.6 189.2 L 137.8 205.3 L 168.9 205.3 L 194.2 180 L 194.2 211.2 L 178 227.3 L 128.7 227.3 L 106.1 204.7 L 57.4 204.7 L 41.3 220.9 L 41.3 252 L 66.6 277.3 L 35.4 277.3 L 19.3 261.1 L 19.3 211.8 L 41.9 189.2 L 41.9 140.5 L 25.7 124.3 L -5.4 124.3 L -30.7 149.6 L -30.7 118.5 L -14.5 102.3 L 34.8 102.3 L 57.4 125 Z" fill="#b9cfd4" stroke="none" stroke-width="1"></path><path d="M 63.9 147 L 99.6 147 L 99.6 182.7 L 63.9 182.7 Z" fill="#a5243d" stroke="none" stroke-width="1"></path><path d="M 178 227.3 L 194.2 211.2 L 194.2 180 L 168.9 154.8 L 200 154.8 L 216.2 170.9 L 216.2 220.3 L 193.6 242.9 L 193.6 291.5 L 209.8 307.7 L 240.9 307.7 L 266.2 282.4 L 266.2 313.5 L 250 329.7 L 200.7 329.7 L 178 307.1 L 129.4 307.1 L 113.2 323.3 L 113.2 354.4 L 138.5 379.7 L 107.4 379.7 L 91.2 363.5 L 91.2 314.1 L 113.8 291.5 L 113.8 242.9 L 97.7 226.7 L 66.6 226.7 L 41.3 252 L 41.3 220.9 L 57.4 204.7 L 106.8 204.7 L 129.4 227.3 Z" fill="#a5243d" stroke="none" stroke-width="1"></path><path d="M 135.8 249.3 L 171.6 249.3 L 171.6 285.1 L 135.8 285.1 Z" fill="#b9cfd4" stroke="none" stroke-width="1"></path><path d="M 250 329.7 L 266.2 313.5 L 266.2 282.4 L 240.9 257.1 L 272 257.1 L 288.2 273.3 L 288.2 322.6 L 265.6 345.3 L 265.6 393.9 L 281.7 410.1 L 312.8 410.1 L 338.1 384.8 L 338.1 415.9 L 322 432.1 L 272.6 432.1 L 250 409.5 L 201.4 409.5 L 185.2 425.6 L 185.2 456.7 L 210.5 482 L 179.4 482 L 163.2 465.9 L 163.2 416.5 L 185.8 393.9 L 185.8 345.3 L 169.6 329.1 L 138.5 329.1 L 113.2 354.4 L 113.2 323.3 L 129.4 307.1 L 178.7 307.1 L 201.4 329.7 Z" fill="#b9cfd4" stroke="none" stroke-width="1"></path><path d="M 207.8 351.7 L 243.6 351.7 L 243.6 387.5 L 207.8 387.5 Z" fill="#a5243d" stroke="none" stroke-width="1"></path><path d="M 322 432.1 L 338.1 415.9 L 338.1 384.8 L 312.8 359.5 L 344 359.5 L 360.1 375.7 L 360.1 425 L 337.5 447.6 L 337.5 496.3 L 353.7 512.4 L 384.8 512.4 L 410.1 487.2 L 410.1 518.3 L 393.9 534.4 L 344.6 534.4 L 322 511.8 L 273.3 511.8 L 257.1 528 L 257.1 559.1 L 282.4 584.4 L 251.3 584.4 L 235.1 568.2 L 235.1 518.9 L 257.7 496.3 L 257.7 447.6 L 241.6 431.5 L 210.5 431.5 L 185.2 456.7 L 185.2 425.6 L 201.4 409.5 L 250.7 409.5 L 273.3 432.1 Z" fill="#a5243d" stroke="none" stroke-width="1"></path><path d="M 279.7 454.1 L 315.5 454.1 L 315.5 489.8 L 279.7 489.8 Z" fill="#b9cfd4" stroke="none" stroke-width="1"></path><path d="M 393.9 534.4 L 410.1 518.3 L 410.1 487.2 L 384.8 461.9 L 415.9 461.9 L 432.1 478 L 432.1 527.4 L 409.5 550 L 409.5 598.6 L 425.6 614.8 L 456.7 614.8 L 482 589.5 L 482 620.6 L 465.9 636.8 L 416.5 636.8 L 393.9 614.2 L 345.3 614.2 L 329.1 630.4 L 329.1 661.5 L 354.4 686.8 L 323.3 686.8 L 307.1 670.6 L 307.1 621.3 L 329.7 598.6 L 329.7 550 L 313.5 533.8 L 282.4 533.8 L 257.1 559.1 L 257.1 528 L 273.3 511.8 L 322.6 511.8 L 345.3 534.4 Z" fill="#b9cfd4" stroke="none" stroke-width="1"></path><path d="M 351.7 556.4 L 387.5 556.4 L 387.5 592.2 L 351.7 592.2 Z" fill="#a5243d" stroke="none" stroke-width="1"></path><path d="M 465.9 636.8 L 482 620.6 L 482 589.5 L 456.7 564.3 L 487.9 564.3 L 504 580.4 L 504 629.8 L 481.4 652.4 L 481.4 701 L 497.6 717.2 L 528.7 717.2 L 554 691.9 L 554 723 L 537.8 739.2 L 488.5 739.2 L 465.9 716.6 L 417.2 716.6 L 401 732.7 L 401 763.9 L 426.3 789.1 L 395.2 789.1 L 379 773 L 379 723.6 L 401.7 701 L 401.7 652.4 L 385.5 636.2 L 354.4 636.2 L 329.1 661.5 L 329.1 630.4 L 345.3 614.2 L 394.6 614.2 L 417.2 636.8 Z" fill="#a5243d" stroke="none" stroke-width="1"></path><path d="M 423.7 658.8 L 459.4 658.8 L 459.4 694.6 L 423.7 694.6 Z" fill="#b9cfd4" stroke="none" stroke-width="1"></path><path d="M 537.8 739.2 L 554 723 L 554 691.9 L 528.7 666.6 L 559.8 666.6 L 576 682.8 L 576 732.1 L 553.4 754.7 L 553.4 803.4 L 569.5 819.6 L 600.6 819.6 L 625.9 794.3 L 625.9 825.4 L 609.8 841.6 L 560.4 841.6 L 537.8 818.9 L 489.2 818.9 L 473 835.1 L 473 866.2 L 498.3 891.5 L 467.2 891.5 L 451 875.3 L 451 826 L 473.6 803.4 L 473.6 754.7 L 457.4 738.6 L 426.3 738.6 L 401 763.9 L 401 732.7 L 417.2 716.6 L 466.6 716.6 L 489.2 739.2 Z" fill="#b9cfd4" stroke="none" stroke-width="1"></path><path d="M 495.6 761.2 L 531.4 761.2 L 531.4 796.9 L 495.6 796.9 Z" fill="#a5243d" stroke="none" stroke-width="1"></path><path d="M 609.8 841.6 L 625.9 825.4 L 625.9 794.3 L 600.6 769 L 631.8 769 L 647.9 785.2 L 647.9 834.5 L 625.3 857.1 L 625.3 905.8 L 641.5 921.9 L 672.6 921.9 L 697.9 896.7 L 697.9 927.8 L 681.7 943.9 L 632.4 943.9 L 609.8 921.3 L 561.1 921.3 L 544.9 937.5 L 544.9 968.6 L 570.2 993.9 L 539.1 993.9 L 522.9 977.7 L 522.9 928.4 L 545.6 905.8 L 545.6 857.1 L 529.4 840.9 L 498.3 840.9 L 473 866.2 L 473 835.1 L 489.2 818.9 L 538.5 818.9 L 561.1 841.6 Z" fill="#a5243d" stroke="none" stroke-width="1"></path><path d="M 567.6 863.6 L 603.3 863.6 L 603.3 899.3 L 567.6 899.3 Z" fill="#b9cfd4" stroke="none" stroke-width="1"></path><path d="M 681.7 943.9 L 697.9 927.8 L 697.9 896.7 L 672.6 871.4 L 703.7 871.4 L 719.9 887.5 L 719.9 936.9 L 697.3 959.5 L 697.3 1008.1 L 713.4 1024.3 L 744.6 1024.3 L 769.8 999 L 769.8 1030.1 L 753.7 1046.3 L 704.3 1046.3 L 681.7 1023.7 L 633.1 1023.7 L 616.9 1039.9 L 616.9 1071 L 642.2 1096.3 L 611.1 1096.3 L 594.9 1080.1 L 594.9 1030.8 L 617.5 1008.1 L 617.5 959.5 L 601.3 943.3 L 570.2 943.3 L 544.9 968.6 L 544.9 937.5 L 561.1 921.3 L 610.5 921.3 L 633.1 943.9 Z" fill="#b9cfd4" stroke="none" stroke-width="1"></path><path d="M 639.5 965.9 L 675.3 965.9 L 675.3 1001.7 L 639.5 1001.7 Z" fill="#a5243d" stroke="none" stroke-width="1"></path><path d="M 64.6 -151.7 L 80.7 -167.9 L 80.7 -199 L 55.4 -224.3 L 86.6 -224.3 L 102.7 -208.1 L 102.7 -158.8 L 80.1 -136.2 L 80.1 -87.5 L 96.3 -71.4 L 127.4 -71.4 L 152.7 -96.7 L 152.7 -65.5 L 136.5 -49.4 L 87.2 -49.4 L 64.6 -72 L 15.9 -72 L -0.3 -55.8 L -0.3 -24.7 L 25 0.6 L -6.1 0.6 L -22.3 -15.6 L -22.3 -64.9 L 0.4 -87.5 L 0.4 -136.2 L -15.8 -152.4 L -46.9 -152.4 L -72.2 -127.1 L -72.2 -158.2 L -56 -174.4 L -6.7 -174.4 L 15.9 -151.7 Z" fill="#a5243d" stroke="none" stroke-width="1"></path><path d="M 22.4 -129.7 L 58.1 -129.7 L 58.1 -94 L 22.4 -94 Z" fill="#b9cfd4" stroke="none" stroke-width="1"></path><path d="M 136.5 -49.4 L 152.7 -65.5 L 152.7 -96.7 L 127.4 -121.9 L 158.5 -121.9 L 174.7 -105.8 L 174.7 -56.4 L 152.1 -33.8 L 152.1 14.8 L 168.2 31 L 199.4 31 L 224.6 5.7 L 224.6 36.8 L 208.5 53 L 159.1 53 L 136.5 30.4 L 87.9 30.4 L 71.7 46.6 L 71.7 77.7 L 97 103 L 65.9 103 L 49.7 86.8 L 49.7 37.4 L 72.3 14.8 L 72.3 -33.8 L 56.1 -50 L 25 -50 L -0.3 -24.7 L -0.3 -55.8 L 15.9 -72 L 65.3 -72 L 87.9 -49.4 Z" fill="#b9cfd4" stroke="none" stroke-width="1"></path><path d="M 94.3 -27.4 L 130.1 -27.4 L 130.1 8.4 L 94.3 8.4 Z" fill="#a5243d" stroke="none" stroke-width="1"></path><path d="M 208.5 53 L 224.6 36.8 L 224.6 5.7 L 199.4 -19.6 L 230.5 -19.6 L 246.6 -3.4 L 246.6 45.9 L 224 68.6 L 224 117.2 L 240.2 133.4 L 271.3 133.4 L 296.6 108.1 L 296.6 139.2 L 280.4 155.4 L 231.1 155.4 L 208.5 132.8 L 159.8 132.8 L 143.6 148.9 L 143.6 180 L 168.9 205.3 L 137.8 205.3 L 121.6 189.2 L 121.6 139.8 L 144.3 117.2 L 144.3 68.6 L 128.1 52.4 L 97 52.4 L 71.7 77.7 L 71.7 46.6 L 87.9 30.4 L 137.2 30.4 L 159.8 53 Z" fill="#a5243d" stroke="none" stroke-width="1"></path><path d="M 166.3 75 L 202 75 L 202 110.8 L 166.3 110.8 Z" fill="#b9cfd4" stroke="none" stroke-width="1"></path><path d="M 280.4 155.4 L 296.6 139.2 L 296.6 108.1 L 271.3 82.8 L 302.4 82.8 L 318.6 99 L 318.6 148.3 L 296 170.9 L 296 219.6 L 312.1 235.7 L 343.3 235.7 L 368.5 210.5 L 368.5 241.6 L 352.4 257.7 L 303 257.7 L 280.4 235.1 L 231.8 235.1 L 215.6 251.3 L 215.6 282.4 L 240.9 307.7 L 209.8 307.7 L 193.6 291.5 L 193.6 242.2 L 216.2 219.6 L 216.2 170.9 L 200 154.8 L 168.9 154.8 L 143.6 180 L 143.6 148.9 L 159.8 132.8 L 209.2 132.8 L 231.8 155.4 Z" fill="#b9cfd4" stroke="none" stroke-width="1"></path><path d="M 238.2 177.4 L 274 177.4 L 274 213.1 L 238.2 213.1 Z" fill="#a5243d" stroke="none" stroke-width="1"></path><path d="M 352.4 257.7 L 368.5 241.6 L 368.5 210.5 L 343.3 185.2 L 374.4 185.2 L 390.5 201.4 L 390.5 250.7 L 367.9 273.3 L 367.9 322 L 384.1 338.1 L 415.2 338.1 L 440.5 312.8 L 440.5 344 L 424.3 360.1 L 375 360.1 L 352.4 337.5 L 303.7 337.5 L 287.6 353.7 L 287.6 384.8 L 312.8 410.1 L 281.7 410.1 L 265.6 393.9 L 265.6 344.6 L 288.2 322 L 288.2 273.3 L 272 257.1 L 240.9 257.1 L 215.6 282.4 L 215.6 251.3 L 231.8 235.1 L 281.1 235.1 L 303.7 257.7 Z" fill="#a5243d" stroke="none" stroke-width="1"></path><path d="M 310.2 279.7 L 345.9 279.7 L 345.9 315.5 L 310.2 315.5 Z" fill="#b9cfd4" stroke="none" stroke-width="1"></path><path d="M 424.3 360.1 L 440.5 344 L 440.5 312.8 L 415.2 287.6 L 446.3 287.6 L 462.5 303.7 L 462.5 353.1 L 439.9 375.7 L 439.9 424.3 L 456 440.5 L 487.2 440.5 L 512.4 415.2 L 512.4 446.3 L 496.3 462.5 L 446.9 462.5 L 424.3 439.9 L 375.7 439.9 L 359.5 456 L 359.5 487.2 L 384.8 512.4 L 353.7 512.4 L 337.5 496.3 L 337.5 446.9 L 360.1 424.3 L 360.1 375.7 L 344 359.5 L 312.8 359.5 L 287.6 384.8 L 287.6 353.7 L 303.7 337.5 L 353.1 337.5 L 375.7 360.1 Z" fill="#b9cfd4" stroke="none" stroke-width="1"></path><path d="M 382.1 382.1 L 417.9 382.1 L 417.9 417.9 L 382.1 417.9 Z" fill="#a5243d" stroke="none" stroke-width="1"></path><path d="M 496.3 462.5 L 512.4 446.3 L 512.4 415.2 L 487.2 389.9 L 518.3 389.9 L 534.4 406.1 L 534.4 455.4 L 511.8 478 L 511.8 526.7 L 528 542.9 L 559.1 542.9 L 584.4 517.6 L 584.4 548.7 L 568.2 564.9 L 518.9 564.9 L 496.3 542.3 L 447.6 542.3 L 431.5 558.4 L 431.5 589.5 L 456.7 614.8 L 425.6 614.8 L 409.5 598.6 L 409.5 549.3 L 432.1 526.7 L 432.1 478 L 415.9 461.9 L 384.8 461.9 L 359.5 487.2 L 359.5 456 L 375.7 439.9 L 425 439.9 L 447.6 462.5 Z" fill="#a5243d" stroke="none" stroke-width="1"></path><path d="M 454.1 484.5 L 489.8 484.5 L 489.8 520.3 L 454.1 520.3 Z" fill="#b9cfd4" stroke="none" stroke-width="1"></path><path d="M 568.2 564.9 L 584.4 548.7 L 584.4 517.6 L 559.1 492.3 L 590.2 492.3 L 606.4 508.5 L 606.4 557.8 L 583.8 580.4 L 583.8 629.1 L 600 645.2 L 631.1 645.2 L 656.4 620 L 656.4 651.1 L 640.2 667.2 L 590.8 667.2 L 568.2 644.6 L 519.6 644.6 L 503.4 660.8 L 503.4 691.9 L 528.7 717.2 L 497.6 717.2 L 481.4 701 L 481.4 651.7 L 504 629.1 L 504 580.4 L 487.9 564.3 L 456.7 564.3 L 431.5 589.5 L 431.5 558.4 L 447.6 542.3 L 497 542.3 L 519.6 564.9 Z" fill="#b9cfd4" stroke="none" stroke-width="1"></path><path d="M 526 586.9 L 561.8 586.9 L 561.8 622.6 L 526 622.6 Z" fill="#a5243d" stroke="none" stroke-width="1"></path><path d="M 640.2 667.2 L 656.4 651.1 L 656.4 620 L 631.1 594.7 L 662.2 594.7 L 678.4 610.8 L 678.4 660.2 L 655.7 682.8 L 655.7 731.4 L 671.9 747.6 L 703 747.6 L 728.3 722.3 L 728.3 753.4 L 712.1 769.6 L 662.8 769.6 L 640.2 747 L 591.5 747 L 575.4 763.2 L 575.4 794.3 L 600.6 819.6 L 569.5 819.6 L 553.4 803.4 L 553.4 754.1 L 576 731.4 L 576 682.8 L 559.8 666.6 L 528.7 666.6 L 503.4 691.9 L 503.4 660.8 L 519.6 644.6 L 568.9 644.6 L 591.5 667.2 Z" fill="#a5243d" stroke="none" stroke-width="1"></path><path d="M 598 689.2 L 633.7 689.2 L 633.7 725 L 598 725 Z" fill="#b9cfd4" stroke="none" stroke-width="1"></path><path d="M 712.1 769.6 L 728.3 753.4 L 728.3 722.3 L 703 697 L 734.1 697 L 750.3 713.2 L 750.3 762.6 L 727.7 785.2 L 727.7 833.8 L 743.9 850 L 775 850 L 800.3 824.7 L 800.3 855.8 L 784.1 872 L 734.7 872 L 712.1 849.4 L 663.5 849.4 L 647.3 865.5 L 647.3 896.7 L 672.6 921.9 L 641.5 921.9 L 625.3 905.8 L 625.3 856.4 L 647.9 833.8 L 647.9 785.2 L 631.8 769 L 600.6 769 L 575.4 794.3 L 575.4 763.2 L 591.5 747 L 640.9 747 L 663.5 769.6 Z" fill="#b9cfd4" stroke="none" stroke-width="1"></path><path d="M 669.9 791.6 L 705.7 791.6 L 705.7 827.4 L 669.9 827.4 Z" fill="#a5243d" stroke="none" stroke-width="1"></path><path d="M 784.1 872 L 800.3 855.8 L 800.3 824.7 L 775 799.4 L 806.1 799.4 L 822.3 815.6 L 822.3 864.9 L 799.6 887.5 L 799.6 936.2 L 815.8 952.4 L 846.9 952.4 L 872.2 927.1 L 872.2 958.2 L 856 974.4 L 806.7 974.4 L 784.1 951.7 L 735.4 951.7 L 719.3 967.9 L 719.3 999 L 744.6 1024.3 L 713.4 1024.3 L 697.3 1008.1 L 697.3 958.8 L 719.9 936.2 L 719.9 887.5 L 703.7 871.4 L 672.6 871.4 L 647.3 896.7 L 647.3 865.5 L 663.5 849.4 L 712.8 849.4 L 735.4 872 Z" fill="#a5243d" stroke="none" stroke-width="1"></path><path d="M 741.9 894 L 777.6 894 L 777.6 929.7 L 741.9 929.7 Z" fill="#b9cfd4" stroke="none" stroke-width="1"></path><path d="M 166.9 -223.7 L 183.1 -239.9 L 183.1 -271 L 157.8 -296.3 L 188.9 -296.3 L 205.1 -280.1 L 205.1 -230.8 L 182.5 -208.1 L 182.5 -159.5 L 198.7 -143.3 L 229.8 -143.3 L 255.1 -168.6 L 255.1 -137.5 L 238.9 -121.3 L 189.5 -121.3 L 166.9 -143.9 L 118.3 -143.9 L 102.1 -127.8 L 102.1 -96.7 L 127.4 -71.4 L 96.3 -71.4 L 80.1 -87.5 L 80.1 -136.9 L 102.7 -159.5 L 102.7 -208.1 L 86.6 -224.3 L 55.4 -224.3 L 30.2 -199 L 30.2 -230.1 L 46.3 -246.3 L 95.7 -246.3 L 118.3 -223.7 Z" fill="#b9cfd4" stroke="none" stroke-width="1"></path><path d="M 124.7 -201.7 L 160.5 -201.7 L 160.5 -165.9 L 124.7 -165.9 Z" fill="#a5243d" stroke="none" stroke-width="1"></path><path d="M 238.9 -121.3 L 255.1 -137.5 L 255.1 -168.6 L 229.8 -193.9 L 260.9 -193.9 L 277.1 -177.7 L 277.1 -128.4 L 254.4 -105.8 L 254.4 -57.1 L 270.6 -40.9 L 301.7 -40.9 L 327 -66.2 L 327 -35.1 L 310.8 -18.9 L 261.5 -18.9 L 238.9 -41.6 L 190.2 -41.6 L 174.1 -25.4 L 174.1 5.7 L 199.4 31 L 168.2 31 L 152.1 14.8 L 152.1 -34.5 L 174.7 -57.1 L 174.7 -105.8 L 158.5 -121.9 L 127.4 -121.9 L 102.1 -96.7 L 102.1 -127.8 L 118.3 -143.9 L 167.6 -143.9 L 190.2 -121.3 Z" fill="#a5243d" stroke="none" stroke-width="1"></path><path d="M 196.7 -99.3 L 232.4 -99.3 L 232.4 -63.6 L 196.7 -63.6 Z" fill="#b9cfd4" stroke="none" stroke-width="1"></path><path d="M 310.8 -18.9 L 327 -35.1 L 327 -66.2 L 301.7 -91.5 L 332.8 -91.5 L 349 -75.3 L 349 -26 L 326.4 -3.4 L 326.4 45.3 L 342.6 61.4 L 373.7 61.4 L 399 36.1 L 399 67.3 L 382.8 83.4 L 333.4 83.4 L 310.8 60.8 L 262.2 60.8 L 246 77 L 246 108.1 L 271.3 133.4 L 240.2 133.4 L 224 117.2 L 224 67.9 L 246.6 45.3 L 246.6 -3.4 L 230.5 -19.6 L 199.4 -19.6 L 174.1 5.7 L 174.1 -25.4 L 190.2 -41.6 L 239.6 -41.6 L 262.2 -18.9 Z" fill="#b9cfd4" stroke="none" stroke-width="1"></path><path d="M 268.6 3.1 L 304.4 3.1 L 304.4 38.8 L 268.6 38.8 Z" fill="#a5243d" stroke="none" stroke-width="1"></path><path d="M 382.8 83.4 L 399 67.3 L 399 36.1 L 373.7 10.9 L 404.8 10.9 L 421 27 L 421 76.4 L 398.3 99 L 398.3 147.6 L 414.5 163.8 L 445.6 163.8 L 470.9 138.5 L 470.9 169.6 L 454.7 185.8 L 405.4 185.8 L 382.8 163.2 L 334.1 163.2 L 318 179.4 L 318 210.5 L 343.3 235.7 L 312.1 235.7 L 296 219.6 L 296 170.2 L 318.6 147.6 L 318.6 99 L 302.4 82.8 L 271.3 82.8 L 246 108.1 L 246 77 L 262.2 60.8 L 311.5 60.8 L 334.1 83.4 Z" fill="#a5243d" stroke="none" stroke-width="1"></path><path d="M 340.6 105.4 L 376.3 105.4 L 376.3 141.2 L 340.6 141.2 Z" fill="#b9cfd4" stroke="none" stroke-width="1"></path><path d="M 454.7 185.8 L 470.9 169.6 L 470.9 138.5 L 445.6 113.2 L 476.7 113.2 L 492.9 129.4 L 492.9 178.7 L 470.3 201.4 L 470.3 250 L 486.5 266.2 L 517.6 266.2 L 542.9 240.9 L 542.9 272 L 526.7 288.2 L 477.4 288.2 L 454.7 265.6 L 406.1 265.6 L 389.9 281.7 L 389.9 312.8 L 415.2 338.1 L 384.1 338.1 L 367.9 322 L 367.9 272.6 L 390.5 250 L 390.5 201.4 L 374.4 185.2 L 343.3 185.2 L 318 210.5 L 318 179.4 L 334.1 163.2 L 383.5 163.2 L 406.1 185.8 Z" fill="#b9cfd4" stroke="none" stroke-width="1"></path><path d="M 412.5 207.8 L 448.3 207.8 L 448.3 243.6 L 412.5 243.6 Z" fill="#a5243d" stroke="none" stroke-width="1"></path><path d="M 526.7 288.2 L 542.9 272 L 542.9 240.9 L 517.6 215.6 L 548.7 215.6 L 564.9 231.8 L 564.9 281.1 L 542.3 303.7 L 542.3 352.4 L 558.4 368.5 L 589.5 368.5 L 614.8 343.3 L 614.8 374.4 L 598.6 390.5 L 549.3 390.5 L 526.7 367.9 L 478 367.9 L 461.9 384.1 L 461.9 415.2 L 487.2 440.5 L 456 440.5 L 439.9 424.3 L 439.9 375 L 462.5 352.4 L 462.5 303.7 L 446.3 287.6 L 415.2 287.6 L 389.9 312.8 L 389.9 281.7 L 406.1 265.6 L 455.4 265.6 L 478 288.2 Z" fill="#a5243d" stroke="none" stroke-width="1"></path><path d="M 484.5 310.2 L 520.3 310.2 L 520.3 345.9 L 484.5 345.9 Z" fill="#b9cfd4" stroke="none" stroke-width="1"></path><path d="M 598.6 390.5 L 614.8 374.4 L 614.8 343.3 L 589.5 318 L 620.6 318 L 636.8 334.1 L 636.8 383.5 L 614.2 406.1 L 614.2 454.7 L 630.4 470.9 L 661.5 470.9 L 686.8 445.6 L 686.8 476.7 L 670.6 492.9 L 621.3 492.9 L 598.6 470.3 L 550 470.3 L 533.8 486.5 L 533.8 517.6 L 559.1 542.9 L 528 542.9 L 511.8 526.7 L 511.8 477.4 L 534.4 454.7 L 534.4 406.1 L 518.3 389.9 L 487.2 389.9 L 461.9 415.2 L 461.9 384.1 L 478 367.9 L 527.4 367.9 L 550 390.5 Z" fill="#b9cfd4" stroke="none" stroke-width="1"></path><path d="M 556.4 412.5 L 592.2 412.5 L 592.2 448.3 L 556.4 448.3 Z" fill="#a5243d" stroke="none" stroke-width="1"></path><path d="M 670.6 492.9 L 686.8 476.7 L 686.8 445.6 L 661.5 420.3 L 692.6 420.3 L 708.8 436.5 L 708.8 485.9 L 686.2 508.5 L 686.2 557.1 L 702.3 573.3 L 733.4 573.3 L 758.7 548 L 758.7 579.1 L 742.6 595.3 L 693.2 595.3 L 670.6 572.7 L 622 572.7 L 605.8 588.8 L 605.8 620 L 631.1 645.2 L 600 645.2 L 583.8 629.1 L 583.8 579.7 L 606.4 557.1 L 606.4 508.5 L 590.2 492.3 L 559.1 492.3 L 533.8 517.6 L 533.8 486.5 L 550 470.3 L 599.3 470.3 L 622 492.9 Z" fill="#a5243d" stroke="none" stroke-width="1"></path><path d="M 628.4 514.9 L 664.2 514.9 L 664.2 550.7 L 628.4 550.7 Z" fill="#b9cfd4" stroke="none" stroke-width="1"></path><path d="M 742.6 595.3 L 758.7 579.1 L 758.7 548 L 733.4 522.7 L 764.6 522.7 L 780.7 538.9 L 780.7 588.2 L 758.1 610.8 L 758.1 659.5 L 774.3 675.7 L 805.4 675.7 L 830.7 650.4 L 830.7 681.5 L 814.5 697.7 L 765.2 697.7 L 742.6 675 L 693.9 675 L 677.7 691.2 L 677.7 722.3 L 703 747.6 L 671.9 747.6 L 655.7 731.4 L 655.7 682.1 L 678.4 659.5 L 678.4 610.8 L 662.2 594.7 L 631.1 594.7 L 605.8 620 L 605.8 588.8 L 622 572.7 L 671.3 572.7 L 693.9 595.3 Z" fill="#b9cfd4" stroke="none" stroke-width="1"></path><path d="M 700.4 617.3 L 736.1 617.3 L 736.1 653 L 700.4 653 Z" fill="#a5243d" stroke="none" stroke-width="1"></path><path d="M 814.5 697.7 L 830.7 681.5 L 830.7 650.4 L 805.4 625.1 L 836.5 625.1 L 852.7 641.3 L 852.7 690.6 L 830.1 713.2 L 830.1 761.9 L 846.2 778 L 877.3 778 L 902.6 752.7 L 902.6 783.9 L 886.5 800 L 837.1 800 L 814.5 777.4 L 765.9 777.4 L 749.7 793.6 L 749.7 824.7 L 775 850 L 743.9 850 L 727.7 833.8 L 727.7 784.5 L 750.3 761.9 L 750.3 713.2 L 734.1 697 L 703 697 L 677.7 722.3 L 677.7 691.2 L 693.9 675 L 743.2 675 L 765.9 697.7 Z" fill="#a5243d" stroke="none" stroke-width="1"></path><path d="M 772.3 719.7 L 808.1 719.7 L 808.1 755.4 L 772.3 755.4 Z" fill="#b9cfd4" stroke="none" stroke-width="1"></path><path d="M 886.5 800 L 902.6 783.9 L 902.6 752.7 L 877.3 727.5 L 908.5 727.5 L 924.6 743.6 L 924.6 793 L 902 815.6 L 902 864.2 L 918.2 880.4 L 949.3 880.4 L 974.6 855.1 L 974.6 886.2 L 958.4 902.4 L 909.1 902.4 L 886.5 879.8 L 837.8 879.8 L 821.6 896 L 821.6 927.1 L 846.9 952.4 L 815.8 952.4 L 799.6 936.2 L 799.6 886.8 L 822.3 864.2 L 822.3 815.6 L 806.1 799.4 L 775 799.4 L 749.7 824.7 L 749.7 793.6 L 765.9 777.4 L 815.2 777.4 L 837.8 800 Z" fill="#b9cfd4" stroke="none" stroke-width="1"></path><path d="M 844.3 822 L 880 822 L 880 857.8 L 844.3 857.8 Z" fill="#a5243d" stroke="none" stroke-width="1"></path><path d="M 269.3 -295.6 L 285.5 -311.8 L 285.5 -342.9 L 260.2 -368.2 L 291.3 -368.2 L 307.5 -352 L 307.5 -302.7 L 284.9 -280.1 L 284.9 -231.4 L 301 -215.3 L 332.1 -215.3 L 357.4 -240.6 L 357.4 -209.4 L 341.3 -193.3 L 291.9 -193.3 L 269.3 -215.9 L 220.7 -215.9 L 204.5 -199.7 L 204.5 -168.6 L 229.8 -143.3 L 198.7 -143.3 L 182.5 -159.5 L 182.5 -208.8 L 205.1 -231.4 L 205.1 -280.1 L 188.9 -296.3 L 157.8 -296.3 L 132.5 -271 L 132.5 -302.1 L 148.7 -318.3 L 198 -318.3 L 220.7 -295.6 Z" fill="#a5243d" stroke="none" stroke-width="1"></path><path d="M 227.1 -273.6 L 262.9 -273.6 L 262.9 -237.9 L 227.1 -237.9 Z" fill="#b9cfd4" stroke="none" stroke-width="1"></path><path d="M 341.3 -193.3 L 357.4 -209.4 L 357.4 -240.6 L 332.1 -265.8 L 363.3 -265.8 L 379.4 -249.7 L 379.4 -200.3 L 356.8 -177.7 L 356.8 -129.1 L 373 -112.9 L 404.1 -112.9 L 429.4 -138.2 L 429.4 -107.1 L 413.2 -90.9 L 363.9 -90.9 L 341.3 -113.5 L 292.6 -113.5 L 276.4 -97.3 L 276.4 -66.2 L 301.7 -40.9 L 270.6 -40.9 L 254.4 -57.1 L 254.4 -106.5 L 277.1 -129.1 L 277.1 -177.7 L 260.9 -193.9 L 229.8 -193.9 L 204.5 -168.6 L 204.5 -199.7 L 220.7 -215.9 L 270 -215.9 L 292.6 -193.3 Z" fill="#b9cfd4" stroke="none" stroke-width="1"></path><path d="M 299.1 -171.3 L 334.8 -171.3 L 334.8 -135.5 L 299.1 -135.5 Z" fill="#a5243d" stroke="none" stroke-width="1"></path><path d="M 413.2 -90.9 L 429.4 -107.1 L 429.4 -138.2 L 404.1 -163.5 L 435.2 -163.5 L 451.4 -147.3 L 451.4 -98 L 428.8 -75.3 L 428.8 -26.7 L 444.9 -10.5 L 476 -10.5 L 501.3 -35.8 L 501.3 -4.7 L 485.2 11.5 L 435.8 11.5 L 413.2 -11.1 L 364.6 -11.1 L 348.4 5 L 348.4 36.1 L 373.7 61.4 L 342.6 61.4 L 326.4 45.3 L 326.4 -4.1 L 349 -26.7 L 349 -75.3 L 332.8 -91.5 L 301.7 -91.5 L 276.4 -66.2 L 276.4 -97.3 L 292.6 -113.5 L 341.9 -113.5 L 364.6 -90.9 Z" fill="#a5243d" stroke="none" stroke-width="1"></path><path d="M 371 -68.9 L 406.8 -68.9 L 406.8 -33.1 L 371 -33.1 Z" fill="#b9cfd4" stroke="none" stroke-width="1"></path><path d="M 485.2 11.5 L 501.3 -4.7 L 501.3 -35.8 L 476 -61.1 L 507.2 -61.1 L 523.3 -44.9 L 523.3 4.4 L 500.7 27 L 500.7 75.7 L 516.9 91.8 L 548 91.8 L 573.3 66.6 L 573.3 97.7 L 557.1 113.8 L 507.8 113.8 L 485.2 91.2 L 436.5 91.2 L 420.3 107.4 L 420.3 138.5 L 445.6 163.8 L 414.5 163.8 L 398.3 147.6 L 398.3 98.3 L 421 75.7 L 421 27 L 404.8 10.9 L 373.7 10.9 L 348.4 36.1 L 348.4 5 L 364.6 -11.1 L 413.9 -11.1 L 436.5 11.5 Z" fill="#b9cfd4" stroke="none" stroke-width="1"></path><path d="M 443 33.5 L 478.7 33.5 L 478.7 69.2 L 443 69.2 Z" fill="#a5243d" stroke="none" stroke-width="1"></path><path d="M 557.1 113.8 L 573.3 97.7 L 573.3 66.6 L 548 41.3 L 579.1 41.3 L 595.3 57.4 L 595.3 106.8 L 572.7 129.4 L 572.7 178 L 588.8 194.2 L 620 194.2 L 645.2 168.9 L 645.2 200 L 629.1 216.2 L 579.7 216.2 L 557.1 193.6 L 508.5 193.6 L 492.3 209.8 L 492.3 240.9 L 517.6 266.2 L 486.5 266.2 L 470.3 250 L 470.3 200.7 L 492.9 178 L 492.9 129.4 L 476.7 113.2 L 445.6 113.2 L 420.3 138.5 L 420.3 107.4 L 436.5 91.2 L 485.9 91.2 L 508.5 113.8 Z" fill="#a5243d" stroke="none" stroke-width="1"></path><path d="M 514.9 135.8 L 550.7 135.8 L 550.7 171.6 L 514.9 171.6 Z" fill="#b9cfd4" stroke="none" stroke-width="1"></path><path d="M 629.1 216.2 L 645.2 200 L 645.2 168.9 L 620 143.6 L 651.1 143.6 L 667.2 159.8 L 667.2 209.2 L 644.6 231.8 L 644.6 280.4 L 660.8 296.6 L 691.9 296.6 L 717.2 271.3 L 717.2 302.4 L 701 318.6 L 651.7 318.6 L 629.1 296 L 580.4 296 L 564.3 312.1 L 564.3 343.3 L 589.5 368.5 L 558.4 368.5 L 542.3 352.4 L 542.3 303 L 564.9 280.4 L 564.9 231.8 L 548.7 215.6 L 517.6 215.6 L 492.3 240.9 L 492.3 209.8 L 508.5 193.6 L 557.8 193.6 L 580.4 216.2 Z" fill="#b9cfd4" stroke="none" stroke-width="1"></path><path d="M 586.9 238.2 L 622.6 238.2 L 622.6 274 L 586.9 274 Z" fill="#a5243d" stroke="none" stroke-width="1"></path><path d="M 701 318.6 L 717.2 302.4 L 717.2 271.3 L 691.9 246 L 723 246 L 739.2 262.2 L 739.2 311.5 L 716.6 334.1 L 716.6 382.8 L 732.7 399 L 763.9 399 L 789.1 373.7 L 789.1 404.8 L 773 421 L 723.6 421 L 701 398.3 L 652.4 398.3 L 636.2 414.5 L 636.2 445.6 L 661.5 470.9 L 630.4 470.9 L 614.2 454.7 L 614.2 405.4 L 636.8 382.8 L 636.8 334.1 L 620.6 318 L 589.5 318 L 564.3 343.3 L 564.3 312.1 L 580.4 296 L 629.8 296 L 652.4 318.6 Z" fill="#a5243d" stroke="none" stroke-width="1"></path><path d="M 658.8 340.6 L 694.6 340.6 L 694.6 376.3 L 658.8 376.3 Z" fill="#b9cfd4" stroke="none" stroke-width="1"></path><path d="M 773 421 L 789.1 404.8 L 789.1 373.7 L 763.9 348.4 L 795 348.4 L 811.1 364.6 L 811.1 413.9 L 788.5 436.5 L 788.5 485.2 L 804.7 501.3 L 835.8 501.3 L 861.1 476 L 861.1 507.2 L 844.9 523.3 L 795.6 523.3 L 773 500.7 L 724.3 500.7 L 708.2 516.9 L 708.2 548 L 733.4 573.3 L 702.3 573.3 L 686.2 557.1 L 686.2 507.8 L 708.8 485.2 L 708.8 436.5 L 692.6 420.3 L 661.5 420.3 L 636.2 445.6 L 636.2 414.5 L 652.4 398.3 L 701.7 398.3 L 724.3 421 Z" fill="#b9cfd4" stroke="none" stroke-width="1"></path><path d="M 730.8 443 L 766.5 443 L 766.5 478.7 L 730.8 478.7 Z" fill="#a5243d" stroke="none" stroke-width="1"></path><path d="M 844.9 523.3 L 861.1 507.2 L 861.1 476 L 835.8 450.8 L 866.9 450.8 L 883.1 466.9 L 883.1 516.3 L 860.5 538.9 L 860.5 587.5 L 876.7 603.7 L 907.8 603.7 L 933.1 578.4 L 933.1 609.5 L 916.9 625.7 L 867.5 625.7 L 844.9 603.1 L 796.3 603.1 L 780.1 619.3 L 780.1 650.4 L 805.4 675.7 L 774.3 675.7 L 758.1 659.5 L 758.1 610.1 L 780.7 587.5 L 780.7 538.9 L 764.6 522.7 L 733.4 522.7 L 708.2 548 L 708.2 516.9 L 724.3 500.7 L 773.7 500.7 L 796.3 523.3 Z" fill="#a5243d" stroke="none" stroke-width="1"></path><path d="M 802.7 545.3 L 838.5 545.3 L 838.5 581.1 L 802.7 581.1 Z" fill="#b9cfd4" stroke="none" stroke-width="1"></path><path d="M 916.9 625.7 L 933.1 609.5 L 933.1 578.4 L 907.8 553.1 L 938.9 553.1 L 955.1 569.3 L 955.1 618.6 L 932.4 641.3 L 932.4 689.9 L 948.6 706.1 L 979.7 706.1 L 1005 680.8 L 1005 711.9 L 988.8 728.1 L 939.5 728.1 L 916.9 705.5 L 868.2 705.5 L 852.1 721.6 L 852.1 752.7 L 877.3 778 L 846.2 778 L 830.1 761.9 L 830.1 712.5 L 852.7 689.9 L 852.7 641.3 L 836.5 625.1 L 805.4 625.1 L 780.1 650.4 L 780.1 619.3 L 796.3 603.1 L 845.6 603.1 L 868.2 625.7 Z" fill="#b9cfd4" stroke="none" stroke-width="1"></path><path d="M 874.7 647.7 L 910.4 647.7 L 910.4 683.5 L 874.7 683.5 Z" fill="#a5243d" stroke="none" stroke-width="1"></path><path d="M 988.8 728.1 L 1005 711.9 L 1005 680.8 L 979.7 655.5 L 1010.8 655.5 L 1027 671.7 L 1027 721 L 1004.4 743.6 L 1004.4 792.3 L 1020.6 808.4 L 1051.7 808.4 L 1077 783.2 L 1077 814.3 L 1060.8 830.4 L 1011.4 830.4 L 988.8 807.8 L 940.2 807.8 L 924 824 L 924 855.1 L 949.3 880.4 L 918.2 880.4 L 902 864.2 L 902 814.9 L 924.6 792.3 L 924.6 743.6 L 908.5 727.5 L 877.3 727.5 L 852.1 752.7 L 852.1 721.6 L 868.2 705.5 L 917.6 705.5 L 940.2 728.1 Z" fill="#a5243d" stroke="none" stroke-width="1"></path><path d="M 946.6 750.1 L 982.4 750.1 L 982.4 785.8 L 946.6 785.8 Z" fill="#b9cfd4" stroke="none" stroke-width="1"></path><path d="M 371.7 -367.6 L 387.8 -383.8 L 387.8 -414.9 L 362.6 -440.2 L 393.7 -440.2 L 409.8 -424 L 409.8 -374.7 L 387.2 -352 L 387.2 -303.4 L 403.4 -287.2 L 434.5 -287.2 L 459.8 -312.5 L 459.8 -281.4 L 443.6 -265.2 L 394.3 -265.2 L 371.7 -287.8 L 323 -287.8 L 306.9 -271.7 L 306.9 -240.6 L 332.1 -215.3 L 301 -215.3 L 284.9 -231.4 L 284.9 -280.8 L 307.5 -303.4 L 307.5 -352 L 291.3 -368.2 L 260.2 -368.2 L 234.9 -342.9 L 234.9 -374 L 251.1 -390.2 L 300.4 -390.2 L 323 -367.6 Z" fill="#b9cfd4" stroke="none" stroke-width="1"></path><path d="M 329.5 -345.6 L 365.2 -345.6 L 365.2 -309.8 L 329.5 -309.8 Z" fill="#a5243d" stroke="none" stroke-width="1"></path><path d="M 443.6 -265.2 L 459.8 -281.4 L 459.8 -312.5 L 434.5 -337.8 L 465.6 -337.8 L 481.8 -321.6 L 481.8 -272.3 L 459.2 -249.7 L 459.2 -201 L 475.4 -184.9 L 506.5 -184.9 L 531.8 -210.1 L 531.8 -179 L 515.6 -162.9 L 466.2 -162.9 L 443.6 -185.5 L 395 -185.5 L 378.8 -169.3 L 378.8 -138.2 L 404.1 -112.9 L 373 -112.9 L 356.8 -129.1 L 356.8 -178.4 L 379.4 -201 L 379.4 -249.7 L 363.3 -265.8 L 332.1 -265.8 L 306.9 -240.6 L 306.9 -271.7 L 323 -287.8 L 372.4 -287.8 L 395 -265.2 Z" fill="#a5243d" stroke="none" stroke-width="1"></path><path d="M 401.4 -243.2 L 437.2 -243.2 L 437.2 -207.5 L 401.4 -207.5 Z" fill="#b9cfd4" stroke="none" stroke-width="1"></path><path d="M 515.6 -162.9 L 531.8 -179 L 531.8 -210.1 L 506.5 -235.4 L 537.6 -235.4 L 553.8 -219.3 L 553.8 -169.9 L 531.1 -147.3 L 531.1 -98.7 L 547.3 -82.5 L 578.4 -82.5 L 603.7 -107.8 L 603.7 -76.7 L 587.5 -60.5 L 538.2 -60.5 L 515.6 -83.1 L 466.9 -83.1 L 450.8 -66.9 L 450.8 -35.8 L 476 -10.5 L 444.9 -10.5 L 428.8 -26.7 L 428.8 -76 L 451.4 -98.7 L 451.4 -147.3 L 435.2 -163.5 L 404.1 -163.5 L 378.8 -138.2 L 378.8 -169.3 L 395 -185.5 L 444.3 -185.5 L 466.9 -162.9 Z" fill="#b9cfd4" stroke="none" stroke-width="1"></path><path d="M 473.4 -140.9 L 509.1 -140.9 L 509.1 -105.1 L 473.4 -105.1 Z" fill="#a5243d" stroke="none" stroke-width="1"></path><path d="M 587.5 -60.5 L 603.7 -76.7 L 603.7 -107.8 L 578.4 -133.1 L 609.5 -133.1 L 625.7 -116.9 L 625.7 -67.5 L 603.1 -44.9 L 603.1 3.7 L 619.3 19.9 L 650.4 19.9 L 675.7 -5.4 L 675.7 25.7 L 659.5 41.9 L 610.1 41.9 L 587.5 19.3 L 538.9 19.3 L 522.7 35.4 L 522.7 66.6 L 548 91.8 L 516.9 91.8 L 500.7 75.7 L 500.7 26.3 L 523.3 3.7 L 523.3 -44.9 L 507.2 -61.1 L 476 -61.1 L 450.8 -35.8 L 450.8 -66.9 L 466.9 -83.1 L 516.3 -83.1 L 538.9 -60.5 Z" fill="#a5243d" stroke="none" stroke-width="1"></path><path d="M 545.3 -38.5 L 581.1 -38.5 L 581.1 -2.7 L 545.3 -2.7 Z" fill="#b9cfd4" stroke="none" stroke-width="1"></path><path d="M 659.5 41.9 L 675.7 25.7 L 675.7 -5.4 L 650.4 -30.7 L 681.5 -30.7 L 697.7 -14.5 L 697.7 34.8 L 675 57.4 L 675 106.1 L 691.2 122.3 L 722.3 122.3 L 747.6 97 L 747.6 128.1 L 731.4 144.3 L 682.1 144.3 L 659.5 121.6 L 610.8 121.6 L 594.7 137.8 L 594.7 168.9 L 620 194.2 L 588.8 194.2 L 572.7 178 L 572.7 128.7 L 595.3 106.1 L 595.3 57.4 L 579.1 41.3 L 548 41.3 L 522.7 66.6 L 522.7 35.4 L 538.9 19.3 L 588.2 19.3 L 610.8 41.9 Z" fill="#b9cfd4" stroke="none" stroke-width="1"></path><path d="M 617.3 63.9 L 653 63.9 L 653 99.6 L 617.3 99.6 Z" fill="#a5243d" stroke="none" stroke-width="1"></path><path d="M 731.4 144.3 L 747.6 128.1 L 747.6 97 L 722.3 71.7 L 753.4 71.7 L 769.6 87.9 L 769.6 137.2 L 747 159.8 L 747 208.5 L 763.2 224.6 L 794.3 224.6 L 819.6 199.4 L 819.6 230.5 L 803.4 246.6 L 754.1 246.6 L 731.4 224 L 682.8 224 L 666.6 240.2 L 666.6 271.3 L 691.9 296.6 L 660.8 296.6 L 644.6 280.4 L 644.6 231.1 L 667.2 208.5 L 667.2 159.8 L 651.1 143.6 L 620 143.6 L 594.7 168.9 L 594.7 137.8 L 610.8 121.6 L 660.2 121.6 L 682.8 144.3 Z" fill="#a5243d" stroke="none" stroke-width="1"></path><path d="M 689.2 166.3 L 725 166.3 L 725 202 L 689.2 202 Z" fill="#b9cfd4" stroke="none" stroke-width="1"></path><path d="M 803.4 246.6 L 819.6 230.5 L 819.6 199.4 L 794.3 174.1 L 825.4 174.1 L 841.6 190.2 L 841.6 239.6 L 818.9 262.2 L 818.9 310.8 L 835.1 327 L 866.2 327 L 891.5 301.7 L 891.5 332.8 L 875.3 349 L 826 349 L 803.4 326.4 L 754.7 326.4 L 738.6 342.6 L 738.6 373.7 L 763.9 399 L 732.7 399 L 716.6 382.8 L 716.6 333.4 L 739.2 310.8 L 739.2 262.2 L 723 246 L 691.9 246 L 666.6 271.3 L 666.6 240.2 L 682.8 224 L 732.1 224 L 754.7 246.6 Z" fill="#b9cfd4" stroke="none" stroke-width="1"></path><path d="M 761.2 268.6 L 796.9 268.6 L 796.9 304.4 L 761.2 304.4 Z" fill="#a5243d" stroke="none" stroke-width="1"></path><path d="M 875.3 349 L 891.5 332.8 L 891.5 301.7 L 866.2 276.4 L 897.3 276.4 L 913.5 292.6 L 913.5 341.9 L 890.9 364.6 L 890.9 413.2 L 907.1 429.4 L 938.2 429.4 L 963.5 404.1 L 963.5 435.2 L 947.3 451.4 L 898 451.4 L 875.3 428.8 L 826.7 428.8 L 810.5 444.9 L 810.5 476 L 835.8 501.3 L 804.7 501.3 L 788.5 485.2 L 788.5 435.8 L 811.1 413.2 L 811.1 364.6 L 795 348.4 L 763.9 348.4 L 738.6 373.7 L 738.6 342.6 L 754.7 326.4 L 804.1 326.4 L 826.7 349 Z" fill="#a5243d" stroke="none" stroke-width="1"></path><path d="M 833.1 371 L 868.9 371 L 868.9 406.8 L 833.1 406.8 Z" fill="#b9cfd4" stroke="none" stroke-width="1"></path><path d="M 947.3 451.4 L 963.5 435.2 L 963.5 404.1 L 938.2 378.8 L 969.3 378.8 L 985.5 395 L 985.5 444.3 L 962.9 466.9 L 962.9 515.6 L 979 531.8 L 1010.1 531.8 L 1035.4 506.5 L 1035.4 537.6 L 1019.3 553.8 L 969.9 553.8 L 947.3 531.1 L 898.7 531.1 L 882.5 547.3 L 882.5 578.4 L 907.8 603.7 L 876.7 603.7 L 860.5 587.5 L 860.5 538.2 L 883.1 515.6 L 883.1 466.9 L 866.9 450.8 L 835.8 450.8 L 810.5 476 L 810.5 444.9 L 826.7 428.8 L 876 428.8 L 898.7 451.4 Z" fill="#b9cfd4" stroke="none" stroke-width="1"></path><path d="M 905.1 473.4 L 940.9 473.4 L 940.9 509.1 L 905.1 509.1 Z" fill="#a5243d" stroke="none" stroke-width="1"></path><path d="M 1019.3 553.8 L 1035.4 537.6 L 1035.4 506.5 L 1010.1 481.2 L 1041.3 481.2 L 1057.4 497.4 L 1057.4 546.7 L 1034.8 569.3 L 1034.8 618 L 1051 634.1 L 1082.1 634.1 L 1107.4 608.8 L 1107.4 640 L 1091.2 656.1 L 1041.9 656.1 L 1019.3 633.5 L 970.6 633.5 L 954.4 649.7 L 954.4 680.8 L 979.7 706.1 L 948.6 706.1 L 932.4 689.9 L 932.4 640.6 L 955.1 618 L 955.1 569.3 L 938.9 553.1 L 907.8 553.1 L 882.5 578.4 L 882.5 547.3 L 898.7 531.1 L 948 531.1 L 970.6 553.8 Z" fill="#a5243d" stroke="none" stroke-width="1"></path><path d="M 977.1 575.8 L 1012.8 575.8 L 1012.8 611.5 L 977.1 611.5 Z" fill="#b9cfd4" stroke="none" stroke-width="1"></path><path d="M 1091.2 656.1 L 1107.4 640 L 1107.4 608.8 L 1082.1 583.6 L 1113.2 583.6 L 1129.4 599.7 L 1129.4 649.1 L 1106.8 671.7 L 1106.8 720.3 L 1122.9 736.5 L 1154 736.5 L 1179.3 711.2 L 1179.3 742.3 L 1163.2 758.5 L 1113.8 758.5 L 1091.2 735.9 L 1042.6 735.9 L 1026.4 752.1 L 1026.4 783.2 L 1051.7 808.4 L 1020.6 808.4 L 1004.4 792.3 L 1004.4 742.9 L 1027 720.3 L 1027 671.7 L 1010.8 655.5 L 979.7 655.5 L 954.4 680.8 L 954.4 649.7 L 970.6 633.5 L 1019.9 633.5 L 1042.6 656.1 Z" fill="#b9cfd4" stroke="none" stroke-width="1"></path><path d="M 1049 678.1 L 1084.8 678.1 L 1084.8 713.9 L 1049 713.9 Z" fill="#a5243d" stroke="none" stroke-width="1"></path><path d="M 474 -439.6 L 490.2 -455.7 L 490.2 -486.8 L 464.9 -512.1 L 496 -512.1 L 512.2 -495.9 L 512.2 -446.6 L 489.6 -424 L 489.6 -375.4 L 505.8 -359.2 L 536.9 -359.2 L 562.2 -384.5 L 562.2 -353.4 L 546 -337.2 L 496.7 -337.2 L 474 -359.8 L 425.4 -359.8 L 409.2 -343.6 L 409.2 -312.5 L 434.5 -287.2 L 403.4 -287.2 L 387.2 -303.4 L 387.2 -352.7 L 409.8 -375.4 L 409.8 -424 L 393.7 -440.2 L 362.6 -440.2 L 337.3 -414.9 L 337.3 -446 L 353.4 -462.2 L 402.8 -462.2 L 425.4 -439.6 Z" fill="#a5243d" stroke="none" stroke-width="1"></path><path d="M 431.8 -417.6 L 467.6 -417.6 L 467.6 -381.8 L 431.8 -381.8 Z" fill="#b9cfd4" stroke="none" stroke-width="1"></path><path d="M 546 -337.2 L 562.2 -353.4 L 562.2 -384.5 L 536.9 -409.7 L 568 -409.7 L 584.2 -393.6 L 584.2 -344.2 L 561.6 -321.6 L 561.6 -273 L 577.7 -256.8 L 608.8 -256.8 L 634.1 -282.1 L 634.1 -251 L 618 -234.8 L 568.6 -234.8 L 546 -257.4 L 497.4 -257.4 L 481.2 -241.3 L 481.2 -210.1 L 506.5 -184.9 L 475.4 -184.9 L 459.2 -201 L 459.2 -250.4 L 481.8 -273 L 481.8 -321.6 L 465.6 -337.8 L 434.5 -337.8 L 409.2 -312.5 L 409.2 -343.6 L 425.4 -359.8 L 474.7 -359.8 L 497.4 -337.2 Z" fill="#b9cfd4" stroke="none" stroke-width="1"></path><path d="M 503.8 -315.2 L 539.6 -315.2 L 539.6 -279.4 L 503.8 -279.4 Z" fill="#a5243d" stroke="none" stroke-width="1"></path><path d="M 618 -234.8 L 634.1 -251 L 634.1 -282.1 L 608.8 -307.4 L 640 -307.4 L 656.1 -291.2 L 656.1 -241.9 L 633.5 -219.3 L 633.5 -170.6 L 649.7 -154.4 L 680.8 -154.4 L 706.1 -179.7 L 706.1 -148.6 L 689.9 -132.4 L 640.6 -132.4 L 618 -155.1 L 569.3 -155.1 L 553.1 -138.9 L 553.1 -107.8 L 578.4 -82.5 L 547.3 -82.5 L 531.1 -98.7 L 531.1 -148 L 553.8 -170.6 L 553.8 -219.3 L 537.6 -235.4 L 506.5 -235.4 L 481.2 -210.1 L 481.2 -241.3 L 497.4 -257.4 L 546.7 -257.4 L 569.3 -234.8 Z" fill="#a5243d" stroke="none" stroke-width="1"></path><path d="M 575.8 -212.8 L 611.5 -212.8 L 611.5 -177.1 L 575.8 -177.1 Z" fill="#b9cfd4" stroke="none" stroke-width="1"></path><path d="M 689.9 -132.4 L 706.1 -148.6 L 706.1 -179.7 L 680.8 -205 L 711.9 -205 L 728.1 -188.8 L 728.1 -139.5 L 705.5 -116.9 L 705.5 -68.2 L 721.6 -52.1 L 752.7 -52.1 L 778 -77.3 L 778 -46.2 L 761.9 -30.1 L 712.5 -30.1 L 689.9 -52.7 L 641.3 -52.7 L 625.1 -36.5 L 625.1 -5.4 L 650.4 19.9 L 619.3 19.9 L 603.1 3.7 L 603.1 -45.6 L 625.7 -68.2 L 625.7 -116.9 L 609.5 -133.1 L 578.4 -133.1 L 553.1 -107.8 L 553.1 -138.9 L 569.3 -155.1 L 618.6 -155.1 L 641.3 -132.4 Z" fill="#b9cfd4" stroke="none" stroke-width="1"></path><path d="M 647.7 -110.4 L 683.5 -110.4 L 683.5 -74.7 L 647.7 -74.7 Z" fill="#a5243d" stroke="none" stroke-width="1"></path><path d="M 761.9 -30.1 L 778 -46.2 L 778 -77.3 L 752.7 -102.6 L 783.9 -102.6 L 800 -86.5 L 800 -37.1 L 777.4 -14.5 L 777.4 34.1 L 793.6 50.3 L 824.7 50.3 L 850 25 L 850 56.1 L 833.8 72.3 L 784.5 72.3 L 761.9 49.7 L 713.2 49.7 L 697 65.9 L 697 97 L 722.3 122.3 L 691.2 122.3 L 675 106.1 L 675 56.8 L 697.7 34.1 L 697.7 -14.5 L 681.5 -30.7 L 650.4 -30.7 L 625.1 -5.4 L 625.1 -36.5 L 641.3 -52.7 L 690.6 -52.7 L 713.2 -30.1 Z" fill="#a5243d" stroke="none" stroke-width="1"></path><path d="M 719.7 -8.1 L 755.4 -8.1 L 755.4 27.7 L 719.7 27.7 Z" fill="#b9cfd4" stroke="none" stroke-width="1"></path><path d="M 833.8 72.3 L 850 56.1 L 850 25 L 824.7 -0.3 L 855.8 -0.3 L 872 15.9 L 872 65.3 L 849.4 87.9 L 849.4 136.5 L 865.5 152.7 L 896.7 152.7 L 921.9 127.4 L 921.9 158.5 L 905.8 174.7 L 856.4 174.7 L 833.8 152.1 L 785.2 152.1 L 769 168.2 L 769 199.4 L 794.3 224.6 L 763.2 224.6 L 747 208.5 L 747 159.1 L 769.6 136.5 L 769.6 87.9 L 753.4 71.7 L 722.3 71.7 L 697 97 L 697 65.9 L 713.2 49.7 L 762.6 49.7 L 785.2 72.3 Z" fill="#b9cfd4" stroke="none" stroke-width="1"></path><path d="M 791.6 94.3 L 827.4 94.3 L 827.4 130.1 L 791.6 130.1 Z" fill="#a5243d" stroke="none" stroke-width="1"></path><path d="M 905.8 174.7 L 921.9 158.5 L 921.9 127.4 L 896.7 102.1 L 927.8 102.1 L 943.9 118.3 L 943.9 167.6 L 921.3 190.2 L 921.3 238.9 L 937.5 255.1 L 968.6 255.1 L 993.9 229.8 L 993.9 260.9 L 977.7 277.1 L 928.4 277.1 L 905.8 254.4 L 857.1 254.4 L 840.9 270.6 L 840.9 301.7 L 866.2 327 L 835.1 327 L 818.9 310.8 L 818.9 261.5 L 841.6 238.9 L 841.6 190.2 L 825.4 174.1 L 794.3 174.1 L 769 199.4 L 769 168.2 L 785.2 152.1 L 834.5 152.1 L 857.1 174.7 Z" fill="#a5243d" stroke="none" stroke-width="1"></path><path d="M 863.6 196.7 L 899.3 196.7 L 899.3 232.4 L 863.6 232.4 Z" fill="#b9cfd4" stroke="none" stroke-width="1"></path><path d="M 977.7 277.1 L 993.9 260.9 L 993.9 229.8 L 968.6 204.5 L 999.7 204.5 L 1015.9 220.7 L 1015.9 270 L 993.3 292.6 L 993.3 341.3 L 1009.4 357.4 L 1040.6 357.4 L 1065.8 332.1 L 1065.8 363.3 L 1049.7 379.4 L 1000.3 379.4 L 977.7 356.8 L 929.1 356.8 L 912.9 373 L 912.9 404.1 L 938.2 429.4 L 907.1 429.4 L 890.9 413.2 L 890.9 363.9 L 913.5 341.3 L 913.5 292.6 L 897.3 276.4 L 866.2 276.4 L 840.9 301.7 L 840.9 270.6 L 857.1 254.4 L 906.5 254.4 L 929.1 277.1 Z" fill="#b9cfd4" stroke="none" stroke-width="1"></path><path d="M 935.5 299.1 L 971.3 299.1 L 971.3 334.8 L 935.5 334.8 Z" fill="#a5243d" stroke="none" stroke-width="1"></path><path d="M 1049.7 379.4 L 1065.8 363.3 L 1065.8 332.1 L 1040.6 306.9 L 1071.7 306.9 L 1087.8 323 L 1087.8 372.4 L 1065.2 395 L 1065.2 443.6 L 1081.4 459.8 L 1112.5 459.8 L 1137.8 434.5 L 1137.8 465.6 L 1121.6 481.8 L 1072.3 481.8 L 1049.7 459.2 L 1001 459.2 L 984.9 475.4 L 984.9 506.5 L 1010.1 531.8 L 979 531.8 L 962.9 515.6 L 962.9 466.2 L 985.5 443.6 L 985.5 395 L 969.3 378.8 L 938.2 378.8 L 912.9 404.1 L 912.9 373 L 929.1 356.8 L 978.4 356.8 L 1001 379.4 Z" fill="#a5243d" stroke="none" stroke-width="1"></path><path d="M 1007.5 401.4 L 1043.2 401.4 L 1043.2 437.2 L 1007.5 437.2 Z" fill="#b9cfd4" stroke="none" stroke-width="1"></path><path d="M 1121.6 481.8 L 1137.8 465.6 L 1137.8 434.5 L 1112.5 409.2 L 1143.6 409.2 L 1159.8 425.4 L 1159.8 474.7 L 1137.2 497.4 L 1137.2 546 L 1153.4 562.2 L 1184.5 562.2 L 1209.7 536.9 L 1209.7 568 L 1193.6 584.2 L 1144.2 584.2 L 1121.6 561.6 L 1073 561.6 L 1056.8 577.7 L 1056.8 608.8 L 1082.1 634.1 L 1051 634.1 L 1034.8 618 L 1034.8 568.6 L 1057.4 546 L 1057.4 497.4 L 1041.3 481.2 L 1010.1 481.2 L 984.9 506.5 L 984.9 475.4 L 1001 459.2 L 1050.4 459.2 L 1073 481.8 Z" fill="#b9cfd4" stroke="none" stroke-width="1"></path><path d="M 1079.4 503.8 L 1115.2 503.8 L 1115.2 539.6 L 1079.4 539.6 Z" fill="#a5243d" stroke="none" stroke-width="1"></path><path d="M 1193.6 584.2 L 1209.7 568 L 1209.7 536.9 L 1184.5 511.6 L 1215.6 511.6 L 1231.7 527.8 L 1231.7 577.1 L 1209.1 599.7 L 1209.1 648.4 L 1225.3 664.5 L 1256.4 664.5 L 1281.7 639.3 L 1281.7 670.4 L 1265.5 686.5 L 1216.2 686.5 L 1193.6 663.9 L 1144.9 663.9 L 1128.8 680.1 L 1128.8 711.2 L 1154 736.5 L 1122.9 736.5 L 1106.8 720.3 L 1106.8 671 L 1129.4 648.4 L 1129.4 599.7 L 1113.2 583.6 L 1082.1 583.6 L 1056.8 608.8 L 1056.8 577.7 L 1073 561.6 L 1122.3 561.6 L 1144.9 584.2 Z" fill="#a5243d" stroke="none" stroke-width="1"></path><path d="M 1151.4 606.2 L 1187.1 606.2 L 1187.1 641.9 L 1151.4 641.9 Z" fill="#b9cfd4" stroke="none" stroke-width="1"></path><path d="M 576.4 -511.5 L 592.6 -527.7 L 592.6 -558.8 L 567.3 -584.1 L 598.4 -584.1 L 614.6 -567.9 L 614.6 -518.6 L 592 -495.9 L 592 -447.3 L 608.1 -431.1 L 639.3 -431.1 L 664.5 -456.4 L 664.5 -425.3 L 648.4 -409.1 L 599 -409.1 L 576.4 -431.7 L 527.8 -431.7 L 511.6 -415.6 L 511.6 -384.5 L 536.9 -359.2 L 505.8 -359.2 L 489.6 -375.4 L 489.6 -424.7 L 512.2 -447.3 L 512.2 -495.9 L 496 -512.1 L 464.9 -512.1 L 439.6 -486.8 L 439.6 -517.9 L 455.8 -534.1 L 505.2 -534.1 L 527.8 -511.5 Z" fill="#b9cfd4" stroke="none" stroke-width="1"></path><path d="M 534.2 -489.5 L 570 -489.5 L 570 -453.7 L 534.2 -453.7 Z" fill="#a5243d" stroke="none" stroke-width="1"></path><path d="M 648.4 -409.1 L 664.5 -425.3 L 664.5 -456.4 L 639.3 -481.7 L 670.4 -481.7 L 686.5 -465.5 L 686.5 -416.2 L 663.9 -393.6 L 663.9 -344.9 L 680.1 -328.8 L 711.2 -328.8 L 736.5 -354 L 736.5 -322.9 L 720.3 -306.8 L 671 -306.8 L 648.4 -329.4 L 599.7 -329.4 L 583.6 -313.2 L 583.6 -282.1 L 608.8 -256.8 L 577.7 -256.8 L 561.6 -273 L 561.6 -322.3 L 584.2 -344.9 L 584.2 -393.6 L 568 -409.7 L 536.9 -409.7 L 511.6 -384.5 L 511.6 -415.6 L 527.8 -431.7 L 577.1 -431.7 L 599.7 -409.1 Z" fill="#a5243d" stroke="none" stroke-width="1"></path><path d="M 606.2 -387.1 L 641.9 -387.1 L 641.9 -351.4 L 606.2 -351.4 Z" fill="#b9cfd4" stroke="none" stroke-width="1"></path><path d="M 720.3 -306.8 L 736.5 -322.9 L 736.5 -354 L 711.2 -379.3 L 742.3 -379.3 L 758.5 -363.2 L 758.5 -313.8 L 735.9 -291.2 L 735.9 -242.6 L 752.1 -226.4 L 783.2 -226.4 L 808.4 -251.7 L 808.4 -220.6 L 792.3 -204.4 L 742.9 -204.4 L 720.3 -227 L 671.7 -227 L 655.5 -210.8 L 655.5 -179.7 L 680.8 -154.4 L 649.7 -154.4 L 633.5 -170.6 L 633.5 -219.9 L 656.1 -242.6 L 656.1 -291.2 L 640 -307.4 L 608.8 -307.4 L 583.6 -282.1 L 583.6 -313.2 L 599.7 -329.4 L 649.1 -329.4 L 671.7 -306.8 Z" fill="#b9cfd4" stroke="none" stroke-width="1"></path><path d="M 678.1 -284.8 L 713.9 -284.8 L 713.9 -249 L 678.1 -249 Z" fill="#a5243d" stroke="none" stroke-width="1"></path><path d="M 792.3 -204.4 L 808.4 -220.6 L 808.4 -251.7 L 783.2 -277 L 814.3 -277 L 830.4 -260.8 L 830.4 -211.4 L 807.8 -188.8 L 807.8 -140.2 L 824 -124 L 855.1 -124 L 880.4 -149.3 L 880.4 -118.2 L 864.2 -102 L 814.9 -102 L 792.3 -124.6 L 743.6 -124.6 L 727.5 -108.5 L 727.5 -77.3 L 752.7 -52.1 L 721.6 -52.1 L 705.5 -68.2 L 705.5 -117.6 L 728.1 -140.2 L 728.1 -188.8 L 711.9 -205 L 680.8 -205 L 655.5 -179.7 L 655.5 -210.8 L 671.7 -227 L 721 -227 L 743.6 -204.4 Z" fill="#a5243d" stroke="none" stroke-width="1"></path><path d="M 750.1 -182.4 L 785.8 -182.4 L 785.8 -146.6 L 750.1 -146.6 Z" fill="#b9cfd4" stroke="none" stroke-width="1"></path><path d="M 864.2 -102 L 880.4 -118.2 L 880.4 -149.3 L 855.1 -174.6 L 886.2 -174.6 L 902.4 -158.4 L 902.4 -109.1 L 879.8 -86.5 L 879.8 -37.8 L 896 -21.6 L 927.1 -21.6 L 952.4 -46.9 L 952.4 -15.8 L 936.2 0.4 L 886.8 0.4 L 864.2 -22.3 L 815.6 -22.3 L 799.4 -6.1 L 799.4 25 L 824.7 50.3 L 793.6 50.3 L 777.4 34.1 L 777.4 -15.2 L 800 -37.8 L 800 -86.5 L 783.9 -102.6 L 752.7 -102.6 L 727.5 -77.3 L 727.5 -108.5 L 743.6 -124.6 L 793 -124.6 L 815.6 -102 Z" fill="#b9cfd4" stroke="none" stroke-width="1"></path><path d="M 822 -80 L 857.8 -80 L 857.8 -44.3 L 822 -44.3 Z" fill="#a5243d" stroke="none" stroke-width="1"></path><path d="M 936.2 0.4 L 952.4 -15.8 L 952.4 -46.9 L 927.1 -72.2 L 958.2 -72.2 L 974.4 -56 L 974.4 -6.7 L 951.7 15.9 L 951.7 64.6 L 967.9 80.7 L 999 80.7 L 1024.3 55.4 L 1024.3 86.6 L 1008.1 102.7 L 958.8 102.7 L 936.2 80.1 L 887.5 80.1 L 871.4 96.3 L 871.4 127.4 L 896.7 152.7 L 865.5 152.7 L 849.4 136.5 L 849.4 87.2 L 872 64.6 L 872 15.9 L 855.8 -0.3 L 824.7 -0.3 L 799.4 25 L 799.4 -6.1 L 815.6 -22.3 L 864.9 -22.3 L 887.5 0.4 Z" fill="#a5243d" stroke="none" stroke-width="1"></path><path d="M 894 22.4 L 929.7 22.4 L 929.7 58.1 L 894 58.1 Z" fill="#b9cfd4" stroke="none" stroke-width="1"></path><path d="M 1008.1 102.7 L 1024.3 86.6 L 1024.3 55.4 L 999 30.2 L 1030.1 30.2 L 1046.3 46.3 L 1046.3 95.7 L 1023.7 118.3 L 1023.7 166.9 L 1039.9 183.1 L 1071 183.1 L 1096.3 157.8 L 1096.3 188.9 L 1080.1 205.1 L 1030.8 205.1 L 1008.1 182.5 L 959.5 182.5 L 943.3 198.7 L 943.3 229.8 L 968.6 255.1 L 937.5 255.1 L 921.3 238.9 L 921.3 189.5 L 943.9 166.9 L 943.9 118.3 L 927.8 102.1 L 896.7 102.1 L 871.4 127.4 L 871.4 96.3 L 887.5 80.1 L 936.9 80.1 L 959.5 102.7 Z" fill="#b9cfd4" stroke="none" stroke-width="1"></path><path d="M 965.9 124.7 L 1001.7 124.7 L 1001.7 160.5 L 965.9 160.5 Z" fill="#a5243d" stroke="none" stroke-width="1"></path><path d="M 1080.1 205.1 L 1096.3 188.9 L 1096.3 157.8 L 1071 132.5 L 1102.1 132.5 L 1118.3 148.7 L 1118.3 198 L 1095.6 220.7 L 1095.6 269.3 L 1111.8 285.5 L 1142.9 285.5 L 1168.2 260.2 L 1168.2 291.3 L 1152 307.5 L 1102.7 307.5 L 1080.1 284.9 L 1031.4 284.9 L 1015.3 301 L 1015.3 332.1 L 1040.6 357.4 L 1009.4 357.4 L 993.3 341.3 L 993.3 291.9 L 1015.9 269.3 L 1015.9 220.7 L 999.7 204.5 L 968.6 204.5 L 943.3 229.8 L 943.3 198.7 L 959.5 182.5 L 1008.8 182.5 L 1031.4 205.1 Z" fill="#a5243d" stroke="none" stroke-width="1"></path><path d="M 1037.9 227.1 L 1073.6 227.1 L 1073.6 262.9 L 1037.9 262.9 Z" fill="#b9cfd4" stroke="none" stroke-width="1"></path><path d="M 1152 307.5 L 1168.2 291.3 L 1168.2 260.2 L 1142.9 234.9 L 1174 234.9 L 1190.2 251.1 L 1190.2 300.4 L 1167.6 323 L 1167.6 371.7 L 1183.8 387.8 L 1214.9 387.8 L 1240.2 362.6 L 1240.2 393.7 L 1224 409.8 L 1174.7 409.8 L 1152 387.2 L 1103.4 387.2 L 1087.2 403.4 L 1087.2 434.5 L 1112.5 459.8 L 1081.4 459.8 L 1065.2 443.6 L 1065.2 394.3 L 1087.8 371.7 L 1087.8 323 L 1071.7 306.9 L 1040.6 306.9 L 1015.3 332.1 L 1015.3 301 L 1031.4 284.9 L 1080.8 284.9 L 1103.4 307.5 Z" fill="#b9cfd4" stroke="none" stroke-width="1"></path><path d="M 1109.8 329.5 L 1145.6 329.5 L 1145.6 365.2 L 1109.8 365.2 Z" fill="#a5243d" stroke="none" stroke-width="1"></path><path d="M 1224 409.8 L 1240.2 393.7 L 1240.2 362.6 L 1214.9 337.3 L 1246 337.3 L 1262.2 353.4 L 1262.2 402.8 L 1239.6 425.4 L 1239.6 474 L 1255.7 490.2 L 1286.8 490.2 L 1312.1 464.9 L 1312.1 496 L 1295.9 512.2 L 1246.6 512.2 L 1224 489.6 L 1175.4 489.6 L 1159.2 505.8 L 1159.2 536.9 L 1184.5 562.2 L 1153.4 562.2 L 1137.2 546 L 1137.2 496.7 L 1159.8 474 L 1159.8 425.4 L 1143.6 409.2 L 1112.5 409.2 L 1087.2 434.5 L 1087.2 403.4 L 1103.4 387.2 L 1152.7 387.2 L 1175.4 409.8 Z" fill="#a5243d" stroke="none" stroke-width="1"></path><path d="M 1181.8 431.8 L 1217.6 431.8 L 1217.6 467.6 L 1181.8 467.6 Z" fill="#b9cfd4" stroke="none" stroke-width="1"></path><path d="M 1295.9 512.2 L 1312.1 496 L 1312.1 464.9 L 1286.8 439.6 L 1317.9 439.6 L 1334.1 455.8 L 1334.1 505.2 L 1311.5 527.8 L 1311.5 576.4 L 1327.7 592.6 L 1358.8 592.6 L 1384.1 567.3 L 1384.1 598.4 L 1367.9 614.6 L 1318.6 614.6 L 1295.9 592 L 1247.3 592 L 1231.1 608.1 L 1231.1 639.3 L 1256.4 664.5 L 1225.3 664.5 L 1209.1 648.4 L 1209.1 599 L 1231.7 576.4 L 1231.7 527.8 L 1215.6 511.6 L 1184.5 511.6 L 1159.2 536.9 L 1159.2 505.8 L 1175.4 489.6 L 1224.7 489.6 L 1247.3 512.2 Z" fill="#b9cfd4" stroke="none" stroke-width="1"></path><path d="M 1253.7 534.2 L 1289.5 534.2 L 1289.5 570 L 1253.7 570 Z" fill="#a5243d" stroke="none" stroke-width="1"></path><ellipse cx="400" cy="400" rx="600" ry="600" fill="none" stroke="white" stroke-width="560"></ellipse><ellipse cx="400" cy="400" rx="320" ry="320" fill="none" stroke="#a5243d" stroke-width="11"></ellipse></svg>