<svg viewBox="0 0 800 800" preserveAspectRatio="xMidYMin slice" xmlns="http://www.w3.org/2000/svg"><rect x="0" y="0" width="800" height="800" fill="#467599"></rect><path d="M -100 804.1 L 0 804.1 L -50 717.5 Z" fill="#E9FFF9" stroke="black" stroke-width="1"></path><path d="M -50 833 L 0 746.4 L -100 746.4 Z" fill="#1D3354" stroke="black" stroke-width="1"></path><path d="M 100 804.1 L 200 804.1 L 150 717.5 Z" fill="#E9FFF9" stroke="black" stroke-width="1"></path><path d="M 150 833 L 200 746.4 L 100 746.4 Z" fill="#1D3354" stroke="black" stroke-width="1"></path><path d="M 300 804.1 L 400 804.1 L 350 717.5 Z" fill="#E9FFF9" stroke="black" stroke-width="1"></path><path d="M 350 833 L 400 746.4 L 300 746.4 Z" fill="#1D3354" stroke="black" stroke-width="1"></path><path d="M 500 804.1 L 600 804.1 L 550 717.5 Z" fill="#E9FFF9" stroke="black" stroke-width="1"></path><path d="M 550 833 L 600 746.4 L 500 746.4 Z" fill="#1D3354" stroke="black" stroke-width="1"></path><path d="M 700 804.1 L 800 804.1 L 750 717.5 Z" fill="#E9FFF9" stroke="black" stroke-width="1"></path><path d="M 750 833 L 800 746.4 L 700 746.4 Z" fill="#1D3354" stroke="black" stroke-width="1"></path><path d="M 900 804.1 L 1000 804.1 L 950 717.5 Z" fill="#E9FFF9" stroke="black" stroke-width="1"></path><path d="M 950 833 L 1000 746.4 L 900 746.4 Z" fill="#1D3354" stroke="black" stroke-width="1"></path><path d="M 1100 804.1 L 1200 804.1 L 1150 717.5 Z" fill="#E9FFF9" stroke="black" stroke-width="1"></path><path d="M 1150 833 L 1200 746.4 L 1100 746.4 Z" fill="#1D3354" stroke="black" stroke-width="1"></path><path d="M 1300 804.1 L 1400 804.1 L 1350 717.5 Z" fill="#E9FFF9" stroke="black" stroke-width="1"></path><path d="M 1350 833 L 1400 746.4 L 1300 746.4 Z" fill="#1D3354" stroke="black" stroke-width="1"></path><path d="M 1500 804.1 L 1600 804.1 L 1550 717.5 Z" fill="#E9FFF9" stroke="black" stroke-width="1"></path><path d="M 1550 833 L 1600 746.4 L 1500 746.4 Z" fill="#1D3354" stroke="black" stroke-width="1"></path><path d="M 1700 804.1 L 1800 804.1 L 1750 717.5 Z" fill="#E9FFF9" stroke="black" stroke-width="1"></path><path d="M 1750 833 L 1800 746.4 L 1700 746.4 Z" fill="#1D3354" stroke="black" stroke-width="1"></path><path d="M 1900 804.1 L 2000 804.1 L 1950 717.5 Z" fill="#E9FFF9" stroke="black" stroke-width="1"></path><path d="M 1950 833 L 2000 746.4 L 1900 746.4 Z" fill="#1D3354" stroke="black" stroke-width="1"></path><path d="M 2100 804.1 L 2200 804.1 L 2150 717.5 Z" fill="#E9FFF9" stroke="black" stroke-width="1"></path><path d="M 2150 833 L 2200 746.4 L 2100 746.4 Z" fill="#1D3354" stroke="black" stroke-width="1"></path><path d="M 2300 804.1 L 2400 804.1 L 2350 717.5 Z" fill="#E9FFF9" stroke="black" stroke-width="1"></path><path d="M 2350 833 L 2400 746.4 L 2300 746.4 Z" fill="#1D3354" stroke="black" stroke-width="1"></path><path d="M -200 746.4 L -100 746.4 L -150 659.8 Z" fill="#E9FFF9" stroke="black" stroke-width="1"></path><path d="M -150 775.3 L -100 688.7 L -200 688.7 Z" fill="#1D3354" stroke="black" stroke-width="1"></path><path d="M 0 746.4 L 100 746.4 L 50 659.8 Z" fill="#E9FFF9" stroke="black" stroke-width="1"></path><path d="M 50 775.3 L 100 688.7 L 0 688.7 Z" fill="#1D3354" stroke="black" stroke-width="1"></path><path d="M 200 746.4 L 300 746.4 L 250 659.8 Z" fill="#E9FFF9" stroke="black" stroke-width="1"></path><path d="M 250 775.3 L 300 688.7 L 200 688.7 Z" fill="#1D3354" stroke="black" stroke-width="1"></path><path d="M 400 746.4 L 500 746.4 L 450 659.8 Z" fill="#E9FFF9" stroke="black" stroke-width="1"></path><path d="M 450 775.3 L 500 688.7 L 400 688.7 Z" fill="#1D3354" stroke="black" stroke-width="1"></path><path d="M 600 746.4 L 700 746.4 L 650 659.8 Z" fill="#E9FFF9" stroke="black" stroke-width="1"></path><path d="M 650 775.3 L 700 688.7 L 600 688.7 Z" fill="#1D3354" stroke="black" stroke-width="1"></path><path d="M 800 746.4 L 900 746.4 L 850 659.8 Z" fill="#E9FFF9" stroke="black" stroke-width="1"></path><path d="M 850 775.3 L 900 688.7 L 800 688.7 Z" fill="#1D3354" stroke="black" stroke-width="1"></path><path d="M 1000 746.4 L 1100 746.4 L 1050 659.8 Z" fill="#E9FFF9" stroke="black" stroke-width="1"></path><path d="M 1050 775.3 L 1100 688.7 L 1000 688.7 Z" fill="#1D3354" stroke="black" stroke-width="1"></path><path d="M 1200 746.4 L 1300 746.4 L 1250 659.8 Z" fill="#E9FFF9" stroke="black" stroke-width="1"></path><path d="M 1250 775.3 L 1300 688.7 L 1200 688.7 Z" fill="#1D3354" stroke="black" stroke-width="1"></path><path d="M 1400 746.4 L 1500 746.4 L 1450 659.8 Z" fill="#E9FFF9" stroke="black" stroke-width="1"></path><path d="M 1450 775.3 L 1500 688.7 L 1400 688.7 Z" fill="#1D3354" stroke="black" stroke-width="1"></path><path d="M 1600 746.4 L 1700 746.4 L 1650 659.8 Z" fill="#E9FFF9" stroke="black" stroke-width="1"></path><path d="M 1650 775.3 L 1700 688.7 L 1600 688.7 Z" fill="#1D3354" stroke="black" stroke-width="1"></path><path d="M 1800 746.4 L 1900 746.4 L 1850 659.8 Z" fill="#E9FFF9" stroke="black" stroke-width="1"></path><path d="M 1850 775.3 L 1900 688.7 L 1800 688.7 Z" fill="#1D3354" stroke="black" stroke-width="1"></path><path d="M 2000 746.4 L 2100 746.4 L 2050 659.8 Z" fill="#E9FFF9" stroke="black" stroke-width="1"></path><path d="M 2050 775.3 L 2100 688.7 L 2000 688.7 Z" fill="#1D3354" stroke="black" stroke-width="1"></path><path d="M 2200 746.4 L 2300 746.4 L 2250 659.8 Z" fill="#E9FFF9" stroke="black" stroke-width="1"></path><path d="M 2250 775.3 L 2300 688.7 L 2200 688.7 Z" fill="#1D3354" stroke="black" stroke-width="1"></path><path d="M -300 688.7 L -200 688.7 L -250 602.1 Z" fill="#E9FFF9" stroke="black" stroke-width="1"></path><path d="M -250 717.5 L -200 630.9 L -300 630.9 Z" fill="#1D3354" stroke="black" stroke-width="1"></path><path d="M -100 688.7 L 0 688.7 L -50 602.1 Z" fill="#E9FFF9" stroke="black" stroke-width="1"></path><path d="M -50 717.5 L 0 630.9 L -100 630.9 Z" fill="#1D3354" stroke="black" stroke-width="1"></path><path d="M 100 688.7 L 200 688.7 L 150 602.1 Z" fill="#E9FFF9" stroke="black" stroke-width="1"></path><path d="M 150 717.5 L 200 630.9 L 100 630.9 Z" fill="#1D3354" stroke="black" stroke-width="1"></path><path d="M 300 688.7 L 400 688.7 L 350 602.1 Z" fill="#E9FFF9" stroke="black" stroke-width="1"></path><path d="M 350 717.5 L 400 630.9 L 300 630.9 Z" fill="#1D3354" stroke="black" stroke-width="1"></path><path d="M 500 688.7 L 600 688.7 L 550 602.1 Z" fill="#E9FFF9" stroke="black" stroke-width="1"></path><path d="M 550 717.5 L 600 630.9 L 500 630.9 Z" fill="#1D3354" stroke="black" stroke-width="1"></path><path d="M 700 688.7 L 800 688.7 L 750 602.1 Z" fill="#E9FFF9" stroke="black" stroke-width="1"></path><path d="M 750 717.5 L 800 630.9 L 700 630.9 Z" fill="#1D3354" stroke="black" stroke-width="1"></path><path d="M 900 688.7 L 1000 688.7 L 950 602.1 Z" fill="#E9FFF9" stroke="black" stroke-width="1"></path><path d="M 950 717.5 L 1000 630.9 L 900 630.9 Z" fill="#1D3354" stroke="black" stroke-width="1"></path><path d="M 1100 688.7 L 1200 688.7 L 1150 602.1 Z" fill="#E9FFF9" stroke="black" stroke-width="1"></path><path d="M 1150 717.5 L 1200 630.9 L 1100 630.9 Z" fill="#1D3354" stroke="black" stroke-width="1"></path><path d="M 1300 688.7 L 1400 688.7 L 1350 602.1 Z" fill="#E9FFF9" stroke="black" stroke-width="1"></path><path d="M 1350 717.5 L 1400 630.9 L 1300 630.9 Z" fill="#1D3354" stroke="black" stroke-width="1"></path><path d="M 1500 688.7 L 1600 688.7 L 1550 602.1 Z" fill="#E9FFF9" stroke="black" stroke-width="1"></path><path d="M 1550 717.5 L 1600 630.9 L 1500 630.9 Z" fill="#1D3354" stroke="black" stroke-width="1"></path><path d="M 1700 688.7 L 1800 688.7 L 1750 602.1 Z" fill="#E9FFF9" stroke="black" stroke-width="1"></path><path d="M 1750 717.5 L 1800 630.9 L 1700 630.9 Z" fill="#1D3354" stroke="black" stroke-width="1"></path><path d="M 1900 688.7 L 2000 688.7 L 1950 602.1 Z" fill="#E9FFF9" stroke="black" stroke-width="1"></path><path d="M 1950 717.5 L 2000 630.9 L 1900 630.9 Z" fill="#1D3354" stroke="black" stroke-width="1"></path><path d="M 2100 688.7 L 2200 688.7 L 2150 602.1 Z" fill="#E9FFF9" stroke="black" stroke-width="1"></path><path d="M 2150 717.5 L 2200 630.9 L 2100 630.9 Z" fill="#1D3354" stroke="black" stroke-width="1"></path><path d="M -400 630.9 L -300 630.9 L -350 544.3 Z" fill="#E9FFF9" stroke="black" stroke-width="1"></path><path d="M -350 659.8 L -300 573.2 L -400 573.2 Z" fill="#1D3354" stroke="black" stroke-width="1"></path><path d="M -200 630.9 L -100 630.9 L -150 544.3 Z" fill="#E9FFF9" stroke="black" stroke-width="1"></path><path d="M -150 659.8 L -100 573.2 L -200 573.2 Z" fill="#1D3354" stroke="black" stroke-width="1"></path><path d="M 0 630.9 L 100 630.9 L 50 544.3 Z" fill="#E9FFF9" stroke="black" stroke-width="1"></path><path d="M 50 659.8 L 100 573.2 L 0 573.2 Z" fill="#1D3354" stroke="black" stroke-width="1"></path><path d="M 200 630.9 L 300 630.9 L 250 544.3 Z" fill="#E9FFF9" stroke="black" stroke-width="1"></path><path d="M 250 659.8 L 300 573.2 L 200 573.2 Z" fill="#1D3354" stroke="black" stroke-width="1"></path><path d="M 400 630.9 L 500 630.9 L 450 544.3 Z" fill="#E9FFF9" stroke="black" stroke-width="1"></path><path d="M 450 659.8 L 500 573.2 L 400 573.2 Z" fill="#1D3354" stroke="black" stroke-width="1"></path><path d="M 600 630.9 L 700 630.9 L 650 544.3 Z" fill="#E9FFF9" stroke="black" stroke-width="1"></path><path d="M 650 659.8 L 700 573.2 L 600 573.2 Z" fill="#1D3354" stroke="black" stroke-width="1"></path><path d="M 800 630.9 L 900 630.9 L 850 544.3 Z" fill="#E9FFF9" stroke="black" stroke-width="1"></path><path d="M 850 659.8 L 900 573.2 L 800 573.2 Z" fill="#1D3354" stroke="black" stroke-width="1"></path><path d="M 1000 630.9 L 1100 630.9 L 1050 544.3 Z" fill="#E9FFF9" stroke="black" stroke-width="1"></path><path d="M 1050 659.8 L 1100 573.2 L 1000 573.2 Z" fill="#1D3354" stroke="black" stroke-width="1"></path><path d="M 1200 630.9 L 1300 630.9 L 1250 544.3 Z" fill="#E9FFF9" stroke="black" stroke-width="1"></path><path d="M 1250 659.8 L 1300 573.2 L 1200 573.2 Z" fill="#1D3354" stroke="black" stroke-width="1"></path><path d="M 1400 630.9 L 1500 630.9 L 1450 544.3 Z" fill="#E9FFF9" stroke="black" stroke-width="1"></path><path d="M 1450 659.8 L 1500 573.2 L 1400 573.2 Z" fill="#1D3354" stroke="black" stroke-width="1"></path><path d="M 1600 630.9 L 1700 630.9 L 1650 544.3 Z" fill="#E9FFF9" stroke="black" stroke-width="1"></path><path d="M 1650 659.8 L 1700 573.2 L 1600 573.2 Z" fill="#1D3354" stroke="black" stroke-width="1"></path><path d="M 1800 630.9 L 1900 630.9 L 1850 544.3 Z" fill="#E9FFF9" stroke="black" stroke-width="1"></path><path d="M 1850 659.8 L 1900 573.2 L 1800 573.2 Z" fill="#1D3354" stroke="black" stroke-width="1"></path><path d="M 2000 630.9 L 2100 630.9 L 2050 544.3 Z" fill="#E9FFF9" stroke="black" stroke-width="1"></path><path d="M 2050 659.8 L 2100 573.2 L 2000 573.2 Z" fill="#1D3354" stroke="black" stroke-width="1"></path><path d="M -500 573.2 L -400 573.2 L -450 486.6 Z" fill="#E9FFF9" stroke="black" stroke-width="1"></path><path d="M -450 602.1 L -400 515.5 L -500 515.5 Z" fill="#1D3354" stroke="black" stroke-width="1"></path><path d="M -300 573.2 L -200 573.2 L -250 486.6 Z" fill="#E9FFF9" stroke="black" stroke-width="1"></path><path d="M -250 602.1 L -200 515.5 L -300 515.5 Z" fill="#1D3354" stroke="black" stroke-width="1"></path><path d="M -100 573.2 L 0 573.2 L -50 486.6 Z" fill="#E9FFF9" stroke="black" stroke-width="1"></path><path d="M -50 602.1 L 0 515.5 L -100 515.5 Z" fill="#1D3354" stroke="black" stroke-width="1"></path><path d="M 100 573.2 L 200 573.2 L 150 486.6 Z" fill="#E9FFF9" stroke="black" stroke-width="1"></path><path d="M 150 602.1 L 200 515.5 L 100 515.5 Z" fill="#1D3354" stroke="black" stroke-width="1"></path><path d="M 300 573.2 L 400 573.2 L 350 486.6 Z" fill="#E9FFF9" stroke="black" stroke-width="1"></path><path d="M 350 602.1 L 400 515.5 L 300 515.5 Z" fill="#1D3354" stroke="black" stroke-width="1"></path><path d="M 500 573.2 L 600 573.2 L 550 486.6 Z" fill="#E9FFF9" stroke="black" stroke-width="1"></path><path d="M 550 602.1 L 600 515.5 L 500 515.5 Z" fill="#1D3354" stroke="black" stroke-width="1"></path><path d="M 700 573.2 L 800 573.2 L 750 486.6 Z" fill="#E9FFF9" stroke="black" stroke-width="1"></path><path d="M 750 602.1 L 800 515.5 L 700 515.5 Z" fill="#1D3354" stroke="black" stroke-width="1"></path><path d="M 900 573.2 L 1000 573.2 L 950 486.6 Z" fill="#E9FFF9" stroke="black" stroke-width="1"></path><path d="M 950 602.1 L 1000 515.5 L 900 515.5 Z" fill="#1D3354" stroke="black" stroke-width="1"></path><path d="M 1100 573.2 L 1200 573.2 L 1150 486.6 Z" fill="#E9FFF9" stroke="black" stroke-width="1"></path><path d="M 1150 602.1 L 1200 515.5 L 1100 515.5 Z" fill="#1D3354" stroke="black" stroke-width="1"></path><path d="M 1300 573.2 L 1400 573.2 L 1350 486.6 Z" fill="#E9FFF9" stroke="black" stroke-width="1"></path><path d="M 1350 602.1 L 1400 515.5 L 1300 515.5 Z" fill="#1D3354" stroke="black" stroke-width="1"></path><path d="M 1500 573.2 L 1600 573.2 L 1550 486.6 Z" fill="#E9FFF9" stroke="black" stroke-width="1"></path><path d="M 1550 602.1 L 1600 515.5 L 1500 515.5 Z" fill="#1D3354" stroke="black" stroke-width="1"></path><path d="M 1700 573.2 L 1800 573.2 L 1750 486.6 Z" fill="#E9FFF9" stroke="black" stroke-width="1"></path><path d="M 1750 602.1 L 1800 515.5 L 1700 515.5 Z" fill="#1D3354" stroke="black" stroke-width="1"></path><path d="M 1900 573.2 L 2000 573.2 L 1950 486.6 Z" fill="#E9FFF9" stroke="black" stroke-width="1"></path><path d="M 1950 602.1 L 2000 515.5 L 1900 515.5 Z" fill="#1D3354" stroke="black" stroke-width="1"></path><path d="M -600 515.5 L -500 515.5 L -550 428.9 Z" fill="#E9FFF9" stroke="black" stroke-width="1"></path><path d="M -550 544.3 L -500 457.7 L -600 457.7 Z" fill="#1D3354" stroke="black" stroke-width="1"></path><path d="M -400 515.5 L -300 515.5 L -350 428.9 Z" fill="#E9FFF9" stroke="black" stroke-width="1"></path><path d="M -350 544.3 L -300 457.7 L -400 457.7 Z" fill="#1D3354" stroke="black" stroke-width="1"></path><path d="M -200 515.5 L -100 515.5 L -150 428.9 Z" fill="#E9FFF9" stroke="black" stroke-width="1"></path><path d="M -150 544.3 L -100 457.7 L -200 457.7 Z" fill="#1D3354" stroke="black" stroke-width="1"></path><path d="M 0 515.5 L 100 515.5 L 50 428.9 Z" fill="#E9FFF9" stroke="black" stroke-width="1"></path><path d="M 50 544.3 L 100 457.7 L 0 457.7 Z" fill="#1D3354" stroke="black" stroke-width="1"></path><path d="M 200 515.5 L 300 515.5 L 250 428.9 Z" fill="#E9FFF9" stroke="black" stroke-width="1"></path><path d="M 250 544.3 L 300 457.7 L 200 457.7 Z" fill="#1D3354" stroke="black" stroke-width="1"></path><path d="M 400 515.5 L 500 515.5 L 450 428.9 Z" fill="#E9FFF9" stroke="black" stroke-width="1"></path><path d="M 450 544.3 L 500 457.7 L 400 457.7 Z" fill="#1D3354" stroke="black" stroke-width="1"></path><path d="M 600 515.5 L 700 515.5 L 650 428.9 Z" fill="#E9FFF9" stroke="black" stroke-width="1"></path><path d="M 650 544.3 L 700 457.7 L 600 457.7 Z" fill="#1D3354" stroke="black" stroke-width="1"></path><path d="M 800 515.5 L 900 515.5 L 850 428.9 Z" fill="#E9FFF9" stroke="black" stroke-width="1"></path><path d="M 850 544.3 L 900 457.7 L 800 457.7 Z" fill="#1D3354" stroke="black" stroke-width="1"></path><path d="M 1000 515.5 L 1100 515.5 L 1050 428.9 Z" fill="#E9FFF9" stroke="black" stroke-width="1"></path><path d="M 1050 544.3 L 1100 457.7 L 1000 457.7 Z" fill="#1D3354" stroke="black" stroke-width="1"></path><path d="M 1200 515.5 L 1300 515.5 L 1250 428.9 Z" fill="#E9FFF9" stroke="black" stroke-width="1"></path><path d="M 1250 544.3 L 1300 457.7 L 1200 457.7 Z" fill="#1D3354" stroke="black" stroke-width="1"></path><path d="M 1400 515.5 L 1500 515.5 L 1450 428.9 Z" fill="#E9FFF9" stroke="black" stroke-width="1"></path><path d="M 1450 544.3 L 1500 457.7 L 1400 457.7 Z" fill="#1D3354" stroke="black" stroke-width="1"></path><path d="M 1600 515.5 L 1700 515.5 L 1650 428.9 Z" fill="#E9FFF9" stroke="black" stroke-width="1"></path><path d="M 1650 544.3 L 1700 457.7 L 1600 457.7 Z" fill="#1D3354" stroke="black" stroke-width="1"></path><path d="M 1800 515.5 L 1900 515.5 L 1850 428.9 Z" fill="#E9FFF9" stroke="black" stroke-width="1"></path><path d="M 1850 544.3 L 1900 457.7 L 1800 457.7 Z" fill="#1D3354" stroke="black" stroke-width="1"></path><path d="M -700 457.7 L -600 457.7 L -650 371.1 Z" fill="#E9FFF9" stroke="black" stroke-width="1"></path><path d="M -650 486.6 L -600 400 L -700 400 Z" fill="#1D3354" stroke="black" stroke-width="1"></path><path d="M -500 457.7 L -400 457.7 L -450 371.1 Z" fill="#E9FFF9" stroke="black" stroke-width="1"></path><path d="M -450 486.6 L -400 400 L -500 400 Z" fill="#1D3354" stroke="black" stroke-width="1"></path><path d="M -300 457.7 L -200 457.7 L -250 371.1 Z" fill="#E9FFF9" stroke="black" stroke-width="1"></path><path d="M -250 486.6 L -200 400 L -300 400 Z" fill="#1D3354" stroke="black" stroke-width="1"></path><path d="M -100 457.7 L 0 457.7 L -50 371.1 Z" fill="#E9FFF9" stroke="black" stroke-width="1"></path><path d="M -50 486.6 L 0 400 L -100 400 Z" fill="#1D3354" stroke="black" stroke-width="1"></path><path d="M 100 457.7 L 200 457.7 L 150 371.1 Z" fill="#E9FFF9" stroke="black" stroke-width="1"></path><path d="M 150 486.6 L 200 400 L 100 400 Z" fill="#1D3354" stroke="black" stroke-width="1"></path><path d="M 300 457.7 L 400 457.7 L 350 371.1 Z" fill="#E9FFF9" stroke="black" stroke-width="1"></path><path d="M 350 486.6 L 400 400 L 300 400 Z" fill="#1D3354" stroke="black" stroke-width="1"></path><path d="M 500 457.7 L 600 457.7 L 550 371.1 Z" fill="#E9FFF9" stroke="black" stroke-width="1"></path><path d="M 550 486.6 L 600 400 L 500 400 Z" fill="#1D3354" stroke="black" stroke-width="1"></path><path d="M 700 457.7 L 800 457.7 L 750 371.1 Z" fill="#E9FFF9" stroke="black" stroke-width="1"></path><path d="M 750 486.6 L 800 400 L 700 400 Z" fill="#1D3354" stroke="black" stroke-width="1"></path><path d="M 900 457.7 L 1000 457.7 L 950 371.1 Z" fill="#E9FFF9" stroke="black" stroke-width="1"></path><path d="M 950 486.6 L 1000 400 L 900 400 Z" fill="#1D3354" stroke="black" stroke-width="1"></path><path d="M 1100 457.7 L 1200 457.7 L 1150 371.1 Z" fill="#E9FFF9" stroke="black" stroke-width="1"></path><path d="M 1150 486.6 L 1200 400 L 1100 400 Z" fill="#1D3354" stroke="black" stroke-width="1"></path><path d="M 1300 457.7 L 1400 457.7 L 1350 371.1 Z" fill="#E9FFF9" stroke="black" stroke-width="1"></path><path d="M 1350 486.6 L 1400 400 L 1300 400 Z" fill="#1D3354" stroke="black" stroke-width="1"></path><path d="M 1500 457.7 L 1600 457.7 L 1550 371.1 Z" fill="#E9FFF9" stroke="black" stroke-width="1"></path><path d="M 1550 486.6 L 1600 400 L 1500 400 Z" fill="#1D3354" stroke="black" stroke-width="1"></path><path d="M 1700 457.7 L 1800 457.7 L 1750 371.1 Z" fill="#E9FFF9" stroke="black" stroke-width="1"></path><path d="M 1750 486.6 L 1800 400 L 1700 400 Z" fill="#1D3354" stroke="black" stroke-width="1"></path><path d="M -800 400 L -700 400 L -750 313.4 Z" fill="#E9FFF9" stroke="black" stroke-width="1"></path><path d="M -750 428.9 L -700 342.3 L -800 342.3 Z" fill="#1D3354" stroke="black" stroke-width="1"></path><path d="M -600 400 L -500 400 L -550 313.4 Z" fill="#E9FFF9" stroke="black" stroke-width="1"></path><path d="M -550 428.9 L -500 342.3 L -600 342.3 Z" fill="#1D3354" stroke="black" stroke-width="1"></path><path d="M -400 400 L -300 400 L -350 313.4 Z" fill="#E9FFF9" stroke="black" stroke-width="1"></path><path d="M -350 428.9 L -300 342.3 L -400 342.3 Z" fill="#1D3354" stroke="black" stroke-width="1"></path><path d="M -200 400 L -100 400 L -150 313.4 Z" fill="#E9FFF9" stroke="black" stroke-width="1"></path><path d="M -150 428.9 L -100 342.3 L -200 342.3 Z" fill="#1D3354" stroke="black" stroke-width="1"></path><path d="M 0 400 L 100 400 L 50 313.4 Z" fill="#E9FFF9" stroke="black" stroke-width="1"></path><path d="M 50 428.9 L 100 342.3 L 0 342.3 Z" fill="#1D3354" stroke="black" stroke-width="1"></path><path d="M 200 400 L 300 400 L 250 313.4 Z" fill="#E9FFF9" stroke="black" stroke-width="1"></path><path d="M 250 428.9 L 300 342.3 L 200 342.3 Z" fill="#1D3354" stroke="black" stroke-width="1"></path><path d="M 400 400 L 500 400 L 450 313.4 Z" fill="#E9FFF9" stroke="black" stroke-width="1"></path><path d="M 450 428.9 L 500 342.3 L 400 342.3 Z" fill="#1D3354" stroke="black" stroke-width="1"></path><path d="M 600 400 L 700 400 L 650 313.4 Z" fill="#E9FFF9" stroke="black" stroke-width="1"></path><path d="M 650 428.9 L 700 342.3 L 600 342.3 Z" fill="#1D3354" stroke="black" stroke-width="1"></path><path d="M 800 400 L 900 400 L 850 313.4 Z" fill="#E9FFF9" stroke="black" stroke-width="1"></path><path d="M 850 428.9 L 900 342.3 L 800 342.3 Z" fill="#1D3354" stroke="black" stroke-width="1"></path><path d="M 1000 400 L 1100 400 L 1050 313.4 Z" fill="#E9FFF9" stroke="black" stroke-width="1"></path><path d="M 1050 428.9 L 1100 342.3 L 1000 342.3 Z" fill="#1D3354" stroke="black" stroke-width="1"></path><path d="M 1200 400 L 1300 400 L 1250 313.4 Z" fill="#E9FFF9" stroke="black" stroke-width="1"></path><path d="M 1250 428.9 L 1300 342.3 L 1200 342.3 Z" fill="#1D3354" stroke="black" stroke-width="1"></path><path d="M 1400 400 L 1500 400 L 1450 313.4 Z" fill="#E9FFF9" stroke="black" stroke-width="1"></path><path d="M 1450 428.9 L 1500 342.3 L 1400 342.3 Z" fill="#1D3354" stroke="black" stroke-width="1"></path><path d="M 1600 400 L 1700 400 L 1650 313.4 Z" fill="#E9FFF9" stroke="black" stroke-width="1"></path><path d="M 1650 428.9 L 1700 342.3 L 1600 342.3 Z" fill="#1D3354" stroke="black" stroke-width="1"></path><path d="M -900 342.3 L -800 342.3 L -850 255.7 Z" fill="#E9FFF9" stroke="black" stroke-width="1"></path><path d="M -850 371.1 L -800 284.5 L -900 284.5 Z" fill="#1D3354" stroke="black" stroke-width="1"></path><path d="M -700 342.3 L -600 342.3 L -650 255.7 Z" fill="#E9FFF9" stroke="black" stroke-width="1"></path><path d="M -650 371.1 L -600 284.5 L -700 284.5 Z" fill="#1D3354" stroke="black" stroke-width="1"></path><path d="M -500 342.3 L -400 342.3 L -450 255.7 Z" fill="#E9FFF9" stroke="black" stroke-width="1"></path><path d="M -450 371.1 L -400 284.5 L -500 284.5 Z" fill="#1D3354" stroke="black" stroke-width="1"></path><path d="M -300 342.3 L -200 342.3 L -250 255.7 Z" fill="#E9FFF9" stroke="black" stroke-width="1"></path><path d="M -250 371.1 L -200 284.5 L -300 284.5 Z" fill="#1D3354" stroke="black" stroke-width="1"></path><path d="M -100 342.3 L 0 342.3 L -50 255.7 Z" fill="#E9FFF9" stroke="black" stroke-width="1"></path><path d="M -50 371.1 L 0 284.5 L -100 284.5 Z" fill="#1D3354" stroke="black" stroke-width="1"></path><path d="M 100 342.3 L 200 342.3 L 150 255.7 Z" fill="#E9FFF9" stroke="black" stroke-width="1"></path><path d="M 150 371.1 L 200 284.5 L 100 284.5 Z" fill="#1D3354" stroke="black" stroke-width="1"></path><path d="M 300 342.3 L 400 342.3 L 350 255.7 Z" fill="#E9FFF9" stroke="black" stroke-width="1"></path><path d="M 350 371.1 L 400 284.5 L 300 284.5 Z" fill="#1D3354" stroke="black" stroke-width="1"></path><path d="M 500 342.3 L 600 342.3 L 550 255.7 Z" fill="#E9FFF9" stroke="black" stroke-width="1"></path><path d="M 550 371.1 L 600 284.5 L 500 284.5 Z" fill="#1D3354" stroke="black" stroke-width="1"></path><path d="M 700 342.3 L 800 342.3 L 750 255.7 Z" fill="#E9FFF9" stroke="black" stroke-width="1"></path><path d="M 750 371.1 L 800 284.5 L 700 284.5 Z" fill="#1D3354" stroke="black" stroke-width="1"></path><path d="M 900 342.3 L 1000 342.3 L 950 255.7 Z" fill="#E9FFF9" stroke="black" stroke-width="1"></path><path d="M 950 371.1 L 1000 284.5 L 900 284.5 Z" fill="#1D3354" stroke="black" stroke-width="1"></path><path d="M 1100 342.3 L 1200 342.3 L 1150 255.7 Z" fill="#E9FFF9" stroke="black" stroke-width="1"></path><path d="M 1150 371.1 L 1200 284.5 L 1100 284.5 Z" fill="#1D3354" stroke="black" stroke-width="1"></path><path d="M 1300 342.3 L 1400 342.3 L 1350 255.7 Z" fill="#E9FFF9" stroke="black" stroke-width="1"></path><path d="M 1350 371.1 L 1400 284.5 L 1300 284.5 Z" fill="#1D3354" stroke="black" stroke-width="1"></path><path d="M 1500 342.3 L 1600 342.3 L 1550 255.7 Z" fill="#E9FFF9" stroke="black" stroke-width="1"></path><path d="M 1550 371.1 L 1600 284.5 L 1500 284.5 Z" fill="#1D3354" stroke="black" stroke-width="1"></path><path d="M -1000 284.5 L -900 284.5 L -950 197.9 Z" fill="#E9FFF9" stroke="black" stroke-width="1"></path><path d="M -950 313.4 L -900 226.8 L -1000 226.8 Z" fill="#1D3354" stroke="black" stroke-width="1"></path><path d="M -800 284.5 L -700 284.5 L -750 197.9 Z" fill="#E9FFF9" stroke="black" stroke-width="1"></path><path d="M -750 313.4 L -700 226.8 L -800 226.8 Z" fill="#1D3354" stroke="black" stroke-width="1"></path><path d="M -600 284.5 L -500 284.5 L -550 197.9 Z" fill="#E9FFF9" stroke="black" stroke-width="1"></path><path d="M -550 313.4 L -500 226.8 L -600 226.8 Z" fill="#1D3354" stroke="black" stroke-width="1"></path><path d="M -400 284.5 L -300 284.5 L -350 197.9 Z" fill="#E9FFF9" stroke="black" stroke-width="1"></path><path d="M -350 313.4 L -300 226.8 L -400 226.8 Z" fill="#1D3354" stroke="black" stroke-width="1"></path><path d="M -200 284.5 L -100 284.5 L -150 197.9 Z" fill="#E9FFF9" stroke="black" stroke-width="1"></path><path d="M -150 313.4 L -100 226.8 L -200 226.8 Z" fill="#1D3354" stroke="black" stroke-width="1"></path><path d="M 0 284.5 L 100 284.5 L 50 197.9 Z" fill="#E9FFF9" stroke="black" stroke-width="1"></path><path d="M 50 313.4 L 100 226.8 L 0 226.8 Z" fill="#1D3354" stroke="black" stroke-width="1"></path><path d="M 200 284.5 L 300 284.5 L 250 197.9 Z" fill="#E9FFF9" stroke="black" stroke-width="1"></path><path d="M 250 313.4 L 300 226.8 L 200 226.8 Z" fill="#1D3354" stroke="black" stroke-width="1"></path><path d="M 400 284.5 L 500 284.5 L 450 197.9 Z" fill="#E9FFF9" stroke="black" stroke-width="1"></path><path d="M 450 313.4 L 500 226.8 L 400 226.8 Z" fill="#1D3354" stroke="black" stroke-width="1"></path><path d="M 600 284.5 L 700 284.5 L 650 197.9 Z" fill="#E9FFF9" stroke="black" stroke-width="1"></path><path d="M 650 313.4 L 700 226.8 L 600 226.8 Z" fill="#1D3354" stroke="black" stroke-width="1"></path><path d="M 800 284.5 L 900 284.5 L 850 197.9 Z" fill="#E9FFF9" stroke="black" stroke-width="1"></path><path d="M 850 313.4 L 900 226.8 L 800 226.8 Z" fill="#1D3354" stroke="black" stroke-width="1"></path><path d="M 1000 284.5 L 1100 284.5 L 1050 197.9 Z" fill="#E9FFF9" stroke="black" stroke-width="1"></path><path d="M 1050 313.4 L 1100 226.8 L 1000 226.8 Z" fill="#1D3354" stroke="black" stroke-width="1"></path><path d="M 1200 284.5 L 1300 284.5 L 1250 197.9 Z" fill="#E9FFF9" stroke="black" stroke-width="1"></path><path d="M 1250 313.4 L 1300 226.8 L 1200 226.8 Z" fill="#1D3354" stroke="black" stroke-width="1"></path><path d="M 1400 284.5 L 1500 284.5 L 1450 197.9 Z" fill="#E9FFF9" stroke="black" stroke-width="1"></path><path d="M 1450 313.4 L 1500 226.8 L 1400 226.8 Z" fill="#1D3354" stroke="black" stroke-width="1"></path><path d="M -1100 226.8 L -1000 226.8 L -1050 140.2 Z" fill="#E9FFF9" stroke="black" stroke-width="1"></path><path d="M -1050 255.7 L -1000 169.1 L -1100 169.1 Z" fill="#1D3354" stroke="black" stroke-width="1"></path><path d="M -900 226.8 L -800 226.8 L -850 140.2 Z" fill="#E9FFF9" stroke="black" stroke-width="1"></path><path d="M -850 255.7 L -800 169.1 L -900 169.1 Z" fill="#1D3354" stroke="black" stroke-width="1"></path><path d="M -700 226.8 L -600 226.8 L -650 140.2 Z" fill="#E9FFF9" stroke="black" stroke-width="1"></path><path d="M -650 255.7 L -600 169.1 L -700 169.1 Z" fill="#1D3354" stroke="black" stroke-width="1"></path><path d="M -500 226.8 L -400 226.8 L -450 140.2 Z" fill="#E9FFF9" stroke="black" stroke-width="1"></path><path d="M -450 255.7 L -400 169.1 L -500 169.1 Z" fill="#1D3354" stroke="black" stroke-width="1"></path><path d="M -300 226.8 L -200 226.8 L -250 140.2 Z" fill="#E9FFF9" stroke="black" stroke-width="1"></path><path d="M -250 255.7 L -200 169.1 L -300 169.1 Z" fill="#1D3354" stroke="black" stroke-width="1"></path><path d="M -100 226.8 L 0 226.8 L -50 140.2 Z" fill="#E9FFF9" stroke="black" stroke-width="1"></path><path d="M -50 255.7 L 0 169.1 L -100 169.1 Z" fill="#1D3354" stroke="black" stroke-width="1"></path><path d="M 100 226.8 L 200 226.8 L 150 140.2 Z" fill="#E9FFF9" stroke="black" stroke-width="1"></path><path d="M 150 255.7 L 200 169.1 L 100 169.1 Z" fill="#1D3354" stroke="black" stroke-width="1"></path><path d="M 300 226.8 L 400 226.8 L 350 140.2 Z" fill="#E9FFF9" stroke="black" stroke-width="1"></path><path d="M 350 255.7 L 400 169.1 L 300 169.1 Z" fill="#1D3354" stroke="black" stroke-width="1"></path><path d="M 500 226.8 L 600 226.8 L 550 140.2 Z" fill="#E9FFF9" stroke="black" stroke-width="1"></path><path d="M 550 255.7 L 600 169.1 L 500 169.1 Z" fill="#1D3354" stroke="black" stroke-width="1"></path><path d="M 700 226.8 L 800 226.8 L 750 140.2 Z" fill="#E9FFF9" stroke="black" stroke-width="1"></path><path d="M 750 255.7 L 800 169.1 L 700 169.1 Z" fill="#1D3354" stroke="black" stroke-width="1"></path><path d="M 900 226.8 L 1000 226.8 L 950 140.2 Z" fill="#E9FFF9" stroke="black" stroke-width="1"></path><path d="M 950 255.7 L 1000 169.1 L 900 169.1 Z" fill="#1D3354" stroke="black" stroke-width="1"></path><path d="M 1100 226.8 L 1200 226.8 L 1150 140.2 Z" fill="#E9FFF9" stroke="black" stroke-width="1"></path><path d="M 1150 255.7 L 1200 169.1 L 1100 169.1 Z" fill="#1D3354" stroke="black" stroke-width="1"></path><path d="M 1300 226.8 L 1400 226.8 L 1350 140.2 Z" fill="#E9FFF9" stroke="black" stroke-width="1"></path><path d="M 1350 255.7 L 1400 169.1 L 1300 169.1 Z" fill="#1D3354" stroke="black" stroke-width="1"></path><path d="M -1200 169.1 L -1100 169.1 L -1150 82.5 Z" fill="#E9FFF9" stroke="black" stroke-width="1"></path><path d="M -1150 197.9 L -1100 111.3 L -1200 111.3 Z" fill="#1D3354" stroke="black" stroke-width="1"></path><path d="M -1000 169.1 L -900 169.1 L -950 82.5 Z" fill="#E9FFF9" stroke="black" stroke-width="1"></path><path d="M -950 197.9 L -900 111.3 L -1000 111.3 Z" fill="#1D3354" stroke="black" stroke-width="1"></path><path d="M -800 169.1 L -700 169.1 L -750 82.5 Z" fill="#E9FFF9" stroke="black" stroke-width="1"></path><path d="M -750 197.9 L -700 111.3 L -800 111.3 Z" fill="#1D3354" stroke="black" stroke-width="1"></path><path d="M -600 169.1 L -500 169.1 L -550 82.5 Z" fill="#E9FFF9" stroke="black" stroke-width="1"></path><path d="M -550 197.9 L -500 111.3 L -600 111.3 Z" fill="#1D3354" stroke="black" stroke-width="1"></path><path d="M -400 169.1 L -300 169.1 L -350 82.5 Z" fill="#E9FFF9" stroke="black" stroke-width="1"></path><path d="M -350 197.9 L -300 111.3 L -400 111.3 Z" fill="#1D3354" stroke="black" stroke-width="1"></path><path d="M -200 169.1 L -100 169.1 L -150 82.5 Z" fill="#E9FFF9" stroke="black" stroke-width="1"></path><path d="M -150 197.9 L -100 111.3 L -200 111.3 Z" fill="#1D3354" stroke="black" stroke-width="1"></path><path d="M 0 169.1 L 100 169.1 L 50 82.5 Z" fill="#E9FFF9" stroke="black" stroke-width="1"></path><path d="M 50 197.9 L 100 111.3 L 0 111.3 Z" fill="#1D3354" stroke="black" stroke-width="1"></path><path d="M 200 169.1 L 300 169.1 L 250 82.5 Z" fill="#E9FFF9" stroke="black" stroke-width="1"></path><path d="M 250 197.9 L 300 111.3 L 200 111.3 Z" fill="#1D3354" stroke="black" stroke-width="1"></path><path d="M 400 169.1 L 500 169.1 L 450 82.5 Z" fill="#E9FFF9" stroke="black" stroke-width="1"></path><path d="M 450 197.9 L 500 111.3 L 400 111.3 Z" fill="#1D3354" stroke="black" stroke-width="1"></path><path d="M 600 169.1 L 700 169.1 L 650 82.5 Z" fill="#E9FFF9" stroke="black" stroke-width="1"></path><path d="M 650 197.9 L 700 111.3 L 600 111.3 Z" fill="#1D3354" stroke="black" stroke-width="1"></path><path d="M 800 169.1 L 900 169.1 L 850 82.5 Z" fill="#E9FFF9" stroke="black" stroke-width="1"></path><path d="M 850 197.9 L 900 111.3 L 800 111.3 Z" fill="#1D3354" stroke="black" stroke-width="1"></path><path d="M 1000 169.1 L 1100 169.1 L 1050 82.5 Z" fill="#E9FFF9" stroke="black" stroke-width="1"></path><path d="M 1050 197.9 L 1100 111.3 L 1000 111.3 Z" fill="#1D3354" stroke="black" stroke-width="1"></path><path d="M 1200 169.1 L 1300 169.1 L 1250 82.5 Z" fill="#E9FFF9" stroke="black" stroke-width="1"></path><path d="M 1250 197.9 L 1300 111.3 L 1200 111.3 Z" fill="#1D3354" stroke="black" stroke-width="1"></path><path d="M -1300 111.3 L -1200 111.3 L -1250 24.7 Z" fill="#E9FFF9" stroke="black" stroke-width="1"></path><path d="M -1250 140.2 L -1200 53.6 L -1300 53.6 Z" fill="#1D3354" stroke="black" stroke-width="1"></path><path d="M -1100 111.3 L -1000 111.3 L -1050 24.7 Z" fill="#E9FFF9" stroke="black" stroke-width="1"></path><path d="M -1050 140.2 L -1000 53.6 L -1100 53.6 Z" fill="#1D3354" stroke="black" stroke-width="1"></path><path d="M -900 111.3 L -800 111.3 L -850 24.7 Z" fill="#E9FFF9" stroke="black" stroke-width="1"></path><path d="M -850 140.2 L -800 53.6 L -900 53.6 Z" fill="#1D3354" stroke="black" stroke-width="1"></path><path d="M -700 111.3 L -600 111.3 L -650 24.7 Z" fill="#E9FFF9" stroke="black" stroke-width="1"></path><path d="M -650 140.2 L -600 53.6 L -700 53.6 Z" fill="#1D3354" stroke="black" stroke-width="1"></path><path d="M -500 111.3 L -400 111.3 L -450 24.7 Z" fill="#E9FFF9" stroke="black" stroke-width="1"></path><path d="M -450 140.2 L -400 53.6 L -500 53.6 Z" fill="#1D3354" stroke="black" stroke-width="1"></path><path d="M -300 111.3 L -200 111.3 L -250 24.7 Z" fill="#E9FFF9" stroke="black" stroke-width="1"></path><path d="M -250 140.2 L -200 53.6 L -300 53.6 Z" fill="#1D3354" stroke="black" stroke-width="1"></path><path d="M -100 111.3 L 0 111.3 L -50 24.7 Z" fill="#E9FFF9" stroke="black" stroke-width="1"></path><path d="M -50 140.2 L 0 53.6 L -100 53.6 Z" fill="#1D3354" stroke="black" stroke-width="1"></path><path d="M 100 111.3 L 200 111.3 L 150 24.7 Z" fill="#E9FFF9" stroke="black" stroke-width="1"></path><path d="M 150 140.2 L 200 53.6 L 100 53.6 Z" fill="#1D3354" stroke="black" stroke-width="1"></path><path d="M 300 111.3 L 400 111.3 L 350 24.7 Z" fill="#E9FFF9" stroke="black" stroke-width="1"></path><path d="M 350 140.2 L 400 53.6 L 300 53.6 Z" fill="#1D3354" stroke="black" stroke-width="1"></path><path d="M 500 111.3 L 600 111.3 L 550 24.7 Z" fill="#E9FFF9" stroke="black" stroke-width="1"></path><path d="M 550 140.2 L 600 53.6 L 500 53.6 Z" fill="#1D3354" stroke="black" stroke-width="1"></path><path d="M 700 111.3 L 800 111.3 L 750 24.7 Z" fill="#E9FFF9" stroke="black" stroke-width="1"></path><path d="M 750 140.2 L 800 53.6 L 700 53.6 Z" fill="#1D3354" stroke="black" stroke-width="1"></path><path d="M 900 111.3 L 1000 111.3 L 950 24.7 Z" fill="#E9FFF9" stroke="black" stroke-width="1"></path><path d="M 950 140.2 L 1000 53.6 L 900 53.6 Z" fill="#1D3354" stroke="black" stroke-width="1"></path><path d="M 1100 111.3 L 1200 111.3 L 1150 24.7 Z" fill="#E9FFF9" stroke="black" stroke-width="1"></path><path d="M 1150 140.2 L 1200 53.6 L 1100 53.6 Z" fill="#1D3354" stroke="black" stroke-width="1"></path><path d="M -1400 53.6 L -1300 53.6 L -1350 -33 Z" fill="#E9FFF9" stroke="black" stroke-width="1"></path><path d="M -1350 82.5 L -1300 -4.1 L -1400 -4.1 Z" fill="#1D3354" stroke="black" stroke-width="1"></path><path d="M -1200 53.6 L -1100 53.6 L -1150 -33 Z" fill="#E9FFF9" stroke="black" stroke-width="1"></path><path d="M -1150 82.5 L -1100 -4.1 L -1200 -4.1 Z" fill="#1D3354" stroke="black" stroke-width="1"></path><path d="M -1000 53.6 L -900 53.6 L -950 -33 Z" fill="#E9FFF9" stroke="black" stroke-width="1"></path><path d="M -950 82.5 L -900 -4.1 L -1000 -4.1 Z" fill="#1D3354" stroke="black" stroke-width="1"></path><path d="M -800 53.6 L -700 53.6 L -750 -33 Z" fill="#E9FFF9" stroke="black" stroke-width="1"></path><path d="M -750 82.5 L -700 -4.1 L -800 -4.1 Z" fill="#1D3354" stroke="black" stroke-width="1"></path><path d="M -600 53.6 L -500 53.6 L -550 -33 Z" fill="#E9FFF9" stroke="black" stroke-width="1"></path><path d="M -550 82.5 L -500 -4.1 L -600 -4.1 Z" fill="#1D3354" stroke="black" stroke-width="1"></path><path d="M -400 53.6 L -300 53.6 L -350 -33 Z" fill="#E9FFF9" stroke="black" stroke-width="1"></path><path d="M -350 82.5 L -300 -4.1 L -400 -4.1 Z" fill="#1D3354" stroke="black" stroke-width="1"></path><path d="M -200 53.6 L -100 53.6 L -150 -33 Z" fill="#E9FFF9" stroke="black" stroke-width="1"></path><path d="M -150 82.5 L -100 -4.1 L -200 -4.1 Z" fill="#1D3354" stroke="black" stroke-width="1"></path><path d="M 0 53.6 L 100 53.6 L 50 -33 Z" fill="#E9FFF9" stroke="black" stroke-width="1"></path><path d="M 50 82.5 L 100 -4.1 L 0 -4.1 Z" fill="#1D3354" stroke="black" stroke-width="1"></path><path d="M 200 53.6 L 300 53.6 L 250 -33 Z" fill="#E9FFF9" stroke="black" stroke-width="1"></path><path d="M 250 82.5 L 300 -4.1 L 200 -4.1 Z" fill="#1D3354" stroke="black" stroke-width="1"></path><path d="M 400 53.6 L 500 53.6 L 450 -33 Z" fill="#E9FFF9" stroke="black" stroke-width="1"></path><path d="M 450 82.5 L 500 -4.1 L 400 -4.1 Z" fill="#1D3354" stroke="black" stroke-width="1"></path><path d="M 600 53.6 L 700 53.6 L 650 -33 Z" fill="#E9FFF9" stroke="black" stroke-width="1"></path><path d="M 650 82.5 L 700 -4.1 L 600 -4.1 Z" fill="#1D3354" stroke="black" stroke-width="1"></path><path d="M 800 53.6 L 900 53.6 L 850 -33 Z" fill="#E9FFF9" stroke="black" stroke-width="1"></path><path d="M 850 82.5 L 900 -4.1 L 800 -4.1 Z" fill="#1D3354" stroke="black" stroke-width="1"></path><path d="M 1000 53.6 L 1100 53.6 L 1050 -33 Z" fill="#E9FFF9" stroke="black" stroke-width="1"></path><path d="M 1050 82.5 L 1100 -4.1 L 1000 -4.1 Z" fill="#1D3354" stroke="black" stroke-width="1"></path><path d="M -1500 -4.1 L -1400 -4.1 L -1450 -90.7 Z" fill="#E9FFF9" stroke="black" stroke-width="1"></path><path d="M -1450 24.7 L -1400 -61.9 L -1500 -61.9 Z" fill="#1D3354" stroke="black" stroke-width="1"></path><path d="M -1300 -4.1 L -1200 -4.1 L -1250 -90.7 Z" fill="#E9FFF9" stroke="black" stroke-width="1"></path><path d="M -1250 24.7 L -1200 -61.9 L -1300 -61.9 Z" fill="#1D3354" stroke="black" stroke-width="1"></path><path d="M -1100 -4.1 L -1000 -4.1 L -1050 -90.7 Z" fill="#E9FFF9" stroke="black" stroke-width="1"></path><path d="M -1050 24.7 L -1000 -61.9 L -1100 -61.9 Z" fill="#1D3354" stroke="black" stroke-width="1"></path><path d="M -900 -4.1 L -800 -4.1 L -850 -90.7 Z" fill="#E9FFF9" stroke="black" stroke-width="1"></path><path d="M -850 24.7 L -800 -61.9 L -900 -61.9 Z" fill="#1D3354" stroke="black" stroke-width="1"></path><path d="M -700 -4.1 L -600 -4.1 L -650 -90.7 Z" fill="#E9FFF9" stroke="black" stroke-width="1"></path><path d="M -650 24.7 L -600 -61.9 L -700 -61.9 Z" fill="#1D3354" stroke="black" stroke-width="1"></path><path d="M -500 -4.1 L -400 -4.1 L -450 -90.7 Z" fill="#E9FFF9" stroke="black" stroke-width="1"></path><path d="M -450 24.7 L -400 -61.9 L -500 -61.9 Z" fill="#1D3354" stroke="black" stroke-width="1"></path><path d="M -300 -4.1 L -200 -4.1 L -250 -90.7 Z" fill="#E9FFF9" stroke="black" stroke-width="1"></path><path d="M -250 24.7 L -200 -61.9 L -300 -61.9 Z" fill="#1D3354" stroke="black" stroke-width="1"></path><path d="M -100 -4.1 L 0 -4.1 L -50 -90.7 Z" fill="#E9FFF9" stroke="black" stroke-width="1"></path><path d="M -50 24.7 L 0 -61.9 L -100 -61.9 Z" fill="#1D3354" stroke="black" stroke-width="1"></path><path d="M 100 -4.1 L 200 -4.1 L 150 -90.7 Z" fill="#E9FFF9" stroke="black" stroke-width="1"></path><path d="M 150 24.7 L 200 -61.9 L 100 -61.9 Z" fill="#1D3354" stroke="black" stroke-width="1"></path><path d="M 300 -4.1 L 400 -4.1 L 350 -90.7 Z" fill="#E9FFF9" stroke="black" stroke-width="1"></path><path d="M 350 24.7 L 400 -61.9 L 300 -61.9 Z" fill="#1D3354" stroke="black" stroke-width="1"></path><path d="M 500 -4.1 L 600 -4.1 L 550 -90.7 Z" fill="#E9FFF9" stroke="black" stroke-width="1"></path><path d="M 550 24.7 L 600 -61.9 L 500 -61.9 Z" fill="#1D3354" stroke="black" stroke-width="1"></path><path d="M 700 -4.1 L 800 -4.1 L 750 -90.7 Z" fill="#E9FFF9" stroke="black" stroke-width="1"></path><path d="M 750 24.7 L 800 -61.9 L 700 -61.9 Z" fill="#1D3354" stroke="black" stroke-width="1"></path><path d="M 900 -4.1 L 1000 -4.1 L 950 -90.7 Z" fill="#E9FFF9" stroke="black" stroke-width="1"></path><path d="M 950 24.7 L 1000 -61.9 L 900 -61.9 Z" fill="#1D3354" stroke="black" stroke-width="1"></path><ellipse cx="400" cy="400" rx="600" ry="600" fill="none" stroke="white" stroke-width="560"></ellipse><ellipse cx="400" cy="400" rx="320" ry="320" fill="none" stroke="black" stroke-width="1"></ellipse></svg>