<svg viewBox="0 0 800 800" preserveAspectRatio="xMidYMin slice" xmlns="http://www.w3.org/2000/svg" xlink="http://www.w3.org/1999/xlink"><defs><g id="unit-17"><path d="M 0 0 L 100 0 L 50 -86.6 Z" fill="#E9FFF9" stroke="black" stroke-width="1"></path><path d="M 50 28.9 L 100 -57.7 L 0 -57.7 Z" fill="#1D3354" stroke="black" stroke-width="1"></path></g></defs><rect x="0" y="0" width="800" height="800" fill="#467599"></rect><use href="#unit-17" transform="translate(-100, 804.1)"></use><use href="#unit-17" transform="translate(100, 804.1)"></use><use href="#unit-17" transform="translate(300, 804.1)"></use><use href="#unit-17" transform="translate(500, 804.1)"></use><use href="#unit-17" transform="translate(700, 804.1)"></use><use href="#unit-17" transform="translate(900, 804.1)"></use><use href="#unit-17" transform="translate(1100, 804.1)"></use><use href="#unit-17" transform="translate(1300, 804.1)"></use><use href="#unit-17" transform="translate(1500, 804.1)"></use><use href="#unit-17" transform="translate(1700, 804.1)"></use><use href="#unit-17" transform="translate(1900, 804.1)"></use><use href="#unit-17" transform="translate(2100, 804.1)"></use><use href="#unit-17" transform="translate(2300, 804.1)"></use><use href="#unit-17" transform="translate(-200, 746.4)"></use><use href="#unit-17" transform="translate(0, 746.4)"></use><use href="#unit-17" transform="translate(200, 746.4)"></use><use href="#unit-17" transform="translate(400, 746.4)"></use><use href="#unit-17" transform="translate(600, 746.4)"></use><use href="#unit-17" transform="translate(800, 746.4)"></use><use href="#unit-17" transform="translate(1000, 746.4)"></use><use href="#unit-17" transform="translate(1200, 746.4)"></use><use href="#unit-17" transform="translate(1400, 746.4)"></use><use href="#unit-17" transform="translate(1600, 746.4)"></use><use href="#unit-17" transform="translate(1800, 746.4)"></use><use href="#unit-17" transform="translate(2000, 746.4)"></use><use href="#unit-17" transform="translate(2200, 746.4)"></use><use href="#unit-17" transform="translate(-300, 688.7)"></use><use href="#unit-17" transform="translate(-100, 688.7)"></use><use href="#unit-17" transform="translate(100, 688.7)"></use><use href="#unit-17" transform="translate(300, 688.7)"></use><use href="#unit-17" transform="translate(500, 688.7)"></use><use href="#unit-17" transform="translate(700, 688.7)"></use><use href="#unit-17" transform="translate(900, 688.7)"></use><use href="#unit-17" transform="translate(1100, 688.7)"></use><use href="#unit-17" transform="translate(1300, 688.7)"></use><use href="#unit-17" transform="translate(1500, 688.7)"></use><use href="#unit-17" transform="translate(1700, 688.7)"></use><use href="#unit-17" transform="translate(1900, 688.7)"></use><use href="#unit-17" transform="translate(2100, 688.7)"></use><use href="#unit-17" transform="translate(-400, 630.9)"></use><use href="#unit-17" transform="translate(-200, 630.9)"></use><use href="#unit-17" transform="translate(0, 630.9)"></use><use href="#unit-17" transform="translate(200, 630.9)"></use><use href="#unit-17" transform="translate(400, 630.9)"></use><use href="#unit-17" transform="translate(600, 630.9)"></use><use href="#unit-17" transform="translate(800, 630.9)"></use><use href="#unit-17" transform="translate(1000, 630.9)"></use><use href="#unit-17" transform="translate(1200, 630.9)"></use><use href="#unit-17" transform="translate(1400, 630.9)"></use><use href="#unit-17" transform="translate(1600, 630.9)"></use><use href="#unit-17" transform="translate(1800, 630.9)"></use><use href="#unit-17" transform="translate(2000, 630.9)"></use><use href="#unit-17" transform="translate(-500, 573.2)"></use><use href="#unit-17" transform="translate(-300, 573.2)"></use><use href="#unit-17" transform="translate(-100, 573.2)"></use><use href="#unit-17" transform="translate(100, 573.2)"></use><use href="#unit-17" transform="translate(300, 573.2)"></use><use href="#unit-17" transform="translate(500, 573.2)"></use><use href="#unit-17" transform="translate(700, 573.2)"></use><use href="#unit-17" transform="translate(900, 573.2)"></use><use href="#unit-17" transform="translate(1100, 573.2)"></use><use href="#unit-17" transform="translate(1300, 573.2)"></use><use href="#unit-17" transform="translate(1500, 573.2)"></use><use href="#unit-17" transform="translate(1700, 573.2)"></use><use href="#unit-17" transform="translate(1900, 573.2)"></use><use href="#unit-17" transform="translate(-600, 515.5)"></use><use href="#unit-17" transform="translate(-400, 515.5)"></use><use href="#unit-17" transform="translate(-200, 515.5)"></use><use href="#unit-17" transform="translate(0, 515.5)"></use><use href="#unit-17" transform="translate(200, 515.5)"></use><use href="#unit-17" transform="translate(400, 515.5)"></use><use href="#unit-17" transform="translate(600, 515.5)"></use><use href="#unit-17" transform="translate(800, 515.5)"></use><use href="#unit-17" transform="translate(1000, 515.5)"></use><use href="#unit-17" transform="translate(1200, 515.5)"></use><use href="#unit-17" transform="translate(1400, 515.5)"></use><use href="#unit-17" transform="translate(1600, 515.5)"></use><use href="#unit-17" transform="translate(1800, 515.5)"></use><use href="#unit-17" transform="translate(-700, 457.7)"></use><use href="#unit-17" transform="translate(-500, 457.7)"></use><use href="#unit-17" transform="translate(-300, 457.7)"></use><use href="#unit-17" transform="translate(-100, 457.7)"></use><use href="#unit-17" transform="translate(100, 457.7)"></use><use href="#unit-17" transform="translate(300, 457.7)"></use><use href="#unit-17" transform="translate(500, 457.7)"></use><use href="#unit-17" transform="translate(700, 457.7)"></use><use href="#unit-17" transform="translate(900, 457.7)"></use><use href="#unit-17" transform="translate(1100, 457.7)"></use><use href="#unit-17" transform="translate(1300, 457.7)"></use><use href="#unit-17" transform="translate(1500, 457.7)"></use><use href="#unit-17" transform="translate(1700, 457.7)"></use><use href="#unit-17" transform="translate(-800, 400)"></use><use href="#unit-17" transform="translate(-600, 400)"></use><use href="#unit-17" transform="translate(-400, 400)"></use><use href="#unit-17" transform="translate(-200, 400)"></use><use href="#unit-17" transform="translate(0, 400)"></use><use href="#unit-17" transform="translate(200, 400)"></use><use href="#unit-17" transform="translate(400, 400)"></use><use href="#unit-17" transform="translate(600, 400)"></use><use href="#unit-17" transform="translate(800, 400)"></use><use href="#unit-17" transform="translate(1000, 400)"></use><use href="#unit-17" transform="translate(1200, 400)"></use><use href="#unit-17" transform="translate(1400, 400)"></use><use href="#unit-17" transform="translate(1600, 400)"></use><use href="#unit-17" transform="translate(-900, 342.3)"></use><use href="#unit-17" transform="translate(-700, 342.3)"></use><use href="#unit-17" transform="translate(-500, 342.3)"></use><use href="#unit-17" transform="translate(-300, 342.3)"></use><use href="#unit-17" transform="translate(-100, 342.3)"></use><use href="#unit-17" transform="translate(100, 342.3)"></use><use href="#unit-17" transform="translate(300, 342.3)"></use><use href="#unit-17" transform="translate(500, 342.3)"></use><use href="#unit-17" transform="translate(700, 342.3)"></use><use href="#unit-17" transform="translate(900, 342.3)"></use><use href="#unit-17" transform="translate(1100, 342.3)"></use><use href="#unit-17" transform="translate(1300, 342.3)"></use><use href="#unit-17" transform="translate(1500, 342.3)"></use><use href="#unit-17" transform="translate(-1000, 284.5)"></use><use href="#unit-17" transform="translate(-800, 284.5)"></use><use href="#unit-17" transform="translate(-600, 284.5)"></use><use href="#unit-17" transform="translate(-400, 284.5)"></use><use href="#unit-17" transform="translate(-200, 284.5)"></use><use href="#unit-17" transform="translate(0, 284.5)"></use><use href="#unit-17" transform="translate(200, 284.5)"></use><use href="#unit-17" transform="translate(400, 284.5)"></use><use href="#unit-17" transform="translate(600, 284.5)"></use><use href="#unit-17" transform="translate(800, 284.5)"></use><use href="#unit-17" transform="translate(1000, 284.5)"></use><use href="#unit-17" transform="translate(1200, 284.5)"></use><use href="#unit-17" transform="translate(1400, 284.5)"></use><use href="#unit-17" transform="translate(-1100, 226.8)"></use><use href="#unit-17" transform="translate(-900, 226.8)"></use><use href="#unit-17" transform="translate(-700, 226.8)"></use><use href="#unit-17" transform="translate(-500, 226.8)"></use><use href="#unit-17" transform="translate(-300, 226.8)"></use><use href="#unit-17" transform="translate(-100, 226.8)"></use><use href="#unit-17" transform="translate(100, 226.8)"></use><use href="#unit-17" transform="translate(300, 226.8)"></use><use href="#unit-17" transform="translate(500, 226.8)"></use><use href="#unit-17" transform="translate(700, 226.8)"></use><use href="#unit-17" transform="translate(900, 226.8)"></use><use href="#unit-17" transform="translate(1100, 226.8)"></use><use href="#unit-17" transform="translate(1300, 226.8)"></use><use href="#unit-17" transform="translate(-1200, 169.1)"></use><use href="#unit-17" transform="translate(-1000, 169.1)"></use><use href="#unit-17" transform="translate(-800, 169.1)"></use><use href="#unit-17" transform="translate(-600, 169.1)"></use><use href="#unit-17" transform="translate(-400, 169.1)"></use><use href="#unit-17" transform="translate(-200, 169.1)"></use><use href="#unit-17" transform="translate(0, 169.1)"></use><use href="#unit-17" transform="translate(200, 169.1)"></use><use href="#unit-17" transform="translate(400, 169.1)"></use><use href="#unit-17" transform="translate(600, 169.1)"></use><use href="#unit-17" transform="translate(800, 169.1)"></use><use href="#unit-17" transform="translate(1000, 169.1)"></use><use href="#unit-17" transform="translate(1200, 169.1)"></use><use href="#unit-17" transform="translate(-1300, 111.3)"></use><use href="#unit-17" transform="translate(-1100, 111.3)"></use><use href="#unit-17" transform="translate(-900, 111.3)"></use><use href="#unit-17" transform="translate(-700, 111.3)"></use><use href="#unit-17" transform="translate(-500, 111.3)"></use><use href="#unit-17" transform="translate(-300, 111.3)"></use><use href="#unit-17" transform="translate(-100, 111.3)"></use><use href="#unit-17" transform="translate(100, 111.3)"></use><use href="#unit-17" transform="translate(300, 111.3)"></use><use href="#unit-17" transform="translate(500, 111.3)"></use><use href="#unit-17" transform="translate(700, 111.3)"></use><use href="#unit-17" transform="translate(900, 111.3)"></use><use href="#unit-17" transform="translate(1100, 111.3)"></use><use href="#unit-17" transform="translate(-1400, 53.6)"></use><use href="#unit-17" transform="translate(-1200, 53.6)"></use><use href="#unit-17" transform="translate(-1000, 53.6)"></use><use href="#unit-17" transform="translate(-800, 53.6)"></use><use href="#unit-17" transform="translate(-600, 53.6)"></use><use href="#unit-17" transform="translate(-400, 53.6)"></use><use href="#unit-17" transform="translate(-200, 53.6)"></use><use href="#unit-17" transform="translate(0, 53.6)"></use><use href="#unit-17" transform="translate(200, 53.6)"></use><use href="#unit-17" transform="translate(400, 53.6)"></use><use href="#unit-17" transform="translate(600, 53.6)"></use><use href="#unit-17" transform="translate(800, 53.6)"></use><use href="#unit-17" transform="translate(1000, 53.6)"></use><use href="#unit-17" transform="translate(-1500, -4.1)"></use><use href="#unit-17" transform="translate(-1300, -4.1)"></use><use href="#unit-17" transform="translate(-1100, -4.1)"></use><use href="#unit-17" transform="translate(-900, -4.1)"></use><use href="#unit-17" transform="translate(-700, -4.1)"></use><use href="#unit-17" transform="translate(-500, -4.1)"></use><use href="#unit-17" transform="translate(-300, -4.1)"></use><use href="#unit-17" transform="translate(-100, -4.1)"></use><use href="#unit-17" transform="translate(100, -4.1)"></use><use href="#unit-17" transform="translate(300, -4.1)"></use><use href="#unit-17" transform="translate(500, -4.1)"></use><use href="#unit-17" transform="translate(700, -4.1)"></use><use href="#unit-17" transform="translate(900, -4.1)"></use><ellipse cx="400" cy="400" rx="600" ry="600" fill="none" stroke="white" stroke-width="560"></ellipse><ellipse cx="400" cy="400" rx="320" ry="320" fill="none" stroke="black" stroke-width="1"></ellipse></svg>