<svg viewBox="0 0 800 800" preserveAspectRatio="xMidYMin slice" xmlns="http://www.w3.org/2000/svg" xlink="http://www.w3.org/1999/xlink"><rect x="0" y="0" width="800" height="800" fill="#F2EDEB"></rect><path d="M -77.3 -395.5 L -19.3 -453.5 L -69.9 -504 L -77.3 -496.6 L -77.3 -467.7 L -63.1 -453.5 L -73.8 -442.8 L -73.8 -432.9 L -53.2 -453.5 L -70.5 -470.7 L -70.3 -494.6 L -29.2 -453.5 L -82.2 -400.4 Z" fill="#925e78" stroke="none" stroke-width="1"></path><path d="M -77.3 -511.5 L -135.3 -453.5 L -84.7 -402.9 L -77.3 -410.3 L -77.3 -439.3 L -91.5 -453.5 L -80.8 -464.2 L -80.8 -474.1 L -101.4 -453.5 L -84.1 -436.2 L -84.3 -412.4 L -125.4 -453.5 L -72.3 -506.5 Z" fill="#f05365" stroke="none" stroke-width="1"></path><path d="M -77.3 -289.4 L -19.3 -347.4 L -69.9 -398 L -77.3 -390.5 L -77.3 -361.6 L -63.1 -347.4 L -73.8 -336.7 L -73.8 -326.8 L -53.2 -347.4 L -70.5 -364.7 L -70.3 -388.5 L -29.2 -347.4 L -82.2 -294.4 Z" fill="#f05365" stroke="none" stroke-width="1"></path><path d="M -77.3 -405.4 L -135.3 -347.4 L -84.7 -296.9 L -77.3 -304.3 L -77.3 -333.2 L -91.5 -347.4 L -80.8 -358.1 L -80.8 -368 L -101.4 -347.4 L -84.1 -330.2 L -84.3 -306.3 L -125.4 -347.4 L -72.3 -400.4 Z" fill="#925e78" stroke="none" stroke-width="1"></path><path d="M -77.3 -183.4 L -19.3 -241.3 L -69.9 -291.9 L -77.3 -284.5 L -77.3 -255.5 L -63.1 -241.3 L -73.8 -230.7 L -73.8 -220.8 L -53.2 -241.3 L -70.5 -258.6 L -70.3 -282.4 L -29.2 -241.3 L -82.2 -188.3 Z" fill="#925e78" stroke="none" stroke-width="1"></path><path d="M -77.3 -299.3 L -135.3 -241.3 L -84.7 -190.8 L -77.3 -198.2 L -77.3 -227.2 L -91.5 -241.3 L -80.8 -252 L -80.8 -261.9 L -101.4 -241.3 L -84.1 -224.1 L -84.3 -200.3 L -125.4 -241.3 L -72.3 -294.4 Z" fill="#f05365" stroke="none" stroke-width="1"></path><path d="M -77.3 -77.3 L -19.3 -135.3 L -69.9 -185.8 L -77.3 -178.4 L -77.3 -149.5 L -63.1 -135.3 L -73.8 -124.6 L -73.8 -114.7 L -53.2 -135.3 L -70.5 -152.5 L -70.3 -176.4 L -29.2 -135.3 L -82.2 -82.2 Z" fill="#f05365" stroke="none" stroke-width="1"></path><path d="M -77.3 -193.3 L -135.3 -135.3 L -84.7 -84.7 L -77.3 -92.1 L -77.3 -121.1 L -91.5 -135.3 L -80.8 -146 L -80.8 -155.9 L -101.4 -135.3 L -84.1 -118 L -84.3 -94.2 L -125.4 -135.3 L -72.3 -188.3 Z" fill="#925e78" stroke="none" stroke-width="1"></path><path d="M -77.3 28.8 L -19.3 -29.2 L -69.9 -79.8 L -77.3 -72.3 L -77.3 -43.4 L -63.1 -29.2 L -73.8 -18.5 L -73.8 -8.6 L -53.2 -29.2 L -70.5 -46.5 L -70.3 -70.3 L -29.2 -29.2 L -82.2 23.8 Z" fill="#925e78" stroke="none" stroke-width="1"></path><path d="M -77.3 -87.2 L -135.3 -29.2 L -84.7 21.3 L -77.3 13.9 L -77.3 -15 L -91.5 -29.2 L -80.8 -39.9 L -80.8 -49.8 L -101.4 -29.2 L -84.1 -12 L -84.3 11.9 L -125.4 -29.2 L -72.3 -82.2 Z" fill="#f05365" stroke="none" stroke-width="1"></path><path d="M -77.3 134.8 L -19.3 76.9 L -69.9 26.3 L -77.3 33.7 L -77.3 62.7 L -63.1 76.9 L -73.8 87.5 L -73.8 97.4 L -53.2 76.9 L -70.5 59.6 L -70.3 35.8 L -29.2 76.9 L -82.2 129.9 Z" fill="#f05365" stroke="none" stroke-width="1"></path><path d="M -77.3 18.9 L -135.3 76.9 L -84.7 127.4 L -77.3 120 L -77.3 91 L -91.5 76.9 L -80.8 66.2 L -80.8 56.3 L -101.4 76.9 L -84.1 94.1 L -84.3 117.9 L -125.4 76.9 L -72.3 23.8 Z" fill="#925e78" stroke="none" stroke-width="1"></path><path d="M -77.3 240.9 L -19.3 182.9 L -69.9 132.4 L -77.3 139.8 L -77.3 168.7 L -63.1 182.9 L -73.8 193.6 L -73.8 203.5 L -53.2 182.9 L -70.5 165.7 L -70.3 141.8 L -29.2 182.9 L -82.2 236 Z" fill="#925e78" stroke="none" stroke-width="1"></path><path d="M -77.3 124.9 L -135.3 182.9 L -84.7 233.5 L -77.3 226.1 L -77.3 197.1 L -91.5 182.9 L -80.8 172.2 L -80.8 162.3 L -101.4 182.9 L -84.1 200.2 L -84.3 224 L -125.4 182.9 L -72.3 129.9 Z" fill="#f05365" stroke="none" stroke-width="1"></path><path d="M -77.3 347 L -19.3 289 L -69.9 238.4 L -77.3 245.9 L -77.3 274.8 L -63.1 289 L -73.8 299.7 L -73.8 309.6 L -53.2 289 L -70.5 271.7 L -70.3 247.9 L -29.2 289 L -82.2 342 Z" fill="#f05365" stroke="none" stroke-width="1"></path><path d="M -77.3 231 L -135.3 289 L -84.7 339.5 L -77.3 332.1 L -77.3 303.2 L -91.5 289 L -80.8 278.3 L -80.8 268.4 L -101.4 289 L -84.1 306.2 L -84.3 330.1 L -125.4 289 L -72.3 236 Z" fill="#925e78" stroke="none" stroke-width="1"></path><path d="M -77.3 453 L -19.3 395.1 L -69.9 344.5 L -77.3 351.9 L -77.3 380.9 L -63.1 395.1 L -73.8 405.7 L -73.8 415.6 L -53.2 395.1 L -70.5 377.8 L -70.3 354 L -29.2 395.1 L -82.2 448.1 Z" fill="#925e78" stroke="none" stroke-width="1"></path><path d="M -77.3 337.1 L -135.3 395.1 L -84.7 445.6 L -77.3 438.2 L -77.3 409.2 L -91.5 395.1 L -80.8 384.4 L -80.8 374.5 L -101.4 395.1 L -84.1 412.3 L -84.3 436.1 L -125.4 395.1 L -72.3 342 Z" fill="#f05365" stroke="none" stroke-width="1"></path><path d="M -77.3 559.1 L -19.3 501.1 L -69.9 450.6 L -77.3 458 L -77.3 486.9 L -63.1 501.1 L -73.8 511.8 L -73.8 521.7 L -53.2 501.1 L -70.5 483.9 L -70.3 460 L -29.2 501.1 L -82.2 554.1 Z" fill="#f05365" stroke="none" stroke-width="1"></path><path d="M -77.3 443.1 L -135.3 501.1 L -84.7 551.7 L -77.3 544.2 L -77.3 515.3 L -91.5 501.1 L -80.8 490.4 L -80.8 480.5 L -101.4 501.1 L -84.1 518.4 L -84.3 542.2 L -125.4 501.1 L -72.3 448.1 Z" fill="#925e78" stroke="none" stroke-width="1"></path><path d="M -77.3 665.2 L -19.3 607.2 L -69.9 556.6 L -77.3 564 L -77.3 593 L -63.1 607.2 L -73.8 617.9 L -73.8 627.8 L -53.2 607.2 L -70.5 589.9 L -70.3 566.1 L -29.2 607.2 L -82.2 660.2 Z" fill="#925e78" stroke="none" stroke-width="1"></path><path d="M -77.3 549.2 L -135.3 607.2 L -84.7 657.7 L -77.3 650.3 L -77.3 621.4 L -91.5 607.2 L -80.8 596.5 L -80.8 586.6 L -101.4 607.2 L -84.1 624.4 L -84.3 648.3 L -125.4 607.2 L -72.3 554.1 Z" fill="#f05365" stroke="none" stroke-width="1"></path><path d="M -77.3 771.2 L -19.3 713.2 L -69.9 662.7 L -77.3 670.1 L -77.3 699.1 L -63.1 713.2 L -73.8 723.9 L -73.8 733.8 L -53.2 713.2 L -70.5 696 L -70.3 672.2 L -29.2 713.2 L -82.2 766.3 Z" fill="#f05365" stroke="none" stroke-width="1"></path><path d="M -77.3 655.3 L -135.3 713.2 L -84.7 763.8 L -77.3 756.4 L -77.3 727.4 L -91.5 713.2 L -80.8 702.6 L -80.8 692.7 L -101.4 713.2 L -84.1 730.5 L -84.3 754.3 L -125.4 713.2 L -72.3 660.2 Z" fill="#925e78" stroke="none" stroke-width="1"></path><path d="M -77.3 877.3 L -19.3 819.3 L -69.9 768.8 L -77.3 776.2 L -77.3 805.1 L -63.1 819.3 L -73.8 830 L -73.8 839.9 L -53.2 819.3 L -70.5 802.1 L -70.3 778.2 L -29.2 819.3 L -82.2 872.3 Z" fill="#925e78" stroke="none" stroke-width="1"></path><path d="M -77.3 761.3 L -135.3 819.3 L -84.7 869.9 L -77.3 862.4 L -77.3 833.5 L -91.5 819.3 L -80.8 808.6 L -80.8 798.7 L -101.4 819.3 L -84.1 836.6 L -84.3 860.4 L -125.4 819.3 L -72.3 766.3 Z" fill="#f05365" stroke="none" stroke-width="1"></path><path d="M 81.8 -342.5 L 139.8 -400.4 L 89.2 -451 L 81.8 -443.6 L 81.8 -414.6 L 96 -400.4 L 85.3 -389.8 L 85.3 -379.9 L 105.9 -400.4 L 88.6 -417.7 L 88.8 -441.5 L 129.9 -400.4 L 76.9 -347.4 Z" fill="#925e78" stroke="none" stroke-width="1"></path><path d="M 81.8 -458.4 L 23.8 -400.4 L 74.4 -349.9 L 81.8 -357.3 L 81.8 -386.3 L 67.6 -400.4 L 78.3 -411.1 L 78.3 -421 L 57.7 -400.4 L 75 -383.2 L 74.8 -359.4 L 33.7 -400.4 L 86.8 -453.5 Z" fill="#f05365" stroke="none" stroke-width="1"></path><path d="M 81.8 -236.4 L 139.8 -294.4 L 89.2 -344.9 L 81.8 -337.5 L 81.8 -308.6 L 96 -294.4 L 85.3 -283.7 L 85.3 -273.8 L 105.9 -294.4 L 88.6 -311.6 L 88.8 -335.5 L 129.9 -294.4 L 76.9 -241.3 Z" fill="#f05365" stroke="none" stroke-width="1"></path><path d="M 81.8 -352.4 L 23.8 -294.4 L 74.4 -243.8 L 81.8 -251.2 L 81.8 -280.2 L 67.6 -294.4 L 78.3 -305.1 L 78.3 -315 L 57.7 -294.4 L 75 -277.1 L 74.8 -253.3 L 33.7 -294.4 L 86.8 -347.4 Z" fill="#925e78" stroke="none" stroke-width="1"></path><path d="M 81.8 -130.3 L 139.8 -188.3 L 89.2 -238.9 L 81.8 -231.4 L 81.8 -202.5 L 96 -188.3 L 85.3 -177.6 L 85.3 -167.7 L 105.9 -188.3 L 88.6 -205.6 L 88.8 -229.4 L 129.9 -188.3 L 76.9 -135.3 Z" fill="#925e78" stroke="none" stroke-width="1"></path><path d="M 81.8 -246.3 L 23.8 -188.3 L 74.4 -137.8 L 81.8 -145.2 L 81.8 -174.1 L 67.6 -188.3 L 78.3 -199 L 78.3 -208.9 L 57.7 -188.3 L 75 -171.1 L 74.8 -147.2 L 33.7 -188.3 L 86.8 -241.3 Z" fill="#f05365" stroke="none" stroke-width="1"></path><path d="M 81.8 -24.3 L 139.8 -82.2 L 89.2 -132.8 L 81.8 -125.4 L 81.8 -96.4 L 96 -82.2 L 85.3 -71.6 L 85.3 -61.7 L 105.9 -82.2 L 88.6 -99.5 L 88.8 -123.3 L 129.9 -82.2 L 76.9 -29.2 Z" fill="#f05365" stroke="none" stroke-width="1"></path><path d="M 81.8 -140.2 L 23.8 -82.2 L 74.4 -31.7 L 81.8 -39.1 L 81.8 -68.1 L 67.6 -82.2 L 78.3 -92.9 L 78.3 -102.8 L 57.7 -82.2 L 75 -65 L 74.8 -41.2 L 33.7 -82.2 L 86.8 -135.3 Z" fill="#925e78" stroke="none" stroke-width="1"></path><path d="M 81.8 81.8 L 139.8 23.8 L 89.2 -26.7 L 81.8 -19.3 L 81.8 9.6 L 96 23.8 L 85.3 34.5 L 85.3 44.4 L 105.9 23.8 L 88.6 6.6 L 88.8 -17.3 L 129.9 23.8 L 76.9 76.9 Z" fill="#925e78" stroke="none" stroke-width="1"></path><path d="M 81.8 -34.2 L 23.8 23.8 L 74.4 74.4 L 81.8 67 L 81.8 38 L 67.6 23.8 L 78.3 13.1 L 78.3 3.2 L 57.7 23.8 L 75 41.1 L 74.8 64.9 L 33.7 23.8 L 86.8 -29.2 Z" fill="#f05365" stroke="none" stroke-width="1"></path><path d="M 81.8 187.9 L 139.8 129.9 L 89.2 79.3 L 81.8 86.8 L 81.8 115.7 L 96 129.9 L 85.3 140.6 L 85.3 150.5 L 105.9 129.9 L 88.6 112.6 L 88.8 88.8 L 129.9 129.9 L 76.9 182.9 Z" fill="#f05365" stroke="none" stroke-width="1"></path><path d="M 81.8 71.9 L 23.8 129.9 L 74.4 180.4 L 81.8 173 L 81.8 144.1 L 67.6 129.9 L 78.3 119.2 L 78.3 109.3 L 57.7 129.9 L 75 147.1 L 74.8 171 L 33.7 129.9 L 86.8 76.9 Z" fill="#925e78" stroke="none" stroke-width="1"></path><path d="M 81.8 293.9 L 139.8 236 L 89.2 185.4 L 81.8 192.8 L 81.8 221.8 L 96 236 L 85.3 246.6 L 85.3 256.5 L 105.9 236 L 88.6 218.7 L 88.8 194.9 L 129.9 236 L 76.9 289 Z" fill="#925e78" stroke="none" stroke-width="1"></path><path d="M 81.8 178 L 23.8 236 L 74.4 286.5 L 81.8 279.1 L 81.8 250.1 L 67.6 236 L 78.3 225.3 L 78.3 215.4 L 57.7 236 L 75 253.2 L 74.8 277 L 33.7 236 L 86.8 182.9 Z" fill="#f05365" stroke="none" stroke-width="1"></path><path d="M 81.8 400 L 139.8 342 L 89.2 291.5 L 81.8 298.9 L 81.8 327.8 L 96 342 L 85.3 352.7 L 85.3 362.6 L 105.9 342 L 88.6 324.8 L 88.8 300.9 L 129.9 342 L 76.9 395.1 Z" fill="#f05365" stroke="none" stroke-width="1"></path><path d="M 81.8 284 L 23.8 342 L 74.4 392.6 L 81.8 385.2 L 81.8 356.2 L 67.6 342 L 78.3 331.3 L 78.3 321.4 L 57.7 342 L 75 359.3 L 74.8 383.1 L 33.7 342 L 86.8 289 Z" fill="#925e78" stroke="none" stroke-width="1"></path><path d="M 81.8 506.1 L 139.8 448.1 L 89.2 397.5 L 81.8 404.9 L 81.8 433.9 L 96 448.1 L 85.3 458.8 L 85.3 468.7 L 105.9 448.1 L 88.6 430.8 L 88.8 407 L 129.9 448.1 L 76.9 501.1 Z" fill="#925e78" stroke="none" stroke-width="1"></path><path d="M 81.8 390.1 L 23.8 448.1 L 74.4 498.6 L 81.8 491.2 L 81.8 462.3 L 67.6 448.1 L 78.3 437.4 L 78.3 427.5 L 57.7 448.1 L 75 465.3 L 74.8 489.2 L 33.7 448.1 L 86.8 395.1 Z" fill="#f05365" stroke="none" stroke-width="1"></path><path d="M 81.8 612.1 L 139.8 554.1 L 89.2 503.6 L 81.8 511 L 81.8 540 L 96 554.1 L 85.3 564.8 L 85.3 574.7 L 105.9 554.1 L 88.6 536.9 L 88.8 513.1 L 129.9 554.1 L 76.9 607.2 Z" fill="#f05365" stroke="none" stroke-width="1"></path><path d="M 81.8 496.2 L 23.8 554.1 L 74.4 604.7 L 81.8 597.3 L 81.8 568.3 L 67.6 554.1 L 78.3 543.5 L 78.3 533.6 L 57.7 554.1 L 75 571.4 L 74.8 595.2 L 33.7 554.1 L 86.8 501.1 Z" fill="#925e78" stroke="none" stroke-width="1"></path><path d="M 81.8 718.2 L 139.8 660.2 L 89.2 609.7 L 81.8 617.1 L 81.8 646 L 96 660.2 L 85.3 670.9 L 85.3 680.8 L 105.9 660.2 L 88.6 643 L 88.8 619.1 L 129.9 660.2 L 76.9 713.2 Z" fill="#925e78" stroke="none" stroke-width="1"></path><path d="M 81.8 602.2 L 23.8 660.2 L 74.4 710.8 L 81.8 703.3 L 81.8 674.4 L 67.6 660.2 L 78.3 649.5 L 78.3 639.6 L 57.7 660.2 L 75 677.5 L 74.8 701.3 L 33.7 660.2 L 86.8 607.2 Z" fill="#f05365" stroke="none" stroke-width="1"></path><path d="M 81.8 824.3 L 139.8 766.3 L 89.2 715.7 L 81.8 723.1 L 81.8 752.1 L 96 766.3 L 85.3 777 L 85.3 786.9 L 105.9 766.3 L 88.6 749 L 88.8 725.2 L 129.9 766.3 L 76.9 819.3 Z" fill="#f05365" stroke="none" stroke-width="1"></path><path d="M 81.8 708.3 L 23.8 766.3 L 74.4 816.8 L 81.8 809.4 L 81.8 780.5 L 67.6 766.3 L 78.3 755.6 L 78.3 745.7 L 57.7 766.3 L 75 783.5 L 74.8 807.4 L 33.7 766.3 L 86.8 713.2 Z" fill="#925e78" stroke="none" stroke-width="1"></path><path d="M 81.8 930.3 L 139.8 872.3 L 89.2 821.8 L 81.8 829.2 L 81.8 858.2 L 96 872.3 L 85.3 883 L 85.3 892.9 L 105.9 872.3 L 88.6 855.1 L 88.8 831.3 L 129.9 872.3 L 76.9 925.4 Z" fill="#925e78" stroke="none" stroke-width="1"></path><path d="M 81.8 814.4 L 23.8 872.3 L 74.4 922.9 L 81.8 915.5 L 81.8 886.5 L 67.6 872.3 L 78.3 861.7 L 78.3 851.8 L 57.7 872.3 L 75 889.6 L 74.8 913.4 L 33.7 872.3 L 86.8 819.3 Z" fill="#f05365" stroke="none" stroke-width="1"></path><path d="M 240.9 -289.4 L 298.9 -347.4 L 248.3 -398 L 240.9 -390.5 L 240.9 -361.6 L 255.1 -347.4 L 244.4 -336.7 L 244.4 -326.8 L 265 -347.4 L 247.7 -364.7 L 247.9 -388.5 L 289 -347.4 L 236 -294.4 Z" fill="#925e78" stroke="none" stroke-width="1"></path><path d="M 240.9 -405.4 L 182.9 -347.4 L 233.5 -296.9 L 240.9 -304.3 L 240.9 -333.2 L 226.7 -347.4 L 237.4 -358.1 L 237.4 -368 L 216.8 -347.4 L 234.1 -330.2 L 233.9 -306.3 L 192.8 -347.4 L 245.9 -400.4 Z" fill="#f05365" stroke="none" stroke-width="1"></path><path d="M 240.9 -183.4 L 298.9 -241.3 L 248.3 -291.9 L 240.9 -284.5 L 240.9 -255.5 L 255.1 -241.3 L 244.4 -230.7 L 244.4 -220.8 L 265 -241.3 L 247.7 -258.6 L 247.9 -282.4 L 289 -241.3 L 236 -188.3 Z" fill="#f05365" stroke="none" stroke-width="1"></path><path d="M 240.9 -299.3 L 182.9 -241.3 L 233.5 -190.8 L 240.9 -198.2 L 240.9 -227.2 L 226.7 -241.3 L 237.4 -252 L 237.4 -261.9 L 216.8 -241.3 L 234.1 -224.1 L 233.9 -200.3 L 192.8 -241.3 L 245.9 -294.4 Z" fill="#925e78" stroke="none" stroke-width="1"></path><path d="M 240.9 -77.3 L 298.9 -135.3 L 248.3 -185.8 L 240.9 -178.4 L 240.9 -149.5 L 255.1 -135.3 L 244.4 -124.6 L 244.4 -114.7 L 265 -135.3 L 247.7 -152.5 L 247.9 -176.4 L 289 -135.3 L 236 -82.2 Z" fill="#925e78" stroke="none" stroke-width="1"></path><path d="M 240.9 -193.3 L 182.9 -135.3 L 233.5 -84.7 L 240.9 -92.1 L 240.9 -121.1 L 226.7 -135.3 L 237.4 -146 L 237.4 -155.9 L 216.8 -135.3 L 234.1 -118 L 233.9 -94.2 L 192.8 -135.3 L 245.9 -188.3 Z" fill="#f05365" stroke="none" stroke-width="1"></path><path d="M 240.9 28.8 L 298.9 -29.2 L 248.3 -79.8 L 240.9 -72.3 L 240.9 -43.4 L 255.1 -29.2 L 244.4 -18.5 L 244.4 -8.6 L 265 -29.2 L 247.7 -46.5 L 247.9 -70.3 L 289 -29.2 L 236 23.8 Z" fill="#f05365" stroke="none" stroke-width="1"></path><path d="M 240.9 -87.2 L 182.9 -29.2 L 233.5 21.3 L 240.9 13.9 L 240.9 -15 L 226.7 -29.2 L 237.4 -39.9 L 237.4 -49.8 L 216.8 -29.2 L 234.1 -12 L 233.9 11.9 L 192.8 -29.2 L 245.9 -82.2 Z" fill="#925e78" stroke="none" stroke-width="1"></path><path d="M 240.9 134.8 L 298.9 76.9 L 248.3 26.3 L 240.9 33.7 L 240.9 62.7 L 255.1 76.9 L 244.4 87.5 L 244.4 97.4 L 265 76.9 L 247.7 59.6 L 247.9 35.8 L 289 76.9 L 236 129.9 Z" fill="#925e78" stroke="none" stroke-width="1"></path><path d="M 240.9 18.9 L 182.9 76.9 L 233.5 127.4 L 240.9 120 L 240.9 91 L 226.7 76.9 L 237.4 66.2 L 237.4 56.3 L 216.8 76.9 L 234.1 94.1 L 233.9 117.9 L 192.8 76.9 L 245.9 23.8 Z" fill="#f05365" stroke="none" stroke-width="1"></path><path d="M 240.9 240.9 L 298.9 182.9 L 248.3 132.4 L 240.9 139.8 L 240.9 168.7 L 255.1 182.9 L 244.4 193.6 L 244.4 203.5 L 265 182.9 L 247.7 165.7 L 247.9 141.8 L 289 182.9 L 236 236 Z" fill="#f05365" stroke="none" stroke-width="1"></path><path d="M 240.9 124.9 L 182.9 182.9 L 233.5 233.5 L 240.9 226.1 L 240.9 197.1 L 226.7 182.9 L 237.4 172.2 L 237.4 162.3 L 216.8 182.9 L 234.1 200.2 L 233.9 224 L 192.8 182.9 L 245.9 129.9 Z" fill="#925e78" stroke="none" stroke-width="1"></path><path d="M 240.9 347 L 298.9 289 L 248.3 238.4 L 240.9 245.9 L 240.9 274.8 L 255.1 289 L 244.4 299.7 L 244.4 309.6 L 265 289 L 247.7 271.7 L 247.9 247.9 L 289 289 L 236 342 Z" fill="#925e78" stroke="none" stroke-width="1"></path><path d="M 240.9 231 L 182.9 289 L 233.5 339.5 L 240.9 332.1 L 240.9 303.2 L 226.7 289 L 237.4 278.3 L 237.4 268.4 L 216.8 289 L 234.1 306.2 L 233.9 330.1 L 192.8 289 L 245.9 236 Z" fill="#f05365" stroke="none" stroke-width="1"></path><path d="M 240.9 453 L 298.9 395.1 L 248.3 344.5 L 240.9 351.9 L 240.9 380.9 L 255.1 395.1 L 244.4 405.7 L 244.4 415.6 L 265 395.1 L 247.7 377.8 L 247.9 354 L 289 395.1 L 236 448.1 Z" fill="#f05365" stroke="none" stroke-width="1"></path><path d="M 240.9 337.1 L 182.9 395.1 L 233.5 445.6 L 240.9 438.2 L 240.9 409.2 L 226.7 395.1 L 237.4 384.4 L 237.4 374.5 L 216.8 395.1 L 234.1 412.3 L 233.9 436.1 L 192.8 395.1 L 245.9 342 Z" fill="#925e78" stroke="none" stroke-width="1"></path><path d="M 240.9 559.1 L 298.9 501.1 L 248.3 450.6 L 240.9 458 L 240.9 486.9 L 255.1 501.1 L 244.4 511.8 L 244.4 521.7 L 265 501.1 L 247.7 483.9 L 247.9 460 L 289 501.1 L 236 554.1 Z" fill="#925e78" stroke="none" stroke-width="1"></path><path d="M 240.9 443.1 L 182.9 501.1 L 233.5 551.7 L 240.9 544.2 L 240.9 515.3 L 226.7 501.1 L 237.4 490.4 L 237.4 480.5 L 216.8 501.1 L 234.1 518.4 L 233.9 542.2 L 192.8 501.1 L 245.9 448.1 Z" fill="#f05365" stroke="none" stroke-width="1"></path><path d="M 240.9 665.2 L 298.9 607.2 L 248.3 556.6 L 240.9 564 L 240.9 593 L 255.1 607.2 L 244.4 617.9 L 244.4 627.8 L 265 607.2 L 247.7 589.9 L 247.9 566.1 L 289 607.2 L 236 660.2 Z" fill="#f05365" stroke="none" stroke-width="1"></path><path d="M 240.9 549.2 L 182.9 607.2 L 233.5 657.7 L 240.9 650.3 L 240.9 621.4 L 226.7 607.2 L 237.4 596.5 L 237.4 586.6 L 216.8 607.2 L 234.1 624.4 L 233.9 648.3 L 192.8 607.2 L 245.9 554.1 Z" fill="#925e78" stroke="none" stroke-width="1"></path><path d="M 240.9 771.2 L 298.9 713.2 L 248.3 662.7 L 240.9 670.1 L 240.9 699.1 L 255.1 713.2 L 244.4 723.9 L 244.4 733.8 L 265 713.2 L 247.7 696 L 247.9 672.2 L 289 713.2 L 236 766.3 Z" fill="#925e78" stroke="none" stroke-width="1"></path><path d="M 240.9 655.3 L 182.9 713.2 L 233.5 763.8 L 240.9 756.4 L 240.9 727.4 L 226.7 713.2 L 237.4 702.6 L 237.4 692.7 L 216.8 713.2 L 234.1 730.5 L 233.9 754.3 L 192.8 713.2 L 245.9 660.2 Z" fill="#f05365" stroke="none" stroke-width="1"></path><path d="M 240.9 877.3 L 298.9 819.3 L 248.3 768.8 L 240.9 776.2 L 240.9 805.1 L 255.1 819.3 L 244.4 830 L 244.4 839.9 L 265 819.3 L 247.7 802.1 L 247.9 778.2 L 289 819.3 L 236 872.3 Z" fill="#f05365" stroke="none" stroke-width="1"></path><path d="M 240.9 761.3 L 182.9 819.3 L 233.5 869.9 L 240.9 862.4 L 240.9 833.5 L 226.7 819.3 L 237.4 808.6 L 237.4 798.7 L 216.8 819.3 L 234.1 836.6 L 233.9 860.4 L 192.8 819.3 L 245.9 766.3 Z" fill="#925e78" stroke="none" stroke-width="1"></path><path d="M 240.9 983.4 L 298.9 925.4 L 248.3 874.8 L 240.9 882.2 L 240.9 911.2 L 255.1 925.4 L 244.4 936.1 L 244.4 946 L 265 925.4 L 247.7 908.1 L 247.9 884.3 L 289 925.4 L 236 978.4 Z" fill="#925e78" stroke="none" stroke-width="1"></path><path d="M 240.9 867.4 L 182.9 925.4 L 233.5 975.9 L 240.9 968.5 L 240.9 939.6 L 226.7 925.4 L 237.4 914.7 L 237.4 904.8 L 216.8 925.4 L 234.1 942.6 L 233.9 966.5 L 192.8 925.4 L 245.9 872.3 Z" fill="#f05365" stroke="none" stroke-width="1"></path><path d="M 400 -236.4 L 458 -294.4 L 407.4 -344.9 L 400 -337.5 L 400 -308.6 L 414.2 -294.4 L 403.5 -283.7 L 403.5 -273.8 L 424.1 -294.4 L 406.8 -311.6 L 407 -335.5 L 448.1 -294.4 L 395.1 -241.3 Z" fill="#925e78" stroke="none" stroke-width="1"></path><path d="M 400 -352.4 L 342 -294.4 L 392.6 -243.8 L 400 -251.2 L 400 -280.2 L 385.8 -294.4 L 396.5 -305.1 L 396.5 -315 L 375.9 -294.4 L 393.2 -277.1 L 393 -253.3 L 351.9 -294.4 L 404.9 -347.4 Z" fill="#f05365" stroke="none" stroke-width="1"></path><path d="M 400 -130.3 L 458 -188.3 L 407.4 -238.9 L 400 -231.4 L 400 -202.5 L 414.2 -188.3 L 403.5 -177.6 L 403.5 -167.7 L 424.1 -188.3 L 406.8 -205.6 L 407 -229.4 L 448.1 -188.3 L 395.1 -135.3 Z" fill="#f05365" stroke="none" stroke-width="1"></path><path d="M 400 -246.3 L 342 -188.3 L 392.6 -137.8 L 400 -145.2 L 400 -174.1 L 385.8 -188.3 L 396.5 -199 L 396.5 -208.9 L 375.9 -188.3 L 393.2 -171.1 L 393 -147.2 L 351.9 -188.3 L 404.9 -241.3 Z" fill="#925e78" stroke="none" stroke-width="1"></path><path d="M 400 -24.3 L 458 -82.2 L 407.4 -132.8 L 400 -125.4 L 400 -96.4 L 414.2 -82.2 L 403.5 -71.6 L 403.5 -61.7 L 424.1 -82.2 L 406.8 -99.5 L 407 -123.3 L 448.1 -82.2 L 395.1 -29.2 Z" fill="#925e78" stroke="none" stroke-width="1"></path><path d="M 400 -140.2 L 342 -82.2 L 392.6 -31.7 L 400 -39.1 L 400 -68.1 L 385.8 -82.2 L 396.5 -92.9 L 396.5 -102.8 L 375.9 -82.2 L 393.2 -65 L 393 -41.2 L 351.9 -82.2 L 404.9 -135.3 Z" fill="#f05365" stroke="none" stroke-width="1"></path><path d="M 400 81.8 L 458 23.8 L 407.4 -26.7 L 400 -19.3 L 400 9.6 L 414.2 23.8 L 403.5 34.5 L 403.5 44.4 L 424.1 23.8 L 406.8 6.6 L 407 -17.3 L 448.1 23.8 L 395.1 76.9 Z" fill="#f05365" stroke="none" stroke-width="1"></path><path d="M 400 -34.2 L 342 23.8 L 392.6 74.4 L 400 67 L 400 38 L 385.8 23.8 L 396.5 13.1 L 396.5 3.2 L 375.9 23.8 L 393.2 41.1 L 393 64.9 L 351.9 23.8 L 404.9 -29.2 Z" fill="#925e78" stroke="none" stroke-width="1"></path><path d="M 400 187.9 L 458 129.9 L 407.4 79.3 L 400 86.8 L 400 115.7 L 414.2 129.9 L 403.5 140.6 L 403.5 150.5 L 424.1 129.9 L 406.8 112.6 L 407 88.8 L 448.1 129.9 L 395.1 182.9 Z" fill="#925e78" stroke="none" stroke-width="1"></path><path d="M 400 71.9 L 342 129.9 L 392.6 180.4 L 400 173 L 400 144.1 L 385.8 129.9 L 396.5 119.2 L 396.5 109.3 L 375.9 129.9 L 393.2 147.1 L 393 171 L 351.9 129.9 L 404.9 76.9 Z" fill="#f05365" stroke="none" stroke-width="1"></path><path d="M 400 293.9 L 458 236 L 407.4 185.4 L 400 192.8 L 400 221.8 L 414.2 236 L 403.5 246.6 L 403.5 256.5 L 424.1 236 L 406.8 218.7 L 407 194.9 L 448.1 236 L 395.1 289 Z" fill="#f05365" stroke="none" stroke-width="1"></path><path d="M 400 178 L 342 236 L 392.6 286.5 L 400 279.1 L 400 250.1 L 385.8 236 L 396.5 225.3 L 396.5 215.4 L 375.9 236 L 393.2 253.2 L 393 277 L 351.9 236 L 404.9 182.9 Z" fill="#925e78" stroke="none" stroke-width="1"></path><path d="M 400 400 L 458 342 L 407.4 291.5 L 400 298.9 L 400 327.8 L 414.2 342 L 403.5 352.7 L 403.5 362.6 L 424.1 342 L 406.8 324.8 L 407 300.9 L 448.1 342 L 395.1 395.1 Z" fill="#925e78" stroke="none" stroke-width="1"></path><path d="M 400 284 L 342 342 L 392.6 392.6 L 400 385.2 L 400 356.2 L 385.8 342 L 396.5 331.3 L 396.5 321.4 L 375.9 342 L 393.2 359.3 L 393 383.1 L 351.9 342 L 404.9 289 Z" fill="#f05365" stroke="none" stroke-width="1"></path><path d="M 400 506.1 L 458 448.1 L 407.4 397.5 L 400 404.9 L 400 433.9 L 414.2 448.1 L 403.5 458.8 L 403.5 468.7 L 424.1 448.1 L 406.8 430.8 L 407 407 L 448.1 448.1 L 395.1 501.1 Z" fill="#f05365" stroke="none" stroke-width="1"></path><path d="M 400 390.1 L 342 448.1 L 392.6 498.6 L 400 491.2 L 400 462.3 L 385.8 448.1 L 396.5 437.4 L 396.5 427.5 L 375.9 448.1 L 393.2 465.3 L 393 489.2 L 351.9 448.1 L 404.9 395.1 Z" fill="#925e78" stroke="none" stroke-width="1"></path><path d="M 400 612.1 L 458 554.1 L 407.4 503.6 L 400 511 L 400 540 L 414.2 554.1 L 403.5 564.8 L 403.5 574.7 L 424.1 554.1 L 406.8 536.9 L 407 513.1 L 448.1 554.1 L 395.1 607.2 Z" fill="#925e78" stroke="none" stroke-width="1"></path><path d="M 400 496.2 L 342 554.1 L 392.6 604.7 L 400 597.3 L 400 568.3 L 385.8 554.1 L 396.5 543.5 L 396.5 533.6 L 375.9 554.1 L 393.2 571.4 L 393 595.2 L 351.9 554.1 L 404.9 501.1 Z" fill="#f05365" stroke="none" stroke-width="1"></path><path d="M 400 718.2 L 458 660.2 L 407.4 609.7 L 400 617.1 L 400 646 L 414.2 660.2 L 403.5 670.9 L 403.5 680.8 L 424.1 660.2 L 406.8 643 L 407 619.1 L 448.1 660.2 L 395.1 713.2 Z" fill="#f05365" stroke="none" stroke-width="1"></path><path d="M 400 602.2 L 342 660.2 L 392.6 710.8 L 400 703.3 L 400 674.4 L 385.8 660.2 L 396.5 649.5 L 396.5 639.6 L 375.9 660.2 L 393.2 677.5 L 393 701.3 L 351.9 660.2 L 404.9 607.2 Z" fill="#925e78" stroke="none" stroke-width="1"></path><path d="M 400 824.3 L 458 766.3 L 407.4 715.7 L 400 723.1 L 400 752.1 L 414.2 766.3 L 403.5 777 L 403.5 786.9 L 424.1 766.3 L 406.8 749 L 407 725.2 L 448.1 766.3 L 395.1 819.3 Z" fill="#925e78" stroke="none" stroke-width="1"></path><path d="M 400 708.3 L 342 766.3 L 392.6 816.8 L 400 809.4 L 400 780.5 L 385.8 766.3 L 396.5 755.6 L 396.5 745.7 L 375.9 766.3 L 393.2 783.5 L 393 807.4 L 351.9 766.3 L 404.9 713.2 Z" fill="#f05365" stroke="none" stroke-width="1"></path><path d="M 400 930.3 L 458 872.3 L 407.4 821.8 L 400 829.2 L 400 858.2 L 414.2 872.3 L 403.5 883 L 403.5 892.9 L 424.1 872.3 L 406.8 855.1 L 407 831.3 L 448.1 872.3 L 395.1 925.4 Z" fill="#f05365" stroke="none" stroke-width="1"></path><path d="M 400 814.4 L 342 872.3 L 392.6 922.9 L 400 915.5 L 400 886.5 L 385.8 872.3 L 396.5 861.7 L 396.5 851.8 L 375.9 872.3 L 393.2 889.6 L 393 913.4 L 351.9 872.3 L 404.9 819.3 Z" fill="#925e78" stroke="none" stroke-width="1"></path><path d="M 400 1036.4 L 458 978.4 L 407.4 927.9 L 400 935.3 L 400 964.2 L 414.2 978.4 L 403.5 989.1 L 403.5 999 L 424.1 978.4 L 406.8 961.2 L 407 937.3 L 448.1 978.4 L 395.1 1031.4 Z" fill="#925e78" stroke="none" stroke-width="1"></path><path d="M 400 920.4 L 342 978.4 L 392.6 1029 L 400 1021.5 L 400 992.6 L 385.8 978.4 L 396.5 967.7 L 396.5 957.8 L 375.9 978.4 L 393.2 995.7 L 393 1019.5 L 351.9 978.4 L 404.9 925.4 Z" fill="#f05365" stroke="none" stroke-width="1"></path><path d="M 559.1 -183.4 L 617.1 -241.3 L 566.5 -291.9 L 559.1 -284.5 L 559.1 -255.5 L 573.3 -241.3 L 562.6 -230.7 L 562.6 -220.8 L 583.2 -241.3 L 565.9 -258.6 L 566.1 -282.4 L 607.2 -241.3 L 554.1 -188.3 Z" fill="#925e78" stroke="none" stroke-width="1"></path><path d="M 559.1 -299.3 L 501.1 -241.3 L 551.7 -190.8 L 559.1 -198.2 L 559.1 -227.2 L 544.9 -241.3 L 555.6 -252 L 555.6 -261.9 L 535 -241.3 L 552.3 -224.1 L 552.1 -200.3 L 511 -241.3 L 564 -294.4 Z" fill="#f05365" stroke="none" stroke-width="1"></path><path d="M 559.1 -77.3 L 617.1 -135.3 L 566.5 -185.8 L 559.1 -178.4 L 559.1 -149.5 L 573.3 -135.3 L 562.6 -124.6 L 562.6 -114.7 L 583.2 -135.3 L 565.9 -152.5 L 566.1 -176.4 L 607.2 -135.3 L 554.1 -82.2 Z" fill="#f05365" stroke="none" stroke-width="1"></path><path d="M 559.1 -193.3 L 501.1 -135.3 L 551.7 -84.7 L 559.1 -92.1 L 559.1 -121.1 L 544.9 -135.3 L 555.6 -146 L 555.6 -155.9 L 535 -135.3 L 552.3 -118 L 552.1 -94.2 L 511 -135.3 L 564 -188.3 Z" fill="#925e78" stroke="none" stroke-width="1"></path><path d="M 559.1 28.8 L 617.1 -29.2 L 566.5 -79.8 L 559.1 -72.3 L 559.1 -43.4 L 573.3 -29.2 L 562.6 -18.5 L 562.6 -8.6 L 583.2 -29.2 L 565.9 -46.5 L 566.1 -70.3 L 607.2 -29.2 L 554.1 23.8 Z" fill="#925e78" stroke="none" stroke-width="1"></path><path d="M 559.1 -87.2 L 501.1 -29.2 L 551.7 21.3 L 559.1 13.9 L 559.1 -15 L 544.9 -29.2 L 555.6 -39.9 L 555.6 -49.8 L 535 -29.2 L 552.3 -12 L 552.1 11.9 L 511 -29.2 L 564 -82.2 Z" fill="#f05365" stroke="none" stroke-width="1"></path><path d="M 559.1 134.8 L 617.1 76.9 L 566.5 26.3 L 559.1 33.7 L 559.1 62.7 L 573.3 76.9 L 562.6 87.5 L 562.6 97.4 L 583.2 76.9 L 565.9 59.6 L 566.1 35.8 L 607.2 76.9 L 554.1 129.9 Z" fill="#f05365" stroke="none" stroke-width="1"></path><path d="M 559.1 18.9 L 501.1 76.9 L 551.7 127.4 L 559.1 120 L 559.1 91 L 544.9 76.9 L 555.6 66.2 L 555.6 56.3 L 535 76.9 L 552.3 94.1 L 552.1 117.9 L 511 76.9 L 564 23.8 Z" fill="#925e78" stroke="none" stroke-width="1"></path><path d="M 559.1 240.9 L 617.1 182.9 L 566.5 132.4 L 559.1 139.8 L 559.1 168.7 L 573.3 182.9 L 562.6 193.6 L 562.6 203.5 L 583.2 182.9 L 565.9 165.7 L 566.1 141.8 L 607.2 182.9 L 554.1 236 Z" fill="#925e78" stroke="none" stroke-width="1"></path><path d="M 559.1 124.9 L 501.1 182.9 L 551.7 233.5 L 559.1 226.1 L 559.1 197.1 L 544.9 182.9 L 555.6 172.2 L 555.6 162.3 L 535 182.9 L 552.3 200.2 L 552.1 224 L 511 182.9 L 564 129.9 Z" fill="#f05365" stroke="none" stroke-width="1"></path><path d="M 559.1 347 L 617.1 289 L 566.5 238.4 L 559.1 245.9 L 559.1 274.8 L 573.3 289 L 562.6 299.7 L 562.6 309.6 L 583.2 289 L 565.9 271.7 L 566.1 247.9 L 607.2 289 L 554.1 342 Z" fill="#f05365" stroke="none" stroke-width="1"></path><path d="M 559.1 231 L 501.1 289 L 551.7 339.5 L 559.1 332.1 L 559.1 303.2 L 544.9 289 L 555.6 278.3 L 555.6 268.4 L 535 289 L 552.3 306.2 L 552.1 330.1 L 511 289 L 564 236 Z" fill="#925e78" stroke="none" stroke-width="1"></path><path d="M 559.1 453 L 617.1 395.1 L 566.5 344.5 L 559.1 351.9 L 559.1 380.9 L 573.3 395.1 L 562.6 405.7 L 562.6 415.6 L 583.2 395.1 L 565.9 377.8 L 566.1 354 L 607.2 395.1 L 554.1 448.1 Z" fill="#925e78" stroke="none" stroke-width="1"></path><path d="M 559.1 337.1 L 501.1 395.1 L 551.7 445.6 L 559.1 438.2 L 559.1 409.2 L 544.9 395.1 L 555.6 384.4 L 555.6 374.5 L 535 395.1 L 552.3 412.3 L 552.1 436.1 L 511 395.1 L 564 342 Z" fill="#f05365" stroke="none" stroke-width="1"></path><path d="M 559.1 559.1 L 617.1 501.1 L 566.5 450.6 L 559.1 458 L 559.1 486.9 L 573.3 501.1 L 562.6 511.8 L 562.6 521.7 L 583.2 501.1 L 565.9 483.9 L 566.1 460 L 607.2 501.1 L 554.1 554.1 Z" fill="#f05365" stroke="none" stroke-width="1"></path><path d="M 559.1 443.1 L 501.1 501.1 L 551.7 551.7 L 559.1 544.2 L 559.1 515.3 L 544.9 501.1 L 555.6 490.4 L 555.6 480.5 L 535 501.1 L 552.3 518.4 L 552.1 542.2 L 511 501.1 L 564 448.1 Z" fill="#925e78" stroke="none" stroke-width="1"></path><path d="M 559.1 665.2 L 617.1 607.2 L 566.5 556.6 L 559.1 564 L 559.1 593 L 573.3 607.2 L 562.6 617.9 L 562.6 627.8 L 583.2 607.2 L 565.9 589.9 L 566.1 566.1 L 607.2 607.2 L 554.1 660.2 Z" fill="#925e78" stroke="none" stroke-width="1"></path><path d="M 559.1 549.2 L 501.1 607.2 L 551.7 657.7 L 559.1 650.3 L 559.1 621.4 L 544.9 607.2 L 555.6 596.5 L 555.6 586.6 L 535 607.2 L 552.3 624.4 L 552.1 648.3 L 511 607.2 L 564 554.1 Z" fill="#f05365" stroke="none" stroke-width="1"></path><path d="M 559.1 771.2 L 617.1 713.2 L 566.5 662.7 L 559.1 670.1 L 559.1 699.1 L 573.3 713.2 L 562.6 723.9 L 562.6 733.8 L 583.2 713.2 L 565.9 696 L 566.1 672.2 L 607.2 713.2 L 554.1 766.3 Z" fill="#f05365" stroke="none" stroke-width="1"></path><path d="M 559.1 655.3 L 501.1 713.2 L 551.7 763.8 L 559.1 756.4 L 559.1 727.4 L 544.9 713.2 L 555.6 702.6 L 555.6 692.7 L 535 713.2 L 552.3 730.5 L 552.1 754.3 L 511 713.2 L 564 660.2 Z" fill="#925e78" stroke="none" stroke-width="1"></path><path d="M 559.1 877.3 L 617.1 819.3 L 566.5 768.8 L 559.1 776.2 L 559.1 805.1 L 573.3 819.3 L 562.6 830 L 562.6 839.9 L 583.2 819.3 L 565.9 802.1 L 566.1 778.2 L 607.2 819.3 L 554.1 872.3 Z" fill="#925e78" stroke="none" stroke-width="1"></path><path d="M 559.1 761.3 L 501.1 819.3 L 551.7 869.9 L 559.1 862.4 L 559.1 833.5 L 544.9 819.3 L 555.6 808.6 L 555.6 798.7 L 535 819.3 L 552.3 836.6 L 552.1 860.4 L 511 819.3 L 564 766.3 Z" fill="#f05365" stroke="none" stroke-width="1"></path><path d="M 559.1 983.4 L 617.1 925.4 L 566.5 874.8 L 559.1 882.2 L 559.1 911.2 L 573.3 925.4 L 562.6 936.1 L 562.6 946 L 583.2 925.4 L 565.9 908.1 L 566.1 884.3 L 607.2 925.4 L 554.1 978.4 Z" fill="#f05365" stroke="none" stroke-width="1"></path><path d="M 559.1 867.4 L 501.1 925.4 L 551.7 975.9 L 559.1 968.5 L 559.1 939.6 L 544.9 925.4 L 555.6 914.7 L 555.6 904.8 L 535 925.4 L 552.3 942.6 L 552.1 966.5 L 511 925.4 L 564 872.3 Z" fill="#925e78" stroke="none" stroke-width="1"></path><path d="M 559.1 1089.4 L 617.1 1031.4 L 566.5 980.9 L 559.1 988.3 L 559.1 1017.3 L 573.3 1031.4 L 562.6 1042.1 L 562.6 1052 L 583.2 1031.4 L 565.9 1014.2 L 566.1 990.4 L 607.2 1031.4 L 554.1 1084.5 Z" fill="#925e78" stroke="none" stroke-width="1"></path><path d="M 559.1 973.5 L 501.1 1031.4 L 551.7 1082 L 559.1 1074.6 L 559.1 1045.6 L 544.9 1031.4 L 555.6 1020.8 L 555.6 1010.9 L 535 1031.4 L 552.3 1048.7 L 552.1 1072.5 L 511 1031.4 L 564 978.4 Z" fill="#f05365" stroke="none" stroke-width="1"></path><path d="M 718.2 -130.3 L 776.2 -188.3 L 725.6 -238.9 L 718.2 -231.4 L 718.2 -202.5 L 732.4 -188.3 L 721.7 -177.6 L 721.7 -167.7 L 742.3 -188.3 L 725 -205.6 L 725.2 -229.4 L 766.3 -188.3 L 713.2 -135.3 Z" fill="#925e78" stroke="none" stroke-width="1"></path><path d="M 718.2 -246.3 L 660.2 -188.3 L 710.8 -137.8 L 718.2 -145.2 L 718.2 -174.1 L 704 -188.3 L 714.7 -199 L 714.7 -208.9 L 694.1 -188.3 L 711.4 -171.1 L 711.2 -147.2 L 670.1 -188.3 L 723.1 -241.3 Z" fill="#f05365" stroke="none" stroke-width="1"></path><path d="M 718.2 -24.3 L 776.2 -82.2 L 725.6 -132.8 L 718.2 -125.4 L 718.2 -96.4 L 732.4 -82.2 L 721.7 -71.6 L 721.7 -61.7 L 742.3 -82.2 L 725 -99.5 L 725.2 -123.3 L 766.3 -82.2 L 713.2 -29.2 Z" fill="#f05365" stroke="none" stroke-width="1"></path><path d="M 718.2 -140.2 L 660.2 -82.2 L 710.8 -31.7 L 718.2 -39.1 L 718.2 -68.1 L 704 -82.2 L 714.7 -92.9 L 714.7 -102.8 L 694.1 -82.2 L 711.4 -65 L 711.2 -41.2 L 670.1 -82.2 L 723.1 -135.3 Z" fill="#925e78" stroke="none" stroke-width="1"></path><path d="M 718.2 81.8 L 776.2 23.8 L 725.6 -26.7 L 718.2 -19.3 L 718.2 9.6 L 732.4 23.8 L 721.7 34.5 L 721.7 44.4 L 742.3 23.8 L 725 6.6 L 725.2 -17.3 L 766.3 23.8 L 713.2 76.9 Z" fill="#925e78" stroke="none" stroke-width="1"></path><path d="M 718.2 -34.2 L 660.2 23.8 L 710.8 74.4 L 718.2 67 L 718.2 38 L 704 23.8 L 714.7 13.1 L 714.7 3.2 L 694.1 23.8 L 711.4 41.1 L 711.2 64.9 L 670.1 23.8 L 723.1 -29.2 Z" fill="#f05365" stroke="none" stroke-width="1"></path><path d="M 718.2 187.9 L 776.2 129.9 L 725.6 79.3 L 718.2 86.8 L 718.2 115.7 L 732.4 129.9 L 721.7 140.6 L 721.7 150.5 L 742.3 129.9 L 725 112.6 L 725.2 88.8 L 766.3 129.9 L 713.2 182.9 Z" fill="#f05365" stroke="none" stroke-width="1"></path><path d="M 718.2 71.9 L 660.2 129.9 L 710.8 180.4 L 718.2 173 L 718.2 144.1 L 704 129.9 L 714.7 119.2 L 714.7 109.3 L 694.1 129.9 L 711.4 147.1 L 711.2 171 L 670.1 129.9 L 723.1 76.9 Z" fill="#925e78" stroke="none" stroke-width="1"></path><path d="M 718.2 293.9 L 776.2 236 L 725.6 185.4 L 718.2 192.8 L 718.2 221.8 L 732.4 236 L 721.7 246.6 L 721.7 256.5 L 742.3 236 L 725 218.7 L 725.2 194.9 L 766.3 236 L 713.2 289 Z" fill="#925e78" stroke="none" stroke-width="1"></path><path d="M 718.2 178 L 660.2 236 L 710.8 286.5 L 718.2 279.1 L 718.2 250.1 L 704 236 L 714.7 225.3 L 714.7 215.4 L 694.1 236 L 711.4 253.2 L 711.2 277 L 670.1 236 L 723.1 182.9 Z" fill="#f05365" stroke="none" stroke-width="1"></path><path d="M 718.2 400 L 776.2 342 L 725.6 291.5 L 718.2 298.9 L 718.2 327.8 L 732.4 342 L 721.7 352.7 L 721.7 362.6 L 742.3 342 L 725 324.8 L 725.2 300.9 L 766.3 342 L 713.2 395.1 Z" fill="#f05365" stroke="none" stroke-width="1"></path><path d="M 718.2 284 L 660.2 342 L 710.8 392.6 L 718.2 385.2 L 718.2 356.2 L 704 342 L 714.7 331.3 L 714.7 321.4 L 694.1 342 L 711.4 359.3 L 711.2 383.1 L 670.1 342 L 723.1 289 Z" fill="#925e78" stroke="none" stroke-width="1"></path><path d="M 718.2 506.1 L 776.2 448.1 L 725.6 397.5 L 718.2 404.9 L 718.2 433.9 L 732.4 448.1 L 721.7 458.8 L 721.7 468.7 L 742.3 448.1 L 725 430.8 L 725.2 407 L 766.3 448.1 L 713.2 501.1 Z" fill="#925e78" stroke="none" stroke-width="1"></path><path d="M 718.2 390.1 L 660.2 448.1 L 710.8 498.6 L 718.2 491.2 L 718.2 462.3 L 704 448.1 L 714.7 437.4 L 714.7 427.5 L 694.1 448.1 L 711.4 465.3 L 711.2 489.2 L 670.1 448.1 L 723.1 395.1 Z" fill="#f05365" stroke="none" stroke-width="1"></path><path d="M 718.2 612.1 L 776.2 554.1 L 725.6 503.6 L 718.2 511 L 718.2 540 L 732.4 554.1 L 721.7 564.8 L 721.7 574.7 L 742.3 554.1 L 725 536.9 L 725.2 513.1 L 766.3 554.1 L 713.2 607.2 Z" fill="#f05365" stroke="none" stroke-width="1"></path><path d="M 718.2 496.2 L 660.2 554.1 L 710.8 604.7 L 718.2 597.3 L 718.2 568.3 L 704 554.1 L 714.7 543.5 L 714.7 533.6 L 694.1 554.1 L 711.4 571.4 L 711.2 595.2 L 670.1 554.1 L 723.1 501.1 Z" fill="#925e78" stroke="none" stroke-width="1"></path><path d="M 718.2 718.2 L 776.2 660.2 L 725.6 609.7 L 718.2 617.1 L 718.2 646 L 732.4 660.2 L 721.7 670.9 L 721.7 680.8 L 742.3 660.2 L 725 643 L 725.2 619.1 L 766.3 660.2 L 713.2 713.2 Z" fill="#925e78" stroke="none" stroke-width="1"></path><path d="M 718.2 602.2 L 660.2 660.2 L 710.8 710.8 L 718.2 703.3 L 718.2 674.4 L 704 660.2 L 714.7 649.5 L 714.7 639.6 L 694.1 660.2 L 711.4 677.5 L 711.2 701.3 L 670.1 660.2 L 723.1 607.2 Z" fill="#f05365" stroke="none" stroke-width="1"></path><path d="M 718.2 824.3 L 776.2 766.3 L 725.6 715.7 L 718.2 723.1 L 718.2 752.1 L 732.4 766.3 L 721.7 777 L 721.7 786.9 L 742.3 766.3 L 725 749 L 725.2 725.2 L 766.3 766.3 L 713.2 819.3 Z" fill="#f05365" stroke="none" stroke-width="1"></path><path d="M 718.2 708.3 L 660.2 766.3 L 710.8 816.8 L 718.2 809.4 L 718.2 780.5 L 704 766.3 L 714.7 755.6 L 714.7 745.7 L 694.1 766.3 L 711.4 783.5 L 711.2 807.4 L 670.1 766.3 L 723.1 713.2 Z" fill="#925e78" stroke="none" stroke-width="1"></path><path d="M 718.2 930.3 L 776.2 872.3 L 725.6 821.8 L 718.2 829.2 L 718.2 858.2 L 732.4 872.3 L 721.7 883 L 721.7 892.9 L 742.3 872.3 L 725 855.1 L 725.2 831.3 L 766.3 872.3 L 713.2 925.4 Z" fill="#925e78" stroke="none" stroke-width="1"></path><path d="M 718.2 814.4 L 660.2 872.3 L 710.8 922.9 L 718.2 915.5 L 718.2 886.5 L 704 872.3 L 714.7 861.7 L 714.7 851.8 L 694.1 872.3 L 711.4 889.6 L 711.2 913.4 L 670.1 872.3 L 723.1 819.3 Z" fill="#f05365" stroke="none" stroke-width="1"></path><path d="M 718.2 1036.4 L 776.2 978.4 L 725.6 927.9 L 718.2 935.3 L 718.2 964.2 L 732.4 978.4 L 721.7 989.1 L 721.7 999 L 742.3 978.4 L 725 961.2 L 725.2 937.3 L 766.3 978.4 L 713.2 1031.4 Z" fill="#f05365" stroke="none" stroke-width="1"></path><path d="M 718.2 920.4 L 660.2 978.4 L 710.8 1029 L 718.2 1021.5 L 718.2 992.6 L 704 978.4 L 714.7 967.7 L 714.7 957.8 L 694.1 978.4 L 711.4 995.7 L 711.2 1019.5 L 670.1 978.4 L 723.1 925.4 Z" fill="#925e78" stroke="none" stroke-width="1"></path><path d="M 718.2 1142.5 L 776.2 1084.5 L 725.6 1033.9 L 718.2 1041.3 L 718.2 1070.3 L 732.4 1084.5 L 721.7 1095.2 L 721.7 1105.1 L 742.3 1084.5 L 725 1067.2 L 725.2 1043.4 L 766.3 1084.5 L 713.2 1137.5 Z" fill="#925e78" stroke="none" stroke-width="1"></path><path d="M 718.2 1026.5 L 660.2 1084.5 L 710.8 1135 L 718.2 1127.6 L 718.2 1098.7 L 704 1084.5 L 714.7 1073.8 L 714.7 1063.9 L 694.1 1084.5 L 711.4 1101.7 L 711.2 1125.6 L 670.1 1084.5 L 723.1 1031.4 Z" fill="#f05365" stroke="none" stroke-width="1"></path><path d="M 877.3 -77.3 L 935.3 -135.3 L 884.7 -185.8 L 877.3 -178.4 L 877.3 -149.5 L 891.5 -135.3 L 880.8 -124.6 L 880.8 -114.7 L 901.4 -135.3 L 884.1 -152.5 L 884.3 -176.4 L 925.4 -135.3 L 872.3 -82.2 Z" fill="#925e78" stroke="none" stroke-width="1"></path><path d="M 877.3 -193.3 L 819.3 -135.3 L 869.9 -84.7 L 877.3 -92.1 L 877.3 -121.1 L 863.1 -135.3 L 873.8 -146 L 873.8 -155.9 L 853.2 -135.3 L 870.5 -118 L 870.3 -94.2 L 829.2 -135.3 L 882.2 -188.3 Z" fill="#f05365" stroke="none" stroke-width="1"></path><path d="M 877.3 28.8 L 935.3 -29.2 L 884.7 -79.8 L 877.3 -72.3 L 877.3 -43.4 L 891.5 -29.2 L 880.8 -18.5 L 880.8 -8.6 L 901.4 -29.2 L 884.1 -46.5 L 884.3 -70.3 L 925.4 -29.2 L 872.3 23.8 Z" fill="#f05365" stroke="none" stroke-width="1"></path><path d="M 877.3 -87.2 L 819.3 -29.2 L 869.9 21.3 L 877.3 13.9 L 877.3 -15 L 863.1 -29.2 L 873.8 -39.9 L 873.8 -49.8 L 853.2 -29.2 L 870.5 -12 L 870.3 11.9 L 829.2 -29.2 L 882.2 -82.2 Z" fill="#925e78" stroke="none" stroke-width="1"></path><path d="M 877.3 134.8 L 935.3 76.9 L 884.7 26.3 L 877.3 33.7 L 877.3 62.7 L 891.5 76.9 L 880.8 87.5 L 880.8 97.4 L 901.4 76.9 L 884.1 59.6 L 884.3 35.8 L 925.4 76.9 L 872.3 129.9 Z" fill="#925e78" stroke="none" stroke-width="1"></path><path d="M 877.3 18.9 L 819.3 76.9 L 869.9 127.4 L 877.3 120 L 877.3 91 L 863.1 76.9 L 873.8 66.2 L 873.8 56.3 L 853.2 76.9 L 870.5 94.1 L 870.3 117.9 L 829.2 76.9 L 882.2 23.8 Z" fill="#f05365" stroke="none" stroke-width="1"></path><path d="M 877.3 240.9 L 935.3 182.9 L 884.7 132.4 L 877.3 139.8 L 877.3 168.7 L 891.5 182.9 L 880.8 193.6 L 880.8 203.5 L 901.4 182.9 L 884.1 165.7 L 884.3 141.8 L 925.4 182.9 L 872.3 236 Z" fill="#f05365" stroke="none" stroke-width="1"></path><path d="M 877.3 124.9 L 819.3 182.9 L 869.9 233.5 L 877.3 226.1 L 877.3 197.1 L 863.1 182.9 L 873.8 172.2 L 873.8 162.3 L 853.2 182.9 L 870.5 200.2 L 870.3 224 L 829.2 182.9 L 882.2 129.9 Z" fill="#925e78" stroke="none" stroke-width="1"></path><path d="M 877.3 347 L 935.3 289 L 884.7 238.4 L 877.3 245.9 L 877.3 274.8 L 891.5 289 L 880.8 299.7 L 880.8 309.6 L 901.4 289 L 884.1 271.7 L 884.3 247.9 L 925.4 289 L 872.3 342 Z" fill="#925e78" stroke="none" stroke-width="1"></path><path d="M 877.3 231 L 819.3 289 L 869.9 339.5 L 877.3 332.1 L 877.3 303.2 L 863.1 289 L 873.8 278.3 L 873.8 268.4 L 853.2 289 L 870.5 306.2 L 870.3 330.1 L 829.2 289 L 882.2 236 Z" fill="#f05365" stroke="none" stroke-width="1"></path><path d="M 877.3 453 L 935.3 395.1 L 884.7 344.5 L 877.3 351.9 L 877.3 380.9 L 891.5 395.1 L 880.8 405.7 L 880.8 415.6 L 901.4 395.1 L 884.1 377.8 L 884.3 354 L 925.4 395.1 L 872.3 448.1 Z" fill="#f05365" stroke="none" stroke-width="1"></path><path d="M 877.3 337.1 L 819.3 395.1 L 869.9 445.6 L 877.3 438.2 L 877.3 409.2 L 863.1 395.1 L 873.8 384.4 L 873.8 374.5 L 853.2 395.1 L 870.5 412.3 L 870.3 436.1 L 829.2 395.1 L 882.2 342 Z" fill="#925e78" stroke="none" stroke-width="1"></path><path d="M 877.3 559.1 L 935.3 501.1 L 884.7 450.6 L 877.3 458 L 877.3 486.9 L 891.5 501.1 L 880.8 511.8 L 880.8 521.7 L 901.4 501.1 L 884.1 483.9 L 884.3 460 L 925.4 501.1 L 872.3 554.1 Z" fill="#925e78" stroke="none" stroke-width="1"></path><path d="M 877.3 443.1 L 819.3 501.1 L 869.9 551.7 L 877.3 544.2 L 877.3 515.3 L 863.1 501.1 L 873.8 490.4 L 873.8 480.5 L 853.2 501.1 L 870.5 518.4 L 870.3 542.2 L 829.2 501.1 L 882.2 448.1 Z" fill="#f05365" stroke="none" stroke-width="1"></path><path d="M 877.3 665.2 L 935.3 607.2 L 884.7 556.6 L 877.3 564 L 877.3 593 L 891.5 607.2 L 880.8 617.9 L 880.8 627.8 L 901.4 607.2 L 884.1 589.9 L 884.3 566.1 L 925.4 607.2 L 872.3 660.2 Z" fill="#f05365" stroke="none" stroke-width="1"></path><path d="M 877.3 549.2 L 819.3 607.2 L 869.9 657.7 L 877.3 650.3 L 877.3 621.4 L 863.1 607.2 L 873.8 596.5 L 873.8 586.6 L 853.2 607.2 L 870.5 624.4 L 870.3 648.3 L 829.2 607.2 L 882.2 554.1 Z" fill="#925e78" stroke="none" stroke-width="1"></path><path d="M 877.3 771.2 L 935.3 713.2 L 884.7 662.7 L 877.3 670.1 L 877.3 699.1 L 891.5 713.2 L 880.8 723.9 L 880.8 733.8 L 901.4 713.2 L 884.1 696 L 884.3 672.2 L 925.4 713.2 L 872.3 766.3 Z" fill="#925e78" stroke="none" stroke-width="1"></path><path d="M 877.3 655.3 L 819.3 713.2 L 869.9 763.8 L 877.3 756.4 L 877.3 727.4 L 863.1 713.2 L 873.8 702.6 L 873.8 692.7 L 853.2 713.2 L 870.5 730.5 L 870.3 754.3 L 829.2 713.2 L 882.2 660.2 Z" fill="#f05365" stroke="none" stroke-width="1"></path><path d="M 877.3 877.3 L 935.3 819.3 L 884.7 768.8 L 877.3 776.2 L 877.3 805.1 L 891.5 819.3 L 880.8 830 L 880.8 839.9 L 901.4 819.3 L 884.1 802.1 L 884.3 778.2 L 925.4 819.3 L 872.3 872.3 Z" fill="#f05365" stroke="none" stroke-width="1"></path><path d="M 877.3 761.3 L 819.3 819.3 L 869.9 869.9 L 877.3 862.4 L 877.3 833.5 L 863.1 819.3 L 873.8 808.6 L 873.8 798.7 L 853.2 819.3 L 870.5 836.6 L 870.3 860.4 L 829.2 819.3 L 882.2 766.3 Z" fill="#925e78" stroke="none" stroke-width="1"></path><path d="M 877.3 983.4 L 935.3 925.4 L 884.7 874.8 L 877.3 882.2 L 877.3 911.2 L 891.5 925.4 L 880.8 936.1 L 880.8 946 L 901.4 925.4 L 884.1 908.1 L 884.3 884.3 L 925.4 925.4 L 872.3 978.4 Z" fill="#925e78" stroke="none" stroke-width="1"></path><path d="M 877.3 867.4 L 819.3 925.4 L 869.9 975.9 L 877.3 968.5 L 877.3 939.6 L 863.1 925.4 L 873.8 914.7 L 873.8 904.8 L 853.2 925.4 L 870.5 942.6 L 870.3 966.5 L 829.2 925.4 L 882.2 872.3 Z" fill="#f05365" stroke="none" stroke-width="1"></path><path d="M 877.3 1089.4 L 935.3 1031.4 L 884.7 980.9 L 877.3 988.3 L 877.3 1017.3 L 891.5 1031.4 L 880.8 1042.1 L 880.8 1052 L 901.4 1031.4 L 884.1 1014.2 L 884.3 990.4 L 925.4 1031.4 L 872.3 1084.5 Z" fill="#f05365" stroke="none" stroke-width="1"></path><path d="M 877.3 973.5 L 819.3 1031.4 L 869.9 1082 L 877.3 1074.6 L 877.3 1045.6 L 863.1 1031.4 L 873.8 1020.8 L 873.8 1010.9 L 853.2 1031.4 L 870.5 1048.7 L 870.3 1072.5 L 829.2 1031.4 L 882.2 978.4 Z" fill="#925e78" stroke="none" stroke-width="1"></path><path d="M 877.3 1195.5 L 935.3 1137.5 L 884.7 1087 L 877.3 1094.4 L 877.3 1123.3 L 891.5 1137.5 L 880.8 1148.2 L 880.8 1158.1 L 901.4 1137.5 L 884.1 1120.3 L 884.3 1096.4 L 925.4 1137.5 L 872.3 1190.5 Z" fill="#925e78" stroke="none" stroke-width="1"></path><path d="M 877.3 1079.5 L 819.3 1137.5 L 869.9 1188.1 L 877.3 1180.6 L 877.3 1151.7 L 863.1 1137.5 L 873.8 1126.8 L 873.8 1116.9 L 853.2 1137.5 L 870.5 1154.8 L 870.3 1178.6 L 829.2 1137.5 L 882.2 1084.5 Z" fill="#f05365" stroke="none" stroke-width="1"></path><ellipse cx="400" cy="400" rx="600" ry="600" fill="none" stroke="white" stroke-width="560"></ellipse><ellipse cx="400" cy="400" rx="320" ry="320" fill="none" stroke="#925e78" stroke-width="7"></ellipse></svg>