<svg viewBox="0 0 800 800" preserveAspectRatio="xMidYMin slice" xmlns="http://www.w3.org/2000/svg"><path d="M -127.4 -19.5 Q -133.8 6.3, -92.6 9.5 Q -86.2 -16.3, -127.4 -19.5 Z" fill="#227C9D" stroke="black" stroke-width="4"></path><path d="M -32.6 -19.5 Q -26.2 6.3, -67.4 9.5 Q -73.8 -16.3, -32.6 -19.5 Z" fill="#227C9D" stroke="black" stroke-width="4"></path><path d="M -110 -50 Q -124.3 -32.1, -127.4 -19.5 Q -86.2 -16.3, -92.6 9.5 Q -86.8 10, -80 10 Q -73.2 10, -67.4 9.5 Q -73.8 -16.3, -32.6 -19.5 Q -35.7 -32.1, -50 -50 Q -64.3 -67.9, -67.4 -80.5 Q -73.2 -80, -80 -80 Q -86.8 -80, -92.6 -80.5 Q -95.7 -67.9, -110 -50 Z" fill="#17c3b2" stroke="black" stroke-width="4"></path><path d="M -50 -50 Q -64.3 -67.9, -67.4 -80.5 Q -26.2 -83.7, -32.6 -109.5 Q -26.8 -110, -20 -110 Q -13.2 -110, -7.4 -109.5 Q -13.8 -83.7, 27.4 -80.5 Q 24.3 -67.9, 10 -50 Q -4.3 -32.1, -7.4 -19.5 Q -13.2 -20, -20 -20 Q -26.8 -20, -32.6 -19.5 Q -35.7 -32.1, -50 -50 Z" fill="#17c3b2" stroke="black" stroke-width="4"></path><path d="M -127.4 70.5 Q -133.8 96.3, -92.6 99.5 Q -86.2 73.7, -127.4 70.5 Z" fill="#17c3b2" stroke="black" stroke-width="4"></path><path d="M -32.6 70.5 Q -26.2 96.3, -67.4 99.5 Q -73.8 73.7, -32.6 70.5 Z" fill="#17c3b2" stroke="black" stroke-width="4"></path><path d="M -110 40 Q -124.3 57.9, -127.4 70.5 Q -86.2 73.7, -92.6 99.5 Q -86.8 100, -80 100 Q -73.2 100, -67.4 99.5 Q -73.8 73.7, -32.6 70.5 Q -35.7 57.9, -50 40 Q -64.3 22.1, -67.4 9.5 Q -73.2 10, -80 10 Q -86.8 10, -92.6 9.5 Q -95.7 22.1, -110 40 Z" fill="#fef9ef" stroke="black" stroke-width="4"></path><path d="M -50 40 Q -64.3 22.1, -67.4 9.5 Q -26.2 6.3, -32.6 -19.5 Q -26.8 -20, -20 -20 Q -13.2 -20, -7.4 -19.5 Q -13.8 6.3, 27.4 9.5 Q 24.3 22.1, 10 40 Q -4.3 57.9, -7.4 70.5 Q -13.2 70, -20 70 Q -26.8 70, -32.6 70.5 Q -35.7 57.9, -50 40 Z" fill="#fef9ef" stroke="black" stroke-width="4"></path><path d="M -127.4 160.5 Q -133.8 186.3, -92.6 189.5 Q -86.2 163.7, -127.4 160.5 Z" fill="#fef9ef" stroke="black" stroke-width="4"></path><path d="M -32.6 160.5 Q -26.2 186.3, -67.4 189.5 Q -73.8 163.7, -32.6 160.5 Z" fill="#fef9ef" stroke="black" stroke-width="4"></path><path d="M -110 130 Q -124.3 147.9, -127.4 160.5 Q -86.2 163.7, -92.6 189.5 Q -86.8 190, -80 190 Q -73.2 190, -67.4 189.5 Q -73.8 163.7, -32.6 160.5 Q -35.7 147.9, -50 130 Q -64.3 112.1, -67.4 99.5 Q -73.2 100, -80 100 Q -86.8 100, -92.6 99.5 Q -95.7 112.1, -110 130 Z" fill="#FFCB77" stroke="black" stroke-width="4"></path><path d="M -50 130 Q -64.3 112.1, -67.4 99.5 Q -26.2 96.3, -32.6 70.5 Q -26.8 70, -20 70 Q -13.2 70, -7.4 70.5 Q -13.8 96.3, 27.4 99.5 Q 24.3 112.1, 10 130 Q -4.3 147.9, -7.4 160.5 Q -13.2 160, -20 160 Q -26.8 160, -32.6 160.5 Q -35.7 147.9, -50 130 Z" fill="#FFCB77" stroke="black" stroke-width="4"></path><path d="M -127.4 250.5 Q -133.8 276.3, -92.6 279.5 Q -86.2 253.7, -127.4 250.5 Z" fill="#FFCB77" stroke="black" stroke-width="4"></path><path d="M -32.6 250.5 Q -26.2 276.3, -67.4 279.5 Q -73.8 253.7, -32.6 250.5 Z" fill="#FFCB77" stroke="black" stroke-width="4"></path><path d="M -110 220 Q -124.3 237.9, -127.4 250.5 Q -86.2 253.7, -92.6 279.5 Q -86.8 280, -80 280 Q -73.2 280, -67.4 279.5 Q -73.8 253.7, -32.6 250.5 Q -35.7 237.9, -50 220 Q -64.3 202.1, -67.4 189.5 Q -73.2 190, -80 190 Q -86.8 190, -92.6 189.5 Q -95.7 202.1, -110 220 Z" fill="#227C9D" stroke="black" stroke-width="4"></path><path d="M -50 220 Q -64.3 202.1, -67.4 189.5 Q -26.2 186.3, -32.6 160.5 Q -26.8 160, -20 160 Q -13.2 160, -7.4 160.5 Q -13.8 186.3, 27.4 189.5 Q 24.3 202.1, 10 220 Q -4.3 237.9, -7.4 250.5 Q -13.2 250, -20 250 Q -26.8 250, -32.6 250.5 Q -35.7 237.9, -50 220 Z" fill="#227C9D" stroke="black" stroke-width="4"></path><path d="M -127.4 340.5 Q -133.8 366.3, -92.6 369.5 Q -86.2 343.7, -127.4 340.5 Z" fill="#227C9D" stroke="black" stroke-width="4"></path><path d="M -32.6 340.5 Q -26.2 366.3, -67.4 369.5 Q -73.8 343.7, -32.6 340.5 Z" fill="#227C9D" stroke="black" stroke-width="4"></path><path d="M -110 310 Q -124.3 327.9, -127.4 340.5 Q -86.2 343.7, -92.6 369.5 Q -86.8 370, -80 370 Q -73.2 370, -67.4 369.5 Q -73.8 343.7, -32.6 340.5 Q -35.7 327.9, -50 310 Q -64.3 292.1, -67.4 279.5 Q -73.2 280, -80 280 Q -86.8 280, -92.6 279.5 Q -95.7 292.1, -110 310 Z" fill="#17c3b2" stroke="black" stroke-width="4"></path><path d="M -50 310 Q -64.3 292.1, -67.4 279.5 Q -26.2 276.3, -32.6 250.5 Q -26.8 250, -20 250 Q -13.2 250, -7.4 250.5 Q -13.8 276.3, 27.4 279.5 Q 24.3 292.1, 10 310 Q -4.3 327.9, -7.4 340.5 Q -13.2 340, -20 340 Q -26.8 340, -32.6 340.5 Q -35.7 327.9, -50 310 Z" fill="#17c3b2" stroke="black" stroke-width="4"></path><path d="M -127.4 430.5 Q -133.8 456.3, -92.6 459.5 Q -86.2 433.7, -127.4 430.5 Z" fill="#17c3b2" stroke="black" stroke-width="4"></path><path d="M -32.6 430.5 Q -26.2 456.3, -67.4 459.5 Q -73.8 433.7, -32.6 430.5 Z" fill="#17c3b2" stroke="black" stroke-width="4"></path><path d="M -110 400 Q -124.3 417.9, -127.4 430.5 Q -86.2 433.7, -92.6 459.5 Q -86.8 460, -80 460 Q -73.2 460, -67.4 459.5 Q -73.8 433.7, -32.6 430.5 Q -35.7 417.9, -50 400 Q -64.3 382.1, -67.4 369.5 Q -73.2 370, -80 370 Q -86.8 370, -92.6 369.5 Q -95.7 382.1, -110 400 Z" fill="#fef9ef" stroke="black" stroke-width="4"></path><path d="M -50 400 Q -64.3 382.1, -67.4 369.5 Q -26.2 366.3, -32.6 340.5 Q -26.8 340, -20 340 Q -13.2 340, -7.4 340.5 Q -13.8 366.3, 27.4 369.5 Q 24.3 382.1, 10 400 Q -4.3 417.9, -7.4 430.5 Q -13.2 430, -20 430 Q -26.8 430, -32.6 430.5 Q -35.7 417.9, -50 400 Z" fill="#fef9ef" stroke="black" stroke-width="4"></path><path d="M -127.4 520.5 Q -133.8 546.3, -92.6 549.5 Q -86.2 523.7, -127.4 520.5 Z" fill="#fef9ef" stroke="black" stroke-width="4"></path><path d="M -32.6 520.5 Q -26.2 546.3, -67.4 549.5 Q -73.8 523.7, -32.6 520.5 Z" fill="#fef9ef" stroke="black" stroke-width="4"></path><path d="M -110 490 Q -124.3 507.9, -127.4 520.5 Q -86.2 523.7, -92.6 549.5 Q -86.8 550, -80 550 Q -73.2 550, -67.4 549.5 Q -73.8 523.7, -32.6 520.5 Q -35.7 507.9, -50 490 Q -64.3 472.1, -67.4 459.5 Q -73.2 460, -80 460 Q -86.8 460, -92.6 459.5 Q -95.7 472.1, -110 490 Z" fill="#FFCB77" stroke="black" stroke-width="4"></path><path d="M -50 490 Q -64.3 472.1, -67.4 459.5 Q -26.2 456.3, -32.6 430.5 Q -26.8 430, -20 430 Q -13.2 430, -7.4 430.5 Q -13.8 456.3, 27.4 459.5 Q 24.3 472.1, 10 490 Q -4.3 507.9, -7.4 520.5 Q -13.2 520, -20 520 Q -26.8 520, -32.6 520.5 Q -35.7 507.9, -50 490 Z" fill="#FFCB77" stroke="black" stroke-width="4"></path><path d="M -127.4 610.5 Q -133.8 636.3, -92.6 639.5 Q -86.2 613.7, -127.4 610.5 Z" fill="#FFCB77" stroke="black" stroke-width="4"></path><path d="M -32.6 610.5 Q -26.2 636.3, -67.4 639.5 Q -73.8 613.7, -32.6 610.5 Z" fill="#FFCB77" stroke="black" stroke-width="4"></path><path d="M -110 580 Q -124.3 597.9, -127.4 610.5 Q -86.2 613.7, -92.6 639.5 Q -86.8 640, -80 640 Q -73.2 640, -67.4 639.5 Q -73.8 613.7, -32.6 610.5 Q -35.7 597.9, -50 580 Q -64.3 562.1, -67.4 549.5 Q -73.2 550, -80 550 Q -86.8 550, -92.6 549.5 Q -95.7 562.1, -110 580 Z" fill="#227C9D" stroke="black" stroke-width="4"></path><path d="M -50 580 Q -64.3 562.1, -67.4 549.5 Q -26.2 546.3, -32.6 520.5 Q -26.8 520, -20 520 Q -13.2 520, -7.4 520.5 Q -13.8 546.3, 27.4 549.5 Q 24.3 562.1, 10 580 Q -4.3 597.9, -7.4 610.5 Q -13.2 610, -20 610 Q -26.8 610, -32.6 610.5 Q -35.7 597.9, -50 580 Z" fill="#227C9D" stroke="black" stroke-width="4"></path><path d="M -127.4 700.5 Q -133.8 726.3, -92.6 729.5 Q -86.2 703.7, -127.4 700.5 Z" fill="#227C9D" stroke="black" stroke-width="4"></path><path d="M -32.6 700.5 Q -26.2 726.3, -67.4 729.5 Q -73.8 703.7, -32.6 700.5 Z" fill="#227C9D" stroke="black" stroke-width="4"></path><path d="M -110 670 Q -124.3 687.9, -127.4 700.5 Q -86.2 703.7, -92.6 729.5 Q -86.8 730, -80 730 Q -73.2 730, -67.4 729.5 Q -73.8 703.7, -32.6 700.5 Q -35.7 687.9, -50 670 Q -64.3 652.1, -67.4 639.5 Q -73.2 640, -80 640 Q -86.8 640, -92.6 639.5 Q -95.7 652.1, -110 670 Z" fill="#17c3b2" stroke="black" stroke-width="4"></path><path d="M -50 670 Q -64.3 652.1, -67.4 639.5 Q -26.2 636.3, -32.6 610.5 Q -26.8 610, -20 610 Q -13.2 610, -7.4 610.5 Q -13.8 636.3, 27.4 639.5 Q 24.3 652.1, 10 670 Q -4.3 687.9, -7.4 700.5 Q -13.2 700, -20 700 Q -26.8 700, -32.6 700.5 Q -35.7 687.9, -50 670 Z" fill="#17c3b2" stroke="black" stroke-width="4"></path><path d="M -127.4 790.5 Q -133.8 816.3, -92.6 819.5 Q -86.2 793.7, -127.4 790.5 Z" fill="#17c3b2" stroke="black" stroke-width="4"></path><path d="M -32.6 790.5 Q -26.2 816.3, -67.4 819.5 Q -73.8 793.7, -32.6 790.5 Z" fill="#17c3b2" stroke="black" stroke-width="4"></path><path d="M -110 760 Q -124.3 777.9, -127.4 790.5 Q -86.2 793.7, -92.6 819.5 Q -86.8 820, -80 820 Q -73.2 820, -67.4 819.5 Q -73.8 793.7, -32.6 790.5 Q -35.7 777.9, -50 760 Q -64.3 742.1, -67.4 729.5 Q -73.2 730, -80 730 Q -86.8 730, -92.6 729.5 Q -95.7 742.1, -110 760 Z" fill="#fef9ef" stroke="black" stroke-width="4"></path><path d="M -50 760 Q -64.3 742.1, -67.4 729.5 Q -26.2 726.3, -32.6 700.5 Q -26.8 700, -20 700 Q -13.2 700, -7.4 700.5 Q -13.8 726.3, 27.4 729.5 Q 24.3 742.1, 10 760 Q -4.3 777.9, -7.4 790.5 Q -13.2 790, -20 790 Q -26.8 790, -32.6 790.5 Q -35.7 777.9, -50 760 Z" fill="#fef9ef" stroke="black" stroke-width="4"></path><path d="M -127.4 880.5 Q -133.8 906.3, -92.6 909.5 Q -86.2 883.7, -127.4 880.5 Z" fill="#fef9ef" stroke="black" stroke-width="4"></path><path d="M -32.6 880.5 Q -26.2 906.3, -67.4 909.5 Q -73.8 883.7, -32.6 880.5 Z" fill="#fef9ef" stroke="black" stroke-width="4"></path><path d="M -110 850 Q -124.3 867.9, -127.4 880.5 Q -86.2 883.7, -92.6 909.5 Q -86.8 910, -80 910 Q -73.2 910, -67.4 909.5 Q -73.8 883.7, -32.6 880.5 Q -35.7 867.9, -50 850 Q -64.3 832.1, -67.4 819.5 Q -73.2 820, -80 820 Q -86.8 820, -92.6 819.5 Q -95.7 832.1, -110 850 Z" fill="#FFCB77" stroke="black" stroke-width="4"></path><path d="M -50 850 Q -64.3 832.1, -67.4 819.5 Q -26.2 816.3, -32.6 790.5 Q -26.8 790, -20 790 Q -13.2 790, -7.4 790.5 Q -13.8 816.3, 27.4 819.5 Q 24.3 832.1, 10 850 Q -4.3 867.9, -7.4 880.5 Q -13.2 880, -20 880 Q -26.8 880, -32.6 880.5 Q -35.7 867.9, -50 850 Z" fill="#FFCB77" stroke="black" stroke-width="4"></path><path d="M -7.4 -19.5 Q -13.8 6.3, 27.4 9.5 Q 33.8 -16.3, -7.4 -19.5 Z" fill="#227C9D" stroke="black" stroke-width="4"></path><path d="M 87.4 -19.5 Q 93.8 6.3, 52.6 9.5 Q 46.2 -16.3, 87.4 -19.5 Z" fill="#227C9D" stroke="black" stroke-width="4"></path><path d="M 10 -50 Q -4.3 -32.1, -7.4 -19.5 Q 33.8 -16.3, 27.4 9.5 Q 33.2 10, 40 10 Q 46.8 10, 52.6 9.5 Q 46.2 -16.3, 87.4 -19.5 Q 84.3 -32.1, 70 -50 Q 55.7 -67.9, 52.6 -80.5 Q 46.8 -80, 40 -80 Q 33.2 -80, 27.4 -80.5 Q 24.3 -67.9, 10 -50 Z" fill="#17c3b2" stroke="black" stroke-width="4"></path><path d="M 70 -50 Q 55.7 -67.9, 52.6 -80.5 Q 93.8 -83.7, 87.4 -109.5 Q 93.2 -110, 100 -110 Q 106.8 -110, 112.6 -109.5 Q 106.2 -83.7, 147.4 -80.5 Q 144.3 -67.9, 130 -50 Q 115.7 -32.1, 112.6 -19.5 Q 106.8 -20, 100 -20 Q 93.2 -20, 87.4 -19.5 Q 84.3 -32.1, 70 -50 Z" fill="#17c3b2" stroke="black" stroke-width="4"></path><path d="M -7.4 70.5 Q -13.8 96.3, 27.4 99.5 Q 33.8 73.7, -7.4 70.5 Z" fill="#17c3b2" stroke="black" stroke-width="4"></path><path d="M 87.4 70.5 Q 93.8 96.3, 52.6 99.5 Q 46.2 73.7, 87.4 70.5 Z" fill="#17c3b2" stroke="black" stroke-width="4"></path><path d="M 10 40 Q -4.3 57.9, -7.4 70.5 Q 33.8 73.7, 27.4 99.5 Q 33.2 100, 40 100 Q 46.8 100, 52.6 99.5 Q 46.2 73.7, 87.4 70.5 Q 84.3 57.9, 70 40 Q 55.7 22.1, 52.6 9.5 Q 46.8 10, 40 10 Q 33.2 10, 27.4 9.5 Q 24.3 22.1, 10 40 Z" fill="#fef9ef" stroke="black" stroke-width="4"></path><path d="M 70 40 Q 55.7 22.1, 52.6 9.5 Q 93.8 6.3, 87.4 -19.5 Q 93.2 -20, 100 -20 Q 106.8 -20, 112.6 -19.5 Q 106.2 6.3, 147.4 9.5 Q 144.3 22.1, 130 40 Q 115.7 57.9, 112.6 70.5 Q 106.8 70, 100 70 Q 93.2 70, 87.4 70.5 Q 84.3 57.9, 70 40 Z" fill="#fef9ef" stroke="black" stroke-width="4"></path><path d="M -7.4 160.5 Q -13.8 186.3, 27.4 189.5 Q 33.8 163.7, -7.4 160.5 Z" fill="#fef9ef" stroke="black" stroke-width="4"></path><path d="M 87.4 160.5 Q 93.8 186.3, 52.6 189.5 Q 46.2 163.7, 87.4 160.5 Z" fill="#fef9ef" stroke="black" stroke-width="4"></path><path d="M 10 130 Q -4.3 147.9, -7.4 160.5 Q 33.8 163.7, 27.4 189.5 Q 33.2 190, 40 190 Q 46.8 190, 52.6 189.5 Q 46.2 163.7, 87.4 160.5 Q 84.3 147.9, 70 130 Q 55.7 112.1, 52.6 99.5 Q 46.8 100, 40 100 Q 33.2 100, 27.4 99.5 Q 24.3 112.1, 10 130 Z" fill="#FFCB77" stroke="black" stroke-width="4"></path><path d="M 70 130 Q 55.7 112.1, 52.6 99.5 Q 93.8 96.3, 87.4 70.5 Q 93.2 70, 100 70 Q 106.8 70, 112.6 70.5 Q 106.2 96.3, 147.4 99.5 Q 144.3 112.1, 130 130 Q 115.7 147.9, 112.6 160.5 Q 106.8 160, 100 160 Q 93.2 160, 87.4 160.5 Q 84.3 147.9, 70 130 Z" fill="#FFCB77" stroke="black" stroke-width="4"></path><path d="M -7.4 250.5 Q -13.8 276.3, 27.4 279.5 Q 33.8 253.7, -7.4 250.5 Z" fill="#FFCB77" stroke="black" stroke-width="4"></path><path d="M 87.4 250.5 Q 93.8 276.3, 52.6 279.5 Q 46.2 253.7, 87.4 250.5 Z" fill="#FFCB77" stroke="black" stroke-width="4"></path><path d="M 10 220 Q -4.3 237.9, -7.4 250.5 Q 33.8 253.7, 27.4 279.5 Q 33.2 280, 40 280 Q 46.8 280, 52.6 279.5 Q 46.2 253.7, 87.4 250.5 Q 84.3 237.9, 70 220 Q 55.7 202.1, 52.6 189.5 Q 46.8 190, 40 190 Q 33.2 190, 27.4 189.5 Q 24.3 202.1, 10 220 Z" fill="#227C9D" stroke="black" stroke-width="4"></path><path d="M 70 220 Q 55.7 202.1, 52.6 189.5 Q 93.8 186.3, 87.4 160.5 Q 93.2 160, 100 160 Q 106.8 160, 112.6 160.5 Q 106.2 186.3, 147.4 189.5 Q 144.3 202.1, 130 220 Q 115.7 237.9, 112.6 250.5 Q 106.8 250, 100 250 Q 93.2 250, 87.4 250.5 Q 84.3 237.9, 70 220 Z" fill="#227C9D" stroke="black" stroke-width="4"></path><path d="M -7.4 340.5 Q -13.8 366.3, 27.4 369.5 Q 33.8 343.7, -7.4 340.5 Z" fill="#227C9D" stroke="black" stroke-width="4"></path><path d="M 87.4 340.5 Q 93.8 366.3, 52.6 369.5 Q 46.2 343.7, 87.4 340.5 Z" fill="#227C9D" stroke="black" stroke-width="4"></path><path d="M 10 310 Q -4.3 327.9, -7.4 340.5 Q 33.8 343.7, 27.4 369.5 Q 33.2 370, 40 370 Q 46.8 370, 52.6 369.5 Q 46.2 343.7, 87.4 340.5 Q 84.3 327.9, 70 310 Q 55.7 292.1, 52.6 279.5 Q 46.8 280, 40 280 Q 33.2 280, 27.4 279.5 Q 24.3 292.1, 10 310 Z" fill="#17c3b2" stroke="black" stroke-width="4"></path><path d="M 70 310 Q 55.7 292.1, 52.6 279.5 Q 93.8 276.3, 87.4 250.5 Q 93.2 250, 100 250 Q 106.8 250, 112.6 250.5 Q 106.2 276.3, 147.4 279.5 Q 144.3 292.1, 130 310 Q 115.7 327.9, 112.6 340.5 Q 106.8 340, 100 340 Q 93.2 340, 87.4 340.5 Q 84.3 327.9, 70 310 Z" fill="#17c3b2" stroke="black" stroke-width="4"></path><path d="M -7.4 430.5 Q -13.8 456.3, 27.4 459.5 Q 33.8 433.7, -7.4 430.5 Z" fill="#17c3b2" stroke="black" stroke-width="4"></path><path d="M 87.4 430.5 Q 93.8 456.3, 52.6 459.5 Q 46.2 433.7, 87.4 430.5 Z" fill="#17c3b2" stroke="black" stroke-width="4"></path><path d="M 10 400 Q -4.3 417.9, -7.4 430.5 Q 33.8 433.7, 27.4 459.5 Q 33.2 460, 40 460 Q 46.8 460, 52.6 459.5 Q 46.2 433.7, 87.4 430.5 Q 84.3 417.9, 70 400 Q 55.7 382.1, 52.6 369.5 Q 46.8 370, 40 370 Q 33.2 370, 27.4 369.5 Q 24.3 382.1, 10 400 Z" fill="#fef9ef" stroke="black" stroke-width="4"></path><path d="M 70 400 Q 55.7 382.1, 52.6 369.5 Q 93.8 366.3, 87.4 340.5 Q 93.2 340, 100 340 Q 106.8 340, 112.6 340.5 Q 106.2 366.3, 147.4 369.5 Q 144.3 382.1, 130 400 Q 115.7 417.9, 112.6 430.5 Q 106.8 430, 100 430 Q 93.2 430, 87.4 430.5 Q 84.3 417.9, 70 400 Z" fill="#fef9ef" stroke="black" stroke-width="4"></path><path d="M -7.4 520.5 Q -13.8 546.3, 27.4 549.5 Q 33.8 523.7, -7.4 520.5 Z" fill="#fef9ef" stroke="black" stroke-width="4"></path><path d="M 87.4 520.5 Q 93.8 546.3, 52.6 549.5 Q 46.2 523.7, 87.4 520.5 Z" fill="#fef9ef" stroke="black" stroke-width="4"></path><path d="M 10 490 Q -4.3 507.9, -7.4 520.5 Q 33.8 523.7, 27.4 549.5 Q 33.2 550, 40 550 Q 46.8 550, 52.6 549.5 Q 46.2 523.7, 87.4 520.5 Q 84.3 507.9, 70 490 Q 55.7 472.1, 52.6 459.5 Q 46.8 460, 40 460 Q 33.2 460, 27.4 459.5 Q 24.3 472.1, 10 490 Z" fill="#FFCB77" stroke="black" stroke-width="4"></path><path d="M 70 490 Q 55.7 472.1, 52.6 459.5 Q 93.8 456.3, 87.4 430.5 Q 93.2 430, 100 430 Q 106.8 430, 112.6 430.5 Q 106.2 456.3, 147.4 459.5 Q 144.3 472.1, 130 490 Q 115.7 507.9, 112.6 520.5 Q 106.8 520, 100 520 Q 93.2 520, 87.4 520.5 Q 84.3 507.9, 70 490 Z" fill="#FFCB77" stroke="black" stroke-width="4"></path><path d="M -7.4 610.5 Q -13.8 636.3, 27.4 639.5 Q 33.8 613.7, -7.4 610.5 Z" fill="#FFCB77" stroke="black" stroke-width="4"></path><path d="M 87.4 610.5 Q 93.8 636.3, 52.6 639.5 Q 46.2 613.7, 87.4 610.5 Z" fill="#FFCB77" stroke="black" stroke-width="4"></path><path d="M 10 580 Q -4.3 597.9, -7.4 610.5 Q 33.8 613.7, 27.4 639.5 Q 33.2 640, 40 640 Q 46.8 640, 52.6 639.5 Q 46.2 613.7, 87.4 610.5 Q 84.3 597.9, 70 580 Q 55.7 562.1, 52.6 549.5 Q 46.8 550, 40 550 Q 33.2 550, 27.4 549.5 Q 24.3 562.1, 10 580 Z" fill="#227C9D" stroke="black" stroke-width="4"></path><path d="M 70 580 Q 55.7 562.1, 52.6 549.5 Q 93.8 546.3, 87.4 520.5 Q 93.2 520, 100 520 Q 106.8 520, 112.6 520.5 Q 106.2 546.3, 147.4 549.5 Q 144.3 562.1, 130 580 Q 115.7 597.9, 112.6 610.5 Q 106.8 610, 100 610 Q 93.2 610, 87.4 610.5 Q 84.3 597.9, 70 580 Z" fill="#227C9D" stroke="black" stroke-width="4"></path><path d="M -7.4 700.5 Q -13.8 726.3, 27.4 729.5 Q 33.8 703.7, -7.4 700.5 Z" fill="#227C9D" stroke="black" stroke-width="4"></path><path d="M 87.4 700.5 Q 93.8 726.3, 52.6 729.5 Q 46.2 703.7, 87.4 700.5 Z" fill="#227C9D" stroke="black" stroke-width="4"></path><path d="M 10 670 Q -4.3 687.9, -7.4 700.5 Q 33.8 703.7, 27.4 729.5 Q 33.2 730, 40 730 Q 46.8 730, 52.6 729.5 Q 46.2 703.7, 87.4 700.5 Q 84.3 687.9, 70 670 Q 55.7 652.1, 52.6 639.5 Q 46.8 640, 40 640 Q 33.2 640, 27.4 639.5 Q 24.3 652.1, 10 670 Z" fill="#17c3b2" stroke="black" stroke-width="4"></path><path d="M 70 670 Q 55.7 652.1, 52.6 639.5 Q 93.8 636.3, 87.4 610.5 Q 93.2 610, 100 610 Q 106.8 610, 112.6 610.5 Q 106.2 636.3, 147.4 639.5 Q 144.3 652.1, 130 670 Q 115.7 687.9, 112.6 700.5 Q 106.8 700, 100 700 Q 93.2 700, 87.4 700.5 Q 84.3 687.9, 70 670 Z" fill="#17c3b2" stroke="black" stroke-width="4"></path><path d="M -7.4 790.5 Q -13.8 816.3, 27.4 819.5 Q 33.8 793.7, -7.4 790.5 Z" fill="#17c3b2" stroke="black" stroke-width="4"></path><path d="M 87.4 790.5 Q 93.8 816.3, 52.6 819.5 Q 46.2 793.7, 87.4 790.5 Z" fill="#17c3b2" stroke="black" stroke-width="4"></path><path d="M 10 760 Q -4.3 777.9, -7.4 790.5 Q 33.8 793.7, 27.4 819.5 Q 33.2 820, 40 820 Q 46.8 820, 52.6 819.5 Q 46.2 793.7, 87.4 790.5 Q 84.3 777.9, 70 760 Q 55.7 742.1, 52.6 729.5 Q 46.8 730, 40 730 Q 33.2 730, 27.4 729.5 Q 24.3 742.1, 10 760 Z" fill="#fef9ef" stroke="black" stroke-width="4"></path><path d="M 70 760 Q 55.7 742.1, 52.6 729.5 Q 93.8 726.3, 87.4 700.5 Q 93.2 700, 100 700 Q 106.8 700, 112.6 700.5 Q 106.2 726.3, 147.4 729.5 Q 144.3 742.1, 130 760 Q 115.7 777.9, 112.6 790.5 Q 106.8 790, 100 790 Q 93.2 790, 87.4 790.5 Q 84.3 777.9, 70 760 Z" fill="#fef9ef" stroke="black" stroke-width="4"></path><path d="M -7.4 880.5 Q -13.8 906.3, 27.4 909.5 Q 33.8 883.7, -7.4 880.5 Z" fill="#fef9ef" stroke="black" stroke-width="4"></path><path d="M 87.4 880.5 Q 93.8 906.3, 52.6 909.5 Q 46.2 883.7, 87.4 880.5 Z" fill="#fef9ef" stroke="black" stroke-width="4"></path><path d="M 10 850 Q -4.3 867.9, -7.4 880.5 Q 33.8 883.7, 27.4 909.5 Q 33.2 910, 40 910 Q 46.8 910, 52.6 909.5 Q 46.2 883.7, 87.4 880.5 Q 84.3 867.9, 70 850 Q 55.7 832.1, 52.6 819.5 Q 46.8 820, 40 820 Q 33.2 820, 27.4 819.5 Q 24.3 832.1, 10 850 Z" fill="#FFCB77" stroke="black" stroke-width="4"></path><path d="M 70 850 Q 55.7 832.1, 52.6 819.5 Q 93.8 816.3, 87.4 790.5 Q 93.2 790, 100 790 Q 106.8 790, 112.6 790.5 Q 106.2 816.3, 147.4 819.5 Q 144.3 832.1, 130 850 Q 115.7 867.9, 112.6 880.5 Q 106.8 880, 100 880 Q 93.2 880, 87.4 880.5 Q 84.3 867.9, 70 850 Z" fill="#FFCB77" stroke="black" stroke-width="4"></path><path d="M 112.6 -19.5 Q 106.2 6.3, 147.4 9.5 Q 153.8 -16.3, 112.6 -19.5 Z" fill="#227C9D" stroke="black" stroke-width="4"></path><path d="M 207.4 -19.5 Q 213.8 6.3, 172.6 9.5 Q 166.2 -16.3, 207.4 -19.5 Z" fill="#227C9D" stroke="black" stroke-width="4"></path><path d="M 130 -50 Q 115.7 -32.1, 112.6 -19.5 Q 153.8 -16.3, 147.4 9.5 Q 153.2 10, 160 10 Q 166.8 10, 172.6 9.5 Q 166.2 -16.3, 207.4 -19.5 Q 204.3 -32.1, 190 -50 Q 175.7 -67.9, 172.6 -80.5 Q 166.8 -80, 160 -80 Q 153.2 -80, 147.4 -80.5 Q 144.3 -67.9, 130 -50 Z" fill="#17c3b2" stroke="black" stroke-width="4"></path><path d="M 190 -50 Q 175.7 -67.9, 172.6 -80.5 Q 213.8 -83.7, 207.4 -109.5 Q 213.2 -110, 220 -110 Q 226.8 -110, 232.6 -109.5 Q 226.2 -83.7, 267.4 -80.5 Q 264.3 -67.9, 250 -50 Q 235.7 -32.1, 232.6 -19.5 Q 226.8 -20, 220 -20 Q 213.2 -20, 207.4 -19.5 Q 204.3 -32.1, 190 -50 Z" fill="#17c3b2" stroke="black" stroke-width="4"></path><path d="M 112.6 70.5 Q 106.2 96.3, 147.4 99.5 Q 153.8 73.7, 112.6 70.5 Z" fill="#17c3b2" stroke="black" stroke-width="4"></path><path d="M 207.4 70.5 Q 213.8 96.3, 172.6 99.5 Q 166.2 73.7, 207.4 70.5 Z" fill="#17c3b2" stroke="black" stroke-width="4"></path><path d="M 130 40 Q 115.7 57.9, 112.6 70.5 Q 153.8 73.7, 147.4 99.5 Q 153.2 100, 160 100 Q 166.8 100, 172.6 99.5 Q 166.2 73.7, 207.4 70.5 Q 204.3 57.9, 190 40 Q 175.7 22.1, 172.6 9.5 Q 166.8 10, 160 10 Q 153.2 10, 147.4 9.5 Q 144.3 22.1, 130 40 Z" fill="#fef9ef" stroke="black" stroke-width="4"></path><path d="M 190 40 Q 175.7 22.1, 172.6 9.5 Q 213.8 6.3, 207.4 -19.5 Q 213.2 -20, 220 -20 Q 226.8 -20, 232.6 -19.5 Q 226.2 6.3, 267.4 9.5 Q 264.3 22.1, 250 40 Q 235.7 57.9, 232.6 70.5 Q 226.8 70, 220 70 Q 213.2 70, 207.4 70.5 Q 204.3 57.9, 190 40 Z" fill="#fef9ef" stroke="black" stroke-width="4"></path><path d="M 112.6 160.5 Q 106.2 186.3, 147.4 189.5 Q 153.8 163.7, 112.6 160.5 Z" fill="#fef9ef" stroke="black" stroke-width="4"></path><path d="M 207.4 160.5 Q 213.8 186.3, 172.6 189.5 Q 166.2 163.7, 207.4 160.5 Z" fill="#fef9ef" stroke="black" stroke-width="4"></path><path d="M 130 130 Q 115.7 147.9, 112.6 160.5 Q 153.8 163.7, 147.4 189.5 Q 153.2 190, 160 190 Q 166.8 190, 172.6 189.5 Q 166.2 163.7, 207.4 160.5 Q 204.3 147.9, 190 130 Q 175.7 112.1, 172.6 99.5 Q 166.8 100, 160 100 Q 153.2 100, 147.4 99.5 Q 144.3 112.1, 130 130 Z" fill="#FFCB77" stroke="black" stroke-width="4"></path><path d="M 190 130 Q 175.7 112.1, 172.6 99.5 Q 213.8 96.3, 207.4 70.5 Q 213.2 70, 220 70 Q 226.8 70, 232.6 70.5 Q 226.2 96.3, 267.4 99.5 Q 264.3 112.1, 250 130 Q 235.7 147.9, 232.6 160.5 Q 226.8 160, 220 160 Q 213.2 160, 207.4 160.5 Q 204.3 147.9, 190 130 Z" fill="#FFCB77" stroke="black" stroke-width="4"></path><path d="M 112.6 250.5 Q 106.2 276.3, 147.4 279.5 Q 153.8 253.7, 112.6 250.5 Z" fill="#FFCB77" stroke="black" stroke-width="4"></path><path d="M 207.4 250.5 Q 213.8 276.3, 172.6 279.5 Q 166.2 253.7, 207.4 250.5 Z" fill="#FFCB77" stroke="black" stroke-width="4"></path><path d="M 130 220 Q 115.7 237.9, 112.6 250.5 Q 153.8 253.7, 147.4 279.5 Q 153.2 280, 160 280 Q 166.8 280, 172.6 279.5 Q 166.2 253.7, 207.4 250.5 Q 204.3 237.9, 190 220 Q 175.7 202.1, 172.6 189.5 Q 166.8 190, 160 190 Q 153.2 190, 147.4 189.5 Q 144.3 202.1, 130 220 Z" fill="#227C9D" stroke="black" stroke-width="4"></path><path d="M 190 220 Q 175.7 202.1, 172.6 189.5 Q 213.8 186.3, 207.4 160.5 Q 213.2 160, 220 160 Q 226.8 160, 232.6 160.5 Q 226.2 186.3, 267.4 189.5 Q 264.3 202.1, 250 220 Q 235.7 237.9, 232.6 250.5 Q 226.8 250, 220 250 Q 213.2 250, 207.4 250.5 Q 204.3 237.9, 190 220 Z" fill="#227C9D" stroke="black" stroke-width="4"></path><path d="M 112.6 340.5 Q 106.2 366.3, 147.4 369.5 Q 153.8 343.7, 112.6 340.5 Z" fill="#227C9D" stroke="black" stroke-width="4"></path><path d="M 207.4 340.5 Q 213.8 366.3, 172.6 369.5 Q 166.2 343.7, 207.4 340.5 Z" fill="#227C9D" stroke="black" stroke-width="4"></path><path d="M 130 310 Q 115.7 327.9, 112.6 340.5 Q 153.8 343.7, 147.4 369.5 Q 153.2 370, 160 370 Q 166.8 370, 172.6 369.5 Q 166.2 343.7, 207.4 340.5 Q 204.3 327.9, 190 310 Q 175.7 292.1, 172.6 279.5 Q 166.8 280, 160 280 Q 153.2 280, 147.4 279.5 Q 144.3 292.1, 130 310 Z" fill="#17c3b2" stroke="black" stroke-width="4"></path><path d="M 190 310 Q 175.7 292.1, 172.6 279.5 Q 213.8 276.3, 207.4 250.5 Q 213.2 250, 220 250 Q 226.8 250, 232.6 250.5 Q 226.2 276.3, 267.4 279.5 Q 264.3 292.1, 250 310 Q 235.7 327.9, 232.6 340.5 Q 226.8 340, 220 340 Q 213.2 340, 207.4 340.5 Q 204.3 327.9, 190 310 Z" fill="#17c3b2" stroke="black" stroke-width="4"></path><path d="M 112.6 430.5 Q 106.2 456.3, 147.4 459.5 Q 153.8 433.7, 112.6 430.5 Z" fill="#17c3b2" stroke="black" stroke-width="4"></path><path d="M 207.4 430.5 Q 213.8 456.3, 172.6 459.5 Q 166.2 433.7, 207.4 430.5 Z" fill="#17c3b2" stroke="black" stroke-width="4"></path><path d="M 130 400 Q 115.7 417.9, 112.6 430.5 Q 153.8 433.7, 147.4 459.5 Q 153.2 460, 160 460 Q 166.8 460, 172.6 459.5 Q 166.2 433.7, 207.4 430.5 Q 204.3 417.9, 190 400 Q 175.7 382.1, 172.6 369.5 Q 166.8 370, 160 370 Q 153.2 370, 147.4 369.5 Q 144.3 382.1, 130 400 Z" fill="#fef9ef" stroke="black" stroke-width="4"></path><path d="M 190 400 Q 175.7 382.1, 172.6 369.5 Q 213.8 366.3, 207.4 340.5 Q 213.2 340, 220 340 Q 226.8 340, 232.6 340.5 Q 226.2 366.3, 267.4 369.5 Q 264.3 382.1, 250 400 Q 235.7 417.9, 232.6 430.5 Q 226.8 430, 220 430 Q 213.2 430, 207.4 430.5 Q 204.3 417.9, 190 400 Z" fill="#fef9ef" stroke="black" stroke-width="4"></path><path d="M 112.6 520.5 Q 106.2 546.3, 147.4 549.5 Q 153.8 523.7, 112.6 520.5 Z" fill="#fef9ef" stroke="black" stroke-width="4"></path><path d="M 207.4 520.5 Q 213.8 546.3, 172.6 549.5 Q 166.2 523.7, 207.4 520.5 Z" fill="#fef9ef" stroke="black" stroke-width="4"></path><path d="M 130 490 Q 115.7 507.9, 112.6 520.5 Q 153.8 523.7, 147.4 549.5 Q 153.2 550, 160 550 Q 166.8 550, 172.6 549.5 Q 166.2 523.7, 207.4 520.5 Q 204.3 507.9, 190 490 Q 175.7 472.1, 172.6 459.5 Q 166.8 460, 160 460 Q 153.2 460, 147.4 459.5 Q 144.3 472.1, 130 490 Z" fill="#FFCB77" stroke="black" stroke-width="4"></path><path d="M 190 490 Q 175.7 472.1, 172.6 459.5 Q 213.8 456.3, 207.4 430.5 Q 213.2 430, 220 430 Q 226.8 430, 232.6 430.5 Q 226.2 456.3, 267.4 459.5 Q 264.3 472.1, 250 490 Q 235.7 507.9, 232.6 520.5 Q 226.8 520, 220 520 Q 213.2 520, 207.4 520.5 Q 204.3 507.9, 190 490 Z" fill="#FFCB77" stroke="black" stroke-width="4"></path><path d="M 112.6 610.5 Q 106.2 636.3, 147.4 639.5 Q 153.8 613.7, 112.6 610.5 Z" fill="#FFCB77" stroke="black" stroke-width="4"></path><path d="M 207.4 610.5 Q 213.8 636.3, 172.6 639.5 Q 166.2 613.7, 207.4 610.5 Z" fill="#FFCB77" stroke="black" stroke-width="4"></path><path d="M 130 580 Q 115.7 597.9, 112.6 610.5 Q 153.8 613.7, 147.4 639.5 Q 153.2 640, 160 640 Q 166.8 640, 172.6 639.5 Q 166.2 613.7, 207.4 610.5 Q 204.3 597.9, 190 580 Q 175.7 562.1, 172.6 549.5 Q 166.8 550, 160 550 Q 153.2 550, 147.4 549.5 Q 144.3 562.1, 130 580 Z" fill="#227C9D" stroke="black" stroke-width="4"></path><path d="M 190 580 Q 175.7 562.1, 172.6 549.5 Q 213.8 546.3, 207.4 520.5 Q 213.2 520, 220 520 Q 226.8 520, 232.6 520.5 Q 226.2 546.3, 267.4 549.5 Q 264.3 562.1, 250 580 Q 235.7 597.9, 232.6 610.5 Q 226.8 610, 220 610 Q 213.2 610, 207.4 610.5 Q 204.3 597.9, 190 580 Z" fill="#227C9D" stroke="black" stroke-width="4"></path><path d="M 112.6 700.5 Q 106.2 726.3, 147.4 729.5 Q 153.8 703.7, 112.6 700.5 Z" fill="#227C9D" stroke="black" stroke-width="4"></path><path d="M 207.4 700.5 Q 213.8 726.3, 172.6 729.5 Q 166.2 703.7, 207.4 700.5 Z" fill="#227C9D" stroke="black" stroke-width="4"></path><path d="M 130 670 Q 115.7 687.9, 112.6 700.5 Q 153.8 703.7, 147.4 729.5 Q 153.2 730, 160 730 Q 166.8 730, 172.6 729.5 Q 166.2 703.7, 207.4 700.5 Q 204.3 687.9, 190 670 Q 175.7 652.1, 172.6 639.5 Q 166.8 640, 160 640 Q 153.2 640, 147.4 639.5 Q 144.3 652.1, 130 670 Z" fill="#17c3b2" stroke="black" stroke-width="4"></path><path d="M 190 670 Q 175.7 652.1, 172.6 639.5 Q 213.8 636.3, 207.4 610.5 Q 213.2 610, 220 610 Q 226.8 610, 232.6 610.5 Q 226.2 636.3, 267.4 639.5 Q 264.3 652.1, 250 670 Q 235.7 687.9, 232.6 700.5 Q 226.8 700, 220 700 Q 213.2 700, 207.4 700.5 Q 204.3 687.9, 190 670 Z" fill="#17c3b2" stroke="black" stroke-width="4"></path><path d="M 112.6 790.5 Q 106.2 816.3, 147.4 819.5 Q 153.8 793.7, 112.6 790.5 Z" fill="#17c3b2" stroke="black" stroke-width="4"></path><path d="M 207.4 790.5 Q 213.8 816.3, 172.6 819.5 Q 166.2 793.7, 207.4 790.5 Z" fill="#17c3b2" stroke="black" stroke-width="4"></path><path d="M 130 760 Q 115.7 777.9, 112.6 790.5 Q 153.8 793.7, 147.4 819.5 Q 153.2 820, 160 820 Q 166.8 820, 172.6 819.5 Q 166.2 793.7, 207.4 790.5 Q 204.3 777.9, 190 760 Q 175.7 742.1, 172.6 729.5 Q 166.8 730, 160 730 Q 153.2 730, 147.4 729.5 Q 144.3 742.1, 130 760 Z" fill="#fef9ef" stroke="black" stroke-width="4"></path><path d="M 190 760 Q 175.7 742.1, 172.6 729.5 Q 213.8 726.3, 207.4 700.5 Q 213.2 700, 220 700 Q 226.8 700, 232.6 700.5 Q 226.2 726.3, 267.4 729.5 Q 264.3 742.1, 250 760 Q 235.7 777.9, 232.6 790.5 Q 226.8 790, 220 790 Q 213.2 790, 207.4 790.5 Q 204.3 777.9, 190 760 Z" fill="#fef9ef" stroke="black" stroke-width="4"></path><path d="M 112.6 880.5 Q 106.2 906.3, 147.4 909.5 Q 153.8 883.7, 112.6 880.5 Z" fill="#fef9ef" stroke="black" stroke-width="4"></path><path d="M 207.4 880.5 Q 213.8 906.3, 172.6 909.5 Q 166.2 883.7, 207.4 880.5 Z" fill="#fef9ef" stroke="black" stroke-width="4"></path><path d="M 130 850 Q 115.7 867.9, 112.6 880.5 Q 153.8 883.7, 147.4 909.5 Q 153.2 910, 160 910 Q 166.8 910, 172.6 909.5 Q 166.2 883.7, 207.4 880.5 Q 204.3 867.9, 190 850 Q 175.7 832.1, 172.6 819.5 Q 166.8 820, 160 820 Q 153.2 820, 147.4 819.5 Q 144.3 832.1, 130 850 Z" fill="#FFCB77" stroke="black" stroke-width="4"></path><path d="M 190 850 Q 175.7 832.1, 172.6 819.5 Q 213.8 816.3, 207.4 790.5 Q 213.2 790, 220 790 Q 226.8 790, 232.6 790.5 Q 226.2 816.3, 267.4 819.5 Q 264.3 832.1, 250 850 Q 235.7 867.9, 232.6 880.5 Q 226.8 880, 220 880 Q 213.2 880, 207.4 880.5 Q 204.3 867.9, 190 850 Z" fill="#FFCB77" stroke="black" stroke-width="4"></path><path d="M 232.6 -19.5 Q 226.2 6.3, 267.4 9.5 Q 273.8 -16.3, 232.6 -19.5 Z" fill="#227C9D" stroke="black" stroke-width="4"></path><path d="M 327.4 -19.5 Q 333.8 6.3, 292.6 9.5 Q 286.2 -16.3, 327.4 -19.5 Z" fill="#227C9D" stroke="black" stroke-width="4"></path><path d="M 250 -50 Q 235.7 -32.1, 232.6 -19.5 Q 273.8 -16.3, 267.4 9.5 Q 273.2 10, 280 10 Q 286.8 10, 292.6 9.5 Q 286.2 -16.3, 327.4 -19.5 Q 324.3 -32.1, 310 -50 Q 295.7 -67.9, 292.6 -80.5 Q 286.8 -80, 280 -80 Q 273.2 -80, 267.4 -80.5 Q 264.3 -67.9, 250 -50 Z" fill="#17c3b2" stroke="black" stroke-width="4"></path><path d="M 310 -50 Q 295.7 -67.9, 292.6 -80.5 Q 333.8 -83.7, 327.4 -109.5 Q 333.2 -110, 340 -110 Q 346.8 -110, 352.6 -109.5 Q 346.2 -83.7, 387.4 -80.5 Q 384.3 -67.9, 370 -50 Q 355.7 -32.1, 352.6 -19.5 Q 346.8 -20, 340 -20 Q 333.2 -20, 327.4 -19.5 Q 324.3 -32.1, 310 -50 Z" fill="#17c3b2" stroke="black" stroke-width="4"></path><path d="M 232.6 70.5 Q 226.2 96.3, 267.4 99.5 Q 273.8 73.7, 232.6 70.5 Z" fill="#17c3b2" stroke="black" stroke-width="4"></path><path d="M 327.4 70.5 Q 333.8 96.3, 292.6 99.5 Q 286.2 73.7, 327.4 70.5 Z" fill="#17c3b2" stroke="black" stroke-width="4"></path><path d="M 250 40 Q 235.7 57.9, 232.6 70.5 Q 273.8 73.7, 267.4 99.5 Q 273.2 100, 280 100 Q 286.8 100, 292.6 99.5 Q 286.2 73.7, 327.4 70.5 Q 324.3 57.9, 310 40 Q 295.7 22.1, 292.6 9.5 Q 286.8 10, 280 10 Q 273.2 10, 267.4 9.5 Q 264.3 22.1, 250 40 Z" fill="#fef9ef" stroke="black" stroke-width="4"></path><path d="M 310 40 Q 295.7 22.1, 292.6 9.5 Q 333.8 6.3, 327.4 -19.5 Q 333.2 -20, 340 -20 Q 346.8 -20, 352.6 -19.5 Q 346.2 6.3, 387.4 9.5 Q 384.3 22.1, 370 40 Q 355.7 57.9, 352.6 70.5 Q 346.8 70, 340 70 Q 333.2 70, 327.4 70.5 Q 324.3 57.9, 310 40 Z" fill="#fef9ef" stroke="black" stroke-width="4"></path><path d="M 232.6 160.5 Q 226.2 186.3, 267.4 189.5 Q 273.8 163.7, 232.6 160.5 Z" fill="#fef9ef" stroke="black" stroke-width="4"></path><path d="M 327.4 160.5 Q 333.8 186.3, 292.6 189.5 Q 286.2 163.7, 327.4 160.5 Z" fill="#fef9ef" stroke="black" stroke-width="4"></path><path d="M 250 130 Q 235.7 147.9, 232.6 160.5 Q 273.8 163.7, 267.4 189.5 Q 273.2 190, 280 190 Q 286.8 190, 292.6 189.5 Q 286.2 163.7, 327.4 160.5 Q 324.3 147.9, 310 130 Q 295.7 112.1, 292.6 99.5 Q 286.8 100, 280 100 Q 273.2 100, 267.4 99.5 Q 264.3 112.1, 250 130 Z" fill="#FFCB77" stroke="black" stroke-width="4"></path><path d="M 310 130 Q 295.7 112.1, 292.6 99.5 Q 333.8 96.3, 327.4 70.5 Q 333.2 70, 340 70 Q 346.8 70, 352.6 70.5 Q 346.2 96.3, 387.4 99.5 Q 384.3 112.1, 370 130 Q 355.7 147.9, 352.6 160.5 Q 346.8 160, 340 160 Q 333.2 160, 327.4 160.5 Q 324.3 147.9, 310 130 Z" fill="#FFCB77" stroke="black" stroke-width="4"></path><path d="M 232.6 250.5 Q 226.2 276.3, 267.4 279.5 Q 273.8 253.7, 232.6 250.5 Z" fill="#FFCB77" stroke="black" stroke-width="4"></path><path d="M 327.4 250.5 Q 333.8 276.3, 292.6 279.5 Q 286.2 253.7, 327.4 250.5 Z" fill="#FFCB77" stroke="black" stroke-width="4"></path><path d="M 250 220 Q 235.7 237.9, 232.6 250.5 Q 273.8 253.7, 267.4 279.5 Q 273.2 280, 280 280 Q 286.8 280, 292.6 279.5 Q 286.2 253.7, 327.4 250.5 Q 324.3 237.9, 310 220 Q 295.7 202.1, 292.6 189.5 Q 286.8 190, 280 190 Q 273.2 190, 267.4 189.5 Q 264.3 202.1, 250 220 Z" fill="#227C9D" stroke="black" stroke-width="4"></path><path d="M 310 220 Q 295.7 202.1, 292.6 189.5 Q 333.8 186.3, 327.4 160.5 Q 333.2 160, 340 160 Q 346.8 160, 352.6 160.5 Q 346.2 186.3, 387.4 189.5 Q 384.3 202.1, 370 220 Q 355.7 237.9, 352.6 250.5 Q 346.8 250, 340 250 Q 333.2 250, 327.4 250.5 Q 324.3 237.9, 310 220 Z" fill="#227C9D" stroke="black" stroke-width="4"></path><path d="M 232.6 340.5 Q 226.2 366.3, 267.4 369.5 Q 273.8 343.7, 232.6 340.5 Z" fill="#227C9D" stroke="black" stroke-width="4"></path><path d="M 327.4 340.5 Q 333.8 366.3, 292.6 369.5 Q 286.2 343.7, 327.4 340.5 Z" fill="#227C9D" stroke="black" stroke-width="4"></path><path d="M 250 310 Q 235.7 327.9, 232.6 340.5 Q 273.8 343.7, 267.4 369.5 Q 273.2 370, 280 370 Q 286.8 370, 292.6 369.5 Q 286.2 343.7, 327.4 340.5 Q 324.3 327.9, 310 310 Q 295.7 292.1, 292.6 279.5 Q 286.8 280, 280 280 Q 273.2 280, 267.4 279.5 Q 264.3 292.1, 250 310 Z" fill="#17c3b2" stroke="black" stroke-width="4"></path><path d="M 310 310 Q 295.7 292.1, 292.6 279.5 Q 333.8 276.3, 327.4 250.5 Q 333.2 250, 340 250 Q 346.8 250, 352.6 250.5 Q 346.2 276.3, 387.4 279.5 Q 384.3 292.1, 370 310 Q 355.7 327.9, 352.6 340.5 Q 346.8 340, 340 340 Q 333.2 340, 327.4 340.5 Q 324.3 327.9, 310 310 Z" fill="#17c3b2" stroke="black" stroke-width="4"></path><path d="M 232.6 430.5 Q 226.2 456.3, 267.4 459.5 Q 273.8 433.7, 232.6 430.5 Z" fill="#17c3b2" stroke="black" stroke-width="4"></path><path d="M 327.4 430.5 Q 333.8 456.3, 292.6 459.5 Q 286.2 433.7, 327.4 430.5 Z" fill="#17c3b2" stroke="black" stroke-width="4"></path><path d="M 250 400 Q 235.7 417.9, 232.6 430.5 Q 273.8 433.7, 267.4 459.5 Q 273.2 460, 280 460 Q 286.8 460, 292.6 459.5 Q 286.2 433.7, 327.4 430.5 Q 324.3 417.9, 310 400 Q 295.7 382.1, 292.6 369.5 Q 286.8 370, 280 370 Q 273.2 370, 267.4 369.5 Q 264.3 382.1, 250 400 Z" fill="#fef9ef" stroke="black" stroke-width="4"></path><path d="M 310 400 Q 295.7 382.1, 292.6 369.5 Q 333.8 366.3, 327.4 340.5 Q 333.2 340, 340 340 Q 346.8 340, 352.6 340.5 Q 346.2 366.3, 387.4 369.5 Q 384.3 382.1, 370 400 Q 355.7 417.9, 352.6 430.5 Q 346.8 430, 340 430 Q 333.2 430, 327.4 430.5 Q 324.3 417.9, 310 400 Z" fill="#fef9ef" stroke="black" stroke-width="4"></path><path d="M 232.6 520.5 Q 226.2 546.3, 267.4 549.5 Q 273.8 523.7, 232.6 520.5 Z" fill="#fef9ef" stroke="black" stroke-width="4"></path><path d="M 327.4 520.5 Q 333.8 546.3, 292.6 549.5 Q 286.2 523.7, 327.4 520.5 Z" fill="#fef9ef" stroke="black" stroke-width="4"></path><path d="M 250 490 Q 235.7 507.9, 232.6 520.5 Q 273.8 523.7, 267.4 549.5 Q 273.2 550, 280 550 Q 286.8 550, 292.6 549.5 Q 286.2 523.7, 327.4 520.5 Q 324.3 507.9, 310 490 Q 295.7 472.1, 292.6 459.5 Q 286.8 460, 280 460 Q 273.2 460, 267.4 459.5 Q 264.3 472.1, 250 490 Z" fill="#FFCB77" stroke="black" stroke-width="4"></path><path d="M 310 490 Q 295.7 472.1, 292.6 459.5 Q 333.8 456.3, 327.4 430.5 Q 333.2 430, 340 430 Q 346.8 430, 352.6 430.5 Q 346.2 456.3, 387.4 459.5 Q 384.3 472.1, 370 490 Q 355.7 507.9, 352.6 520.5 Q 346.8 520, 340 520 Q 333.2 520, 327.4 520.5 Q 324.3 507.9, 310 490 Z" fill="#FFCB77" stroke="black" stroke-width="4"></path><path d="M 232.6 610.5 Q 226.2 636.3, 267.4 639.5 Q 273.8 613.7, 232.6 610.5 Z" fill="#FFCB77" stroke="black" stroke-width="4"></path><path d="M 327.4 610.5 Q 333.8 636.3, 292.6 639.5 Q 286.2 613.7, 327.4 610.5 Z" fill="#FFCB77" stroke="black" stroke-width="4"></path><path d="M 250 580 Q 235.7 597.9, 232.6 610.5 Q 273.8 613.7, 267.4 639.5 Q 273.2 640, 280 640 Q 286.8 640, 292.6 639.5 Q 286.2 613.7, 327.4 610.5 Q 324.3 597.9, 310 580 Q 295.7 562.1, 292.6 549.5 Q 286.8 550, 280 550 Q 273.2 550, 267.4 549.5 Q 264.3 562.1, 250 580 Z" fill="#227C9D" stroke="black" stroke-width="4"></path><path d="M 310 580 Q 295.7 562.1, 292.6 549.5 Q 333.8 546.3, 327.4 520.5 Q 333.2 520, 340 520 Q 346.8 520, 352.6 520.5 Q 346.2 546.3, 387.4 549.5 Q 384.3 562.1, 370 580 Q 355.7 597.9, 352.6 610.5 Q 346.8 610, 340 610 Q 333.2 610, 327.4 610.5 Q 324.3 597.9, 310 580 Z" fill="#227C9D" stroke="black" stroke-width="4"></path><path d="M 232.6 700.5 Q 226.2 726.3, 267.4 729.5 Q 273.8 703.7, 232.6 700.5 Z" fill="#227C9D" stroke="black" stroke-width="4"></path><path d="M 327.4 700.5 Q 333.8 726.3, 292.6 729.5 Q 286.2 703.7, 327.4 700.5 Z" fill="#227C9D" stroke="black" stroke-width="4"></path><path d="M 250 670 Q 235.7 687.9, 232.6 700.5 Q 273.8 703.7, 267.4 729.5 Q 273.2 730, 280 730 Q 286.8 730, 292.6 729.5 Q 286.2 703.7, 327.4 700.5 Q 324.3 687.9, 310 670 Q 295.7 652.1, 292.6 639.5 Q 286.8 640, 280 640 Q 273.2 640, 267.4 639.5 Q 264.3 652.1, 250 670 Z" fill="#17c3b2" stroke="black" stroke-width="4"></path><path d="M 310 670 Q 295.7 652.1, 292.6 639.5 Q 333.8 636.3, 327.4 610.5 Q 333.2 610, 340 610 Q 346.8 610, 352.6 610.5 Q 346.2 636.3, 387.4 639.5 Q 384.3 652.1, 370 670 Q 355.7 687.9, 352.6 700.5 Q 346.8 700, 340 700 Q 333.2 700, 327.4 700.5 Q 324.3 687.9, 310 670 Z" fill="#17c3b2" stroke="black" stroke-width="4"></path><path d="M 232.6 790.5 Q 226.2 816.3, 267.4 819.5 Q 273.8 793.7, 232.6 790.5 Z" fill="#17c3b2" stroke="black" stroke-width="4"></path><path d="M 327.4 790.5 Q 333.8 816.3, 292.6 819.5 Q 286.2 793.7, 327.4 790.5 Z" fill="#17c3b2" stroke="black" stroke-width="4"></path><path d="M 250 760 Q 235.7 777.9, 232.6 790.5 Q 273.8 793.7, 267.4 819.5 Q 273.2 820, 280 820 Q 286.8 820, 292.6 819.5 Q 286.2 793.7, 327.4 790.5 Q 324.3 777.9, 310 760 Q 295.7 742.1, 292.6 729.5 Q 286.8 730, 280 730 Q 273.2 730, 267.4 729.5 Q 264.3 742.1, 250 760 Z" fill="#fef9ef" stroke="black" stroke-width="4"></path><path d="M 310 760 Q 295.7 742.1, 292.6 729.5 Q 333.8 726.3, 327.4 700.5 Q 333.2 700, 340 700 Q 346.8 700, 352.6 700.5 Q 346.2 726.3, 387.4 729.5 Q 384.3 742.1, 370 760 Q 355.7 777.9, 352.6 790.5 Q 346.8 790, 340 790 Q 333.2 790, 327.4 790.5 Q 324.3 777.9, 310 760 Z" fill="#fef9ef" stroke="black" stroke-width="4"></path><path d="M 232.6 880.5 Q 226.2 906.3, 267.4 909.5 Q 273.8 883.7, 232.6 880.5 Z" fill="#fef9ef" stroke="black" stroke-width="4"></path><path d="M 327.4 880.5 Q 333.8 906.3, 292.6 909.5 Q 286.2 883.7, 327.4 880.5 Z" fill="#fef9ef" stroke="black" stroke-width="4"></path><path d="M 250 850 Q 235.7 867.9, 232.6 880.5 Q 273.8 883.7, 267.4 909.5 Q 273.2 910, 280 910 Q 286.8 910, 292.6 909.5 Q 286.2 883.7, 327.4 880.5 Q 324.3 867.9, 310 850 Q 295.7 832.1, 292.6 819.5 Q 286.8 820, 280 820 Q 273.2 820, 267.4 819.5 Q 264.3 832.1, 250 850 Z" fill="#FFCB77" stroke="black" stroke-width="4"></path><path d="M 310 850 Q 295.7 832.1, 292.6 819.5 Q 333.8 816.3, 327.4 790.5 Q 333.2 790, 340 790 Q 346.8 790, 352.6 790.5 Q 346.2 816.3, 387.4 819.5 Q 384.3 832.1, 370 850 Q 355.7 867.9, 352.6 880.5 Q 346.8 880, 340 880 Q 333.2 880, 327.4 880.5 Q 324.3 867.9, 310 850 Z" fill="#FFCB77" stroke="black" stroke-width="4"></path><path d="M 352.6 -19.5 Q 346.2 6.3, 387.4 9.5 Q 393.8 -16.3, 352.6 -19.5 Z" fill="#227C9D" stroke="black" stroke-width="4"></path><path d="M 447.4 -19.5 Q 453.8 6.3, 412.6 9.5 Q 406.2 -16.3, 447.4 -19.5 Z" fill="#227C9D" stroke="black" stroke-width="4"></path><path d="M 370 -50 Q 355.7 -32.1, 352.6 -19.5 Q 393.8 -16.3, 387.4 9.5 Q 393.2 10, 400 10 Q 406.8 10, 412.6 9.5 Q 406.2 -16.3, 447.4 -19.5 Q 444.3 -32.1, 430 -50 Q 415.7 -67.9, 412.6 -80.5 Q 406.8 -80, 400 -80 Q 393.2 -80, 387.4 -80.5 Q 384.3 -67.9, 370 -50 Z" fill="#17c3b2" stroke="black" stroke-width="4"></path><path d="M 430 -50 Q 415.7 -67.9, 412.6 -80.5 Q 453.8 -83.7, 447.4 -109.5 Q 453.2 -110, 460 -110 Q 466.8 -110, 472.6 -109.5 Q 466.2 -83.7, 507.4 -80.5 Q 504.3 -67.9, 490 -50 Q 475.7 -32.1, 472.6 -19.5 Q 466.8 -20, 460 -20 Q 453.2 -20, 447.4 -19.5 Q 444.3 -32.1, 430 -50 Z" fill="#17c3b2" stroke="black" stroke-width="4"></path><path d="M 352.6 70.5 Q 346.2 96.3, 387.4 99.5 Q 393.8 73.7, 352.6 70.5 Z" fill="#17c3b2" stroke="black" stroke-width="4"></path><path d="M 447.4 70.5 Q 453.8 96.3, 412.6 99.5 Q 406.2 73.7, 447.4 70.5 Z" fill="#17c3b2" stroke="black" stroke-width="4"></path><path d="M 370 40 Q 355.7 57.9, 352.6 70.5 Q 393.8 73.7, 387.4 99.5 Q 393.2 100, 400 100 Q 406.8 100, 412.6 99.5 Q 406.2 73.7, 447.4 70.5 Q 444.3 57.9, 430 40 Q 415.7 22.1, 412.6 9.5 Q 406.8 10, 400 10 Q 393.2 10, 387.4 9.5 Q 384.3 22.1, 370 40 Z" fill="#fef9ef" stroke="black" stroke-width="4"></path><path d="M 430 40 Q 415.7 22.1, 412.6 9.5 Q 453.8 6.3, 447.4 -19.5 Q 453.2 -20, 460 -20 Q 466.8 -20, 472.6 -19.5 Q 466.2 6.3, 507.4 9.5 Q 504.3 22.1, 490 40 Q 475.7 57.9, 472.6 70.5 Q 466.8 70, 460 70 Q 453.2 70, 447.4 70.5 Q 444.3 57.9, 430 40 Z" fill="#fef9ef" stroke="black" stroke-width="4"></path><path d="M 352.6 160.5 Q 346.2 186.3, 387.4 189.5 Q 393.8 163.7, 352.6 160.5 Z" fill="#fef9ef" stroke="black" stroke-width="4"></path><path d="M 447.4 160.5 Q 453.8 186.3, 412.6 189.5 Q 406.2 163.7, 447.4 160.5 Z" fill="#fef9ef" stroke="black" stroke-width="4"></path><path d="M 370 130 Q 355.7 147.9, 352.6 160.5 Q 393.8 163.7, 387.4 189.5 Q 393.2 190, 400 190 Q 406.8 190, 412.6 189.5 Q 406.2 163.7, 447.4 160.5 Q 444.3 147.9, 430 130 Q 415.7 112.1, 412.6 99.5 Q 406.8 100, 400 100 Q 393.2 100, 387.4 99.5 Q 384.3 112.1, 370 130 Z" fill="#FFCB77" stroke="black" stroke-width="4"></path><path d="M 430 130 Q 415.7 112.1, 412.6 99.5 Q 453.8 96.3, 447.4 70.5 Q 453.2 70, 460 70 Q 466.8 70, 472.6 70.5 Q 466.2 96.3, 507.4 99.5 Q 504.3 112.1, 490 130 Q 475.7 147.9, 472.6 160.5 Q 466.8 160, 460 160 Q 453.2 160, 447.4 160.5 Q 444.3 147.9, 430 130 Z" fill="#FFCB77" stroke="black" stroke-width="4"></path><path d="M 352.6 250.5 Q 346.2 276.3, 387.4 279.5 Q 393.8 253.7, 352.6 250.5 Z" fill="#FFCB77" stroke="black" stroke-width="4"></path><path d="M 447.4 250.5 Q 453.8 276.3, 412.6 279.5 Q 406.2 253.7, 447.4 250.5 Z" fill="#FFCB77" stroke="black" stroke-width="4"></path><path d="M 370 220 Q 355.7 237.9, 352.6 250.5 Q 393.8 253.7, 387.4 279.5 Q 393.2 280, 400 280 Q 406.8 280, 412.6 279.5 Q 406.2 253.7, 447.4 250.5 Q 444.3 237.9, 430 220 Q 415.7 202.1, 412.6 189.5 Q 406.8 190, 400 190 Q 393.2 190, 387.4 189.5 Q 384.3 202.1, 370 220 Z" fill="#227C9D" stroke="black" stroke-width="4"></path><path d="M 430 220 Q 415.7 202.1, 412.6 189.5 Q 453.8 186.3, 447.4 160.5 Q 453.2 160, 460 160 Q 466.8 160, 472.6 160.5 Q 466.2 186.3, 507.4 189.5 Q 504.3 202.1, 490 220 Q 475.7 237.9, 472.6 250.5 Q 466.8 250, 460 250 Q 453.2 250, 447.4 250.5 Q 444.3 237.9, 430 220 Z" fill="#227C9D" stroke="black" stroke-width="4"></path><path d="M 352.6 340.5 Q 346.2 366.3, 387.4 369.5 Q 393.8 343.7, 352.6 340.5 Z" fill="#227C9D" stroke="black" stroke-width="4"></path><path d="M 447.4 340.5 Q 453.8 366.3, 412.6 369.5 Q 406.2 343.7, 447.4 340.5 Z" fill="#227C9D" stroke="black" stroke-width="4"></path><path d="M 370 310 Q 355.7 327.9, 352.6 340.5 Q 393.8 343.7, 387.4 369.5 Q 393.2 370, 400 370 Q 406.8 370, 412.6 369.5 Q 406.2 343.7, 447.4 340.5 Q 444.3 327.9, 430 310 Q 415.7 292.1, 412.6 279.5 Q 406.8 280, 400 280 Q 393.2 280, 387.4 279.5 Q 384.3 292.1, 370 310 Z" fill="#17c3b2" stroke="black" stroke-width="4"></path><path d="M 430 310 Q 415.7 292.1, 412.6 279.5 Q 453.8 276.3, 447.4 250.5 Q 453.2 250, 460 250 Q 466.8 250, 472.6 250.5 Q 466.2 276.3, 507.4 279.5 Q 504.3 292.1, 490 310 Q 475.7 327.9, 472.6 340.5 Q 466.8 340, 460 340 Q 453.2 340, 447.4 340.5 Q 444.3 327.9, 430 310 Z" fill="#17c3b2" stroke="black" stroke-width="4"></path><path d="M 352.6 430.5 Q 346.2 456.3, 387.4 459.5 Q 393.8 433.7, 352.6 430.5 Z" fill="#17c3b2" stroke="black" stroke-width="4"></path><path d="M 447.4 430.5 Q 453.8 456.3, 412.6 459.5 Q 406.2 433.7, 447.4 430.5 Z" fill="#17c3b2" stroke="black" stroke-width="4"></path><path d="M 370 400 Q 355.7 417.9, 352.6 430.5 Q 393.8 433.7, 387.4 459.5 Q 393.2 460, 400 460 Q 406.8 460, 412.6 459.5 Q 406.2 433.7, 447.4 430.5 Q 444.3 417.9, 430 400 Q 415.7 382.1, 412.6 369.5 Q 406.8 370, 400 370 Q 393.2 370, 387.4 369.5 Q 384.3 382.1, 370 400 Z" fill="#fef9ef" stroke="black" stroke-width="4"></path><path d="M 430 400 Q 415.7 382.1, 412.6 369.5 Q 453.8 366.3, 447.4 340.5 Q 453.2 340, 460 340 Q 466.8 340, 472.6 340.5 Q 466.2 366.3, 507.4 369.5 Q 504.3 382.1, 490 400 Q 475.7 417.9, 472.6 430.5 Q 466.8 430, 460 430 Q 453.2 430, 447.4 430.5 Q 444.3 417.9, 430 400 Z" fill="#fef9ef" stroke="black" stroke-width="4"></path><path d="M 352.6 520.5 Q 346.2 546.3, 387.4 549.5 Q 393.8 523.7, 352.6 520.5 Z" fill="#fef9ef" stroke="black" stroke-width="4"></path><path d="M 447.4 520.5 Q 453.8 546.3, 412.6 549.5 Q 406.2 523.7, 447.4 520.5 Z" fill="#fef9ef" stroke="black" stroke-width="4"></path><path d="M 370 490 Q 355.7 507.9, 352.6 520.5 Q 393.8 523.7, 387.4 549.5 Q 393.2 550, 400 550 Q 406.8 550, 412.6 549.5 Q 406.2 523.7, 447.4 520.5 Q 444.3 507.9, 430 490 Q 415.7 472.1, 412.6 459.5 Q 406.8 460, 400 460 Q 393.2 460, 387.4 459.5 Q 384.3 472.1, 370 490 Z" fill="#FFCB77" stroke="black" stroke-width="4"></path><path d="M 430 490 Q 415.7 472.1, 412.6 459.5 Q 453.8 456.3, 447.4 430.5 Q 453.2 430, 460 430 Q 466.8 430, 472.6 430.5 Q 466.2 456.3, 507.4 459.5 Q 504.3 472.1, 490 490 Q 475.7 507.9, 472.6 520.5 Q 466.8 520, 460 520 Q 453.2 520, 447.4 520.5 Q 444.3 507.9, 430 490 Z" fill="#FFCB77" stroke="black" stroke-width="4"></path><path d="M 352.6 610.5 Q 346.2 636.3, 387.4 639.5 Q 393.8 613.7, 352.6 610.5 Z" fill="#FFCB77" stroke="black" stroke-width="4"></path><path d="M 447.4 610.5 Q 453.8 636.3, 412.6 639.5 Q 406.2 613.7, 447.4 610.5 Z" fill="#FFCB77" stroke="black" stroke-width="4"></path><path d="M 370 580 Q 355.7 597.9, 352.6 610.5 Q 393.8 613.7, 387.4 639.5 Q 393.2 640, 400 640 Q 406.8 640, 412.6 639.5 Q 406.2 613.7, 447.4 610.5 Q 444.3 597.9, 430 580 Q 415.7 562.1, 412.6 549.5 Q 406.8 550, 400 550 Q 393.2 550, 387.4 549.5 Q 384.3 562.1, 370 580 Z" fill="#227C9D" stroke="black" stroke-width="4"></path><path d="M 430 580 Q 415.7 562.1, 412.6 549.5 Q 453.8 546.3, 447.4 520.5 Q 453.2 520, 460 520 Q 466.8 520, 472.6 520.5 Q 466.2 546.3, 507.4 549.5 Q 504.3 562.1, 490 580 Q 475.7 597.9, 472.6 610.5 Q 466.8 610, 460 610 Q 453.2 610, 447.4 610.5 Q 444.3 597.9, 430 580 Z" fill="#227C9D" stroke="black" stroke-width="4"></path><path d="M 352.6 700.5 Q 346.2 726.3, 387.4 729.5 Q 393.8 703.7, 352.6 700.5 Z" fill="#227C9D" stroke="black" stroke-width="4"></path><path d="M 447.4 700.5 Q 453.8 726.3, 412.6 729.5 Q 406.2 703.7, 447.4 700.5 Z" fill="#227C9D" stroke="black" stroke-width="4"></path><path d="M 370 670 Q 355.7 687.9, 352.6 700.5 Q 393.8 703.7, 387.4 729.5 Q 393.2 730, 400 730 Q 406.8 730, 412.6 729.5 Q 406.2 703.7, 447.4 700.5 Q 444.3 687.9, 430 670 Q 415.7 652.1, 412.6 639.5 Q 406.8 640, 400 640 Q 393.2 640, 387.4 639.5 Q 384.3 652.1, 370 670 Z" fill="#17c3b2" stroke="black" stroke-width="4"></path><path d="M 430 670 Q 415.7 652.1, 412.6 639.5 Q 453.8 636.3, 447.4 610.5 Q 453.2 610, 460 610 Q 466.8 610, 472.6 610.5 Q 466.2 636.3, 507.4 639.5 Q 504.3 652.1, 490 670 Q 475.7 687.9, 472.6 700.5 Q 466.8 700, 460 700 Q 453.2 700, 447.4 700.5 Q 444.3 687.9, 430 670 Z" fill="#17c3b2" stroke="black" stroke-width="4"></path><path d="M 352.6 790.5 Q 346.2 816.3, 387.4 819.5 Q 393.8 793.7, 352.6 790.5 Z" fill="#17c3b2" stroke="black" stroke-width="4"></path><path d="M 447.4 790.5 Q 453.8 816.3, 412.6 819.5 Q 406.2 793.7, 447.4 790.5 Z" fill="#17c3b2" stroke="black" stroke-width="4"></path><path d="M 370 760 Q 355.7 777.9, 352.6 790.5 Q 393.8 793.7, 387.4 819.5 Q 393.2 820, 400 820 Q 406.8 820, 412.6 819.5 Q 406.2 793.7, 447.4 790.5 Q 444.3 777.9, 430 760 Q 415.7 742.1, 412.6 729.5 Q 406.8 730, 400 730 Q 393.2 730, 387.4 729.5 Q 384.3 742.1, 370 760 Z" fill="#fef9ef" stroke="black" stroke-width="4"></path><path d="M 430 760 Q 415.7 742.1, 412.6 729.5 Q 453.8 726.3, 447.4 700.5 Q 453.2 700, 460 700 Q 466.8 700, 472.6 700.5 Q 466.2 726.3, 507.4 729.5 Q 504.3 742.1, 490 760 Q 475.7 777.9, 472.6 790.5 Q 466.8 790, 460 790 Q 453.2 790, 447.4 790.5 Q 444.3 777.9, 430 760 Z" fill="#fef9ef" stroke="black" stroke-width="4"></path><path d="M 352.6 880.5 Q 346.2 906.3, 387.4 909.5 Q 393.8 883.7, 352.6 880.5 Z" fill="#fef9ef" stroke="black" stroke-width="4"></path><path d="M 447.4 880.5 Q 453.8 906.3, 412.6 909.5 Q 406.2 883.7, 447.4 880.5 Z" fill="#fef9ef" stroke="black" stroke-width="4"></path><path d="M 370 850 Q 355.7 867.9, 352.6 880.5 Q 393.8 883.7, 387.4 909.5 Q 393.2 910, 400 910 Q 406.8 910, 412.6 909.5 Q 406.2 883.7, 447.4 880.5 Q 444.3 867.9, 430 850 Q 415.7 832.1, 412.6 819.5 Q 406.8 820, 400 820 Q 393.2 820, 387.4 819.5 Q 384.3 832.1, 370 850 Z" fill="#FFCB77" stroke="black" stroke-width="4"></path><path d="M 430 850 Q 415.7 832.1, 412.6 819.5 Q 453.8 816.3, 447.4 790.5 Q 453.2 790, 460 790 Q 466.8 790, 472.6 790.5 Q 466.2 816.3, 507.4 819.5 Q 504.3 832.1, 490 850 Q 475.7 867.9, 472.6 880.5 Q 466.8 880, 460 880 Q 453.2 880, 447.4 880.5 Q 444.3 867.9, 430 850 Z" fill="#FFCB77" stroke="black" stroke-width="4"></path><path d="M 472.6 -19.5 Q 466.2 6.3, 507.4 9.5 Q 513.8 -16.3, 472.6 -19.5 Z" fill="#227C9D" stroke="black" stroke-width="4"></path><path d="M 567.4 -19.5 Q 573.8 6.3, 532.6 9.5 Q 526.2 -16.3, 567.4 -19.5 Z" fill="#227C9D" stroke="black" stroke-width="4"></path><path d="M 490 -50 Q 475.7 -32.1, 472.6 -19.5 Q 513.8 -16.3, 507.4 9.5 Q 513.2 10, 520 10 Q 526.8 10, 532.6 9.5 Q 526.2 -16.3, 567.4 -19.5 Q 564.3 -32.1, 550 -50 Q 535.7 -67.9, 532.6 -80.5 Q 526.8 -80, 520 -80 Q 513.2 -80, 507.4 -80.5 Q 504.3 -67.9, 490 -50 Z" fill="#17c3b2" stroke="black" stroke-width="4"></path><path d="M 550 -50 Q 535.7 -67.9, 532.6 -80.5 Q 573.8 -83.7, 567.4 -109.5 Q 573.2 -110, 580 -110 Q 586.8 -110, 592.6 -109.5 Q 586.2 -83.7, 627.4 -80.5 Q 624.3 -67.9, 610 -50 Q 595.7 -32.1, 592.6 -19.5 Q 586.8 -20, 580 -20 Q 573.2 -20, 567.4 -19.5 Q 564.3 -32.1, 550 -50 Z" fill="#17c3b2" stroke="black" stroke-width="4"></path><path d="M 472.6 70.5 Q 466.2 96.3, 507.4 99.5 Q 513.8 73.7, 472.6 70.5 Z" fill="#17c3b2" stroke="black" stroke-width="4"></path><path d="M 567.4 70.5 Q 573.8 96.3, 532.6 99.5 Q 526.2 73.7, 567.4 70.5 Z" fill="#17c3b2" stroke="black" stroke-width="4"></path><path d="M 490 40 Q 475.7 57.9, 472.6 70.5 Q 513.8 73.7, 507.4 99.5 Q 513.2 100, 520 100 Q 526.8 100, 532.6 99.5 Q 526.2 73.7, 567.4 70.5 Q 564.3 57.9, 550 40 Q 535.7 22.1, 532.6 9.5 Q 526.8 10, 520 10 Q 513.2 10, 507.4 9.5 Q 504.3 22.1, 490 40 Z" fill="#fef9ef" stroke="black" stroke-width="4"></path><path d="M 550 40 Q 535.7 22.1, 532.6 9.5 Q 573.8 6.3, 567.4 -19.5 Q 573.2 -20, 580 -20 Q 586.8 -20, 592.6 -19.5 Q 586.2 6.3, 627.4 9.5 Q 624.3 22.1, 610 40 Q 595.7 57.9, 592.6 70.5 Q 586.8 70, 580 70 Q 573.2 70, 567.4 70.5 Q 564.3 57.9, 550 40 Z" fill="#fef9ef" stroke="black" stroke-width="4"></path><path d="M 472.6 160.5 Q 466.2 186.3, 507.4 189.5 Q 513.8 163.7, 472.6 160.5 Z" fill="#fef9ef" stroke="black" stroke-width="4"></path><path d="M 567.4 160.5 Q 573.8 186.3, 532.6 189.5 Q 526.2 163.7, 567.4 160.5 Z" fill="#fef9ef" stroke="black" stroke-width="4"></path><path d="M 490 130 Q 475.7 147.9, 472.6 160.5 Q 513.8 163.7, 507.4 189.5 Q 513.2 190, 520 190 Q 526.8 190, 532.6 189.5 Q 526.2 163.7, 567.4 160.5 Q 564.3 147.9, 550 130 Q 535.7 112.1, 532.6 99.5 Q 526.8 100, 520 100 Q 513.2 100, 507.4 99.5 Q 504.3 112.1, 490 130 Z" fill="#FFCB77" stroke="black" stroke-width="4"></path><path d="M 550 130 Q 535.7 112.1, 532.6 99.5 Q 573.8 96.3, 567.4 70.5 Q 573.2 70, 580 70 Q 586.8 70, 592.6 70.5 Q 586.2 96.3, 627.4 99.5 Q 624.3 112.1, 610 130 Q 595.7 147.9, 592.6 160.5 Q 586.8 160, 580 160 Q 573.2 160, 567.4 160.5 Q 564.3 147.9, 550 130 Z" fill="#FFCB77" stroke="black" stroke-width="4"></path><path d="M 472.6 250.5 Q 466.2 276.3, 507.4 279.5 Q 513.8 253.7, 472.6 250.5 Z" fill="#FFCB77" stroke="black" stroke-width="4"></path><path d="M 567.4 250.5 Q 573.8 276.3, 532.6 279.5 Q 526.2 253.7, 567.4 250.5 Z" fill="#FFCB77" stroke="black" stroke-width="4"></path><path d="M 490 220 Q 475.7 237.9, 472.6 250.5 Q 513.8 253.7, 507.4 279.5 Q 513.2 280, 520 280 Q 526.8 280, 532.6 279.5 Q 526.2 253.7, 567.4 250.5 Q 564.3 237.9, 550 220 Q 535.7 202.1, 532.6 189.5 Q 526.8 190, 520 190 Q 513.2 190, 507.4 189.5 Q 504.3 202.1, 490 220 Z" fill="#227C9D" stroke="black" stroke-width="4"></path><path d="M 550 220 Q 535.7 202.1, 532.6 189.5 Q 573.8 186.3, 567.4 160.5 Q 573.2 160, 580 160 Q 586.8 160, 592.6 160.5 Q 586.2 186.3, 627.4 189.5 Q 624.3 202.1, 610 220 Q 595.7 237.9, 592.6 250.5 Q 586.8 250, 580 250 Q 573.2 250, 567.4 250.5 Q 564.3 237.9, 550 220 Z" fill="#227C9D" stroke="black" stroke-width="4"></path><path d="M 472.6 340.5 Q 466.2 366.3, 507.4 369.5 Q 513.8 343.7, 472.6 340.5 Z" fill="#227C9D" stroke="black" stroke-width="4"></path><path d="M 567.4 340.5 Q 573.8 366.3, 532.6 369.5 Q 526.2 343.7, 567.4 340.5 Z" fill="#227C9D" stroke="black" stroke-width="4"></path><path d="M 490 310 Q 475.7 327.9, 472.6 340.5 Q 513.8 343.7, 507.4 369.5 Q 513.2 370, 520 370 Q 526.8 370, 532.6 369.5 Q 526.2 343.7, 567.4 340.5 Q 564.3 327.9, 550 310 Q 535.7 292.1, 532.6 279.5 Q 526.8 280, 520 280 Q 513.2 280, 507.4 279.5 Q 504.3 292.1, 490 310 Z" fill="#17c3b2" stroke="black" stroke-width="4"></path><path d="M 550 310 Q 535.7 292.1, 532.6 279.5 Q 573.8 276.3, 567.4 250.5 Q 573.2 250, 580 250 Q 586.8 250, 592.6 250.5 Q 586.2 276.3, 627.4 279.5 Q 624.3 292.1, 610 310 Q 595.7 327.9, 592.6 340.5 Q 586.8 340, 580 340 Q 573.2 340, 567.4 340.5 Q 564.3 327.9, 550 310 Z" fill="#17c3b2" stroke="black" stroke-width="4"></path><path d="M 472.6 430.5 Q 466.2 456.3, 507.4 459.5 Q 513.8 433.7, 472.6 430.5 Z" fill="#17c3b2" stroke="black" stroke-width="4"></path><path d="M 567.4 430.5 Q 573.8 456.3, 532.6 459.5 Q 526.2 433.7, 567.4 430.5 Z" fill="#17c3b2" stroke="black" stroke-width="4"></path><path d="M 490 400 Q 475.7 417.9, 472.6 430.5 Q 513.8 433.7, 507.4 459.5 Q 513.2 460, 520 460 Q 526.8 460, 532.6 459.5 Q 526.2 433.7, 567.4 430.5 Q 564.3 417.9, 550 400 Q 535.7 382.1, 532.6 369.5 Q 526.8 370, 520 370 Q 513.2 370, 507.4 369.5 Q 504.3 382.1, 490 400 Z" fill="#fef9ef" stroke="black" stroke-width="4"></path><path d="M 550 400 Q 535.7 382.1, 532.6 369.5 Q 573.8 366.3, 567.4 340.5 Q 573.2 340, 580 340 Q 586.8 340, 592.6 340.5 Q 586.2 366.3, 627.4 369.5 Q 624.3 382.1, 610 400 Q 595.7 417.9, 592.6 430.5 Q 586.8 430, 580 430 Q 573.2 430, 567.4 430.5 Q 564.3 417.9, 550 400 Z" fill="#fef9ef" stroke="black" stroke-width="4"></path><path d="M 472.6 520.5 Q 466.2 546.3, 507.4 549.5 Q 513.8 523.7, 472.6 520.5 Z" fill="#fef9ef" stroke="black" stroke-width="4"></path><path d="M 567.4 520.5 Q 573.8 546.3, 532.6 549.5 Q 526.2 523.7, 567.4 520.5 Z" fill="#fef9ef" stroke="black" stroke-width="4"></path><path d="M 490 490 Q 475.7 507.9, 472.6 520.5 Q 513.8 523.7, 507.4 549.5 Q 513.2 550, 520 550 Q 526.8 550, 532.6 549.5 Q 526.2 523.7, 567.4 520.5 Q 564.3 507.9, 550 490 Q 535.7 472.1, 532.6 459.5 Q 526.8 460, 520 460 Q 513.2 460, 507.4 459.5 Q 504.3 472.1, 490 490 Z" fill="#FFCB77" stroke="black" stroke-width="4"></path><path d="M 550 490 Q 535.7 472.1, 532.6 459.5 Q 573.8 456.3, 567.4 430.5 Q 573.2 430, 580 430 Q 586.8 430, 592.6 430.5 Q 586.2 456.3, 627.4 459.5 Q 624.3 472.1, 610 490 Q 595.7 507.9, 592.6 520.5 Q 586.8 520, 580 520 Q 573.2 520, 567.4 520.5 Q 564.3 507.9, 550 490 Z" fill="#FFCB77" stroke="black" stroke-width="4"></path><path d="M 472.6 610.5 Q 466.2 636.3, 507.4 639.5 Q 513.8 613.7, 472.6 610.5 Z" fill="#FFCB77" stroke="black" stroke-width="4"></path><path d="M 567.4 610.5 Q 573.8 636.3, 532.6 639.5 Q 526.2 613.7, 567.4 610.5 Z" fill="#FFCB77" stroke="black" stroke-width="4"></path><path d="M 490 580 Q 475.7 597.9, 472.6 610.5 Q 513.8 613.7, 507.4 639.5 Q 513.2 640, 520 640 Q 526.8 640, 532.6 639.5 Q 526.2 613.7, 567.4 610.5 Q 564.3 597.9, 550 580 Q 535.7 562.1, 532.6 549.5 Q 526.8 550, 520 550 Q 513.2 550, 507.4 549.5 Q 504.3 562.1, 490 580 Z" fill="#227C9D" stroke="black" stroke-width="4"></path><path d="M 550 580 Q 535.7 562.1, 532.6 549.5 Q 573.8 546.3, 567.4 520.5 Q 573.2 520, 580 520 Q 586.8 520, 592.6 520.5 Q 586.2 546.3, 627.4 549.5 Q 624.3 562.1, 610 580 Q 595.7 597.9, 592.6 610.5 Q 586.8 610, 580 610 Q 573.2 610, 567.4 610.5 Q 564.3 597.9, 550 580 Z" fill="#227C9D" stroke="black" stroke-width="4"></path><path d="M 472.6 700.5 Q 466.2 726.3, 507.4 729.5 Q 513.8 703.7, 472.6 700.5 Z" fill="#227C9D" stroke="black" stroke-width="4"></path><path d="M 567.4 700.5 Q 573.8 726.3, 532.6 729.5 Q 526.2 703.7, 567.4 700.5 Z" fill="#227C9D" stroke="black" stroke-width="4"></path><path d="M 490 670 Q 475.7 687.9, 472.6 700.5 Q 513.8 703.7, 507.4 729.5 Q 513.2 730, 520 730 Q 526.8 730, 532.6 729.5 Q 526.2 703.7, 567.4 700.5 Q 564.3 687.9, 550 670 Q 535.7 652.1, 532.6 639.5 Q 526.8 640, 520 640 Q 513.2 640, 507.4 639.5 Q 504.3 652.1, 490 670 Z" fill="#17c3b2" stroke="black" stroke-width="4"></path><path d="M 550 670 Q 535.7 652.1, 532.6 639.5 Q 573.8 636.3, 567.4 610.5 Q 573.2 610, 580 610 Q 586.8 610, 592.6 610.5 Q 586.2 636.3, 627.4 639.5 Q 624.3 652.1, 610 670 Q 595.7 687.9, 592.6 700.5 Q 586.8 700, 580 700 Q 573.2 700, 567.4 700.5 Q 564.3 687.9, 550 670 Z" fill="#17c3b2" stroke="black" stroke-width="4"></path><path d="M 472.6 790.5 Q 466.2 816.3, 507.4 819.5 Q 513.8 793.7, 472.6 790.5 Z" fill="#17c3b2" stroke="black" stroke-width="4"></path><path d="M 567.4 790.5 Q 573.8 816.3, 532.6 819.5 Q 526.2 793.7, 567.4 790.5 Z" fill="#17c3b2" stroke="black" stroke-width="4"></path><path d="M 490 760 Q 475.7 777.9, 472.6 790.5 Q 513.8 793.7, 507.4 819.5 Q 513.2 820, 520 820 Q 526.8 820, 532.6 819.5 Q 526.2 793.7, 567.4 790.5 Q 564.3 777.9, 550 760 Q 535.7 742.1, 532.6 729.5 Q 526.8 730, 520 730 Q 513.2 730, 507.4 729.5 Q 504.3 742.1, 490 760 Z" fill="#fef9ef" stroke="black" stroke-width="4"></path><path d="M 550 760 Q 535.7 742.1, 532.6 729.5 Q 573.8 726.3, 567.4 700.5 Q 573.2 700, 580 700 Q 586.8 700, 592.6 700.5 Q 586.2 726.3, 627.4 729.5 Q 624.3 742.1, 610 760 Q 595.7 777.9, 592.6 790.5 Q 586.8 790, 580 790 Q 573.2 790, 567.4 790.5 Q 564.3 777.9, 550 760 Z" fill="#fef9ef" stroke="black" stroke-width="4"></path><path d="M 472.6 880.5 Q 466.2 906.3, 507.4 909.5 Q 513.8 883.7, 472.6 880.5 Z" fill="#fef9ef" stroke="black" stroke-width="4"></path><path d="M 567.4 880.5 Q 573.8 906.3, 532.6 909.5 Q 526.2 883.7, 567.4 880.5 Z" fill="#fef9ef" stroke="black" stroke-width="4"></path><path d="M 490 850 Q 475.7 867.9, 472.6 880.5 Q 513.8 883.7, 507.4 909.5 Q 513.2 910, 520 910 Q 526.8 910, 532.6 909.5 Q 526.2 883.7, 567.4 880.5 Q 564.3 867.9, 550 850 Q 535.7 832.1, 532.6 819.5 Q 526.8 820, 520 820 Q 513.2 820, 507.4 819.5 Q 504.3 832.1, 490 850 Z" fill="#FFCB77" stroke="black" stroke-width="4"></path><path d="M 550 850 Q 535.7 832.1, 532.6 819.5 Q 573.8 816.3, 567.4 790.5 Q 573.2 790, 580 790 Q 586.8 790, 592.6 790.5 Q 586.2 816.3, 627.4 819.5 Q 624.3 832.1, 610 850 Q 595.7 867.9, 592.6 880.5 Q 586.8 880, 580 880 Q 573.2 880, 567.4 880.5 Q 564.3 867.9, 550 850 Z" fill="#FFCB77" stroke="black" stroke-width="4"></path><path d="M 592.6 -19.5 Q 586.2 6.3, 627.4 9.5 Q 633.8 -16.3, 592.6 -19.5 Z" fill="#227C9D" stroke="black" stroke-width="4"></path><path d="M 687.4 -19.5 Q 693.8 6.3, 652.6 9.5 Q 646.2 -16.3, 687.4 -19.5 Z" fill="#227C9D" stroke="black" stroke-width="4"></path><path d="M 610 -50 Q 595.7 -32.1, 592.6 -19.5 Q 633.8 -16.3, 627.4 9.5 Q 633.2 10, 640 10 Q 646.8 10, 652.6 9.5 Q 646.2 -16.3, 687.4 -19.5 Q 684.3 -32.1, 670 -50 Q 655.7 -67.9, 652.6 -80.5 Q 646.8 -80, 640 -80 Q 633.2 -80, 627.4 -80.5 Q 624.3 -67.9, 610 -50 Z" fill="#17c3b2" stroke="black" stroke-width="4"></path><path d="M 670 -50 Q 655.7 -67.9, 652.6 -80.5 Q 693.8 -83.7, 687.4 -109.5 Q 693.2 -110, 700 -110 Q 706.8 -110, 712.6 -109.5 Q 706.2 -83.7, 747.4 -80.5 Q 744.3 -67.9, 730 -50 Q 715.7 -32.1, 712.6 -19.5 Q 706.8 -20, 700 -20 Q 693.2 -20, 687.4 -19.5 Q 684.3 -32.1, 670 -50 Z" fill="#17c3b2" stroke="black" stroke-width="4"></path><path d="M 592.6 70.5 Q 586.2 96.3, 627.4 99.5 Q 633.8 73.7, 592.6 70.5 Z" fill="#17c3b2" stroke="black" stroke-width="4"></path><path d="M 687.4 70.5 Q 693.8 96.3, 652.6 99.5 Q 646.2 73.7, 687.4 70.5 Z" fill="#17c3b2" stroke="black" stroke-width="4"></path><path d="M 610 40 Q 595.7 57.9, 592.6 70.5 Q 633.8 73.7, 627.4 99.5 Q 633.2 100, 640 100 Q 646.8 100, 652.6 99.5 Q 646.2 73.7, 687.4 70.5 Q 684.3 57.9, 670 40 Q 655.7 22.1, 652.6 9.5 Q 646.8 10, 640 10 Q 633.2 10, 627.4 9.5 Q 624.3 22.1, 610 40 Z" fill="#fef9ef" stroke="black" stroke-width="4"></path><path d="M 670 40 Q 655.7 22.1, 652.6 9.5 Q 693.8 6.3, 687.4 -19.5 Q 693.2 -20, 700 -20 Q 706.8 -20, 712.6 -19.5 Q 706.2 6.3, 747.4 9.5 Q 744.3 22.1, 730 40 Q 715.7 57.9, 712.6 70.5 Q 706.8 70, 700 70 Q 693.2 70, 687.4 70.5 Q 684.3 57.9, 670 40 Z" fill="#fef9ef" stroke="black" stroke-width="4"></path><path d="M 592.6 160.5 Q 586.2 186.3, 627.4 189.5 Q 633.8 163.7, 592.6 160.5 Z" fill="#fef9ef" stroke="black" stroke-width="4"></path><path d="M 687.4 160.5 Q 693.8 186.3, 652.6 189.5 Q 646.2 163.7, 687.4 160.5 Z" fill="#fef9ef" stroke="black" stroke-width="4"></path><path d="M 610 130 Q 595.7 147.9, 592.6 160.5 Q 633.8 163.7, 627.4 189.5 Q 633.2 190, 640 190 Q 646.8 190, 652.6 189.5 Q 646.2 163.7, 687.4 160.5 Q 684.3 147.9, 670 130 Q 655.7 112.1, 652.6 99.5 Q 646.8 100, 640 100 Q 633.2 100, 627.4 99.5 Q 624.3 112.1, 610 130 Z" fill="#FFCB77" stroke="black" stroke-width="4"></path><path d="M 670 130 Q 655.7 112.1, 652.6 99.5 Q 693.8 96.3, 687.4 70.5 Q 693.2 70, 700 70 Q 706.8 70, 712.6 70.5 Q 706.2 96.3, 747.4 99.5 Q 744.3 112.1, 730 130 Q 715.7 147.9, 712.6 160.5 Q 706.8 160, 700 160 Q 693.2 160, 687.4 160.5 Q 684.3 147.9, 670 130 Z" fill="#FFCB77" stroke="black" stroke-width="4"></path><path d="M 592.6 250.5 Q 586.2 276.3, 627.4 279.5 Q 633.8 253.7, 592.6 250.5 Z" fill="#FFCB77" stroke="black" stroke-width="4"></path><path d="M 687.4 250.5 Q 693.8 276.3, 652.6 279.5 Q 646.2 253.7, 687.4 250.5 Z" fill="#FFCB77" stroke="black" stroke-width="4"></path><path d="M 610 220 Q 595.7 237.9, 592.6 250.5 Q 633.8 253.7, 627.4 279.5 Q 633.2 280, 640 280 Q 646.8 280, 652.6 279.5 Q 646.2 253.7, 687.4 250.5 Q 684.3 237.9, 670 220 Q 655.7 202.1, 652.6 189.5 Q 646.8 190, 640 190 Q 633.2 190, 627.4 189.5 Q 624.3 202.1, 610 220 Z" fill="#227C9D" stroke="black" stroke-width="4"></path><path d="M 670 220 Q 655.7 202.1, 652.6 189.5 Q 693.8 186.3, 687.4 160.5 Q 693.2 160, 700 160 Q 706.8 160, 712.6 160.5 Q 706.2 186.3, 747.4 189.5 Q 744.3 202.1, 730 220 Q 715.7 237.9, 712.6 250.5 Q 706.8 250, 700 250 Q 693.2 250, 687.4 250.5 Q 684.3 237.9, 670 220 Z" fill="#227C9D" stroke="black" stroke-width="4"></path><path d="M 592.6 340.5 Q 586.2 366.3, 627.4 369.5 Q 633.8 343.7, 592.6 340.5 Z" fill="#227C9D" stroke="black" stroke-width="4"></path><path d="M 687.4 340.5 Q 693.8 366.3, 652.6 369.5 Q 646.2 343.7, 687.4 340.5 Z" fill="#227C9D" stroke="black" stroke-width="4"></path><path d="M 610 310 Q 595.7 327.9, 592.6 340.5 Q 633.8 343.7, 627.4 369.5 Q 633.2 370, 640 370 Q 646.8 370, 652.6 369.5 Q 646.2 343.7, 687.4 340.5 Q 684.3 327.9, 670 310 Q 655.7 292.1, 652.6 279.5 Q 646.8 280, 640 280 Q 633.2 280, 627.4 279.5 Q 624.3 292.1, 610 310 Z" fill="#17c3b2" stroke="black" stroke-width="4"></path><path d="M 670 310 Q 655.7 292.1, 652.6 279.5 Q 693.8 276.3, 687.4 250.5 Q 693.2 250, 700 250 Q 706.8 250, 712.6 250.5 Q 706.2 276.3, 747.4 279.5 Q 744.3 292.1, 730 310 Q 715.7 327.9, 712.6 340.5 Q 706.8 340, 700 340 Q 693.2 340, 687.4 340.5 Q 684.3 327.9, 670 310 Z" fill="#17c3b2" stroke="black" stroke-width="4"></path><path d="M 592.6 430.5 Q 586.2 456.3, 627.4 459.5 Q 633.8 433.7, 592.6 430.5 Z" fill="#17c3b2" stroke="black" stroke-width="4"></path><path d="M 687.4 430.5 Q 693.8 456.3, 652.6 459.5 Q 646.2 433.7, 687.4 430.5 Z" fill="#17c3b2" stroke="black" stroke-width="4"></path><path d="M 610 400 Q 595.7 417.9, 592.6 430.5 Q 633.8 433.7, 627.4 459.5 Q 633.2 460, 640 460 Q 646.8 460, 652.6 459.5 Q 646.2 433.7, 687.4 430.5 Q 684.3 417.9, 670 400 Q 655.7 382.1, 652.6 369.5 Q 646.8 370, 640 370 Q 633.2 370, 627.4 369.5 Q 624.3 382.1, 610 400 Z" fill="#fef9ef" stroke="black" stroke-width="4"></path><path d="M 670 400 Q 655.7 382.1, 652.6 369.5 Q 693.8 366.3, 687.4 340.5 Q 693.2 340, 700 340 Q 706.8 340, 712.6 340.5 Q 706.2 366.3, 747.4 369.5 Q 744.3 382.1, 730 400 Q 715.7 417.9, 712.6 430.5 Q 706.8 430, 700 430 Q 693.2 430, 687.4 430.5 Q 684.3 417.9, 670 400 Z" fill="#fef9ef" stroke="black" stroke-width="4"></path><path d="M 592.6 520.5 Q 586.2 546.3, 627.4 549.5 Q 633.8 523.7, 592.6 520.5 Z" fill="#fef9ef" stroke="black" stroke-width="4"></path><path d="M 687.4 520.5 Q 693.8 546.3, 652.6 549.5 Q 646.2 523.7, 687.4 520.5 Z" fill="#fef9ef" stroke="black" stroke-width="4"></path><path d="M 610 490 Q 595.7 507.9, 592.6 520.5 Q 633.8 523.7, 627.4 549.5 Q 633.2 550, 640 550 Q 646.8 550, 652.6 549.5 Q 646.2 523.7, 687.4 520.5 Q 684.3 507.9, 670 490 Q 655.7 472.1, 652.6 459.5 Q 646.8 460, 640 460 Q 633.2 460, 627.4 459.5 Q 624.3 472.1, 610 490 Z" fill="#FFCB77" stroke="black" stroke-width="4"></path><path d="M 670 490 Q 655.7 472.1, 652.6 459.5 Q 693.8 456.3, 687.4 430.5 Q 693.2 430, 700 430 Q 706.8 430, 712.6 430.5 Q 706.2 456.3, 747.4 459.5 Q 744.3 472.1, 730 490 Q 715.7 507.9, 712.6 520.5 Q 706.8 520, 700 520 Q 693.2 520, 687.4 520.5 Q 684.3 507.9, 670 490 Z" fill="#FFCB77" stroke="black" stroke-width="4"></path><path d="M 592.6 610.5 Q 586.2 636.3, 627.4 639.5 Q 633.8 613.7, 592.6 610.5 Z" fill="#FFCB77" stroke="black" stroke-width="4"></path><path d="M 687.4 610.5 Q 693.8 636.3, 652.6 639.5 Q 646.2 613.7, 687.4 610.5 Z" fill="#FFCB77" stroke="black" stroke-width="4"></path><path d="M 610 580 Q 595.7 597.9, 592.6 610.5 Q 633.8 613.7, 627.4 639.5 Q 633.2 640, 640 640 Q 646.8 640, 652.6 639.5 Q 646.2 613.7, 687.4 610.5 Q 684.3 597.9, 670 580 Q 655.7 562.1, 652.6 549.5 Q 646.8 550, 640 550 Q 633.2 550, 627.4 549.5 Q 624.3 562.1, 610 580 Z" fill="#227C9D" stroke="black" stroke-width="4"></path><path d="M 670 580 Q 655.7 562.1, 652.6 549.5 Q 693.8 546.3, 687.4 520.5 Q 693.2 520, 700 520 Q 706.8 520, 712.6 520.5 Q 706.2 546.3, 747.4 549.5 Q 744.3 562.1, 730 580 Q 715.7 597.9, 712.6 610.5 Q 706.8 610, 700 610 Q 693.2 610, 687.4 610.5 Q 684.3 597.9, 670 580 Z" fill="#227C9D" stroke="black" stroke-width="4"></path><path d="M 592.6 700.5 Q 586.2 726.3, 627.4 729.5 Q 633.8 703.7, 592.6 700.5 Z" fill="#227C9D" stroke="black" stroke-width="4"></path><path d="M 687.4 700.5 Q 693.8 726.3, 652.6 729.5 Q 646.2 703.7, 687.4 700.5 Z" fill="#227C9D" stroke="black" stroke-width="4"></path><path d="M 610 670 Q 595.7 687.9, 592.6 700.5 Q 633.8 703.7, 627.4 729.5 Q 633.2 730, 640 730 Q 646.8 730, 652.6 729.5 Q 646.2 703.7, 687.4 700.5 Q 684.3 687.9, 670 670 Q 655.7 652.1, 652.6 639.5 Q 646.8 640, 640 640 Q 633.2 640, 627.4 639.5 Q 624.3 652.1, 610 670 Z" fill="#17c3b2" stroke="black" stroke-width="4"></path><path d="M 670 670 Q 655.7 652.1, 652.6 639.5 Q 693.8 636.3, 687.4 610.5 Q 693.2 610, 700 610 Q 706.8 610, 712.6 610.5 Q 706.2 636.3, 747.4 639.5 Q 744.3 652.1, 730 670 Q 715.7 687.9, 712.6 700.5 Q 706.8 700, 700 700 Q 693.2 700, 687.4 700.5 Q 684.3 687.9, 670 670 Z" fill="#17c3b2" stroke="black" stroke-width="4"></path><path d="M 592.6 790.5 Q 586.2 816.3, 627.4 819.5 Q 633.8 793.7, 592.6 790.5 Z" fill="#17c3b2" stroke="black" stroke-width="4"></path><path d="M 687.4 790.5 Q 693.8 816.3, 652.6 819.5 Q 646.2 793.7, 687.4 790.5 Z" fill="#17c3b2" stroke="black" stroke-width="4"></path><path d="M 610 760 Q 595.7 777.9, 592.6 790.5 Q 633.8 793.7, 627.4 819.5 Q 633.2 820, 640 820 Q 646.8 820, 652.6 819.5 Q 646.2 793.7, 687.4 790.5 Q 684.3 777.9, 670 760 Q 655.7 742.1, 652.6 729.5 Q 646.8 730, 640 730 Q 633.2 730, 627.4 729.5 Q 624.3 742.1, 610 760 Z" fill="#fef9ef" stroke="black" stroke-width="4"></path><path d="M 670 760 Q 655.7 742.1, 652.6 729.5 Q 693.8 726.3, 687.4 700.5 Q 693.2 700, 700 700 Q 706.8 700, 712.6 700.5 Q 706.2 726.3, 747.4 729.5 Q 744.3 742.1, 730 760 Q 715.7 777.9, 712.6 790.5 Q 706.8 790, 700 790 Q 693.2 790, 687.4 790.5 Q 684.3 777.9, 670 760 Z" fill="#fef9ef" stroke="black" stroke-width="4"></path><path d="M 592.6 880.5 Q 586.2 906.3, 627.4 909.5 Q 633.8 883.7, 592.6 880.5 Z" fill="#fef9ef" stroke="black" stroke-width="4"></path><path d="M 687.4 880.5 Q 693.8 906.3, 652.6 909.5 Q 646.2 883.7, 687.4 880.5 Z" fill="#fef9ef" stroke="black" stroke-width="4"></path><path d="M 610 850 Q 595.7 867.9, 592.6 880.5 Q 633.8 883.7, 627.4 909.5 Q 633.2 910, 640 910 Q 646.8 910, 652.6 909.5 Q 646.2 883.7, 687.4 880.5 Q 684.3 867.9, 670 850 Q 655.7 832.1, 652.6 819.5 Q 646.8 820, 640 820 Q 633.2 820, 627.4 819.5 Q 624.3 832.1, 610 850 Z" fill="#FFCB77" stroke="black" stroke-width="4"></path><path d="M 670 850 Q 655.7 832.1, 652.6 819.5 Q 693.8 816.3, 687.4 790.5 Q 693.2 790, 700 790 Q 706.8 790, 712.6 790.5 Q 706.2 816.3, 747.4 819.5 Q 744.3 832.1, 730 850 Q 715.7 867.9, 712.6 880.5 Q 706.8 880, 700 880 Q 693.2 880, 687.4 880.5 Q 684.3 867.9, 670 850 Z" fill="#FFCB77" stroke="black" stroke-width="4"></path><path d="M 712.6 -19.5 Q 706.2 6.3, 747.4 9.5 Q 753.8 -16.3, 712.6 -19.5 Z" fill="#227C9D" stroke="black" stroke-width="4"></path><path d="M 807.4 -19.5 Q 813.8 6.3, 772.6 9.5 Q 766.2 -16.3, 807.4 -19.5 Z" fill="#227C9D" stroke="black" stroke-width="4"></path><path d="M 730 -50 Q 715.7 -32.1, 712.6 -19.5 Q 753.8 -16.3, 747.4 9.5 Q 753.2 10, 760 10 Q 766.8 10, 772.6 9.5 Q 766.2 -16.3, 807.4 -19.5 Q 804.3 -32.1, 790 -50 Q 775.7 -67.9, 772.6 -80.5 Q 766.8 -80, 760 -80 Q 753.2 -80, 747.4 -80.5 Q 744.3 -67.9, 730 -50 Z" fill="#17c3b2" stroke="black" stroke-width="4"></path><path d="M 790 -50 Q 775.7 -67.9, 772.6 -80.5 Q 813.8 -83.7, 807.4 -109.5 Q 813.2 -110, 820 -110 Q 826.8 -110, 832.6 -109.5 Q 826.2 -83.7, 867.4 -80.5 Q 864.3 -67.9, 850 -50 Q 835.7 -32.1, 832.6 -19.5 Q 826.8 -20, 820 -20 Q 813.2 -20, 807.4 -19.5 Q 804.3 -32.1, 790 -50 Z" fill="#17c3b2" stroke="black" stroke-width="4"></path><path d="M 712.6 70.5 Q 706.2 96.3, 747.4 99.5 Q 753.8 73.7, 712.6 70.5 Z" fill="#17c3b2" stroke="black" stroke-width="4"></path><path d="M 807.4 70.5 Q 813.8 96.3, 772.6 99.5 Q 766.2 73.7, 807.4 70.5 Z" fill="#17c3b2" stroke="black" stroke-width="4"></path><path d="M 730 40 Q 715.7 57.9, 712.6 70.5 Q 753.8 73.7, 747.4 99.5 Q 753.2 100, 760 100 Q 766.8 100, 772.6 99.5 Q 766.2 73.7, 807.4 70.5 Q 804.3 57.9, 790 40 Q 775.7 22.1, 772.6 9.5 Q 766.8 10, 760 10 Q 753.2 10, 747.4 9.5 Q 744.3 22.1, 730 40 Z" fill="#fef9ef" stroke="black" stroke-width="4"></path><path d="M 790 40 Q 775.7 22.1, 772.6 9.5 Q 813.8 6.3, 807.4 -19.5 Q 813.2 -20, 820 -20 Q 826.8 -20, 832.6 -19.5 Q 826.2 6.3, 867.4 9.5 Q 864.3 22.1, 850 40 Q 835.7 57.9, 832.6 70.5 Q 826.8 70, 820 70 Q 813.2 70, 807.4 70.5 Q 804.3 57.9, 790 40 Z" fill="#fef9ef" stroke="black" stroke-width="4"></path><path d="M 712.6 160.5 Q 706.2 186.3, 747.4 189.5 Q 753.8 163.7, 712.6 160.5 Z" fill="#fef9ef" stroke="black" stroke-width="4"></path><path d="M 807.4 160.5 Q 813.8 186.3, 772.6 189.5 Q 766.2 163.7, 807.4 160.5 Z" fill="#fef9ef" stroke="black" stroke-width="4"></path><path d="M 730 130 Q 715.7 147.9, 712.6 160.5 Q 753.8 163.7, 747.4 189.5 Q 753.2 190, 760 190 Q 766.8 190, 772.6 189.5 Q 766.2 163.7, 807.4 160.5 Q 804.3 147.9, 790 130 Q 775.7 112.1, 772.6 99.5 Q 766.8 100, 760 100 Q 753.2 100, 747.4 99.5 Q 744.3 112.1, 730 130 Z" fill="#FFCB77" stroke="black" stroke-width="4"></path><path d="M 790 130 Q 775.7 112.1, 772.6 99.5 Q 813.8 96.3, 807.4 70.5 Q 813.2 70, 820 70 Q 826.8 70, 832.6 70.5 Q 826.2 96.3, 867.4 99.5 Q 864.3 112.1, 850 130 Q 835.7 147.9, 832.6 160.5 Q 826.8 160, 820 160 Q 813.2 160, 807.4 160.5 Q 804.3 147.9, 790 130 Z" fill="#FFCB77" stroke="black" stroke-width="4"></path><path d="M 712.6 250.5 Q 706.2 276.3, 747.4 279.5 Q 753.8 253.7, 712.6 250.5 Z" fill="#FFCB77" stroke="black" stroke-width="4"></path><path d="M 807.4 250.5 Q 813.8 276.3, 772.6 279.5 Q 766.2 253.7, 807.4 250.5 Z" fill="#FFCB77" stroke="black" stroke-width="4"></path><path d="M 730 220 Q 715.7 237.9, 712.6 250.5 Q 753.8 253.7, 747.4 279.5 Q 753.2 280, 760 280 Q 766.8 280, 772.6 279.5 Q 766.2 253.7, 807.4 250.5 Q 804.3 237.9, 790 220 Q 775.7 202.1, 772.6 189.5 Q 766.8 190, 760 190 Q 753.2 190, 747.4 189.5 Q 744.3 202.1, 730 220 Z" fill="#227C9D" stroke="black" stroke-width="4"></path><path d="M 790 220 Q 775.7 202.1, 772.6 189.5 Q 813.8 186.3, 807.4 160.5 Q 813.2 160, 820 160 Q 826.8 160, 832.6 160.5 Q 826.2 186.3, 867.4 189.5 Q 864.3 202.1, 850 220 Q 835.7 237.9, 832.6 250.5 Q 826.8 250, 820 250 Q 813.2 250, 807.4 250.5 Q 804.3 237.9, 790 220 Z" fill="#227C9D" stroke="black" stroke-width="4"></path><path d="M 712.6 340.5 Q 706.2 366.3, 747.4 369.5 Q 753.8 343.7, 712.6 340.5 Z" fill="#227C9D" stroke="black" stroke-width="4"></path><path d="M 807.4 340.5 Q 813.8 366.3, 772.6 369.5 Q 766.2 343.7, 807.4 340.5 Z" fill="#227C9D" stroke="black" stroke-width="4"></path><path d="M 730 310 Q 715.7 327.9, 712.6 340.5 Q 753.8 343.7, 747.4 369.5 Q 753.2 370, 760 370 Q 766.8 370, 772.6 369.5 Q 766.2 343.7, 807.4 340.5 Q 804.3 327.9, 790 310 Q 775.7 292.1, 772.6 279.5 Q 766.8 280, 760 280 Q 753.2 280, 747.4 279.5 Q 744.3 292.1, 730 310 Z" fill="#17c3b2" stroke="black" stroke-width="4"></path><path d="M 790 310 Q 775.7 292.1, 772.6 279.5 Q 813.8 276.3, 807.4 250.5 Q 813.2 250, 820 250 Q 826.8 250, 832.6 250.5 Q 826.2 276.3, 867.4 279.5 Q 864.3 292.1, 850 310 Q 835.7 327.9, 832.6 340.5 Q 826.8 340, 820 340 Q 813.2 340, 807.4 340.5 Q 804.3 327.9, 790 310 Z" fill="#17c3b2" stroke="black" stroke-width="4"></path><path d="M 712.6 430.5 Q 706.2 456.3, 747.4 459.5 Q 753.8 433.7, 712.6 430.5 Z" fill="#17c3b2" stroke="black" stroke-width="4"></path><path d="M 807.4 430.5 Q 813.8 456.3, 772.6 459.5 Q 766.2 433.7, 807.4 430.5 Z" fill="#17c3b2" stroke="black" stroke-width="4"></path><path d="M 730 400 Q 715.7 417.9, 712.6 430.5 Q 753.8 433.7, 747.4 459.5 Q 753.2 460, 760 460 Q 766.8 460, 772.6 459.5 Q 766.2 433.7, 807.4 430.5 Q 804.3 417.9, 790 400 Q 775.7 382.1, 772.6 369.5 Q 766.8 370, 760 370 Q 753.2 370, 747.4 369.5 Q 744.3 382.1, 730 400 Z" fill="#fef9ef" stroke="black" stroke-width="4"></path><path d="M 790 400 Q 775.7 382.1, 772.6 369.5 Q 813.8 366.3, 807.4 340.5 Q 813.2 340, 820 340 Q 826.8 340, 832.6 340.5 Q 826.2 366.3, 867.4 369.5 Q 864.3 382.1, 850 400 Q 835.7 417.9, 832.6 430.5 Q 826.8 430, 820 430 Q 813.2 430, 807.4 430.5 Q 804.3 417.9, 790 400 Z" fill="#fef9ef" stroke="black" stroke-width="4"></path><path d="M 712.6 520.5 Q 706.2 546.3, 747.4 549.5 Q 753.8 523.7, 712.6 520.5 Z" fill="#fef9ef" stroke="black" stroke-width="4"></path><path d="M 807.4 520.5 Q 813.8 546.3, 772.6 549.5 Q 766.2 523.7, 807.4 520.5 Z" fill="#fef9ef" stroke="black" stroke-width="4"></path><path d="M 730 490 Q 715.7 507.9, 712.6 520.5 Q 753.8 523.7, 747.4 549.5 Q 753.2 550, 760 550 Q 766.8 550, 772.6 549.5 Q 766.2 523.7, 807.4 520.5 Q 804.3 507.9, 790 490 Q 775.7 472.1, 772.6 459.5 Q 766.8 460, 760 460 Q 753.2 460, 747.4 459.5 Q 744.3 472.1, 730 490 Z" fill="#FFCB77" stroke="black" stroke-width="4"></path><path d="M 790 490 Q 775.7 472.1, 772.6 459.5 Q 813.8 456.3, 807.4 430.5 Q 813.2 430, 820 430 Q 826.8 430, 832.6 430.5 Q 826.2 456.3, 867.4 459.5 Q 864.3 472.1, 850 490 Q 835.7 507.9, 832.6 520.5 Q 826.8 520, 820 520 Q 813.2 520, 807.4 520.5 Q 804.3 507.9, 790 490 Z" fill="#FFCB77" stroke="black" stroke-width="4"></path><path d="M 712.6 610.5 Q 706.2 636.3, 747.4 639.5 Q 753.8 613.7, 712.6 610.5 Z" fill="#FFCB77" stroke="black" stroke-width="4"></path><path d="M 807.4 610.5 Q 813.8 636.3, 772.6 639.5 Q 766.2 613.7, 807.4 610.5 Z" fill="#FFCB77" stroke="black" stroke-width="4"></path><path d="M 730 580 Q 715.7 597.9, 712.6 610.5 Q 753.8 613.7, 747.4 639.5 Q 753.2 640, 760 640 Q 766.8 640, 772.6 639.5 Q 766.2 613.7, 807.4 610.5 Q 804.3 597.9, 790 580 Q 775.7 562.1, 772.6 549.5 Q 766.8 550, 760 550 Q 753.2 550, 747.4 549.5 Q 744.3 562.1, 730 580 Z" fill="#227C9D" stroke="black" stroke-width="4"></path><path d="M 790 580 Q 775.7 562.1, 772.6 549.5 Q 813.8 546.3, 807.4 520.5 Q 813.2 520, 820 520 Q 826.8 520, 832.6 520.5 Q 826.2 546.3, 867.4 549.5 Q 864.3 562.1, 850 580 Q 835.7 597.9, 832.6 610.5 Q 826.8 610, 820 610 Q 813.2 610, 807.4 610.5 Q 804.3 597.9, 790 580 Z" fill="#227C9D" stroke="black" stroke-width="4"></path><path d="M 712.6 700.5 Q 706.2 726.3, 747.4 729.5 Q 753.8 703.7, 712.6 700.5 Z" fill="#227C9D" stroke="black" stroke-width="4"></path><path d="M 807.4 700.5 Q 813.8 726.3, 772.6 729.5 Q 766.2 703.7, 807.4 700.5 Z" fill="#227C9D" stroke="black" stroke-width="4"></path><path d="M 730 670 Q 715.7 687.9, 712.6 700.5 Q 753.8 703.7, 747.4 729.5 Q 753.2 730, 760 730 Q 766.8 730, 772.6 729.5 Q 766.2 703.7, 807.4 700.5 Q 804.3 687.9, 790 670 Q 775.7 652.1, 772.6 639.5 Q 766.8 640, 760 640 Q 753.2 640, 747.4 639.5 Q 744.3 652.1, 730 670 Z" fill="#17c3b2" stroke="black" stroke-width="4"></path><path d="M 790 670 Q 775.7 652.1, 772.6 639.5 Q 813.8 636.3, 807.4 610.5 Q 813.2 610, 820 610 Q 826.8 610, 832.6 610.5 Q 826.2 636.3, 867.4 639.5 Q 864.3 652.1, 850 670 Q 835.7 687.9, 832.6 700.5 Q 826.8 700, 820 700 Q 813.2 700, 807.4 700.5 Q 804.3 687.9, 790 670 Z" fill="#17c3b2" stroke="black" stroke-width="4"></path><path d="M 712.6 790.5 Q 706.2 816.3, 747.4 819.5 Q 753.8 793.7, 712.6 790.5 Z" fill="#17c3b2" stroke="black" stroke-width="4"></path><path d="M 807.4 790.5 Q 813.8 816.3, 772.6 819.5 Q 766.2 793.7, 807.4 790.5 Z" fill="#17c3b2" stroke="black" stroke-width="4"></path><path d="M 730 760 Q 715.7 777.9, 712.6 790.5 Q 753.8 793.7, 747.4 819.5 Q 753.2 820, 760 820 Q 766.8 820, 772.6 819.5 Q 766.2 793.7, 807.4 790.5 Q 804.3 777.9, 790 760 Q 775.7 742.1, 772.6 729.5 Q 766.8 730, 760 730 Q 753.2 730, 747.4 729.5 Q 744.3 742.1, 730 760 Z" fill="#fef9ef" stroke="black" stroke-width="4"></path><path d="M 790 760 Q 775.7 742.1, 772.6 729.5 Q 813.8 726.3, 807.4 700.5 Q 813.2 700, 820 700 Q 826.8 700, 832.6 700.5 Q 826.2 726.3, 867.4 729.5 Q 864.3 742.1, 850 760 Q 835.7 777.9, 832.6 790.5 Q 826.8 790, 820 790 Q 813.2 790, 807.4 790.5 Q 804.3 777.9, 790 760 Z" fill="#fef9ef" stroke="black" stroke-width="4"></path><path d="M 712.6 880.5 Q 706.2 906.3, 747.4 909.5 Q 753.8 883.7, 712.6 880.5 Z" fill="#fef9ef" stroke="black" stroke-width="4"></path><path d="M 807.4 880.5 Q 813.8 906.3, 772.6 909.5 Q 766.2 883.7, 807.4 880.5 Z" fill="#fef9ef" stroke="black" stroke-width="4"></path><path d="M 730 850 Q 715.7 867.9, 712.6 880.5 Q 753.8 883.7, 747.4 909.5 Q 753.2 910, 760 910 Q 766.8 910, 772.6 909.5 Q 766.2 883.7, 807.4 880.5 Q 804.3 867.9, 790 850 Q 775.7 832.1, 772.6 819.5 Q 766.8 820, 760 820 Q 753.2 820, 747.4 819.5 Q 744.3 832.1, 730 850 Z" fill="#FFCB77" stroke="black" stroke-width="4"></path><path d="M 790 850 Q 775.7 832.1, 772.6 819.5 Q 813.8 816.3, 807.4 790.5 Q 813.2 790, 820 790 Q 826.8 790, 832.6 790.5 Q 826.2 816.3, 867.4 819.5 Q 864.3 832.1, 850 850 Q 835.7 867.9, 832.6 880.5 Q 826.8 880, 820 880 Q 813.2 880, 807.4 880.5 Q 804.3 867.9, 790 850 Z" fill="#FFCB77" stroke="black" stroke-width="4"></path><path d="M 832.6 -19.5 Q 826.2 6.3, 867.4 9.5 Q 873.8 -16.3, 832.6 -19.5 Z" fill="#227C9D" stroke="black" stroke-width="4"></path><path d="M 927.4 -19.5 Q 933.8 6.3, 892.6 9.5 Q 886.2 -16.3, 927.4 -19.5 Z" fill="#227C9D" stroke="black" stroke-width="4"></path><path d="M 850 -50 Q 835.7 -32.1, 832.6 -19.5 Q 873.8 -16.3, 867.4 9.5 Q 873.2 10, 880 10 Q 886.8 10, 892.6 9.5 Q 886.2 -16.3, 927.4 -19.5 Q 924.3 -32.1, 910 -50 Q 895.7 -67.9, 892.6 -80.5 Q 886.8 -80, 880 -80 Q 873.2 -80, 867.4 -80.5 Q 864.3 -67.9, 850 -50 Z" fill="#17c3b2" stroke="black" stroke-width="4"></path><path d="M 910 -50 Q 895.7 -67.9, 892.6 -80.5 Q 933.8 -83.7, 927.4 -109.5 Q 933.2 -110, 940 -110 Q 946.8 -110, 952.6 -109.5 Q 946.2 -83.7, 987.4 -80.5 Q 984.3 -67.9, 970 -50 Q 955.7 -32.1, 952.6 -19.5 Q 946.8 -20, 940 -20 Q 933.2 -20, 927.4 -19.5 Q 924.3 -32.1, 910 -50 Z" fill="#17c3b2" stroke="black" stroke-width="4"></path><path d="M 832.6 70.5 Q 826.2 96.3, 867.4 99.5 Q 873.8 73.7, 832.6 70.5 Z" fill="#17c3b2" stroke="black" stroke-width="4"></path><path d="M 927.4 70.5 Q 933.8 96.3, 892.6 99.5 Q 886.2 73.7, 927.4 70.5 Z" fill="#17c3b2" stroke="black" stroke-width="4"></path><path d="M 850 40 Q 835.7 57.9, 832.6 70.5 Q 873.8 73.7, 867.4 99.5 Q 873.2 100, 880 100 Q 886.8 100, 892.6 99.5 Q 886.2 73.7, 927.4 70.5 Q 924.3 57.9, 910 40 Q 895.7 22.1, 892.6 9.5 Q 886.8 10, 880 10 Q 873.2 10, 867.4 9.5 Q 864.3 22.1, 850 40 Z" fill="#fef9ef" stroke="black" stroke-width="4"></path><path d="M 910 40 Q 895.7 22.1, 892.6 9.5 Q 933.8 6.3, 927.4 -19.5 Q 933.2 -20, 940 -20 Q 946.8 -20, 952.6 -19.5 Q 946.2 6.3, 987.4 9.5 Q 984.3 22.1, 970 40 Q 955.7 57.9, 952.6 70.5 Q 946.8 70, 940 70 Q 933.2 70, 927.4 70.5 Q 924.3 57.9, 910 40 Z" fill="#fef9ef" stroke="black" stroke-width="4"></path><path d="M 832.6 160.5 Q 826.2 186.3, 867.4 189.5 Q 873.8 163.7, 832.6 160.5 Z" fill="#fef9ef" stroke="black" stroke-width="4"></path><path d="M 927.4 160.5 Q 933.8 186.3, 892.6 189.5 Q 886.2 163.7, 927.4 160.5 Z" fill="#fef9ef" stroke="black" stroke-width="4"></path><path d="M 850 130 Q 835.7 147.9, 832.6 160.5 Q 873.8 163.7, 867.4 189.5 Q 873.2 190, 880 190 Q 886.8 190, 892.6 189.5 Q 886.2 163.7, 927.4 160.5 Q 924.3 147.9, 910 130 Q 895.7 112.1, 892.6 99.5 Q 886.8 100, 880 100 Q 873.2 100, 867.4 99.5 Q 864.3 112.1, 850 130 Z" fill="#FFCB77" stroke="black" stroke-width="4"></path><path d="M 910 130 Q 895.7 112.1, 892.6 99.5 Q 933.8 96.3, 927.4 70.5 Q 933.2 70, 940 70 Q 946.8 70, 952.6 70.5 Q 946.2 96.3, 987.4 99.5 Q 984.3 112.1, 970 130 Q 955.7 147.9, 952.6 160.5 Q 946.8 160, 940 160 Q 933.2 160, 927.4 160.5 Q 924.3 147.9, 910 130 Z" fill="#FFCB77" stroke="black" stroke-width="4"></path><path d="M 832.6 250.5 Q 826.2 276.3, 867.4 279.5 Q 873.8 253.7, 832.6 250.5 Z" fill="#FFCB77" stroke="black" stroke-width="4"></path><path d="M 927.4 250.5 Q 933.8 276.3, 892.6 279.5 Q 886.2 253.7, 927.4 250.5 Z" fill="#FFCB77" stroke="black" stroke-width="4"></path><path d="M 850 220 Q 835.7 237.9, 832.6 250.5 Q 873.8 253.7, 867.4 279.5 Q 873.2 280, 880 280 Q 886.8 280, 892.6 279.5 Q 886.2 253.7, 927.4 250.5 Q 924.3 237.9, 910 220 Q 895.7 202.1, 892.6 189.5 Q 886.8 190, 880 190 Q 873.2 190, 867.4 189.5 Q 864.3 202.1, 850 220 Z" fill="#227C9D" stroke="black" stroke-width="4"></path><path d="M 910 220 Q 895.7 202.1, 892.6 189.5 Q 933.8 186.3, 927.4 160.5 Q 933.2 160, 940 160 Q 946.8 160, 952.6 160.5 Q 946.2 186.3, 987.4 189.5 Q 984.3 202.1, 970 220 Q 955.7 237.9, 952.6 250.5 Q 946.8 250, 940 250 Q 933.2 250, 927.4 250.5 Q 924.3 237.9, 910 220 Z" fill="#227C9D" stroke="black" stroke-width="4"></path><path d="M 832.6 340.5 Q 826.2 366.3, 867.4 369.5 Q 873.8 343.7, 832.6 340.5 Z" fill="#227C9D" stroke="black" stroke-width="4"></path><path d="M 927.4 340.5 Q 933.8 366.3, 892.6 369.5 Q 886.2 343.7, 927.4 340.5 Z" fill="#227C9D" stroke="black" stroke-width="4"></path><path d="M 850 310 Q 835.7 327.9, 832.6 340.5 Q 873.8 343.7, 867.4 369.5 Q 873.2 370, 880 370 Q 886.8 370, 892.6 369.5 Q 886.2 343.7, 927.4 340.5 Q 924.3 327.9, 910 310 Q 895.7 292.1, 892.6 279.5 Q 886.8 280, 880 280 Q 873.2 280, 867.4 279.5 Q 864.3 292.1, 850 310 Z" fill="#17c3b2" stroke="black" stroke-width="4"></path><path d="M 910 310 Q 895.7 292.1, 892.6 279.5 Q 933.8 276.3, 927.4 250.5 Q 933.2 250, 940 250 Q 946.8 250, 952.6 250.5 Q 946.2 276.3, 987.4 279.5 Q 984.3 292.1, 970 310 Q 955.7 327.9, 952.6 340.5 Q 946.8 340, 940 340 Q 933.2 340, 927.4 340.5 Q 924.3 327.9, 910 310 Z" fill="#17c3b2" stroke="black" stroke-width="4"></path><path d="M 832.6 430.5 Q 826.2 456.3, 867.4 459.5 Q 873.8 433.7, 832.6 430.5 Z" fill="#17c3b2" stroke="black" stroke-width="4"></path><path d="M 927.4 430.5 Q 933.8 456.3, 892.6 459.5 Q 886.2 433.7, 927.4 430.5 Z" fill="#17c3b2" stroke="black" stroke-width="4"></path><path d="M 850 400 Q 835.7 417.9, 832.6 430.5 Q 873.8 433.7, 867.4 459.5 Q 873.2 460, 880 460 Q 886.8 460, 892.6 459.5 Q 886.2 433.7, 927.4 430.5 Q 924.3 417.9, 910 400 Q 895.7 382.1, 892.6 369.5 Q 886.8 370, 880 370 Q 873.2 370, 867.4 369.5 Q 864.3 382.1, 850 400 Z" fill="#fef9ef" stroke="black" stroke-width="4"></path><path d="M 910 400 Q 895.7 382.1, 892.6 369.5 Q 933.8 366.3, 927.4 340.5 Q 933.2 340, 940 340 Q 946.8 340, 952.6 340.5 Q 946.2 366.3, 987.4 369.5 Q 984.3 382.1, 970 400 Q 955.7 417.9, 952.6 430.5 Q 946.8 430, 940 430 Q 933.2 430, 927.4 430.5 Q 924.3 417.9, 910 400 Z" fill="#fef9ef" stroke="black" stroke-width="4"></path><path d="M 832.6 520.5 Q 826.2 546.3, 867.4 549.5 Q 873.8 523.7, 832.6 520.5 Z" fill="#fef9ef" stroke="black" stroke-width="4"></path><path d="M 927.4 520.5 Q 933.8 546.3, 892.6 549.5 Q 886.2 523.7, 927.4 520.5 Z" fill="#fef9ef" stroke="black" stroke-width="4"></path><path d="M 850 490 Q 835.7 507.9, 832.6 520.5 Q 873.8 523.7, 867.4 549.5 Q 873.2 550, 880 550 Q 886.8 550, 892.6 549.5 Q 886.2 523.7, 927.4 520.5 Q 924.3 507.9, 910 490 Q 895.7 472.1, 892.6 459.5 Q 886.8 460, 880 460 Q 873.2 460, 867.4 459.5 Q 864.3 472.1, 850 490 Z" fill="#FFCB77" stroke="black" stroke-width="4"></path><path d="M 910 490 Q 895.7 472.1, 892.6 459.5 Q 933.8 456.3, 927.4 430.5 Q 933.2 430, 940 430 Q 946.8 430, 952.6 430.5 Q 946.2 456.3, 987.4 459.5 Q 984.3 472.1, 970 490 Q 955.7 507.9, 952.6 520.5 Q 946.8 520, 940 520 Q 933.2 520, 927.4 520.5 Q 924.3 507.9, 910 490 Z" fill="#FFCB77" stroke="black" stroke-width="4"></path><path d="M 832.6 610.5 Q 826.2 636.3, 867.4 639.5 Q 873.8 613.7, 832.6 610.5 Z" fill="#FFCB77" stroke="black" stroke-width="4"></path><path d="M 927.4 610.5 Q 933.8 636.3, 892.6 639.5 Q 886.2 613.7, 927.4 610.5 Z" fill="#FFCB77" stroke="black" stroke-width="4"></path><path d="M 850 580 Q 835.7 597.9, 832.6 610.5 Q 873.8 613.7, 867.4 639.5 Q 873.2 640, 880 640 Q 886.8 640, 892.6 639.5 Q 886.2 613.7, 927.4 610.5 Q 924.3 597.9, 910 580 Q 895.7 562.1, 892.6 549.5 Q 886.8 550, 880 550 Q 873.2 550, 867.4 549.5 Q 864.3 562.1, 850 580 Z" fill="#227C9D" stroke="black" stroke-width="4"></path><path d="M 910 580 Q 895.7 562.1, 892.6 549.5 Q 933.8 546.3, 927.4 520.5 Q 933.2 520, 940 520 Q 946.8 520, 952.6 520.5 Q 946.2 546.3, 987.4 549.5 Q 984.3 562.1, 970 580 Q 955.7 597.9, 952.6 610.5 Q 946.8 610, 940 610 Q 933.2 610, 927.4 610.5 Q 924.3 597.9, 910 580 Z" fill="#227C9D" stroke="black" stroke-width="4"></path><path d="M 832.6 700.5 Q 826.2 726.3, 867.4 729.5 Q 873.8 703.7, 832.6 700.5 Z" fill="#227C9D" stroke="black" stroke-width="4"></path><path d="M 927.4 700.5 Q 933.8 726.3, 892.6 729.5 Q 886.2 703.7, 927.4 700.5 Z" fill="#227C9D" stroke="black" stroke-width="4"></path><path d="M 850 670 Q 835.7 687.9, 832.6 700.5 Q 873.8 703.7, 867.4 729.5 Q 873.2 730, 880 730 Q 886.8 730, 892.6 729.5 Q 886.2 703.7, 927.4 700.5 Q 924.3 687.9, 910 670 Q 895.7 652.1, 892.6 639.5 Q 886.8 640, 880 640 Q 873.2 640, 867.4 639.5 Q 864.3 652.1, 850 670 Z" fill="#17c3b2" stroke="black" stroke-width="4"></path><path d="M 910 670 Q 895.7 652.1, 892.6 639.5 Q 933.8 636.3, 927.4 610.5 Q 933.2 610, 940 610 Q 946.8 610, 952.6 610.5 Q 946.2 636.3, 987.4 639.5 Q 984.3 652.1, 970 670 Q 955.7 687.9, 952.6 700.5 Q 946.8 700, 940 700 Q 933.2 700, 927.4 700.5 Q 924.3 687.9, 910 670 Z" fill="#17c3b2" stroke="black" stroke-width="4"></path><path d="M 832.6 790.5 Q 826.2 816.3, 867.4 819.5 Q 873.8 793.7, 832.6 790.5 Z" fill="#17c3b2" stroke="black" stroke-width="4"></path><path d="M 927.4 790.5 Q 933.8 816.3, 892.6 819.5 Q 886.2 793.7, 927.4 790.5 Z" fill="#17c3b2" stroke="black" stroke-width="4"></path><path d="M 850 760 Q 835.7 777.9, 832.6 790.5 Q 873.8 793.7, 867.4 819.5 Q 873.2 820, 880 820 Q 886.8 820, 892.6 819.5 Q 886.2 793.7, 927.4 790.5 Q 924.3 777.9, 910 760 Q 895.7 742.1, 892.6 729.5 Q 886.8 730, 880 730 Q 873.2 730, 867.4 729.5 Q 864.3 742.1, 850 760 Z" fill="#fef9ef" stroke="black" stroke-width="4"></path><path d="M 910 760 Q 895.7 742.1, 892.6 729.5 Q 933.8 726.3, 927.4 700.5 Q 933.2 700, 940 700 Q 946.8 700, 952.6 700.5 Q 946.2 726.3, 987.4 729.5 Q 984.3 742.1, 970 760 Q 955.7 777.9, 952.6 790.5 Q 946.8 790, 940 790 Q 933.2 790, 927.4 790.5 Q 924.3 777.9, 910 760 Z" fill="#fef9ef" stroke="black" stroke-width="4"></path><path d="M 832.6 880.5 Q 826.2 906.3, 867.4 909.5 Q 873.8 883.7, 832.6 880.5 Z" fill="#fef9ef" stroke="black" stroke-width="4"></path><path d="M 927.4 880.5 Q 933.8 906.3, 892.6 909.5 Q 886.2 883.7, 927.4 880.5 Z" fill="#fef9ef" stroke="black" stroke-width="4"></path><path d="M 850 850 Q 835.7 867.9, 832.6 880.5 Q 873.8 883.7, 867.4 909.5 Q 873.2 910, 880 910 Q 886.8 910, 892.6 909.5 Q 886.2 883.7, 927.4 880.5 Q 924.3 867.9, 910 850 Q 895.7 832.1, 892.6 819.5 Q 886.8 820, 880 820 Q 873.2 820, 867.4 819.5 Q 864.3 832.1, 850 850 Z" fill="#FFCB77" stroke="black" stroke-width="4"></path><path d="M 910 850 Q 895.7 832.1, 892.6 819.5 Q 933.8 816.3, 927.4 790.5 Q 933.2 790, 940 790 Q 946.8 790, 952.6 790.5 Q 946.2 816.3, 987.4 819.5 Q 984.3 832.1, 970 850 Q 955.7 867.9, 952.6 880.5 Q 946.8 880, 940 880 Q 933.2 880, 927.4 880.5 Q 924.3 867.9, 910 850 Z" fill="#FFCB77" stroke="black" stroke-width="4"></path><ellipse cx="400" cy="400" rx="600" ry="600" fill="none" stroke="white" stroke-width="560"></ellipse><ellipse cx="400" cy="400" rx="320" ry="320" fill="none" stroke="black" stroke-width="4"></ellipse></svg>