<svg viewBox="0 0 800 800" preserveAspectRatio="xMidYMin slice" xmlns="http://www.w3.org/2000/svg" xlink="http://www.w3.org/1999/xlink"><defs><g id="unit-20"><path d="M -24 32 L 72 32 L 72 72 L 24 72 L 24 120 L -72 120 L -72 80 L -24 80 Z" fill="#ac9fbb" stroke="none" stroke-width="1"></path><path d="M 32 24 L 32 -72 L 72 -72 L 72 -24 L 120 -24 L 120 72 L 80 72 L 80 24 Z" fill="#ddbdd5" stroke="none" stroke-width="1"></path><path d="M -24 24 L 24 24 L 24 -24 L -24 -24 Z" fill="#f7ebec" stroke="none" stroke-width="1"></path></g></defs><rect x="0" y="0" width="800" height="800" fill="#1D1E2C"></rect><use href="#unit-20" transform="translate(-56, -56)"></use><use href="#unit-20" transform="translate(-56, 96)"></use><use href="#unit-20" transform="translate(-56, 248)"></use><use href="#unit-20" transform="translate(-56, 400)"></use><use href="#unit-20" transform="translate(-56, 552)"></use><use href="#unit-20" transform="translate(-56, 704)"></use><use href="#unit-20" transform="translate(-56, 856)"></use><use href="#unit-20" transform="translate(96, -56)"></use><use href="#unit-20" transform="translate(96, 96)"></use><use href="#unit-20" transform="translate(96, 248)"></use><use href="#unit-20" transform="translate(96, 400)"></use><use href="#unit-20" transform="translate(96, 552)"></use><use href="#unit-20" transform="translate(96, 704)"></use><use href="#unit-20" transform="translate(96, 856)"></use><use href="#unit-20" transform="translate(248, -56)"></use><use href="#unit-20" transform="translate(248, 96)"></use><use href="#unit-20" transform="translate(248, 248)"></use><use href="#unit-20" transform="translate(248, 400)"></use><use href="#unit-20" transform="translate(248, 552)"></use><use href="#unit-20" transform="translate(248, 704)"></use><use href="#unit-20" transform="translate(248, 856)"></use><use href="#unit-20" transform="translate(400, -56)"></use><use href="#unit-20" transform="translate(400, 96)"></use><use href="#unit-20" transform="translate(400, 248)"></use><use href="#unit-20" transform="translate(400, 400)"></use><use href="#unit-20" transform="translate(400, 552)"></use><use href="#unit-20" transform="translate(400, 704)"></use><use href="#unit-20" transform="translate(400, 856)"></use><use href="#unit-20" transform="translate(552, -56)"></use><use href="#unit-20" transform="translate(552, 96)"></use><use href="#unit-20" transform="translate(552, 248)"></use><use href="#unit-20" transform="translate(552, 400)"></use><use href="#unit-20" transform="translate(552, 552)"></use><use href="#unit-20" transform="translate(552, 704)"></use><use href="#unit-20" transform="translate(552, 856)"></use><use href="#unit-20" transform="translate(704, -56)"></use><use href="#unit-20" transform="translate(704, 96)"></use><use href="#unit-20" transform="translate(704, 248)"></use><use href="#unit-20" transform="translate(704, 400)"></use><use href="#unit-20" transform="translate(704, 552)"></use><use href="#unit-20" transform="translate(704, 704)"></use><use href="#unit-20" transform="translate(704, 856)"></use><use href="#unit-20" transform="translate(856, -56)"></use><use href="#unit-20" transform="translate(856, 96)"></use><use href="#unit-20" transform="translate(856, 248)"></use><use href="#unit-20" transform="translate(856, 400)"></use><use href="#unit-20" transform="translate(856, 552)"></use><use href="#unit-20" transform="translate(856, 704)"></use><use href="#unit-20" transform="translate(856, 856)"></use><ellipse cx="400" cy="400" rx="600" ry="600" fill="none" stroke="white" stroke-width="560"></ellipse><ellipse cx="400" cy="400" rx="320" ry="320" fill="none" stroke="#1D1E2C" stroke-width="8"></ellipse></svg>