<svg viewBox="0 0 800 800" preserveAspectRatio="xMidYMin slice" xmlns="http://www.w3.org/2000/svg"><rect x="0" y="0" width="800" height="800" fill="#1D1E2C"></rect><path d="M -80 -24 L 16 -24 L 16 16 L -32 16 L -32 64 L -128 64 L -128 24 L -80 24 Z" fill="#ac9fbb" stroke="none" stroke-width="1"></path><path d="M -24 -32 L -24 -128 L 16 -128 L 16 -80 L 64 -80 L 64 16 L 24 16 L 24 -32 Z" fill="#ddbdd5" stroke="none" stroke-width="1"></path><path d="M -80 -32 L -32 -32 L -32 -80 L -80 -80 Z" fill="#f7ebec" stroke="none" stroke-width="1"></path><path d="M -80 128 L 16 128 L 16 168 L -32 168 L -32 216 L -128 216 L -128 176 L -80 176 Z" fill="#ac9fbb" stroke="none" stroke-width="1"></path><path d="M -24 120 L -24 24 L 16 24 L 16 72 L 64 72 L 64 168 L 24 168 L 24 120 Z" fill="#ddbdd5" stroke="none" stroke-width="1"></path><path d="M -80 120 L -32 120 L -32 72 L -80 72 Z" fill="#f7ebec" stroke="none" stroke-width="1"></path><path d="M -80 280 L 16 280 L 16 320 L -32 320 L -32 368 L -128 368 L -128 328 L -80 328 Z" fill="#ac9fbb" stroke="none" stroke-width="1"></path><path d="M -24 272 L -24 176 L 16 176 L 16 224 L 64 224 L 64 320 L 24 320 L 24 272 Z" fill="#ddbdd5" stroke="none" stroke-width="1"></path><path d="M -80 272 L -32 272 L -32 224 L -80 224 Z" fill="#f7ebec" stroke="none" stroke-width="1"></path><path d="M -80 432 L 16 432 L 16 472 L -32 472 L -32 520 L -128 520 L -128 480 L -80 480 Z" fill="#ac9fbb" stroke="none" stroke-width="1"></path><path d="M -24 424 L -24 328 L 16 328 L 16 376 L 64 376 L 64 472 L 24 472 L 24 424 Z" fill="#ddbdd5" stroke="none" stroke-width="1"></path><path d="M -80 424 L -32 424 L -32 376 L -80 376 Z" fill="#f7ebec" stroke="none" stroke-width="1"></path><path d="M -80 584 L 16 584 L 16 624 L -32 624 L -32 672 L -128 672 L -128 632 L -80 632 Z" fill="#ac9fbb" stroke="none" stroke-width="1"></path><path d="M -24 576 L -24 480 L 16 480 L 16 528 L 64 528 L 64 624 L 24 624 L 24 576 Z" fill="#ddbdd5" stroke="none" stroke-width="1"></path><path d="M -80 576 L -32 576 L -32 528 L -80 528 Z" fill="#f7ebec" stroke="none" stroke-width="1"></path><path d="M -80 736 L 16 736 L 16 776 L -32 776 L -32 824 L -128 824 L -128 784 L -80 784 Z" fill="#ac9fbb" stroke="none" stroke-width="1"></path><path d="M -24 728 L -24 632 L 16 632 L 16 680 L 64 680 L 64 776 L 24 776 L 24 728 Z" fill="#ddbdd5" stroke="none" stroke-width="1"></path><path d="M -80 728 L -32 728 L -32 680 L -80 680 Z" fill="#f7ebec" stroke="none" stroke-width="1"></path><path d="M -80 888 L 16 888 L 16 928 L -32 928 L -32 976 L -128 976 L -128 936 L -80 936 Z" fill="#ac9fbb" stroke="none" stroke-width="1"></path><path d="M -24 880 L -24 784 L 16 784 L 16 832 L 64 832 L 64 928 L 24 928 L 24 880 Z" fill="#ddbdd5" stroke="none" stroke-width="1"></path><path d="M -80 880 L -32 880 L -32 832 L -80 832 Z" fill="#f7ebec" stroke="none" stroke-width="1"></path><path d="M 72 -24 L 168 -24 L 168 16 L 120 16 L 120 64 L 24 64 L 24 24 L 72 24 Z" fill="#ac9fbb" stroke="none" stroke-width="1"></path><path d="M 128 -32 L 128 -128 L 168 -128 L 168 -80 L 216 -80 L 216 16 L 176 16 L 176 -32 Z" fill="#ddbdd5" stroke="none" stroke-width="1"></path><path d="M 72 -32 L 120 -32 L 120 -80 L 72 -80 Z" fill="#f7ebec" stroke="none" stroke-width="1"></path><path d="M 72 128 L 168 128 L 168 168 L 120 168 L 120 216 L 24 216 L 24 176 L 72 176 Z" fill="#ac9fbb" stroke="none" stroke-width="1"></path><path d="M 128 120 L 128 24 L 168 24 L 168 72 L 216 72 L 216 168 L 176 168 L 176 120 Z" fill="#ddbdd5" stroke="none" stroke-width="1"></path><path d="M 72 120 L 120 120 L 120 72 L 72 72 Z" fill="#f7ebec" stroke="none" stroke-width="1"></path><path d="M 72 280 L 168 280 L 168 320 L 120 320 L 120 368 L 24 368 L 24 328 L 72 328 Z" fill="#ac9fbb" stroke="none" stroke-width="1"></path><path d="M 128 272 L 128 176 L 168 176 L 168 224 L 216 224 L 216 320 L 176 320 L 176 272 Z" fill="#ddbdd5" stroke="none" stroke-width="1"></path><path d="M 72 272 L 120 272 L 120 224 L 72 224 Z" fill="#f7ebec" stroke="none" stroke-width="1"></path><path d="M 72 432 L 168 432 L 168 472 L 120 472 L 120 520 L 24 520 L 24 480 L 72 480 Z" fill="#ac9fbb" stroke="none" stroke-width="1"></path><path d="M 128 424 L 128 328 L 168 328 L 168 376 L 216 376 L 216 472 L 176 472 L 176 424 Z" fill="#ddbdd5" stroke="none" stroke-width="1"></path><path d="M 72 424 L 120 424 L 120 376 L 72 376 Z" fill="#f7ebec" stroke="none" stroke-width="1"></path><path d="M 72 584 L 168 584 L 168 624 L 120 624 L 120 672 L 24 672 L 24 632 L 72 632 Z" fill="#ac9fbb" stroke="none" stroke-width="1"></path><path d="M 128 576 L 128 480 L 168 480 L 168 528 L 216 528 L 216 624 L 176 624 L 176 576 Z" fill="#ddbdd5" stroke="none" stroke-width="1"></path><path d="M 72 576 L 120 576 L 120 528 L 72 528 Z" fill="#f7ebec" stroke="none" stroke-width="1"></path><path d="M 72 736 L 168 736 L 168 776 L 120 776 L 120 824 L 24 824 L 24 784 L 72 784 Z" fill="#ac9fbb" stroke="none" stroke-width="1"></path><path d="M 128 728 L 128 632 L 168 632 L 168 680 L 216 680 L 216 776 L 176 776 L 176 728 Z" fill="#ddbdd5" stroke="none" stroke-width="1"></path><path d="M 72 728 L 120 728 L 120 680 L 72 680 Z" fill="#f7ebec" stroke="none" stroke-width="1"></path><path d="M 72 888 L 168 888 L 168 928 L 120 928 L 120 976 L 24 976 L 24 936 L 72 936 Z" fill="#ac9fbb" stroke="none" stroke-width="1"></path><path d="M 128 880 L 128 784 L 168 784 L 168 832 L 216 832 L 216 928 L 176 928 L 176 880 Z" fill="#ddbdd5" stroke="none" stroke-width="1"></path><path d="M 72 880 L 120 880 L 120 832 L 72 832 Z" fill="#f7ebec" stroke="none" stroke-width="1"></path><path d="M 224 -24 L 320 -24 L 320 16 L 272 16 L 272 64 L 176 64 L 176 24 L 224 24 Z" fill="#ac9fbb" stroke="none" stroke-width="1"></path><path d="M 280 -32 L 280 -128 L 320 -128 L 320 -80 L 368 -80 L 368 16 L 328 16 L 328 -32 Z" fill="#ddbdd5" stroke="none" stroke-width="1"></path><path d="M 224 -32 L 272 -32 L 272 -80 L 224 -80 Z" fill="#f7ebec" stroke="none" stroke-width="1"></path><path d="M 224 128 L 320 128 L 320 168 L 272 168 L 272 216 L 176 216 L 176 176 L 224 176 Z" fill="#ac9fbb" stroke="none" stroke-width="1"></path><path d="M 280 120 L 280 24 L 320 24 L 320 72 L 368 72 L 368 168 L 328 168 L 328 120 Z" fill="#ddbdd5" stroke="none" stroke-width="1"></path><path d="M 224 120 L 272 120 L 272 72 L 224 72 Z" fill="#f7ebec" stroke="none" stroke-width="1"></path><path d="M 224 280 L 320 280 L 320 320 L 272 320 L 272 368 L 176 368 L 176 328 L 224 328 Z" fill="#ac9fbb" stroke="none" stroke-width="1"></path><path d="M 280 272 L 280 176 L 320 176 L 320 224 L 368 224 L 368 320 L 328 320 L 328 272 Z" fill="#ddbdd5" stroke="none" stroke-width="1"></path><path d="M 224 272 L 272 272 L 272 224 L 224 224 Z" fill="#f7ebec" stroke="none" stroke-width="1"></path><path d="M 224 432 L 320 432 L 320 472 L 272 472 L 272 520 L 176 520 L 176 480 L 224 480 Z" fill="#ac9fbb" stroke="none" stroke-width="1"></path><path d="M 280 424 L 280 328 L 320 328 L 320 376 L 368 376 L 368 472 L 328 472 L 328 424 Z" fill="#ddbdd5" stroke="none" stroke-width="1"></path><path d="M 224 424 L 272 424 L 272 376 L 224 376 Z" fill="#f7ebec" stroke="none" stroke-width="1"></path><path d="M 224 584 L 320 584 L 320 624 L 272 624 L 272 672 L 176 672 L 176 632 L 224 632 Z" fill="#ac9fbb" stroke="none" stroke-width="1"></path><path d="M 280 576 L 280 480 L 320 480 L 320 528 L 368 528 L 368 624 L 328 624 L 328 576 Z" fill="#ddbdd5" stroke="none" stroke-width="1"></path><path d="M 224 576 L 272 576 L 272 528 L 224 528 Z" fill="#f7ebec" stroke="none" stroke-width="1"></path><path d="M 224 736 L 320 736 L 320 776 L 272 776 L 272 824 L 176 824 L 176 784 L 224 784 Z" fill="#ac9fbb" stroke="none" stroke-width="1"></path><path d="M 280 728 L 280 632 L 320 632 L 320 680 L 368 680 L 368 776 L 328 776 L 328 728 Z" fill="#ddbdd5" stroke="none" stroke-width="1"></path><path d="M 224 728 L 272 728 L 272 680 L 224 680 Z" fill="#f7ebec" stroke="none" stroke-width="1"></path><path d="M 224 888 L 320 888 L 320 928 L 272 928 L 272 976 L 176 976 L 176 936 L 224 936 Z" fill="#ac9fbb" stroke="none" stroke-width="1"></path><path d="M 280 880 L 280 784 L 320 784 L 320 832 L 368 832 L 368 928 L 328 928 L 328 880 Z" fill="#ddbdd5" stroke="none" stroke-width="1"></path><path d="M 224 880 L 272 880 L 272 832 L 224 832 Z" fill="#f7ebec" stroke="none" stroke-width="1"></path><path d="M 376 -24 L 472 -24 L 472 16 L 424 16 L 424 64 L 328 64 L 328 24 L 376 24 Z" fill="#ac9fbb" stroke="none" stroke-width="1"></path><path d="M 432 -32 L 432 -128 L 472 -128 L 472 -80 L 520 -80 L 520 16 L 480 16 L 480 -32 Z" fill="#ddbdd5" stroke="none" stroke-width="1"></path><path d="M 376 -32 L 424 -32 L 424 -80 L 376 -80 Z" fill="#f7ebec" stroke="none" stroke-width="1"></path><path d="M 376 128 L 472 128 L 472 168 L 424 168 L 424 216 L 328 216 L 328 176 L 376 176 Z" fill="#ac9fbb" stroke="none" stroke-width="1"></path><path d="M 432 120 L 432 24 L 472 24 L 472 72 L 520 72 L 520 168 L 480 168 L 480 120 Z" fill="#ddbdd5" stroke="none" stroke-width="1"></path><path d="M 376 120 L 424 120 L 424 72 L 376 72 Z" fill="#f7ebec" stroke="none" stroke-width="1"></path><path d="M 376 280 L 472 280 L 472 320 L 424 320 L 424 368 L 328 368 L 328 328 L 376 328 Z" fill="#ac9fbb" stroke="none" stroke-width="1"></path><path d="M 432 272 L 432 176 L 472 176 L 472 224 L 520 224 L 520 320 L 480 320 L 480 272 Z" fill="#ddbdd5" stroke="none" stroke-width="1"></path><path d="M 376 272 L 424 272 L 424 224 L 376 224 Z" fill="#f7ebec" stroke="none" stroke-width="1"></path><path d="M 376 432 L 472 432 L 472 472 L 424 472 L 424 520 L 328 520 L 328 480 L 376 480 Z" fill="#ac9fbb" stroke="none" stroke-width="1"></path><path d="M 432 424 L 432 328 L 472 328 L 472 376 L 520 376 L 520 472 L 480 472 L 480 424 Z" fill="#ddbdd5" stroke="none" stroke-width="1"></path><path d="M 376 424 L 424 424 L 424 376 L 376 376 Z" fill="#f7ebec" stroke="none" stroke-width="1"></path><path d="M 376 584 L 472 584 L 472 624 L 424 624 L 424 672 L 328 672 L 328 632 L 376 632 Z" fill="#ac9fbb" stroke="none" stroke-width="1"></path><path d="M 432 576 L 432 480 L 472 480 L 472 528 L 520 528 L 520 624 L 480 624 L 480 576 Z" fill="#ddbdd5" stroke="none" stroke-width="1"></path><path d="M 376 576 L 424 576 L 424 528 L 376 528 Z" fill="#f7ebec" stroke="none" stroke-width="1"></path><path d="M 376 736 L 472 736 L 472 776 L 424 776 L 424 824 L 328 824 L 328 784 L 376 784 Z" fill="#ac9fbb" stroke="none" stroke-width="1"></path><path d="M 432 728 L 432 632 L 472 632 L 472 680 L 520 680 L 520 776 L 480 776 L 480 728 Z" fill="#ddbdd5" stroke="none" stroke-width="1"></path><path d="M 376 728 L 424 728 L 424 680 L 376 680 Z" fill="#f7ebec" stroke="none" stroke-width="1"></path><path d="M 376 888 L 472 888 L 472 928 L 424 928 L 424 976 L 328 976 L 328 936 L 376 936 Z" fill="#ac9fbb" stroke="none" stroke-width="1"></path><path d="M 432 880 L 432 784 L 472 784 L 472 832 L 520 832 L 520 928 L 480 928 L 480 880 Z" fill="#ddbdd5" stroke="none" stroke-width="1"></path><path d="M 376 880 L 424 880 L 424 832 L 376 832 Z" fill="#f7ebec" stroke="none" stroke-width="1"></path><path d="M 528 -24 L 624 -24 L 624 16 L 576 16 L 576 64 L 480 64 L 480 24 L 528 24 Z" fill="#ac9fbb" stroke="none" stroke-width="1"></path><path d="M 584 -32 L 584 -128 L 624 -128 L 624 -80 L 672 -80 L 672 16 L 632 16 L 632 -32 Z" fill="#ddbdd5" stroke="none" stroke-width="1"></path><path d="M 528 -32 L 576 -32 L 576 -80 L 528 -80 Z" fill="#f7ebec" stroke="none" stroke-width="1"></path><path d="M 528 128 L 624 128 L 624 168 L 576 168 L 576 216 L 480 216 L 480 176 L 528 176 Z" fill="#ac9fbb" stroke="none" stroke-width="1"></path><path d="M 584 120 L 584 24 L 624 24 L 624 72 L 672 72 L 672 168 L 632 168 L 632 120 Z" fill="#ddbdd5" stroke="none" stroke-width="1"></path><path d="M 528 120 L 576 120 L 576 72 L 528 72 Z" fill="#f7ebec" stroke="none" stroke-width="1"></path><path d="M 528 280 L 624 280 L 624 320 L 576 320 L 576 368 L 480 368 L 480 328 L 528 328 Z" fill="#ac9fbb" stroke="none" stroke-width="1"></path><path d="M 584 272 L 584 176 L 624 176 L 624 224 L 672 224 L 672 320 L 632 320 L 632 272 Z" fill="#ddbdd5" stroke="none" stroke-width="1"></path><path d="M 528 272 L 576 272 L 576 224 L 528 224 Z" fill="#f7ebec" stroke="none" stroke-width="1"></path><path d="M 528 432 L 624 432 L 624 472 L 576 472 L 576 520 L 480 520 L 480 480 L 528 480 Z" fill="#ac9fbb" stroke="none" stroke-width="1"></path><path d="M 584 424 L 584 328 L 624 328 L 624 376 L 672 376 L 672 472 L 632 472 L 632 424 Z" fill="#ddbdd5" stroke="none" stroke-width="1"></path><path d="M 528 424 L 576 424 L 576 376 L 528 376 Z" fill="#f7ebec" stroke="none" stroke-width="1"></path><path d="M 528 584 L 624 584 L 624 624 L 576 624 L 576 672 L 480 672 L 480 632 L 528 632 Z" fill="#ac9fbb" stroke="none" stroke-width="1"></path><path d="M 584 576 L 584 480 L 624 480 L 624 528 L 672 528 L 672 624 L 632 624 L 632 576 Z" fill="#ddbdd5" stroke="none" stroke-width="1"></path><path d="M 528 576 L 576 576 L 576 528 L 528 528 Z" fill="#f7ebec" stroke="none" stroke-width="1"></path><path d="M 528 736 L 624 736 L 624 776 L 576 776 L 576 824 L 480 824 L 480 784 L 528 784 Z" fill="#ac9fbb" stroke="none" stroke-width="1"></path><path d="M 584 728 L 584 632 L 624 632 L 624 680 L 672 680 L 672 776 L 632 776 L 632 728 Z" fill="#ddbdd5" stroke="none" stroke-width="1"></path><path d="M 528 728 L 576 728 L 576 680 L 528 680 Z" fill="#f7ebec" stroke="none" stroke-width="1"></path><path d="M 528 888 L 624 888 L 624 928 L 576 928 L 576 976 L 480 976 L 480 936 L 528 936 Z" fill="#ac9fbb" stroke="none" stroke-width="1"></path><path d="M 584 880 L 584 784 L 624 784 L 624 832 L 672 832 L 672 928 L 632 928 L 632 880 Z" fill="#ddbdd5" stroke="none" stroke-width="1"></path><path d="M 528 880 L 576 880 L 576 832 L 528 832 Z" fill="#f7ebec" stroke="none" stroke-width="1"></path><path d="M 680 -24 L 776 -24 L 776 16 L 728 16 L 728 64 L 632 64 L 632 24 L 680 24 Z" fill="#ac9fbb" stroke="none" stroke-width="1"></path><path d="M 736 -32 L 736 -128 L 776 -128 L 776 -80 L 824 -80 L 824 16 L 784 16 L 784 -32 Z" fill="#ddbdd5" stroke="none" stroke-width="1"></path><path d="M 680 -32 L 728 -32 L 728 -80 L 680 -80 Z" fill="#f7ebec" stroke="none" stroke-width="1"></path><path d="M 680 128 L 776 128 L 776 168 L 728 168 L 728 216 L 632 216 L 632 176 L 680 176 Z" fill="#ac9fbb" stroke="none" stroke-width="1"></path><path d="M 736 120 L 736 24 L 776 24 L 776 72 L 824 72 L 824 168 L 784 168 L 784 120 Z" fill="#ddbdd5" stroke="none" stroke-width="1"></path><path d="M 680 120 L 728 120 L 728 72 L 680 72 Z" fill="#f7ebec" stroke="none" stroke-width="1"></path><path d="M 680 280 L 776 280 L 776 320 L 728 320 L 728 368 L 632 368 L 632 328 L 680 328 Z" fill="#ac9fbb" stroke="none" stroke-width="1"></path><path d="M 736 272 L 736 176 L 776 176 L 776 224 L 824 224 L 824 320 L 784 320 L 784 272 Z" fill="#ddbdd5" stroke="none" stroke-width="1"></path><path d="M 680 272 L 728 272 L 728 224 L 680 224 Z" fill="#f7ebec" stroke="none" stroke-width="1"></path><path d="M 680 432 L 776 432 L 776 472 L 728 472 L 728 520 L 632 520 L 632 480 L 680 480 Z" fill="#ac9fbb" stroke="none" stroke-width="1"></path><path d="M 736 424 L 736 328 L 776 328 L 776 376 L 824 376 L 824 472 L 784 472 L 784 424 Z" fill="#ddbdd5" stroke="none" stroke-width="1"></path><path d="M 680 424 L 728 424 L 728 376 L 680 376 Z" fill="#f7ebec" stroke="none" stroke-width="1"></path><path d="M 680 584 L 776 584 L 776 624 L 728 624 L 728 672 L 632 672 L 632 632 L 680 632 Z" fill="#ac9fbb" stroke="none" stroke-width="1"></path><path d="M 736 576 L 736 480 L 776 480 L 776 528 L 824 528 L 824 624 L 784 624 L 784 576 Z" fill="#ddbdd5" stroke="none" stroke-width="1"></path><path d="M 680 576 L 728 576 L 728 528 L 680 528 Z" fill="#f7ebec" stroke="none" stroke-width="1"></path><path d="M 680 736 L 776 736 L 776 776 L 728 776 L 728 824 L 632 824 L 632 784 L 680 784 Z" fill="#ac9fbb" stroke="none" stroke-width="1"></path><path d="M 736 728 L 736 632 L 776 632 L 776 680 L 824 680 L 824 776 L 784 776 L 784 728 Z" fill="#ddbdd5" stroke="none" stroke-width="1"></path><path d="M 680 728 L 728 728 L 728 680 L 680 680 Z" fill="#f7ebec" stroke="none" stroke-width="1"></path><path d="M 680 888 L 776 888 L 776 928 L 728 928 L 728 976 L 632 976 L 632 936 L 680 936 Z" fill="#ac9fbb" stroke="none" stroke-width="1"></path><path d="M 736 880 L 736 784 L 776 784 L 776 832 L 824 832 L 824 928 L 784 928 L 784 880 Z" fill="#ddbdd5" stroke="none" stroke-width="1"></path><path d="M 680 880 L 728 880 L 728 832 L 680 832 Z" fill="#f7ebec" stroke="none" stroke-width="1"></path><path d="M 832 -24 L 928 -24 L 928 16 L 880 16 L 880 64 L 784 64 L 784 24 L 832 24 Z" fill="#ac9fbb" stroke="none" stroke-width="1"></path><path d="M 888 -32 L 888 -128 L 928 -128 L 928 -80 L 976 -80 L 976 16 L 936 16 L 936 -32 Z" fill="#ddbdd5" stroke="none" stroke-width="1"></path><path d="M 832 -32 L 880 -32 L 880 -80 L 832 -80 Z" fill="#f7ebec" stroke="none" stroke-width="1"></path><path d="M 832 128 L 928 128 L 928 168 L 880 168 L 880 216 L 784 216 L 784 176 L 832 176 Z" fill="#ac9fbb" stroke="none" stroke-width="1"></path><path d="M 888 120 L 888 24 L 928 24 L 928 72 L 976 72 L 976 168 L 936 168 L 936 120 Z" fill="#ddbdd5" stroke="none" stroke-width="1"></path><path d="M 832 120 L 880 120 L 880 72 L 832 72 Z" fill="#f7ebec" stroke="none" stroke-width="1"></path><path d="M 832 280 L 928 280 L 928 320 L 880 320 L 880 368 L 784 368 L 784 328 L 832 328 Z" fill="#ac9fbb" stroke="none" stroke-width="1"></path><path d="M 888 272 L 888 176 L 928 176 L 928 224 L 976 224 L 976 320 L 936 320 L 936 272 Z" fill="#ddbdd5" stroke="none" stroke-width="1"></path><path d="M 832 272 L 880 272 L 880 224 L 832 224 Z" fill="#f7ebec" stroke="none" stroke-width="1"></path><path d="M 832 432 L 928 432 L 928 472 L 880 472 L 880 520 L 784 520 L 784 480 L 832 480 Z" fill="#ac9fbb" stroke="none" stroke-width="1"></path><path d="M 888 424 L 888 328 L 928 328 L 928 376 L 976 376 L 976 472 L 936 472 L 936 424 Z" fill="#ddbdd5" stroke="none" stroke-width="1"></path><path d="M 832 424 L 880 424 L 880 376 L 832 376 Z" fill="#f7ebec" stroke="none" stroke-width="1"></path><path d="M 832 584 L 928 584 L 928 624 L 880 624 L 880 672 L 784 672 L 784 632 L 832 632 Z" fill="#ac9fbb" stroke="none" stroke-width="1"></path><path d="M 888 576 L 888 480 L 928 480 L 928 528 L 976 528 L 976 624 L 936 624 L 936 576 Z" fill="#ddbdd5" stroke="none" stroke-width="1"></path><path d="M 832 576 L 880 576 L 880 528 L 832 528 Z" fill="#f7ebec" stroke="none" stroke-width="1"></path><path d="M 832 736 L 928 736 L 928 776 L 880 776 L 880 824 L 784 824 L 784 784 L 832 784 Z" fill="#ac9fbb" stroke="none" stroke-width="1"></path><path d="M 888 728 L 888 632 L 928 632 L 928 680 L 976 680 L 976 776 L 936 776 L 936 728 Z" fill="#ddbdd5" stroke="none" stroke-width="1"></path><path d="M 832 728 L 880 728 L 880 680 L 832 680 Z" fill="#f7ebec" stroke="none" stroke-width="1"></path><path d="M 832 888 L 928 888 L 928 928 L 880 928 L 880 976 L 784 976 L 784 936 L 832 936 Z" fill="#ac9fbb" stroke="none" stroke-width="1"></path><path d="M 888 880 L 888 784 L 928 784 L 928 832 L 976 832 L 976 928 L 936 928 L 936 880 Z" fill="#ddbdd5" stroke="none" stroke-width="1"></path><path d="M 832 880 L 880 880 L 880 832 L 832 832 Z" fill="#f7ebec" stroke="none" stroke-width="1"></path><ellipse cx="400" cy="400" rx="600" ry="600" fill="none" stroke="white" stroke-width="560"></ellipse><ellipse cx="400" cy="400" rx="320" ry="320" fill="none" stroke="#1D1E2C" stroke-width="8"></ellipse></svg>