<svg viewBox="0 0 800 800" preserveAspectRatio="xMidYMin slice" xmlns="http://www.w3.org/2000/svg"><rect x="0" y="0" width="800" height="800" fill="#ebd494"></rect><path d="M 384 372.3 L 384 292.3 L 416 310.8 L 416 372.3 L 416 372.3 L 485.3 332.3 L 485.3 369.2 L 432 400 L 432 400 L 501.3 440 L 469.3 458.5 L 416 427.7 L 416 427.7 L 416 507.7 L 384 489.2 L 384 427.7 L 384 427.7 L 314.7 467.7 L 314.7 430.8 L 368 400 L 368 400 L 298.7 360 L 330.7 341.5 L 384 372.3" fill="#9ad2cb" stroke="#472836" stroke-width="4"></path><path d="M 250.7 332.3 L 250.7 252.3 L 282.7 270.8 L 282.7 332.3 L 282.7 332.3 L 352 292.3 L 352 329.2 L 298.7 360 L 298.7 360 L 368 400 L 336 418.5 L 282.7 387.7 L 282.7 387.7 L 282.7 467.7 L 250.7 449.2 L 250.7 387.7 L 250.7 387.7 L 181.4 427.7 L 181.4 390.8 L 234.7 360 L 234.7 360 L 165.4 320 L 197.4 301.5 L 250.7 332.3" fill="#d7ebba" stroke="#472836" stroke-width="4"></path><path d="M 282.7 467.7 L 282.7 387.7 L 314.7 406.2 L 314.7 467.7 L 314.7 467.7 L 384 427.7 L 384 464.7 L 330.7 495.4 L 330.7 495.4 L 400 535.4 L 368 553.9 L 314.7 523.1 L 314.7 523.1 L 314.7 603.1 L 282.7 584.7 L 282.7 523.1 L 282.7 523.1 L 213.4 563.1 L 213.4 526.2 L 266.7 495.4 L 266.7 495.4 L 197.4 455.4 L 229.4 437 L 282.7 467.7" fill="#feffbe" stroke="#472836" stroke-width="4"></path><path d="M 416 507.7 L 416 427.7 L 448 446.2 L 448 507.7 L 448 507.7 L 517.3 467.7 L 517.3 504.7 L 464 535.4 L 464 535.4 L 533.3 575.4 L 501.3 593.9 L 448 563.1 L 448 563.1 L 448 643.1 L 416 624.7 L 416 563.1 L 416 563.1 L 346.7 603.1 L 346.7 566.2 L 400 535.4 L 400 535.4 L 330.7 495.4 L 362.7 477 L 416 507.7" fill="#d7ebba" stroke="#472836" stroke-width="4"></path><path d="M 517.3 412.3 L 517.3 332.3 L 549.3 350.8 L 549.3 412.3 L 549.3 412.3 L 618.6 372.3 L 618.6 409.2 L 565.3 440 L 565.3 440 L 634.6 480 L 602.6 498.5 L 549.3 467.7 L 549.3 467.7 L 549.3 547.7 L 517.3 529.2 L 517.3 467.7 L 517.3 467.7 L 448 507.7 L 448 470.8 L 501.3 440 L 501.3 440 L 432 400 L 464 381.5 L 517.3 412.3" fill="#feffbe" stroke="#472836" stroke-width="4"></path><path d="M 485.3 276.9 L 485.3 196.9 L 517.3 215.3 L 517.3 276.9 L 517.3 276.9 L 586.6 236.9 L 586.6 273.8 L 533.3 304.6 L 533.3 304.6 L 602.6 344.6 L 570.6 363 L 517.3 332.3 L 517.3 332.3 L 517.3 412.3 L 485.3 393.8 L 485.3 332.3 L 485.3 332.3 L 416 372.3 L 416 335.3 L 469.3 304.6 L 469.3 304.6 L 400 264.6 L 432 246.1 L 485.3 276.9" fill="#d7ebba" stroke="#472836" stroke-width="4"></path><path d="M 352 236.9 L 352 156.9 L 384 175.3 L 384 236.9 L 384 236.9 L 453.3 196.9 L 453.3 233.8 L 400 264.6 L 400 264.6 L 469.3 304.6 L 437.3 323 L 384 292.3 L 384 292.3 L 384 372.3 L 352 353.8 L 352 292.3 L 352 292.3 L 282.7 332.3 L 282.7 295.3 L 336 264.6 L 336 264.6 L 266.7 224.6 L 298.7 206.1 L 352 236.9" fill="#feffbe" stroke="#472836" stroke-width="4"></path><path d="M 117.4 292.3 L 117.4 212.3 L 149.4 230.8 L 149.4 292.3 L 149.4 292.3 L 218.7 252.3 L 218.7 289.2 L 165.4 320 L 165.4 320 L 234.7 360 L 202.7 378.5 L 149.4 347.7 L 149.4 347.7 L 149.4 427.7 L 117.4 409.2 L 117.4 347.7 L 117.4 347.7 L 48.2 387.7 L 48.2 350.8 L 101.4 320 L 101.4 320 L 32.2 280 L 64.2 261.5 L 117.4 292.3" fill="#feffbe" stroke="#472836" stroke-width="4"></path><path d="M 149.4 427.7 L 149.4 347.7 L 181.4 366.2 L 181.4 427.7 L 181.4 427.7 L 250.7 387.7 L 250.7 424.7 L 197.4 455.4 L 197.4 455.4 L 266.7 495.4 L 234.7 513.9 L 181.4 483.1 L 181.4 483.1 L 181.4 563.1 L 149.4 544.7 L 149.4 483.1 L 149.4 483.1 L 80.2 523.1 L 80.2 486.2 L 133.4 455.4 L 133.4 455.4 L 64.2 415.4 L 96.2 397 L 149.4 427.7" fill="#9ad2cb" stroke="#472836" stroke-width="4"></path><path d="M 181.4 563.1 L 181.4 483.1 L 213.4 501.6 L 213.4 563.1 L 213.4 563.1 L 282.7 523.1 L 282.7 560.1 L 229.4 590.9 L 229.4 590.9 L 298.7 630.9 L 266.7 649.3 L 213.4 618.6 L 213.4 618.6 L 213.4 698.6 L 181.4 680.1 L 181.4 618.6 L 181.4 618.6 L 112.2 658.6 L 112.2 621.6 L 165.4 590.9 L 165.4 590.9 L 96.2 550.9 L 128.2 532.4 L 181.4 563.1" fill="#d7ebba" stroke="#472836" stroke-width="4"></path><path d="M 314.7 603.1 L 314.7 523.1 L 346.7 541.6 L 346.7 603.1 L 346.7 603.1 L 416 563.1 L 416 600.1 L 362.7 630.9 L 362.7 630.9 L 432 670.9 L 400 689.3 L 346.7 658.6 L 346.7 658.6 L 346.7 738.6 L 314.7 720.1 L 314.7 658.6 L 314.7 658.6 L 245.4 698.6 L 245.4 661.6 L 298.7 630.9 L 298.7 630.9 L 229.4 590.9 L 261.4 572.4 L 314.7 603.1" fill="#9ad2cb" stroke="#472836" stroke-width="4"></path><path d="M 448 643.1 L 448 563.1 L 480 581.6 L 480 643.1 L 480 643.1 L 549.3 603.1 L 549.3 640.1 L 496 670.9 L 496 670.9 L 565.3 710.9 L 533.3 729.3 L 480 698.6 L 480 698.6 L 480 778.6 L 448 760.1 L 448 698.6 L 448 698.6 L 378.7 738.6 L 378.7 701.6 L 432 670.9 L 432 670.9 L 362.7 630.9 L 394.7 612.4 L 448 643.1" fill="#feffbe" stroke="#472836" stroke-width="4"></path><path d="M 549.3 547.7 L 549.3 467.7 L 581.3 486.2 L 581.3 547.7 L 581.3 547.7 L 650.6 507.7 L 650.6 544.7 L 597.3 575.4 L 597.3 575.4 L 666.6 615.4 L 634.6 633.9 L 581.3 603.1 L 581.3 603.1 L 581.3 683.1 L 549.3 664.7 L 549.3 603.1 L 549.3 603.1 L 480 643.1 L 480 606.2 L 533.3 575.4 L 533.3 575.4 L 464 535.4 L 496 517 L 549.3 547.7" fill="#9ad2cb" stroke="#472836" stroke-width="4"></path><path d="M 650.6 452.3 L 650.6 372.3 L 682.6 390.8 L 682.6 452.3 L 682.6 452.3 L 751.8 412.3 L 751.8 449.2 L 698.6 480 L 698.6 480 L 767.8 520 L 735.8 538.5 L 682.6 507.7 L 682.6 507.7 L 682.6 587.7 L 650.6 569.2 L 650.6 507.7 L 650.6 507.7 L 581.3 547.7 L 581.3 510.8 L 634.6 480 L 634.6 480 L 565.3 440 L 597.3 421.5 L 650.6 452.3" fill="#d7ebba" stroke="#472836" stroke-width="4"></path><path d="M 618.6 316.9 L 618.6 236.9 L 650.6 255.3 L 650.6 316.9 L 650.6 316.9 L 719.8 276.9 L 719.8 313.8 L 666.6 344.6 L 666.6 344.6 L 735.8 384.6 L 703.8 403 L 650.6 372.3 L 650.6 372.3 L 650.6 452.3 L 618.6 433.8 L 618.6 372.3 L 618.6 372.3 L 549.3 412.3 L 549.3 375.3 L 602.6 344.6 L 602.6 344.6 L 533.3 304.6 L 565.3 286.1 L 618.6 316.9" fill="#9ad2cb" stroke="#472836" stroke-width="4"></path><path d="M 586.6 181.4 L 586.6 101.4 L 618.6 119.9 L 618.6 181.4 L 618.6 181.4 L 687.8 141.4 L 687.8 178.4 L 634.6 209.1 L 634.6 209.1 L 703.8 249.1 L 671.8 267.6 L 618.6 236.9 L 618.6 236.9 L 618.6 316.9 L 586.6 298.4 L 586.6 236.9 L 586.6 236.9 L 517.3 276.9 L 517.3 239.9 L 570.6 209.1 L 570.6 209.1 L 501.3 169.1 L 533.3 150.7 L 586.6 181.4" fill="#feffbe" stroke="#472836" stroke-width="4"></path><path d="M 453.3 141.4 L 453.3 61.4 L 485.3 79.9 L 485.3 141.4 L 485.3 141.4 L 554.6 101.4 L 554.6 138.4 L 501.3 169.1 L 501.3 169.1 L 570.6 209.1 L 538.6 227.6 L 485.3 196.9 L 485.3 196.9 L 485.3 276.9 L 453.3 258.4 L 453.3 196.9 L 453.3 196.9 L 384 236.9 L 384 199.9 L 437.3 169.1 L 437.3 169.1 L 368 129.1 L 400 110.7 L 453.3 141.4" fill="#9ad2cb" stroke="#472836" stroke-width="4"></path><path d="M 320 101.4 L 320 21.4 L 352 39.9 L 352 101.4 L 352 101.4 L 421.3 61.4 L 421.3 98.4 L 368 129.1 L 368 129.1 L 437.3 169.1 L 405.3 187.6 L 352 156.9 L 352 156.9 L 352 236.9 L 320 218.4 L 320 156.9 L 320 156.9 L 250.7 196.9 L 250.7 159.9 L 304 129.1 L 304 129.1 L 234.7 89.1 L 266.7 70.7 L 320 101.4" fill="#d7ebba" stroke="#472836" stroke-width="4"></path><path d="M 218.7 196.9 L 218.7 116.9 L 250.7 135.3 L 250.7 196.9 L 250.7 196.9 L 320 156.9 L 320 193.8 L 266.7 224.6 L 266.7 224.6 L 336 264.6 L 304 283 L 250.7 252.3 L 250.7 252.3 L 250.7 332.3 L 218.7 313.8 L 218.7 252.3 L 218.7 252.3 L 149.4 292.3 L 149.4 255.3 L 202.7 224.6 L 202.7 224.6 L 133.4 184.6 L 165.4 166.1 L 218.7 196.9" fill="#9ad2cb" stroke="#472836" stroke-width="4"></path><path d="M -15.8 252.3 L -15.8 172.3 L 16.2 190.8 L 16.2 252.3 L 16.2 252.3 L 85.4 212.3 L 85.4 249.2 L 32.2 280 L 32.2 280 L 101.4 320 L 69.4 338.5 L 16.2 307.7 L 16.2 307.7 L 16.2 387.7 L -15.8 369.2 L -15.8 307.7 L -15.8 307.7 L -85.1 347.7 L -85.1 310.8 L -31.8 280 L -31.8 280 L -101.1 240 L -69.1 221.5 L -15.8 252.3" fill="#9ad2cb" stroke="#472836" stroke-width="4"></path><path d="M 16.2 387.7 L 16.2 307.7 L 48.2 326.2 L 48.2 387.7 L 48.2 387.7 L 117.4 347.7 L 117.4 384.7 L 64.2 415.4 L 64.2 415.4 L 133.4 455.4 L 101.4 473.9 L 48.2 443.1 L 48.2 443.1 L 48.2 523.1 L 16.2 504.7 L 16.2 443.1 L 16.2 443.1 L -53.1 483.1 L -53.1 446.2 L 0.2 415.4 L 0.2 415.4 L -69.1 375.4 L -37.1 357 L 16.2 387.7" fill="#d7ebba" stroke="#472836" stroke-width="4"></path><path d="M 48.2 523.1 L 48.2 443.1 L 80.2 461.6 L 80.2 523.1 L 80.2 523.1 L 149.4 483.1 L 149.4 520.1 L 96.2 550.9 L 96.2 550.9 L 165.4 590.9 L 133.4 609.3 L 80.2 578.6 L 80.2 578.6 L 80.2 658.6 L 48.2 640.1 L 48.2 578.6 L 48.2 578.6 L -21.1 618.6 L -21.1 581.6 L 32.2 550.9 L 32.2 550.9 L -37.1 510.9 L -5.1 492.4 L 48.2 523.1" fill="#feffbe" stroke="#472836" stroke-width="4"></path><path d="M 80.2 658.6 L 80.2 578.6 L 112.2 597 L 112.2 658.6 L 112.2 658.6 L 181.4 618.6 L 181.4 655.5 L 128.2 686.3 L 128.2 686.3 L 197.4 726.3 L 165.4 744.8 L 112.2 714 L 112.2 714 L 112.2 794 L 80.2 775.5 L 80.2 714 L 80.2 714 L 10.9 754 L 10.9 717 L 64.2 686.3 L 64.2 686.3 L -5.1 646.3 L 26.9 627.8 L 80.2 658.6" fill="#9ad2cb" stroke="#472836" stroke-width="4"></path><path d="M 213.4 698.6 L 213.4 618.6 L 245.4 637 L 245.4 698.6 L 245.4 698.6 L 314.7 658.6 L 314.7 695.5 L 261.4 726.3 L 261.4 726.3 L 330.7 766.3 L 298.7 784.8 L 245.4 754 L 245.4 754 L 245.4 834 L 213.4 815.5 L 213.4 754 L 213.4 754 L 144.2 794 L 144.2 757 L 197.4 726.3 L 197.4 726.3 L 128.2 686.3 L 160.2 667.8 L 213.4 698.6" fill="#feffbe" stroke="#472836" stroke-width="4"></path><path d="M 346.7 738.6 L 346.7 658.6 L 378.7 677 L 378.7 738.6 L 378.7 738.6 L 448 698.6 L 448 735.5 L 394.7 766.3 L 394.7 766.3 L 464 806.3 L 432 824.8 L 378.7 794 L 378.7 794 L 378.7 874 L 346.7 855.5 L 346.7 794 L 346.7 794 L 277.4 834 L 277.4 797 L 330.7 766.3 L 330.7 766.3 L 261.4 726.3 L 293.4 707.8 L 346.7 738.6" fill="#d7ebba" stroke="#472836" stroke-width="4"></path><path d="M 480 778.6 L 480 698.6 L 512 717 L 512 778.6 L 512 778.6 L 581.3 738.6 L 581.3 775.5 L 528 806.3 L 528 806.3 L 597.3 846.3 L 565.3 864.8 L 512 834 L 512 834 L 512 914 L 480 895.5 L 480 834 L 480 834 L 410.7 874 L 410.7 837 L 464 806.3 L 464 806.3 L 394.7 766.3 L 426.7 747.8 L 480 778.6" fill="#9ad2cb" stroke="#472836" stroke-width="4"></path><path d="M 581.3 683.1 L 581.3 603.1 L 613.3 621.6 L 613.3 683.1 L 613.3 683.1 L 682.6 643.1 L 682.6 680.1 L 629.3 710.9 L 629.3 710.9 L 698.6 750.9 L 666.6 769.3 L 613.3 738.6 L 613.3 738.6 L 613.3 818.6 L 581.3 800.1 L 581.3 738.6 L 581.3 738.6 L 512 778.6 L 512 741.6 L 565.3 710.9 L 565.3 710.9 L 496 670.9 L 528 652.4 L 581.3 683.1" fill="#d7ebba" stroke="#472836" stroke-width="4"></path><path d="M 682.6 587.7 L 682.6 507.7 L 714.6 526.2 L 714.6 587.7 L 714.6 587.7 L 783.8 547.7 L 783.8 584.7 L 730.6 615.4 L 730.6 615.4 L 799.8 655.4 L 767.8 673.9 L 714.6 643.1 L 714.6 643.1 L 714.6 723.1 L 682.6 704.7 L 682.6 643.1 L 682.6 643.1 L 613.3 683.1 L 613.3 646.2 L 666.6 615.4 L 666.6 615.4 L 597.3 575.4 L 629.3 557 L 682.6 587.7" fill="#feffbe" stroke="#472836" stroke-width="4"></path><path d="M 783.8 492.3 L 783.8 412.3 L 815.8 430.8 L 815.8 492.3 L 815.8 492.3 L 885.1 452.3 L 885.1 489.2 L 831.8 520 L 831.8 520 L 901.1 560 L 869.1 578.5 L 815.8 547.7 L 815.8 547.7 L 815.8 627.7 L 783.8 609.2 L 783.8 547.7 L 783.8 547.7 L 714.6 587.7 L 714.6 550.8 L 767.8 520 L 767.8 520 L 698.6 480 L 730.6 461.5 L 783.8 492.3" fill="#9ad2cb" stroke="#472836" stroke-width="4"></path><path d="M 751.8 356.9 L 751.8 276.9 L 783.8 295.3 L 783.8 356.9 L 783.8 356.9 L 853.1 316.9 L 853.1 353.8 L 799.8 384.6 L 799.8 384.6 L 869.1 424.6 L 837.1 443 L 783.8 412.3 L 783.8 412.3 L 783.8 492.3 L 751.8 473.8 L 751.8 412.3 L 751.8 412.3 L 682.6 452.3 L 682.6 415.3 L 735.8 384.6 L 735.8 384.6 L 666.6 344.6 L 698.6 326.1 L 751.8 356.9" fill="#feffbe" stroke="#472836" stroke-width="4"></path><path d="M 719.8 221.4 L 719.8 141.4 L 751.8 159.9 L 751.8 221.4 L 751.8 221.4 L 821.1 181.4 L 821.1 218.4 L 767.8 249.1 L 767.8 249.1 L 837.1 289.1 L 805.1 307.6 L 751.8 276.9 L 751.8 276.9 L 751.8 356.9 L 719.8 338.4 L 719.8 276.9 L 719.8 276.9 L 650.6 316.9 L 650.6 279.9 L 703.8 249.1 L 703.8 249.1 L 634.6 209.1 L 666.6 190.7 L 719.8 221.4" fill="#d7ebba" stroke="#472836" stroke-width="4"></path><path d="M 687.8 86 L 687.8 6 L 719.8 24.5 L 719.8 86 L 719.8 86 L 789.1 46 L 789.1 83 L 735.8 113.7 L 735.8 113.7 L 805.1 153.7 L 773.1 172.2 L 719.8 141.4 L 719.8 141.4 L 719.8 221.4 L 687.8 203 L 687.8 141.4 L 687.8 141.4 L 618.6 181.4 L 618.6 144.5 L 671.8 113.7 L 671.8 113.7 L 602.6 73.7 L 634.6 55.2 L 687.8 86" fill="#9ad2cb" stroke="#472836" stroke-width="4"></path><path d="M 554.6 46 L 554.6 -34 L 586.6 -15.5 L 586.6 46 L 586.6 46 L 655.8 6 L 655.8 43 L 602.6 73.7 L 602.6 73.7 L 671.8 113.7 L 639.8 132.2 L 586.6 101.4 L 586.6 101.4 L 586.6 181.4 L 554.6 163 L 554.6 101.4 L 554.6 101.4 L 485.3 141.4 L 485.3 104.5 L 538.6 73.7 L 538.6 73.7 L 469.3 33.7 L 501.3 15.2 L 554.6 46" fill="#d7ebba" stroke="#472836" stroke-width="4"></path><path d="M 421.3 6 L 421.3 -74 L 453.3 -55.5 L 453.3 6 L 453.3 6 L 522.6 -34 L 522.6 3 L 469.3 33.7 L 469.3 33.7 L 538.6 73.7 L 506.6 92.2 L 453.3 61.4 L 453.3 61.4 L 453.3 141.4 L 421.3 123 L 421.3 61.4 L 421.3 61.4 L 352 101.4 L 352 64.5 L 405.3 33.7 L 405.3 33.7 L 336 -6.3 L 368 -24.8 L 421.3 6" fill="#feffbe" stroke="#472836" stroke-width="4"></path><path d="M 288 -34 L 288 -114 L 320 -95.5 L 320 -34 L 320 -34 L 389.3 -74 L 389.3 -37 L 336 -6.3 L 336 -6.3 L 405.3 33.7 L 373.3 52.2 L 320 21.4 L 320 21.4 L 320 101.4 L 288 83 L 288 21.4 L 288 21.4 L 218.7 61.4 L 218.7 24.5 L 272 -6.3 L 272 -6.3 L 202.7 -46.3 L 234.7 -64.8 L 288 -34" fill="#9ad2cb" stroke="#472836" stroke-width="4"></path><path d="M 186.7 61.4 L 186.7 -18.6 L 218.7 -0.1 L 218.7 61.4 L 218.7 61.4 L 288 21.4 L 288 58.4 L 234.7 89.1 L 234.7 89.1 L 304 129.1 L 272 147.6 L 218.7 116.9 L 218.7 116.9 L 218.7 196.9 L 186.7 178.4 L 186.7 116.9 L 186.7 116.9 L 117.4 156.9 L 117.4 119.9 L 170.7 89.1 L 170.7 89.1 L 101.4 49.1 L 133.4 30.7 L 186.7 61.4" fill="#feffbe" stroke="#472836" stroke-width="4"></path><path d="M 85.4 156.9 L 85.4 76.9 L 117.4 95.3 L 117.4 156.9 L 117.4 156.9 L 186.7 116.9 L 186.7 153.8 L 133.4 184.6 L 133.4 184.6 L 202.7 224.6 L 170.7 243 L 117.4 212.3 L 117.4 212.3 L 117.4 292.3 L 85.4 273.8 L 85.4 212.3 L 85.4 212.3 L 16.2 252.3 L 16.2 215.3 L 69.4 184.6 L 69.4 184.6 L 0.2 144.6 L 32.2 126.1 L 85.4 156.9" fill="#d7ebba" stroke="#472836" stroke-width="4"></path><ellipse cx="400" cy="400" rx="600" ry="600" fill="none" stroke="white" stroke-width="560"></ellipse><ellipse cx="400" cy="400" rx="320" ry="320" fill="none" stroke="#472836" stroke-width="4"></ellipse></svg>