<svg viewBox="0 0 800 800" preserveAspectRatio="xMidYMin slice" xmlns="http://www.w3.org/2000/svg"><rect x="0" y="0" width="800" height="800" fill="#48304b"></rect><path d="M -109.1 -109.1 L -87.9 -109.1 L -56.1 -140.9 L -45.5 -130.3 L -56.1 -119.7 L -45.5 -109.1 L -56.1 -98.5 L -66.7 -109.1 L -77.3 -98.5 L -45.5 -66.7 L -45.5 -45.5 L -109.1 -109.1" fill="#e3170a" stroke="black" stroke-width="2"></path><path d="M -109.1 -109.1 L -109.1 -87.9 L -77.3 -56.1 L -87.9 -45.5 L -98.5 -56.1 L -109.1 -45.5 L -119.7 -56.1 L -109.1 -66.7 L -119.7 -77.3 L -151.5 -45.5 L -172.8 -45.5 L -109.1 -109.1" fill="#e3170a" stroke="black" stroke-width="2"></path><path d="M -109.1 -109.1 L -130.3 -109.1 L -162.1 -77.3 L -172.8 -87.9 L -162.1 -98.5 L -172.8 -109.1 L -162.1 -119.7 L -151.5 -109.1 L -140.9 -119.7 L -172.8 -151.5 L -172.8 -172.8 L -109.1 -109.1" fill="#e3170a" stroke="black" stroke-width="2"></path><path d="M -109.1 -109.1 L -109.1 -130.3 L -140.9 -162.1 L -130.3 -172.8 L -119.7 -162.1 L -109.1 -172.8 L -98.5 -162.1 L -109.1 -151.5 L -98.5 -140.9 L -66.7 -172.8 L -45.5 -172.8 L -109.1 -109.1" fill="#e3170a" stroke="black" stroke-width="2"></path><path d="M 18.2 -109.1 L 39.4 -109.1 L 71.2 -140.9 L 81.8 -130.3 L 71.2 -119.7 L 81.8 -109.1 L 71.2 -98.5 L 60.6 -109.1 L 50 -98.5 L 81.8 -66.7 L 81.8 -45.5 L 18.2 -109.1" fill="#fcf6b1" stroke="black" stroke-width="2"></path><path d="M 18.2 -109.1 L 18.2 -87.9 L 50 -56.1 L 39.4 -45.5 L 28.8 -56.1 L 18.2 -45.5 L 7.6 -56.1 L 18.2 -66.7 L 7.6 -77.3 L -24.3 -45.5 L -45.5 -45.5 L 18.2 -109.1" fill="#fcf6b1" stroke="black" stroke-width="2"></path><path d="M 18.2 -109.1 L -3.1 -109.1 L -34.9 -77.3 L -45.5 -87.9 L -34.9 -98.5 L -45.5 -109.1 L -34.9 -119.7 L -24.3 -109.1 L -13.7 -119.7 L -45.5 -151.5 L -45.5 -172.8 L 18.2 -109.1" fill="#fcf6b1" stroke="black" stroke-width="2"></path><path d="M 18.2 -109.1 L 18.2 -130.3 L -13.7 -162.1 L -3.1 -172.8 L 7.6 -162.1 L 18.2 -172.8 L 28.8 -162.1 L 18.2 -151.5 L 28.8 -140.9 L 60.6 -172.8 L 81.8 -172.8 L 18.2 -109.1" fill="#fcf6b1" stroke="black" stroke-width="2"></path><path d="M 145.4 -109.1 L 166.7 -109.1 L 198.5 -140.9 L 209.1 -130.3 L 198.5 -119.7 L 209.1 -109.1 L 198.5 -98.5 L 187.9 -109.1 L 177.3 -98.5 L 209.1 -66.7 L 209.1 -45.5 L 145.4 -109.1" fill="#e3170a" stroke="black" stroke-width="2"></path><path d="M 145.4 -109.1 L 145.4 -87.9 L 177.3 -56.1 L 166.7 -45.5 L 156 -56.1 L 145.4 -45.5 L 134.8 -56.1 L 145.4 -66.7 L 134.8 -77.3 L 103 -45.5 L 81.8 -45.5 L 145.4 -109.1" fill="#e3170a" stroke="black" stroke-width="2"></path><path d="M 145.4 -109.1 L 124.2 -109.1 L 92.4 -77.3 L 81.8 -87.9 L 92.4 -98.5 L 81.8 -109.1 L 92.4 -119.7 L 103 -109.1 L 113.6 -119.7 L 81.8 -151.5 L 81.8 -172.8 L 145.4 -109.1" fill="#e3170a" stroke="black" stroke-width="2"></path><path d="M 145.4 -109.1 L 145.4 -130.3 L 113.6 -162.1 L 124.2 -172.8 L 134.8 -162.1 L 145.4 -172.8 L 156 -162.1 L 145.4 -151.5 L 156 -140.9 L 187.9 -172.8 L 209.1 -172.8 L 145.4 -109.1" fill="#e3170a" stroke="black" stroke-width="2"></path><path d="M 272.7 -109.1 L 293.9 -109.1 L 325.8 -140.9 L 336.4 -130.3 L 325.8 -119.7 L 336.4 -109.1 L 325.8 -98.5 L 315.1 -109.1 L 304.5 -98.5 L 336.4 -66.7 L 336.4 -45.5 L 272.7 -109.1" fill="#fcf6b1" stroke="black" stroke-width="2"></path><path d="M 272.7 -109.1 L 272.7 -87.9 L 304.5 -56.1 L 293.9 -45.5 L 283.3 -56.1 L 272.7 -45.5 L 262.1 -56.1 L 272.7 -66.7 L 262.1 -77.3 L 230.3 -45.5 L 209.1 -45.5 L 272.7 -109.1" fill="#fcf6b1" stroke="black" stroke-width="2"></path><path d="M 272.7 -109.1 L 251.5 -109.1 L 219.7 -77.3 L 209.1 -87.9 L 219.7 -98.5 L 209.1 -109.1 L 219.7 -119.7 L 230.3 -109.1 L 240.9 -119.7 L 209.1 -151.5 L 209.1 -172.8 L 272.7 -109.1" fill="#fcf6b1" stroke="black" stroke-width="2"></path><path d="M 272.7 -109.1 L 272.7 -130.3 L 240.9 -162.1 L 251.5 -172.8 L 262.1 -162.1 L 272.7 -172.8 L 283.3 -162.1 L 272.7 -151.5 L 283.3 -140.9 L 315.1 -172.8 L 336.4 -172.8 L 272.7 -109.1" fill="#fcf6b1" stroke="black" stroke-width="2"></path><path d="M 400 -109.1 L 421.2 -109.1 L 453 -140.9 L 463.6 -130.3 L 453 -119.7 L 463.6 -109.1 L 453 -98.5 L 442.4 -109.1 L 431.8 -98.5 L 463.6 -66.7 L 463.6 -45.5 L 400 -109.1" fill="#e3170a" stroke="black" stroke-width="2"></path><path d="M 400 -109.1 L 400 -87.9 L 431.8 -56.1 L 421.2 -45.5 L 410.6 -56.1 L 400 -45.5 L 389.4 -56.1 L 400 -66.7 L 389.4 -77.3 L 357.6 -45.5 L 336.4 -45.5 L 400 -109.1" fill="#e3170a" stroke="black" stroke-width="2"></path><path d="M 400 -109.1 L 378.8 -109.1 L 347 -77.3 L 336.4 -87.9 L 347 -98.5 L 336.4 -109.1 L 347 -119.7 L 357.6 -109.1 L 368.2 -119.7 L 336.4 -151.5 L 336.4 -172.8 L 400 -109.1" fill="#e3170a" stroke="black" stroke-width="2"></path><path d="M 400 -109.1 L 400 -130.3 L 368.2 -162.1 L 378.8 -172.8 L 389.4 -162.1 L 400 -172.8 L 410.6 -162.1 L 400 -151.5 L 410.6 -140.9 L 442.4 -172.8 L 463.6 -172.8 L 400 -109.1" fill="#e3170a" stroke="black" stroke-width="2"></path><path d="M 527.3 -109.1 L 548.5 -109.1 L 580.3 -140.9 L 590.9 -130.3 L 580.3 -119.7 L 590.9 -109.1 L 580.3 -98.5 L 569.7 -109.1 L 559.1 -98.5 L 590.9 -66.7 L 590.9 -45.5 L 527.3 -109.1" fill="#fcf6b1" stroke="black" stroke-width="2"></path><path d="M 527.3 -109.1 L 527.3 -87.9 L 559.1 -56.1 L 548.5 -45.5 L 537.9 -56.1 L 527.3 -45.5 L 516.7 -56.1 L 527.3 -66.7 L 516.7 -77.3 L 484.9 -45.5 L 463.6 -45.5 L 527.3 -109.1" fill="#fcf6b1" stroke="black" stroke-width="2"></path><path d="M 527.3 -109.1 L 506.1 -109.1 L 474.2 -77.3 L 463.6 -87.9 L 474.2 -98.5 L 463.6 -109.1 L 474.2 -119.7 L 484.9 -109.1 L 495.5 -119.7 L 463.6 -151.5 L 463.6 -172.8 L 527.3 -109.1" fill="#fcf6b1" stroke="black" stroke-width="2"></path><path d="M 527.3 -109.1 L 527.3 -130.3 L 495.5 -162.1 L 506.1 -172.8 L 516.7 -162.1 L 527.3 -172.8 L 537.9 -162.1 L 527.3 -151.5 L 537.9 -140.9 L 569.7 -172.8 L 590.9 -172.8 L 527.3 -109.1" fill="#fcf6b1" stroke="black" stroke-width="2"></path><path d="M 654.6 -109.1 L 675.8 -109.1 L 707.6 -140.9 L 718.2 -130.3 L 707.6 -119.7 L 718.2 -109.1 L 707.6 -98.5 L 697 -109.1 L 686.4 -98.5 L 718.2 -66.7 L 718.2 -45.5 L 654.6 -109.1" fill="#e3170a" stroke="black" stroke-width="2"></path><path d="M 654.6 -109.1 L 654.6 -87.9 L 686.4 -56.1 L 675.8 -45.5 L 665.2 -56.1 L 654.6 -45.5 L 644 -56.1 L 654.6 -66.7 L 644 -77.3 L 612.1 -45.5 L 590.9 -45.5 L 654.6 -109.1" fill="#e3170a" stroke="black" stroke-width="2"></path><path d="M 654.6 -109.1 L 633.3 -109.1 L 601.5 -77.3 L 590.9 -87.9 L 601.5 -98.5 L 590.9 -109.1 L 601.5 -119.7 L 612.1 -109.1 L 622.7 -119.7 L 590.9 -151.5 L 590.9 -172.8 L 654.6 -109.1" fill="#e3170a" stroke="black" stroke-width="2"></path><path d="M 654.6 -109.1 L 654.6 -130.3 L 622.7 -162.1 L 633.3 -172.8 L 644 -162.1 L 654.6 -172.8 L 665.2 -162.1 L 654.6 -151.5 L 665.2 -140.9 L 697 -172.8 L 718.2 -172.8 L 654.6 -109.1" fill="#e3170a" stroke="black" stroke-width="2"></path><path d="M 781.8 -109.1 L 803.1 -109.1 L 834.9 -140.9 L 845.5 -130.3 L 834.9 -119.7 L 845.5 -109.1 L 834.9 -98.5 L 824.3 -109.1 L 813.7 -98.5 L 845.5 -66.7 L 845.5 -45.5 L 781.8 -109.1" fill="#fcf6b1" stroke="black" stroke-width="2"></path><path d="M 781.8 -109.1 L 781.8 -87.9 L 813.7 -56.1 L 803.1 -45.5 L 792.4 -56.1 L 781.8 -45.5 L 771.2 -56.1 L 781.8 -66.7 L 771.2 -77.3 L 739.4 -45.5 L 718.2 -45.5 L 781.8 -109.1" fill="#fcf6b1" stroke="black" stroke-width="2"></path><path d="M 781.8 -109.1 L 760.6 -109.1 L 728.8 -77.3 L 718.2 -87.9 L 728.8 -98.5 L 718.2 -109.1 L 728.8 -119.7 L 739.4 -109.1 L 750 -119.7 L 718.2 -151.5 L 718.2 -172.8 L 781.8 -109.1" fill="#fcf6b1" stroke="black" stroke-width="2"></path><path d="M 781.8 -109.1 L 781.8 -130.3 L 750 -162.1 L 760.6 -172.8 L 771.2 -162.1 L 781.8 -172.8 L 792.4 -162.1 L 781.8 -151.5 L 792.4 -140.9 L 824.3 -172.8 L 845.5 -172.8 L 781.8 -109.1" fill="#fcf6b1" stroke="black" stroke-width="2"></path><path d="M 909.1 -109.1 L 930.3 -109.1 L 962.1 -140.9 L 972.8 -130.3 L 962.1 -119.7 L 972.8 -109.1 L 962.1 -98.5 L 951.5 -109.1 L 940.9 -98.5 L 972.8 -66.7 L 972.8 -45.5 L 909.1 -109.1" fill="#e3170a" stroke="black" stroke-width="2"></path><path d="M 909.1 -109.1 L 909.1 -87.9 L 940.9 -56.1 L 930.3 -45.5 L 919.7 -56.1 L 909.1 -45.5 L 898.5 -56.1 L 909.1 -66.7 L 898.5 -77.3 L 866.7 -45.5 L 845.5 -45.5 L 909.1 -109.1" fill="#e3170a" stroke="black" stroke-width="2"></path><path d="M 909.1 -109.1 L 887.9 -109.1 L 856.1 -77.3 L 845.5 -87.9 L 856.1 -98.5 L 845.5 -109.1 L 856.1 -119.7 L 866.7 -109.1 L 877.3 -119.7 L 845.5 -151.5 L 845.5 -172.8 L 909.1 -109.1" fill="#e3170a" stroke="black" stroke-width="2"></path><path d="M 909.1 -109.1 L 909.1 -130.3 L 877.3 -162.1 L 887.9 -172.8 L 898.5 -162.1 L 909.1 -172.8 L 919.7 -162.1 L 909.1 -151.5 L 919.7 -140.9 L 951.5 -172.8 L 972.8 -172.8 L 909.1 -109.1" fill="#e3170a" stroke="black" stroke-width="2"></path><path d="M -109.1 18.2 L -87.9 18.2 L -56.1 -13.7 L -45.5 -3.1 L -56.1 7.6 L -45.5 18.2 L -56.1 28.8 L -66.7 18.2 L -77.3 28.8 L -45.5 60.6 L -45.5 81.8 L -109.1 18.2" fill="#a9e5bb" stroke="black" stroke-width="2"></path><path d="M -109.1 18.2 L -109.1 39.4 L -77.3 71.2 L -87.9 81.8 L -98.5 71.2 L -109.1 81.8 L -119.7 71.2 L -109.1 60.6 L -119.7 50 L -151.5 81.8 L -172.8 81.8 L -109.1 18.2" fill="#a9e5bb" stroke="black" stroke-width="2"></path><path d="M -109.1 18.2 L -130.3 18.2 L -162.1 50 L -172.8 39.4 L -162.1 28.8 L -172.8 18.2 L -162.1 7.6 L -151.5 18.2 L -140.9 7.6 L -172.8 -24.3 L -172.8 -45.5 L -109.1 18.2" fill="#a9e5bb" stroke="black" stroke-width="2"></path><path d="M -109.1 18.2 L -109.1 -3.1 L -140.9 -34.9 L -130.3 -45.5 L -119.7 -34.9 L -109.1 -45.5 L -98.5 -34.9 L -109.1 -24.3 L -98.5 -13.7 L -66.7 -45.5 L -45.5 -45.5 L -109.1 18.2" fill="#a9e5bb" stroke="black" stroke-width="2"></path><path d="M 18.2 18.2 L 39.4 18.2 L 71.2 -13.7 L 81.8 -3.1 L 71.2 7.6 L 81.8 18.2 L 71.2 28.8 L 60.6 18.2 L 50 28.8 L 81.8 60.6 L 81.8 81.8 L 18.2 18.2" fill="#f7b32b" stroke="black" stroke-width="2"></path><path d="M 18.2 18.2 L 18.2 39.4 L 50 71.2 L 39.4 81.8 L 28.8 71.2 L 18.2 81.8 L 7.6 71.2 L 18.2 60.6 L 7.6 50 L -24.3 81.8 L -45.5 81.8 L 18.2 18.2" fill="#f7b32b" stroke="black" stroke-width="2"></path><path d="M 18.2 18.2 L -3.1 18.2 L -34.9 50 L -45.5 39.4 L -34.9 28.8 L -45.5 18.2 L -34.9 7.6 L -24.3 18.2 L -13.7 7.6 L -45.5 -24.3 L -45.5 -45.5 L 18.2 18.2" fill="#f7b32b" stroke="black" stroke-width="2"></path><path d="M 18.2 18.2 L 18.2 -3.1 L -13.7 -34.9 L -3.1 -45.5 L 7.6 -34.9 L 18.2 -45.5 L 28.8 -34.9 L 18.2 -24.3 L 28.8 -13.7 L 60.6 -45.5 L 81.8 -45.5 L 18.2 18.2" fill="#f7b32b" stroke="black" stroke-width="2"></path><path d="M 145.4 18.2 L 166.7 18.2 L 198.5 -13.7 L 209.1 -3.1 L 198.5 7.6 L 209.1 18.2 L 198.5 28.8 L 187.9 18.2 L 177.3 28.8 L 209.1 60.6 L 209.1 81.8 L 145.4 18.2" fill="#a9e5bb" stroke="black" stroke-width="2"></path><path d="M 145.4 18.2 L 145.4 39.4 L 177.3 71.2 L 166.7 81.8 L 156 71.2 L 145.4 81.8 L 134.8 71.2 L 145.4 60.6 L 134.8 50 L 103 81.8 L 81.8 81.8 L 145.4 18.2" fill="#a9e5bb" stroke="black" stroke-width="2"></path><path d="M 145.4 18.2 L 124.2 18.2 L 92.4 50 L 81.8 39.4 L 92.4 28.8 L 81.8 18.2 L 92.4 7.6 L 103 18.2 L 113.6 7.6 L 81.8 -24.3 L 81.8 -45.5 L 145.4 18.2" fill="#a9e5bb" stroke="black" stroke-width="2"></path><path d="M 145.4 18.2 L 145.4 -3.1 L 113.6 -34.9 L 124.2 -45.5 L 134.8 -34.9 L 145.4 -45.5 L 156 -34.9 L 145.4 -24.3 L 156 -13.7 L 187.9 -45.5 L 209.1 -45.5 L 145.4 18.2" fill="#a9e5bb" stroke="black" stroke-width="2"></path><path d="M 272.7 18.2 L 293.9 18.2 L 325.8 -13.7 L 336.4 -3.1 L 325.8 7.6 L 336.4 18.2 L 325.8 28.8 L 315.1 18.2 L 304.5 28.8 L 336.4 60.6 L 336.4 81.8 L 272.7 18.2" fill="#f7b32b" stroke="black" stroke-width="2"></path><path d="M 272.7 18.2 L 272.7 39.4 L 304.5 71.2 L 293.9 81.8 L 283.3 71.2 L 272.7 81.8 L 262.1 71.2 L 272.7 60.6 L 262.1 50 L 230.3 81.8 L 209.1 81.8 L 272.7 18.2" fill="#f7b32b" stroke="black" stroke-width="2"></path><path d="M 272.7 18.2 L 251.5 18.2 L 219.7 50 L 209.1 39.4 L 219.7 28.8 L 209.1 18.2 L 219.7 7.6 L 230.3 18.2 L 240.9 7.6 L 209.1 -24.3 L 209.1 -45.5 L 272.7 18.2" fill="#f7b32b" stroke="black" stroke-width="2"></path><path d="M 272.7 18.2 L 272.7 -3.1 L 240.9 -34.9 L 251.5 -45.5 L 262.1 -34.9 L 272.7 -45.5 L 283.3 -34.9 L 272.7 -24.3 L 283.3 -13.7 L 315.1 -45.5 L 336.4 -45.5 L 272.7 18.2" fill="#f7b32b" stroke="black" stroke-width="2"></path><path d="M 400 18.2 L 421.2 18.2 L 453 -13.7 L 463.6 -3.1 L 453 7.6 L 463.6 18.2 L 453 28.8 L 442.4 18.2 L 431.8 28.8 L 463.6 60.6 L 463.6 81.8 L 400 18.2" fill="#a9e5bb" stroke="black" stroke-width="2"></path><path d="M 400 18.2 L 400 39.4 L 431.8 71.2 L 421.2 81.8 L 410.6 71.2 L 400 81.8 L 389.4 71.2 L 400 60.6 L 389.4 50 L 357.6 81.8 L 336.4 81.8 L 400 18.2" fill="#a9e5bb" stroke="black" stroke-width="2"></path><path d="M 400 18.2 L 378.8 18.2 L 347 50 L 336.4 39.4 L 347 28.8 L 336.4 18.2 L 347 7.6 L 357.6 18.2 L 368.2 7.6 L 336.4 -24.3 L 336.4 -45.5 L 400 18.2" fill="#a9e5bb" stroke="black" stroke-width="2"></path><path d="M 400 18.2 L 400 -3.1 L 368.2 -34.9 L 378.8 -45.5 L 389.4 -34.9 L 400 -45.5 L 410.6 -34.9 L 400 -24.3 L 410.6 -13.7 L 442.4 -45.5 L 463.6 -45.5 L 400 18.2" fill="#a9e5bb" stroke="black" stroke-width="2"></path><path d="M 527.3 18.2 L 548.5 18.2 L 580.3 -13.7 L 590.9 -3.1 L 580.3 7.6 L 590.9 18.2 L 580.3 28.8 L 569.7 18.2 L 559.1 28.8 L 590.9 60.6 L 590.9 81.8 L 527.3 18.2" fill="#f7b32b" stroke="black" stroke-width="2"></path><path d="M 527.3 18.2 L 527.3 39.4 L 559.1 71.2 L 548.5 81.8 L 537.9 71.2 L 527.3 81.8 L 516.7 71.2 L 527.3 60.6 L 516.7 50 L 484.9 81.8 L 463.6 81.8 L 527.3 18.2" fill="#f7b32b" stroke="black" stroke-width="2"></path><path d="M 527.3 18.2 L 506.1 18.2 L 474.2 50 L 463.6 39.4 L 474.2 28.8 L 463.6 18.2 L 474.2 7.6 L 484.9 18.2 L 495.5 7.6 L 463.6 -24.3 L 463.6 -45.5 L 527.3 18.2" fill="#f7b32b" stroke="black" stroke-width="2"></path><path d="M 527.3 18.2 L 527.3 -3.1 L 495.5 -34.9 L 506.1 -45.5 L 516.7 -34.9 L 527.3 -45.5 L 537.9 -34.9 L 527.3 -24.3 L 537.9 -13.7 L 569.7 -45.5 L 590.9 -45.5 L 527.3 18.2" fill="#f7b32b" stroke="black" stroke-width="2"></path><path d="M 654.6 18.2 L 675.8 18.2 L 707.6 -13.7 L 718.2 -3.1 L 707.6 7.6 L 718.2 18.2 L 707.6 28.8 L 697 18.2 L 686.4 28.8 L 718.2 60.6 L 718.2 81.8 L 654.6 18.2" fill="#a9e5bb" stroke="black" stroke-width="2"></path><path d="M 654.6 18.2 L 654.6 39.4 L 686.4 71.2 L 675.8 81.8 L 665.2 71.2 L 654.6 81.8 L 644 71.2 L 654.6 60.6 L 644 50 L 612.1 81.8 L 590.9 81.8 L 654.6 18.2" fill="#a9e5bb" stroke="black" stroke-width="2"></path><path d="M 654.6 18.2 L 633.3 18.2 L 601.5 50 L 590.9 39.4 L 601.5 28.8 L 590.9 18.2 L 601.5 7.6 L 612.1 18.2 L 622.7 7.6 L 590.9 -24.3 L 590.9 -45.5 L 654.6 18.2" fill="#a9e5bb" stroke="black" stroke-width="2"></path><path d="M 654.6 18.2 L 654.6 -3.1 L 622.7 -34.9 L 633.3 -45.5 L 644 -34.9 L 654.6 -45.5 L 665.2 -34.9 L 654.6 -24.3 L 665.2 -13.7 L 697 -45.5 L 718.2 -45.5 L 654.6 18.2" fill="#a9e5bb" stroke="black" stroke-width="2"></path><path d="M 781.8 18.2 L 803.1 18.2 L 834.9 -13.7 L 845.5 -3.1 L 834.9 7.6 L 845.5 18.2 L 834.9 28.8 L 824.3 18.2 L 813.7 28.8 L 845.5 60.6 L 845.5 81.8 L 781.8 18.2" fill="#f7b32b" stroke="black" stroke-width="2"></path><path d="M 781.8 18.2 L 781.8 39.4 L 813.7 71.2 L 803.1 81.8 L 792.4 71.2 L 781.8 81.8 L 771.2 71.2 L 781.8 60.6 L 771.2 50 L 739.4 81.8 L 718.2 81.8 L 781.8 18.2" fill="#f7b32b" stroke="black" stroke-width="2"></path><path d="M 781.8 18.2 L 760.6 18.2 L 728.8 50 L 718.2 39.4 L 728.8 28.8 L 718.2 18.2 L 728.8 7.6 L 739.4 18.2 L 750 7.6 L 718.2 -24.3 L 718.2 -45.5 L 781.8 18.2" fill="#f7b32b" stroke="black" stroke-width="2"></path><path d="M 781.8 18.2 L 781.8 -3.1 L 750 -34.9 L 760.6 -45.5 L 771.2 -34.9 L 781.8 -45.5 L 792.4 -34.9 L 781.8 -24.3 L 792.4 -13.7 L 824.3 -45.5 L 845.5 -45.5 L 781.8 18.2" fill="#f7b32b" stroke="black" stroke-width="2"></path><path d="M 909.1 18.2 L 930.3 18.2 L 962.1 -13.7 L 972.8 -3.1 L 962.1 7.6 L 972.8 18.2 L 962.1 28.8 L 951.5 18.2 L 940.9 28.8 L 972.8 60.6 L 972.8 81.8 L 909.1 18.2" fill="#a9e5bb" stroke="black" stroke-width="2"></path><path d="M 909.1 18.2 L 909.1 39.4 L 940.9 71.2 L 930.3 81.8 L 919.7 71.2 L 909.1 81.8 L 898.5 71.2 L 909.1 60.6 L 898.5 50 L 866.7 81.8 L 845.5 81.8 L 909.1 18.2" fill="#a9e5bb" stroke="black" stroke-width="2"></path><path d="M 909.1 18.2 L 887.9 18.2 L 856.1 50 L 845.5 39.4 L 856.1 28.8 L 845.5 18.2 L 856.1 7.6 L 866.7 18.2 L 877.3 7.6 L 845.5 -24.3 L 845.5 -45.5 L 909.1 18.2" fill="#a9e5bb" stroke="black" stroke-width="2"></path><path d="M 909.1 18.2 L 909.1 -3.1 L 877.3 -34.9 L 887.9 -45.5 L 898.5 -34.9 L 909.1 -45.5 L 919.7 -34.9 L 909.1 -24.3 L 919.7 -13.7 L 951.5 -45.5 L 972.8 -45.5 L 909.1 18.2" fill="#a9e5bb" stroke="black" stroke-width="2"></path><path d="M -109.1 145.4 L -87.9 145.4 L -56.1 113.6 L -45.5 124.2 L -56.1 134.8 L -45.5 145.4 L -56.1 156 L -66.7 145.4 L -77.3 156 L -45.5 187.9 L -45.5 209.1 L -109.1 145.4" fill="#fcf6b1" stroke="black" stroke-width="2"></path><path d="M -109.1 145.4 L -109.1 166.7 L -77.3 198.5 L -87.9 209.1 L -98.5 198.5 L -109.1 209.1 L -119.7 198.5 L -109.1 187.9 L -119.7 177.3 L -151.5 209.1 L -172.8 209.1 L -109.1 145.4" fill="#fcf6b1" stroke="black" stroke-width="2"></path><path d="M -109.1 145.4 L -130.3 145.4 L -162.1 177.3 L -172.8 166.7 L -162.1 156 L -172.8 145.4 L -162.1 134.8 L -151.5 145.4 L -140.9 134.8 L -172.8 103 L -172.8 81.8 L -109.1 145.4" fill="#fcf6b1" stroke="black" stroke-width="2"></path><path d="M -109.1 145.4 L -109.1 124.2 L -140.9 92.4 L -130.3 81.8 L -119.7 92.4 L -109.1 81.8 L -98.5 92.4 L -109.1 103 L -98.5 113.6 L -66.7 81.8 L -45.5 81.8 L -109.1 145.4" fill="#fcf6b1" stroke="black" stroke-width="2"></path><path d="M 18.2 145.4 L 39.4 145.4 L 71.2 113.6 L 81.8 124.2 L 71.2 134.8 L 81.8 145.4 L 71.2 156 L 60.6 145.4 L 50 156 L 81.8 187.9 L 81.8 209.1 L 18.2 145.4" fill="#e3170a" stroke="black" stroke-width="2"></path><path d="M 18.2 145.4 L 18.2 166.7 L 50 198.5 L 39.4 209.1 L 28.8 198.5 L 18.2 209.1 L 7.6 198.5 L 18.2 187.9 L 7.6 177.3 L -24.3 209.1 L -45.5 209.1 L 18.2 145.4" fill="#e3170a" stroke="black" stroke-width="2"></path><path d="M 18.2 145.4 L -3.1 145.4 L -34.9 177.3 L -45.5 166.7 L -34.9 156 L -45.5 145.4 L -34.9 134.8 L -24.3 145.4 L -13.7 134.8 L -45.5 103 L -45.5 81.8 L 18.2 145.4" fill="#e3170a" stroke="black" stroke-width="2"></path><path d="M 18.2 145.4 L 18.2 124.2 L -13.7 92.4 L -3.1 81.8 L 7.6 92.4 L 18.2 81.8 L 28.8 92.4 L 18.2 103 L 28.8 113.6 L 60.6 81.8 L 81.8 81.8 L 18.2 145.4" fill="#e3170a" stroke="black" stroke-width="2"></path><path d="M 145.4 145.4 L 166.7 145.4 L 198.5 113.6 L 209.1 124.2 L 198.5 134.8 L 209.1 145.4 L 198.5 156 L 187.9 145.4 L 177.3 156 L 209.1 187.9 L 209.1 209.1 L 145.4 145.4" fill="#fcf6b1" stroke="black" stroke-width="2"></path><path d="M 145.4 145.4 L 145.4 166.7 L 177.3 198.5 L 166.7 209.1 L 156 198.5 L 145.4 209.1 L 134.8 198.5 L 145.4 187.9 L 134.8 177.3 L 103 209.1 L 81.8 209.1 L 145.4 145.4" fill="#fcf6b1" stroke="black" stroke-width="2"></path><path d="M 145.4 145.4 L 124.2 145.4 L 92.4 177.3 L 81.8 166.7 L 92.4 156 L 81.8 145.4 L 92.4 134.8 L 103 145.4 L 113.6 134.8 L 81.8 103 L 81.8 81.8 L 145.4 145.4" fill="#fcf6b1" stroke="black" stroke-width="2"></path><path d="M 145.4 145.4 L 145.4 124.2 L 113.6 92.4 L 124.2 81.8 L 134.8 92.4 L 145.4 81.8 L 156 92.4 L 145.4 103 L 156 113.6 L 187.9 81.8 L 209.1 81.8 L 145.4 145.4" fill="#fcf6b1" stroke="black" stroke-width="2"></path><path d="M 272.7 145.4 L 293.9 145.4 L 325.8 113.6 L 336.4 124.2 L 325.8 134.8 L 336.4 145.4 L 325.8 156 L 315.1 145.4 L 304.5 156 L 336.4 187.9 L 336.4 209.1 L 272.7 145.4" fill="#e3170a" stroke="black" stroke-width="2"></path><path d="M 272.7 145.4 L 272.7 166.7 L 304.5 198.5 L 293.9 209.1 L 283.3 198.5 L 272.7 209.1 L 262.1 198.5 L 272.7 187.9 L 262.1 177.3 L 230.3 209.1 L 209.1 209.1 L 272.7 145.4" fill="#e3170a" stroke="black" stroke-width="2"></path><path d="M 272.7 145.4 L 251.5 145.4 L 219.7 177.3 L 209.1 166.7 L 219.7 156 L 209.1 145.4 L 219.7 134.8 L 230.3 145.4 L 240.9 134.8 L 209.1 103 L 209.1 81.8 L 272.7 145.4" fill="#e3170a" stroke="black" stroke-width="2"></path><path d="M 272.7 145.4 L 272.7 124.2 L 240.9 92.4 L 251.5 81.8 L 262.1 92.4 L 272.7 81.8 L 283.3 92.4 L 272.7 103 L 283.3 113.6 L 315.1 81.8 L 336.4 81.8 L 272.7 145.4" fill="#e3170a" stroke="black" stroke-width="2"></path><path d="M 400 145.4 L 421.2 145.4 L 453 113.6 L 463.6 124.2 L 453 134.8 L 463.6 145.4 L 453 156 L 442.4 145.4 L 431.8 156 L 463.6 187.9 L 463.6 209.1 L 400 145.4" fill="#fcf6b1" stroke="black" stroke-width="2"></path><path d="M 400 145.4 L 400 166.7 L 431.8 198.5 L 421.2 209.1 L 410.6 198.5 L 400 209.1 L 389.4 198.5 L 400 187.9 L 389.4 177.3 L 357.6 209.1 L 336.4 209.1 L 400 145.4" fill="#fcf6b1" stroke="black" stroke-width="2"></path><path d="M 400 145.4 L 378.8 145.4 L 347 177.3 L 336.4 166.7 L 347 156 L 336.4 145.4 L 347 134.8 L 357.6 145.4 L 368.2 134.8 L 336.4 103 L 336.4 81.8 L 400 145.4" fill="#fcf6b1" stroke="black" stroke-width="2"></path><path d="M 400 145.4 L 400 124.2 L 368.2 92.4 L 378.8 81.8 L 389.4 92.4 L 400 81.8 L 410.6 92.4 L 400 103 L 410.6 113.6 L 442.4 81.8 L 463.6 81.8 L 400 145.4" fill="#fcf6b1" stroke="black" stroke-width="2"></path><path d="M 527.3 145.4 L 548.5 145.4 L 580.3 113.6 L 590.9 124.2 L 580.3 134.8 L 590.9 145.4 L 580.3 156 L 569.7 145.4 L 559.1 156 L 590.9 187.9 L 590.9 209.1 L 527.3 145.4" fill="#e3170a" stroke="black" stroke-width="2"></path><path d="M 527.3 145.4 L 527.3 166.7 L 559.1 198.5 L 548.5 209.1 L 537.9 198.5 L 527.3 209.1 L 516.7 198.5 L 527.3 187.9 L 516.7 177.3 L 484.9 209.1 L 463.6 209.1 L 527.3 145.4" fill="#e3170a" stroke="black" stroke-width="2"></path><path d="M 527.3 145.4 L 506.1 145.4 L 474.2 177.3 L 463.6 166.7 L 474.2 156 L 463.6 145.4 L 474.2 134.8 L 484.9 145.4 L 495.5 134.8 L 463.6 103 L 463.6 81.8 L 527.3 145.4" fill="#e3170a" stroke="black" stroke-width="2"></path><path d="M 527.3 145.4 L 527.3 124.2 L 495.5 92.4 L 506.1 81.8 L 516.7 92.4 L 527.3 81.8 L 537.9 92.4 L 527.3 103 L 537.9 113.6 L 569.7 81.8 L 590.9 81.8 L 527.3 145.4" fill="#e3170a" stroke="black" stroke-width="2"></path><path d="M 654.6 145.4 L 675.8 145.4 L 707.6 113.6 L 718.2 124.2 L 707.6 134.8 L 718.2 145.4 L 707.6 156 L 697 145.4 L 686.4 156 L 718.2 187.9 L 718.2 209.1 L 654.6 145.4" fill="#fcf6b1" stroke="black" stroke-width="2"></path><path d="M 654.6 145.4 L 654.6 166.7 L 686.4 198.5 L 675.8 209.1 L 665.2 198.5 L 654.6 209.1 L 644 198.5 L 654.6 187.9 L 644 177.3 L 612.1 209.1 L 590.9 209.1 L 654.6 145.4" fill="#fcf6b1" stroke="black" stroke-width="2"></path><path d="M 654.6 145.4 L 633.3 145.4 L 601.5 177.3 L 590.9 166.7 L 601.5 156 L 590.9 145.4 L 601.5 134.8 L 612.1 145.4 L 622.7 134.8 L 590.9 103 L 590.9 81.8 L 654.6 145.4" fill="#fcf6b1" stroke="black" stroke-width="2"></path><path d="M 654.6 145.4 L 654.6 124.2 L 622.7 92.4 L 633.3 81.8 L 644 92.4 L 654.6 81.8 L 665.2 92.4 L 654.6 103 L 665.2 113.6 L 697 81.8 L 718.2 81.8 L 654.6 145.4" fill="#fcf6b1" stroke="black" stroke-width="2"></path><path d="M 781.8 145.4 L 803.1 145.4 L 834.9 113.6 L 845.5 124.2 L 834.9 134.8 L 845.5 145.4 L 834.9 156 L 824.3 145.4 L 813.7 156 L 845.5 187.9 L 845.5 209.1 L 781.8 145.4" fill="#e3170a" stroke="black" stroke-width="2"></path><path d="M 781.8 145.4 L 781.8 166.7 L 813.7 198.5 L 803.1 209.1 L 792.4 198.5 L 781.8 209.1 L 771.2 198.5 L 781.8 187.9 L 771.2 177.3 L 739.4 209.1 L 718.2 209.1 L 781.8 145.4" fill="#e3170a" stroke="black" stroke-width="2"></path><path d="M 781.8 145.4 L 760.6 145.4 L 728.8 177.3 L 718.2 166.7 L 728.8 156 L 718.2 145.4 L 728.8 134.8 L 739.4 145.4 L 750 134.8 L 718.2 103 L 718.2 81.8 L 781.8 145.4" fill="#e3170a" stroke="black" stroke-width="2"></path><path d="M 781.8 145.4 L 781.8 124.2 L 750 92.4 L 760.6 81.8 L 771.2 92.4 L 781.8 81.8 L 792.4 92.4 L 781.8 103 L 792.4 113.6 L 824.3 81.8 L 845.5 81.8 L 781.8 145.4" fill="#e3170a" stroke="black" stroke-width="2"></path><path d="M 909.1 145.4 L 930.3 145.4 L 962.1 113.6 L 972.8 124.2 L 962.1 134.8 L 972.8 145.4 L 962.1 156 L 951.5 145.4 L 940.9 156 L 972.8 187.9 L 972.8 209.1 L 909.1 145.4" fill="#fcf6b1" stroke="black" stroke-width="2"></path><path d="M 909.1 145.4 L 909.1 166.7 L 940.9 198.5 L 930.3 209.1 L 919.7 198.5 L 909.1 209.1 L 898.5 198.5 L 909.1 187.9 L 898.5 177.3 L 866.7 209.1 L 845.5 209.1 L 909.1 145.4" fill="#fcf6b1" stroke="black" stroke-width="2"></path><path d="M 909.1 145.4 L 887.9 145.4 L 856.1 177.3 L 845.5 166.7 L 856.1 156 L 845.5 145.4 L 856.1 134.8 L 866.7 145.4 L 877.3 134.8 L 845.5 103 L 845.5 81.8 L 909.1 145.4" fill="#fcf6b1" stroke="black" stroke-width="2"></path><path d="M 909.1 145.4 L 909.1 124.2 L 877.3 92.4 L 887.9 81.8 L 898.5 92.4 L 909.1 81.8 L 919.7 92.4 L 909.1 103 L 919.7 113.6 L 951.5 81.8 L 972.8 81.8 L 909.1 145.4" fill="#fcf6b1" stroke="black" stroke-width="2"></path><path d="M -109.1 272.7 L -87.9 272.7 L -56.1 240.9 L -45.5 251.5 L -56.1 262.1 L -45.5 272.7 L -56.1 283.3 L -66.7 272.7 L -77.3 283.3 L -45.5 315.1 L -45.5 336.4 L -109.1 272.7" fill="#f7b32b" stroke="black" stroke-width="2"></path><path d="M -109.1 272.7 L -109.1 293.9 L -77.3 325.8 L -87.9 336.4 L -98.5 325.8 L -109.1 336.4 L -119.7 325.8 L -109.1 315.1 L -119.7 304.5 L -151.5 336.4 L -172.8 336.4 L -109.1 272.7" fill="#f7b32b" stroke="black" stroke-width="2"></path><path d="M -109.1 272.7 L -130.3 272.7 L -162.1 304.5 L -172.8 293.9 L -162.1 283.3 L -172.8 272.7 L -162.1 262.1 L -151.5 272.7 L -140.9 262.1 L -172.8 230.3 L -172.8 209.1 L -109.1 272.7" fill="#f7b32b" stroke="black" stroke-width="2"></path><path d="M -109.1 272.7 L -109.1 251.5 L -140.9 219.7 L -130.3 209.1 L -119.7 219.7 L -109.1 209.1 L -98.5 219.7 L -109.1 230.3 L -98.5 240.9 L -66.7 209.1 L -45.5 209.1 L -109.1 272.7" fill="#f7b32b" stroke="black" stroke-width="2"></path><path d="M 18.2 272.7 L 39.4 272.7 L 71.2 240.9 L 81.8 251.5 L 71.2 262.1 L 81.8 272.7 L 71.2 283.3 L 60.6 272.7 L 50 283.3 L 81.8 315.1 L 81.8 336.4 L 18.2 272.7" fill="#a9e5bb" stroke="black" stroke-width="2"></path><path d="M 18.2 272.7 L 18.2 293.9 L 50 325.8 L 39.4 336.4 L 28.8 325.8 L 18.2 336.4 L 7.6 325.8 L 18.2 315.1 L 7.6 304.5 L -24.3 336.4 L -45.5 336.4 L 18.2 272.7" fill="#a9e5bb" stroke="black" stroke-width="2"></path><path d="M 18.2 272.7 L -3.1 272.7 L -34.9 304.5 L -45.5 293.9 L -34.9 283.3 L -45.5 272.7 L -34.9 262.1 L -24.3 272.7 L -13.7 262.1 L -45.5 230.3 L -45.5 209.1 L 18.2 272.7" fill="#a9e5bb" stroke="black" stroke-width="2"></path><path d="M 18.2 272.7 L 18.2 251.5 L -13.7 219.7 L -3.1 209.1 L 7.6 219.7 L 18.2 209.1 L 28.8 219.7 L 18.2 230.3 L 28.8 240.9 L 60.6 209.1 L 81.8 209.1 L 18.2 272.7" fill="#a9e5bb" stroke="black" stroke-width="2"></path><path d="M 145.4 272.7 L 166.7 272.7 L 198.5 240.9 L 209.1 251.5 L 198.5 262.1 L 209.1 272.7 L 198.5 283.3 L 187.9 272.7 L 177.3 283.3 L 209.1 315.1 L 209.1 336.4 L 145.4 272.7" fill="#f7b32b" stroke="black" stroke-width="2"></path><path d="M 145.4 272.7 L 145.4 293.9 L 177.3 325.8 L 166.7 336.4 L 156 325.8 L 145.4 336.4 L 134.8 325.8 L 145.4 315.1 L 134.8 304.5 L 103 336.4 L 81.8 336.4 L 145.4 272.7" fill="#f7b32b" stroke="black" stroke-width="2"></path><path d="M 145.4 272.7 L 124.2 272.7 L 92.4 304.5 L 81.8 293.9 L 92.4 283.3 L 81.8 272.7 L 92.4 262.1 L 103 272.7 L 113.6 262.1 L 81.8 230.3 L 81.8 209.1 L 145.4 272.7" fill="#f7b32b" stroke="black" stroke-width="2"></path><path d="M 145.4 272.7 L 145.4 251.5 L 113.6 219.7 L 124.2 209.1 L 134.8 219.7 L 145.4 209.1 L 156 219.7 L 145.4 230.3 L 156 240.9 L 187.9 209.1 L 209.1 209.1 L 145.4 272.7" fill="#f7b32b" stroke="black" stroke-width="2"></path><path d="M 272.7 272.7 L 293.9 272.7 L 325.8 240.9 L 336.4 251.5 L 325.8 262.1 L 336.4 272.7 L 325.8 283.3 L 315.1 272.7 L 304.5 283.3 L 336.4 315.1 L 336.4 336.4 L 272.7 272.7" fill="#a9e5bb" stroke="black" stroke-width="2"></path><path d="M 272.7 272.7 L 272.7 293.9 L 304.5 325.8 L 293.9 336.4 L 283.3 325.8 L 272.7 336.4 L 262.1 325.8 L 272.7 315.1 L 262.1 304.5 L 230.3 336.4 L 209.1 336.4 L 272.7 272.7" fill="#a9e5bb" stroke="black" stroke-width="2"></path><path d="M 272.7 272.7 L 251.5 272.7 L 219.7 304.5 L 209.1 293.9 L 219.7 283.3 L 209.1 272.7 L 219.7 262.1 L 230.3 272.7 L 240.9 262.1 L 209.1 230.3 L 209.1 209.1 L 272.7 272.7" fill="#a9e5bb" stroke="black" stroke-width="2"></path><path d="M 272.7 272.7 L 272.7 251.5 L 240.9 219.7 L 251.5 209.1 L 262.1 219.7 L 272.7 209.1 L 283.3 219.7 L 272.7 230.3 L 283.3 240.9 L 315.1 209.1 L 336.4 209.1 L 272.7 272.7" fill="#a9e5bb" stroke="black" stroke-width="2"></path><path d="M 400 272.7 L 421.2 272.7 L 453 240.9 L 463.6 251.5 L 453 262.1 L 463.6 272.7 L 453 283.3 L 442.4 272.7 L 431.8 283.3 L 463.6 315.1 L 463.6 336.4 L 400 272.7" fill="#f7b32b" stroke="black" stroke-width="2"></path><path d="M 400 272.7 L 400 293.9 L 431.8 325.8 L 421.2 336.4 L 410.6 325.8 L 400 336.4 L 389.4 325.8 L 400 315.1 L 389.4 304.5 L 357.6 336.4 L 336.4 336.4 L 400 272.7" fill="#f7b32b" stroke="black" stroke-width="2"></path><path d="M 400 272.7 L 378.8 272.7 L 347 304.5 L 336.4 293.9 L 347 283.3 L 336.4 272.7 L 347 262.1 L 357.6 272.7 L 368.2 262.1 L 336.4 230.3 L 336.4 209.1 L 400 272.7" fill="#f7b32b" stroke="black" stroke-width="2"></path><path d="M 400 272.7 L 400 251.5 L 368.2 219.7 L 378.8 209.1 L 389.4 219.7 L 400 209.1 L 410.6 219.7 L 400 230.3 L 410.6 240.9 L 442.4 209.1 L 463.6 209.1 L 400 272.7" fill="#f7b32b" stroke="black" stroke-width="2"></path><path d="M 527.3 272.7 L 548.5 272.7 L 580.3 240.9 L 590.9 251.5 L 580.3 262.1 L 590.9 272.7 L 580.3 283.3 L 569.7 272.7 L 559.1 283.3 L 590.9 315.1 L 590.9 336.4 L 527.3 272.7" fill="#a9e5bb" stroke="black" stroke-width="2"></path><path d="M 527.3 272.7 L 527.3 293.9 L 559.1 325.8 L 548.5 336.4 L 537.9 325.8 L 527.3 336.4 L 516.7 325.8 L 527.3 315.1 L 516.7 304.5 L 484.9 336.4 L 463.6 336.4 L 527.3 272.7" fill="#a9e5bb" stroke="black" stroke-width="2"></path><path d="M 527.3 272.7 L 506.1 272.7 L 474.2 304.5 L 463.6 293.9 L 474.2 283.3 L 463.6 272.7 L 474.2 262.1 L 484.9 272.7 L 495.5 262.1 L 463.6 230.3 L 463.6 209.1 L 527.3 272.7" fill="#a9e5bb" stroke="black" stroke-width="2"></path><path d="M 527.3 272.7 L 527.3 251.5 L 495.5 219.7 L 506.1 209.1 L 516.7 219.7 L 527.3 209.1 L 537.9 219.7 L 527.3 230.3 L 537.9 240.9 L 569.7 209.1 L 590.9 209.1 L 527.3 272.7" fill="#a9e5bb" stroke="black" stroke-width="2"></path><path d="M 654.6 272.7 L 675.8 272.7 L 707.6 240.9 L 718.2 251.5 L 707.6 262.1 L 718.2 272.7 L 707.6 283.3 L 697 272.7 L 686.4 283.3 L 718.2 315.1 L 718.2 336.4 L 654.6 272.7" fill="#f7b32b" stroke="black" stroke-width="2"></path><path d="M 654.6 272.7 L 654.6 293.9 L 686.4 325.8 L 675.8 336.4 L 665.2 325.8 L 654.6 336.4 L 644 325.8 L 654.6 315.1 L 644 304.5 L 612.1 336.4 L 590.9 336.4 L 654.6 272.7" fill="#f7b32b" stroke="black" stroke-width="2"></path><path d="M 654.6 272.7 L 633.3 272.7 L 601.5 304.5 L 590.9 293.9 L 601.5 283.3 L 590.9 272.7 L 601.5 262.1 L 612.1 272.7 L 622.7 262.1 L 590.9 230.3 L 590.9 209.1 L 654.6 272.7" fill="#f7b32b" stroke="black" stroke-width="2"></path><path d="M 654.6 272.7 L 654.6 251.5 L 622.7 219.7 L 633.3 209.1 L 644 219.7 L 654.6 209.1 L 665.2 219.7 L 654.6 230.3 L 665.2 240.9 L 697 209.1 L 718.2 209.1 L 654.6 272.7" fill="#f7b32b" stroke="black" stroke-width="2"></path><path d="M 781.8 272.7 L 803.1 272.7 L 834.9 240.9 L 845.5 251.5 L 834.9 262.1 L 845.5 272.7 L 834.9 283.3 L 824.3 272.7 L 813.7 283.3 L 845.5 315.1 L 845.5 336.4 L 781.8 272.7" fill="#a9e5bb" stroke="black" stroke-width="2"></path><path d="M 781.8 272.7 L 781.8 293.9 L 813.7 325.8 L 803.1 336.4 L 792.4 325.8 L 781.8 336.4 L 771.2 325.8 L 781.8 315.1 L 771.2 304.5 L 739.4 336.4 L 718.2 336.4 L 781.8 272.7" fill="#a9e5bb" stroke="black" stroke-width="2"></path><path d="M 781.8 272.7 L 760.6 272.7 L 728.8 304.5 L 718.2 293.9 L 728.8 283.3 L 718.2 272.7 L 728.8 262.1 L 739.4 272.7 L 750 262.1 L 718.2 230.3 L 718.2 209.1 L 781.8 272.7" fill="#a9e5bb" stroke="black" stroke-width="2"></path><path d="M 781.8 272.7 L 781.8 251.5 L 750 219.7 L 760.6 209.1 L 771.2 219.7 L 781.8 209.1 L 792.4 219.7 L 781.8 230.3 L 792.4 240.9 L 824.3 209.1 L 845.5 209.1 L 781.8 272.7" fill="#a9e5bb" stroke="black" stroke-width="2"></path><path d="M 909.1 272.7 L 930.3 272.7 L 962.1 240.9 L 972.8 251.5 L 962.1 262.1 L 972.8 272.7 L 962.1 283.3 L 951.5 272.7 L 940.9 283.3 L 972.8 315.1 L 972.8 336.4 L 909.1 272.7" fill="#f7b32b" stroke="black" stroke-width="2"></path><path d="M 909.1 272.7 L 909.1 293.9 L 940.9 325.8 L 930.3 336.4 L 919.7 325.8 L 909.1 336.4 L 898.5 325.8 L 909.1 315.1 L 898.5 304.5 L 866.7 336.4 L 845.5 336.4 L 909.1 272.7" fill="#f7b32b" stroke="black" stroke-width="2"></path><path d="M 909.1 272.7 L 887.9 272.7 L 856.1 304.5 L 845.5 293.9 L 856.1 283.3 L 845.5 272.7 L 856.1 262.1 L 866.7 272.7 L 877.3 262.1 L 845.5 230.3 L 845.5 209.1 L 909.1 272.7" fill="#f7b32b" stroke="black" stroke-width="2"></path><path d="M 909.1 272.7 L 909.1 251.5 L 877.3 219.7 L 887.9 209.1 L 898.5 219.7 L 909.1 209.1 L 919.7 219.7 L 909.1 230.3 L 919.7 240.9 L 951.5 209.1 L 972.8 209.1 L 909.1 272.7" fill="#f7b32b" stroke="black" stroke-width="2"></path><path d="M -109.1 400 L -87.9 400 L -56.1 368.2 L -45.5 378.8 L -56.1 389.4 L -45.5 400 L -56.1 410.6 L -66.7 400 L -77.3 410.6 L -45.5 442.4 L -45.5 463.6 L -109.1 400" fill="#e3170a" stroke="black" stroke-width="2"></path><path d="M -109.1 400 L -109.1 421.2 L -77.3 453 L -87.9 463.6 L -98.5 453 L -109.1 463.6 L -119.7 453 L -109.1 442.4 L -119.7 431.8 L -151.5 463.6 L -172.8 463.6 L -109.1 400" fill="#e3170a" stroke="black" stroke-width="2"></path><path d="M -109.1 400 L -130.3 400 L -162.1 431.8 L -172.8 421.2 L -162.1 410.6 L -172.8 400 L -162.1 389.4 L -151.5 400 L -140.9 389.4 L -172.8 357.6 L -172.8 336.4 L -109.1 400" fill="#e3170a" stroke="black" stroke-width="2"></path><path d="M -109.1 400 L -109.1 378.8 L -140.9 347 L -130.3 336.4 L -119.7 347 L -109.1 336.4 L -98.5 347 L -109.1 357.6 L -98.5 368.2 L -66.7 336.4 L -45.5 336.4 L -109.1 400" fill="#e3170a" stroke="black" stroke-width="2"></path><path d="M 18.2 400 L 39.4 400 L 71.2 368.2 L 81.8 378.8 L 71.2 389.4 L 81.8 400 L 71.2 410.6 L 60.6 400 L 50 410.6 L 81.8 442.4 L 81.8 463.6 L 18.2 400" fill="#fcf6b1" stroke="black" stroke-width="2"></path><path d="M 18.2 400 L 18.2 421.2 L 50 453 L 39.4 463.6 L 28.8 453 L 18.2 463.6 L 7.6 453 L 18.2 442.4 L 7.6 431.8 L -24.3 463.6 L -45.5 463.6 L 18.2 400" fill="#fcf6b1" stroke="black" stroke-width="2"></path><path d="M 18.2 400 L -3.1 400 L -34.9 431.8 L -45.5 421.2 L -34.9 410.6 L -45.5 400 L -34.9 389.4 L -24.3 400 L -13.7 389.4 L -45.5 357.6 L -45.5 336.4 L 18.2 400" fill="#fcf6b1" stroke="black" stroke-width="2"></path><path d="M 18.2 400 L 18.2 378.8 L -13.7 347 L -3.1 336.4 L 7.6 347 L 18.2 336.4 L 28.8 347 L 18.2 357.6 L 28.8 368.2 L 60.6 336.4 L 81.8 336.4 L 18.2 400" fill="#fcf6b1" stroke="black" stroke-width="2"></path><path d="M 145.4 400 L 166.7 400 L 198.5 368.2 L 209.1 378.8 L 198.5 389.4 L 209.1 400 L 198.5 410.6 L 187.9 400 L 177.3 410.6 L 209.1 442.4 L 209.1 463.6 L 145.4 400" fill="#e3170a" stroke="black" stroke-width="2"></path><path d="M 145.4 400 L 145.4 421.2 L 177.3 453 L 166.7 463.6 L 156 453 L 145.4 463.6 L 134.8 453 L 145.4 442.4 L 134.8 431.8 L 103 463.6 L 81.8 463.6 L 145.4 400" fill="#e3170a" stroke="black" stroke-width="2"></path><path d="M 145.4 400 L 124.2 400 L 92.4 431.8 L 81.8 421.2 L 92.4 410.6 L 81.8 400 L 92.4 389.4 L 103 400 L 113.6 389.4 L 81.8 357.6 L 81.8 336.4 L 145.4 400" fill="#e3170a" stroke="black" stroke-width="2"></path><path d="M 145.4 400 L 145.4 378.8 L 113.6 347 L 124.2 336.4 L 134.8 347 L 145.4 336.4 L 156 347 L 145.4 357.6 L 156 368.2 L 187.9 336.4 L 209.1 336.4 L 145.4 400" fill="#e3170a" stroke="black" stroke-width="2"></path><path d="M 272.7 400 L 293.9 400 L 325.8 368.2 L 336.4 378.8 L 325.8 389.4 L 336.4 400 L 325.8 410.6 L 315.1 400 L 304.5 410.6 L 336.4 442.4 L 336.4 463.6 L 272.7 400" fill="#fcf6b1" stroke="black" stroke-width="2"></path><path d="M 272.7 400 L 272.7 421.2 L 304.5 453 L 293.9 463.6 L 283.3 453 L 272.7 463.6 L 262.1 453 L 272.7 442.4 L 262.1 431.8 L 230.3 463.6 L 209.1 463.6 L 272.7 400" fill="#fcf6b1" stroke="black" stroke-width="2"></path><path d="M 272.7 400 L 251.5 400 L 219.7 431.8 L 209.1 421.2 L 219.7 410.6 L 209.1 400 L 219.7 389.4 L 230.3 400 L 240.9 389.4 L 209.1 357.6 L 209.1 336.4 L 272.7 400" fill="#fcf6b1" stroke="black" stroke-width="2"></path><path d="M 272.7 400 L 272.7 378.8 L 240.9 347 L 251.5 336.4 L 262.1 347 L 272.7 336.4 L 283.3 347 L 272.7 357.6 L 283.3 368.2 L 315.1 336.4 L 336.4 336.4 L 272.7 400" fill="#fcf6b1" stroke="black" stroke-width="2"></path><path d="M 400 400 L 421.2 400 L 453 368.2 L 463.6 378.8 L 453 389.4 L 463.6 400 L 453 410.6 L 442.4 400 L 431.8 410.6 L 463.6 442.4 L 463.6 463.6 L 400 400" fill="#e3170a" stroke="black" stroke-width="2"></path><path d="M 400 400 L 400 421.2 L 431.8 453 L 421.2 463.6 L 410.6 453 L 400 463.6 L 389.4 453 L 400 442.4 L 389.4 431.8 L 357.6 463.6 L 336.4 463.6 L 400 400" fill="#e3170a" stroke="black" stroke-width="2"></path><path d="M 400 400 L 378.8 400 L 347 431.8 L 336.4 421.2 L 347 410.6 L 336.4 400 L 347 389.4 L 357.6 400 L 368.2 389.4 L 336.4 357.6 L 336.4 336.4 L 400 400" fill="#e3170a" stroke="black" stroke-width="2"></path><path d="M 400 400 L 400 378.8 L 368.2 347 L 378.8 336.4 L 389.4 347 L 400 336.4 L 410.6 347 L 400 357.6 L 410.6 368.2 L 442.4 336.4 L 463.6 336.4 L 400 400" fill="#e3170a" stroke="black" stroke-width="2"></path><path d="M 527.3 400 L 548.5 400 L 580.3 368.2 L 590.9 378.8 L 580.3 389.4 L 590.9 400 L 580.3 410.6 L 569.7 400 L 559.1 410.6 L 590.9 442.4 L 590.9 463.6 L 527.3 400" fill="#fcf6b1" stroke="black" stroke-width="2"></path><path d="M 527.3 400 L 527.3 421.2 L 559.1 453 L 548.5 463.6 L 537.9 453 L 527.3 463.6 L 516.7 453 L 527.3 442.4 L 516.7 431.8 L 484.9 463.6 L 463.6 463.6 L 527.3 400" fill="#fcf6b1" stroke="black" stroke-width="2"></path><path d="M 527.3 400 L 506.1 400 L 474.2 431.8 L 463.6 421.2 L 474.2 410.6 L 463.6 400 L 474.2 389.4 L 484.9 400 L 495.5 389.4 L 463.6 357.6 L 463.6 336.4 L 527.3 400" fill="#fcf6b1" stroke="black" stroke-width="2"></path><path d="M 527.3 400 L 527.3 378.8 L 495.5 347 L 506.1 336.4 L 516.7 347 L 527.3 336.4 L 537.9 347 L 527.3 357.6 L 537.9 368.2 L 569.7 336.4 L 590.9 336.4 L 527.3 400" fill="#fcf6b1" stroke="black" stroke-width="2"></path><path d="M 654.6 400 L 675.8 400 L 707.6 368.2 L 718.2 378.8 L 707.6 389.4 L 718.2 400 L 707.6 410.6 L 697 400 L 686.4 410.6 L 718.2 442.4 L 718.2 463.6 L 654.6 400" fill="#e3170a" stroke="black" stroke-width="2"></path><path d="M 654.6 400 L 654.6 421.2 L 686.4 453 L 675.8 463.6 L 665.2 453 L 654.6 463.6 L 644 453 L 654.6 442.4 L 644 431.8 L 612.1 463.6 L 590.9 463.6 L 654.6 400" fill="#e3170a" stroke="black" stroke-width="2"></path><path d="M 654.6 400 L 633.3 400 L 601.5 431.8 L 590.9 421.2 L 601.5 410.6 L 590.9 400 L 601.5 389.4 L 612.1 400 L 622.7 389.4 L 590.9 357.6 L 590.9 336.4 L 654.6 400" fill="#e3170a" stroke="black" stroke-width="2"></path><path d="M 654.6 400 L 654.6 378.8 L 622.7 347 L 633.3 336.4 L 644 347 L 654.6 336.4 L 665.2 347 L 654.6 357.6 L 665.2 368.2 L 697 336.4 L 718.2 336.4 L 654.6 400" fill="#e3170a" stroke="black" stroke-width="2"></path><path d="M 781.8 400 L 803.1 400 L 834.9 368.2 L 845.5 378.8 L 834.9 389.4 L 845.5 400 L 834.9 410.6 L 824.3 400 L 813.7 410.6 L 845.5 442.4 L 845.5 463.6 L 781.8 400" fill="#fcf6b1" stroke="black" stroke-width="2"></path><path d="M 781.8 400 L 781.8 421.2 L 813.7 453 L 803.1 463.6 L 792.4 453 L 781.8 463.6 L 771.2 453 L 781.8 442.4 L 771.2 431.8 L 739.4 463.6 L 718.2 463.6 L 781.8 400" fill="#fcf6b1" stroke="black" stroke-width="2"></path><path d="M 781.8 400 L 760.6 400 L 728.8 431.8 L 718.2 421.2 L 728.8 410.6 L 718.2 400 L 728.8 389.4 L 739.4 400 L 750 389.4 L 718.2 357.6 L 718.2 336.4 L 781.8 400" fill="#fcf6b1" stroke="black" stroke-width="2"></path><path d="M 781.8 400 L 781.8 378.8 L 750 347 L 760.6 336.4 L 771.2 347 L 781.8 336.4 L 792.4 347 L 781.8 357.6 L 792.4 368.2 L 824.3 336.4 L 845.5 336.4 L 781.8 400" fill="#fcf6b1" stroke="black" stroke-width="2"></path><path d="M 909.1 400 L 930.3 400 L 962.1 368.2 L 972.8 378.8 L 962.1 389.4 L 972.8 400 L 962.1 410.6 L 951.5 400 L 940.9 410.6 L 972.8 442.4 L 972.8 463.6 L 909.1 400" fill="#e3170a" stroke="black" stroke-width="2"></path><path d="M 909.1 400 L 909.1 421.2 L 940.9 453 L 930.3 463.6 L 919.7 453 L 909.1 463.6 L 898.5 453 L 909.1 442.4 L 898.5 431.8 L 866.7 463.6 L 845.5 463.6 L 909.1 400" fill="#e3170a" stroke="black" stroke-width="2"></path><path d="M 909.1 400 L 887.9 400 L 856.1 431.8 L 845.5 421.2 L 856.1 410.6 L 845.5 400 L 856.1 389.4 L 866.7 400 L 877.3 389.4 L 845.5 357.6 L 845.5 336.4 L 909.1 400" fill="#e3170a" stroke="black" stroke-width="2"></path><path d="M 909.1 400 L 909.1 378.8 L 877.3 347 L 887.9 336.4 L 898.5 347 L 909.1 336.4 L 919.7 347 L 909.1 357.6 L 919.7 368.2 L 951.5 336.4 L 972.8 336.4 L 909.1 400" fill="#e3170a" stroke="black" stroke-width="2"></path><path d="M -109.1 527.3 L -87.9 527.3 L -56.1 495.5 L -45.5 506.1 L -56.1 516.7 L -45.5 527.3 L -56.1 537.9 L -66.7 527.3 L -77.3 537.9 L -45.5 569.7 L -45.5 590.9 L -109.1 527.3" fill="#a9e5bb" stroke="black" stroke-width="2"></path><path d="M -109.1 527.3 L -109.1 548.5 L -77.3 580.3 L -87.9 590.9 L -98.5 580.3 L -109.1 590.9 L -119.7 580.3 L -109.1 569.7 L -119.7 559.1 L -151.5 590.9 L -172.8 590.9 L -109.1 527.3" fill="#a9e5bb" stroke="black" stroke-width="2"></path><path d="M -109.1 527.3 L -130.3 527.3 L -162.1 559.1 L -172.8 548.5 L -162.1 537.9 L -172.8 527.3 L -162.1 516.7 L -151.5 527.3 L -140.9 516.7 L -172.8 484.9 L -172.8 463.6 L -109.1 527.3" fill="#a9e5bb" stroke="black" stroke-width="2"></path><path d="M -109.1 527.3 L -109.1 506.1 L -140.9 474.2 L -130.3 463.6 L -119.7 474.2 L -109.1 463.6 L -98.5 474.2 L -109.1 484.9 L -98.5 495.5 L -66.7 463.6 L -45.5 463.6 L -109.1 527.3" fill="#a9e5bb" stroke="black" stroke-width="2"></path><path d="M 18.2 527.3 L 39.4 527.3 L 71.2 495.5 L 81.8 506.1 L 71.2 516.7 L 81.8 527.3 L 71.2 537.9 L 60.6 527.3 L 50 537.9 L 81.8 569.7 L 81.8 590.9 L 18.2 527.3" fill="#f7b32b" stroke="black" stroke-width="2"></path><path d="M 18.2 527.3 L 18.2 548.5 L 50 580.3 L 39.4 590.9 L 28.8 580.3 L 18.2 590.9 L 7.6 580.3 L 18.2 569.7 L 7.6 559.1 L -24.3 590.9 L -45.5 590.9 L 18.2 527.3" fill="#f7b32b" stroke="black" stroke-width="2"></path><path d="M 18.2 527.3 L -3.1 527.3 L -34.9 559.1 L -45.5 548.5 L -34.9 537.9 L -45.5 527.3 L -34.9 516.7 L -24.3 527.3 L -13.7 516.7 L -45.5 484.9 L -45.5 463.6 L 18.2 527.3" fill="#f7b32b" stroke="black" stroke-width="2"></path><path d="M 18.2 527.3 L 18.2 506.1 L -13.7 474.2 L -3.1 463.6 L 7.6 474.2 L 18.2 463.6 L 28.8 474.2 L 18.2 484.9 L 28.8 495.5 L 60.6 463.6 L 81.8 463.6 L 18.2 527.3" fill="#f7b32b" stroke="black" stroke-width="2"></path><path d="M 145.4 527.3 L 166.7 527.3 L 198.5 495.5 L 209.1 506.1 L 198.5 516.7 L 209.1 527.3 L 198.5 537.9 L 187.9 527.3 L 177.3 537.9 L 209.1 569.7 L 209.1 590.9 L 145.4 527.3" fill="#a9e5bb" stroke="black" stroke-width="2"></path><path d="M 145.4 527.3 L 145.4 548.5 L 177.3 580.3 L 166.7 590.9 L 156 580.3 L 145.4 590.9 L 134.8 580.3 L 145.4 569.7 L 134.8 559.1 L 103 590.9 L 81.8 590.9 L 145.4 527.3" fill="#a9e5bb" stroke="black" stroke-width="2"></path><path d="M 145.4 527.3 L 124.2 527.3 L 92.4 559.1 L 81.8 548.5 L 92.4 537.9 L 81.8 527.3 L 92.4 516.7 L 103 527.3 L 113.6 516.7 L 81.8 484.9 L 81.8 463.6 L 145.4 527.3" fill="#a9e5bb" stroke="black" stroke-width="2"></path><path d="M 145.4 527.3 L 145.4 506.1 L 113.6 474.2 L 124.2 463.6 L 134.8 474.2 L 145.4 463.6 L 156 474.2 L 145.4 484.9 L 156 495.5 L 187.9 463.6 L 209.1 463.6 L 145.4 527.3" fill="#a9e5bb" stroke="black" stroke-width="2"></path><path d="M 272.7 527.3 L 293.9 527.3 L 325.8 495.5 L 336.4 506.1 L 325.8 516.7 L 336.4 527.3 L 325.8 537.9 L 315.1 527.3 L 304.5 537.9 L 336.4 569.7 L 336.4 590.9 L 272.7 527.3" fill="#f7b32b" stroke="black" stroke-width="2"></path><path d="M 272.7 527.3 L 272.7 548.5 L 304.5 580.3 L 293.9 590.9 L 283.3 580.3 L 272.7 590.9 L 262.1 580.3 L 272.7 569.7 L 262.1 559.1 L 230.3 590.9 L 209.1 590.9 L 272.7 527.3" fill="#f7b32b" stroke="black" stroke-width="2"></path><path d="M 272.7 527.3 L 251.5 527.3 L 219.7 559.1 L 209.1 548.5 L 219.7 537.9 L 209.1 527.3 L 219.7 516.7 L 230.3 527.3 L 240.9 516.7 L 209.1 484.9 L 209.1 463.6 L 272.7 527.3" fill="#f7b32b" stroke="black" stroke-width="2"></path><path d="M 272.7 527.3 L 272.7 506.1 L 240.9 474.2 L 251.5 463.6 L 262.1 474.2 L 272.7 463.6 L 283.3 474.2 L 272.7 484.9 L 283.3 495.5 L 315.1 463.6 L 336.4 463.6 L 272.7 527.3" fill="#f7b32b" stroke="black" stroke-width="2"></path><path d="M 400 527.3 L 421.2 527.3 L 453 495.5 L 463.6 506.1 L 453 516.7 L 463.6 527.3 L 453 537.9 L 442.4 527.3 L 431.8 537.9 L 463.6 569.7 L 463.6 590.9 L 400 527.3" fill="#a9e5bb" stroke="black" stroke-width="2"></path><path d="M 400 527.3 L 400 548.5 L 431.8 580.3 L 421.2 590.9 L 410.6 580.3 L 400 590.9 L 389.4 580.3 L 400 569.7 L 389.4 559.1 L 357.6 590.9 L 336.4 590.9 L 400 527.3" fill="#a9e5bb" stroke="black" stroke-width="2"></path><path d="M 400 527.3 L 378.8 527.3 L 347 559.1 L 336.4 548.5 L 347 537.9 L 336.4 527.3 L 347 516.7 L 357.6 527.3 L 368.2 516.7 L 336.4 484.9 L 336.4 463.6 L 400 527.3" fill="#a9e5bb" stroke="black" stroke-width="2"></path><path d="M 400 527.3 L 400 506.1 L 368.2 474.2 L 378.8 463.6 L 389.4 474.2 L 400 463.6 L 410.6 474.2 L 400 484.9 L 410.6 495.5 L 442.4 463.6 L 463.6 463.6 L 400 527.3" fill="#a9e5bb" stroke="black" stroke-width="2"></path><path d="M 527.3 527.3 L 548.5 527.3 L 580.3 495.5 L 590.9 506.1 L 580.3 516.7 L 590.9 527.3 L 580.3 537.9 L 569.7 527.3 L 559.1 537.9 L 590.9 569.7 L 590.9 590.9 L 527.3 527.3" fill="#f7b32b" stroke="black" stroke-width="2"></path><path d="M 527.3 527.3 L 527.3 548.5 L 559.1 580.3 L 548.5 590.9 L 537.9 580.3 L 527.3 590.9 L 516.7 580.3 L 527.3 569.7 L 516.7 559.1 L 484.9 590.9 L 463.6 590.9 L 527.3 527.3" fill="#f7b32b" stroke="black" stroke-width="2"></path><path d="M 527.3 527.3 L 506.1 527.3 L 474.2 559.1 L 463.6 548.5 L 474.2 537.9 L 463.6 527.3 L 474.2 516.7 L 484.9 527.3 L 495.5 516.7 L 463.6 484.9 L 463.6 463.6 L 527.3 527.3" fill="#f7b32b" stroke="black" stroke-width="2"></path><path d="M 527.3 527.3 L 527.3 506.1 L 495.5 474.2 L 506.1 463.6 L 516.7 474.2 L 527.3 463.6 L 537.9 474.2 L 527.3 484.9 L 537.9 495.5 L 569.7 463.6 L 590.9 463.6 L 527.3 527.3" fill="#f7b32b" stroke="black" stroke-width="2"></path><path d="M 654.6 527.3 L 675.8 527.3 L 707.6 495.5 L 718.2 506.1 L 707.6 516.7 L 718.2 527.3 L 707.6 537.9 L 697 527.3 L 686.4 537.9 L 718.2 569.7 L 718.2 590.9 L 654.6 527.3" fill="#a9e5bb" stroke="black" stroke-width="2"></path><path d="M 654.6 527.3 L 654.6 548.5 L 686.4 580.3 L 675.8 590.9 L 665.2 580.3 L 654.6 590.9 L 644 580.3 L 654.6 569.7 L 644 559.1 L 612.1 590.9 L 590.9 590.9 L 654.6 527.3" fill="#a9e5bb" stroke="black" stroke-width="2"></path><path d="M 654.6 527.3 L 633.3 527.3 L 601.5 559.1 L 590.9 548.5 L 601.5 537.9 L 590.9 527.3 L 601.5 516.7 L 612.1 527.3 L 622.7 516.7 L 590.9 484.9 L 590.9 463.6 L 654.6 527.3" fill="#a9e5bb" stroke="black" stroke-width="2"></path><path d="M 654.6 527.3 L 654.6 506.1 L 622.7 474.2 L 633.3 463.6 L 644 474.2 L 654.6 463.6 L 665.2 474.2 L 654.6 484.9 L 665.2 495.5 L 697 463.6 L 718.2 463.6 L 654.6 527.3" fill="#a9e5bb" stroke="black" stroke-width="2"></path><path d="M 781.8 527.3 L 803.1 527.3 L 834.9 495.5 L 845.5 506.1 L 834.9 516.7 L 845.5 527.3 L 834.9 537.9 L 824.3 527.3 L 813.7 537.9 L 845.5 569.7 L 845.5 590.9 L 781.8 527.3" fill="#f7b32b" stroke="black" stroke-width="2"></path><path d="M 781.8 527.3 L 781.8 548.5 L 813.7 580.3 L 803.1 590.9 L 792.4 580.3 L 781.8 590.9 L 771.2 580.3 L 781.8 569.7 L 771.2 559.1 L 739.4 590.9 L 718.2 590.9 L 781.8 527.3" fill="#f7b32b" stroke="black" stroke-width="2"></path><path d="M 781.8 527.3 L 760.6 527.3 L 728.8 559.1 L 718.2 548.5 L 728.8 537.9 L 718.2 527.3 L 728.8 516.7 L 739.4 527.3 L 750 516.7 L 718.2 484.9 L 718.2 463.6 L 781.8 527.3" fill="#f7b32b" stroke="black" stroke-width="2"></path><path d="M 781.8 527.3 L 781.8 506.1 L 750 474.2 L 760.6 463.6 L 771.2 474.2 L 781.8 463.6 L 792.4 474.2 L 781.8 484.9 L 792.4 495.5 L 824.3 463.6 L 845.5 463.6 L 781.8 527.3" fill="#f7b32b" stroke="black" stroke-width="2"></path><path d="M 909.1 527.3 L 930.3 527.3 L 962.1 495.5 L 972.8 506.1 L 962.1 516.7 L 972.8 527.3 L 962.1 537.9 L 951.5 527.3 L 940.9 537.9 L 972.8 569.7 L 972.8 590.9 L 909.1 527.3" fill="#a9e5bb" stroke="black" stroke-width="2"></path><path d="M 909.1 527.3 L 909.1 548.5 L 940.9 580.3 L 930.3 590.9 L 919.7 580.3 L 909.1 590.9 L 898.5 580.3 L 909.1 569.7 L 898.5 559.1 L 866.7 590.9 L 845.5 590.9 L 909.1 527.3" fill="#a9e5bb" stroke="black" stroke-width="2"></path><path d="M 909.1 527.3 L 887.9 527.3 L 856.1 559.1 L 845.5 548.5 L 856.1 537.9 L 845.5 527.3 L 856.1 516.7 L 866.7 527.3 L 877.3 516.7 L 845.5 484.9 L 845.5 463.6 L 909.1 527.3" fill="#a9e5bb" stroke="black" stroke-width="2"></path><path d="M 909.1 527.3 L 909.1 506.1 L 877.3 474.2 L 887.9 463.6 L 898.5 474.2 L 909.1 463.6 L 919.7 474.2 L 909.1 484.9 L 919.7 495.5 L 951.5 463.6 L 972.8 463.6 L 909.1 527.3" fill="#a9e5bb" stroke="black" stroke-width="2"></path><path d="M -109.1 654.6 L -87.9 654.6 L -56.1 622.7 L -45.5 633.3 L -56.1 644 L -45.5 654.6 L -56.1 665.2 L -66.7 654.6 L -77.3 665.2 L -45.5 697 L -45.5 718.2 L -109.1 654.6" fill="#fcf6b1" stroke="black" stroke-width="2"></path><path d="M -109.1 654.6 L -109.1 675.8 L -77.3 707.6 L -87.9 718.2 L -98.5 707.6 L -109.1 718.2 L -119.7 707.6 L -109.1 697 L -119.7 686.4 L -151.5 718.2 L -172.8 718.2 L -109.1 654.6" fill="#fcf6b1" stroke="black" stroke-width="2"></path><path d="M -109.1 654.6 L -130.3 654.6 L -162.1 686.4 L -172.8 675.8 L -162.1 665.2 L -172.8 654.6 L -162.1 644 L -151.5 654.6 L -140.9 644 L -172.8 612.1 L -172.8 590.9 L -109.1 654.6" fill="#fcf6b1" stroke="black" stroke-width="2"></path><path d="M -109.1 654.6 L -109.1 633.3 L -140.9 601.5 L -130.3 590.9 L -119.7 601.5 L -109.1 590.9 L -98.5 601.5 L -109.1 612.1 L -98.5 622.7 L -66.7 590.9 L -45.5 590.9 L -109.1 654.6" fill="#fcf6b1" stroke="black" stroke-width="2"></path><path d="M 18.2 654.6 L 39.4 654.6 L 71.2 622.7 L 81.8 633.3 L 71.2 644 L 81.8 654.6 L 71.2 665.2 L 60.6 654.6 L 50 665.2 L 81.8 697 L 81.8 718.2 L 18.2 654.6" fill="#e3170a" stroke="black" stroke-width="2"></path><path d="M 18.2 654.6 L 18.2 675.8 L 50 707.6 L 39.4 718.2 L 28.8 707.6 L 18.2 718.2 L 7.6 707.6 L 18.2 697 L 7.6 686.4 L -24.3 718.2 L -45.5 718.2 L 18.2 654.6" fill="#e3170a" stroke="black" stroke-width="2"></path><path d="M 18.2 654.6 L -3.1 654.6 L -34.9 686.4 L -45.5 675.8 L -34.9 665.2 L -45.5 654.6 L -34.9 644 L -24.3 654.6 L -13.7 644 L -45.5 612.1 L -45.5 590.9 L 18.2 654.6" fill="#e3170a" stroke="black" stroke-width="2"></path><path d="M 18.2 654.6 L 18.2 633.3 L -13.7 601.5 L -3.1 590.9 L 7.6 601.5 L 18.2 590.9 L 28.8 601.5 L 18.2 612.1 L 28.8 622.7 L 60.6 590.9 L 81.8 590.9 L 18.2 654.6" fill="#e3170a" stroke="black" stroke-width="2"></path><path d="M 145.4 654.6 L 166.7 654.6 L 198.5 622.7 L 209.1 633.3 L 198.5 644 L 209.1 654.6 L 198.5 665.2 L 187.9 654.6 L 177.3 665.2 L 209.1 697 L 209.1 718.2 L 145.4 654.6" fill="#fcf6b1" stroke="black" stroke-width="2"></path><path d="M 145.4 654.6 L 145.4 675.8 L 177.3 707.6 L 166.7 718.2 L 156 707.6 L 145.4 718.2 L 134.8 707.6 L 145.4 697 L 134.8 686.4 L 103 718.2 L 81.8 718.2 L 145.4 654.6" fill="#fcf6b1" stroke="black" stroke-width="2"></path><path d="M 145.4 654.6 L 124.2 654.6 L 92.4 686.4 L 81.8 675.8 L 92.4 665.2 L 81.8 654.6 L 92.4 644 L 103 654.6 L 113.6 644 L 81.8 612.1 L 81.8 590.9 L 145.4 654.6" fill="#fcf6b1" stroke="black" stroke-width="2"></path><path d="M 145.4 654.6 L 145.4 633.3 L 113.6 601.5 L 124.2 590.9 L 134.8 601.5 L 145.4 590.9 L 156 601.5 L 145.4 612.1 L 156 622.7 L 187.9 590.9 L 209.1 590.9 L 145.4 654.6" fill="#fcf6b1" stroke="black" stroke-width="2"></path><path d="M 272.7 654.6 L 293.9 654.6 L 325.8 622.7 L 336.4 633.3 L 325.8 644 L 336.4 654.6 L 325.8 665.2 L 315.1 654.6 L 304.5 665.2 L 336.4 697 L 336.4 718.2 L 272.7 654.6" fill="#e3170a" stroke="black" stroke-width="2"></path><path d="M 272.7 654.6 L 272.7 675.8 L 304.5 707.6 L 293.9 718.2 L 283.3 707.6 L 272.7 718.2 L 262.1 707.6 L 272.7 697 L 262.1 686.4 L 230.3 718.2 L 209.1 718.2 L 272.7 654.6" fill="#e3170a" stroke="black" stroke-width="2"></path><path d="M 272.7 654.6 L 251.5 654.6 L 219.7 686.4 L 209.1 675.8 L 219.7 665.2 L 209.1 654.6 L 219.7 644 L 230.3 654.6 L 240.9 644 L 209.1 612.1 L 209.1 590.9 L 272.7 654.6" fill="#e3170a" stroke="black" stroke-width="2"></path><path d="M 272.7 654.6 L 272.7 633.3 L 240.9 601.5 L 251.5 590.9 L 262.1 601.5 L 272.7 590.9 L 283.3 601.5 L 272.7 612.1 L 283.3 622.7 L 315.1 590.9 L 336.4 590.9 L 272.7 654.6" fill="#e3170a" stroke="black" stroke-width="2"></path><path d="M 400 654.6 L 421.2 654.6 L 453 622.7 L 463.6 633.3 L 453 644 L 463.6 654.6 L 453 665.2 L 442.4 654.6 L 431.8 665.2 L 463.6 697 L 463.6 718.2 L 400 654.6" fill="#fcf6b1" stroke="black" stroke-width="2"></path><path d="M 400 654.6 L 400 675.8 L 431.8 707.6 L 421.2 718.2 L 410.6 707.6 L 400 718.2 L 389.4 707.6 L 400 697 L 389.4 686.4 L 357.6 718.2 L 336.4 718.2 L 400 654.6" fill="#fcf6b1" stroke="black" stroke-width="2"></path><path d="M 400 654.6 L 378.8 654.6 L 347 686.4 L 336.4 675.8 L 347 665.2 L 336.4 654.6 L 347 644 L 357.6 654.6 L 368.2 644 L 336.4 612.1 L 336.4 590.9 L 400 654.6" fill="#fcf6b1" stroke="black" stroke-width="2"></path><path d="M 400 654.6 L 400 633.3 L 368.2 601.5 L 378.8 590.9 L 389.4 601.5 L 400 590.9 L 410.6 601.5 L 400 612.1 L 410.6 622.7 L 442.4 590.9 L 463.6 590.9 L 400 654.6" fill="#fcf6b1" stroke="black" stroke-width="2"></path><path d="M 527.3 654.6 L 548.5 654.6 L 580.3 622.7 L 590.9 633.3 L 580.3 644 L 590.9 654.6 L 580.3 665.2 L 569.7 654.6 L 559.1 665.2 L 590.9 697 L 590.9 718.2 L 527.3 654.6" fill="#e3170a" stroke="black" stroke-width="2"></path><path d="M 527.3 654.6 L 527.3 675.8 L 559.1 707.6 L 548.5 718.2 L 537.9 707.6 L 527.3 718.2 L 516.7 707.6 L 527.3 697 L 516.7 686.4 L 484.9 718.2 L 463.6 718.2 L 527.3 654.6" fill="#e3170a" stroke="black" stroke-width="2"></path><path d="M 527.3 654.6 L 506.1 654.6 L 474.2 686.4 L 463.6 675.8 L 474.2 665.2 L 463.6 654.6 L 474.2 644 L 484.9 654.6 L 495.5 644 L 463.6 612.1 L 463.6 590.9 L 527.3 654.6" fill="#e3170a" stroke="black" stroke-width="2"></path><path d="M 527.3 654.6 L 527.3 633.3 L 495.5 601.5 L 506.1 590.9 L 516.7 601.5 L 527.3 590.9 L 537.9 601.5 L 527.3 612.1 L 537.9 622.7 L 569.7 590.9 L 590.9 590.9 L 527.3 654.6" fill="#e3170a" stroke="black" stroke-width="2"></path><path d="M 654.6 654.6 L 675.8 654.6 L 707.6 622.7 L 718.2 633.3 L 707.6 644 L 718.2 654.6 L 707.6 665.2 L 697 654.6 L 686.4 665.2 L 718.2 697 L 718.2 718.2 L 654.6 654.6" fill="#fcf6b1" stroke="black" stroke-width="2"></path><path d="M 654.6 654.6 L 654.6 675.8 L 686.4 707.6 L 675.8 718.2 L 665.2 707.6 L 654.6 718.2 L 644 707.6 L 654.6 697 L 644 686.4 L 612.1 718.2 L 590.9 718.2 L 654.6 654.6" fill="#fcf6b1" stroke="black" stroke-width="2"></path><path d="M 654.6 654.6 L 633.3 654.6 L 601.5 686.4 L 590.9 675.8 L 601.5 665.2 L 590.9 654.6 L 601.5 644 L 612.1 654.6 L 622.7 644 L 590.9 612.1 L 590.9 590.9 L 654.6 654.6" fill="#fcf6b1" stroke="black" stroke-width="2"></path><path d="M 654.6 654.6 L 654.6 633.3 L 622.7 601.5 L 633.3 590.9 L 644 601.5 L 654.6 590.9 L 665.2 601.5 L 654.6 612.1 L 665.2 622.7 L 697 590.9 L 718.2 590.9 L 654.6 654.6" fill="#fcf6b1" stroke="black" stroke-width="2"></path><path d="M 781.8 654.6 L 803.1 654.6 L 834.9 622.7 L 845.5 633.3 L 834.9 644 L 845.5 654.6 L 834.9 665.2 L 824.3 654.6 L 813.7 665.2 L 845.5 697 L 845.5 718.2 L 781.8 654.6" fill="#e3170a" stroke="black" stroke-width="2"></path><path d="M 781.8 654.6 L 781.8 675.8 L 813.7 707.6 L 803.1 718.2 L 792.4 707.6 L 781.8 718.2 L 771.2 707.6 L 781.8 697 L 771.2 686.4 L 739.4 718.2 L 718.2 718.2 L 781.8 654.6" fill="#e3170a" stroke="black" stroke-width="2"></path><path d="M 781.8 654.6 L 760.6 654.6 L 728.8 686.4 L 718.2 675.8 L 728.8 665.2 L 718.2 654.6 L 728.8 644 L 739.4 654.6 L 750 644 L 718.2 612.1 L 718.2 590.9 L 781.8 654.6" fill="#e3170a" stroke="black" stroke-width="2"></path><path d="M 781.8 654.6 L 781.8 633.3 L 750 601.5 L 760.6 590.9 L 771.2 601.5 L 781.8 590.9 L 792.4 601.5 L 781.8 612.1 L 792.4 622.7 L 824.3 590.9 L 845.5 590.9 L 781.8 654.6" fill="#e3170a" stroke="black" stroke-width="2"></path><path d="M 909.1 654.6 L 930.3 654.6 L 962.1 622.7 L 972.8 633.3 L 962.1 644 L 972.8 654.6 L 962.1 665.2 L 951.5 654.6 L 940.9 665.2 L 972.8 697 L 972.8 718.2 L 909.1 654.6" fill="#fcf6b1" stroke="black" stroke-width="2"></path><path d="M 909.1 654.6 L 909.1 675.8 L 940.9 707.6 L 930.3 718.2 L 919.7 707.6 L 909.1 718.2 L 898.5 707.6 L 909.1 697 L 898.5 686.4 L 866.7 718.2 L 845.5 718.2 L 909.1 654.6" fill="#fcf6b1" stroke="black" stroke-width="2"></path><path d="M 909.1 654.6 L 887.9 654.6 L 856.1 686.4 L 845.5 675.8 L 856.1 665.2 L 845.5 654.6 L 856.1 644 L 866.7 654.6 L 877.3 644 L 845.5 612.1 L 845.5 590.9 L 909.1 654.6" fill="#fcf6b1" stroke="black" stroke-width="2"></path><path d="M 909.1 654.6 L 909.1 633.3 L 877.3 601.5 L 887.9 590.9 L 898.5 601.5 L 909.1 590.9 L 919.7 601.5 L 909.1 612.1 L 919.7 622.7 L 951.5 590.9 L 972.8 590.9 L 909.1 654.6" fill="#fcf6b1" stroke="black" stroke-width="2"></path><path d="M -109.1 781.8 L -87.9 781.8 L -56.1 750 L -45.5 760.6 L -56.1 771.2 L -45.5 781.8 L -56.1 792.4 L -66.7 781.8 L -77.3 792.4 L -45.5 824.3 L -45.5 845.5 L -109.1 781.8" fill="#f7b32b" stroke="black" stroke-width="2"></path><path d="M -109.1 781.8 L -109.1 803.1 L -77.3 834.9 L -87.9 845.5 L -98.5 834.9 L -109.1 845.5 L -119.7 834.9 L -109.1 824.3 L -119.7 813.7 L -151.5 845.5 L -172.8 845.5 L -109.1 781.8" fill="#f7b32b" stroke="black" stroke-width="2"></path><path d="M -109.1 781.8 L -130.3 781.8 L -162.1 813.7 L -172.8 803.1 L -162.1 792.4 L -172.8 781.8 L -162.1 771.2 L -151.5 781.8 L -140.9 771.2 L -172.8 739.4 L -172.8 718.2 L -109.1 781.8" fill="#f7b32b" stroke="black" stroke-width="2"></path><path d="M -109.1 781.8 L -109.1 760.6 L -140.9 728.8 L -130.3 718.2 L -119.7 728.8 L -109.1 718.2 L -98.5 728.8 L -109.1 739.4 L -98.5 750 L -66.7 718.2 L -45.5 718.2 L -109.1 781.8" fill="#f7b32b" stroke="black" stroke-width="2"></path><path d="M 18.2 781.8 L 39.4 781.8 L 71.2 750 L 81.8 760.6 L 71.2 771.2 L 81.8 781.8 L 71.2 792.4 L 60.6 781.8 L 50 792.4 L 81.8 824.3 L 81.8 845.5 L 18.2 781.8" fill="#a9e5bb" stroke="black" stroke-width="2"></path><path d="M 18.2 781.8 L 18.2 803.1 L 50 834.9 L 39.4 845.5 L 28.8 834.9 L 18.2 845.5 L 7.6 834.9 L 18.2 824.3 L 7.6 813.7 L -24.3 845.5 L -45.5 845.5 L 18.2 781.8" fill="#a9e5bb" stroke="black" stroke-width="2"></path><path d="M 18.2 781.8 L -3.1 781.8 L -34.9 813.7 L -45.5 803.1 L -34.9 792.4 L -45.5 781.8 L -34.9 771.2 L -24.3 781.8 L -13.7 771.2 L -45.5 739.4 L -45.5 718.2 L 18.2 781.8" fill="#a9e5bb" stroke="black" stroke-width="2"></path><path d="M 18.2 781.8 L 18.2 760.6 L -13.7 728.8 L -3.1 718.2 L 7.6 728.8 L 18.2 718.2 L 28.8 728.8 L 18.2 739.4 L 28.8 750 L 60.6 718.2 L 81.8 718.2 L 18.2 781.8" fill="#a9e5bb" stroke="black" stroke-width="2"></path><path d="M 145.4 781.8 L 166.7 781.8 L 198.5 750 L 209.1 760.6 L 198.5 771.2 L 209.1 781.8 L 198.5 792.4 L 187.9 781.8 L 177.3 792.4 L 209.1 824.3 L 209.1 845.5 L 145.4 781.8" fill="#f7b32b" stroke="black" stroke-width="2"></path><path d="M 145.4 781.8 L 145.4 803.1 L 177.3 834.9 L 166.7 845.5 L 156 834.9 L 145.4 845.5 L 134.8 834.9 L 145.4 824.3 L 134.8 813.7 L 103 845.5 L 81.8 845.5 L 145.4 781.8" fill="#f7b32b" stroke="black" stroke-width="2"></path><path d="M 145.4 781.8 L 124.2 781.8 L 92.4 813.7 L 81.8 803.1 L 92.4 792.4 L 81.8 781.8 L 92.4 771.2 L 103 781.8 L 113.6 771.2 L 81.8 739.4 L 81.8 718.2 L 145.4 781.8" fill="#f7b32b" stroke="black" stroke-width="2"></path><path d="M 145.4 781.8 L 145.4 760.6 L 113.6 728.8 L 124.2 718.2 L 134.8 728.8 L 145.4 718.2 L 156 728.8 L 145.4 739.4 L 156 750 L 187.9 718.2 L 209.1 718.2 L 145.4 781.8" fill="#f7b32b" stroke="black" stroke-width="2"></path><path d="M 272.7 781.8 L 293.9 781.8 L 325.8 750 L 336.4 760.6 L 325.8 771.2 L 336.4 781.8 L 325.8 792.4 L 315.1 781.8 L 304.5 792.4 L 336.4 824.3 L 336.4 845.5 L 272.7 781.8" fill="#a9e5bb" stroke="black" stroke-width="2"></path><path d="M 272.7 781.8 L 272.7 803.1 L 304.5 834.9 L 293.9 845.5 L 283.3 834.9 L 272.7 845.5 L 262.1 834.9 L 272.7 824.3 L 262.1 813.7 L 230.3 845.5 L 209.1 845.5 L 272.7 781.8" fill="#a9e5bb" stroke="black" stroke-width="2"></path><path d="M 272.7 781.8 L 251.5 781.8 L 219.7 813.7 L 209.1 803.1 L 219.7 792.4 L 209.1 781.8 L 219.7 771.2 L 230.3 781.8 L 240.9 771.2 L 209.1 739.4 L 209.1 718.2 L 272.7 781.8" fill="#a9e5bb" stroke="black" stroke-width="2"></path><path d="M 272.7 781.8 L 272.7 760.6 L 240.9 728.8 L 251.5 718.2 L 262.1 728.8 L 272.7 718.2 L 283.3 728.8 L 272.7 739.4 L 283.3 750 L 315.1 718.2 L 336.4 718.2 L 272.7 781.8" fill="#a9e5bb" stroke="black" stroke-width="2"></path><path d="M 400 781.8 L 421.2 781.8 L 453 750 L 463.6 760.6 L 453 771.2 L 463.6 781.8 L 453 792.4 L 442.4 781.8 L 431.8 792.4 L 463.6 824.3 L 463.6 845.5 L 400 781.8" fill="#f7b32b" stroke="black" stroke-width="2"></path><path d="M 400 781.8 L 400 803.1 L 431.8 834.9 L 421.2 845.5 L 410.6 834.9 L 400 845.5 L 389.4 834.9 L 400 824.3 L 389.4 813.7 L 357.6 845.5 L 336.4 845.5 L 400 781.8" fill="#f7b32b" stroke="black" stroke-width="2"></path><path d="M 400 781.8 L 378.8 781.8 L 347 813.7 L 336.4 803.1 L 347 792.4 L 336.4 781.8 L 347 771.2 L 357.6 781.8 L 368.2 771.2 L 336.4 739.4 L 336.4 718.2 L 400 781.8" fill="#f7b32b" stroke="black" stroke-width="2"></path><path d="M 400 781.8 L 400 760.6 L 368.2 728.8 L 378.8 718.2 L 389.4 728.8 L 400 718.2 L 410.6 728.8 L 400 739.4 L 410.6 750 L 442.4 718.2 L 463.6 718.2 L 400 781.8" fill="#f7b32b" stroke="black" stroke-width="2"></path><path d="M 527.3 781.8 L 548.5 781.8 L 580.3 750 L 590.9 760.6 L 580.3 771.2 L 590.9 781.8 L 580.3 792.4 L 569.7 781.8 L 559.1 792.4 L 590.9 824.3 L 590.9 845.5 L 527.3 781.8" fill="#a9e5bb" stroke="black" stroke-width="2"></path><path d="M 527.3 781.8 L 527.3 803.1 L 559.1 834.9 L 548.5 845.5 L 537.9 834.9 L 527.3 845.5 L 516.7 834.9 L 527.3 824.3 L 516.7 813.7 L 484.9 845.5 L 463.6 845.5 L 527.3 781.8" fill="#a9e5bb" stroke="black" stroke-width="2"></path><path d="M 527.3 781.8 L 506.1 781.8 L 474.2 813.7 L 463.6 803.1 L 474.2 792.4 L 463.6 781.8 L 474.2 771.2 L 484.9 781.8 L 495.5 771.2 L 463.6 739.4 L 463.6 718.2 L 527.3 781.8" fill="#a9e5bb" stroke="black" stroke-width="2"></path><path d="M 527.3 781.8 L 527.3 760.6 L 495.5 728.8 L 506.1 718.2 L 516.7 728.8 L 527.3 718.2 L 537.9 728.8 L 527.3 739.4 L 537.9 750 L 569.7 718.2 L 590.9 718.2 L 527.3 781.8" fill="#a9e5bb" stroke="black" stroke-width="2"></path><path d="M 654.6 781.8 L 675.8 781.8 L 707.6 750 L 718.2 760.6 L 707.6 771.2 L 718.2 781.8 L 707.6 792.4 L 697 781.8 L 686.4 792.4 L 718.2 824.3 L 718.2 845.5 L 654.6 781.8" fill="#f7b32b" stroke="black" stroke-width="2"></path><path d="M 654.6 781.8 L 654.6 803.1 L 686.4 834.9 L 675.8 845.5 L 665.2 834.9 L 654.6 845.5 L 644 834.9 L 654.6 824.3 L 644 813.7 L 612.1 845.5 L 590.9 845.5 L 654.6 781.8" fill="#f7b32b" stroke="black" stroke-width="2"></path><path d="M 654.6 781.8 L 633.3 781.8 L 601.5 813.7 L 590.9 803.1 L 601.5 792.4 L 590.9 781.8 L 601.5 771.2 L 612.1 781.8 L 622.7 771.2 L 590.9 739.4 L 590.9 718.2 L 654.6 781.8" fill="#f7b32b" stroke="black" stroke-width="2"></path><path d="M 654.6 781.8 L 654.6 760.6 L 622.7 728.8 L 633.3 718.2 L 644 728.8 L 654.6 718.2 L 665.2 728.8 L 654.6 739.4 L 665.2 750 L 697 718.2 L 718.2 718.2 L 654.6 781.8" fill="#f7b32b" stroke="black" stroke-width="2"></path><path d="M 781.8 781.8 L 803.1 781.8 L 834.9 750 L 845.5 760.6 L 834.9 771.2 L 845.5 781.8 L 834.9 792.4 L 824.3 781.8 L 813.7 792.4 L 845.5 824.3 L 845.5 845.5 L 781.8 781.8" fill="#a9e5bb" stroke="black" stroke-width="2"></path><path d="M 781.8 781.8 L 781.8 803.1 L 813.7 834.9 L 803.1 845.5 L 792.4 834.9 L 781.8 845.5 L 771.2 834.9 L 781.8 824.3 L 771.2 813.7 L 739.4 845.5 L 718.2 845.5 L 781.8 781.8" fill="#a9e5bb" stroke="black" stroke-width="2"></path><path d="M 781.8 781.8 L 760.6 781.8 L 728.8 813.7 L 718.2 803.1 L 728.8 792.4 L 718.2 781.8 L 728.8 771.2 L 739.4 781.8 L 750 771.2 L 718.2 739.4 L 718.2 718.2 L 781.8 781.8" fill="#a9e5bb" stroke="black" stroke-width="2"></path><path d="M 781.8 781.8 L 781.8 760.6 L 750 728.8 L 760.6 718.2 L 771.2 728.8 L 781.8 718.2 L 792.4 728.8 L 781.8 739.4 L 792.4 750 L 824.3 718.2 L 845.5 718.2 L 781.8 781.8" fill="#a9e5bb" stroke="black" stroke-width="2"></path><path d="M 909.1 781.8 L 930.3 781.8 L 962.1 750 L 972.8 760.6 L 962.1 771.2 L 972.8 781.8 L 962.1 792.4 L 951.5 781.8 L 940.9 792.4 L 972.8 824.3 L 972.8 845.5 L 909.1 781.8" fill="#f7b32b" stroke="black" stroke-width="2"></path><path d="M 909.1 781.8 L 909.1 803.1 L 940.9 834.9 L 930.3 845.5 L 919.7 834.9 L 909.1 845.5 L 898.5 834.9 L 909.1 824.3 L 898.5 813.7 L 866.7 845.5 L 845.5 845.5 L 909.1 781.8" fill="#f7b32b" stroke="black" stroke-width="2"></path><path d="M 909.1 781.8 L 887.9 781.8 L 856.1 813.7 L 845.5 803.1 L 856.1 792.4 L 845.5 781.8 L 856.1 771.2 L 866.7 781.8 L 877.3 771.2 L 845.5 739.4 L 845.5 718.2 L 909.1 781.8" fill="#f7b32b" stroke="black" stroke-width="2"></path><path d="M 909.1 781.8 L 909.1 760.6 L 877.3 728.8 L 887.9 718.2 L 898.5 728.8 L 909.1 718.2 L 919.7 728.8 L 909.1 739.4 L 919.7 750 L 951.5 718.2 L 972.8 718.2 L 909.1 781.8" fill="#f7b32b" stroke="black" stroke-width="2"></path><path d="M -109.1 909.1 L -87.9 909.1 L -56.1 877.3 L -45.5 887.9 L -56.1 898.5 L -45.5 909.1 L -56.1 919.7 L -66.7 909.1 L -77.3 919.7 L -45.5 951.5 L -45.5 972.8 L -109.1 909.1" fill="#e3170a" stroke="black" stroke-width="2"></path><path d="M -109.1 909.1 L -109.1 930.3 L -77.3 962.1 L -87.9 972.8 L -98.5 962.1 L -109.1 972.8 L -119.7 962.1 L -109.1 951.5 L -119.7 940.9 L -151.5 972.8 L -172.8 972.8 L -109.1 909.1" fill="#e3170a" stroke="black" stroke-width="2"></path><path d="M -109.1 909.1 L -130.3 909.1 L -162.1 940.9 L -172.8 930.3 L -162.1 919.7 L -172.8 909.1 L -162.1 898.5 L -151.5 909.1 L -140.9 898.5 L -172.8 866.7 L -172.8 845.5 L -109.1 909.1" fill="#e3170a" stroke="black" stroke-width="2"></path><path d="M -109.1 909.1 L -109.1 887.9 L -140.9 856.1 L -130.3 845.5 L -119.7 856.1 L -109.1 845.5 L -98.5 856.1 L -109.1 866.7 L -98.5 877.3 L -66.7 845.5 L -45.5 845.5 L -109.1 909.1" fill="#e3170a" stroke="black" stroke-width="2"></path><path d="M 18.2 909.1 L 39.4 909.1 L 71.2 877.3 L 81.8 887.9 L 71.2 898.5 L 81.8 909.1 L 71.2 919.7 L 60.6 909.1 L 50 919.7 L 81.8 951.5 L 81.8 972.8 L 18.2 909.1" fill="#fcf6b1" stroke="black" stroke-width="2"></path><path d="M 18.2 909.1 L 18.2 930.3 L 50 962.1 L 39.4 972.8 L 28.8 962.1 L 18.2 972.8 L 7.6 962.1 L 18.2 951.5 L 7.6 940.9 L -24.3 972.8 L -45.5 972.8 L 18.2 909.1" fill="#fcf6b1" stroke="black" stroke-width="2"></path><path d="M 18.2 909.1 L -3.1 909.1 L -34.9 940.9 L -45.5 930.3 L -34.9 919.7 L -45.5 909.1 L -34.9 898.5 L -24.3 909.1 L -13.7 898.5 L -45.5 866.7 L -45.5 845.5 L 18.2 909.1" fill="#fcf6b1" stroke="black" stroke-width="2"></path><path d="M 18.2 909.1 L 18.2 887.9 L -13.7 856.1 L -3.1 845.5 L 7.6 856.1 L 18.2 845.5 L 28.8 856.1 L 18.2 866.7 L 28.8 877.3 L 60.6 845.5 L 81.8 845.5 L 18.2 909.1" fill="#fcf6b1" stroke="black" stroke-width="2"></path><path d="M 145.4 909.1 L 166.7 909.1 L 198.5 877.3 L 209.1 887.9 L 198.5 898.5 L 209.1 909.1 L 198.5 919.7 L 187.9 909.1 L 177.3 919.7 L 209.1 951.5 L 209.1 972.8 L 145.4 909.1" fill="#e3170a" stroke="black" stroke-width="2"></path><path d="M 145.4 909.1 L 145.4 930.3 L 177.3 962.1 L 166.7 972.8 L 156 962.1 L 145.4 972.8 L 134.8 962.1 L 145.4 951.5 L 134.8 940.9 L 103 972.8 L 81.8 972.8 L 145.4 909.1" fill="#e3170a" stroke="black" stroke-width="2"></path><path d="M 145.4 909.1 L 124.2 909.1 L 92.4 940.9 L 81.8 930.3 L 92.4 919.7 L 81.8 909.1 L 92.4 898.5 L 103 909.1 L 113.6 898.5 L 81.8 866.7 L 81.8 845.5 L 145.4 909.1" fill="#e3170a" stroke="black" stroke-width="2"></path><path d="M 145.4 909.1 L 145.4 887.9 L 113.6 856.1 L 124.2 845.5 L 134.8 856.1 L 145.4 845.5 L 156 856.1 L 145.4 866.7 L 156 877.3 L 187.9 845.5 L 209.1 845.5 L 145.4 909.1" fill="#e3170a" stroke="black" stroke-width="2"></path><path d="M 272.7 909.1 L 293.9 909.1 L 325.8 877.3 L 336.4 887.9 L 325.8 898.5 L 336.4 909.1 L 325.8 919.7 L 315.1 909.1 L 304.5 919.7 L 336.4 951.5 L 336.4 972.8 L 272.7 909.1" fill="#fcf6b1" stroke="black" stroke-width="2"></path><path d="M 272.7 909.1 L 272.7 930.3 L 304.5 962.1 L 293.9 972.8 L 283.3 962.1 L 272.7 972.8 L 262.1 962.1 L 272.7 951.5 L 262.1 940.9 L 230.3 972.8 L 209.1 972.8 L 272.7 909.1" fill="#fcf6b1" stroke="black" stroke-width="2"></path><path d="M 272.7 909.1 L 251.5 909.1 L 219.7 940.9 L 209.1 930.3 L 219.7 919.7 L 209.1 909.1 L 219.7 898.5 L 230.3 909.1 L 240.9 898.5 L 209.1 866.7 L 209.1 845.5 L 272.7 909.1" fill="#fcf6b1" stroke="black" stroke-width="2"></path><path d="M 272.7 909.1 L 272.7 887.9 L 240.9 856.1 L 251.5 845.5 L 262.1 856.1 L 272.7 845.5 L 283.3 856.1 L 272.7 866.7 L 283.3 877.3 L 315.1 845.5 L 336.4 845.5 L 272.7 909.1" fill="#fcf6b1" stroke="black" stroke-width="2"></path><path d="M 400 909.1 L 421.2 909.1 L 453 877.3 L 463.6 887.9 L 453 898.5 L 463.6 909.1 L 453 919.7 L 442.4 909.1 L 431.8 919.7 L 463.6 951.5 L 463.6 972.8 L 400 909.1" fill="#e3170a" stroke="black" stroke-width="2"></path><path d="M 400 909.1 L 400 930.3 L 431.8 962.1 L 421.2 972.8 L 410.6 962.1 L 400 972.8 L 389.4 962.1 L 400 951.5 L 389.4 940.9 L 357.6 972.8 L 336.4 972.8 L 400 909.1" fill="#e3170a" stroke="black" stroke-width="2"></path><path d="M 400 909.1 L 378.8 909.1 L 347 940.9 L 336.4 930.3 L 347 919.7 L 336.4 909.1 L 347 898.5 L 357.6 909.1 L 368.2 898.5 L 336.4 866.7 L 336.4 845.5 L 400 909.1" fill="#e3170a" stroke="black" stroke-width="2"></path><path d="M 400 909.1 L 400 887.9 L 368.2 856.1 L 378.8 845.5 L 389.4 856.1 L 400 845.5 L 410.6 856.1 L 400 866.7 L 410.6 877.3 L 442.4 845.5 L 463.6 845.5 L 400 909.1" fill="#e3170a" stroke="black" stroke-width="2"></path><path d="M 527.3 909.1 L 548.5 909.1 L 580.3 877.3 L 590.9 887.9 L 580.3 898.5 L 590.9 909.1 L 580.3 919.7 L 569.7 909.1 L 559.1 919.7 L 590.9 951.5 L 590.9 972.8 L 527.3 909.1" fill="#fcf6b1" stroke="black" stroke-width="2"></path><path d="M 527.3 909.1 L 527.3 930.3 L 559.1 962.1 L 548.5 972.8 L 537.9 962.1 L 527.3 972.8 L 516.7 962.1 L 527.3 951.5 L 516.7 940.9 L 484.9 972.8 L 463.6 972.8 L 527.3 909.1" fill="#fcf6b1" stroke="black" stroke-width="2"></path><path d="M 527.3 909.1 L 506.1 909.1 L 474.2 940.9 L 463.6 930.3 L 474.2 919.7 L 463.6 909.1 L 474.2 898.5 L 484.9 909.1 L 495.5 898.5 L 463.6 866.7 L 463.6 845.5 L 527.3 909.1" fill="#fcf6b1" stroke="black" stroke-width="2"></path><path d="M 527.3 909.1 L 527.3 887.9 L 495.5 856.1 L 506.1 845.5 L 516.7 856.1 L 527.3 845.5 L 537.9 856.1 L 527.3 866.7 L 537.9 877.3 L 569.7 845.5 L 590.9 845.5 L 527.3 909.1" fill="#fcf6b1" stroke="black" stroke-width="2"></path><path d="M 654.6 909.1 L 675.8 909.1 L 707.6 877.3 L 718.2 887.9 L 707.6 898.5 L 718.2 909.1 L 707.6 919.7 L 697 909.1 L 686.4 919.7 L 718.2 951.5 L 718.2 972.8 L 654.6 909.1" fill="#e3170a" stroke="black" stroke-width="2"></path><path d="M 654.6 909.1 L 654.6 930.3 L 686.4 962.1 L 675.8 972.8 L 665.2 962.1 L 654.6 972.8 L 644 962.1 L 654.6 951.5 L 644 940.9 L 612.1 972.8 L 590.9 972.8 L 654.6 909.1" fill="#e3170a" stroke="black" stroke-width="2"></path><path d="M 654.6 909.1 L 633.3 909.1 L 601.5 940.9 L 590.9 930.3 L 601.5 919.7 L 590.9 909.1 L 601.5 898.5 L 612.1 909.1 L 622.7 898.5 L 590.9 866.7 L 590.9 845.5 L 654.6 909.1" fill="#e3170a" stroke="black" stroke-width="2"></path><path d="M 654.6 909.1 L 654.6 887.9 L 622.7 856.1 L 633.3 845.5 L 644 856.1 L 654.6 845.5 L 665.2 856.1 L 654.6 866.7 L 665.2 877.3 L 697 845.5 L 718.2 845.5 L 654.6 909.1" fill="#e3170a" stroke="black" stroke-width="2"></path><path d="M 781.8 909.1 L 803.1 909.1 L 834.9 877.3 L 845.5 887.9 L 834.9 898.5 L 845.5 909.1 L 834.9 919.7 L 824.3 909.1 L 813.7 919.7 L 845.5 951.5 L 845.5 972.8 L 781.8 909.1" fill="#fcf6b1" stroke="black" stroke-width="2"></path><path d="M 781.8 909.1 L 781.8 930.3 L 813.7 962.1 L 803.1 972.8 L 792.4 962.1 L 781.8 972.8 L 771.2 962.1 L 781.8 951.5 L 771.2 940.9 L 739.4 972.8 L 718.2 972.8 L 781.8 909.1" fill="#fcf6b1" stroke="black" stroke-width="2"></path><path d="M 781.8 909.1 L 760.6 909.1 L 728.8 940.9 L 718.2 930.3 L 728.8 919.7 L 718.2 909.1 L 728.8 898.5 L 739.4 909.1 L 750 898.5 L 718.2 866.7 L 718.2 845.5 L 781.8 909.1" fill="#fcf6b1" stroke="black" stroke-width="2"></path><path d="M 781.8 909.1 L 781.8 887.9 L 750 856.1 L 760.6 845.5 L 771.2 856.1 L 781.8 845.5 L 792.4 856.1 L 781.8 866.7 L 792.4 877.3 L 824.3 845.5 L 845.5 845.5 L 781.8 909.1" fill="#fcf6b1" stroke="black" stroke-width="2"></path><path d="M 909.1 909.1 L 930.3 909.1 L 962.1 877.3 L 972.8 887.9 L 962.1 898.5 L 972.8 909.1 L 962.1 919.7 L 951.5 909.1 L 940.9 919.7 L 972.8 951.5 L 972.8 972.8 L 909.1 909.1" fill="#e3170a" stroke="black" stroke-width="2"></path><path d="M 909.1 909.1 L 909.1 930.3 L 940.9 962.1 L 930.3 972.8 L 919.7 962.1 L 909.1 972.8 L 898.5 962.1 L 909.1 951.5 L 898.5 940.9 L 866.7 972.8 L 845.5 972.8 L 909.1 909.1" fill="#e3170a" stroke="black" stroke-width="2"></path><path d="M 909.1 909.1 L 887.9 909.1 L 856.1 940.9 L 845.5 930.3 L 856.1 919.7 L 845.5 909.1 L 856.1 898.5 L 866.7 909.1 L 877.3 898.5 L 845.5 866.7 L 845.5 845.5 L 909.1 909.1" fill="#e3170a" stroke="black" stroke-width="2"></path><path d="M 909.1 909.1 L 909.1 887.9 L 877.3 856.1 L 887.9 845.5 L 898.5 856.1 L 909.1 845.5 L 919.7 856.1 L 909.1 866.7 L 919.7 877.3 L 951.5 845.5 L 972.8 845.5 L 909.1 909.1" fill="#e3170a" stroke="black" stroke-width="2"></path><ellipse cx="400" cy="400" rx="600" ry="600" fill="none" stroke="white" stroke-width="560"></ellipse><ellipse cx="400" cy="400" rx="320" ry="320" fill="none" stroke="black" stroke-width="2"></ellipse></svg>