<svg viewBox="0 0 800 800" preserveAspectRatio="xMidYMin slice" xmlns="http://www.w3.org/2000/svg" xlink="http://www.w3.org/1999/xlink"><defs><g id="unit-23"><path d="M -100 100 L -120 100 L -120 120 L -140 120 L -140 55.9 L -160 75.9 L -160 135.9 L -182 158 L -167.9 172.1 L -153.7 158 L -131.7 180 L -71.7 180 L -51.7 200 L -115.8 200 L -115.8 220 L -95.8 220 L -95.8 240 L -75.8 240 L -75.8 220 L -75.8 220 L -55.8 220 L -55.8 284.1 L -35.8 264.1 L -35.8 204.1 L -13.7 182 L -27.9 167.9 L -42 182 L -42 182 L -64.1 160 L -124.1 160 L -144.1 140 L -80 140 L -80 120 L -100 120 Z" fill="#0d1f2d" stroke="none" stroke-width="1"></path><path d="M -100 100 L -100 120 L -80 120 L -80 140 L -144.1 140 L -124.1 160 L -64.1 160 L -42 182 L -27.9 167.9 L -42 153.7 L -20 131.7 L -20 71.7 L 0 51.7 L 0 115.8 L 20 115.8 L 20 95.8 L 40 95.8 L 40 75.8 L 20 75.8 L 20 75.8 L 20 55.8 L 84.1 55.8 L 64.1 35.8 L 4.1 35.8 L -18 13.7 L -32.1 27.9 L -18 42 L -18 42 L -40 64.1 L -40 124.1 L -60 144.1 L -60 80 L -80 80 L -80 100 Z" fill="#fae1df" stroke="none" stroke-width="1"></path><path d="M -100 100 L -80 100 L -80 80 L -60 80 L -60 144.1 L -40 124.1 L -40 64.1 L -18 42 L -32.1 27.9 L -46.3 42 L -68.3 20 L -128.3 20 L -148.3 0 L -84.2 0 L -84.2 -20 L -104.2 -20 L -104.2 -40 L -124.2 -40 L -124.2 -20 L -124.2 -20 L -144.2 -20 L -144.2 -84.1 L -164.2 -64.1 L -164.2 -4.1 L -186.3 18 L -172.1 32.1 L -158 18 L -158 18 L -135.9 40 L -75.9 40 L -55.9 60 L -120 60 L -120 80 L -100 80 Z" fill="#0d1f2d" stroke="none" stroke-width="1"></path><path d="M -100 100 L -100 80 L -120 80 L -120 60 L -55.9 60 L -75.9 40 L -135.9 40 L -158 18 L -172.1 32.1 L -158 46.3 L -180 68.3 L -180 128.3 L -200 148.3 L -200 84.2 L -220 84.2 L -220 104.2 L -240 104.2 L -240 124.2 L -220 124.2 L -220 124.2 L -220 144.2 L -284.1 144.2 L -264.1 164.2 L -204.1 164.2 L -182 186.3 L -167.9 172.1 L -182 158 L -182 158 L -160 135.9 L -160 75.9 L -140 55.9 L -140 120 L -120 120 L -120 100 Z" fill="#9EA3B0" stroke="none" stroke-width="1"></path></g></defs><use href="#unit-23" transform="translate(374.7, -440)"></use><use href="#unit-23" transform="translate(238.9, -295.8)"></use><use href="#unit-23" transform="translate(103.1, -151.6)"></use><use href="#unit-23" transform="translate(-32.7, -7.3)"></use><use href="#unit-23" transform="translate(-168.4, 136.9)"></use><use href="#unit-23" transform="translate(-304.2, 281.1)"></use><use href="#unit-23" transform="translate(-440, 425.3)"></use><use href="#unit-23" transform="translate(518.9, -304.2)"></use><use href="#unit-23" transform="translate(383.1, -160)"></use><use href="#unit-23" transform="translate(247.3, -15.8)"></use><use href="#unit-23" transform="translate(111.6, 128.4)"></use><use href="#unit-23" transform="translate(-24.2, 272.7)"></use><use href="#unit-23" transform="translate(-160, 416.9)"></use><use href="#unit-23" transform="translate(-295.8, 561.1)"></use><use href="#unit-23" transform="translate(663.1, -168.4)"></use><use href="#unit-23" transform="translate(527.3, -24.2)"></use><use href="#unit-23" transform="translate(391.6, 120)"></use><use href="#unit-23" transform="translate(255.8, 264.2)"></use><use href="#unit-23" transform="translate(120, 408.4)"></use><use href="#unit-23" transform="translate(-15.8, 552.7)"></use><use href="#unit-23" transform="translate(-151.6, 696.9)"></use><use href="#unit-23" transform="translate(807.3, -32.7)"></use><use href="#unit-23" transform="translate(671.6, 111.6)"></use><use href="#unit-23" transform="translate(535.8, 255.8)"></use><use href="#unit-23" transform="translate(400, 400)"></use><use href="#unit-23" transform="translate(264.2, 544.2)"></use><use href="#unit-23" transform="translate(128.4, 688.4)"></use><use href="#unit-23" transform="translate(-7.3, 832.7)"></use><use href="#unit-23" transform="translate(951.6, 103.1)"></use><use href="#unit-23" transform="translate(815.8, 247.3)"></use><use href="#unit-23" transform="translate(680, 391.6)"></use><use href="#unit-23" transform="translate(544.2, 535.8)"></use><use href="#unit-23" transform="translate(408.4, 680)"></use><use href="#unit-23" transform="translate(272.7, 824.2)"></use><use href="#unit-23" transform="translate(136.9, 968.4)"></use><use href="#unit-23" transform="translate(1095.8, 238.9)"></use><use href="#unit-23" transform="translate(960, 383.1)"></use><use href="#unit-23" transform="translate(824.2, 527.3)"></use><use href="#unit-23" transform="translate(688.4, 671.6)"></use><use href="#unit-23" transform="translate(552.7, 815.8)"></use><use href="#unit-23" transform="translate(416.9, 960)"></use><use href="#unit-23" transform="translate(281.1, 1104.2)"></use><use href="#unit-23" transform="translate(1240, 374.7)"></use><use href="#unit-23" transform="translate(1104.2, 518.9)"></use><use href="#unit-23" transform="translate(968.4, 663.1)"></use><use href="#unit-23" transform="translate(832.7, 807.3)"></use><use href="#unit-23" transform="translate(696.9, 951.6)"></use><use href="#unit-23" transform="translate(561.1, 1095.8)"></use><use href="#unit-23" transform="translate(425.3, 1240)"></use><ellipse cx="400" cy="400" rx="600" ry="600" fill="none" stroke="white" stroke-width="560"></ellipse></svg>