<svg viewBox="0 0 800 800" preserveAspectRatio="xMidYMin slice" xmlns="http://www.w3.org/2000/svg"><rect x="0" y="0" width="800" height="800" fill="#FC9304"></rect><path d="M 508.3 585.8 Q 508.3 598.3, 497.4 604.6 L 410.8 654.6 Q 400 660.8, 389.2 654.6 L 302.6 604.6 Q 291.7 598.3, 291.7 585.8 L 291.7 485.8 Q 291.7 473.3, 302.6 467.1 L 389.2 417.1 Q 400 410.8, 410.8 417.1 L 497.4 467.1 Q 508.3 473.3, 508.3 485.8 Z" fill="#FDF3CF" stroke="black" stroke-width="4"></path><path d="M 390.6 789.6 Q 390.6 802.1, 379.8 808.3 L 293.2 858.3 Q 282.4 864.6, 271.5 858.3 L 184.9 808.3 Q 174.1 802.1, 174.1 789.6 L 174.1 689.6 Q 174.1 677.1, 184.9 670.8 L 271.5 620.8 Q 282.4 614.6, 293.2 620.8 L 379.8 670.8 Q 390.6 677.1, 390.6 689.6 Z" fill="#FDF3CF" stroke="black" stroke-width="4"></path><path d="M 625.9 789.6 Q 625.9 802.1, 615.1 808.3 L 528.5 858.3 Q 517.6 864.6, 506.8 858.3 L 420.2 808.3 Q 409.4 802.1, 409.4 789.6 L 409.4 689.6 Q 409.4 677.1, 420.2 670.8 L 506.8 620.8 Q 517.6 614.6, 528.5 620.8 L 615.1 670.8 Q 625.9 677.1, 625.9 689.6 Z" fill="#FDF3CF" stroke="black" stroke-width="4"></path><path d="M 743.5 585.8 Q 743.5 598.3, 732.7 604.6 L 646.1 654.6 Q 635.3 660.8, 624.4 654.6 L 537.8 604.6 Q 527 598.3, 527 585.8 L 527 485.8 Q 527 473.3, 537.8 467.1 L 624.4 417.1 Q 635.3 410.8, 646.1 417.1 L 732.7 467.1 Q 743.5 473.3, 743.5 485.8 Z" fill="#FDF3CF" stroke="black" stroke-width="4"></path><path d="M 625.9 382.1 Q 625.9 394.6, 615.1 400.8 L 528.5 450.8 Q 517.6 457.1, 506.8 450.8 L 420.2 400.8 Q 409.4 394.6, 409.4 382.1 L 409.4 282.1 Q 409.4 269.6, 420.2 263.3 L 506.8 213.3 Q 517.6 207.1, 528.5 213.3 L 615.1 263.3 Q 625.9 269.6, 625.9 282.1 Z" fill="#FDF3CF" stroke="black" stroke-width="4"></path><path d="M 390.6 382.1 Q 390.6 394.6, 379.8 400.8 L 293.2 450.8 Q 282.4 457.1, 271.5 450.8 L 184.9 400.8 Q 174.1 394.6, 174.1 382.1 L 174.1 282.1 Q 174.1 269.6, 184.9 263.3 L 271.5 213.3 Q 282.4 207.1, 293.2 213.3 L 379.8 263.3 Q 390.6 269.6, 390.6 282.1 Z" fill="#FDF3CF" stroke="black" stroke-width="4"></path><path d="M 273 585.8 Q 273 598.3, 262.2 604.6 L 175.6 654.6 Q 164.7 660.8, 153.9 654.6 L 67.3 604.6 Q 56.5 598.3, 56.5 585.8 L 56.5 485.8 Q 56.5 473.3, 67.3 467.1 L 153.9 417.1 Q 164.7 410.8, 175.6 417.1 L 262.2 467.1 Q 273 473.3, 273 485.8 Z" fill="#FDF3CF" stroke="black" stroke-width="4"></path><path d="M 273 993.3 Q 273 1005.8, 262.2 1012.1 L 175.6 1062.1 Q 164.7 1068.3, 153.9 1062.1 L 67.3 1012.1 Q 56.5 1005.8, 56.5 993.3 L 56.5 893.3 Q 56.5 880.8, 67.3 874.6 L 153.9 824.6 Q 164.7 818.3, 175.6 824.6 L 262.2 874.6 Q 273 880.8, 273 893.3 Z" fill="#FDF3CF" stroke="black" stroke-width="4"></path><path d="M 508.3 993.3 Q 508.3 1005.8, 497.4 1012.1 L 410.8 1062.1 Q 400 1068.3, 389.2 1062.1 L 302.6 1012.1 Q 291.7 1005.8, 291.7 993.3 L 291.7 893.3 Q 291.7 880.8, 302.6 874.6 L 389.2 824.6 Q 400 818.3, 410.8 824.6 L 497.4 874.6 Q 508.3 880.8, 508.3 893.3 Z" fill="#FDF3CF" stroke="black" stroke-width="4"></path><path d="M 743.5 993.3 Q 743.5 1005.8, 732.7 1012.1 L 646.1 1062.1 Q 635.3 1068.3, 624.4 1062.1 L 537.8 1012.1 Q 527 1005.8, 527 993.3 L 527 893.3 Q 527 880.8, 537.8 874.6 L 624.4 824.6 Q 635.3 818.3, 646.1 824.6 L 732.7 874.6 Q 743.5 880.8, 743.5 893.3 Z" fill="#FDF3CF" stroke="black" stroke-width="4"></path><path d="M 861.1 789.6 Q 861.1 802.1, 850.3 808.3 L 763.7 858.3 Q 752.9 864.6, 742.1 858.3 L 655.5 808.3 Q 644.6 802.1, 644.6 789.6 L 644.6 689.6 Q 644.6 677.1, 655.5 670.8 L 742.1 620.8 Q 752.9 614.6, 763.7 620.8 L 850.3 670.8 Q 861.1 677.1, 861.1 689.6 Z" fill="#FDF3CF" stroke="black" stroke-width="4"></path><path d="M 978.8 585.8 Q 978.8 598.3, 967.9 604.6 L 881.3 654.6 Q 870.5 660.8, 859.7 654.6 L 773.1 604.6 Q 762.3 598.3, 762.3 585.8 L 762.3 485.8 Q 762.3 473.3, 773.1 467.1 L 859.7 417.1 Q 870.5 410.8, 881.3 417.1 L 967.9 467.1 Q 978.8 473.3, 978.8 485.8 Z" fill="#FDF3CF" stroke="black" stroke-width="4"></path><path d="M 861.1 382.1 Q 861.1 394.6, 850.3 400.8 L 763.7 450.8 Q 752.9 457.1, 742.1 450.8 L 655.5 400.8 Q 644.6 394.6, 644.6 382.1 L 644.6 282.1 Q 644.6 269.6, 655.5 263.3 L 742.1 213.3 Q 752.9 207.1, 763.7 213.3 L 850.3 263.3 Q 861.1 269.6, 861.1 282.1 Z" fill="#FDF3CF" stroke="black" stroke-width="4"></path><path d="M 743.5 178.3 Q 743.5 190.8, 732.7 197.1 L 646.1 247.1 Q 635.3 253.3, 624.4 247.1 L 537.8 197.1 Q 527 190.8, 527 178.3 L 527 78.3 Q 527 65.8, 537.8 59.6 L 624.4 9.6 Q 635.3 3.3, 646.1 9.6 L 732.7 59.6 Q 743.5 65.8, 743.5 78.3 Z" fill="#FDF3CF" stroke="black" stroke-width="4"></path><path d="M 508.3 178.3 Q 508.3 190.8, 497.4 197.1 L 410.8 247.1 Q 400 253.3, 389.2 247.1 L 302.6 197.1 Q 291.7 190.8, 291.7 178.3 L 291.7 78.3 Q 291.7 65.8, 302.6 59.6 L 389.2 9.6 Q 400 3.3, 410.8 9.6 L 497.4 59.6 Q 508.3 65.8, 508.3 78.3 Z" fill="#FDF3CF" stroke="black" stroke-width="4"></path><path d="M 273 178.3 Q 273 190.8, 262.2 197.1 L 175.6 247.1 Q 164.7 253.3, 153.9 247.1 L 67.3 197.1 Q 56.5 190.8, 56.5 178.3 L 56.5 78.3 Q 56.5 65.8, 67.3 59.6 L 153.9 9.6 Q 164.7 3.3, 175.6 9.6 L 262.2 59.6 Q 273 65.8, 273 78.3 Z" fill="#FDF3CF" stroke="black" stroke-width="4"></path><path d="M 155.4 382.1 Q 155.4 394.6, 144.5 400.8 L 57.9 450.8 Q 47.1 457.1, 36.3 450.8 L -50.3 400.8 Q -61.1 394.6, -61.1 382.1 L -61.1 282.1 Q -61.1 269.6, -50.3 263.3 L 36.3 213.3 Q 47.1 207.1, 57.9 213.3 L 144.5 263.3 Q 155.4 269.6, 155.4 282.1 Z" fill="#FDF3CF" stroke="black" stroke-width="4"></path><path d="M 37.7 585.8 Q 37.7 598.3, 26.9 604.6 L -59.7 654.6 Q -70.5 660.8, -81.3 654.6 L -167.9 604.6 Q -178.8 598.3, -178.8 585.8 L -178.8 485.8 Q -178.8 473.3, -167.9 467.1 L -81.3 417.1 Q -70.5 410.8, -59.7 417.1 L 26.9 467.1 Q 37.7 473.3, 37.7 485.8 Z" fill="#FDF3CF" stroke="black" stroke-width="4"></path><path d="M 155.4 789.6 Q 155.4 802.1, 144.5 808.3 L 57.9 858.3 Q 47.1 864.6, 36.3 858.3 L -50.3 808.3 Q -61.1 802.1, -61.1 789.6 L -61.1 689.6 Q -61.1 677.1, -50.3 670.8 L 36.3 620.8 Q 47.1 614.6, 57.9 620.8 L 144.5 670.8 Q 155.4 677.1, 155.4 689.6 Z" fill="#FDF3CF" stroke="black" stroke-width="4"></path><path d="M 155.4 1197 Q 155.4 1209.5, 144.5 1215.8 L 57.9 1265.8 Q 47.1 1272, 36.3 1265.8 L -50.3 1215.8 Q -61.1 1209.5, -61.1 1197 L -61.1 1097 Q -61.1 1084.5, -50.3 1078.3 L 36.3 1028.3 Q 47.1 1022, 57.9 1028.3 L 144.5 1078.3 Q 155.4 1084.5, 155.4 1097 Z" fill="#FDF3CF" stroke="black" stroke-width="4"></path><path d="M 390.6 1197 Q 390.6 1209.5, 379.8 1215.8 L 293.2 1265.8 Q 282.4 1272, 271.5 1265.8 L 184.9 1215.8 Q 174.1 1209.5, 174.1 1197 L 174.1 1097 Q 174.1 1084.5, 184.9 1078.3 L 271.5 1028.3 Q 282.4 1022, 293.2 1028.3 L 379.8 1078.3 Q 390.6 1084.5, 390.6 1097 Z" fill="#FDF3CF" stroke="black" stroke-width="4"></path><path d="M 625.9 1197 Q 625.9 1209.5, 615.1 1215.8 L 528.5 1265.8 Q 517.6 1272, 506.8 1265.8 L 420.2 1215.8 Q 409.4 1209.5, 409.4 1197 L 409.4 1097 Q 409.4 1084.5, 420.2 1078.3 L 506.8 1028.3 Q 517.6 1022, 528.5 1028.3 L 615.1 1078.3 Q 625.9 1084.5, 625.9 1097 Z" fill="#FDF3CF" stroke="black" stroke-width="4"></path><path d="M 861.1 1197 Q 861.1 1209.5, 850.3 1215.8 L 763.7 1265.8 Q 752.9 1272, 742.1 1265.8 L 655.5 1215.8 Q 644.6 1209.5, 644.6 1197 L 644.6 1097 Q 644.6 1084.5, 655.5 1078.3 L 742.1 1028.3 Q 752.9 1022, 763.7 1028.3 L 850.3 1078.3 Q 861.1 1084.5, 861.1 1097 Z" fill="#FDF3CF" stroke="black" stroke-width="4"></path><path d="M 978.8 993.3 Q 978.8 1005.8, 967.9 1012.1 L 881.3 1062.1 Q 870.5 1068.3, 859.7 1062.1 L 773.1 1012.1 Q 762.3 1005.8, 762.3 993.3 L 762.3 893.3 Q 762.3 880.8, 773.1 874.6 L 859.7 824.6 Q 870.5 818.3, 881.3 824.6 L 967.9 874.6 Q 978.8 880.8, 978.8 893.3 Z" fill="#FDF3CF" stroke="black" stroke-width="4"></path><path d="M 1096.4 789.6 Q 1096.4 802.1, 1085.6 808.3 L 999 858.3 Q 988.1 864.6, 977.3 858.3 L 890.7 808.3 Q 879.9 802.1, 879.9 789.6 L 879.9 689.6 Q 879.9 677.1, 890.7 670.8 L 977.3 620.8 Q 988.1 614.6, 999 620.8 L 1085.6 670.8 Q 1096.4 677.1, 1096.4 689.6 Z" fill="#FDF3CF" stroke="black" stroke-width="4"></path><path d="M 1214 585.8 Q 1214 598.3, 1203.2 604.6 L 1116.6 654.6 Q 1105.8 660.8, 1094.9 654.6 L 1008.3 604.6 Q 997.5 598.3, 997.5 585.8 L 997.5 485.8 Q 997.5 473.3, 1008.3 467.1 L 1094.9 417.1 Q 1105.8 410.8, 1116.6 417.1 L 1203.2 467.1 Q 1214 473.3, 1214 485.8 Z" fill="#FDF3CF" stroke="black" stroke-width="4"></path><path d="M 1096.4 382.1 Q 1096.4 394.6, 1085.6 400.8 L 999 450.8 Q 988.1 457.1, 977.3 450.8 L 890.7 400.8 Q 879.9 394.6, 879.9 382.1 L 879.9 282.1 Q 879.9 269.6, 890.7 263.3 L 977.3 213.3 Q 988.1 207.1, 999 213.3 L 1085.6 263.3 Q 1096.4 269.6, 1096.4 282.1 Z" fill="#FDF3CF" stroke="black" stroke-width="4"></path><path d="M 978.8 178.3 Q 978.8 190.8, 967.9 197.1 L 881.3 247.1 Q 870.5 253.3, 859.7 247.1 L 773.1 197.1 Q 762.3 190.8, 762.3 178.3 L 762.3 78.3 Q 762.3 65.8, 773.1 59.6 L 859.7 9.6 Q 870.5 3.3, 881.3 9.6 L 967.9 59.6 Q 978.8 65.8, 978.8 78.3 Z" fill="#FDF3CF" stroke="black" stroke-width="4"></path><path d="M 861.1 -25.4 Q 861.1 -12.9, 850.3 -6.6 L 763.7 43.4 Q 752.9 49.6, 742.1 43.4 L 655.5 -6.6 Q 644.6 -12.9, 644.6 -25.4 L 644.6 -125.4 Q 644.6 -137.9, 655.5 -144.1 L 742.1 -194.1 Q 752.9 -200.4, 763.7 -194.1 L 850.3 -144.1 Q 861.1 -137.9, 861.1 -125.4 Z" fill="#FDF3CF" stroke="black" stroke-width="4"></path><path d="M 625.9 -25.4 Q 625.9 -12.9, 615.1 -6.6 L 528.5 43.4 Q 517.6 49.6, 506.8 43.4 L 420.2 -6.6 Q 409.4 -12.9, 409.4 -25.4 L 409.4 -125.4 Q 409.4 -137.9, 420.2 -144.1 L 506.8 -194.1 Q 517.6 -200.4, 528.5 -194.1 L 615.1 -144.1 Q 625.9 -137.9, 625.9 -125.4 Z" fill="#FDF3CF" stroke="black" stroke-width="4"></path><path d="M 390.6 -25.4 Q 390.6 -12.9, 379.8 -6.6 L 293.2 43.4 Q 282.4 49.6, 271.5 43.4 L 184.9 -6.6 Q 174.1 -12.9, 174.1 -25.4 L 174.1 -125.4 Q 174.1 -137.9, 184.9 -144.1 L 271.5 -194.1 Q 282.4 -200.4, 293.2 -194.1 L 379.8 -144.1 Q 390.6 -137.9, 390.6 -125.4 Z" fill="#FDF3CF" stroke="black" stroke-width="4"></path><path d="M 155.4 -25.4 Q 155.4 -12.9, 144.5 -6.6 L 57.9 43.4 Q 47.1 49.6, 36.3 43.4 L -50.3 -6.6 Q -61.1 -12.9, -61.1 -25.4 L -61.1 -125.4 Q -61.1 -137.9, -50.3 -144.1 L 36.3 -194.1 Q 47.1 -200.4, 57.9 -194.1 L 144.5 -144.1 Q 155.4 -137.9, 155.4 -125.4 Z" fill="#FDF3CF" stroke="black" stroke-width="4"></path><path d="M 37.7 178.3 Q 37.7 190.8, 26.9 197.1 L -59.7 247.1 Q -70.5 253.3, -81.3 247.1 L -167.9 197.1 Q -178.8 190.8, -178.8 178.3 L -178.8 78.3 Q -178.8 65.8, -167.9 59.6 L -81.3 9.6 Q -70.5 3.3, -59.7 9.6 L 26.9 59.6 Q 37.7 65.8, 37.7 78.3 Z" fill="#FDF3CF" stroke="black" stroke-width="4"></path><path d="M -79.9 382.1 Q -79.9 394.6, -90.7 400.8 L -177.3 450.8 Q -188.1 457.1, -199 450.8 L -285.6 400.8 Q -296.4 394.6, -296.4 382.1 L -296.4 282.1 Q -296.4 269.6, -285.6 263.3 L -199 213.3 Q -188.1 207.1, -177.3 213.3 L -90.7 263.3 Q -79.9 269.6, -79.9 282.1 Z" fill="#FDF3CF" stroke="black" stroke-width="4"></path><path d="M -197.5 585.8 Q -197.5 598.3, -208.3 604.6 L -294.9 654.6 Q -305.8 660.8, -316.6 654.6 L -403.2 604.6 Q -414 598.3, -414 585.8 L -414 485.8 Q -414 473.3, -403.2 467.1 L -316.6 417.1 Q -305.8 410.8, -294.9 417.1 L -208.3 467.1 Q -197.5 473.3, -197.5 485.8 Z" fill="#FDF3CF" stroke="black" stroke-width="4"></path><path d="M -79.9 789.6 Q -79.9 802.1, -90.7 808.3 L -177.3 858.3 Q -188.1 864.6, -199 858.3 L -285.6 808.3 Q -296.4 802.1, -296.4 789.6 L -296.4 689.6 Q -296.4 677.1, -285.6 670.8 L -199 620.8 Q -188.1 614.6, -177.3 620.8 L -90.7 670.8 Q -79.9 677.1, -79.9 689.6 Z" fill="#FDF3CF" stroke="black" stroke-width="4"></path><path d="M 37.7 993.3 Q 37.7 1005.8, 26.9 1012.1 L -59.7 1062.1 Q -70.5 1068.3, -81.3 1062.1 L -167.9 1012.1 Q -178.8 1005.8, -178.8 993.3 L -178.8 893.3 Q -178.8 880.8, -167.9 874.6 L -81.3 824.6 Q -70.5 818.3, -59.7 824.6 L 26.9 874.6 Q 37.7 880.8, 37.7 893.3 Z" fill="#FDF3CF" stroke="black" stroke-width="4"></path><path d="M 37.7 1400.8 Q 37.7 1413.3, 26.9 1419.5 L -59.7 1469.5 Q -70.5 1475.8, -81.3 1469.5 L -167.9 1419.5 Q -178.8 1413.3, -178.8 1400.8 L -178.8 1300.8 Q -178.8 1288.3, -167.9 1282 L -81.3 1232 Q -70.5 1225.8, -59.7 1232 L 26.9 1282 Q 37.7 1288.3, 37.7 1300.8 Z" fill="#FDF3CF" stroke="black" stroke-width="4"></path><path d="M 273 1400.8 Q 273 1413.3, 262.2 1419.5 L 175.6 1469.5 Q 164.7 1475.8, 153.9 1469.5 L 67.3 1419.5 Q 56.5 1413.3, 56.5 1400.8 L 56.5 1300.8 Q 56.5 1288.3, 67.3 1282 L 153.9 1232 Q 164.7 1225.8, 175.6 1232 L 262.2 1282 Q 273 1288.3, 273 1300.8 Z" fill="#FDF3CF" stroke="black" stroke-width="4"></path><path d="M 508.3 1400.8 Q 508.3 1413.3, 497.4 1419.5 L 410.8 1469.5 Q 400 1475.8, 389.2 1469.5 L 302.6 1419.5 Q 291.7 1413.3, 291.7 1400.8 L 291.7 1300.8 Q 291.7 1288.3, 302.6 1282 L 389.2 1232 Q 400 1225.8, 410.8 1232 L 497.4 1282 Q 508.3 1288.3, 508.3 1300.8 Z" fill="#FDF3CF" stroke="black" stroke-width="4"></path><path d="M 743.5 1400.8 Q 743.5 1413.3, 732.7 1419.5 L 646.1 1469.5 Q 635.3 1475.8, 624.4 1469.5 L 537.8 1419.5 Q 527 1413.3, 527 1400.8 L 527 1300.8 Q 527 1288.3, 537.8 1282 L 624.4 1232 Q 635.3 1225.8, 646.1 1232 L 732.7 1282 Q 743.5 1288.3, 743.5 1300.8 Z" fill="#FDF3CF" stroke="black" stroke-width="4"></path><path d="M 978.8 1400.8 Q 978.8 1413.3, 967.9 1419.5 L 881.3 1469.5 Q 870.5 1475.8, 859.7 1469.5 L 773.1 1419.5 Q 762.3 1413.3, 762.3 1400.8 L 762.3 1300.8 Q 762.3 1288.3, 773.1 1282 L 859.7 1232 Q 870.5 1225.8, 881.3 1232 L 967.9 1282 Q 978.8 1288.3, 978.8 1300.8 Z" fill="#FDF3CF" stroke="black" stroke-width="4"></path><path d="M 1096.4 1197 Q 1096.4 1209.5, 1085.6 1215.8 L 999 1265.8 Q 988.1 1272, 977.3 1265.8 L 890.7 1215.8 Q 879.9 1209.5, 879.9 1197 L 879.9 1097 Q 879.9 1084.5, 890.7 1078.3 L 977.3 1028.3 Q 988.1 1022, 999 1028.3 L 1085.6 1078.3 Q 1096.4 1084.5, 1096.4 1097 Z" fill="#FDF3CF" stroke="black" stroke-width="4"></path><path d="M 1214 993.3 Q 1214 1005.8, 1203.2 1012.1 L 1116.6 1062.1 Q 1105.8 1068.3, 1094.9 1062.1 L 1008.3 1012.1 Q 997.5 1005.8, 997.5 993.3 L 997.5 893.3 Q 997.5 880.8, 1008.3 874.6 L 1094.9 824.6 Q 1105.8 818.3, 1116.6 824.6 L 1203.2 874.6 Q 1214 880.8, 1214 893.3 Z" fill="#FDF3CF" stroke="black" stroke-width="4"></path><path d="M 1331.7 789.6 Q 1331.7 802.1, 1320.8 808.3 L 1234.2 858.3 Q 1223.4 864.6, 1212.6 858.3 L 1126 808.3 Q 1115.1 802.1, 1115.1 789.6 L 1115.1 689.6 Q 1115.1 677.1, 1126 670.8 L 1212.6 620.8 Q 1223.4 614.6, 1234.2 620.8 L 1320.8 670.8 Q 1331.7 677.1, 1331.7 689.6 Z" fill="#FDF3CF" stroke="black" stroke-width="4"></path><path d="M 1449.3 585.8 Q 1449.3 598.3, 1438.5 604.6 L 1351.9 654.6 Q 1341 660.8, 1330.2 654.6 L 1243.6 604.6 Q 1232.8 598.3, 1232.8 585.8 L 1232.8 485.8 Q 1232.8 473.3, 1243.6 467.1 L 1330.2 417.1 Q 1341 410.8, 1351.9 417.1 L 1438.5 467.1 Q 1449.3 473.3, 1449.3 485.8 Z" fill="#FDF3CF" stroke="black" stroke-width="4"></path><path d="M 1331.7 382.1 Q 1331.7 394.6, 1320.8 400.8 L 1234.2 450.8 Q 1223.4 457.1, 1212.6 450.8 L 1126 400.8 Q 1115.1 394.6, 1115.1 382.1 L 1115.1 282.1 Q 1115.1 269.6, 1126 263.3 L 1212.6 213.3 Q 1223.4 207.1, 1234.2 213.3 L 1320.8 263.3 Q 1331.7 269.6, 1331.7 282.1 Z" fill="#FDF3CF" stroke="black" stroke-width="4"></path><path d="M 1214 178.3 Q 1214 190.8, 1203.2 197.1 L 1116.6 247.1 Q 1105.8 253.3, 1094.9 247.1 L 1008.3 197.1 Q 997.5 190.8, 997.5 178.3 L 997.5 78.3 Q 997.5 65.8, 1008.3 59.6 L 1094.9 9.6 Q 1105.8 3.3, 1116.6 9.6 L 1203.2 59.6 Q 1214 65.8, 1214 78.3 Z" fill="#FDF3CF" stroke="black" stroke-width="4"></path><path d="M 1096.4 -25.4 Q 1096.4 -12.9, 1085.6 -6.6 L 999 43.4 Q 988.1 49.6, 977.3 43.4 L 890.7 -6.6 Q 879.9 -12.9, 879.9 -25.4 L 879.9 -125.4 Q 879.9 -137.9, 890.7 -144.1 L 977.3 -194.1 Q 988.1 -200.4, 999 -194.1 L 1085.6 -144.1 Q 1096.4 -137.9, 1096.4 -125.4 Z" fill="#FDF3CF" stroke="black" stroke-width="4"></path><path d="M 978.8 -229.1 Q 978.8 -216.6, 967.9 -210.4 L 881.3 -160.4 Q 870.5 -154.1, 859.7 -160.4 L 773.1 -210.4 Q 762.3 -216.6, 762.3 -229.1 L 762.3 -329.1 Q 762.3 -341.6, 773.1 -347.9 L 859.7 -397.9 Q 870.5 -404.1, 881.3 -397.9 L 967.9 -347.9 Q 978.8 -341.6, 978.8 -329.1 Z" fill="#FDF3CF" stroke="black" stroke-width="4"></path><path d="M 743.5 -229.1 Q 743.5 -216.6, 732.7 -210.4 L 646.1 -160.4 Q 635.3 -154.1, 624.4 -160.4 L 537.8 -210.4 Q 527 -216.6, 527 -229.1 L 527 -329.1 Q 527 -341.6, 537.8 -347.9 L 624.4 -397.9 Q 635.3 -404.1, 646.1 -397.9 L 732.7 -347.9 Q 743.5 -341.6, 743.5 -329.1 Z" fill="#FDF3CF" stroke="black" stroke-width="4"></path><path d="M 508.3 -229.1 Q 508.3 -216.6, 497.4 -210.4 L 410.8 -160.4 Q 400 -154.1, 389.2 -160.4 L 302.6 -210.4 Q 291.7 -216.6, 291.7 -229.1 L 291.7 -329.1 Q 291.7 -341.6, 302.6 -347.9 L 389.2 -397.9 Q 400 -404.1, 410.8 -397.9 L 497.4 -347.9 Q 508.3 -341.6, 508.3 -329.1 Z" fill="#FDF3CF" stroke="black" stroke-width="4"></path><path d="M 273 -229.1 Q 273 -216.6, 262.2 -210.4 L 175.6 -160.4 Q 164.7 -154.1, 153.9 -160.4 L 67.3 -210.4 Q 56.5 -216.6, 56.5 -229.1 L 56.5 -329.1 Q 56.5 -341.6, 67.3 -347.9 L 153.9 -397.9 Q 164.7 -404.1, 175.6 -397.9 L 262.2 -347.9 Q 273 -341.6, 273 -329.1 Z" fill="#FDF3CF" stroke="black" stroke-width="4"></path><path d="M 37.7 -229.1 Q 37.7 -216.6, 26.9 -210.4 L -59.7 -160.4 Q -70.5 -154.1, -81.3 -160.4 L -167.9 -210.4 Q -178.8 -216.6, -178.8 -229.1 L -178.8 -329.1 Q -178.8 -341.6, -167.9 -347.9 L -81.3 -397.9 Q -70.5 -404.1, -59.7 -397.9 L 26.9 -347.9 Q 37.7 -341.6, 37.7 -329.1 Z" fill="#FDF3CF" stroke="black" stroke-width="4"></path><path d="M -79.9 -25.4 Q -79.9 -12.9, -90.7 -6.6 L -177.3 43.4 Q -188.1 49.6, -199 43.4 L -285.6 -6.6 Q -296.4 -12.9, -296.4 -25.4 L -296.4 -125.4 Q -296.4 -137.9, -285.6 -144.1 L -199 -194.1 Q -188.1 -200.4, -177.3 -194.1 L -90.7 -144.1 Q -79.9 -137.9, -79.9 -125.4 Z" fill="#FDF3CF" stroke="black" stroke-width="4"></path><path d="M -197.5 178.3 Q -197.5 190.8, -208.3 197.1 L -294.9 247.1 Q -305.8 253.3, -316.6 247.1 L -403.2 197.1 Q -414 190.8, -414 178.3 L -414 78.3 Q -414 65.8, -403.2 59.6 L -316.6 9.6 Q -305.8 3.3, -294.9 9.6 L -208.3 59.6 Q -197.5 65.8, -197.5 78.3 Z" fill="#FDF3CF" stroke="black" stroke-width="4"></path><path d="M -315.1 382.1 Q -315.1 394.6, -326 400.8 L -412.6 450.8 Q -423.4 457.1, -434.2 450.8 L -520.8 400.8 Q -531.7 394.6, -531.7 382.1 L -531.7 282.1 Q -531.7 269.6, -520.8 263.3 L -434.2 213.3 Q -423.4 207.1, -412.6 213.3 L -326 263.3 Q -315.1 269.6, -315.1 282.1 Z" fill="#FDF3CF" stroke="black" stroke-width="4"></path><path d="M -432.8 585.8 Q -432.8 598.3, -443.6 604.6 L -530.2 654.6 Q -541 660.8, -551.9 654.6 L -638.5 604.6 Q -649.3 598.3, -649.3 585.8 L -649.3 485.8 Q -649.3 473.3, -638.5 467.1 L -551.9 417.1 Q -541 410.8, -530.2 417.1 L -443.6 467.1 Q -432.8 473.3, -432.8 485.8 Z" fill="#FDF3CF" stroke="black" stroke-width="4"></path><path d="M -315.1 789.6 Q -315.1 802.1, -326 808.3 L -412.6 858.3 Q -423.4 864.6, -434.2 858.3 L -520.8 808.3 Q -531.7 802.1, -531.7 789.6 L -531.7 689.6 Q -531.7 677.1, -520.8 670.8 L -434.2 620.8 Q -423.4 614.6, -412.6 620.8 L -326 670.8 Q -315.1 677.1, -315.1 689.6 Z" fill="#FDF3CF" stroke="black" stroke-width="4"></path><path d="M -197.5 993.3 Q -197.5 1005.8, -208.3 1012.1 L -294.9 1062.1 Q -305.8 1068.3, -316.6 1062.1 L -403.2 1012.1 Q -414 1005.8, -414 993.3 L -414 893.3 Q -414 880.8, -403.2 874.6 L -316.6 824.6 Q -305.8 818.3, -294.9 824.6 L -208.3 874.6 Q -197.5 880.8, -197.5 893.3 Z" fill="#FDF3CF" stroke="black" stroke-width="4"></path><path d="M -79.9 1197 Q -79.9 1209.5, -90.7 1215.8 L -177.3 1265.8 Q -188.1 1272, -199 1265.8 L -285.6 1215.8 Q -296.4 1209.5, -296.4 1197 L -296.4 1097 Q -296.4 1084.5, -285.6 1078.3 L -199 1028.3 Q -188.1 1022, -177.3 1028.3 L -90.7 1078.3 Q -79.9 1084.5, -79.9 1097 Z" fill="#FDF3CF" stroke="black" stroke-width="4"></path><path d="M 471.6 641.1 L 506.8 620.8 Q 517.6 614.6, 528.5 620.8 L 563.6 641.1 L 532.8 694.5 Q 517.6 720.8, 502.4 694.5 Z" fill="#FCD55C" stroke="black" stroke-width="4"></path><path d="M 508.3 545.2 L 508.3 585.8 Q 508.3 598.3, 497.4 604.6 L 462.2 624.9 L 431.4 571.5 Q 416.2 545.2, 446.7 545.2 Z" fill="#FCD55C" stroke="black" stroke-width="4"></path><path d="M 573 624.9 L 537.8 604.6 Q 527 598.3, 527 585.8 L 527 545.2 L 588.6 545.2 Q 619 545.2, 603.8 571.5 Z" fill="#FCD55C" stroke="black" stroke-width="4"></path><path d="M 344.6 650.5 L 379.8 670.8 Q 390.6 677.1, 390.6 689.6 L 390.6 730.2 L 329 730.2 Q 298.6 730.2, 313.8 703.8 Z" fill="#FCD55C" stroke="black" stroke-width="4"></path><path d="M 446 634.3 L 410.8 654.6 Q 400 660.8, 389.2 654.6 L 354 634.3 L 384.8 580.9 Q 400 554.6, 415.2 580.9 Z" fill="#FCD55C" stroke="black" stroke-width="4"></path><path d="M 409.4 730.2 L 409.4 689.6 Q 409.4 677.1, 420.2 670.8 L 455.4 650.5 L 486.2 703.8 Q 501.4 730.2, 471 730.2 Z" fill="#FCD55C" stroke="black" stroke-width="4"></path><path d="M 354 844.9 L 389.2 824.6 Q 400 818.3, 410.8 824.6 L 446 844.9 L 415.2 898.2 Q 400 924.6, 384.8 898.2 Z" fill="#FCD55C" stroke="black" stroke-width="4"></path><path d="M 390.6 748.9 L 390.6 789.6 Q 390.6 802.1, 379.8 808.3 L 344.6 828.6 L 313.8 775.3 Q 298.6 748.9, 329 748.9 Z" fill="#FCD55C" stroke="black" stroke-width="4"></path><path d="M 455.4 828.6 L 420.2 808.3 Q 409.4 802.1, 409.4 789.6 L 409.4 748.9 L 471 748.9 Q 501.4 748.9, 486.2 775.3 Z" fill="#FCD55C" stroke="black" stroke-width="4"></path><path d="M 227 854.2 L 262.2 874.6 Q 273 880.8, 273 893.3 L 273 933.9 L 211.4 933.9 Q 181 933.9, 196.2 907.6 Z" fill="#FCD55C" stroke="black" stroke-width="4"></path><path d="M 328.4 838 L 293.2 858.3 Q 282.4 864.6, 271.5 858.3 L 236.4 838 L 267.2 784.7 Q 282.4 758.3, 297.6 784.7 Z" fill="#FCD55C" stroke="black" stroke-width="4"></path><path d="M 291.7 933.9 L 291.7 893.3 Q 291.7 880.8, 302.6 874.6 L 337.8 854.2 L 368.6 907.6 Q 383.8 933.9, 353.3 933.9 Z" fill="#FCD55C" stroke="black" stroke-width="4"></path><path d="M 589.2 844.9 L 624.4 824.6 Q 635.3 818.3, 646.1 824.6 L 681.3 844.9 L 650.5 898.2 Q 635.3 924.6, 620 898.2 Z" fill="#FCD55C" stroke="black" stroke-width="4"></path><path d="M 625.9 748.9 L 625.9 789.6 Q 625.9 802.1, 615.1 808.3 L 579.9 828.6 L 549.1 775.3 Q 533.9 748.9, 564.3 748.9 Z" fill="#FCD55C" stroke="black" stroke-width="4"></path><path d="M 690.6 828.6 L 655.5 808.3 Q 644.6 802.1, 644.6 789.6 L 644.6 748.9 L 706.2 748.9 Q 736.6 748.9, 721.4 775.3 Z" fill="#FCD55C" stroke="black" stroke-width="4"></path><path d="M 462.2 854.2 L 497.4 874.6 Q 508.3 880.8, 508.3 893.3 L 508.3 933.9 L 446.7 933.9 Q 416.2 933.9, 431.4 907.6 Z" fill="#FCD55C" stroke="black" stroke-width="4"></path><path d="M 563.6 838 L 528.5 858.3 Q 517.6 864.6, 506.8 858.3 L 471.6 838 L 502.4 784.7 Q 517.6 758.3, 532.8 784.7 Z" fill="#FCD55C" stroke="black" stroke-width="4"></path><path d="M 527 933.9 L 527 893.3 Q 527 880.8, 537.8 874.6 L 573 854.2 L 603.8 907.6 Q 619 933.9, 588.6 933.9 Z" fill="#FCD55C" stroke="black" stroke-width="4"></path><path d="M 706.9 641.1 L 742.1 620.8 Q 752.9 614.6, 763.7 620.8 L 798.9 641.1 L 768.1 694.5 Q 752.9 720.8, 737.7 694.5 Z" fill="#FCD55C" stroke="black" stroke-width="4"></path><path d="M 743.5 545.2 L 743.5 585.8 Q 743.5 598.3, 732.7 604.6 L 697.5 624.9 L 666.7 571.5 Q 651.5 545.2, 681.9 545.2 Z" fill="#FCD55C" stroke="black" stroke-width="4"></path><path d="M 808.3 624.9 L 773.1 604.6 Q 762.3 598.3, 762.3 585.8 L 762.3 545.2 L 823.9 545.2 Q 854.3 545.2, 839.1 571.5 Z" fill="#FCD55C" stroke="black" stroke-width="4"></path><path d="M 579.9 650.5 L 615.1 670.8 Q 625.9 677.1, 625.9 689.6 L 625.9 730.2 L 564.3 730.2 Q 533.9 730.2, 549.1 703.8 Z" fill="#FCD55C" stroke="black" stroke-width="4"></path><path d="M 681.3 634.3 L 646.1 654.6 Q 635.3 660.8, 624.4 654.6 L 589.2 634.3 L 620 580.9 Q 635.3 554.6, 650.5 580.9 Z" fill="#FCD55C" stroke="black" stroke-width="4"></path><path d="M 644.6 730.2 L 644.6 689.6 Q 644.6 677.1, 655.5 670.8 L 690.6 650.5 L 721.4 703.8 Q 736.6 730.2, 706.2 730.2 Z" fill="#FCD55C" stroke="black" stroke-width="4"></path><path d="M 589.2 437.4 L 624.4 417.1 Q 635.3 410.8, 646.1 417.1 L 681.3 437.4 L 650.5 490.7 Q 635.3 517.1, 620 490.7 Z" fill="#FCD55C" stroke="black" stroke-width="4"></path><path d="M 625.9 341.5 L 625.9 382.1 Q 625.9 394.6, 615.1 400.8 L 579.9 421.1 L 549.1 367.8 Q 533.9 341.5, 564.3 341.5 Z" fill="#FCD55C" stroke="black" stroke-width="4"></path><path d="M 690.6 421.1 L 655.5 400.8 Q 644.6 394.6, 644.6 382.1 L 644.6 341.5 L 706.2 341.5 Q 736.6 341.5, 721.4 367.8 Z" fill="#FCD55C" stroke="black" stroke-width="4"></path><path d="M 462.2 446.8 L 497.4 467.1 Q 508.3 473.3, 508.3 485.8 L 508.3 526.5 L 446.7 526.5 Q 416.2 526.5, 431.4 500.1 Z" fill="#FCD55C" stroke="black" stroke-width="4"></path><path d="M 563.6 430.5 L 528.5 450.8 Q 517.6 457.1, 506.8 450.8 L 471.6 430.5 L 502.4 377.2 Q 517.6 350.8, 532.8 377.2 Z" fill="#FCD55C" stroke="black" stroke-width="4"></path><path d="M 527 526.5 L 527 485.8 Q 527 473.3, 537.8 467.1 L 573 446.8 L 603.8 500.1 Q 619 526.5, 588.6 526.5 Z" fill="#FCD55C" stroke="black" stroke-width="4"></path><path d="M 354 437.4 L 389.2 417.1 Q 400 410.8, 410.8 417.1 L 446 437.4 L 415.2 490.7 Q 400 517.1, 384.8 490.7 Z" fill="#FCD55C" stroke="black" stroke-width="4"></path><path d="M 390.6 341.5 L 390.6 382.1 Q 390.6 394.6, 379.8 400.8 L 344.6 421.1 L 313.8 367.8 Q 298.6 341.5, 329 341.5 Z" fill="#FCD55C" stroke="black" stroke-width="4"></path><path d="M 455.4 421.1 L 420.2 400.8 Q 409.4 394.6, 409.4 382.1 L 409.4 341.5 L 471 341.5 Q 501.4 341.5, 486.2 367.8 Z" fill="#FCD55C" stroke="black" stroke-width="4"></path><path d="M 227 446.8 L 262.2 467.1 Q 273 473.3, 273 485.8 L 273 526.5 L 211.4 526.5 Q 181 526.5, 196.2 500.1 Z" fill="#FCD55C" stroke="black" stroke-width="4"></path><path d="M 328.4 430.5 L 293.2 450.8 Q 282.4 457.1, 271.5 450.8 L 236.4 430.5 L 267.2 377.2 Q 282.4 350.8, 297.6 377.2 Z" fill="#FCD55C" stroke="black" stroke-width="4"></path><path d="M 291.7 526.5 L 291.7 485.8 Q 291.7 473.3, 302.6 467.1 L 337.8 446.8 L 368.6 500.1 Q 383.8 526.5, 353.3 526.5 Z" fill="#FCD55C" stroke="black" stroke-width="4"></path><path d="M 236.4 641.1 L 271.5 620.8 Q 282.4 614.6, 293.2 620.8 L 328.4 641.1 L 297.6 694.5 Q 282.4 720.8, 267.2 694.5 Z" fill="#FCD55C" stroke="black" stroke-width="4"></path><path d="M 273 545.2 L 273 585.8 Q 273 598.3, 262.2 604.6 L 227 624.9 L 196.2 571.5 Q 181 545.2, 211.4 545.2 Z" fill="#FCD55C" stroke="black" stroke-width="4"></path><path d="M 337.8 624.9 L 302.6 604.6 Q 291.7 598.3, 291.7 585.8 L 291.7 545.2 L 353.3 545.2 Q 383.8 545.2, 368.6 571.5 Z" fill="#FCD55C" stroke="black" stroke-width="4"></path><path d="M 109.4 650.5 L 144.5 670.8 Q 155.4 677.1, 155.4 689.6 L 155.4 730.2 L 93.8 730.2 Q 63.4 730.2, 78.6 703.8 Z" fill="#FCD55C" stroke="black" stroke-width="4"></path><path d="M 210.8 634.3 L 175.6 654.6 Q 164.7 660.8, 153.9 654.6 L 118.7 634.3 L 149.5 580.9 Q 164.7 554.6, 180 580.9 Z" fill="#FCD55C" stroke="black" stroke-width="4"></path><path d="M 174.1 730.2 L 174.1 689.6 Q 174.1 677.1, 184.9 670.8 L 220.1 650.5 L 250.9 703.8 Q 266.1 730.2, 235.7 730.2 Z" fill="#FCD55C" stroke="black" stroke-width="4"></path><path d="M 236.4 1048.6 L 271.5 1028.3 Q 282.4 1022, 293.2 1028.3 L 328.4 1048.6 L 297.6 1101.9 Q 282.4 1128.3, 267.2 1101.9 Z" fill="#FCD55C" stroke="black" stroke-width="4"></path><path d="M 273 952.7 L 273 993.3 Q 273 1005.8, 262.2 1012.1 L 227 1032.4 L 196.2 979 Q 181 952.7, 211.4 952.7 Z" fill="#FCD55C" stroke="black" stroke-width="4"></path><path d="M 337.8 1032.4 L 302.6 1012.1 Q 291.7 1005.8, 291.7 993.3 L 291.7 952.7 L 353.3 952.7 Q 383.8 952.7, 368.6 979 Z" fill="#FCD55C" stroke="black" stroke-width="4"></path><path d="M 109.4 1058 L 144.5 1078.3 Q 155.4 1084.5, 155.4 1097 L 155.4 1137.7 L 93.8 1137.7 Q 63.4 1137.7, 78.6 1111.3 Z" fill="#FCD55C" stroke="black" stroke-width="4"></path><path d="M 210.8 1041.7 L 175.6 1062.1 Q 164.7 1068.3, 153.9 1062.1 L 118.7 1041.7 L 149.5 988.4 Q 164.7 962.1, 180 988.4 Z" fill="#FCD55C" stroke="black" stroke-width="4"></path><path d="M 174.1 1137.7 L 174.1 1097 Q 174.1 1084.5, 184.9 1078.3 L 220.1 1058 L 250.9 1111.3 Q 266.1 1137.7, 235.7 1137.7 Z" fill="#FCD55C" stroke="black" stroke-width="4"></path><path d="M 471.6 1048.6 L 506.8 1028.3 Q 517.6 1022, 528.5 1028.3 L 563.6 1048.6 L 532.8 1101.9 Q 517.6 1128.3, 502.4 1101.9 Z" fill="#FCD55C" stroke="black" stroke-width="4"></path><path d="M 508.3 952.7 L 508.3 993.3 Q 508.3 1005.8, 497.4 1012.1 L 462.2 1032.4 L 431.4 979 Q 416.2 952.7, 446.7 952.7 Z" fill="#FCD55C" stroke="black" stroke-width="4"></path><path d="M 573 1032.4 L 537.8 1012.1 Q 527 1005.8, 527 993.3 L 527 952.7 L 588.6 952.7 Q 619 952.7, 603.8 979 Z" fill="#FCD55C" stroke="black" stroke-width="4"></path><path d="M 344.6 1058 L 379.8 1078.3 Q 390.6 1084.5, 390.6 1097 L 390.6 1137.7 L 329 1137.7 Q 298.6 1137.7, 313.8 1111.3 Z" fill="#FCD55C" stroke="black" stroke-width="4"></path><path d="M 446 1041.7 L 410.8 1062.1 Q 400 1068.3, 389.2 1062.1 L 354 1041.7 L 384.8 988.4 Q 400 962.1, 415.2 988.4 Z" fill="#FCD55C" stroke="black" stroke-width="4"></path><path d="M 409.4 1137.7 L 409.4 1097 Q 409.4 1084.5, 420.2 1078.3 L 455.4 1058 L 486.2 1111.3 Q 501.4 1137.7, 471 1137.7 Z" fill="#FCD55C" stroke="black" stroke-width="4"></path><path d="M 706.9 1048.6 L 742.1 1028.3 Q 752.9 1022, 763.7 1028.3 L 798.9 1048.6 L 768.1 1101.9 Q 752.9 1128.3, 737.7 1101.9 Z" fill="#FCD55C" stroke="black" stroke-width="4"></path><path d="M 743.5 952.7 L 743.5 993.3 Q 743.5 1005.8, 732.7 1012.1 L 697.5 1032.4 L 666.7 979 Q 651.5 952.7, 681.9 952.7 Z" fill="#FCD55C" stroke="black" stroke-width="4"></path><path d="M 808.3 1032.4 L 773.1 1012.1 Q 762.3 1005.8, 762.3 993.3 L 762.3 952.7 L 823.9 952.7 Q 854.3 952.7, 839.1 979 Z" fill="#FCD55C" stroke="black" stroke-width="4"></path><path d="M 579.9 1058 L 615.1 1078.3 Q 625.9 1084.5, 625.9 1097 L 625.9 1137.7 L 564.3 1137.7 Q 533.9 1137.7, 549.1 1111.3 Z" fill="#FCD55C" stroke="black" stroke-width="4"></path><path d="M 681.3 1041.7 L 646.1 1062.1 Q 635.3 1068.3, 624.4 1062.1 L 589.2 1041.7 L 620 988.4 Q 635.3 962.1, 650.5 988.4 Z" fill="#FCD55C" stroke="black" stroke-width="4"></path><path d="M 644.6 1137.7 L 644.6 1097 Q 644.6 1084.5, 655.5 1078.3 L 690.6 1058 L 721.4 1111.3 Q 736.6 1137.7, 706.2 1137.7 Z" fill="#FCD55C" stroke="black" stroke-width="4"></path><path d="M 824.5 844.9 L 859.7 824.6 Q 870.5 818.3, 881.3 824.6 L 916.5 844.9 L 885.7 898.2 Q 870.5 924.6, 855.3 898.2 Z" fill="#FCD55C" stroke="black" stroke-width="4"></path><path d="M 861.1 748.9 L 861.1 789.6 Q 861.1 802.1, 850.3 808.3 L 815.1 828.6 L 784.3 775.3 Q 769.1 748.9, 799.5 748.9 Z" fill="#FCD55C" stroke="black" stroke-width="4"></path><path d="M 925.9 828.6 L 890.7 808.3 Q 879.9 802.1, 879.9 789.6 L 879.9 748.9 L 941.5 748.9 Q 971.9 748.9, 956.7 775.3 Z" fill="#FCD55C" stroke="black" stroke-width="4"></path><path d="M 697.5 854.2 L 732.7 874.6 Q 743.5 880.8, 743.5 893.3 L 743.5 933.9 L 681.9 933.9 Q 651.5 933.9, 666.7 907.6 Z" fill="#FCD55C" stroke="black" stroke-width="4"></path><path d="M 798.9 838 L 763.7 858.3 Q 752.9 864.6, 742.1 858.3 L 706.9 838 L 737.7 784.7 Q 752.9 758.3, 768.1 784.7 Z" fill="#FCD55C" stroke="black" stroke-width="4"></path><path d="M 762.3 933.9 L 762.3 893.3 Q 762.3 880.8, 773.1 874.6 L 808.3 854.2 L 839.1 907.6 Q 854.3 933.9, 823.9 933.9 Z" fill="#FCD55C" stroke="black" stroke-width="4"></path><path d="M 942.1 641.1 L 977.3 620.8 Q 988.1 614.6, 999 620.8 L 1034.1 641.1 L 1003.3 694.5 Q 988.1 720.8, 972.9 694.5 Z" fill="#FCD55C" stroke="black" stroke-width="4"></path><path d="M 978.8 545.2 L 978.8 585.8 Q 978.8 598.3, 967.9 604.6 L 932.8 624.9 L 902 571.5 Q 886.8 545.2, 917.2 545.2 Z" fill="#FCD55C" stroke="black" stroke-width="4"></path><path d="M 1043.5 624.9 L 1008.3 604.6 Q 997.5 598.3, 997.5 585.8 L 997.5 545.2 L 1059.1 545.2 Q 1089.5 545.2, 1074.3 571.5 Z" fill="#FCD55C" stroke="black" stroke-width="4"></path><path d="M 815.1 650.5 L 850.3 670.8 Q 861.1 677.1, 861.1 689.6 L 861.1 730.2 L 799.5 730.2 Q 769.1 730.2, 784.3 703.8 Z" fill="#FCD55C" stroke="black" stroke-width="4"></path><path d="M 916.5 634.3 L 881.3 654.6 Q 870.5 660.8, 859.7 654.6 L 824.5 634.3 L 855.3 580.9 Q 870.5 554.6, 885.7 580.9 Z" fill="#FCD55C" stroke="black" stroke-width="4"></path><path d="M 879.9 730.2 L 879.9 689.6 Q 879.9 677.1, 890.7 670.8 L 925.9 650.5 L 956.7 703.8 Q 971.9 730.2, 941.5 730.2 Z" fill="#FCD55C" stroke="black" stroke-width="4"></path><path d="M 824.5 437.4 L 859.7 417.1 Q 870.5 410.8, 881.3 417.1 L 916.5 437.4 L 885.7 490.7 Q 870.5 517.1, 855.3 490.7 Z" fill="#FCD55C" stroke="black" stroke-width="4"></path><path d="M 861.1 341.5 L 861.1 382.1 Q 861.1 394.6, 850.3 400.8 L 815.1 421.1 L 784.3 367.8 Q 769.1 341.5, 799.5 341.5 Z" fill="#FCD55C" stroke="black" stroke-width="4"></path><path d="M 925.9 421.1 L 890.7 400.8 Q 879.9 394.6, 879.9 382.1 L 879.9 341.5 L 941.5 341.5 Q 971.9 341.5, 956.7 367.8 Z" fill="#FCD55C" stroke="black" stroke-width="4"></path><path d="M 697.5 446.8 L 732.7 467.1 Q 743.5 473.3, 743.5 485.8 L 743.5 526.5 L 681.9 526.5 Q 651.5 526.5, 666.7 500.1 Z" fill="#FCD55C" stroke="black" stroke-width="4"></path><path d="M 798.9 430.5 L 763.7 450.8 Q 752.9 457.1, 742.1 450.8 L 706.9 430.5 L 737.7 377.2 Q 752.9 350.8, 768.1 377.2 Z" fill="#FCD55C" stroke="black" stroke-width="4"></path><path d="M 762.3 526.5 L 762.3 485.8 Q 762.3 473.3, 773.1 467.1 L 808.3 446.8 L 839.1 500.1 Q 854.3 526.5, 823.9 526.5 Z" fill="#FCD55C" stroke="black" stroke-width="4"></path><path d="M 706.9 233.6 L 742.1 213.3 Q 752.9 207.1, 763.7 213.3 L 798.9 233.6 L 768.1 287 Q 752.9 313.3, 737.7 287 Z" fill="#FCD55C" stroke="black" stroke-width="4"></path><path d="M 743.5 137.7 L 743.5 178.3 Q 743.5 190.8, 732.7 197.1 L 697.5 217.4 L 666.7 164.1 Q 651.5 137.7, 681.9 137.7 Z" fill="#FCD55C" stroke="black" stroke-width="4"></path><path d="M 808.3 217.4 L 773.1 197.1 Q 762.3 190.8, 762.3 178.3 L 762.3 137.7 L 823.9 137.7 Q 854.3 137.7, 839.1 164.1 Z" fill="#FCD55C" stroke="black" stroke-width="4"></path><path d="M 579.9 243 L 615.1 263.3 Q 625.9 269.6, 625.9 282.1 L 625.9 322.7 L 564.3 322.7 Q 533.9 322.7, 549.1 296.4 Z" fill="#FCD55C" stroke="black" stroke-width="4"></path><path d="M 681.3 226.8 L 646.1 247.1 Q 635.3 253.3, 624.4 247.1 L 589.2 226.8 L 620 173.4 Q 635.3 147.1, 650.5 173.4 Z" fill="#FCD55C" stroke="black" stroke-width="4"></path><path d="M 644.6 322.7 L 644.6 282.1 Q 644.6 269.6, 655.5 263.3 L 690.6 243 L 721.4 296.4 Q 736.6 322.7, 706.2 322.7 Z" fill="#FCD55C" stroke="black" stroke-width="4"></path><path d="M 471.6 233.6 L 506.8 213.3 Q 517.6 207.1, 528.5 213.3 L 563.6 233.6 L 532.8 287 Q 517.6 313.3, 502.4 287 Z" fill="#FCD55C" stroke="black" stroke-width="4"></path><path d="M 508.3 137.7 L 508.3 178.3 Q 508.3 190.8, 497.4 197.1 L 462.2 217.4 L 431.4 164.1 Q 416.2 137.7, 446.7 137.7 Z" fill="#FCD55C" stroke="black" stroke-width="4"></path><path d="M 573 217.4 L 537.8 197.1 Q 527 190.8, 527 178.3 L 527 137.7 L 588.6 137.7 Q 619 137.7, 603.8 164.1 Z" fill="#FCD55C" stroke="black" stroke-width="4"></path><path d="M 344.6 243 L 379.8 263.3 Q 390.6 269.6, 390.6 282.1 L 390.6 322.7 L 329 322.7 Q 298.6 322.7, 313.8 296.4 Z" fill="#FCD55C" stroke="black" stroke-width="4"></path><path d="M 446 226.8 L 410.8 247.1 Q 400 253.3, 389.2 247.1 L 354 226.8 L 384.8 173.4 Q 400 147.1, 415.2 173.4 Z" fill="#FCD55C" stroke="black" stroke-width="4"></path><path d="M 409.4 322.7 L 409.4 282.1 Q 409.4 269.6, 420.2 263.3 L 455.4 243 L 486.2 296.4 Q 501.4 322.7, 471 322.7 Z" fill="#FCD55C" stroke="black" stroke-width="4"></path><path d="M 236.4 233.6 L 271.5 213.3 Q 282.4 207.1, 293.2 213.3 L 328.4 233.6 L 297.6 287 Q 282.4 313.3, 267.2 287 Z" fill="#FCD55C" stroke="black" stroke-width="4"></path><path d="M 273 137.7 L 273 178.3 Q 273 190.8, 262.2 197.1 L 227 217.4 L 196.2 164.1 Q 181 137.7, 211.4 137.7 Z" fill="#FCD55C" stroke="black" stroke-width="4"></path><path d="M 337.8 217.4 L 302.6 197.1 Q 291.7 190.8, 291.7 178.3 L 291.7 137.7 L 353.3 137.7 Q 383.8 137.7, 368.6 164.1 Z" fill="#FCD55C" stroke="black" stroke-width="4"></path><path d="M 109.4 243 L 144.5 263.3 Q 155.4 269.6, 155.4 282.1 L 155.4 322.7 L 93.8 322.7 Q 63.4 322.7, 78.6 296.4 Z" fill="#FCD55C" stroke="black" stroke-width="4"></path><path d="M 210.8 226.8 L 175.6 247.1 Q 164.7 253.3, 153.9 247.1 L 118.7 226.8 L 149.5 173.4 Q 164.7 147.1, 180 173.4 Z" fill="#FCD55C" stroke="black" stroke-width="4"></path><path d="M 174.1 322.7 L 174.1 282.1 Q 174.1 269.6, 184.9 263.3 L 220.1 243 L 250.9 296.4 Q 266.1 322.7, 235.7 322.7 Z" fill="#FCD55C" stroke="black" stroke-width="4"></path><path d="M 118.7 437.4 L 153.9 417.1 Q 164.7 410.8, 175.6 417.1 L 210.8 437.4 L 180 490.7 Q 164.7 517.1, 149.5 490.7 Z" fill="#FCD55C" stroke="black" stroke-width="4"></path><path d="M 155.4 341.5 L 155.4 382.1 Q 155.4 394.6, 144.5 400.8 L 109.4 421.1 L 78.6 367.8 Q 63.4 341.5, 93.8 341.5 Z" fill="#FCD55C" stroke="black" stroke-width="4"></path><path d="M 220.1 421.1 L 184.9 400.8 Q 174.1 394.6, 174.1 382.1 L 174.1 341.5 L 235.7 341.5 Q 266.1 341.5, 250.9 367.8 Z" fill="#FCD55C" stroke="black" stroke-width="4"></path><path d="M -8.3 446.8 L 26.9 467.1 Q 37.7 473.3, 37.7 485.8 L 37.7 526.5 L -23.9 526.5 Q -54.3 526.5, -39.1 500.1 Z" fill="#FCD55C" stroke="black" stroke-width="4"></path><path d="M 93.1 430.5 L 57.9 450.8 Q 47.1 457.1, 36.3 450.8 L 1.1 430.5 L 31.9 377.2 Q 47.1 350.8, 62.3 377.2 Z" fill="#FCD55C" stroke="black" stroke-width="4"></path><path d="M 56.5 526.5 L 56.5 485.8 Q 56.5 473.3, 67.3 467.1 L 102.5 446.8 L 133.3 500.1 Q 148.5 526.5, 118.1 526.5 Z" fill="#FCD55C" stroke="black" stroke-width="4"></path><path d="M 1.1 641.1 L 36.3 620.8 Q 47.1 614.6, 57.9 620.8 L 93.1 641.1 L 62.3 694.5 Q 47.1 720.8, 31.9 694.5 Z" fill="#FCD55C" stroke="black" stroke-width="4"></path><path d="M 37.7 545.2 L 37.7 585.8 Q 37.7 598.3, 26.9 604.6 L -8.3 624.9 L -39.1 571.5 Q -54.3 545.2, -23.9 545.2 Z" fill="#FCD55C" stroke="black" stroke-width="4"></path><path d="M 102.5 624.9 L 67.3 604.6 Q 56.5 598.3, 56.5 585.8 L 56.5 545.2 L 118.1 545.2 Q 148.5 545.2, 133.3 571.5 Z" fill="#FCD55C" stroke="black" stroke-width="4"></path><path d="M -125.9 650.5 L -90.7 670.8 Q -79.9 677.1, -79.9 689.6 L -79.9 730.2 L -141.5 730.2 Q -171.9 730.2, -156.7 703.8 Z" fill="#FCD55C" stroke="black" stroke-width="4"></path><path d="M -24.5 634.3 L -59.7 654.6 Q -70.5 660.8, -81.3 654.6 L -116.5 634.3 L -85.7 580.9 Q -70.5 554.6, -55.3 580.9 Z" fill="#FCD55C" stroke="black" stroke-width="4"></path><path d="M -61.1 730.2 L -61.1 689.6 Q -61.1 677.1, -50.3 670.8 L -15.1 650.5 L 15.7 703.8 Q 30.9 730.2, 0.5 730.2 Z" fill="#FCD55C" stroke="black" stroke-width="4"></path><path d="M 118.7 844.9 L 153.9 824.6 Q 164.7 818.3, 175.6 824.6 L 210.8 844.9 L 180 898.2 Q 164.7 924.6, 149.5 898.2 Z" fill="#FCD55C" stroke="black" stroke-width="4"></path><path d="M 155.4 748.9 L 155.4 789.6 Q 155.4 802.1, 144.5 808.3 L 109.4 828.6 L 78.6 775.3 Q 63.4 748.9, 93.8 748.9 Z" fill="#FCD55C" stroke="black" stroke-width="4"></path><path d="M 220.1 828.6 L 184.9 808.3 Q 174.1 802.1, 174.1 789.6 L 174.1 748.9 L 235.7 748.9 Q 266.1 748.9, 250.9 775.3 Z" fill="#FCD55C" stroke="black" stroke-width="4"></path><path d="M -8.3 854.2 L 26.9 874.6 Q 37.7 880.8, 37.7 893.3 L 37.7 933.9 L -23.9 933.9 Q -54.3 933.9, -39.1 907.6 Z" fill="#FCD55C" stroke="black" stroke-width="4"></path><path d="M 93.1 838 L 57.9 858.3 Q 47.1 864.6, 36.3 858.3 L 1.1 838 L 31.9 784.7 Q 47.1 758.3, 62.3 784.7 Z" fill="#FCD55C" stroke="black" stroke-width="4"></path><path d="M 56.5 933.9 L 56.5 893.3 Q 56.5 880.8, 67.3 874.6 L 102.5 854.2 L 133.3 907.6 Q 148.5 933.9, 118.1 933.9 Z" fill="#FCD55C" stroke="black" stroke-width="4"></path><path d="M 118.7 1252.3 L 153.9 1232 Q 164.7 1225.8, 175.6 1232 L 210.8 1252.3 L 180 1305.7 Q 164.7 1332, 149.5 1305.7 Z" fill="#FCD55C" stroke="black" stroke-width="4"></path><path d="M 155.4 1156.4 L 155.4 1197 Q 155.4 1209.5, 144.5 1215.8 L 109.4 1236.1 L 78.6 1182.8 Q 63.4 1156.4, 93.8 1156.4 Z" fill="#FCD55C" stroke="black" stroke-width="4"></path><path d="M 220.1 1236.1 L 184.9 1215.8 Q 174.1 1209.5, 174.1 1197 L 174.1 1156.4 L 235.7 1156.4 Q 266.1 1156.4, 250.9 1182.8 Z" fill="#FCD55C" stroke="black" stroke-width="4"></path><path d="M -8.3 1261.7 L 26.9 1282 Q 37.7 1288.3, 37.7 1300.8 L 37.7 1341.4 L -23.9 1341.4 Q -54.3 1341.4, -39.1 1315.1 Z" fill="#FCD55C" stroke="black" stroke-width="4"></path><path d="M 93.1 1245.5 L 57.9 1265.8 Q 47.1 1272, 36.3 1265.8 L 1.1 1245.5 L 31.9 1192.1 Q 47.1 1165.8, 62.3 1192.1 Z" fill="#FCD55C" stroke="black" stroke-width="4"></path><path d="M 56.5 1341.4 L 56.5 1300.8 Q 56.5 1288.3, 67.3 1282 L 102.5 1261.7 L 133.3 1315.1 Q 148.5 1341.4, 118.1 1341.4 Z" fill="#FCD55C" stroke="black" stroke-width="4"></path><path d="M 354 1252.3 L 389.2 1232 Q 400 1225.8, 410.8 1232 L 446 1252.3 L 415.2 1305.7 Q 400 1332, 384.8 1305.7 Z" fill="#FCD55C" stroke="black" stroke-width="4"></path><path d="M 390.6 1156.4 L 390.6 1197 Q 390.6 1209.5, 379.8 1215.8 L 344.6 1236.1 L 313.8 1182.8 Q 298.6 1156.4, 329 1156.4 Z" fill="#FCD55C" stroke="black" stroke-width="4"></path><path d="M 455.4 1236.1 L 420.2 1215.8 Q 409.4 1209.5, 409.4 1197 L 409.4 1156.4 L 471 1156.4 Q 501.4 1156.4, 486.2 1182.8 Z" fill="#FCD55C" stroke="black" stroke-width="4"></path><path d="M 227 1261.7 L 262.2 1282 Q 273 1288.3, 273 1300.8 L 273 1341.4 L 211.4 1341.4 Q 181 1341.4, 196.2 1315.1 Z" fill="#FCD55C" stroke="black" stroke-width="4"></path><path d="M 328.4 1245.5 L 293.2 1265.8 Q 282.4 1272, 271.5 1265.8 L 236.4 1245.5 L 267.2 1192.1 Q 282.4 1165.8, 297.6 1192.1 Z" fill="#FCD55C" stroke="black" stroke-width="4"></path><path d="M 291.7 1341.4 L 291.7 1300.8 Q 291.7 1288.3, 302.6 1282 L 337.8 1261.7 L 368.6 1315.1 Q 383.8 1341.4, 353.3 1341.4 Z" fill="#FCD55C" stroke="black" stroke-width="4"></path><path d="M 589.2 1252.3 L 624.4 1232 Q 635.3 1225.8, 646.1 1232 L 681.3 1252.3 L 650.5 1305.7 Q 635.3 1332, 620 1305.7 Z" fill="#FCD55C" stroke="black" stroke-width="4"></path><path d="M 625.9 1156.4 L 625.9 1197 Q 625.9 1209.5, 615.1 1215.8 L 579.9 1236.1 L 549.1 1182.8 Q 533.9 1156.4, 564.3 1156.4 Z" fill="#FCD55C" stroke="black" stroke-width="4"></path><path d="M 690.6 1236.1 L 655.5 1215.8 Q 644.6 1209.5, 644.6 1197 L 644.6 1156.4 L 706.2 1156.4 Q 736.6 1156.4, 721.4 1182.8 Z" fill="#FCD55C" stroke="black" stroke-width="4"></path><path d="M 462.2 1261.7 L 497.4 1282 Q 508.3 1288.3, 508.3 1300.8 L 508.3 1341.4 L 446.7 1341.4 Q 416.2 1341.4, 431.4 1315.1 Z" fill="#FCD55C" stroke="black" stroke-width="4"></path><path d="M 563.6 1245.5 L 528.5 1265.8 Q 517.6 1272, 506.8 1265.8 L 471.6 1245.5 L 502.4 1192.1 Q 517.6 1165.8, 532.8 1192.1 Z" fill="#FCD55C" stroke="black" stroke-width="4"></path><path d="M 527 1341.4 L 527 1300.8 Q 527 1288.3, 537.8 1282 L 573 1261.7 L 603.8 1315.1 Q 619 1341.4, 588.6 1341.4 Z" fill="#FCD55C" stroke="black" stroke-width="4"></path><path d="M 824.5 1252.3 L 859.7 1232 Q 870.5 1225.8, 881.3 1232 L 916.5 1252.3 L 885.7 1305.7 Q 870.5 1332, 855.3 1305.7 Z" fill="#FCD55C" stroke="black" stroke-width="4"></path><path d="M 861.1 1156.4 L 861.1 1197 Q 861.1 1209.5, 850.3 1215.8 L 815.1 1236.1 L 784.3 1182.8 Q 769.1 1156.4, 799.5 1156.4 Z" fill="#FCD55C" stroke="black" stroke-width="4"></path><path d="M 925.9 1236.1 L 890.7 1215.8 Q 879.9 1209.5, 879.9 1197 L 879.9 1156.4 L 941.5 1156.4 Q 971.9 1156.4, 956.7 1182.8 Z" fill="#FCD55C" stroke="black" stroke-width="4"></path><path d="M 697.5 1261.7 L 732.7 1282 Q 743.5 1288.3, 743.5 1300.8 L 743.5 1341.4 L 681.9 1341.4 Q 651.5 1341.4, 666.7 1315.1 Z" fill="#FCD55C" stroke="black" stroke-width="4"></path><path d="M 798.9 1245.5 L 763.7 1265.8 Q 752.9 1272, 742.1 1265.8 L 706.9 1245.5 L 737.7 1192.1 Q 752.9 1165.8, 768.1 1192.1 Z" fill="#FCD55C" stroke="black" stroke-width="4"></path><path d="M 762.3 1341.4 L 762.3 1300.8 Q 762.3 1288.3, 773.1 1282 L 808.3 1261.7 L 839.1 1315.1 Q 854.3 1341.4, 823.9 1341.4 Z" fill="#FCD55C" stroke="black" stroke-width="4"></path><path d="M 942.1 1048.6 L 977.3 1028.3 Q 988.1 1022, 999 1028.3 L 1034.1 1048.6 L 1003.3 1101.9 Q 988.1 1128.3, 972.9 1101.9 Z" fill="#FCD55C" stroke="black" stroke-width="4"></path><path d="M 978.8 952.7 L 978.8 993.3 Q 978.8 1005.8, 967.9 1012.1 L 932.8 1032.4 L 902 979 Q 886.8 952.7, 917.2 952.7 Z" fill="#FCD55C" stroke="black" stroke-width="4"></path><path d="M 1043.5 1032.4 L 1008.3 1012.1 Q 997.5 1005.8, 997.5 993.3 L 997.5 952.7 L 1059.1 952.7 Q 1089.5 952.7, 1074.3 979 Z" fill="#FCD55C" stroke="black" stroke-width="4"></path><path d="M 815.1 1058 L 850.3 1078.3 Q 861.1 1084.5, 861.1 1097 L 861.1 1137.7 L 799.5 1137.7 Q 769.1 1137.7, 784.3 1111.3 Z" fill="#FCD55C" stroke="black" stroke-width="4"></path><path d="M 916.5 1041.7 L 881.3 1062.1 Q 870.5 1068.3, 859.7 1062.1 L 824.5 1041.7 L 855.3 988.4 Q 870.5 962.1, 885.7 988.4 Z" fill="#FCD55C" stroke="black" stroke-width="4"></path><path d="M 879.9 1137.7 L 879.9 1097 Q 879.9 1084.5, 890.7 1078.3 L 925.9 1058 L 956.7 1111.3 Q 971.9 1137.7, 941.5 1137.7 Z" fill="#FCD55C" stroke="black" stroke-width="4"></path><path d="M 1059.8 844.9 L 1094.9 824.6 Q 1105.8 818.3, 1116.6 824.6 L 1151.8 844.9 L 1121 898.2 Q 1105.8 924.6, 1090.6 898.2 Z" fill="#FCD55C" stroke="black" stroke-width="4"></path><path d="M 1096.4 748.9 L 1096.4 789.6 Q 1096.4 802.1, 1085.6 808.3 L 1050.4 828.6 L 1019.6 775.3 Q 1004.4 748.9, 1034.8 748.9 Z" fill="#FCD55C" stroke="black" stroke-width="4"></path><path d="M 1161.2 828.6 L 1126 808.3 Q 1115.1 802.1, 1115.1 789.6 L 1115.1 748.9 L 1176.7 748.9 Q 1207.2 748.9, 1192 775.3 Z" fill="#FCD55C" stroke="black" stroke-width="4"></path><path d="M 932.8 854.2 L 967.9 874.6 Q 978.8 880.8, 978.8 893.3 L 978.8 933.9 L 917.2 933.9 Q 886.8 933.9, 902 907.6 Z" fill="#FCD55C" stroke="black" stroke-width="4"></path><path d="M 1034.1 838 L 999 858.3 Q 988.1 864.6, 977.3 858.3 L 942.1 838 L 972.9 784.7 Q 988.1 758.3, 1003.3 784.7 Z" fill="#FCD55C" stroke="black" stroke-width="4"></path><path d="M 997.5 933.9 L 997.5 893.3 Q 997.5 880.8, 1008.3 874.6 L 1043.5 854.2 L 1074.3 907.6 Q 1089.5 933.9, 1059.1 933.9 Z" fill="#FCD55C" stroke="black" stroke-width="4"></path><path d="M 1177.4 641.1 L 1212.6 620.8 Q 1223.4 614.6, 1234.2 620.8 L 1269.4 641.1 L 1238.6 694.5 Q 1223.4 720.8, 1208.2 694.5 Z" fill="#FCD55C" stroke="black" stroke-width="4"></path><path d="M 1214 545.2 L 1214 585.8 Q 1214 598.3, 1203.2 604.6 L 1168 624.9 L 1137.2 571.5 Q 1122 545.2, 1152.4 545.2 Z" fill="#FCD55C" stroke="black" stroke-width="4"></path><path d="M 1278.8 624.9 L 1243.6 604.6 Q 1232.8 598.3, 1232.8 585.8 L 1232.8 545.2 L 1294.4 545.2 Q 1324.8 545.2, 1309.6 571.5 Z" fill="#FCD55C" stroke="black" stroke-width="4"></path><path d="M 1050.4 650.5 L 1085.6 670.8 Q 1096.4 677.1, 1096.4 689.6 L 1096.4 730.2 L 1034.8 730.2 Q 1004.4 730.2, 1019.6 703.8 Z" fill="#FCD55C" stroke="black" stroke-width="4"></path><path d="M 1151.8 634.3 L 1116.6 654.6 Q 1105.8 660.8, 1094.9 654.6 L 1059.8 634.3 L 1090.6 580.9 Q 1105.8 554.6, 1121 580.9 Z" fill="#FCD55C" stroke="black" stroke-width="4"></path><path d="M 1115.1 730.2 L 1115.1 689.6 Q 1115.1 677.1, 1126 670.8 L 1161.2 650.5 L 1192 703.8 Q 1207.2 730.2, 1176.7 730.2 Z" fill="#FCD55C" stroke="black" stroke-width="4"></path><path d="M 1059.8 437.4 L 1094.9 417.1 Q 1105.8 410.8, 1116.6 417.1 L 1151.8 437.4 L 1121 490.7 Q 1105.8 517.1, 1090.6 490.7 Z" fill="#FCD55C" stroke="black" stroke-width="4"></path><path d="M 1096.4 341.5 L 1096.4 382.1 Q 1096.4 394.6, 1085.6 400.8 L 1050.4 421.1 L 1019.6 367.8 Q 1004.4 341.5, 1034.8 341.5 Z" fill="#FCD55C" stroke="black" stroke-width="4"></path><path d="M 1161.2 421.1 L 1126 400.8 Q 1115.1 394.6, 1115.1 382.1 L 1115.1 341.5 L 1176.7 341.5 Q 1207.2 341.5, 1192 367.8 Z" fill="#FCD55C" stroke="black" stroke-width="4"></path><path d="M 932.8 446.8 L 967.9 467.1 Q 978.8 473.3, 978.8 485.8 L 978.8 526.5 L 917.2 526.5 Q 886.8 526.5, 902 500.1 Z" fill="#FCD55C" stroke="black" stroke-width="4"></path><path d="M 1034.1 430.5 L 999 450.8 Q 988.1 457.1, 977.3 450.8 L 942.1 430.5 L 972.9 377.2 Q 988.1 350.8, 1003.3 377.2 Z" fill="#FCD55C" stroke="black" stroke-width="4"></path><path d="M 997.5 526.5 L 997.5 485.8 Q 997.5 473.3, 1008.3 467.1 L 1043.5 446.8 L 1074.3 500.1 Q 1089.5 526.5, 1059.1 526.5 Z" fill="#FCD55C" stroke="black" stroke-width="4"></path><path d="M 942.1 233.6 L 977.3 213.3 Q 988.1 207.1, 999 213.3 L 1034.1 233.6 L 1003.3 287 Q 988.1 313.3, 972.9 287 Z" fill="#FCD55C" stroke="black" stroke-width="4"></path><path d="M 978.8 137.7 L 978.8 178.3 Q 978.8 190.8, 967.9 197.1 L 932.8 217.4 L 902 164.1 Q 886.8 137.7, 917.2 137.7 Z" fill="#FCD55C" stroke="black" stroke-width="4"></path><path d="M 1043.5 217.4 L 1008.3 197.1 Q 997.5 190.8, 997.5 178.3 L 997.5 137.7 L 1059.1 137.7 Q 1089.5 137.7, 1074.3 164.1 Z" fill="#FCD55C" stroke="black" stroke-width="4"></path><path d="M 815.1 243 L 850.3 263.3 Q 861.1 269.6, 861.1 282.1 L 861.1 322.7 L 799.5 322.7 Q 769.1 322.7, 784.3 296.4 Z" fill="#FCD55C" stroke="black" stroke-width="4"></path><path d="M 916.5 226.8 L 881.3 247.1 Q 870.5 253.3, 859.7 247.1 L 824.5 226.8 L 855.3 173.4 Q 870.5 147.1, 885.7 173.4 Z" fill="#FCD55C" stroke="black" stroke-width="4"></path><path d="M 879.9 322.7 L 879.9 282.1 Q 879.9 269.6, 890.7 263.3 L 925.9 243 L 956.7 296.4 Q 971.9 322.7, 941.5 322.7 Z" fill="#FCD55C" stroke="black" stroke-width="4"></path><path d="M 824.5 29.9 L 859.7 9.6 Q 870.5 3.3, 881.3 9.6 L 916.5 29.9 L 885.7 83.3 Q 870.5 109.6, 855.3 83.3 Z" fill="#FCD55C" stroke="black" stroke-width="4"></path><path d="M 861.1 -66 L 861.1 -25.4 Q 861.1 -12.9, 850.3 -6.6 L 815.1 13.7 L 784.3 -39.7 Q 769.1 -66, 799.5 -66 Z" fill="#FCD55C" stroke="black" stroke-width="4"></path><path d="M 925.9 13.7 L 890.7 -6.6 Q 879.9 -12.9, 879.9 -25.4 L 879.9 -66 L 941.5 -66 Q 971.9 -66, 956.7 -39.7 Z" fill="#FCD55C" stroke="black" stroke-width="4"></path><path d="M 697.5 39.3 L 732.7 59.6 Q 743.5 65.8, 743.5 78.3 L 743.5 119 L 681.9 119 Q 651.5 119, 666.7 92.6 Z" fill="#FCD55C" stroke="black" stroke-width="4"></path><path d="M 798.9 23 L 763.7 43.4 Q 752.9 49.6, 742.1 43.4 L 706.9 23 L 737.7 -30.3 Q 752.9 -56.6, 768.1 -30.3 Z" fill="#FCD55C" stroke="black" stroke-width="4"></path><path d="M 762.3 119 L 762.3 78.3 Q 762.3 65.8, 773.1 59.6 L 808.3 39.3 L 839.1 92.6 Q 854.3 119, 823.9 119 Z" fill="#FCD55C" stroke="black" stroke-width="4"></path><path d="M 589.2 29.9 L 624.4 9.6 Q 635.3 3.3, 646.1 9.6 L 681.3 29.9 L 650.5 83.3 Q 635.3 109.6, 620 83.3 Z" fill="#FCD55C" stroke="black" stroke-width="4"></path><path d="M 625.9 -66 L 625.9 -25.4 Q 625.9 -12.9, 615.1 -6.6 L 579.9 13.7 L 549.1 -39.7 Q 533.9 -66, 564.3 -66 Z" fill="#FCD55C" stroke="black" stroke-width="4"></path><path d="M 690.6 13.7 L 655.5 -6.6 Q 644.6 -12.9, 644.6 -25.4 L 644.6 -66 L 706.2 -66 Q 736.6 -66, 721.4 -39.7 Z" fill="#FCD55C" stroke="black" stroke-width="4"></path><path d="M 462.2 39.3 L 497.4 59.6 Q 508.3 65.8, 508.3 78.3 L 508.3 119 L 446.7 119 Q 416.2 119, 431.4 92.6 Z" fill="#FCD55C" stroke="black" stroke-width="4"></path><path d="M 563.6 23 L 528.5 43.4 Q 517.6 49.6, 506.8 43.4 L 471.6 23 L 502.4 -30.3 Q 517.6 -56.6, 532.8 -30.3 Z" fill="#FCD55C" stroke="black" stroke-width="4"></path><path d="M 527 119 L 527 78.3 Q 527 65.8, 537.8 59.6 L 573 39.3 L 603.8 92.6 Q 619 119, 588.6 119 Z" fill="#FCD55C" stroke="black" stroke-width="4"></path><path d="M 354 29.9 L 389.2 9.6 Q 400 3.3, 410.8 9.6 L 446 29.9 L 415.2 83.3 Q 400 109.6, 384.8 83.3 Z" fill="#FCD55C" stroke="black" stroke-width="4"></path><path d="M 390.6 -66 L 390.6 -25.4 Q 390.6 -12.9, 379.8 -6.6 L 344.6 13.7 L 313.8 -39.7 Q 298.6 -66, 329 -66 Z" fill="#FCD55C" stroke="black" stroke-width="4"></path><path d="M 455.4 13.7 L 420.2 -6.6 Q 409.4 -12.9, 409.4 -25.4 L 409.4 -66 L 471 -66 Q 501.4 -66, 486.2 -39.7 Z" fill="#FCD55C" stroke="black" stroke-width="4"></path><path d="M 227 39.3 L 262.2 59.6 Q 273 65.8, 273 78.3 L 273 119 L 211.4 119 Q 181 119, 196.2 92.6 Z" fill="#FCD55C" stroke="black" stroke-width="4"></path><path d="M 328.4 23 L 293.2 43.4 Q 282.4 49.6, 271.5 43.4 L 236.4 23 L 267.2 -30.3 Q 282.4 -56.6, 297.6 -30.3 Z" fill="#FCD55C" stroke="black" stroke-width="4"></path><path d="M 291.7 119 L 291.7 78.3 Q 291.7 65.8, 302.6 59.6 L 337.8 39.3 L 368.6 92.6 Q 383.8 119, 353.3 119 Z" fill="#FCD55C" stroke="black" stroke-width="4"></path><path d="M 118.7 29.9 L 153.9 9.6 Q 164.7 3.3, 175.6 9.6 L 210.8 29.9 L 180 83.3 Q 164.7 109.6, 149.5 83.3 Z" fill="#FCD55C" stroke="black" stroke-width="4"></path><path d="M 155.4 -66 L 155.4 -25.4 Q 155.4 -12.9, 144.5 -6.6 L 109.4 13.7 L 78.6 -39.7 Q 63.4 -66, 93.8 -66 Z" fill="#FCD55C" stroke="black" stroke-width="4"></path><path d="M 220.1 13.7 L 184.9 -6.6 Q 174.1 -12.9, 174.1 -25.4 L 174.1 -66 L 235.7 -66 Q 266.1 -66, 250.9 -39.7 Z" fill="#FCD55C" stroke="black" stroke-width="4"></path><path d="M -8.3 39.3 L 26.9 59.6 Q 37.7 65.8, 37.7 78.3 L 37.7 119 L -23.9 119 Q -54.3 119, -39.1 92.6 Z" fill="#FCD55C" stroke="black" stroke-width="4"></path><path d="M 93.1 23 L 57.9 43.4 Q 47.1 49.6, 36.3 43.4 L 1.1 23 L 31.9 -30.3 Q 47.1 -56.6, 62.3 -30.3 Z" fill="#FCD55C" stroke="black" stroke-width="4"></path><path d="M 56.5 119 L 56.5 78.3 Q 56.5 65.8, 67.3 59.6 L 102.5 39.3 L 133.3 92.6 Q 148.5 119, 118.1 119 Z" fill="#FCD55C" stroke="black" stroke-width="4"></path><path d="M 1.1 233.6 L 36.3 213.3 Q 47.1 207.1, 57.9 213.3 L 93.1 233.6 L 62.3 287 Q 47.1 313.3, 31.9 287 Z" fill="#FCD55C" stroke="black" stroke-width="4"></path><path d="M 37.7 137.7 L 37.7 178.3 Q 37.7 190.8, 26.9 197.1 L -8.3 217.4 L -39.1 164.1 Q -54.3 137.7, -23.9 137.7 Z" fill="#FCD55C" stroke="black" stroke-width="4"></path><path d="M 102.5 217.4 L 67.3 197.1 Q 56.5 190.8, 56.5 178.3 L 56.5 137.7 L 118.1 137.7 Q 148.5 137.7, 133.3 164.1 Z" fill="#FCD55C" stroke="black" stroke-width="4"></path><path d="M -125.9 243 L -90.7 263.3 Q -79.9 269.6, -79.9 282.1 L -79.9 322.7 L -141.5 322.7 Q -171.9 322.7, -156.7 296.4 Z" fill="#FCD55C" stroke="black" stroke-width="4"></path><path d="M -24.5 226.8 L -59.7 247.1 Q -70.5 253.3, -81.3 247.1 L -116.5 226.8 L -85.7 173.4 Q -70.5 147.1, -55.3 173.4 Z" fill="#FCD55C" stroke="black" stroke-width="4"></path><path d="M -61.1 322.7 L -61.1 282.1 Q -61.1 269.6, -50.3 263.3 L -15.1 243 L 15.7 296.4 Q 30.9 322.7, 0.5 322.7 Z" fill="#FCD55C" stroke="black" stroke-width="4"></path><path d="M -116.5 437.4 L -81.3 417.1 Q -70.5 410.8, -59.7 417.1 L -24.5 437.4 L -55.3 490.7 Q -70.5 517.1, -85.7 490.7 Z" fill="#FCD55C" stroke="black" stroke-width="4"></path><path d="M -79.9 341.5 L -79.9 382.1 Q -79.9 394.6, -90.7 400.8 L -125.9 421.1 L -156.7 367.8 Q -171.9 341.5, -141.5 341.5 Z" fill="#FCD55C" stroke="black" stroke-width="4"></path><path d="M -15.1 421.1 L -50.3 400.8 Q -61.1 394.6, -61.1 382.1 L -61.1 341.5 L 0.5 341.5 Q 30.9 341.5, 15.7 367.8 Z" fill="#FCD55C" stroke="black" stroke-width="4"></path><path d="M -243.5 446.8 L -208.3 467.1 Q -197.5 473.3, -197.5 485.8 L -197.5 526.5 L -259.1 526.5 Q -289.5 526.5, -274.3 500.1 Z" fill="#FCD55C" stroke="black" stroke-width="4"></path><path d="M -142.1 430.5 L -177.3 450.8 Q -188.1 457.1, -199 450.8 L -234.1 430.5 L -203.3 377.2 Q -188.1 350.8, -172.9 377.2 Z" fill="#FCD55C" stroke="black" stroke-width="4"></path><path d="M -178.8 526.5 L -178.8 485.8 Q -178.8 473.3, -167.9 467.1 L -132.8 446.8 L -102 500.1 Q -86.8 526.5, -117.2 526.5 Z" fill="#FCD55C" stroke="black" stroke-width="4"></path><path d="M -234.1 641.1 L -199 620.8 Q -188.1 614.6, -177.3 620.8 L -142.1 641.1 L -172.9 694.5 Q -188.1 720.8, -203.3 694.5 Z" fill="#FCD55C" stroke="black" stroke-width="4"></path><path d="M -197.5 545.2 L -197.5 585.8 Q -197.5 598.3, -208.3 604.6 L -243.5 624.9 L -274.3 571.5 Q -289.5 545.2, -259.1 545.2 Z" fill="#FCD55C" stroke="black" stroke-width="4"></path><path d="M -132.8 624.9 L -167.9 604.6 Q -178.8 598.3, -178.8 585.8 L -178.8 545.2 L -117.2 545.2 Q -86.8 545.2, -102 571.5 Z" fill="#FCD55C" stroke="black" stroke-width="4"></path><path d="M -361.2 650.5 L -326 670.8 Q -315.1 677.1, -315.1 689.6 L -315.1 730.2 L -376.7 730.2 Q -407.2 730.2, -392 703.8 Z" fill="#FCD55C" stroke="black" stroke-width="4"></path><path d="M -259.8 634.3 L -294.9 654.6 Q -305.8 660.8, -316.6 654.6 L -351.8 634.3 L -321 580.9 Q -305.8 554.6, -290.6 580.9 Z" fill="#FCD55C" stroke="black" stroke-width="4"></path><path d="M -296.4 730.2 L -296.4 689.6 Q -296.4 677.1, -285.6 670.8 L -250.4 650.5 L -219.6 703.8 Q -204.4 730.2, -234.8 730.2 Z" fill="#FCD55C" stroke="black" stroke-width="4"></path><path d="M -116.5 844.9 L -81.3 824.6 Q -70.5 818.3, -59.7 824.6 L -24.5 844.9 L -55.3 898.2 Q -70.5 924.6, -85.7 898.2 Z" fill="#FCD55C" stroke="black" stroke-width="4"></path><path d="M -79.9 748.9 L -79.9 789.6 Q -79.9 802.1, -90.7 808.3 L -125.9 828.6 L -156.7 775.3 Q -171.9 748.9, -141.5 748.9 Z" fill="#FCD55C" stroke="black" stroke-width="4"></path><path d="M -15.1 828.6 L -50.3 808.3 Q -61.1 802.1, -61.1 789.6 L -61.1 748.9 L 0.5 748.9 Q 30.9 748.9, 15.7 775.3 Z" fill="#FCD55C" stroke="black" stroke-width="4"></path><path d="M -243.5 854.2 L -208.3 874.6 Q -197.5 880.8, -197.5 893.3 L -197.5 933.9 L -259.1 933.9 Q -289.5 933.9, -274.3 907.6 Z" fill="#FCD55C" stroke="black" stroke-width="4"></path><path d="M -142.1 838 L -177.3 858.3 Q -188.1 864.6, -199 858.3 L -234.1 838 L -203.3 784.7 Q -188.1 758.3, -172.9 784.7 Z" fill="#FCD55C" stroke="black" stroke-width="4"></path><path d="M -178.8 933.9 L -178.8 893.3 Q -178.8 880.8, -167.9 874.6 L -132.8 854.2 L -102 907.6 Q -86.8 933.9, -117.2 933.9 Z" fill="#FCD55C" stroke="black" stroke-width="4"></path><path d="M 1.1 1048.6 L 36.3 1028.3 Q 47.1 1022, 57.9 1028.3 L 93.1 1048.6 L 62.3 1101.9 Q 47.1 1128.3, 31.9 1101.9 Z" fill="#FCD55C" stroke="black" stroke-width="4"></path><path d="M 37.7 952.7 L 37.7 993.3 Q 37.7 1005.8, 26.9 1012.1 L -8.3 1032.4 L -39.1 979 Q -54.3 952.7, -23.9 952.7 Z" fill="#FCD55C" stroke="black" stroke-width="4"></path><path d="M 102.5 1032.4 L 67.3 1012.1 Q 56.5 1005.8, 56.5 993.3 L 56.5 952.7 L 118.1 952.7 Q 148.5 952.7, 133.3 979 Z" fill="#FCD55C" stroke="black" stroke-width="4"></path><path d="M -125.9 1058 L -90.7 1078.3 Q -79.9 1084.5, -79.9 1097 L -79.9 1137.7 L -141.5 1137.7 Q -171.9 1137.7, -156.7 1111.3 Z" fill="#FCD55C" stroke="black" stroke-width="4"></path><path d="M -24.5 1041.7 L -59.7 1062.1 Q -70.5 1068.3, -81.3 1062.1 L -116.5 1041.7 L -85.7 988.4 Q -70.5 962.1, -55.3 988.4 Z" fill="#FCD55C" stroke="black" stroke-width="4"></path><path d="M -61.1 1137.7 L -61.1 1097 Q -61.1 1084.5, -50.3 1078.3 L -15.1 1058 L 15.7 1111.3 Q 30.9 1137.7, 0.5 1137.7 Z" fill="#FCD55C" stroke="black" stroke-width="4"></path><path d="M 1.1 1456.1 L 36.3 1435.8 Q 47.1 1429.5, 57.9 1435.8 L 93.1 1456.1 L 62.3 1509.4 Q 47.1 1535.8, 31.9 1509.4 Z" fill="#FCD55C" stroke="black" stroke-width="4"></path><path d="M 37.7 1360.2 L 37.7 1400.8 Q 37.7 1413.3, 26.9 1419.5 L -8.3 1439.8 L -39.1 1386.5 Q -54.3 1360.2, -23.9 1360.2 Z" fill="#FCD55C" stroke="black" stroke-width="4"></path><path d="M 102.5 1439.8 L 67.3 1419.5 Q 56.5 1413.3, 56.5 1400.8 L 56.5 1360.2 L 118.1 1360.2 Q 148.5 1360.2, 133.3 1386.5 Z" fill="#FCD55C" stroke="black" stroke-width="4"></path><path d="M -125.9 1465.5 L -90.7 1485.8 Q -79.9 1492, -79.9 1504.5 L -79.9 1545.1 L -141.5 1545.1 Q -171.9 1545.1, -156.7 1518.8 Z" fill="#FCD55C" stroke="black" stroke-width="4"></path><path d="M -24.5 1449.2 L -59.7 1469.5 Q -70.5 1475.8, -81.3 1469.5 L -116.5 1449.2 L -85.7 1395.9 Q -70.5 1369.5, -55.3 1395.9 Z" fill="#FCD55C" stroke="black" stroke-width="4"></path><path d="M -61.1 1545.1 L -61.1 1504.5 Q -61.1 1492, -50.3 1485.8 L -15.1 1465.5 L 15.7 1518.8 Q 30.9 1545.1, 0.5 1545.1 Z" fill="#FCD55C" stroke="black" stroke-width="4"></path><path d="M 236.4 1456.1 L 271.5 1435.8 Q 282.4 1429.5, 293.2 1435.8 L 328.4 1456.1 L 297.6 1509.4 Q 282.4 1535.8, 267.2 1509.4 Z" fill="#FCD55C" stroke="black" stroke-width="4"></path><path d="M 273 1360.2 L 273 1400.8 Q 273 1413.3, 262.2 1419.5 L 227 1439.8 L 196.2 1386.5 Q 181 1360.2, 211.4 1360.2 Z" fill="#FCD55C" stroke="black" stroke-width="4"></path><path d="M 337.8 1439.8 L 302.6 1419.5 Q 291.7 1413.3, 291.7 1400.8 L 291.7 1360.2 L 353.3 1360.2 Q 383.8 1360.2, 368.6 1386.5 Z" fill="#FCD55C" stroke="black" stroke-width="4"></path><path d="M 109.4 1465.5 L 144.5 1485.8 Q 155.4 1492, 155.4 1504.5 L 155.4 1545.1 L 93.8 1545.1 Q 63.4 1545.1, 78.6 1518.8 Z" fill="#FCD55C" stroke="black" stroke-width="4"></path><path d="M 210.8 1449.2 L 175.6 1469.5 Q 164.7 1475.8, 153.9 1469.5 L 118.7 1449.2 L 149.5 1395.9 Q 164.7 1369.5, 180 1395.9 Z" fill="#FCD55C" stroke="black" stroke-width="4"></path><path d="M 174.1 1545.1 L 174.1 1504.5 Q 174.1 1492, 184.9 1485.8 L 220.1 1465.5 L 250.9 1518.8 Q 266.1 1545.1, 235.7 1545.1 Z" fill="#FCD55C" stroke="black" stroke-width="4"></path><path d="M 471.6 1456.1 L 506.8 1435.8 Q 517.6 1429.5, 528.5 1435.8 L 563.6 1456.1 L 532.8 1509.4 Q 517.6 1535.8, 502.4 1509.4 Z" fill="#FCD55C" stroke="black" stroke-width="4"></path><path d="M 508.3 1360.2 L 508.3 1400.8 Q 508.3 1413.3, 497.4 1419.5 L 462.2 1439.8 L 431.4 1386.5 Q 416.2 1360.2, 446.7 1360.2 Z" fill="#FCD55C" stroke="black" stroke-width="4"></path><path d="M 573 1439.8 L 537.8 1419.5 Q 527 1413.3, 527 1400.8 L 527 1360.2 L 588.6 1360.2 Q 619 1360.2, 603.8 1386.5 Z" fill="#FCD55C" stroke="black" stroke-width="4"></path><path d="M 344.6 1465.5 L 379.8 1485.8 Q 390.6 1492, 390.6 1504.5 L 390.6 1545.1 L 329 1545.1 Q 298.6 1545.1, 313.8 1518.8 Z" fill="#FCD55C" stroke="black" stroke-width="4"></path><path d="M 446 1449.2 L 410.8 1469.5 Q 400 1475.8, 389.2 1469.5 L 354 1449.2 L 384.8 1395.9 Q 400 1369.5, 415.2 1395.9 Z" fill="#FCD55C" stroke="black" stroke-width="4"></path><path d="M 409.4 1545.1 L 409.4 1504.5 Q 409.4 1492, 420.2 1485.8 L 455.4 1465.5 L 486.2 1518.8 Q 501.4 1545.1, 471 1545.1 Z" fill="#FCD55C" stroke="black" stroke-width="4"></path><path d="M 706.9 1456.1 L 742.1 1435.8 Q 752.9 1429.5, 763.7 1435.8 L 798.9 1456.1 L 768.1 1509.4 Q 752.9 1535.8, 737.7 1509.4 Z" fill="#FCD55C" stroke="black" stroke-width="4"></path><path d="M 743.5 1360.2 L 743.5 1400.8 Q 743.5 1413.3, 732.7 1419.5 L 697.5 1439.8 L 666.7 1386.5 Q 651.5 1360.2, 681.9 1360.2 Z" fill="#FCD55C" stroke="black" stroke-width="4"></path><path d="M 808.3 1439.8 L 773.1 1419.5 Q 762.3 1413.3, 762.3 1400.8 L 762.3 1360.2 L 823.9 1360.2 Q 854.3 1360.2, 839.1 1386.5 Z" fill="#FCD55C" stroke="black" stroke-width="4"></path><path d="M 579.9 1465.5 L 615.1 1485.8 Q 625.9 1492, 625.9 1504.5 L 625.9 1545.1 L 564.3 1545.1 Q 533.9 1545.1, 549.1 1518.8 Z" fill="#FCD55C" stroke="black" stroke-width="4"></path><path d="M 681.3 1449.2 L 646.1 1469.5 Q 635.3 1475.8, 624.4 1469.5 L 589.2 1449.2 L 620 1395.9 Q 635.3 1369.5, 650.5 1395.9 Z" fill="#FCD55C" stroke="black" stroke-width="4"></path><path d="M 644.6 1545.1 L 644.6 1504.5 Q 644.6 1492, 655.5 1485.8 L 690.6 1465.5 L 721.4 1518.8 Q 736.6 1545.1, 706.2 1545.1 Z" fill="#FCD55C" stroke="black" stroke-width="4"></path><path d="M 942.1 1456.1 L 977.3 1435.8 Q 988.1 1429.5, 999 1435.8 L 1034.1 1456.1 L 1003.3 1509.4 Q 988.1 1535.8, 972.9 1509.4 Z" fill="#FCD55C" stroke="black" stroke-width="4"></path><path d="M 978.8 1360.2 L 978.8 1400.8 Q 978.8 1413.3, 967.9 1419.5 L 932.8 1439.8 L 902 1386.5 Q 886.8 1360.2, 917.2 1360.2 Z" fill="#FCD55C" stroke="black" stroke-width="4"></path><path d="M 1043.5 1439.8 L 1008.3 1419.5 Q 997.5 1413.3, 997.5 1400.8 L 997.5 1360.2 L 1059.1 1360.2 Q 1089.5 1360.2, 1074.3 1386.5 Z" fill="#FCD55C" stroke="black" stroke-width="4"></path><path d="M 815.1 1465.5 L 850.3 1485.8 Q 861.1 1492, 861.1 1504.5 L 861.1 1545.1 L 799.5 1545.1 Q 769.1 1545.1, 784.3 1518.8 Z" fill="#FCD55C" stroke="black" stroke-width="4"></path><path d="M 916.5 1449.2 L 881.3 1469.5 Q 870.5 1475.8, 859.7 1469.5 L 824.5 1449.2 L 855.3 1395.9 Q 870.5 1369.5, 885.7 1395.9 Z" fill="#FCD55C" stroke="black" stroke-width="4"></path><path d="M 879.9 1545.1 L 879.9 1504.5 Q 879.9 1492, 890.7 1485.8 L 925.9 1465.5 L 956.7 1518.8 Q 971.9 1545.1, 941.5 1545.1 Z" fill="#FCD55C" stroke="black" stroke-width="4"></path><path d="M 1059.8 1252.3 L 1094.9 1232 Q 1105.8 1225.8, 1116.6 1232 L 1151.8 1252.3 L 1121 1305.7 Q 1105.8 1332, 1090.6 1305.7 Z" fill="#FCD55C" stroke="black" stroke-width="4"></path><path d="M 1096.4 1156.4 L 1096.4 1197 Q 1096.4 1209.5, 1085.6 1215.8 L 1050.4 1236.1 L 1019.6 1182.8 Q 1004.4 1156.4, 1034.8 1156.4 Z" fill="#FCD55C" stroke="black" stroke-width="4"></path><path d="M 1161.2 1236.1 L 1126 1215.8 Q 1115.1 1209.5, 1115.1 1197 L 1115.1 1156.4 L 1176.7 1156.4 Q 1207.2 1156.4, 1192 1182.8 Z" fill="#FCD55C" stroke="black" stroke-width="4"></path><path d="M 932.8 1261.7 L 967.9 1282 Q 978.8 1288.3, 978.8 1300.8 L 978.8 1341.4 L 917.2 1341.4 Q 886.8 1341.4, 902 1315.1 Z" fill="#FCD55C" stroke="black" stroke-width="4"></path><path d="M 1034.1 1245.5 L 999 1265.8 Q 988.1 1272, 977.3 1265.8 L 942.1 1245.5 L 972.9 1192.1 Q 988.1 1165.8, 1003.3 1192.1 Z" fill="#FCD55C" stroke="black" stroke-width="4"></path><path d="M 997.5 1341.4 L 997.5 1300.8 Q 997.5 1288.3, 1008.3 1282 L 1043.5 1261.7 L 1074.3 1315.1 Q 1089.5 1341.4, 1059.1 1341.4 Z" fill="#FCD55C" stroke="black" stroke-width="4"></path><path d="M 1177.4 1048.6 L 1212.6 1028.3 Q 1223.4 1022, 1234.2 1028.3 L 1269.4 1048.6 L 1238.6 1101.9 Q 1223.4 1128.3, 1208.2 1101.9 Z" fill="#FCD55C" stroke="black" stroke-width="4"></path><path d="M 1214 952.7 L 1214 993.3 Q 1214 1005.8, 1203.2 1012.1 L 1168 1032.4 L 1137.2 979 Q 1122 952.7, 1152.4 952.7 Z" fill="#FCD55C" stroke="black" stroke-width="4"></path><path d="M 1278.8 1032.4 L 1243.6 1012.1 Q 1232.8 1005.8, 1232.8 993.3 L 1232.8 952.7 L 1294.4 952.7 Q 1324.8 952.7, 1309.6 979 Z" fill="#FCD55C" stroke="black" stroke-width="4"></path><path d="M 1050.4 1058 L 1085.6 1078.3 Q 1096.4 1084.5, 1096.4 1097 L 1096.4 1137.7 L 1034.8 1137.7 Q 1004.4 1137.7, 1019.6 1111.3 Z" fill="#FCD55C" stroke="black" stroke-width="4"></path><path d="M 1151.8 1041.7 L 1116.6 1062.1 Q 1105.8 1068.3, 1094.9 1062.1 L 1059.8 1041.7 L 1090.6 988.4 Q 1105.8 962.1, 1121 988.4 Z" fill="#FCD55C" stroke="black" stroke-width="4"></path><path d="M 1115.1 1137.7 L 1115.1 1097 Q 1115.1 1084.5, 1126 1078.3 L 1161.2 1058 L 1192 1111.3 Q 1207.2 1137.7, 1176.7 1137.7 Z" fill="#FCD55C" stroke="black" stroke-width="4"></path><path d="M 1295 844.9 L 1330.2 824.6 Q 1341 818.3, 1351.9 824.6 L 1387 844.9 L 1356.2 898.2 Q 1341 924.6, 1325.8 898.2 Z" fill="#FCD55C" stroke="black" stroke-width="4"></path><path d="M 1331.7 748.9 L 1331.7 789.6 Q 1331.7 802.1, 1320.8 808.3 L 1285.6 828.6 L 1254.8 775.3 Q 1239.6 748.9, 1270.1 748.9 Z" fill="#FCD55C" stroke="black" stroke-width="4"></path><path d="M 1396.4 828.6 L 1361.2 808.3 Q 1350.4 802.1, 1350.4 789.6 L 1350.4 748.9 L 1412 748.9 Q 1442.4 748.9, 1427.2 775.3 Z" fill="#FCD55C" stroke="black" stroke-width="4"></path><path d="M 1168 854.2 L 1203.2 874.6 Q 1214 880.8, 1214 893.3 L 1214 933.9 L 1152.4 933.9 Q 1122 933.9, 1137.2 907.6 Z" fill="#FCD55C" stroke="black" stroke-width="4"></path><path d="M 1269.4 838 L 1234.2 858.3 Q 1223.4 864.6, 1212.6 858.3 L 1177.4 838 L 1208.2 784.7 Q 1223.4 758.3, 1238.6 784.7 Z" fill="#FCD55C" stroke="black" stroke-width="4"></path><path d="M 1232.8 933.9 L 1232.8 893.3 Q 1232.8 880.8, 1243.6 874.6 L 1278.8 854.2 L 1309.6 907.6 Q 1324.8 933.9, 1294.4 933.9 Z" fill="#FCD55C" stroke="black" stroke-width="4"></path><path d="M 1412.6 641.1 L 1447.8 620.8 Q 1458.7 614.6, 1469.5 620.8 L 1504.7 641.1 L 1473.9 694.5 Q 1458.7 720.8, 1443.4 694.5 Z" fill="#FCD55C" stroke="black" stroke-width="4"></path><path d="M 1449.3 545.2 L 1449.3 585.8 Q 1449.3 598.3, 1438.5 604.6 L 1403.3 624.9 L 1372.5 571.5 Q 1357.3 545.2, 1387.7 545.2 Z" fill="#FCD55C" stroke="black" stroke-width="4"></path><path d="M 1514 624.9 L 1478.9 604.6 Q 1468 598.3, 1468 585.8 L 1468 545.2 L 1529.6 545.2 Q 1560 545.2, 1544.8 571.5 Z" fill="#FCD55C" stroke="black" stroke-width="4"></path><path d="M 1285.6 650.5 L 1320.8 670.8 Q 1331.7 677.1, 1331.7 689.6 L 1331.7 730.2 L 1270.1 730.2 Q 1239.6 730.2, 1254.8 703.8 Z" fill="#FCD55C" stroke="black" stroke-width="4"></path><path d="M 1387 634.3 L 1351.9 654.6 Q 1341 660.8, 1330.2 654.6 L 1295 634.3 L 1325.8 580.9 Q 1341 554.6, 1356.2 580.9 Z" fill="#FCD55C" stroke="black" stroke-width="4"></path><path d="M 1350.4 730.2 L 1350.4 689.6 Q 1350.4 677.1, 1361.2 670.8 L 1396.4 650.5 L 1427.2 703.8 Q 1442.4 730.2, 1412 730.2 Z" fill="#FCD55C" stroke="black" stroke-width="4"></path><path d="M 1295 437.4 L 1330.2 417.1 Q 1341 410.8, 1351.9 417.1 L 1387 437.4 L 1356.2 490.7 Q 1341 517.1, 1325.8 490.7 Z" fill="#FCD55C" stroke="black" stroke-width="4"></path><path d="M 1331.7 341.5 L 1331.7 382.1 Q 1331.7 394.6, 1320.8 400.8 L 1285.6 421.1 L 1254.8 367.8 Q 1239.6 341.5, 1270.1 341.5 Z" fill="#FCD55C" stroke="black" stroke-width="4"></path><path d="M 1396.4 421.1 L 1361.2 400.8 Q 1350.4 394.6, 1350.4 382.1 L 1350.4 341.5 L 1412 341.5 Q 1442.4 341.5, 1427.2 367.8 Z" fill="#FCD55C" stroke="black" stroke-width="4"></path><path d="M 1168 446.8 L 1203.2 467.1 Q 1214 473.3, 1214 485.8 L 1214 526.5 L 1152.4 526.5 Q 1122 526.5, 1137.2 500.1 Z" fill="#FCD55C" stroke="black" stroke-width="4"></path><path d="M 1269.4 430.5 L 1234.2 450.8 Q 1223.4 457.1, 1212.6 450.8 L 1177.4 430.5 L 1208.2 377.2 Q 1223.4 350.8, 1238.6 377.2 Z" fill="#FCD55C" stroke="black" stroke-width="4"></path><path d="M 1232.8 526.5 L 1232.8 485.8 Q 1232.8 473.3, 1243.6 467.1 L 1278.8 446.8 L 1309.6 500.1 Q 1324.8 526.5, 1294.4 526.5 Z" fill="#FCD55C" stroke="black" stroke-width="4"></path><path d="M 1177.4 233.6 L 1212.6 213.3 Q 1223.4 207.1, 1234.2 213.3 L 1269.4 233.6 L 1238.6 287 Q 1223.4 313.3, 1208.2 287 Z" fill="#FCD55C" stroke="black" stroke-width="4"></path><path d="M 1214 137.7 L 1214 178.3 Q 1214 190.8, 1203.2 197.1 L 1168 217.4 L 1137.2 164.1 Q 1122 137.7, 1152.4 137.7 Z" fill="#FCD55C" stroke="black" stroke-width="4"></path><path d="M 1278.8 217.4 L 1243.6 197.1 Q 1232.8 190.8, 1232.8 178.3 L 1232.8 137.7 L 1294.4 137.7 Q 1324.8 137.7, 1309.6 164.1 Z" fill="#FCD55C" stroke="black" stroke-width="4"></path><path d="M 1050.4 243 L 1085.6 263.3 Q 1096.4 269.6, 1096.4 282.1 L 1096.4 322.7 L 1034.8 322.7 Q 1004.4 322.7, 1019.6 296.4 Z" fill="#FCD55C" stroke="black" stroke-width="4"></path><path d="M 1151.8 226.8 L 1116.6 247.1 Q 1105.8 253.3, 1094.9 247.1 L 1059.8 226.8 L 1090.6 173.4 Q 1105.8 147.1, 1121 173.4 Z" fill="#FCD55C" stroke="black" stroke-width="4"></path><path d="M 1115.1 322.7 L 1115.1 282.1 Q 1115.1 269.6, 1126 263.3 L 1161.2 243 L 1192 296.4 Q 1207.2 322.7, 1176.7 322.7 Z" fill="#FCD55C" stroke="black" stroke-width="4"></path><path d="M 1059.8 29.9 L 1094.9 9.6 Q 1105.8 3.3, 1116.6 9.6 L 1151.8 29.9 L 1121 83.3 Q 1105.8 109.6, 1090.6 83.3 Z" fill="#FCD55C" stroke="black" stroke-width="4"></path><path d="M 1096.4 -66 L 1096.4 -25.4 Q 1096.4 -12.9, 1085.6 -6.6 L 1050.4 13.7 L 1019.6 -39.7 Q 1004.4 -66, 1034.8 -66 Z" fill="#FCD55C" stroke="black" stroke-width="4"></path><path d="M 1161.2 13.7 L 1126 -6.6 Q 1115.1 -12.9, 1115.1 -25.4 L 1115.1 -66 L 1176.7 -66 Q 1207.2 -66, 1192 -39.7 Z" fill="#FCD55C" stroke="black" stroke-width="4"></path><path d="M 932.8 39.3 L 967.9 59.6 Q 978.8 65.8, 978.8 78.3 L 978.8 119 L 917.2 119 Q 886.8 119, 902 92.6 Z" fill="#FCD55C" stroke="black" stroke-width="4"></path><path d="M 1034.1 23 L 999 43.4 Q 988.1 49.6, 977.3 43.4 L 942.1 23 L 972.9 -30.3 Q 988.1 -56.6, 1003.3 -30.3 Z" fill="#FCD55C" stroke="black" stroke-width="4"></path><path d="M 997.5 119 L 997.5 78.3 Q 997.5 65.8, 1008.3 59.6 L 1043.5 39.3 L 1074.3 92.6 Q 1089.5 119, 1059.1 119 Z" fill="#FCD55C" stroke="black" stroke-width="4"></path><path d="M 942.1 -173.8 L 977.3 -194.1 Q 988.1 -200.4, 999 -194.1 L 1034.1 -173.8 L 1003.3 -120.5 Q 988.1 -94.1, 972.9 -120.5 Z" fill="#FCD55C" stroke="black" stroke-width="4"></path><path d="M 978.8 -269.8 L 978.8 -229.1 Q 978.8 -216.6, 967.9 -210.4 L 932.8 -190.1 L 902 -243.4 Q 886.8 -269.8, 917.2 -269.8 Z" fill="#FCD55C" stroke="black" stroke-width="4"></path><path d="M 1043.5 -190.1 L 1008.3 -210.4 Q 997.5 -216.6, 997.5 -229.1 L 997.5 -269.8 L 1059.1 -269.8 Q 1089.5 -269.8, 1074.3 -243.4 Z" fill="#FCD55C" stroke="black" stroke-width="4"></path><path d="M 815.1 -164.5 L 850.3 -144.1 Q 861.1 -137.9, 861.1 -125.4 L 861.1 -84.8 L 799.5 -84.8 Q 769.1 -84.8, 784.3 -111.1 Z" fill="#FCD55C" stroke="black" stroke-width="4"></path><path d="M 916.5 -180.7 L 881.3 -160.4 Q 870.5 -154.1, 859.7 -160.4 L 824.5 -180.7 L 855.3 -234 Q 870.5 -260.4, 885.7 -234 Z" fill="#FCD55C" stroke="black" stroke-width="4"></path><path d="M 879.9 -84.8 L 879.9 -125.4 Q 879.9 -137.9, 890.7 -144.1 L 925.9 -164.5 L 956.7 -111.1 Q 971.9 -84.8, 941.5 -84.8 Z" fill="#FCD55C" stroke="black" stroke-width="4"></path><path d="M 706.9 -173.8 L 742.1 -194.1 Q 752.9 -200.4, 763.7 -194.1 L 798.9 -173.8 L 768.1 -120.5 Q 752.9 -94.1, 737.7 -120.5 Z" fill="#FCD55C" stroke="black" stroke-width="4"></path><path d="M 743.5 -269.8 L 743.5 -229.1 Q 743.5 -216.6, 732.7 -210.4 L 697.5 -190.1 L 666.7 -243.4 Q 651.5 -269.8, 681.9 -269.8 Z" fill="#FCD55C" stroke="black" stroke-width="4"></path><path d="M 808.3 -190.1 L 773.1 -210.4 Q 762.3 -216.6, 762.3 -229.1 L 762.3 -269.8 L 823.9 -269.8 Q 854.3 -269.8, 839.1 -243.4 Z" fill="#FCD55C" stroke="black" stroke-width="4"></path><path d="M 579.9 -164.5 L 615.1 -144.1 Q 625.9 -137.9, 625.9 -125.4 L 625.9 -84.8 L 564.3 -84.8 Q 533.9 -84.8, 549.1 -111.1 Z" fill="#FCD55C" stroke="black" stroke-width="4"></path><path d="M 681.3 -180.7 L 646.1 -160.4 Q 635.3 -154.1, 624.4 -160.4 L 589.2 -180.7 L 620 -234 Q 635.3 -260.4, 650.5 -234 Z" fill="#FCD55C" stroke="black" stroke-width="4"></path><path d="M 644.6 -84.8 L 644.6 -125.4 Q 644.6 -137.9, 655.5 -144.1 L 690.6 -164.5 L 721.4 -111.1 Q 736.6 -84.8, 706.2 -84.8 Z" fill="#FCD55C" stroke="black" stroke-width="4"></path><path d="M 471.6 -173.8 L 506.8 -194.1 Q 517.6 -200.4, 528.5 -194.1 L 563.6 -173.8 L 532.8 -120.5 Q 517.6 -94.1, 502.4 -120.5 Z" fill="#FCD55C" stroke="black" stroke-width="4"></path><path d="M 508.3 -269.8 L 508.3 -229.1 Q 508.3 -216.6, 497.4 -210.4 L 462.2 -190.1 L 431.4 -243.4 Q 416.2 -269.8, 446.7 -269.8 Z" fill="#FCD55C" stroke="black" stroke-width="4"></path><path d="M 573 -190.1 L 537.8 -210.4 Q 527 -216.6, 527 -229.1 L 527 -269.8 L 588.6 -269.8 Q 619 -269.8, 603.8 -243.4 Z" fill="#FCD55C" stroke="black" stroke-width="4"></path><path d="M 344.6 -164.5 L 379.8 -144.1 Q 390.6 -137.9, 390.6 -125.4 L 390.6 -84.8 L 329 -84.8 Q 298.6 -84.8, 313.8 -111.1 Z" fill="#FCD55C" stroke="black" stroke-width="4"></path><path d="M 446 -180.7 L 410.8 -160.4 Q 400 -154.1, 389.2 -160.4 L 354 -180.7 L 384.8 -234 Q 400 -260.4, 415.2 -234 Z" fill="#FCD55C" stroke="black" stroke-width="4"></path><path d="M 409.4 -84.8 L 409.4 -125.4 Q 409.4 -137.9, 420.2 -144.1 L 455.4 -164.5 L 486.2 -111.1 Q 501.4 -84.8, 471 -84.8 Z" fill="#FCD55C" stroke="black" stroke-width="4"></path><path d="M 236.4 -173.8 L 271.5 -194.1 Q 282.4 -200.4, 293.2 -194.1 L 328.4 -173.8 L 297.6 -120.5 Q 282.4 -94.1, 267.2 -120.5 Z" fill="#FCD55C" stroke="black" stroke-width="4"></path><path d="M 273 -269.8 L 273 -229.1 Q 273 -216.6, 262.2 -210.4 L 227 -190.1 L 196.2 -243.4 Q 181 -269.8, 211.4 -269.8 Z" fill="#FCD55C" stroke="black" stroke-width="4"></path><path d="M 337.8 -190.1 L 302.6 -210.4 Q 291.7 -216.6, 291.7 -229.1 L 291.7 -269.8 L 353.3 -269.8 Q 383.8 -269.8, 368.6 -243.4 Z" fill="#FCD55C" stroke="black" stroke-width="4"></path><path d="M 109.4 -164.5 L 144.5 -144.1 Q 155.4 -137.9, 155.4 -125.4 L 155.4 -84.8 L 93.8 -84.8 Q 63.4 -84.8, 78.6 -111.1 Z" fill="#FCD55C" stroke="black" stroke-width="4"></path><path d="M 210.8 -180.7 L 175.6 -160.4 Q 164.7 -154.1, 153.9 -160.4 L 118.7 -180.7 L 149.5 -234 Q 164.7 -260.4, 180 -234 Z" fill="#FCD55C" stroke="black" stroke-width="4"></path><path d="M 174.1 -84.8 L 174.1 -125.4 Q 174.1 -137.9, 184.9 -144.1 L 220.1 -164.5 L 250.9 -111.1 Q 266.1 -84.8, 235.7 -84.8 Z" fill="#FCD55C" stroke="black" stroke-width="4"></path><path d="M 1.1 -173.8 L 36.3 -194.1 Q 47.1 -200.4, 57.9 -194.1 L 93.1 -173.8 L 62.3 -120.5 Q 47.1 -94.1, 31.9 -120.5 Z" fill="#FCD55C" stroke="black" stroke-width="4"></path><path d="M 37.7 -269.8 L 37.7 -229.1 Q 37.7 -216.6, 26.9 -210.4 L -8.3 -190.1 L -39.1 -243.4 Q -54.3 -269.8, -23.9 -269.8 Z" fill="#FCD55C" stroke="black" stroke-width="4"></path><path d="M 102.5 -190.1 L 67.3 -210.4 Q 56.5 -216.6, 56.5 -229.1 L 56.5 -269.8 L 118.1 -269.8 Q 148.5 -269.8, 133.3 -243.4 Z" fill="#FCD55C" stroke="black" stroke-width="4"></path><path d="M -125.9 -164.5 L -90.7 -144.1 Q -79.9 -137.9, -79.9 -125.4 L -79.9 -84.8 L -141.5 -84.8 Q -171.9 -84.8, -156.7 -111.1 Z" fill="#FCD55C" stroke="black" stroke-width="4"></path><path d="M -24.5 -180.7 L -59.7 -160.4 Q -70.5 -154.1, -81.3 -160.4 L -116.5 -180.7 L -85.7 -234 Q -70.5 -260.4, -55.3 -234 Z" fill="#FCD55C" stroke="black" stroke-width="4"></path><path d="M -61.1 -84.8 L -61.1 -125.4 Q -61.1 -137.9, -50.3 -144.1 L -15.1 -164.5 L 15.7 -111.1 Q 30.9 -84.8, 0.5 -84.8 Z" fill="#FCD55C" stroke="black" stroke-width="4"></path><path d="M -116.5 29.9 L -81.3 9.6 Q -70.5 3.3, -59.7 9.6 L -24.5 29.9 L -55.3 83.3 Q -70.5 109.6, -85.7 83.3 Z" fill="#FCD55C" stroke="black" stroke-width="4"></path><path d="M -79.9 -66 L -79.9 -25.4 Q -79.9 -12.9, -90.7 -6.6 L -125.9 13.7 L -156.7 -39.7 Q -171.9 -66, -141.5 -66 Z" fill="#FCD55C" stroke="black" stroke-width="4"></path><path d="M -15.1 13.7 L -50.3 -6.6 Q -61.1 -12.9, -61.1 -25.4 L -61.1 -66 L 0.5 -66 Q 30.9 -66, 15.7 -39.7 Z" fill="#FCD55C" stroke="black" stroke-width="4"></path><path d="M -243.5 39.3 L -208.3 59.6 Q -197.5 65.8, -197.5 78.3 L -197.5 119 L -259.1 119 Q -289.5 119, -274.3 92.6 Z" fill="#FCD55C" stroke="black" stroke-width="4"></path><path d="M -142.1 23 L -177.3 43.4 Q -188.1 49.6, -199 43.4 L -234.1 23 L -203.3 -30.3 Q -188.1 -56.6, -172.9 -30.3 Z" fill="#FCD55C" stroke="black" stroke-width="4"></path><path d="M -178.8 119 L -178.8 78.3 Q -178.8 65.8, -167.9 59.6 L -132.8 39.3 L -102 92.6 Q -86.8 119, -117.2 119 Z" fill="#FCD55C" stroke="black" stroke-width="4"></path><path d="M -234.1 233.6 L -199 213.3 Q -188.1 207.1, -177.3 213.3 L -142.1 233.6 L -172.9 287 Q -188.1 313.3, -203.3 287 Z" fill="#FCD55C" stroke="black" stroke-width="4"></path><path d="M -197.5 137.7 L -197.5 178.3 Q -197.5 190.8, -208.3 197.1 L -243.5 217.4 L -274.3 164.1 Q -289.5 137.7, -259.1 137.7 Z" fill="#FCD55C" stroke="black" stroke-width="4"></path><path d="M -132.8 217.4 L -167.9 197.1 Q -178.8 190.8, -178.8 178.3 L -178.8 137.7 L -117.2 137.7 Q -86.8 137.7, -102 164.1 Z" fill="#FCD55C" stroke="black" stroke-width="4"></path><path d="M -361.2 243 L -326 263.3 Q -315.1 269.6, -315.1 282.1 L -315.1 322.7 L -376.7 322.7 Q -407.2 322.7, -392 296.4 Z" fill="#FCD55C" stroke="black" stroke-width="4"></path><path d="M -259.8 226.8 L -294.9 247.1 Q -305.8 253.3, -316.6 247.1 L -351.8 226.8 L -321 173.4 Q -305.8 147.1, -290.6 173.4 Z" fill="#FCD55C" stroke="black" stroke-width="4"></path><path d="M -296.4 322.7 L -296.4 282.1 Q -296.4 269.6, -285.6 263.3 L -250.4 243 L -219.6 296.4 Q -204.4 322.7, -234.8 322.7 Z" fill="#FCD55C" stroke="black" stroke-width="4"></path><path d="M -351.8 437.4 L -316.6 417.1 Q -305.8 410.8, -294.9 417.1 L -259.8 437.4 L -290.6 490.7 Q -305.8 517.1, -321 490.7 Z" fill="#FCD55C" stroke="black" stroke-width="4"></path><path d="M -315.1 341.5 L -315.1 382.1 Q -315.1 394.6, -326 400.8 L -361.2 421.1 L -392 367.8 Q -407.2 341.5, -376.7 341.5 Z" fill="#FCD55C" stroke="black" stroke-width="4"></path><path d="M -250.4 421.1 L -285.6 400.8 Q -296.4 394.6, -296.4 382.1 L -296.4 341.5 L -234.8 341.5 Q -204.4 341.5, -219.6 367.8 Z" fill="#FCD55C" stroke="black" stroke-width="4"></path><path d="M -478.8 446.8 L -443.6 467.1 Q -432.8 473.3, -432.8 485.8 L -432.8 526.5 L -494.4 526.5 Q -524.8 526.5, -509.6 500.1 Z" fill="#FCD55C" stroke="black" stroke-width="4"></path><path d="M -377.4 430.5 L -412.6 450.8 Q -423.4 457.1, -434.2 450.8 L -469.4 430.5 L -438.6 377.2 Q -423.4 350.8, -408.2 377.2 Z" fill="#FCD55C" stroke="black" stroke-width="4"></path><path d="M -414 526.5 L -414 485.8 Q -414 473.3, -403.2 467.1 L -368 446.8 L -337.2 500.1 Q -322 526.5, -352.4 526.5 Z" fill="#FCD55C" stroke="black" stroke-width="4"></path><path d="M -469.4 641.1 L -434.2 620.8 Q -423.4 614.6, -412.6 620.8 L -377.4 641.1 L -408.2 694.5 Q -423.4 720.8, -438.6 694.5 Z" fill="#FCD55C" stroke="black" stroke-width="4"></path><path d="M -432.8 545.2 L -432.8 585.8 Q -432.8 598.3, -443.6 604.6 L -478.8 624.9 L -509.6 571.5 Q -524.8 545.2, -494.4 545.2 Z" fill="#FCD55C" stroke="black" stroke-width="4"></path><path d="M -368 624.9 L -403.2 604.6 Q -414 598.3, -414 585.8 L -414 545.2 L -352.4 545.2 Q -322 545.2, -337.2 571.5 Z" fill="#FCD55C" stroke="black" stroke-width="4"></path><path d="M -596.4 650.5 L -561.2 670.8 Q -550.4 677.1, -550.4 689.6 L -550.4 730.2 L -612 730.2 Q -642.4 730.2, -627.2 703.8 Z" fill="#FCD55C" stroke="black" stroke-width="4"></path><path d="M -495 634.3 L -530.2 654.6 Q -541 660.8, -551.9 654.6 L -587 634.3 L -556.2 580.9 Q -541 554.6, -525.8 580.9 Z" fill="#FCD55C" stroke="black" stroke-width="4"></path><path d="M -531.7 730.2 L -531.7 689.6 Q -531.7 677.1, -520.8 670.8 L -485.6 650.5 L -454.8 703.8 Q -439.6 730.2, -470.1 730.2 Z" fill="#FCD55C" stroke="black" stroke-width="4"></path><path d="M -351.8 844.9 L -316.6 824.6 Q -305.8 818.3, -294.9 824.6 L -259.8 844.9 L -290.6 898.2 Q -305.8 924.6, -321 898.2 Z" fill="#FCD55C" stroke="black" stroke-width="4"></path><path d="M -315.1 748.9 L -315.1 789.6 Q -315.1 802.1, -326 808.3 L -361.2 828.6 L -392 775.3 Q -407.2 748.9, -376.7 748.9 Z" fill="#FCD55C" stroke="black" stroke-width="4"></path><path d="M -250.4 828.6 L -285.6 808.3 Q -296.4 802.1, -296.4 789.6 L -296.4 748.9 L -234.8 748.9 Q -204.4 748.9, -219.6 775.3 Z" fill="#FCD55C" stroke="black" stroke-width="4"></path><path d="M -478.8 854.2 L -443.6 874.6 Q -432.8 880.8, -432.8 893.3 L -432.8 933.9 L -494.4 933.9 Q -524.8 933.9, -509.6 907.6 Z" fill="#FCD55C" stroke="black" stroke-width="4"></path><path d="M -377.4 838 L -412.6 858.3 Q -423.4 864.6, -434.2 858.3 L -469.4 838 L -438.6 784.7 Q -423.4 758.3, -408.2 784.7 Z" fill="#FCD55C" stroke="black" stroke-width="4"></path><path d="M -414 933.9 L -414 893.3 Q -414 880.8, -403.2 874.6 L -368 854.2 L -337.2 907.6 Q -322 933.9, -352.4 933.9 Z" fill="#FCD55C" stroke="black" stroke-width="4"></path><path d="M -234.1 1048.6 L -199 1028.3 Q -188.1 1022, -177.3 1028.3 L -142.1 1048.6 L -172.9 1101.9 Q -188.1 1128.3, -203.3 1101.9 Z" fill="#FCD55C" stroke="black" stroke-width="4"></path><path d="M -197.5 952.7 L -197.5 993.3 Q -197.5 1005.8, -208.3 1012.1 L -243.5 1032.4 L -274.3 979 Q -289.5 952.7, -259.1 952.7 Z" fill="#FCD55C" stroke="black" stroke-width="4"></path><path d="M -132.8 1032.4 L -167.9 1012.1 Q -178.8 1005.8, -178.8 993.3 L -178.8 952.7 L -117.2 952.7 Q -86.8 952.7, -102 979 Z" fill="#FCD55C" stroke="black" stroke-width="4"></path><path d="M -361.2 1058 L -326 1078.3 Q -315.1 1084.5, -315.1 1097 L -315.1 1137.7 L -376.7 1137.7 Q -407.2 1137.7, -392 1111.3 Z" fill="#FCD55C" stroke="black" stroke-width="4"></path><path d="M -259.8 1041.7 L -294.9 1062.1 Q -305.8 1068.3, -316.6 1062.1 L -351.8 1041.7 L -321 988.4 Q -305.8 962.1, -290.6 988.4 Z" fill="#FCD55C" stroke="black" stroke-width="4"></path><path d="M -296.4 1137.7 L -296.4 1097 Q -296.4 1084.5, -285.6 1078.3 L -250.4 1058 L -219.6 1111.3 Q -204.4 1137.7, -234.8 1137.7 Z" fill="#FCD55C" stroke="black" stroke-width="4"></path><path d="M -116.5 1252.3 L -81.3 1232 Q -70.5 1225.8, -59.7 1232 L -24.5 1252.3 L -55.3 1305.7 Q -70.5 1332, -85.7 1305.7 Z" fill="#FCD55C" stroke="black" stroke-width="4"></path><path d="M -79.9 1156.4 L -79.9 1197 Q -79.9 1209.5, -90.7 1215.8 L -125.9 1236.1 L -156.7 1182.8 Q -171.9 1156.4, -141.5 1156.4 Z" fill="#FCD55C" stroke="black" stroke-width="4"></path><path d="M -15.1 1236.1 L -50.3 1215.8 Q -61.1 1209.5, -61.1 1197 L -61.1 1156.4 L 0.5 1156.4 Q 30.9 1156.4, 15.7 1182.8 Z" fill="#FCD55C" stroke="black" stroke-width="4"></path><path d="M -243.5 1261.7 L -208.3 1282 Q -197.5 1288.3, -197.5 1300.8 L -197.5 1341.4 L -259.1 1341.4 Q -289.5 1341.4, -274.3 1315.1 Z" fill="#FCD55C" stroke="black" stroke-width="4"></path><path d="M -142.1 1245.5 L -177.3 1265.8 Q -188.1 1272, -199 1265.8 L -234.1 1245.5 L -203.3 1192.1 Q -188.1 1165.8, -172.9 1192.1 Z" fill="#FCD55C" stroke="black" stroke-width="4"></path><path d="M -178.8 1341.4 L -178.8 1300.8 Q -178.8 1288.3, -167.9 1282 L -132.8 1261.7 L -102 1315.1 Q -86.8 1341.4, -117.2 1341.4 Z" fill="#FCD55C" stroke="black" stroke-width="4"></path><ellipse cx="400" cy="400" rx="600" ry="600" fill="none" stroke="white" stroke-width="560"></ellipse><ellipse cx="400" cy="400" rx="320" ry="320" fill="none" stroke="black" stroke-width="4"></ellipse></svg>