<svg viewBox="0 0 800 800" preserveAspectRatio="xMidYMin slice" xmlns="http://www.w3.org/2000/svg" xlink="http://www.w3.org/1999/xlink"><defs><g id="hexagon-24"><path d="M 108.3 50 Q 108.3 62.5, 97.4 68.8 L 10.8 118.8 Q 0 125, -10.8 118.8 L -97.4 68.8 Q -108.3 62.5, -108.3 50 L -108.3 -50 Q -108.3 -62.5, -97.4 -68.8 L -10.8 -118.7 Q 0 -125, 10.8 -118.7 L 97.4 -68.8 Q 108.3 -62.5, 108.3 -50 Z" fill="#FDF3CF" stroke="black" stroke-width="4"></path></g><g id="other-bits-24"><path d="M 71.6 105.3 L 106.8 85 Q 117.6 78.7, 128.5 85 L 163.6 105.3 L 132.8 158.6 Q 117.6 185, 102.4 158.6 Z" fill="#FCD55C" stroke="black" stroke-width="4"></path><path d="M 108.3 9.4 L 108.3 50 Q 108.3 62.5, 97.4 68.7 L 62.2 89.1 L 31.4 35.7 Q 16.2 9.4, 46.7 9.4 Z" fill="#FCD55C" stroke="black" stroke-width="4"></path><path d="M 173 89.1 L 137.8 68.7 Q 127 62.5, 127 50 L 127 9.4 L 188.6 9.4 Q 219 9.4, 203.8 35.7 Z" fill="#FCD55C" stroke="black" stroke-width="4"></path><path d="M -55.4 114.7 L -20.2 135 Q -9.4 141.2, -9.4 153.7 L -9.4 194.4 L -71 194.4 Q -101.4 194.4, -86.2 168 Z" fill="#FCD55C" stroke="black" stroke-width="4"></path><path d="M 46 98.4 L 10.8 118.7 Q 0 125, -10.8 118.8 L -46 98.4 L -15.2 45.1 Q 0 18.7, 15.2 45.1 Z" fill="#FCD55C" stroke="black" stroke-width="4"></path><path d="M 9.4 194.4 L 9.4 153.7 Q 9.4 141.2, 20.2 135 L 55.4 114.7 L 86.2 168 Q 101.4 194.4, 71 194.4 Z" fill="#FCD55C" stroke="black" stroke-width="4"></path></g></defs><rect x="0" y="0" width="800" height="800" fill="#FC9304"></rect><use href="#hexagon-24" transform="translate(400, 535.8)"></use><use href="#hexagon-24" transform="translate(282.4, 739.6)"></use><use href="#hexagon-24" transform="translate(517.6, 739.6)"></use><use href="#hexagon-24" transform="translate(635.3, 535.8)"></use><use href="#hexagon-24" transform="translate(517.6, 332.1)"></use><use href="#hexagon-24" transform="translate(282.4, 332.1)"></use><use href="#hexagon-24" transform="translate(164.7, 535.8)"></use><use href="#hexagon-24" transform="translate(164.7, 943.3)"></use><use href="#hexagon-24" transform="translate(400, 943.3)"></use><use href="#hexagon-24" transform="translate(635.3, 943.3)"></use><use href="#hexagon-24" transform="translate(752.9, 739.6)"></use><use href="#hexagon-24" transform="translate(870.5, 535.8)"></use><use href="#hexagon-24" transform="translate(752.9, 332.1)"></use><use href="#hexagon-24" transform="translate(635.3, 128.3)"></use><use href="#hexagon-24" transform="translate(400, 128.3)"></use><use href="#hexagon-24" transform="translate(164.7, 128.3)"></use><use href="#hexagon-24" transform="translate(47.1, 332.1)"></use><use href="#hexagon-24" transform="translate(-70.5, 535.8)"></use><use href="#hexagon-24" transform="translate(47.1, 739.6)"></use><use href="#hexagon-24" transform="translate(47.1, 1147)"></use><use href="#hexagon-24" transform="translate(282.4, 1147)"></use><use href="#hexagon-24" transform="translate(517.6, 1147)"></use><use href="#hexagon-24" transform="translate(752.9, 1147)"></use><use href="#hexagon-24" transform="translate(870.5, 943.3)"></use><use href="#hexagon-24" transform="translate(988.1, 739.6)"></use><use href="#hexagon-24" transform="translate(1105.8, 535.8)"></use><use href="#hexagon-24" transform="translate(988.1, 332.1)"></use><use href="#hexagon-24" transform="translate(870.5, 128.3)"></use><use href="#hexagon-24" transform="translate(752.9, -75.4)"></use><use href="#hexagon-24" transform="translate(517.6, -75.4)"></use><use href="#hexagon-24" transform="translate(282.4, -75.4)"></use><use href="#hexagon-24" transform="translate(47.1, -75.4)"></use><use href="#hexagon-24" transform="translate(-70.5, 128.3)"></use><use href="#hexagon-24" transform="translate(-188.1, 332.1)"></use><use href="#hexagon-24" transform="translate(-305.8, 535.8)"></use><use href="#hexagon-24" transform="translate(-188.1, 739.6)"></use><use href="#hexagon-24" transform="translate(-70.5, 943.3)"></use><use href="#hexagon-24" transform="translate(-70.5, 1350.8)"></use><use href="#hexagon-24" transform="translate(164.7, 1350.8)"></use><use href="#hexagon-24" transform="translate(400, 1350.8)"></use><use href="#hexagon-24" transform="translate(635.3, 1350.8)"></use><use href="#hexagon-24" transform="translate(870.5, 1350.8)"></use><use href="#hexagon-24" transform="translate(988.1, 1147)"></use><use href="#hexagon-24" transform="translate(1105.8, 943.3)"></use><use href="#hexagon-24" transform="translate(1223.4, 739.6)"></use><use href="#hexagon-24" transform="translate(1341, 535.8)"></use><use href="#hexagon-24" transform="translate(1223.4, 332.1)"></use><use href="#hexagon-24" transform="translate(1105.8, 128.3)"></use><use href="#hexagon-24" transform="translate(988.1, -75.4)"></use><use href="#hexagon-24" transform="translate(870.5, -279.1)"></use><use href="#hexagon-24" transform="translate(635.3, -279.1)"></use><use href="#hexagon-24" transform="translate(400, -279.1)"></use><use href="#hexagon-24" transform="translate(164.7, -279.1)"></use><use href="#hexagon-24" transform="translate(-70.5, -279.1)"></use><use href="#hexagon-24" transform="translate(-188.1, -75.4)"></use><use href="#hexagon-24" transform="translate(-305.8, 128.3)"></use><use href="#hexagon-24" transform="translate(-423.4, 332.1)"></use><use href="#hexagon-24" transform="translate(-541, 535.8)"></use><use href="#hexagon-24" transform="translate(-423.4, 739.6)"></use><use href="#hexagon-24" transform="translate(-305.8, 943.3)"></use><use href="#hexagon-24" transform="translate(-188.1, 1147)"></use><use href="#other-bits-24" transform="translate(400, 535.8)"></use><use href="#other-bits-24" transform="translate(282.4, 739.6)"></use><use href="#other-bits-24" transform="translate(517.6, 739.6)"></use><use href="#other-bits-24" transform="translate(635.3, 535.8)"></use><use href="#other-bits-24" transform="translate(517.6, 332.1)"></use><use href="#other-bits-24" transform="translate(282.4, 332.1)"></use><use href="#other-bits-24" transform="translate(164.7, 535.8)"></use><use href="#other-bits-24" transform="translate(164.7, 943.3)"></use><use href="#other-bits-24" transform="translate(400, 943.3)"></use><use href="#other-bits-24" transform="translate(635.3, 943.3)"></use><use href="#other-bits-24" transform="translate(752.9, 739.6)"></use><use href="#other-bits-24" transform="translate(870.5, 535.8)"></use><use href="#other-bits-24" transform="translate(752.9, 332.1)"></use><use href="#other-bits-24" transform="translate(635.3, 128.3)"></use><use href="#other-bits-24" transform="translate(400, 128.3)"></use><use href="#other-bits-24" transform="translate(164.7, 128.3)"></use><use href="#other-bits-24" transform="translate(47.1, 332.1)"></use><use href="#other-bits-24" transform="translate(-70.5, 535.8)"></use><use href="#other-bits-24" transform="translate(47.1, 739.6)"></use><use href="#other-bits-24" transform="translate(47.1, 1147)"></use><use href="#other-bits-24" transform="translate(282.4, 1147)"></use><use href="#other-bits-24" transform="translate(517.6, 1147)"></use><use href="#other-bits-24" transform="translate(752.9, 1147)"></use><use href="#other-bits-24" transform="translate(870.5, 943.3)"></use><use href="#other-bits-24" transform="translate(988.1, 739.6)"></use><use href="#other-bits-24" transform="translate(1105.8, 535.8)"></use><use href="#other-bits-24" transform="translate(988.1, 332.1)"></use><use href="#other-bits-24" transform="translate(870.5, 128.3)"></use><use href="#other-bits-24" transform="translate(752.9, -75.4)"></use><use href="#other-bits-24" transform="translate(517.6, -75.4)"></use><use href="#other-bits-24" transform="translate(282.4, -75.4)"></use><use href="#other-bits-24" transform="translate(47.1, -75.4)"></use><use href="#other-bits-24" transform="translate(-70.5, 128.3)"></use><use href="#other-bits-24" transform="translate(-188.1, 332.1)"></use><use href="#other-bits-24" transform="translate(-305.8, 535.8)"></use><use href="#other-bits-24" transform="translate(-188.1, 739.6)"></use><use href="#other-bits-24" transform="translate(-70.5, 943.3)"></use><use href="#other-bits-24" transform="translate(-70.5, 1350.8)"></use><use href="#other-bits-24" transform="translate(164.7, 1350.8)"></use><use href="#other-bits-24" transform="translate(400, 1350.8)"></use><use href="#other-bits-24" transform="translate(635.3, 1350.8)"></use><use href="#other-bits-24" transform="translate(870.5, 1350.8)"></use><use href="#other-bits-24" transform="translate(988.1, 1147)"></use><use href="#other-bits-24" transform="translate(1105.8, 943.3)"></use><use href="#other-bits-24" transform="translate(1223.4, 739.6)"></use><use href="#other-bits-24" transform="translate(1341, 535.8)"></use><use href="#other-bits-24" transform="translate(1223.4, 332.1)"></use><use href="#other-bits-24" transform="translate(1105.8, 128.3)"></use><use href="#other-bits-24" transform="translate(988.1, -75.4)"></use><use href="#other-bits-24" transform="translate(870.5, -279.1)"></use><use href="#other-bits-24" transform="translate(635.3, -279.1)"></use><use href="#other-bits-24" transform="translate(400, -279.1)"></use><use href="#other-bits-24" transform="translate(164.7, -279.1)"></use><use href="#other-bits-24" transform="translate(-70.5, -279.1)"></use><use href="#other-bits-24" transform="translate(-188.1, -75.4)"></use><use href="#other-bits-24" transform="translate(-305.8, 128.3)"></use><use href="#other-bits-24" transform="translate(-423.4, 332.1)"></use><use href="#other-bits-24" transform="translate(-541, 535.8)"></use><use href="#other-bits-24" transform="translate(-423.4, 739.6)"></use><use href="#other-bits-24" transform="translate(-305.8, 943.3)"></use><use href="#other-bits-24" transform="translate(-188.1, 1147)"></use><ellipse cx="400" cy="400" rx="600" ry="600" fill="none" stroke="white" stroke-width="560"></ellipse><ellipse cx="400" cy="400" rx="320" ry="320" fill="none" stroke="black" stroke-width="4"></ellipse></svg>