<svg viewBox="0 0 800 800" preserveAspectRatio="xMidYMin slice" xmlns="http://www.w3.org/2000/svg" xlink="http://www.w3.org/1999/xlink"><defs><g id="hexagon-25"><path d="M 0 70 L -60.6 35 L -60.6 -35 L 0 -70 L 60.6 -35 L 60.6 35 Z" fill="#fb6376" stroke="#5d2a42" stroke-width="4"></path></g><g id="other-bits-25"><path d="M 22.2 143.4 L -22.2 143.4 L 0 105 Z" fill="#fff9ec" stroke="#5d2a42" stroke-width="4"></path><path d="M -37.3 169.7 L -52.5 160.9 L -52.5 143.4 L -22.2 143.4 Z" fill="#fcb1a6" stroke="#5d2a42" stroke-width="4"></path><path d="M -15.2 78.8 L 0 70 L 15.2 78.8 L 0 105 Z" fill="#fcb1a6" stroke="#5d2a42" stroke-width="4"></path><path d="M 52.5 143.4 L 52.5 160.9 L 37.3 169.7 L 22.2 143.4 Z" fill="#fcb1a6" stroke="#5d2a42" stroke-width="4"></path><path d="M -113.1 90.9 L -135.3 52.5 L -90.9 52.5 Z" fill="#fff9ec" stroke="#5d2a42" stroke-width="4"></path><path d="M -165.6 52.5 L -165.6 35 L -150.5 26.2 L -135.3 52.5 Z" fill="#fcb1a6" stroke="#5d2a42" stroke-width="4"></path><path d="M -75.8 26.2 L -60.6 35 L -60.6 52.5 L -90.9 52.5 Z" fill="#fcb1a6" stroke="#5d2a42" stroke-width="4"></path><path d="M -98 117.2 L -113.1 125.9 L -128.3 117.2 L -113.1 90.9 Z" fill="#fcb1a6" stroke="#5d2a42" stroke-width="4"></path></g></defs><rect x="0" y="0" width="800" height="800" fill="#ffdccc"></rect><use href="#hexagon-25" transform="translate(286.9, 465.3)"></use><use href="#hexagon-25" transform="translate(60.6, 465.3)"></use><use href="#hexagon-25" transform="translate(173.8, 661.2)"></use><use href="#hexagon-25" transform="translate(400, 661.2)"></use><use href="#hexagon-25" transform="translate(513.1, 465.3)"></use><use href="#hexagon-25" transform="translate(400, 269.4)"></use><use href="#hexagon-25" transform="translate(173.8, 269.4)"></use><use href="#hexagon-25" transform="translate(-165.6, 465.3)"></use><use href="#hexagon-25" transform="translate(-52.5, 661.2)"></use><use href="#hexagon-25" transform="translate(60.6, 857.2)"></use><use href="#hexagon-25" transform="translate(286.9, 857.2)"></use><use href="#hexagon-25" transform="translate(513.1, 857.2)"></use><use href="#hexagon-25" transform="translate(626.2, 661.2)"></use><use href="#hexagon-25" transform="translate(739.4, 465.3)"></use><use href="#hexagon-25" transform="translate(626.2, 269.4)"></use><use href="#hexagon-25" transform="translate(513.1, 73.4)"></use><use href="#hexagon-25" transform="translate(286.9, 73.4)"></use><use href="#hexagon-25" transform="translate(60.6, 73.4)"></use><use href="#hexagon-25" transform="translate(-52.5, 269.4)"></use><use href="#hexagon-25" transform="translate(-391.9, 465.3)"></use><use href="#hexagon-25" transform="translate(-278.7, 661.2)"></use><use href="#hexagon-25" transform="translate(-165.6, 857.2)"></use><use href="#hexagon-25" transform="translate(-52.5, 1053.1)"></use><use href="#hexagon-25" transform="translate(173.8, 1053.1)"></use><use href="#hexagon-25" transform="translate(400, 1053.1)"></use><use href="#hexagon-25" transform="translate(626.2, 1053.1)"></use><use href="#hexagon-25" transform="translate(739.4, 857.2)"></use><use href="#hexagon-25" transform="translate(852.5, 661.2)"></use><use href="#hexagon-25" transform="translate(965.6, 465.3)"></use><use href="#hexagon-25" transform="translate(852.5, 269.4)"></use><use href="#hexagon-25" transform="translate(739.4, 73.4)"></use><use href="#hexagon-25" transform="translate(626.2, -122.5)"></use><use href="#hexagon-25" transform="translate(400, -122.5)"></use><use href="#hexagon-25" transform="translate(173.8, -122.5)"></use><use href="#hexagon-25" transform="translate(-52.5, -122.5)"></use><use href="#hexagon-25" transform="translate(-165.6, 73.4)"></use><use href="#hexagon-25" transform="translate(-278.7, 269.4)"></use><use href="#hexagon-25" transform="translate(-618.1, 465.3)"></use><use href="#hexagon-25" transform="translate(-505, 661.2)"></use><use href="#hexagon-25" transform="translate(-391.9, 857.2)"></use><use href="#hexagon-25" transform="translate(-278.7, 1053.1)"></use><use href="#hexagon-25" transform="translate(-165.6, 1249)"></use><use href="#hexagon-25" transform="translate(60.6, 1249)"></use><use href="#hexagon-25" transform="translate(286.9, 1249)"></use><use href="#hexagon-25" transform="translate(513.1, 1249)"></use><use href="#hexagon-25" transform="translate(739.4, 1249)"></use><use href="#hexagon-25" transform="translate(852.5, 1053.1)"></use><use href="#hexagon-25" transform="translate(965.6, 857.2)"></use><use href="#hexagon-25" transform="translate(1078.7, 661.2)"></use><use href="#hexagon-25" transform="translate(1191.9, 465.3)"></use><use href="#hexagon-25" transform="translate(1078.7, 269.4)"></use><use href="#hexagon-25" transform="translate(965.6, 73.4)"></use><use href="#hexagon-25" transform="translate(852.5, -122.5)"></use><use href="#hexagon-25" transform="translate(739.4, -318.4)"></use><use href="#hexagon-25" transform="translate(513.1, -318.4)"></use><use href="#hexagon-25" transform="translate(286.9, -318.4)"></use><use href="#hexagon-25" transform="translate(60.6, -318.4)"></use><use href="#hexagon-25" transform="translate(-165.6, -318.4)"></use><use href="#hexagon-25" transform="translate(-278.7, -122.5)"></use><use href="#hexagon-25" transform="translate(-391.9, 73.4)"></use><use href="#hexagon-25" transform="translate(-505, 269.4)"></use><use href="#other-bits-25" transform="translate(286.9, 465.3)"></use><use href="#other-bits-25" transform="translate(60.6, 465.3)"></use><use href="#other-bits-25" transform="translate(173.8, 661.2)"></use><use href="#other-bits-25" transform="translate(400, 661.2)"></use><use href="#other-bits-25" transform="translate(513.1, 465.3)"></use><use href="#other-bits-25" transform="translate(400, 269.4)"></use><use href="#other-bits-25" transform="translate(173.8, 269.4)"></use><use href="#other-bits-25" transform="translate(-165.6, 465.3)"></use><use href="#other-bits-25" transform="translate(-52.5, 661.2)"></use><use href="#other-bits-25" transform="translate(60.6, 857.2)"></use><use href="#other-bits-25" transform="translate(286.9, 857.2)"></use><use href="#other-bits-25" transform="translate(513.1, 857.2)"></use><use href="#other-bits-25" transform="translate(626.2, 661.2)"></use><use href="#other-bits-25" transform="translate(739.4, 465.3)"></use><use href="#other-bits-25" transform="translate(626.2, 269.4)"></use><use href="#other-bits-25" transform="translate(513.1, 73.4)"></use><use href="#other-bits-25" transform="translate(286.9, 73.4)"></use><use href="#other-bits-25" transform="translate(60.6, 73.4)"></use><use href="#other-bits-25" transform="translate(-52.5, 269.4)"></use><use href="#other-bits-25" transform="translate(-391.9, 465.3)"></use><use href="#other-bits-25" transform="translate(-278.7, 661.2)"></use><use href="#other-bits-25" transform="translate(-165.6, 857.2)"></use><use href="#other-bits-25" transform="translate(-52.5, 1053.1)"></use><use href="#other-bits-25" transform="translate(173.8, 1053.1)"></use><use href="#other-bits-25" transform="translate(400, 1053.1)"></use><use href="#other-bits-25" transform="translate(626.2, 1053.1)"></use><use href="#other-bits-25" transform="translate(739.4, 857.2)"></use><use href="#other-bits-25" transform="translate(852.5, 661.2)"></use><use href="#other-bits-25" transform="translate(965.6, 465.3)"></use><use href="#other-bits-25" transform="translate(852.5, 269.4)"></use><use href="#other-bits-25" transform="translate(739.4, 73.4)"></use><use href="#other-bits-25" transform="translate(626.2, -122.5)"></use><use href="#other-bits-25" transform="translate(400, -122.5)"></use><use href="#other-bits-25" transform="translate(173.8, -122.5)"></use><use href="#other-bits-25" transform="translate(-52.5, -122.5)"></use><use href="#other-bits-25" transform="translate(-165.6, 73.4)"></use><use href="#other-bits-25" transform="translate(-278.7, 269.4)"></use><use href="#other-bits-25" transform="translate(-618.1, 465.3)"></use><use href="#other-bits-25" transform="translate(-505, 661.2)"></use><use href="#other-bits-25" transform="translate(-391.9, 857.2)"></use><use href="#other-bits-25" transform="translate(-278.7, 1053.1)"></use><use href="#other-bits-25" transform="translate(-165.6, 1249)"></use><use href="#other-bits-25" transform="translate(60.6, 1249)"></use><use href="#other-bits-25" transform="translate(286.9, 1249)"></use><use href="#other-bits-25" transform="translate(513.1, 1249)"></use><use href="#other-bits-25" transform="translate(739.4, 1249)"></use><use href="#other-bits-25" transform="translate(852.5, 1053.1)"></use><use href="#other-bits-25" transform="translate(965.6, 857.2)"></use><use href="#other-bits-25" transform="translate(1078.7, 661.2)"></use><use href="#other-bits-25" transform="translate(1191.9, 465.3)"></use><use href="#other-bits-25" transform="translate(1078.7, 269.4)"></use><use href="#other-bits-25" transform="translate(965.6, 73.4)"></use><use href="#other-bits-25" transform="translate(852.5, -122.5)"></use><use href="#other-bits-25" transform="translate(739.4, -318.4)"></use><use href="#other-bits-25" transform="translate(513.1, -318.4)"></use><use href="#other-bits-25" transform="translate(286.9, -318.4)"></use><use href="#other-bits-25" transform="translate(60.6, -318.4)"></use><use href="#other-bits-25" transform="translate(-165.6, -318.4)"></use><use href="#other-bits-25" transform="translate(-278.7, -122.5)"></use><use href="#other-bits-25" transform="translate(-391.9, 73.4)"></use><use href="#other-bits-25" transform="translate(-505, 269.4)"></use><ellipse cx="400" cy="400" rx="600" ry="600" fill="none" stroke="white" stroke-width="560"></ellipse><ellipse cx="400" cy="400" rx="320" ry="320" fill="none" stroke="#5d2a42" stroke-width="4"></ellipse></svg>