<svg viewBox="0 0 800 800" preserveAspectRatio="xMidYMin slice" xmlns="http://www.w3.org/2000/svg"><rect x="0" y="0" width="800" height="800" fill="#ffdccc"></rect><path d="M 286.9 535.3 L 226.3 500.3 L 226.3 430.3 L 286.9 395.3 L 347.5 430.3 L 347.5 500.3 Z" fill="#fb6376" stroke="#5d2a42" stroke-width="4"></path><path d="M 60.6 535.3 L 0 500.3 L 0 430.3 L 60.6 395.3 L 121.3 430.3 L 121.3 500.3 Z" fill="#fb6376" stroke="#5d2a42" stroke-width="4"></path><path d="M 173.8 731.2 L 113.1 696.2 L 113.1 626.2 L 173.8 591.2 L 234.4 626.2 L 234.4 696.2 Z" fill="#fb6376" stroke="#5d2a42" stroke-width="4"></path><path d="M 400 731.2 L 339.4 696.2 L 339.4 626.2 L 400 591.2 L 460.6 626.2 L 460.6 696.2 Z" fill="#fb6376" stroke="#5d2a42" stroke-width="4"></path><path d="M 513.1 535.3 L 452.5 500.3 L 452.5 430.3 L 513.1 395.3 L 573.7 430.3 L 573.7 500.3 Z" fill="#fb6376" stroke="#5d2a42" stroke-width="4"></path><path d="M 400 339.4 L 339.4 304.4 L 339.4 234.4 L 400 199.4 L 460.6 234.4 L 460.6 304.4 Z" fill="#fb6376" stroke="#5d2a42" stroke-width="4"></path><path d="M 173.8 339.4 L 113.1 304.4 L 113.1 234.4 L 173.8 199.4 L 234.4 234.4 L 234.4 304.4 Z" fill="#fb6376" stroke="#5d2a42" stroke-width="4"></path><path d="M -165.6 535.3 L -226.2 500.3 L -226.2 430.3 L -165.6 395.3 L -105 430.3 L -105 500.3 Z" fill="#fb6376" stroke="#5d2a42" stroke-width="4"></path><path d="M -52.5 731.2 L -113.1 696.2 L -113.1 626.2 L -52.5 591.2 L 8.1 626.2 L 8.1 696.2 Z" fill="#fb6376" stroke="#5d2a42" stroke-width="4"></path><path d="M 60.6 927.2 L 0 892.2 L 0 822.2 L 60.6 787.2 L 121.3 822.2 L 121.3 892.2 Z" fill="#fb6376" stroke="#5d2a42" stroke-width="4"></path><path d="M 286.9 927.2 L 226.3 892.2 L 226.3 822.2 L 286.9 787.2 L 347.5 822.2 L 347.5 892.2 Z" fill="#fb6376" stroke="#5d2a42" stroke-width="4"></path><path d="M 513.1 927.2 L 452.5 892.2 L 452.5 822.2 L 513.1 787.2 L 573.7 822.2 L 573.7 892.2 Z" fill="#fb6376" stroke="#5d2a42" stroke-width="4"></path><path d="M 626.2 731.2 L 565.6 696.2 L 565.6 626.2 L 626.2 591.2 L 686.9 626.2 L 686.9 696.2 Z" fill="#fb6376" stroke="#5d2a42" stroke-width="4"></path><path d="M 739.4 535.3 L 678.7 500.3 L 678.7 430.3 L 739.4 395.3 L 800 430.3 L 800 500.3 Z" fill="#fb6376" stroke="#5d2a42" stroke-width="4"></path><path d="M 626.2 339.4 L 565.6 304.4 L 565.6 234.4 L 626.2 199.4 L 686.9 234.4 L 686.9 304.4 Z" fill="#fb6376" stroke="#5d2a42" stroke-width="4"></path><path d="M 513.1 143.4 L 452.5 108.4 L 452.5 38.4 L 513.1 3.4 L 573.7 38.4 L 573.7 108.4 Z" fill="#fb6376" stroke="#5d2a42" stroke-width="4"></path><path d="M 286.9 143.4 L 226.3 108.4 L 226.3 38.4 L 286.9 3.4 L 347.5 38.4 L 347.5 108.4 Z" fill="#fb6376" stroke="#5d2a42" stroke-width="4"></path><path d="M 60.6 143.4 L 0 108.4 L 0 38.4 L 60.6 3.4 L 121.3 38.4 L 121.3 108.4 Z" fill="#fb6376" stroke="#5d2a42" stroke-width="4"></path><path d="M -52.5 339.4 L -113.1 304.4 L -113.1 234.4 L -52.5 199.4 L 8.1 234.4 L 8.1 304.4 Z" fill="#fb6376" stroke="#5d2a42" stroke-width="4"></path><path d="M -391.9 535.3 L -452.5 500.3 L -452.5 430.3 L -391.9 395.3 L -331.2 430.3 L -331.2 500.3 Z" fill="#fb6376" stroke="#5d2a42" stroke-width="4"></path><path d="M -278.7 731.2 L -339.4 696.2 L -339.4 626.2 L -278.7 591.2 L -218.1 626.2 L -218.1 696.2 Z" fill="#fb6376" stroke="#5d2a42" stroke-width="4"></path><path d="M -165.6 927.2 L -226.2 892.2 L -226.2 822.2 L -165.6 787.2 L -105 822.2 L -105 892.2 Z" fill="#fb6376" stroke="#5d2a42" stroke-width="4"></path><path d="M -52.5 1123.1 L -113.1 1088.1 L -113.1 1018.1 L -52.5 983.1 L 8.1 1018.1 L 8.1 1088.1 Z" fill="#fb6376" stroke="#5d2a42" stroke-width="4"></path><path d="M 173.8 1123.1 L 113.1 1088.1 L 113.1 1018.1 L 173.8 983.1 L 234.4 1018.1 L 234.4 1088.1 Z" fill="#fb6376" stroke="#5d2a42" stroke-width="4"></path><path d="M 400 1123.1 L 339.4 1088.1 L 339.4 1018.1 L 400 983.1 L 460.6 1018.1 L 460.6 1088.1 Z" fill="#fb6376" stroke="#5d2a42" stroke-width="4"></path><path d="M 626.2 1123.1 L 565.6 1088.1 L 565.6 1018.1 L 626.2 983.1 L 686.9 1018.1 L 686.9 1088.1 Z" fill="#fb6376" stroke="#5d2a42" stroke-width="4"></path><path d="M 739.4 927.2 L 678.7 892.2 L 678.7 822.2 L 739.4 787.2 L 800 822.2 L 800 892.2 Z" fill="#fb6376" stroke="#5d2a42" stroke-width="4"></path><path d="M 852.5 731.2 L 791.9 696.2 L 791.9 626.2 L 852.5 591.2 L 913.1 626.2 L 913.1 696.2 Z" fill="#fb6376" stroke="#5d2a42" stroke-width="4"></path><path d="M 965.6 535.3 L 905 500.3 L 905 430.3 L 965.6 395.3 L 1026.2 430.3 L 1026.2 500.3 Z" fill="#fb6376" stroke="#5d2a42" stroke-width="4"></path><path d="M 852.5 339.4 L 791.9 304.4 L 791.9 234.4 L 852.5 199.4 L 913.1 234.4 L 913.1 304.4 Z" fill="#fb6376" stroke="#5d2a42" stroke-width="4"></path><path d="M 739.4 143.4 L 678.7 108.4 L 678.7 38.4 L 739.4 3.4 L 800 38.4 L 800 108.4 Z" fill="#fb6376" stroke="#5d2a42" stroke-width="4"></path><path d="M 626.2 -52.5 L 565.6 -87.5 L 565.6 -157.5 L 626.2 -192.5 L 686.9 -157.5 L 686.9 -87.5 Z" fill="#fb6376" stroke="#5d2a42" stroke-width="4"></path><path d="M 400 -52.5 L 339.4 -87.5 L 339.4 -157.5 L 400 -192.5 L 460.6 -157.5 L 460.6 -87.5 Z" fill="#fb6376" stroke="#5d2a42" stroke-width="4"></path><path d="M 173.8 -52.5 L 113.1 -87.5 L 113.1 -157.5 L 173.8 -192.5 L 234.4 -157.5 L 234.4 -87.5 Z" fill="#fb6376" stroke="#5d2a42" stroke-width="4"></path><path d="M -52.5 -52.5 L -113.1 -87.5 L -113.1 -157.5 L -52.5 -192.5 L 8.1 -157.5 L 8.1 -87.5 Z" fill="#fb6376" stroke="#5d2a42" stroke-width="4"></path><path d="M -165.6 143.4 L -226.2 108.4 L -226.2 38.4 L -165.6 3.4 L -105 38.4 L -105 108.4 Z" fill="#fb6376" stroke="#5d2a42" stroke-width="4"></path><path d="M -278.7 339.4 L -339.4 304.4 L -339.4 234.4 L -278.7 199.4 L -218.1 234.4 L -218.1 304.4 Z" fill="#fb6376" stroke="#5d2a42" stroke-width="4"></path><path d="M -618.1 535.3 L -678.7 500.3 L -678.7 430.3 L -618.1 395.3 L -557.5 430.3 L -557.5 500.3 Z" fill="#fb6376" stroke="#5d2a42" stroke-width="4"></path><path d="M -505 731.2 L -565.6 696.2 L -565.6 626.2 L -505 591.2 L -444.4 626.2 L -444.4 696.2 Z" fill="#fb6376" stroke="#5d2a42" stroke-width="4"></path><path d="M -391.9 927.2 L -452.5 892.2 L -452.5 822.2 L -391.9 787.2 L -331.2 822.2 L -331.2 892.2 Z" fill="#fb6376" stroke="#5d2a42" stroke-width="4"></path><path d="M -278.7 1123.1 L -339.4 1088.1 L -339.4 1018.1 L -278.7 983.1 L -218.1 1018.1 L -218.1 1088.1 Z" fill="#fb6376" stroke="#5d2a42" stroke-width="4"></path><path d="M -165.6 1319 L -226.2 1284 L -226.2 1214 L -165.6 1179 L -105 1214 L -105 1284 Z" fill="#fb6376" stroke="#5d2a42" stroke-width="4"></path><path d="M 60.6 1319 L 0 1284 L 0 1214 L 60.6 1179 L 121.3 1214 L 121.3 1284 Z" fill="#fb6376" stroke="#5d2a42" stroke-width="4"></path><path d="M 286.9 1319 L 226.3 1284 L 226.3 1214 L 286.9 1179 L 347.5 1214 L 347.5 1284 Z" fill="#fb6376" stroke="#5d2a42" stroke-width="4"></path><path d="M 513.1 1319 L 452.5 1284 L 452.5 1214 L 513.1 1179 L 573.7 1214 L 573.7 1284 Z" fill="#fb6376" stroke="#5d2a42" stroke-width="4"></path><path d="M 739.4 1319 L 678.7 1284 L 678.7 1214 L 739.4 1179 L 800 1214 L 800 1284 Z" fill="#fb6376" stroke="#5d2a42" stroke-width="4"></path><path d="M 852.5 1123.1 L 791.9 1088.1 L 791.9 1018.1 L 852.5 983.1 L 913.1 1018.1 L 913.1 1088.1 Z" fill="#fb6376" stroke="#5d2a42" stroke-width="4"></path><path d="M 965.6 927.2 L 905 892.2 L 905 822.2 L 965.6 787.2 L 1026.2 822.2 L 1026.2 892.2 Z" fill="#fb6376" stroke="#5d2a42" stroke-width="4"></path><path d="M 1078.7 731.2 L 1018.1 696.2 L 1018.1 626.2 L 1078.7 591.2 L 1139.4 626.2 L 1139.4 696.2 Z" fill="#fb6376" stroke="#5d2a42" stroke-width="4"></path><path d="M 1191.9 535.3 L 1131.2 500.3 L 1131.2 430.3 L 1191.9 395.3 L 1252.5 430.3 L 1252.5 500.3 Z" fill="#fb6376" stroke="#5d2a42" stroke-width="4"></path><path d="M 1078.7 339.4 L 1018.1 304.4 L 1018.1 234.4 L 1078.7 199.4 L 1139.4 234.4 L 1139.4 304.4 Z" fill="#fb6376" stroke="#5d2a42" stroke-width="4"></path><path d="M 965.6 143.4 L 905 108.4 L 905 38.4 L 965.6 3.4 L 1026.2 38.4 L 1026.2 108.4 Z" fill="#fb6376" stroke="#5d2a42" stroke-width="4"></path><path d="M 852.5 -52.5 L 791.9 -87.5 L 791.9 -157.5 L 852.5 -192.5 L 913.1 -157.5 L 913.1 -87.5 Z" fill="#fb6376" stroke="#5d2a42" stroke-width="4"></path><path d="M 739.4 -248.4 L 678.7 -283.4 L 678.7 -353.4 L 739.4 -388.4 L 800 -353.4 L 800 -283.4 Z" fill="#fb6376" stroke="#5d2a42" stroke-width="4"></path><path d="M 513.1 -248.4 L 452.5 -283.4 L 452.5 -353.4 L 513.1 -388.4 L 573.7 -353.4 L 573.7 -283.4 Z" fill="#fb6376" stroke="#5d2a42" stroke-width="4"></path><path d="M 286.9 -248.4 L 226.3 -283.4 L 226.3 -353.4 L 286.9 -388.4 L 347.5 -353.4 L 347.5 -283.4 Z" fill="#fb6376" stroke="#5d2a42" stroke-width="4"></path><path d="M 60.6 -248.4 L 0 -283.4 L 0 -353.4 L 60.6 -388.4 L 121.3 -353.4 L 121.3 -283.4 Z" fill="#fb6376" stroke="#5d2a42" stroke-width="4"></path><path d="M -165.6 -248.4 L -226.2 -283.4 L -226.2 -353.4 L -165.6 -388.4 L -105 -353.4 L -105 -283.4 Z" fill="#fb6376" stroke="#5d2a42" stroke-width="4"></path><path d="M -278.7 -52.5 L -339.4 -87.5 L -339.4 -157.5 L -278.7 -192.5 L -218.1 -157.5 L -218.1 -87.5 Z" fill="#fb6376" stroke="#5d2a42" stroke-width="4"></path><path d="M -391.9 143.4 L -452.5 108.4 L -452.5 38.4 L -391.9 3.4 L -331.2 38.4 L -331.2 108.4 Z" fill="#fb6376" stroke="#5d2a42" stroke-width="4"></path><path d="M -505 339.4 L -565.6 304.4 L -565.6 234.4 L -505 199.4 L -444.4 234.4 L -444.4 304.4 Z" fill="#fb6376" stroke="#5d2a42" stroke-width="4"></path><path d="M 309.1 608.7 L 264.7 608.7 L 286.9 570.3 Z" fill="#fff9ec" stroke="#5d2a42" stroke-width="4"></path><path d="M 249.5 635 L 234.4 626.2 L 234.4 608.7 L 264.7 608.7 Z" fill="#fcb1a6" stroke="#5d2a42" stroke-width="4"></path><path d="M 271.7 544.1 L 286.9 535.3 L 302 544.1 L 286.9 570.3 Z" fill="#fcb1a6" stroke="#5d2a42" stroke-width="4"></path><path d="M 339.4 608.7 L 339.4 626.2 L 324.2 635 L 309.1 608.7 Z" fill="#fcb1a6" stroke="#5d2a42" stroke-width="4"></path><path d="M 173.8 556.2 L 151.6 517.8 L 195.9 517.8 Z" fill="#fff9ec" stroke="#5d2a42" stroke-width="4"></path><path d="M 121.3 517.8 L 121.3 500.3 L 136.4 491.6 L 151.6 517.8 Z" fill="#fcb1a6" stroke="#5d2a42" stroke-width="4"></path><path d="M 211.1 491.6 L 226.3 500.3 L 226.3 517.8 L 195.9 517.8 Z" fill="#fcb1a6" stroke="#5d2a42" stroke-width="4"></path><path d="M 188.9 582.5 L 173.8 591.2 L 158.6 582.5 L 173.8 556.2 Z" fill="#fcb1a6" stroke="#5d2a42" stroke-width="4"></path><path d="M 82.8 608.7 L 38.4 608.7 L 60.6 570.3 Z" fill="#fff9ec" stroke="#5d2a42" stroke-width="4"></path><path d="M 23.3 635 L 8.1 626.2 L 8.1 608.7 L 38.4 608.7 Z" fill="#fcb1a6" stroke="#5d2a42" stroke-width="4"></path><path d="M 45.5 544.1 L 60.6 535.3 L 75.8 544.1 L 60.6 570.3 Z" fill="#fcb1a6" stroke="#5d2a42" stroke-width="4"></path><path d="M 113.1 608.7 L 113.1 626.2 L 98 635 L 82.8 608.7 Z" fill="#fcb1a6" stroke="#5d2a42" stroke-width="4"></path><path d="M -52.5 556.2 L -74.7 517.8 L -30.3 517.8 Z" fill="#fff9ec" stroke="#5d2a42" stroke-width="4"></path><path d="M -105 517.8 L -105 500.3 L -89.8 491.6 L -74.7 517.8 Z" fill="#fcb1a6" stroke="#5d2a42" stroke-width="4"></path><path d="M -15.1 491.6 L 0 500.3 L 0 517.8 L -30.3 517.8 Z" fill="#fcb1a6" stroke="#5d2a42" stroke-width="4"></path><path d="M -37.3 582.5 L -52.5 591.2 L -67.6 582.5 L -52.5 556.2 Z" fill="#fcb1a6" stroke="#5d2a42" stroke-width="4"></path><path d="M 195.9 804.7 L 151.6 804.7 L 173.8 766.2 Z" fill="#fff9ec" stroke="#5d2a42" stroke-width="4"></path><path d="M 136.4 830.9 L 121.3 822.2 L 121.3 804.7 L 151.6 804.7 Z" fill="#fcb1a6" stroke="#5d2a42" stroke-width="4"></path><path d="M 158.6 740 L 173.8 731.2 L 188.9 740 L 173.8 766.2 Z" fill="#fcb1a6" stroke="#5d2a42" stroke-width="4"></path><path d="M 226.3 804.7 L 226.3 822.2 L 211.1 830.9 L 195.9 804.7 Z" fill="#fcb1a6" stroke="#5d2a42" stroke-width="4"></path><path d="M 60.6 752.2 L 38.4 713.7 L 82.8 713.7 Z" fill="#fff9ec" stroke="#5d2a42" stroke-width="4"></path><path d="M 8.1 713.7 L 8.1 696.2 L 23.3 687.5 L 38.4 713.7 Z" fill="#fcb1a6" stroke="#5d2a42" stroke-width="4"></path><path d="M 98 687.5 L 113.1 696.2 L 113.1 713.7 L 82.8 713.7 Z" fill="#fcb1a6" stroke="#5d2a42" stroke-width="4"></path><path d="M 75.8 778.4 L 60.6 787.2 L 45.5 778.4 L 60.6 752.2 Z" fill="#fcb1a6" stroke="#5d2a42" stroke-width="4"></path><path d="M 422.2 804.7 L 377.8 804.7 L 400 766.2 Z" fill="#fff9ec" stroke="#5d2a42" stroke-width="4"></path><path d="M 362.7 830.9 L 347.5 822.2 L 347.5 804.7 L 377.8 804.7 Z" fill="#fcb1a6" stroke="#5d2a42" stroke-width="4"></path><path d="M 384.8 740 L 400 731.2 L 415.2 740 L 400 766.2 Z" fill="#fcb1a6" stroke="#5d2a42" stroke-width="4"></path><path d="M 452.5 804.7 L 452.5 822.2 L 437.3 830.9 L 422.2 804.7 Z" fill="#fcb1a6" stroke="#5d2a42" stroke-width="4"></path><path d="M 286.9 752.2 L 264.7 713.7 L 309.1 713.7 Z" fill="#fff9ec" stroke="#5d2a42" stroke-width="4"></path><path d="M 234.4 713.7 L 234.4 696.2 L 249.5 687.5 L 264.7 713.7 Z" fill="#fcb1a6" stroke="#5d2a42" stroke-width="4"></path><path d="M 324.2 687.5 L 339.4 696.2 L 339.4 713.7 L 309.1 713.7 Z" fill="#fcb1a6" stroke="#5d2a42" stroke-width="4"></path><path d="M 302 778.4 L 286.9 787.2 L 271.7 778.4 L 286.9 752.2 Z" fill="#fcb1a6" stroke="#5d2a42" stroke-width="4"></path><path d="M 535.3 608.7 L 490.9 608.7 L 513.1 570.3 Z" fill="#fff9ec" stroke="#5d2a42" stroke-width="4"></path><path d="M 475.8 635 L 460.6 626.2 L 460.6 608.7 L 490.9 608.7 Z" fill="#fcb1a6" stroke="#5d2a42" stroke-width="4"></path><path d="M 498 544.1 L 513.1 535.3 L 528.3 544.1 L 513.1 570.3 Z" fill="#fcb1a6" stroke="#5d2a42" stroke-width="4"></path><path d="M 565.6 608.7 L 565.6 626.2 L 550.5 635 L 535.3 608.7 Z" fill="#fcb1a6" stroke="#5d2a42" stroke-width="4"></path><path d="M 400 556.2 L 377.8 517.8 L 422.2 517.8 Z" fill="#fff9ec" stroke="#5d2a42" stroke-width="4"></path><path d="M 347.5 517.8 L 347.5 500.3 L 362.7 491.6 L 377.8 517.8 Z" fill="#fcb1a6" stroke="#5d2a42" stroke-width="4"></path><path d="M 437.3 491.6 L 452.5 500.3 L 452.5 517.8 L 422.2 517.8 Z" fill="#fcb1a6" stroke="#5d2a42" stroke-width="4"></path><path d="M 415.2 582.5 L 400 591.2 L 384.8 582.5 L 400 556.2 Z" fill="#fcb1a6" stroke="#5d2a42" stroke-width="4"></path><path d="M 422.2 412.8 L 377.8 412.8 L 400 374.4 Z" fill="#fff9ec" stroke="#5d2a42" stroke-width="4"></path><path d="M 362.7 439.1 L 347.5 430.3 L 347.5 412.8 L 377.8 412.8 Z" fill="#fcb1a6" stroke="#5d2a42" stroke-width="4"></path><path d="M 384.8 348.1 L 400 339.4 L 415.2 348.1 L 400 374.4 Z" fill="#fcb1a6" stroke="#5d2a42" stroke-width="4"></path><path d="M 452.5 412.8 L 452.5 430.3 L 437.3 439.1 L 422.2 412.8 Z" fill="#fcb1a6" stroke="#5d2a42" stroke-width="4"></path><path d="M 286.9 360.3 L 264.7 321.9 L 309.1 321.9 Z" fill="#fff9ec" stroke="#5d2a42" stroke-width="4"></path><path d="M 234.4 321.9 L 234.4 304.4 L 249.5 295.6 L 264.7 321.9 Z" fill="#fcb1a6" stroke="#5d2a42" stroke-width="4"></path><path d="M 324.2 295.6 L 339.4 304.4 L 339.4 321.9 L 309.1 321.9 Z" fill="#fcb1a6" stroke="#5d2a42" stroke-width="4"></path><path d="M 302 386.6 L 286.9 395.3 L 271.7 386.6 L 286.9 360.3 Z" fill="#fcb1a6" stroke="#5d2a42" stroke-width="4"></path><path d="M 195.9 412.8 L 151.6 412.8 L 173.8 374.4 Z" fill="#fff9ec" stroke="#5d2a42" stroke-width="4"></path><path d="M 136.4 439.1 L 121.3 430.3 L 121.3 412.8 L 151.6 412.8 Z" fill="#fcb1a6" stroke="#5d2a42" stroke-width="4"></path><path d="M 158.6 348.1 L 173.8 339.4 L 188.9 348.1 L 173.8 374.4 Z" fill="#fcb1a6" stroke="#5d2a42" stroke-width="4"></path><path d="M 226.3 412.8 L 226.3 430.3 L 211.1 439.1 L 195.9 412.8 Z" fill="#fcb1a6" stroke="#5d2a42" stroke-width="4"></path><path d="M 60.6 360.3 L 38.4 321.9 L 82.8 321.9 Z" fill="#fff9ec" stroke="#5d2a42" stroke-width="4"></path><path d="M 8.1 321.9 L 8.1 304.4 L 23.3 295.6 L 38.4 321.9 Z" fill="#fcb1a6" stroke="#5d2a42" stroke-width="4"></path><path d="M 98 295.6 L 113.1 304.4 L 113.1 321.9 L 82.8 321.9 Z" fill="#fcb1a6" stroke="#5d2a42" stroke-width="4"></path><path d="M 75.8 386.6 L 60.6 395.3 L 45.5 386.6 L 60.6 360.3 Z" fill="#fcb1a6" stroke="#5d2a42" stroke-width="4"></path><path d="M -143.4 608.7 L -187.8 608.7 L -165.6 570.3 Z" fill="#fff9ec" stroke="#5d2a42" stroke-width="4"></path><path d="M -203 635 L -218.1 626.2 L -218.1 608.7 L -187.8 608.7 Z" fill="#fcb1a6" stroke="#5d2a42" stroke-width="4"></path><path d="M -180.8 544.1 L -165.6 535.3 L -150.5 544.1 L -165.6 570.3 Z" fill="#fcb1a6" stroke="#5d2a42" stroke-width="4"></path><path d="M -113.1 608.7 L -113.1 626.2 L -128.3 635 L -143.4 608.7 Z" fill="#fcb1a6" stroke="#5d2a42" stroke-width="4"></path><path d="M -278.7 556.2 L -300.9 517.8 L -256.5 517.8 Z" fill="#fff9ec" stroke="#5d2a42" stroke-width="4"></path><path d="M -331.2 517.8 L -331.2 500.3 L -316.1 491.6 L -300.9 517.8 Z" fill="#fcb1a6" stroke="#5d2a42" stroke-width="4"></path><path d="M -241.4 491.6 L -226.2 500.3 L -226.2 517.8 L -256.5 517.8 Z" fill="#fcb1a6" stroke="#5d2a42" stroke-width="4"></path><path d="M -263.6 582.5 L -278.7 591.2 L -293.9 582.5 L -278.7 556.2 Z" fill="#fcb1a6" stroke="#5d2a42" stroke-width="4"></path><path d="M -30.3 804.7 L -74.7 804.7 L -52.5 766.2 Z" fill="#fff9ec" stroke="#5d2a42" stroke-width="4"></path><path d="M -89.8 830.9 L -105 822.2 L -105 804.7 L -74.7 804.7 Z" fill="#fcb1a6" stroke="#5d2a42" stroke-width="4"></path><path d="M -67.6 740 L -52.5 731.2 L -37.3 740 L -52.5 766.2 Z" fill="#fcb1a6" stroke="#5d2a42" stroke-width="4"></path><path d="M 0 804.7 L 0 822.2 L -15.1 830.9 L -30.3 804.7 Z" fill="#fcb1a6" stroke="#5d2a42" stroke-width="4"></path><path d="M -165.6 752.2 L -187.8 713.7 L -143.4 713.7 Z" fill="#fff9ec" stroke="#5d2a42" stroke-width="4"></path><path d="M -218.1 713.7 L -218.1 696.2 L -203 687.5 L -187.8 713.7 Z" fill="#fcb1a6" stroke="#5d2a42" stroke-width="4"></path><path d="M -128.3 687.5 L -113.1 696.2 L -113.1 713.7 L -143.4 713.7 Z" fill="#fcb1a6" stroke="#5d2a42" stroke-width="4"></path><path d="M -150.5 778.4 L -165.6 787.2 L -180.8 778.4 L -165.6 752.2 Z" fill="#fcb1a6" stroke="#5d2a42" stroke-width="4"></path><path d="M 82.8 1000.6 L 38.4 1000.6 L 60.6 962.2 Z" fill="#fff9ec" stroke="#5d2a42" stroke-width="4"></path><path d="M 23.3 1026.9 L 8.1 1018.1 L 8.1 1000.6 L 38.4 1000.6 Z" fill="#fcb1a6" stroke="#5d2a42" stroke-width="4"></path><path d="M 45.5 935.9 L 60.6 927.2 L 75.8 935.9 L 60.6 962.2 Z" fill="#fcb1a6" stroke="#5d2a42" stroke-width="4"></path><path d="M 113.1 1000.6 L 113.1 1018.1 L 98 1026.9 L 82.8 1000.6 Z" fill="#fcb1a6" stroke="#5d2a42" stroke-width="4"></path><path d="M -52.5 948.1 L -74.7 909.7 L -30.3 909.7 Z" fill="#fff9ec" stroke="#5d2a42" stroke-width="4"></path><path d="M -105 909.7 L -105 892.2 L -89.8 883.4 L -74.7 909.7 Z" fill="#fcb1a6" stroke="#5d2a42" stroke-width="4"></path><path d="M -15.1 883.4 L 0 892.2 L 0 909.7 L -30.3 909.7 Z" fill="#fcb1a6" stroke="#5d2a42" stroke-width="4"></path><path d="M -37.3 974.4 L -52.5 983.1 L -67.6 974.4 L -52.5 948.1 Z" fill="#fcb1a6" stroke="#5d2a42" stroke-width="4"></path><path d="M 309.1 1000.6 L 264.7 1000.6 L 286.9 962.2 Z" fill="#fff9ec" stroke="#5d2a42" stroke-width="4"></path><path d="M 249.5 1026.9 L 234.4 1018.1 L 234.4 1000.6 L 264.7 1000.6 Z" fill="#fcb1a6" stroke="#5d2a42" stroke-width="4"></path><path d="M 271.7 935.9 L 286.9 927.2 L 302 935.9 L 286.9 962.2 Z" fill="#fcb1a6" stroke="#5d2a42" stroke-width="4"></path><path d="M 339.4 1000.6 L 339.4 1018.1 L 324.2 1026.9 L 309.1 1000.6 Z" fill="#fcb1a6" stroke="#5d2a42" stroke-width="4"></path><path d="M 173.8 948.1 L 151.6 909.7 L 195.9 909.7 Z" fill="#fff9ec" stroke="#5d2a42" stroke-width="4"></path><path d="M 121.3 909.7 L 121.3 892.2 L 136.4 883.4 L 151.6 909.7 Z" fill="#fcb1a6" stroke="#5d2a42" stroke-width="4"></path><path d="M 211.1 883.4 L 226.3 892.2 L 226.3 909.7 L 195.9 909.7 Z" fill="#fcb1a6" stroke="#5d2a42" stroke-width="4"></path><path d="M 188.9 974.4 L 173.8 983.1 L 158.6 974.4 L 173.8 948.1 Z" fill="#fcb1a6" stroke="#5d2a42" stroke-width="4"></path><path d="M 535.3 1000.6 L 490.9 1000.6 L 513.1 962.2 Z" fill="#fff9ec" stroke="#5d2a42" stroke-width="4"></path><path d="M 475.8 1026.9 L 460.6 1018.1 L 460.6 1000.6 L 490.9 1000.6 Z" fill="#fcb1a6" stroke="#5d2a42" stroke-width="4"></path><path d="M 498 935.9 L 513.1 927.2 L 528.3 935.9 L 513.1 962.2 Z" fill="#fcb1a6" stroke="#5d2a42" stroke-width="4"></path><path d="M 565.6 1000.6 L 565.6 1018.1 L 550.5 1026.9 L 535.3 1000.6 Z" fill="#fcb1a6" stroke="#5d2a42" stroke-width="4"></path><path d="M 400 948.1 L 377.8 909.7 L 422.2 909.7 Z" fill="#fff9ec" stroke="#5d2a42" stroke-width="4"></path><path d="M 347.5 909.7 L 347.5 892.2 L 362.7 883.4 L 377.8 909.7 Z" fill="#fcb1a6" stroke="#5d2a42" stroke-width="4"></path><path d="M 437.3 883.4 L 452.5 892.2 L 452.5 909.7 L 422.2 909.7 Z" fill="#fcb1a6" stroke="#5d2a42" stroke-width="4"></path><path d="M 415.2 974.4 L 400 983.1 L 384.8 974.4 L 400 948.1 Z" fill="#fcb1a6" stroke="#5d2a42" stroke-width="4"></path><path d="M 648.4 804.7 L 604.1 804.7 L 626.2 766.2 Z" fill="#fff9ec" stroke="#5d2a42" stroke-width="4"></path><path d="M 588.9 830.9 L 573.7 822.2 L 573.7 804.7 L 604.1 804.7 Z" fill="#fcb1a6" stroke="#5d2a42" stroke-width="4"></path><path d="M 611.1 740 L 626.2 731.2 L 641.4 740 L 626.2 766.2 Z" fill="#fcb1a6" stroke="#5d2a42" stroke-width="4"></path><path d="M 678.7 804.7 L 678.7 822.2 L 663.6 830.9 L 648.4 804.7 Z" fill="#fcb1a6" stroke="#5d2a42" stroke-width="4"></path><path d="M 513.1 752.2 L 490.9 713.7 L 535.3 713.7 Z" fill="#fff9ec" stroke="#5d2a42" stroke-width="4"></path><path d="M 460.6 713.7 L 460.6 696.2 L 475.8 687.5 L 490.9 713.7 Z" fill="#fcb1a6" stroke="#5d2a42" stroke-width="4"></path><path d="M 550.5 687.5 L 565.6 696.2 L 565.6 713.7 L 535.3 713.7 Z" fill="#fcb1a6" stroke="#5d2a42" stroke-width="4"></path><path d="M 528.3 778.4 L 513.1 787.2 L 498 778.4 L 513.1 752.2 Z" fill="#fcb1a6" stroke="#5d2a42" stroke-width="4"></path><path d="M 761.6 608.7 L 717.2 608.7 L 739.4 570.3 Z" fill="#fff9ec" stroke="#5d2a42" stroke-width="4"></path><path d="M 702 635 L 686.9 626.2 L 686.9 608.7 L 717.2 608.7 Z" fill="#fcb1a6" stroke="#5d2a42" stroke-width="4"></path><path d="M 724.2 544.1 L 739.4 535.3 L 754.5 544.1 L 739.4 570.3 Z" fill="#fcb1a6" stroke="#5d2a42" stroke-width="4"></path><path d="M 791.9 608.7 L 791.9 626.2 L 776.7 635 L 761.6 608.7 Z" fill="#fcb1a6" stroke="#5d2a42" stroke-width="4"></path><path d="M 626.2 556.2 L 604.1 517.8 L 648.4 517.8 Z" fill="#fff9ec" stroke="#5d2a42" stroke-width="4"></path><path d="M 573.7 517.8 L 573.7 500.3 L 588.9 491.6 L 604.1 517.8 Z" fill="#fcb1a6" stroke="#5d2a42" stroke-width="4"></path><path d="M 663.6 491.6 L 678.7 500.3 L 678.7 517.8 L 648.4 517.8 Z" fill="#fcb1a6" stroke="#5d2a42" stroke-width="4"></path><path d="M 641.4 582.5 L 626.2 591.2 L 611.1 582.5 L 626.2 556.2 Z" fill="#fcb1a6" stroke="#5d2a42" stroke-width="4"></path><path d="M 648.4 412.8 L 604.1 412.8 L 626.2 374.4 Z" fill="#fff9ec" stroke="#5d2a42" stroke-width="4"></path><path d="M 588.9 439.1 L 573.7 430.3 L 573.7 412.8 L 604.1 412.8 Z" fill="#fcb1a6" stroke="#5d2a42" stroke-width="4"></path><path d="M 611.1 348.1 L 626.2 339.4 L 641.4 348.1 L 626.2 374.4 Z" fill="#fcb1a6" stroke="#5d2a42" stroke-width="4"></path><path d="M 678.7 412.8 L 678.7 430.3 L 663.6 439.1 L 648.4 412.8 Z" fill="#fcb1a6" stroke="#5d2a42" stroke-width="4"></path><path d="M 513.1 360.3 L 490.9 321.9 L 535.3 321.9 Z" fill="#fff9ec" stroke="#5d2a42" stroke-width="4"></path><path d="M 460.6 321.9 L 460.6 304.4 L 475.8 295.6 L 490.9 321.9 Z" fill="#fcb1a6" stroke="#5d2a42" stroke-width="4"></path><path d="M 550.5 295.6 L 565.6 304.4 L 565.6 321.9 L 535.3 321.9 Z" fill="#fcb1a6" stroke="#5d2a42" stroke-width="4"></path><path d="M 528.3 386.6 L 513.1 395.3 L 498 386.6 L 513.1 360.3 Z" fill="#fcb1a6" stroke="#5d2a42" stroke-width="4"></path><path d="M 535.3 216.9 L 490.9 216.9 L 513.1 178.4 Z" fill="#fff9ec" stroke="#5d2a42" stroke-width="4"></path><path d="M 475.8 243.1 L 460.6 234.4 L 460.6 216.9 L 490.9 216.9 Z" fill="#fcb1a6" stroke="#5d2a42" stroke-width="4"></path><path d="M 498 152.2 L 513.1 143.4 L 528.3 152.2 L 513.1 178.4 Z" fill="#fcb1a6" stroke="#5d2a42" stroke-width="4"></path><path d="M 565.6 216.9 L 565.6 234.4 L 550.5 243.1 L 535.3 216.9 Z" fill="#fcb1a6" stroke="#5d2a42" stroke-width="4"></path><path d="M 400 164.4 L 377.8 125.9 L 422.2 125.9 Z" fill="#fff9ec" stroke="#5d2a42" stroke-width="4"></path><path d="M 347.5 125.9 L 347.5 108.4 L 362.7 99.7 L 377.8 125.9 Z" fill="#fcb1a6" stroke="#5d2a42" stroke-width="4"></path><path d="M 437.3 99.7 L 452.5 108.4 L 452.5 125.9 L 422.2 125.9 Z" fill="#fcb1a6" stroke="#5d2a42" stroke-width="4"></path><path d="M 415.2 190.6 L 400 199.4 L 384.8 190.6 L 400 164.4 Z" fill="#fcb1a6" stroke="#5d2a42" stroke-width="4"></path><path d="M 309.1 216.9 L 264.7 216.9 L 286.9 178.4 Z" fill="#fff9ec" stroke="#5d2a42" stroke-width="4"></path><path d="M 249.5 243.1 L 234.4 234.4 L 234.4 216.9 L 264.7 216.9 Z" fill="#fcb1a6" stroke="#5d2a42" stroke-width="4"></path><path d="M 271.7 152.2 L 286.9 143.4 L 302 152.2 L 286.9 178.4 Z" fill="#fcb1a6" stroke="#5d2a42" stroke-width="4"></path><path d="M 339.4 216.9 L 339.4 234.4 L 324.2 243.1 L 309.1 216.9 Z" fill="#fcb1a6" stroke="#5d2a42" stroke-width="4"></path><path d="M 173.8 164.4 L 151.6 125.9 L 195.9 125.9 Z" fill="#fff9ec" stroke="#5d2a42" stroke-width="4"></path><path d="M 121.3 125.9 L 121.3 108.4 L 136.4 99.7 L 151.6 125.9 Z" fill="#fcb1a6" stroke="#5d2a42" stroke-width="4"></path><path d="M 211.1 99.7 L 226.3 108.4 L 226.3 125.9 L 195.9 125.9 Z" fill="#fcb1a6" stroke="#5d2a42" stroke-width="4"></path><path d="M 188.9 190.6 L 173.8 199.4 L 158.6 190.6 L 173.8 164.4 Z" fill="#fcb1a6" stroke="#5d2a42" stroke-width="4"></path><path d="M 82.8 216.9 L 38.4 216.9 L 60.6 178.4 Z" fill="#fff9ec" stroke="#5d2a42" stroke-width="4"></path><path d="M 23.3 243.1 L 8.1 234.4 L 8.1 216.9 L 38.4 216.9 Z" fill="#fcb1a6" stroke="#5d2a42" stroke-width="4"></path><path d="M 45.5 152.2 L 60.6 143.4 L 75.8 152.2 L 60.6 178.4 Z" fill="#fcb1a6" stroke="#5d2a42" stroke-width="4"></path><path d="M 113.1 216.9 L 113.1 234.4 L 98 243.1 L 82.8 216.9 Z" fill="#fcb1a6" stroke="#5d2a42" stroke-width="4"></path><path d="M -52.5 164.4 L -74.7 125.9 L -30.3 125.9 Z" fill="#fff9ec" stroke="#5d2a42" stroke-width="4"></path><path d="M -105 125.9 L -105 108.4 L -89.8 99.7 L -74.7 125.9 Z" fill="#fcb1a6" stroke="#5d2a42" stroke-width="4"></path><path d="M -15.1 99.7 L 0 108.4 L 0 125.9 L -30.3 125.9 Z" fill="#fcb1a6" stroke="#5d2a42" stroke-width="4"></path><path d="M -37.3 190.6 L -52.5 199.4 L -67.6 190.6 L -52.5 164.4 Z" fill="#fcb1a6" stroke="#5d2a42" stroke-width="4"></path><path d="M -30.3 412.8 L -74.7 412.8 L -52.5 374.4 Z" fill="#fff9ec" stroke="#5d2a42" stroke-width="4"></path><path d="M -89.8 439.1 L -105 430.3 L -105 412.8 L -74.7 412.8 Z" fill="#fcb1a6" stroke="#5d2a42" stroke-width="4"></path><path d="M -67.6 348.1 L -52.5 339.4 L -37.3 348.1 L -52.5 374.4 Z" fill="#fcb1a6" stroke="#5d2a42" stroke-width="4"></path><path d="M 0 412.8 L 0 430.3 L -15.1 439.1 L -30.3 412.8 Z" fill="#fcb1a6" stroke="#5d2a42" stroke-width="4"></path><path d="M -165.6 360.3 L -187.8 321.9 L -143.4 321.9 Z" fill="#fff9ec" stroke="#5d2a42" stroke-width="4"></path><path d="M -218.1 321.9 L -218.1 304.4 L -203 295.6 L -187.8 321.9 Z" fill="#fcb1a6" stroke="#5d2a42" stroke-width="4"></path><path d="M -128.3 295.6 L -113.1 304.4 L -113.1 321.9 L -143.4 321.9 Z" fill="#fcb1a6" stroke="#5d2a42" stroke-width="4"></path><path d="M -150.5 386.6 L -165.6 395.3 L -180.8 386.6 L -165.6 360.3 Z" fill="#fcb1a6" stroke="#5d2a42" stroke-width="4"></path><path d="M -369.7 608.7 L -414 608.7 L -391.9 570.3 Z" fill="#fff9ec" stroke="#5d2a42" stroke-width="4"></path><path d="M -429.2 635 L -444.4 626.2 L -444.4 608.7 L -414 608.7 Z" fill="#fcb1a6" stroke="#5d2a42" stroke-width="4"></path><path d="M -407 544.1 L -391.9 535.3 L -376.7 544.1 L -391.9 570.3 Z" fill="#fcb1a6" stroke="#5d2a42" stroke-width="4"></path><path d="M -339.4 608.7 L -339.4 626.2 L -354.5 635 L -369.7 608.7 Z" fill="#fcb1a6" stroke="#5d2a42" stroke-width="4"></path><path d="M -505 556.2 L -527.2 517.8 L -482.8 517.8 Z" fill="#fff9ec" stroke="#5d2a42" stroke-width="4"></path><path d="M -557.5 517.8 L -557.5 500.3 L -542.3 491.6 L -527.2 517.8 Z" fill="#fcb1a6" stroke="#5d2a42" stroke-width="4"></path><path d="M -467.6 491.6 L -452.5 500.3 L -452.5 517.8 L -482.8 517.8 Z" fill="#fcb1a6" stroke="#5d2a42" stroke-width="4"></path><path d="M -489.8 582.5 L -505 591.2 L -520.1 582.5 L -505 556.2 Z" fill="#fcb1a6" stroke="#5d2a42" stroke-width="4"></path><path d="M -256.5 804.7 L -300.9 804.7 L -278.7 766.2 Z" fill="#fff9ec" stroke="#5d2a42" stroke-width="4"></path><path d="M -316.1 830.9 L -331.2 822.2 L -331.2 804.7 L -300.9 804.7 Z" fill="#fcb1a6" stroke="#5d2a42" stroke-width="4"></path><path d="M -293.9 740 L -278.7 731.2 L -263.6 740 L -278.7 766.2 Z" fill="#fcb1a6" stroke="#5d2a42" stroke-width="4"></path><path d="M -226.2 804.7 L -226.2 822.2 L -241.4 830.9 L -256.5 804.7 Z" fill="#fcb1a6" stroke="#5d2a42" stroke-width="4"></path><path d="M -391.9 752.2 L -414 713.7 L -369.7 713.7 Z" fill="#fff9ec" stroke="#5d2a42" stroke-width="4"></path><path d="M -444.4 713.7 L -444.4 696.2 L -429.2 687.5 L -414 713.7 Z" fill="#fcb1a6" stroke="#5d2a42" stroke-width="4"></path><path d="M -354.5 687.5 L -339.4 696.2 L -339.4 713.7 L -369.7 713.7 Z" fill="#fcb1a6" stroke="#5d2a42" stroke-width="4"></path><path d="M -376.7 778.4 L -391.9 787.2 L -407 778.4 L -391.9 752.2 Z" fill="#fcb1a6" stroke="#5d2a42" stroke-width="4"></path><path d="M -143.4 1000.6 L -187.8 1000.6 L -165.6 962.2 Z" fill="#fff9ec" stroke="#5d2a42" stroke-width="4"></path><path d="M -203 1026.9 L -218.1 1018.1 L -218.1 1000.6 L -187.8 1000.6 Z" fill="#fcb1a6" stroke="#5d2a42" stroke-width="4"></path><path d="M -180.8 935.9 L -165.6 927.2 L -150.5 935.9 L -165.6 962.2 Z" fill="#fcb1a6" stroke="#5d2a42" stroke-width="4"></path><path d="M -113.1 1000.6 L -113.1 1018.1 L -128.3 1026.9 L -143.4 1000.6 Z" fill="#fcb1a6" stroke="#5d2a42" stroke-width="4"></path><path d="M -278.7 948.1 L -300.9 909.7 L -256.5 909.7 Z" fill="#fff9ec" stroke="#5d2a42" stroke-width="4"></path><path d="M -331.2 909.7 L -331.2 892.2 L -316.1 883.4 L -300.9 909.7 Z" fill="#fcb1a6" stroke="#5d2a42" stroke-width="4"></path><path d="M -241.4 883.4 L -226.2 892.2 L -226.2 909.7 L -256.5 909.7 Z" fill="#fcb1a6" stroke="#5d2a42" stroke-width="4"></path><path d="M -263.6 974.4 L -278.7 983.1 L -293.9 974.4 L -278.7 948.1 Z" fill="#fcb1a6" stroke="#5d2a42" stroke-width="4"></path><path d="M -30.3 1196.5 L -74.7 1196.5 L -52.5 1158.1 Z" fill="#fff9ec" stroke="#5d2a42" stroke-width="4"></path><path d="M -89.8 1222.8 L -105 1214 L -105 1196.5 L -74.7 1196.5 Z" fill="#fcb1a6" stroke="#5d2a42" stroke-width="4"></path><path d="M -67.6 1131.9 L -52.5 1123.1 L -37.3 1131.9 L -52.5 1158.1 Z" fill="#fcb1a6" stroke="#5d2a42" stroke-width="4"></path><path d="M 0 1196.5 L 0 1214 L -15.1 1222.8 L -30.3 1196.5 Z" fill="#fcb1a6" stroke="#5d2a42" stroke-width="4"></path><path d="M -165.6 1144 L -187.8 1105.6 L -143.4 1105.6 Z" fill="#fff9ec" stroke="#5d2a42" stroke-width="4"></path><path d="M -218.1 1105.6 L -218.1 1088.1 L -203 1079.4 L -187.8 1105.6 Z" fill="#fcb1a6" stroke="#5d2a42" stroke-width="4"></path><path d="M -128.3 1079.4 L -113.1 1088.1 L -113.1 1105.6 L -143.4 1105.6 Z" fill="#fcb1a6" stroke="#5d2a42" stroke-width="4"></path><path d="M -150.5 1170.3 L -165.6 1179 L -180.8 1170.3 L -165.6 1144 Z" fill="#fcb1a6" stroke="#5d2a42" stroke-width="4"></path><path d="M 195.9 1196.5 L 151.6 1196.5 L 173.8 1158.1 Z" fill="#fff9ec" stroke="#5d2a42" stroke-width="4"></path><path d="M 136.4 1222.8 L 121.3 1214 L 121.3 1196.5 L 151.6 1196.5 Z" fill="#fcb1a6" stroke="#5d2a42" stroke-width="4"></path><path d="M 158.6 1131.9 L 173.8 1123.1 L 188.9 1131.9 L 173.8 1158.1 Z" fill="#fcb1a6" stroke="#5d2a42" stroke-width="4"></path><path d="M 226.3 1196.5 L 226.3 1214 L 211.1 1222.8 L 195.9 1196.5 Z" fill="#fcb1a6" stroke="#5d2a42" stroke-width="4"></path><path d="M 60.6 1144 L 38.4 1105.6 L 82.8 1105.6 Z" fill="#fff9ec" stroke="#5d2a42" stroke-width="4"></path><path d="M 8.1 1105.6 L 8.1 1088.1 L 23.3 1079.4 L 38.4 1105.6 Z" fill="#fcb1a6" stroke="#5d2a42" stroke-width="4"></path><path d="M 98 1079.4 L 113.1 1088.1 L 113.1 1105.6 L 82.8 1105.6 Z" fill="#fcb1a6" stroke="#5d2a42" stroke-width="4"></path><path d="M 75.8 1170.3 L 60.6 1179 L 45.5 1170.3 L 60.6 1144 Z" fill="#fcb1a6" stroke="#5d2a42" stroke-width="4"></path><path d="M 422.2 1196.5 L 377.8 1196.5 L 400 1158.1 Z" fill="#fff9ec" stroke="#5d2a42" stroke-width="4"></path><path d="M 362.7 1222.8 L 347.5 1214 L 347.5 1196.5 L 377.8 1196.5 Z" fill="#fcb1a6" stroke="#5d2a42" stroke-width="4"></path><path d="M 384.8 1131.9 L 400 1123.1 L 415.2 1131.9 L 400 1158.1 Z" fill="#fcb1a6" stroke="#5d2a42" stroke-width="4"></path><path d="M 452.5 1196.5 L 452.5 1214 L 437.3 1222.8 L 422.2 1196.5 Z" fill="#fcb1a6" stroke="#5d2a42" stroke-width="4"></path><path d="M 286.9 1144 L 264.7 1105.6 L 309.1 1105.6 Z" fill="#fff9ec" stroke="#5d2a42" stroke-width="4"></path><path d="M 234.4 1105.6 L 234.4 1088.1 L 249.5 1079.4 L 264.7 1105.6 Z" fill="#fcb1a6" stroke="#5d2a42" stroke-width="4"></path><path d="M 324.2 1079.4 L 339.4 1088.1 L 339.4 1105.6 L 309.1 1105.6 Z" fill="#fcb1a6" stroke="#5d2a42" stroke-width="4"></path><path d="M 302 1170.3 L 286.9 1179 L 271.7 1170.3 L 286.9 1144 Z" fill="#fcb1a6" stroke="#5d2a42" stroke-width="4"></path><path d="M 648.4 1196.5 L 604.1 1196.5 L 626.2 1158.1 Z" fill="#fff9ec" stroke="#5d2a42" stroke-width="4"></path><path d="M 588.9 1222.8 L 573.7 1214 L 573.7 1196.5 L 604.1 1196.5 Z" fill="#fcb1a6" stroke="#5d2a42" stroke-width="4"></path><path d="M 611.1 1131.9 L 626.2 1123.1 L 641.4 1131.9 L 626.2 1158.1 Z" fill="#fcb1a6" stroke="#5d2a42" stroke-width="4"></path><path d="M 678.7 1196.5 L 678.7 1214 L 663.6 1222.8 L 648.4 1196.5 Z" fill="#fcb1a6" stroke="#5d2a42" stroke-width="4"></path><path d="M 513.1 1144 L 490.9 1105.6 L 535.3 1105.6 Z" fill="#fff9ec" stroke="#5d2a42" stroke-width="4"></path><path d="M 460.6 1105.6 L 460.6 1088.1 L 475.8 1079.4 L 490.9 1105.6 Z" fill="#fcb1a6" stroke="#5d2a42" stroke-width="4"></path><path d="M 550.5 1079.4 L 565.6 1088.1 L 565.6 1105.6 L 535.3 1105.6 Z" fill="#fcb1a6" stroke="#5d2a42" stroke-width="4"></path><path d="M 528.3 1170.3 L 513.1 1179 L 498 1170.3 L 513.1 1144 Z" fill="#fcb1a6" stroke="#5d2a42" stroke-width="4"></path><path d="M 761.6 1000.6 L 717.2 1000.6 L 739.4 962.2 Z" fill="#fff9ec" stroke="#5d2a42" stroke-width="4"></path><path d="M 702 1026.9 L 686.9 1018.1 L 686.9 1000.6 L 717.2 1000.6 Z" fill="#fcb1a6" stroke="#5d2a42" stroke-width="4"></path><path d="M 724.2 935.9 L 739.4 927.2 L 754.5 935.9 L 739.4 962.2 Z" fill="#fcb1a6" stroke="#5d2a42" stroke-width="4"></path><path d="M 791.9 1000.6 L 791.9 1018.1 L 776.7 1026.9 L 761.6 1000.6 Z" fill="#fcb1a6" stroke="#5d2a42" stroke-width="4"></path><path d="M 626.2 948.1 L 604.1 909.7 L 648.4 909.7 Z" fill="#fff9ec" stroke="#5d2a42" stroke-width="4"></path><path d="M 573.7 909.7 L 573.7 892.2 L 588.9 883.4 L 604.1 909.7 Z" fill="#fcb1a6" stroke="#5d2a42" stroke-width="4"></path><path d="M 663.6 883.4 L 678.7 892.2 L 678.7 909.7 L 648.4 909.7 Z" fill="#fcb1a6" stroke="#5d2a42" stroke-width="4"></path><path d="M 641.4 974.4 L 626.2 983.1 L 611.1 974.4 L 626.2 948.1 Z" fill="#fcb1a6" stroke="#5d2a42" stroke-width="4"></path><path d="M 874.7 804.7 L 830.3 804.7 L 852.5 766.2 Z" fill="#fff9ec" stroke="#5d2a42" stroke-width="4"></path><path d="M 815.1 830.9 L 800 822.2 L 800 804.7 L 830.3 804.7 Z" fill="#fcb1a6" stroke="#5d2a42" stroke-width="4"></path><path d="M 837.3 740 L 852.5 731.2 L 867.6 740 L 852.5 766.2 Z" fill="#fcb1a6" stroke="#5d2a42" stroke-width="4"></path><path d="M 905 804.7 L 905 822.2 L 889.8 830.9 L 874.7 804.7 Z" fill="#fcb1a6" stroke="#5d2a42" stroke-width="4"></path><path d="M 739.4 752.2 L 717.2 713.7 L 761.6 713.7 Z" fill="#fff9ec" stroke="#5d2a42" stroke-width="4"></path><path d="M 686.9 713.7 L 686.9 696.2 L 702 687.5 L 717.2 713.7 Z" fill="#fcb1a6" stroke="#5d2a42" stroke-width="4"></path><path d="M 776.7 687.5 L 791.9 696.2 L 791.9 713.7 L 761.6 713.7 Z" fill="#fcb1a6" stroke="#5d2a42" stroke-width="4"></path><path d="M 754.5 778.4 L 739.4 787.2 L 724.2 778.4 L 739.4 752.2 Z" fill="#fcb1a6" stroke="#5d2a42" stroke-width="4"></path><path d="M 987.8 608.7 L 943.4 608.7 L 965.6 570.3 Z" fill="#fff9ec" stroke="#5d2a42" stroke-width="4"></path><path d="M 928.3 635 L 913.1 626.2 L 913.1 608.7 L 943.4 608.7 Z" fill="#fcb1a6" stroke="#5d2a42" stroke-width="4"></path><path d="M 950.5 544.1 L 965.6 535.3 L 980.8 544.1 L 965.6 570.3 Z" fill="#fcb1a6" stroke="#5d2a42" stroke-width="4"></path><path d="M 1018.1 608.7 L 1018.1 626.2 L 1003 635 L 987.8 608.7 Z" fill="#fcb1a6" stroke="#5d2a42" stroke-width="4"></path><path d="M 852.5 556.2 L 830.3 517.8 L 874.7 517.8 Z" fill="#fff9ec" stroke="#5d2a42" stroke-width="4"></path><path d="M 800 517.8 L 800 500.3 L 815.1 491.6 L 830.3 517.8 Z" fill="#fcb1a6" stroke="#5d2a42" stroke-width="4"></path><path d="M 889.8 491.6 L 905 500.3 L 905 517.8 L 874.7 517.8 Z" fill="#fcb1a6" stroke="#5d2a42" stroke-width="4"></path><path d="M 867.6 582.5 L 852.5 591.2 L 837.3 582.5 L 852.5 556.2 Z" fill="#fcb1a6" stroke="#5d2a42" stroke-width="4"></path><path d="M 874.7 412.8 L 830.3 412.8 L 852.5 374.4 Z" fill="#fff9ec" stroke="#5d2a42" stroke-width="4"></path><path d="M 815.1 439.1 L 800 430.3 L 800 412.8 L 830.3 412.8 Z" fill="#fcb1a6" stroke="#5d2a42" stroke-width="4"></path><path d="M 837.3 348.1 L 852.5 339.4 L 867.6 348.1 L 852.5 374.4 Z" fill="#fcb1a6" stroke="#5d2a42" stroke-width="4"></path><path d="M 905 412.8 L 905 430.3 L 889.8 439.1 L 874.7 412.8 Z" fill="#fcb1a6" stroke="#5d2a42" stroke-width="4"></path><path d="M 739.4 360.3 L 717.2 321.9 L 761.6 321.9 Z" fill="#fff9ec" stroke="#5d2a42" stroke-width="4"></path><path d="M 686.9 321.9 L 686.9 304.4 L 702 295.6 L 717.2 321.9 Z" fill="#fcb1a6" stroke="#5d2a42" stroke-width="4"></path><path d="M 776.7 295.6 L 791.9 304.4 L 791.9 321.9 L 761.6 321.9 Z" fill="#fcb1a6" stroke="#5d2a42" stroke-width="4"></path><path d="M 754.5 386.6 L 739.4 395.3 L 724.2 386.6 L 739.4 360.3 Z" fill="#fcb1a6" stroke="#5d2a42" stroke-width="4"></path><path d="M 761.6 216.9 L 717.2 216.9 L 739.4 178.4 Z" fill="#fff9ec" stroke="#5d2a42" stroke-width="4"></path><path d="M 702 243.1 L 686.9 234.4 L 686.9 216.9 L 717.2 216.9 Z" fill="#fcb1a6" stroke="#5d2a42" stroke-width="4"></path><path d="M 724.2 152.2 L 739.4 143.4 L 754.5 152.2 L 739.4 178.4 Z" fill="#fcb1a6" stroke="#5d2a42" stroke-width="4"></path><path d="M 791.9 216.9 L 791.9 234.4 L 776.7 243.1 L 761.6 216.9 Z" fill="#fcb1a6" stroke="#5d2a42" stroke-width="4"></path><path d="M 626.2 164.4 L 604.1 125.9 L 648.4 125.9 Z" fill="#fff9ec" stroke="#5d2a42" stroke-width="4"></path><path d="M 573.7 125.9 L 573.7 108.4 L 588.9 99.7 L 604.1 125.9 Z" fill="#fcb1a6" stroke="#5d2a42" stroke-width="4"></path><path d="M 663.6 99.7 L 678.7 108.4 L 678.7 125.9 L 648.4 125.9 Z" fill="#fcb1a6" stroke="#5d2a42" stroke-width="4"></path><path d="M 641.4 190.6 L 626.2 199.4 L 611.1 190.6 L 626.2 164.4 Z" fill="#fcb1a6" stroke="#5d2a42" stroke-width="4"></path><path d="M 648.4 20.9 L 604.1 20.9 L 626.2 -17.5 Z" fill="#fff9ec" stroke="#5d2a42" stroke-width="4"></path><path d="M 588.9 47.2 L 573.7 38.4 L 573.7 20.9 L 604.1 20.9 Z" fill="#fcb1a6" stroke="#5d2a42" stroke-width="4"></path><path d="M 611.1 -43.7 L 626.2 -52.5 L 641.4 -43.7 L 626.2 -17.5 Z" fill="#fcb1a6" stroke="#5d2a42" stroke-width="4"></path><path d="M 678.7 20.9 L 678.7 38.4 L 663.6 47.2 L 648.4 20.9 Z" fill="#fcb1a6" stroke="#5d2a42" stroke-width="4"></path><path d="M 513.1 -31.6 L 490.9 -70 L 535.3 -70 Z" fill="#fff9ec" stroke="#5d2a42" stroke-width="4"></path><path d="M 460.6 -70 L 460.6 -87.5 L 475.8 -96.2 L 490.9 -70 Z" fill="#fcb1a6" stroke="#5d2a42" stroke-width="4"></path><path d="M 550.5 -96.2 L 565.6 -87.5 L 565.6 -70 L 535.3 -70 Z" fill="#fcb1a6" stroke="#5d2a42" stroke-width="4"></path><path d="M 528.3 -5.3 L 513.1 3.4 L 498 -5.3 L 513.1 -31.6 Z" fill="#fcb1a6" stroke="#5d2a42" stroke-width="4"></path><path d="M 422.2 20.9 L 377.8 20.9 L 400 -17.5 Z" fill="#fff9ec" stroke="#5d2a42" stroke-width="4"></path><path d="M 362.7 47.2 L 347.5 38.4 L 347.5 20.9 L 377.8 20.9 Z" fill="#fcb1a6" stroke="#5d2a42" stroke-width="4"></path><path d="M 384.8 -43.7 L 400 -52.5 L 415.2 -43.7 L 400 -17.5 Z" fill="#fcb1a6" stroke="#5d2a42" stroke-width="4"></path><path d="M 452.5 20.9 L 452.5 38.4 L 437.3 47.2 L 422.2 20.9 Z" fill="#fcb1a6" stroke="#5d2a42" stroke-width="4"></path><path d="M 286.9 -31.6 L 264.7 -70 L 309.1 -70 Z" fill="#fff9ec" stroke="#5d2a42" stroke-width="4"></path><path d="M 234.4 -70 L 234.4 -87.5 L 249.5 -96.2 L 264.7 -70 Z" fill="#fcb1a6" stroke="#5d2a42" stroke-width="4"></path><path d="M 324.2 -96.2 L 339.4 -87.5 L 339.4 -70 L 309.1 -70 Z" fill="#fcb1a6" stroke="#5d2a42" stroke-width="4"></path><path d="M 302 -5.3 L 286.9 3.4 L 271.7 -5.3 L 286.9 -31.6 Z" fill="#fcb1a6" stroke="#5d2a42" stroke-width="4"></path><path d="M 195.9 20.9 L 151.6 20.9 L 173.8 -17.5 Z" fill="#fff9ec" stroke="#5d2a42" stroke-width="4"></path><path d="M 136.4 47.2 L 121.3 38.4 L 121.3 20.9 L 151.6 20.9 Z" fill="#fcb1a6" stroke="#5d2a42" stroke-width="4"></path><path d="M 158.6 -43.7 L 173.8 -52.5 L 188.9 -43.7 L 173.8 -17.5 Z" fill="#fcb1a6" stroke="#5d2a42" stroke-width="4"></path><path d="M 226.3 20.9 L 226.3 38.4 L 211.1 47.2 L 195.9 20.9 Z" fill="#fcb1a6" stroke="#5d2a42" stroke-width="4"></path><path d="M 60.6 -31.6 L 38.4 -70 L 82.8 -70 Z" fill="#fff9ec" stroke="#5d2a42" stroke-width="4"></path><path d="M 8.1 -70 L 8.1 -87.5 L 23.3 -96.2 L 38.4 -70 Z" fill="#fcb1a6" stroke="#5d2a42" stroke-width="4"></path><path d="M 98 -96.2 L 113.1 -87.5 L 113.1 -70 L 82.8 -70 Z" fill="#fcb1a6" stroke="#5d2a42" stroke-width="4"></path><path d="M 75.8 -5.3 L 60.6 3.4 L 45.5 -5.3 L 60.6 -31.6 Z" fill="#fcb1a6" stroke="#5d2a42" stroke-width="4"></path><path d="M -30.3 20.9 L -74.7 20.9 L -52.5 -17.5 Z" fill="#fff9ec" stroke="#5d2a42" stroke-width="4"></path><path d="M -89.8 47.2 L -105 38.4 L -105 20.9 L -74.7 20.9 Z" fill="#fcb1a6" stroke="#5d2a42" stroke-width="4"></path><path d="M -67.6 -43.7 L -52.5 -52.5 L -37.3 -43.7 L -52.5 -17.5 Z" fill="#fcb1a6" stroke="#5d2a42" stroke-width="4"></path><path d="M 0 20.9 L 0 38.4 L -15.1 47.2 L -30.3 20.9 Z" fill="#fcb1a6" stroke="#5d2a42" stroke-width="4"></path><path d="M -165.6 -31.6 L -187.8 -70 L -143.4 -70 Z" fill="#fff9ec" stroke="#5d2a42" stroke-width="4"></path><path d="M -218.1 -70 L -218.1 -87.5 L -203 -96.2 L -187.8 -70 Z" fill="#fcb1a6" stroke="#5d2a42" stroke-width="4"></path><path d="M -128.3 -96.2 L -113.1 -87.5 L -113.1 -70 L -143.4 -70 Z" fill="#fcb1a6" stroke="#5d2a42" stroke-width="4"></path><path d="M -150.5 -5.3 L -165.6 3.4 L -180.8 -5.3 L -165.6 -31.6 Z" fill="#fcb1a6" stroke="#5d2a42" stroke-width="4"></path><path d="M -143.4 216.9 L -187.8 216.9 L -165.6 178.4 Z" fill="#fff9ec" stroke="#5d2a42" stroke-width="4"></path><path d="M -203 243.1 L -218.1 234.4 L -218.1 216.9 L -187.8 216.9 Z" fill="#fcb1a6" stroke="#5d2a42" stroke-width="4"></path><path d="M -180.8 152.2 L -165.6 143.4 L -150.5 152.2 L -165.6 178.4 Z" fill="#fcb1a6" stroke="#5d2a42" stroke-width="4"></path><path d="M -113.1 216.9 L -113.1 234.4 L -128.3 243.1 L -143.4 216.9 Z" fill="#fcb1a6" stroke="#5d2a42" stroke-width="4"></path><path d="M -278.7 164.4 L -300.9 125.9 L -256.5 125.9 Z" fill="#fff9ec" stroke="#5d2a42" stroke-width="4"></path><path d="M -331.2 125.9 L -331.2 108.4 L -316.1 99.7 L -300.9 125.9 Z" fill="#fcb1a6" stroke="#5d2a42" stroke-width="4"></path><path d="M -241.4 99.7 L -226.2 108.4 L -226.2 125.9 L -256.5 125.9 Z" fill="#fcb1a6" stroke="#5d2a42" stroke-width="4"></path><path d="M -263.6 190.6 L -278.7 199.4 L -293.9 190.6 L -278.7 164.4 Z" fill="#fcb1a6" stroke="#5d2a42" stroke-width="4"></path><path d="M -256.5 412.8 L -300.9 412.8 L -278.7 374.4 Z" fill="#fff9ec" stroke="#5d2a42" stroke-width="4"></path><path d="M -316.1 439.1 L -331.2 430.3 L -331.2 412.8 L -300.9 412.8 Z" fill="#fcb1a6" stroke="#5d2a42" stroke-width="4"></path><path d="M -293.9 348.1 L -278.7 339.4 L -263.6 348.1 L -278.7 374.4 Z" fill="#fcb1a6" stroke="#5d2a42" stroke-width="4"></path><path d="M -226.2 412.8 L -226.2 430.3 L -241.4 439.1 L -256.5 412.8 Z" fill="#fcb1a6" stroke="#5d2a42" stroke-width="4"></path><path d="M -391.9 360.3 L -414 321.9 L -369.7 321.9 Z" fill="#fff9ec" stroke="#5d2a42" stroke-width="4"></path><path d="M -444.4 321.9 L -444.4 304.4 L -429.2 295.6 L -414 321.9 Z" fill="#fcb1a6" stroke="#5d2a42" stroke-width="4"></path><path d="M -354.5 295.6 L -339.4 304.4 L -339.4 321.9 L -369.7 321.9 Z" fill="#fcb1a6" stroke="#5d2a42" stroke-width="4"></path><path d="M -376.7 386.6 L -391.9 395.3 L -407 386.6 L -391.9 360.3 Z" fill="#fcb1a6" stroke="#5d2a42" stroke-width="4"></path><path d="M -595.9 608.7 L -640.3 608.7 L -618.1 570.3 Z" fill="#fff9ec" stroke="#5d2a42" stroke-width="4"></path><path d="M -655.4 635 L -670.6 626.2 L -670.6 608.7 L -640.3 608.7 Z" fill="#fcb1a6" stroke="#5d2a42" stroke-width="4"></path><path d="M -633.3 544.1 L -618.1 535.3 L -602.9 544.1 L -618.1 570.3 Z" fill="#fcb1a6" stroke="#5d2a42" stroke-width="4"></path><path d="M -565.6 608.7 L -565.6 626.2 L -580.8 635 L -595.9 608.7 Z" fill="#fcb1a6" stroke="#5d2a42" stroke-width="4"></path><path d="M -731.2 556.2 L -753.4 517.8 L -709 517.8 Z" fill="#fff9ec" stroke="#5d2a42" stroke-width="4"></path><path d="M -783.7 517.8 L -783.7 500.3 L -768.6 491.6 L -753.4 517.8 Z" fill="#fcb1a6" stroke="#5d2a42" stroke-width="4"></path><path d="M -693.9 491.6 L -678.7 500.3 L -678.7 517.8 L -709 517.8 Z" fill="#fcb1a6" stroke="#5d2a42" stroke-width="4"></path><path d="M -716.1 582.5 L -731.2 591.2 L -746.4 582.5 L -731.2 556.2 Z" fill="#fcb1a6" stroke="#5d2a42" stroke-width="4"></path><path d="M -482.8 804.7 L -527.2 804.7 L -505 766.2 Z" fill="#fff9ec" stroke="#5d2a42" stroke-width="4"></path><path d="M -542.3 830.9 L -557.5 822.2 L -557.5 804.7 L -527.2 804.7 Z" fill="#fcb1a6" stroke="#5d2a42" stroke-width="4"></path><path d="M -520.1 740 L -505 731.2 L -489.8 740 L -505 766.2 Z" fill="#fcb1a6" stroke="#5d2a42" stroke-width="4"></path><path d="M -452.5 804.7 L -452.5 822.2 L -467.6 830.9 L -482.8 804.7 Z" fill="#fcb1a6" stroke="#5d2a42" stroke-width="4"></path><path d="M -618.1 752.2 L -640.3 713.7 L -595.9 713.7 Z" fill="#fff9ec" stroke="#5d2a42" stroke-width="4"></path><path d="M -670.6 713.7 L -670.6 696.2 L -655.4 687.5 L -640.3 713.7 Z" fill="#fcb1a6" stroke="#5d2a42" stroke-width="4"></path><path d="M -580.8 687.5 L -565.6 696.2 L -565.6 713.7 L -595.9 713.7 Z" fill="#fcb1a6" stroke="#5d2a42" stroke-width="4"></path><path d="M -602.9 778.4 L -618.1 787.2 L -633.3 778.4 L -618.1 752.2 Z" fill="#fcb1a6" stroke="#5d2a42" stroke-width="4"></path><path d="M -369.7 1000.6 L -414 1000.6 L -391.9 962.2 Z" fill="#fff9ec" stroke="#5d2a42" stroke-width="4"></path><path d="M -429.2 1026.9 L -444.4 1018.1 L -444.4 1000.6 L -414 1000.6 Z" fill="#fcb1a6" stroke="#5d2a42" stroke-width="4"></path><path d="M -407 935.9 L -391.9 927.2 L -376.7 935.9 L -391.9 962.2 Z" fill="#fcb1a6" stroke="#5d2a42" stroke-width="4"></path><path d="M -339.4 1000.6 L -339.4 1018.1 L -354.5 1026.9 L -369.7 1000.6 Z" fill="#fcb1a6" stroke="#5d2a42" stroke-width="4"></path><path d="M -505 948.1 L -527.2 909.7 L -482.8 909.7 Z" fill="#fff9ec" stroke="#5d2a42" stroke-width="4"></path><path d="M -557.5 909.7 L -557.5 892.2 L -542.3 883.4 L -527.2 909.7 Z" fill="#fcb1a6" stroke="#5d2a42" stroke-width="4"></path><path d="M -467.6 883.4 L -452.5 892.2 L -452.5 909.7 L -482.8 909.7 Z" fill="#fcb1a6" stroke="#5d2a42" stroke-width="4"></path><path d="M -489.8 974.4 L -505 983.1 L -520.1 974.4 L -505 948.1 Z" fill="#fcb1a6" stroke="#5d2a42" stroke-width="4"></path><path d="M -256.5 1196.5 L -300.9 1196.5 L -278.7 1158.1 Z" fill="#fff9ec" stroke="#5d2a42" stroke-width="4"></path><path d="M -316.1 1222.8 L -331.2 1214 L -331.2 1196.5 L -300.9 1196.5 Z" fill="#fcb1a6" stroke="#5d2a42" stroke-width="4"></path><path d="M -293.9 1131.9 L -278.7 1123.1 L -263.6 1131.9 L -278.7 1158.1 Z" fill="#fcb1a6" stroke="#5d2a42" stroke-width="4"></path><path d="M -226.2 1196.5 L -226.2 1214 L -241.4 1222.8 L -256.5 1196.5 Z" fill="#fcb1a6" stroke="#5d2a42" stroke-width="4"></path><path d="M -391.9 1144 L -414 1105.6 L -369.7 1105.6 Z" fill="#fff9ec" stroke="#5d2a42" stroke-width="4"></path><path d="M -444.4 1105.6 L -444.4 1088.1 L -429.2 1079.4 L -414 1105.6 Z" fill="#fcb1a6" stroke="#5d2a42" stroke-width="4"></path><path d="M -354.5 1079.4 L -339.4 1088.1 L -339.4 1105.6 L -369.7 1105.6 Z" fill="#fcb1a6" stroke="#5d2a42" stroke-width="4"></path><path d="M -376.7 1170.3 L -391.9 1179 L -407 1170.3 L -391.9 1144 Z" fill="#fcb1a6" stroke="#5d2a42" stroke-width="4"></path><path d="M -143.4 1392.5 L -187.8 1392.5 L -165.6 1354 Z" fill="#fff9ec" stroke="#5d2a42" stroke-width="4"></path><path d="M -203 1418.7 L -218.1 1410 L -218.1 1392.5 L -187.8 1392.5 Z" fill="#fcb1a6" stroke="#5d2a42" stroke-width="4"></path><path d="M -180.8 1327.8 L -165.6 1319 L -150.5 1327.8 L -165.6 1354 Z" fill="#fcb1a6" stroke="#5d2a42" stroke-width="4"></path><path d="M -113.1 1392.5 L -113.1 1410 L -128.3 1418.7 L -143.4 1392.5 Z" fill="#fcb1a6" stroke="#5d2a42" stroke-width="4"></path><path d="M -278.7 1340 L -300.9 1301.5 L -256.5 1301.5 Z" fill="#fff9ec" stroke="#5d2a42" stroke-width="4"></path><path d="M -331.2 1301.5 L -331.2 1284 L -316.1 1275.3 L -300.9 1301.5 Z" fill="#fcb1a6" stroke="#5d2a42" stroke-width="4"></path><path d="M -241.4 1275.3 L -226.2 1284 L -226.2 1301.5 L -256.5 1301.5 Z" fill="#fcb1a6" stroke="#5d2a42" stroke-width="4"></path><path d="M -263.6 1366.2 L -278.7 1375 L -293.9 1366.2 L -278.7 1340 Z" fill="#fcb1a6" stroke="#5d2a42" stroke-width="4"></path><path d="M 82.8 1392.5 L 38.4 1392.5 L 60.6 1354 Z" fill="#fff9ec" stroke="#5d2a42" stroke-width="4"></path><path d="M 23.3 1418.7 L 8.1 1410 L 8.1 1392.5 L 38.4 1392.5 Z" fill="#fcb1a6" stroke="#5d2a42" stroke-width="4"></path><path d="M 45.5 1327.8 L 60.6 1319 L 75.8 1327.8 L 60.6 1354 Z" fill="#fcb1a6" stroke="#5d2a42" stroke-width="4"></path><path d="M 113.1 1392.5 L 113.1 1410 L 98 1418.7 L 82.8 1392.5 Z" fill="#fcb1a6" stroke="#5d2a42" stroke-width="4"></path><path d="M -52.5 1340 L -74.7 1301.5 L -30.3 1301.5 Z" fill="#fff9ec" stroke="#5d2a42" stroke-width="4"></path><path d="M -105 1301.5 L -105 1284 L -89.8 1275.3 L -74.7 1301.5 Z" fill="#fcb1a6" stroke="#5d2a42" stroke-width="4"></path><path d="M -15.1 1275.3 L 0 1284 L 0 1301.5 L -30.3 1301.5 Z" fill="#fcb1a6" stroke="#5d2a42" stroke-width="4"></path><path d="M -37.3 1366.2 L -52.5 1375 L -67.6 1366.2 L -52.5 1340 Z" fill="#fcb1a6" stroke="#5d2a42" stroke-width="4"></path><path d="M 309.1 1392.5 L 264.7 1392.5 L 286.9 1354 Z" fill="#fff9ec" stroke="#5d2a42" stroke-width="4"></path><path d="M 249.5 1418.7 L 234.4 1410 L 234.4 1392.5 L 264.7 1392.5 Z" fill="#fcb1a6" stroke="#5d2a42" stroke-width="4"></path><path d="M 271.7 1327.8 L 286.9 1319 L 302 1327.8 L 286.9 1354 Z" fill="#fcb1a6" stroke="#5d2a42" stroke-width="4"></path><path d="M 339.4 1392.5 L 339.4 1410 L 324.2 1418.7 L 309.1 1392.5 Z" fill="#fcb1a6" stroke="#5d2a42" stroke-width="4"></path><path d="M 173.8 1340 L 151.6 1301.5 L 195.9 1301.5 Z" fill="#fff9ec" stroke="#5d2a42" stroke-width="4"></path><path d="M 121.3 1301.5 L 121.3 1284 L 136.4 1275.3 L 151.6 1301.5 Z" fill="#fcb1a6" stroke="#5d2a42" stroke-width="4"></path><path d="M 211.1 1275.3 L 226.3 1284 L 226.3 1301.5 L 195.9 1301.5 Z" fill="#fcb1a6" stroke="#5d2a42" stroke-width="4"></path><path d="M 188.9 1366.2 L 173.8 1375 L 158.6 1366.2 L 173.8 1340 Z" fill="#fcb1a6" stroke="#5d2a42" stroke-width="4"></path><path d="M 535.3 1392.5 L 490.9 1392.5 L 513.1 1354 Z" fill="#fff9ec" stroke="#5d2a42" stroke-width="4"></path><path d="M 475.8 1418.7 L 460.6 1410 L 460.6 1392.5 L 490.9 1392.5 Z" fill="#fcb1a6" stroke="#5d2a42" stroke-width="4"></path><path d="M 498 1327.8 L 513.1 1319 L 528.3 1327.8 L 513.1 1354 Z" fill="#fcb1a6" stroke="#5d2a42" stroke-width="4"></path><path d="M 565.6 1392.5 L 565.6 1410 L 550.5 1418.7 L 535.3 1392.5 Z" fill="#fcb1a6" stroke="#5d2a42" stroke-width="4"></path><path d="M 400 1340 L 377.8 1301.5 L 422.2 1301.5 Z" fill="#fff9ec" stroke="#5d2a42" stroke-width="4"></path><path d="M 347.5 1301.5 L 347.5 1284 L 362.7 1275.3 L 377.8 1301.5 Z" fill="#fcb1a6" stroke="#5d2a42" stroke-width="4"></path><path d="M 437.3 1275.3 L 452.5 1284 L 452.5 1301.5 L 422.2 1301.5 Z" fill="#fcb1a6" stroke="#5d2a42" stroke-width="4"></path><path d="M 415.2 1366.2 L 400 1375 L 384.8 1366.2 L 400 1340 Z" fill="#fcb1a6" stroke="#5d2a42" stroke-width="4"></path><path d="M 761.6 1392.5 L 717.2 1392.5 L 739.4 1354 Z" fill="#fff9ec" stroke="#5d2a42" stroke-width="4"></path><path d="M 702 1418.7 L 686.9 1410 L 686.9 1392.5 L 717.2 1392.5 Z" fill="#fcb1a6" stroke="#5d2a42" stroke-width="4"></path><path d="M 724.2 1327.8 L 739.4 1319 L 754.5 1327.8 L 739.4 1354 Z" fill="#fcb1a6" stroke="#5d2a42" stroke-width="4"></path><path d="M 791.9 1392.5 L 791.9 1410 L 776.7 1418.7 L 761.6 1392.5 Z" fill="#fcb1a6" stroke="#5d2a42" stroke-width="4"></path><path d="M 626.2 1340 L 604.1 1301.5 L 648.4 1301.5 Z" fill="#fff9ec" stroke="#5d2a42" stroke-width="4"></path><path d="M 573.7 1301.5 L 573.7 1284 L 588.9 1275.3 L 604.1 1301.5 Z" fill="#fcb1a6" stroke="#5d2a42" stroke-width="4"></path><path d="M 663.6 1275.3 L 678.7 1284 L 678.7 1301.5 L 648.4 1301.5 Z" fill="#fcb1a6" stroke="#5d2a42" stroke-width="4"></path><path d="M 641.4 1366.2 L 626.2 1375 L 611.1 1366.2 L 626.2 1340 Z" fill="#fcb1a6" stroke="#5d2a42" stroke-width="4"></path><path d="M 874.7 1196.5 L 830.3 1196.5 L 852.5 1158.1 Z" fill="#fff9ec" stroke="#5d2a42" stroke-width="4"></path><path d="M 815.1 1222.8 L 800 1214 L 800 1196.5 L 830.3 1196.5 Z" fill="#fcb1a6" stroke="#5d2a42" stroke-width="4"></path><path d="M 837.3 1131.9 L 852.5 1123.1 L 867.6 1131.9 L 852.5 1158.1 Z" fill="#fcb1a6" stroke="#5d2a42" stroke-width="4"></path><path d="M 905 1196.5 L 905 1214 L 889.8 1222.8 L 874.7 1196.5 Z" fill="#fcb1a6" stroke="#5d2a42" stroke-width="4"></path><path d="M 739.4 1144 L 717.2 1105.6 L 761.6 1105.6 Z" fill="#fff9ec" stroke="#5d2a42" stroke-width="4"></path><path d="M 686.9 1105.6 L 686.9 1088.1 L 702 1079.4 L 717.2 1105.6 Z" fill="#fcb1a6" stroke="#5d2a42" stroke-width="4"></path><path d="M 776.7 1079.4 L 791.9 1088.1 L 791.9 1105.6 L 761.6 1105.6 Z" fill="#fcb1a6" stroke="#5d2a42" stroke-width="4"></path><path d="M 754.5 1170.3 L 739.4 1179 L 724.2 1170.3 L 739.4 1144 Z" fill="#fcb1a6" stroke="#5d2a42" stroke-width="4"></path><path d="M 987.8 1000.6 L 943.4 1000.6 L 965.6 962.2 Z" fill="#fff9ec" stroke="#5d2a42" stroke-width="4"></path><path d="M 928.3 1026.9 L 913.1 1018.1 L 913.1 1000.6 L 943.4 1000.6 Z" fill="#fcb1a6" stroke="#5d2a42" stroke-width="4"></path><path d="M 950.5 935.9 L 965.6 927.2 L 980.8 935.9 L 965.6 962.2 Z" fill="#fcb1a6" stroke="#5d2a42" stroke-width="4"></path><path d="M 1018.1 1000.6 L 1018.1 1018.1 L 1003 1026.9 L 987.8 1000.6 Z" fill="#fcb1a6" stroke="#5d2a42" stroke-width="4"></path><path d="M 852.5 948.1 L 830.3 909.7 L 874.7 909.7 Z" fill="#fff9ec" stroke="#5d2a42" stroke-width="4"></path><path d="M 800 909.7 L 800 892.2 L 815.1 883.4 L 830.3 909.7 Z" fill="#fcb1a6" stroke="#5d2a42" stroke-width="4"></path><path d="M 889.8 883.4 L 905 892.2 L 905 909.7 L 874.7 909.7 Z" fill="#fcb1a6" stroke="#5d2a42" stroke-width="4"></path><path d="M 867.6 974.4 L 852.5 983.1 L 837.3 974.4 L 852.5 948.1 Z" fill="#fcb1a6" stroke="#5d2a42" stroke-width="4"></path><path d="M 1100.9 804.7 L 1056.5 804.7 L 1078.7 766.2 Z" fill="#fff9ec" stroke="#5d2a42" stroke-width="4"></path><path d="M 1041.4 830.9 L 1026.2 822.2 L 1026.2 804.7 L 1056.5 804.7 Z" fill="#fcb1a6" stroke="#5d2a42" stroke-width="4"></path><path d="M 1063.6 740 L 1078.7 731.2 L 1093.9 740 L 1078.7 766.2 Z" fill="#fcb1a6" stroke="#5d2a42" stroke-width="4"></path><path d="M 1131.2 804.7 L 1131.2 822.2 L 1116.1 830.9 L 1100.9 804.7 Z" fill="#fcb1a6" stroke="#5d2a42" stroke-width="4"></path><path d="M 965.6 752.2 L 943.4 713.7 L 987.8 713.7 Z" fill="#fff9ec" stroke="#5d2a42" stroke-width="4"></path><path d="M 913.1 713.7 L 913.1 696.2 L 928.3 687.5 L 943.4 713.7 Z" fill="#fcb1a6" stroke="#5d2a42" stroke-width="4"></path><path d="M 1003 687.5 L 1018.1 696.2 L 1018.1 713.7 L 987.8 713.7 Z" fill="#fcb1a6" stroke="#5d2a42" stroke-width="4"></path><path d="M 980.8 778.4 L 965.6 787.2 L 950.5 778.4 L 965.6 752.2 Z" fill="#fcb1a6" stroke="#5d2a42" stroke-width="4"></path><path d="M 1214 608.7 L 1169.7 608.7 L 1191.9 570.3 Z" fill="#fff9ec" stroke="#5d2a42" stroke-width="4"></path><path d="M 1154.5 635 L 1139.4 626.2 L 1139.4 608.7 L 1169.7 608.7 Z" fill="#fcb1a6" stroke="#5d2a42" stroke-width="4"></path><path d="M 1176.7 544.1 L 1191.9 535.3 L 1207 544.1 L 1191.9 570.3 Z" fill="#fcb1a6" stroke="#5d2a42" stroke-width="4"></path><path d="M 1244.4 608.7 L 1244.4 626.2 L 1229.2 635 L 1214 608.7 Z" fill="#fcb1a6" stroke="#5d2a42" stroke-width="4"></path><path d="M 1078.7 556.2 L 1056.5 517.8 L 1100.9 517.8 Z" fill="#fff9ec" stroke="#5d2a42" stroke-width="4"></path><path d="M 1026.2 517.8 L 1026.2 500.3 L 1041.4 491.6 L 1056.5 517.8 Z" fill="#fcb1a6" stroke="#5d2a42" stroke-width="4"></path><path d="M 1116.1 491.6 L 1131.2 500.3 L 1131.2 517.8 L 1100.9 517.8 Z" fill="#fcb1a6" stroke="#5d2a42" stroke-width="4"></path><path d="M 1093.9 582.5 L 1078.7 591.2 L 1063.6 582.5 L 1078.7 556.2 Z" fill="#fcb1a6" stroke="#5d2a42" stroke-width="4"></path><path d="M 1100.9 412.8 L 1056.5 412.8 L 1078.7 374.4 Z" fill="#fff9ec" stroke="#5d2a42" stroke-width="4"></path><path d="M 1041.4 439.1 L 1026.2 430.3 L 1026.2 412.8 L 1056.5 412.8 Z" fill="#fcb1a6" stroke="#5d2a42" stroke-width="4"></path><path d="M 1063.6 348.1 L 1078.7 339.4 L 1093.9 348.1 L 1078.7 374.4 Z" fill="#fcb1a6" stroke="#5d2a42" stroke-width="4"></path><path d="M 1131.2 412.8 L 1131.2 430.3 L 1116.1 439.1 L 1100.9 412.8 Z" fill="#fcb1a6" stroke="#5d2a42" stroke-width="4"></path><path d="M 965.6 360.3 L 943.4 321.9 L 987.8 321.9 Z" fill="#fff9ec" stroke="#5d2a42" stroke-width="4"></path><path d="M 913.1 321.9 L 913.1 304.4 L 928.3 295.6 L 943.4 321.9 Z" fill="#fcb1a6" stroke="#5d2a42" stroke-width="4"></path><path d="M 1003 295.6 L 1018.1 304.4 L 1018.1 321.9 L 987.8 321.9 Z" fill="#fcb1a6" stroke="#5d2a42" stroke-width="4"></path><path d="M 980.8 386.6 L 965.6 395.3 L 950.5 386.6 L 965.6 360.3 Z" fill="#fcb1a6" stroke="#5d2a42" stroke-width="4"></path><path d="M 987.8 216.9 L 943.4 216.9 L 965.6 178.4 Z" fill="#fff9ec" stroke="#5d2a42" stroke-width="4"></path><path d="M 928.3 243.1 L 913.1 234.4 L 913.1 216.9 L 943.4 216.9 Z" fill="#fcb1a6" stroke="#5d2a42" stroke-width="4"></path><path d="M 950.5 152.2 L 965.6 143.4 L 980.8 152.2 L 965.6 178.4 Z" fill="#fcb1a6" stroke="#5d2a42" stroke-width="4"></path><path d="M 1018.1 216.9 L 1018.1 234.4 L 1003 243.1 L 987.8 216.9 Z" fill="#fcb1a6" stroke="#5d2a42" stroke-width="4"></path><path d="M 852.5 164.4 L 830.3 125.9 L 874.7 125.9 Z" fill="#fff9ec" stroke="#5d2a42" stroke-width="4"></path><path d="M 800 125.9 L 800 108.4 L 815.1 99.7 L 830.3 125.9 Z" fill="#fcb1a6" stroke="#5d2a42" stroke-width="4"></path><path d="M 889.8 99.7 L 905 108.4 L 905 125.9 L 874.7 125.9 Z" fill="#fcb1a6" stroke="#5d2a42" stroke-width="4"></path><path d="M 867.6 190.6 L 852.5 199.4 L 837.3 190.6 L 852.5 164.4 Z" fill="#fcb1a6" stroke="#5d2a42" stroke-width="4"></path><path d="M 874.7 20.9 L 830.3 20.9 L 852.5 -17.5 Z" fill="#fff9ec" stroke="#5d2a42" stroke-width="4"></path><path d="M 815.1 47.2 L 800 38.4 L 800 20.9 L 830.3 20.9 Z" fill="#fcb1a6" stroke="#5d2a42" stroke-width="4"></path><path d="M 837.3 -43.7 L 852.5 -52.5 L 867.6 -43.7 L 852.5 -17.5 Z" fill="#fcb1a6" stroke="#5d2a42" stroke-width="4"></path><path d="M 905 20.9 L 905 38.4 L 889.8 47.2 L 874.7 20.9 Z" fill="#fcb1a6" stroke="#5d2a42" stroke-width="4"></path><path d="M 739.4 -31.6 L 717.2 -70 L 761.6 -70 Z" fill="#fff9ec" stroke="#5d2a42" stroke-width="4"></path><path d="M 686.9 -70 L 686.9 -87.5 L 702 -96.2 L 717.2 -70 Z" fill="#fcb1a6" stroke="#5d2a42" stroke-width="4"></path><path d="M 776.7 -96.2 L 791.9 -87.5 L 791.9 -70 L 761.6 -70 Z" fill="#fcb1a6" stroke="#5d2a42" stroke-width="4"></path><path d="M 754.5 -5.3 L 739.4 3.4 L 724.2 -5.3 L 739.4 -31.6 Z" fill="#fcb1a6" stroke="#5d2a42" stroke-width="4"></path><path d="M 761.6 -175 L 717.2 -175 L 739.4 -213.4 Z" fill="#fff9ec" stroke="#5d2a42" stroke-width="4"></path><path d="M 702 -148.7 L 686.9 -157.5 L 686.9 -175 L 717.2 -175 Z" fill="#fcb1a6" stroke="#5d2a42" stroke-width="4"></path><path d="M 724.2 -239.7 L 739.4 -248.4 L 754.5 -239.7 L 739.4 -213.4 Z" fill="#fcb1a6" stroke="#5d2a42" stroke-width="4"></path><path d="M 791.9 -175 L 791.9 -157.5 L 776.7 -148.7 L 761.6 -175 Z" fill="#fcb1a6" stroke="#5d2a42" stroke-width="4"></path><path d="M 626.2 -227.5 L 604.1 -265.9 L 648.4 -265.9 Z" fill="#fff9ec" stroke="#5d2a42" stroke-width="4"></path><path d="M 573.7 -265.9 L 573.7 -283.4 L 588.9 -292.2 L 604.1 -265.9 Z" fill="#fcb1a6" stroke="#5d2a42" stroke-width="4"></path><path d="M 663.6 -292.2 L 678.7 -283.4 L 678.7 -265.9 L 648.4 -265.9 Z" fill="#fcb1a6" stroke="#5d2a42" stroke-width="4"></path><path d="M 641.4 -201.2 L 626.2 -192.5 L 611.1 -201.2 L 626.2 -227.5 Z" fill="#fcb1a6" stroke="#5d2a42" stroke-width="4"></path><path d="M 535.3 -175 L 490.9 -175 L 513.1 -213.4 Z" fill="#fff9ec" stroke="#5d2a42" stroke-width="4"></path><path d="M 475.8 -148.7 L 460.6 -157.5 L 460.6 -175 L 490.9 -175 Z" fill="#fcb1a6" stroke="#5d2a42" stroke-width="4"></path><path d="M 498 -239.7 L 513.1 -248.4 L 528.3 -239.7 L 513.1 -213.4 Z" fill="#fcb1a6" stroke="#5d2a42" stroke-width="4"></path><path d="M 565.6 -175 L 565.6 -157.5 L 550.5 -148.7 L 535.3 -175 Z" fill="#fcb1a6" stroke="#5d2a42" stroke-width="4"></path><path d="M 400 -227.5 L 377.8 -265.9 L 422.2 -265.9 Z" fill="#fff9ec" stroke="#5d2a42" stroke-width="4"></path><path d="M 347.5 -265.9 L 347.5 -283.4 L 362.7 -292.2 L 377.8 -265.9 Z" fill="#fcb1a6" stroke="#5d2a42" stroke-width="4"></path><path d="M 437.3 -292.2 L 452.5 -283.4 L 452.5 -265.9 L 422.2 -265.9 Z" fill="#fcb1a6" stroke="#5d2a42" stroke-width="4"></path><path d="M 415.2 -201.2 L 400 -192.5 L 384.8 -201.2 L 400 -227.5 Z" fill="#fcb1a6" stroke="#5d2a42" stroke-width="4"></path><path d="M 309.1 -175 L 264.7 -175 L 286.9 -213.4 Z" fill="#fff9ec" stroke="#5d2a42" stroke-width="4"></path><path d="M 249.5 -148.7 L 234.4 -157.5 L 234.4 -175 L 264.7 -175 Z" fill="#fcb1a6" stroke="#5d2a42" stroke-width="4"></path><path d="M 271.7 -239.7 L 286.9 -248.4 L 302 -239.7 L 286.9 -213.4 Z" fill="#fcb1a6" stroke="#5d2a42" stroke-width="4"></path><path d="M 339.4 -175 L 339.4 -157.5 L 324.2 -148.7 L 309.1 -175 Z" fill="#fcb1a6" stroke="#5d2a42" stroke-width="4"></path><path d="M 173.8 -227.5 L 151.6 -265.9 L 195.9 -265.9 Z" fill="#fff9ec" stroke="#5d2a42" stroke-width="4"></path><path d="M 121.3 -265.9 L 121.3 -283.4 L 136.4 -292.2 L 151.6 -265.9 Z" fill="#fcb1a6" stroke="#5d2a42" stroke-width="4"></path><path d="M 211.1 -292.2 L 226.3 -283.4 L 226.3 -265.9 L 195.9 -265.9 Z" fill="#fcb1a6" stroke="#5d2a42" stroke-width="4"></path><path d="M 188.9 -201.2 L 173.8 -192.5 L 158.6 -201.2 L 173.8 -227.5 Z" fill="#fcb1a6" stroke="#5d2a42" stroke-width="4"></path><path d="M 82.8 -175 L 38.4 -175 L 60.6 -213.4 Z" fill="#fff9ec" stroke="#5d2a42" stroke-width="4"></path><path d="M 23.3 -148.7 L 8.1 -157.5 L 8.1 -175 L 38.4 -175 Z" fill="#fcb1a6" stroke="#5d2a42" stroke-width="4"></path><path d="M 45.5 -239.7 L 60.6 -248.4 L 75.8 -239.7 L 60.6 -213.4 Z" fill="#fcb1a6" stroke="#5d2a42" stroke-width="4"></path><path d="M 113.1 -175 L 113.1 -157.5 L 98 -148.7 L 82.8 -175 Z" fill="#fcb1a6" stroke="#5d2a42" stroke-width="4"></path><path d="M -52.5 -227.5 L -74.7 -265.9 L -30.3 -265.9 Z" fill="#fff9ec" stroke="#5d2a42" stroke-width="4"></path><path d="M -105 -265.9 L -105 -283.4 L -89.8 -292.2 L -74.7 -265.9 Z" fill="#fcb1a6" stroke="#5d2a42" stroke-width="4"></path><path d="M -15.1 -292.2 L 0 -283.4 L 0 -265.9 L -30.3 -265.9 Z" fill="#fcb1a6" stroke="#5d2a42" stroke-width="4"></path><path d="M -37.3 -201.2 L -52.5 -192.5 L -67.6 -201.2 L -52.5 -227.5 Z" fill="#fcb1a6" stroke="#5d2a42" stroke-width="4"></path><path d="M -143.4 -175 L -187.8 -175 L -165.6 -213.4 Z" fill="#fff9ec" stroke="#5d2a42" stroke-width="4"></path><path d="M -203 -148.7 L -218.1 -157.5 L -218.1 -175 L -187.8 -175 Z" fill="#fcb1a6" stroke="#5d2a42" stroke-width="4"></path><path d="M -180.8 -239.7 L -165.6 -248.4 L -150.5 -239.7 L -165.6 -213.4 Z" fill="#fcb1a6" stroke="#5d2a42" stroke-width="4"></path><path d="M -113.1 -175 L -113.1 -157.5 L -128.3 -148.7 L -143.4 -175 Z" fill="#fcb1a6" stroke="#5d2a42" stroke-width="4"></path><path d="M -278.7 -227.5 L -300.9 -265.9 L -256.5 -265.9 Z" fill="#fff9ec" stroke="#5d2a42" stroke-width="4"></path><path d="M -331.2 -265.9 L -331.2 -283.4 L -316.1 -292.2 L -300.9 -265.9 Z" fill="#fcb1a6" stroke="#5d2a42" stroke-width="4"></path><path d="M -241.4 -292.2 L -226.2 -283.4 L -226.2 -265.9 L -256.5 -265.9 Z" fill="#fcb1a6" stroke="#5d2a42" stroke-width="4"></path><path d="M -263.6 -201.2 L -278.7 -192.5 L -293.9 -201.2 L -278.7 -227.5 Z" fill="#fcb1a6" stroke="#5d2a42" stroke-width="4"></path><path d="M -256.5 20.9 L -300.9 20.9 L -278.7 -17.5 Z" fill="#fff9ec" stroke="#5d2a42" stroke-width="4"></path><path d="M -316.1 47.2 L -331.2 38.4 L -331.2 20.9 L -300.9 20.9 Z" fill="#fcb1a6" stroke="#5d2a42" stroke-width="4"></path><path d="M -293.9 -43.7 L -278.7 -52.5 L -263.6 -43.7 L -278.7 -17.5 Z" fill="#fcb1a6" stroke="#5d2a42" stroke-width="4"></path><path d="M -226.2 20.9 L -226.2 38.4 L -241.4 47.2 L -256.5 20.9 Z" fill="#fcb1a6" stroke="#5d2a42" stroke-width="4"></path><path d="M -391.9 -31.6 L -414 -70 L -369.7 -70 Z" fill="#fff9ec" stroke="#5d2a42" stroke-width="4"></path><path d="M -444.4 -70 L -444.4 -87.5 L -429.2 -96.2 L -414 -70 Z" fill="#fcb1a6" stroke="#5d2a42" stroke-width="4"></path><path d="M -354.5 -96.2 L -339.4 -87.5 L -339.4 -70 L -369.7 -70 Z" fill="#fcb1a6" stroke="#5d2a42" stroke-width="4"></path><path d="M -376.7 -5.3 L -391.9 3.4 L -407 -5.3 L -391.9 -31.6 Z" fill="#fcb1a6" stroke="#5d2a42" stroke-width="4"></path><path d="M -369.7 216.9 L -414 216.9 L -391.9 178.4 Z" fill="#fff9ec" stroke="#5d2a42" stroke-width="4"></path><path d="M -429.2 243.1 L -444.4 234.4 L -444.4 216.9 L -414 216.9 Z" fill="#fcb1a6" stroke="#5d2a42" stroke-width="4"></path><path d="M -407 152.2 L -391.9 143.4 L -376.7 152.2 L -391.9 178.4 Z" fill="#fcb1a6" stroke="#5d2a42" stroke-width="4"></path><path d="M -339.4 216.9 L -339.4 234.4 L -354.5 243.1 L -369.7 216.9 Z" fill="#fcb1a6" stroke="#5d2a42" stroke-width="4"></path><path d="M -505 164.4 L -527.2 125.9 L -482.8 125.9 Z" fill="#fff9ec" stroke="#5d2a42" stroke-width="4"></path><path d="M -557.5 125.9 L -557.5 108.4 L -542.3 99.7 L -527.2 125.9 Z" fill="#fcb1a6" stroke="#5d2a42" stroke-width="4"></path><path d="M -467.6 99.7 L -452.5 108.4 L -452.5 125.9 L -482.8 125.9 Z" fill="#fcb1a6" stroke="#5d2a42" stroke-width="4"></path><path d="M -489.8 190.6 L -505 199.4 L -520.1 190.6 L -505 164.4 Z" fill="#fcb1a6" stroke="#5d2a42" stroke-width="4"></path><path d="M -482.8 412.8 L -527.2 412.8 L -505 374.4 Z" fill="#fff9ec" stroke="#5d2a42" stroke-width="4"></path><path d="M -542.3 439.1 L -557.5 430.3 L -557.5 412.8 L -527.2 412.8 Z" fill="#fcb1a6" stroke="#5d2a42" stroke-width="4"></path><path d="M -520.1 348.1 L -505 339.4 L -489.8 348.1 L -505 374.4 Z" fill="#fcb1a6" stroke="#5d2a42" stroke-width="4"></path><path d="M -452.5 412.8 L -452.5 430.3 L -467.6 439.1 L -482.8 412.8 Z" fill="#fcb1a6" stroke="#5d2a42" stroke-width="4"></path><path d="M -618.1 360.3 L -640.3 321.9 L -595.9 321.9 Z" fill="#fff9ec" stroke="#5d2a42" stroke-width="4"></path><path d="M -670.6 321.9 L -670.6 304.4 L -655.4 295.6 L -640.3 321.9 Z" fill="#fcb1a6" stroke="#5d2a42" stroke-width="4"></path><path d="M -580.8 295.6 L -565.6 304.4 L -565.6 321.9 L -595.9 321.9 Z" fill="#fcb1a6" stroke="#5d2a42" stroke-width="4"></path><path d="M -602.9 386.6 L -618.1 395.3 L -633.3 386.6 L -618.1 360.3 Z" fill="#fcb1a6" stroke="#5d2a42" stroke-width="4"></path><ellipse cx="400" cy="400" rx="600" ry="600" fill="none" stroke="white" stroke-width="560"></ellipse><ellipse cx="400" cy="400" rx="320" ry="320" fill="none" stroke="#5d2a42" stroke-width="4"></ellipse></svg>