<svg viewBox="0 0 800 800" preserveAspectRatio="xMidYMin slice" xmlns="http://www.w3.org/2000/svg"><rect x="0" y="0" width="800" height="800" fill="#38A3A5"></rect><path d="M 400 367 Q 294.4 332.7, 317.5 224.1 Q 400 149.9, 482.5 224.1 Q 505.6 332.7, 400 367 Z" fill="#C7F9CC" stroke="#22577A" stroke-width="8"></path><path d="M 288.9 559.4 Q 183.4 525.1, 206.4 416.5 Q 288.9 342.3, 371.4 416.5 Q 394.5 525.1, 288.9 559.4 Z" fill="#C7F9CC" stroke="#22577A" stroke-width="8"></path><path d="M 511.1 559.4 Q 405.5 525.1, 428.6 416.5 Q 511.1 342.3, 593.6 416.5 Q 616.6 525.1, 511.1 559.4 Z" fill="#C7F9CC" stroke="#22577A" stroke-width="8"></path><path d="M 622.2 367 Q 516.6 332.7, 539.7 224.1 Q 622.2 149.9, 704.7 224.1 Q 727.7 332.7, 622.2 367 Z" fill="#C7F9CC" stroke="#22577A" stroke-width="8"></path><path d="M 511.1 174.6 Q 405.5 140.3, 428.6 31.7 Q 511.1 -42.5, 593.6 31.7 Q 616.6 140.3, 511.1 174.6 Z" fill="#C7F9CC" stroke="#22577A" stroke-width="8"></path><path d="M 288.9 174.6 Q 183.4 140.3, 206.4 31.7 Q 288.9 -42.5, 371.4 31.7 Q 394.5 140.3, 288.9 174.6 Z" fill="#C7F9CC" stroke="#22577A" stroke-width="8"></path><path d="M 177.8 367 Q 72.3 332.7, 95.3 224.1 Q 177.8 149.9, 260.3 224.1 Q 283.4 332.7, 177.8 367 Z" fill="#C7F9CC" stroke="#22577A" stroke-width="8"></path><path d="M 177.8 751.8 Q 72.3 717.5, 95.3 608.9 Q 177.8 534.6, 260.3 608.9 Q 283.4 717.5, 177.8 751.8 Z" fill="#C7F9CC" stroke="#22577A" stroke-width="8"></path><path d="M 400 751.8 Q 294.4 717.5, 317.5 608.9 Q 400 534.6, 482.5 608.9 Q 505.6 717.5, 400 751.8 Z" fill="#C7F9CC" stroke="#22577A" stroke-width="8"></path><path d="M 622.2 751.8 Q 516.6 717.5, 539.7 608.9 Q 622.2 534.6, 704.7 608.9 Q 727.7 717.5, 622.2 751.8 Z" fill="#C7F9CC" stroke="#22577A" stroke-width="8"></path><path d="M 733.2 559.4 Q 627.7 525.1, 650.7 416.5 Q 733.2 342.3, 815.7 416.5 Q 838.8 525.1, 733.2 559.4 Z" fill="#C7F9CC" stroke="#22577A" stroke-width="8"></path><path d="M 844.3 367 Q 738.8 332.7, 761.8 224.1 Q 844.3 149.9, 926.8 224.1 Q 949.9 332.7, 844.3 367 Z" fill="#C7F9CC" stroke="#22577A" stroke-width="8"></path><path d="M 733.2 174.6 Q 627.7 140.3, 650.7 31.7 Q 733.2 -42.5, 815.7 31.7 Q 838.8 140.3, 733.2 174.6 Z" fill="#C7F9CC" stroke="#22577A" stroke-width="8"></path><path d="M 622.2 -17.8 Q 516.6 -52.1, 539.7 -160.7 Q 622.2 -234.9, 704.7 -160.7 Q 727.7 -52.1, 622.2 -17.8 Z" fill="#C7F9CC" stroke="#22577A" stroke-width="8"></path><path d="M 400 -17.8 Q 294.4 -52.1, 317.5 -160.7 Q 400 -234.9, 482.5 -160.7 Q 505.6 -52.1, 400 -17.8 Z" fill="#C7F9CC" stroke="#22577A" stroke-width="8"></path><path d="M 177.8 -17.8 Q 72.3 -52.1, 95.3 -160.7 Q 177.8 -234.9, 260.3 -160.7 Q 283.4 -52.1, 177.8 -17.8 Z" fill="#C7F9CC" stroke="#22577A" stroke-width="8"></path><path d="M 66.8 174.6 Q -38.8 140.3, -15.7 31.7 Q 66.8 -42.5, 149.3 31.7 Q 172.3 140.3, 66.8 174.6 Z" fill="#C7F9CC" stroke="#22577A" stroke-width="8"></path><path d="M -44.3 367 Q -149.9 332.7, -126.8 224.1 Q -44.3 149.9, 38.2 224.1 Q 61.2 332.7, -44.3 367 Z" fill="#C7F9CC" stroke="#22577A" stroke-width="8"></path><path d="M 66.8 559.4 Q -38.8 525.1, -15.7 416.5 Q 66.8 342.3, 149.3 416.5 Q 172.3 525.1, 66.8 559.4 Z" fill="#C7F9CC" stroke="#22577A" stroke-width="8"></path><path d="M 593.6 383.5 Q 511.1 457.8, 428.6 383.5 Q 405.5 274.9, 511.1 240.6 Q 616.6 274.9, 593.6 383.5 Z" fill="#C7F9CC" stroke="#22577A" stroke-width="8"></path><path d="M 572.6 400 Q 511.1 441.3, 449.6 400 Q 511.1 358.8, 572.6 400 Z" fill="#80ED99" stroke="#22577A" stroke-width="8"></path><path d="M 424.8 357.1 Q 419.8 283.2, 486.3 250.5 Q 491.3 324.4, 424.8 357.1 Z" fill="#80ED99" stroke="#22577A" stroke-width="8"></path><path d="M 535.9 250.5 Q 602.3 283.2, 597.4 357.1 Q 530.9 324.4, 535.9 250.5 Z" fill="#80ED99" stroke="#22577A" stroke-width="8"></path><path d="M 482.5 575.9 Q 400 650.1, 317.5 575.9 Q 294.4 467.3, 400 433 Q 505.6 467.3, 482.5 575.9 Z" fill="#C7F9CC" stroke="#22577A" stroke-width="8"></path><path d="M 461.5 592.4 Q 400 633.6, 338.5 592.4 Q 400 551.1, 461.5 592.4 Z" fill="#80ED99" stroke="#22577A" stroke-width="8"></path><path d="M 313.7 549.5 Q 308.7 475.6, 375.2 442.9 Q 380.2 516.8, 313.7 549.5 Z" fill="#80ED99" stroke="#22577A" stroke-width="8"></path><path d="M 424.8 442.9 Q 491.3 475.6, 486.3 549.5 Q 419.8 516.8, 424.8 442.9 Z" fill="#80ED99" stroke="#22577A" stroke-width="8"></path><path d="M 704.7 575.9 Q 622.2 650.1, 539.7 575.9 Q 516.6 467.3, 622.2 433 Q 727.7 467.3, 704.7 575.9 Z" fill="#C7F9CC" stroke="#22577A" stroke-width="8"></path><path d="M 683.6 592.4 Q 622.2 633.6, 560.7 592.4 Q 622.2 551.1, 683.6 592.4 Z" fill="#80ED99" stroke="#22577A" stroke-width="8"></path><path d="M 535.9 549.5 Q 530.9 475.6, 597.4 442.9 Q 602.3 516.8, 535.9 549.5 Z" fill="#80ED99" stroke="#22577A" stroke-width="8"></path><path d="M 647 442.9 Q 713.4 475.6, 708.4 549.5 Q 642 516.8, 647 442.9 Z" fill="#80ED99" stroke="#22577A" stroke-width="8"></path><path d="M 815.7 383.5 Q 733.2 457.8, 650.7 383.5 Q 627.7 274.9, 733.2 240.6 Q 838.8 274.9, 815.7 383.5 Z" fill="#C7F9CC" stroke="#22577A" stroke-width="8"></path><path d="M 794.7 400 Q 733.2 441.3, 671.7 400 Q 733.2 358.8, 794.7 400 Z" fill="#80ED99" stroke="#22577A" stroke-width="8"></path><path d="M 647 357.1 Q 642 283.2, 708.4 250.5 Q 713.4 324.4, 647 357.1 Z" fill="#80ED99" stroke="#22577A" stroke-width="8"></path><path d="M 758 250.5 Q 824.5 283.2, 819.5 357.1 Q 753.1 324.4, 758 250.5 Z" fill="#80ED99" stroke="#22577A" stroke-width="8"></path><path d="M 704.7 191.1 Q 622.2 265.4, 539.7 191.1 Q 516.6 82.5, 622.2 48.2 Q 727.7 82.5, 704.7 191.1 Z" fill="#C7F9CC" stroke="#22577A" stroke-width="8"></path><path d="M 683.6 207.6 Q 622.2 248.9, 560.7 207.6 Q 622.2 166.4, 683.6 207.6 Z" fill="#80ED99" stroke="#22577A" stroke-width="8"></path><path d="M 535.9 164.7 Q 530.9 90.8, 597.4 58.2 Q 602.3 132, 535.9 164.7 Z" fill="#80ED99" stroke="#22577A" stroke-width="8"></path><path d="M 647 58.2 Q 713.4 90.8, 708.4 164.7 Q 642 132, 647 58.2 Z" fill="#80ED99" stroke="#22577A" stroke-width="8"></path><path d="M 482.5 191.1 Q 400 265.4, 317.5 191.1 Q 294.4 82.5, 400 48.2 Q 505.6 82.5, 482.5 191.1 Z" fill="#C7F9CC" stroke="#22577A" stroke-width="8"></path><path d="M 461.5 207.6 Q 400 248.9, 338.5 207.6 Q 400 166.4, 461.5 207.6 Z" fill="#80ED99" stroke="#22577A" stroke-width="8"></path><path d="M 313.7 164.7 Q 308.7 90.8, 375.2 58.2 Q 380.2 132, 313.7 164.7 Z" fill="#80ED99" stroke="#22577A" stroke-width="8"></path><path d="M 424.8 58.2 Q 491.3 90.8, 486.3 164.7 Q 419.8 132, 424.8 58.2 Z" fill="#80ED99" stroke="#22577A" stroke-width="8"></path><path d="M 371.4 383.5 Q 288.9 457.8, 206.4 383.5 Q 183.4 274.9, 288.9 240.6 Q 394.5 274.9, 371.4 383.5 Z" fill="#C7F9CC" stroke="#22577A" stroke-width="8"></path><path d="M 350.4 400 Q 288.9 441.3, 227.4 400 Q 288.9 358.8, 350.4 400 Z" fill="#80ED99" stroke="#22577A" stroke-width="8"></path><path d="M 202.6 357.1 Q 197.7 283.2, 264.1 250.5 Q 269.1 324.4, 202.6 357.1 Z" fill="#80ED99" stroke="#22577A" stroke-width="8"></path><path d="M 313.7 250.5 Q 380.2 283.2, 375.2 357.1 Q 308.7 324.4, 313.7 250.5 Z" fill="#80ED99" stroke="#22577A" stroke-width="8"></path><path d="M 371.4 768.3 Q 288.9 842.5, 206.4 768.3 Q 183.4 659.7, 288.9 625.4 Q 394.5 659.7, 371.4 768.3 Z" fill="#C7F9CC" stroke="#22577A" stroke-width="8"></path><path d="M 350.4 784.8 Q 288.9 826, 227.4 784.8 Q 288.9 743.5, 350.4 784.8 Z" fill="#80ED99" stroke="#22577A" stroke-width="8"></path><path d="M 202.6 741.8 Q 197.7 668, 264.1 635.3 Q 269.1 709.2, 202.6 741.8 Z" fill="#80ED99" stroke="#22577A" stroke-width="8"></path><path d="M 313.7 635.3 Q 380.2 668, 375.2 741.8 Q 308.7 709.2, 313.7 635.3 Z" fill="#80ED99" stroke="#22577A" stroke-width="8"></path><path d="M 593.6 768.3 Q 511.1 842.5, 428.6 768.3 Q 405.5 659.7, 511.1 625.4 Q 616.6 659.7, 593.6 768.3 Z" fill="#C7F9CC" stroke="#22577A" stroke-width="8"></path><path d="M 572.6 784.8 Q 511.1 826, 449.6 784.8 Q 511.1 743.5, 572.6 784.8 Z" fill="#80ED99" stroke="#22577A" stroke-width="8"></path><path d="M 424.8 741.8 Q 419.8 668, 486.3 635.3 Q 491.3 709.2, 424.8 741.8 Z" fill="#80ED99" stroke="#22577A" stroke-width="8"></path><path d="M 535.9 635.3 Q 602.3 668, 597.4 741.8 Q 530.9 709.2, 535.9 635.3 Z" fill="#80ED99" stroke="#22577A" stroke-width="8"></path><path d="M 815.7 768.3 Q 733.2 842.5, 650.7 768.3 Q 627.7 659.7, 733.2 625.4 Q 838.8 659.7, 815.7 768.3 Z" fill="#C7F9CC" stroke="#22577A" stroke-width="8"></path><path d="M 794.7 784.8 Q 733.2 826, 671.7 784.8 Q 733.2 743.5, 794.7 784.8 Z" fill="#80ED99" stroke="#22577A" stroke-width="8"></path><path d="M 647 741.8 Q 642 668, 708.4 635.3 Q 713.4 709.2, 647 741.8 Z" fill="#80ED99" stroke="#22577A" stroke-width="8"></path><path d="M 758 635.3 Q 824.5 668, 819.5 741.8 Q 753.1 709.2, 758 635.3 Z" fill="#80ED99" stroke="#22577A" stroke-width="8"></path><path d="M 926.8 575.9 Q 844.3 650.1, 761.8 575.9 Q 738.8 467.3, 844.3 433 Q 949.9 467.3, 926.8 575.9 Z" fill="#C7F9CC" stroke="#22577A" stroke-width="8"></path><path d="M 905.8 592.4 Q 844.3 633.6, 782.8 592.4 Q 844.3 551.1, 905.8 592.4 Z" fill="#80ED99" stroke="#22577A" stroke-width="8"></path><path d="M 758 549.5 Q 753.1 475.6, 819.5 442.9 Q 824.5 516.8, 758 549.5 Z" fill="#80ED99" stroke="#22577A" stroke-width="8"></path><path d="M 869.1 442.9 Q 935.6 475.6, 930.6 549.5 Q 864.1 516.8, 869.1 442.9 Z" fill="#80ED99" stroke="#22577A" stroke-width="8"></path><path d="M 1037.9 383.5 Q 955.4 457.8, 872.9 383.5 Q 849.8 274.9, 955.4 240.6 Q 1060.9 274.9, 1037.9 383.5 Z" fill="#C7F9CC" stroke="#22577A" stroke-width="8"></path><path d="M 1016.9 400 Q 955.4 441.3, 893.9 400 Q 955.4 358.8, 1016.9 400 Z" fill="#80ED99" stroke="#22577A" stroke-width="8"></path><path d="M 869.1 357.1 Q 864.1 283.2, 930.6 250.5 Q 935.6 324.4, 869.1 357.1 Z" fill="#80ED99" stroke="#22577A" stroke-width="8"></path><path d="M 980.2 250.5 Q 1046.7 283.2, 1041.7 357.1 Q 975.2 324.4, 980.2 250.5 Z" fill="#80ED99" stroke="#22577A" stroke-width="8"></path><path d="M 926.8 191.1 Q 844.3 265.4, 761.8 191.1 Q 738.8 82.5, 844.3 48.2 Q 949.9 82.5, 926.8 191.1 Z" fill="#C7F9CC" stroke="#22577A" stroke-width="8"></path><path d="M 905.8 207.6 Q 844.3 248.9, 782.8 207.6 Q 844.3 166.4, 905.8 207.6 Z" fill="#80ED99" stroke="#22577A" stroke-width="8"></path><path d="M 758 164.7 Q 753.1 90.8, 819.5 58.2 Q 824.5 132, 758 164.7 Z" fill="#80ED99" stroke="#22577A" stroke-width="8"></path><path d="M 869.1 58.2 Q 935.6 90.8, 930.6 164.7 Q 864.1 132, 869.1 58.2 Z" fill="#80ED99" stroke="#22577A" stroke-width="8"></path><path d="M 815.7 -1.3 Q 733.2 73, 650.7 -1.3 Q 627.7 -109.9, 733.2 -144.2 Q 838.8 -109.9, 815.7 -1.3 Z" fill="#C7F9CC" stroke="#22577A" stroke-width="8"></path><path d="M 794.7 15.2 Q 733.2 56.5, 671.7 15.2 Q 733.2 -26, 794.7 15.2 Z" fill="#80ED99" stroke="#22577A" stroke-width="8"></path><path d="M 647 -27.7 Q 642 -101.6, 708.4 -134.2 Q 713.4 -60.4, 647 -27.7 Z" fill="#80ED99" stroke="#22577A" stroke-width="8"></path><path d="M 758 -134.2 Q 824.5 -101.6, 819.5 -27.7 Q 753.1 -60.4, 758 -134.2 Z" fill="#80ED99" stroke="#22577A" stroke-width="8"></path><path d="M 593.6 -1.3 Q 511.1 73, 428.6 -1.3 Q 405.5 -109.9, 511.1 -144.2 Q 616.6 -109.9, 593.6 -1.3 Z" fill="#C7F9CC" stroke="#22577A" stroke-width="8"></path><path d="M 572.6 15.2 Q 511.1 56.5, 449.6 15.2 Q 511.1 -26, 572.6 15.2 Z" fill="#80ED99" stroke="#22577A" stroke-width="8"></path><path d="M 424.8 -27.7 Q 419.8 -101.6, 486.3 -134.2 Q 491.3 -60.4, 424.8 -27.7 Z" fill="#80ED99" stroke="#22577A" stroke-width="8"></path><path d="M 535.9 -134.2 Q 602.3 -101.6, 597.4 -27.7 Q 530.9 -60.4, 535.9 -134.2 Z" fill="#80ED99" stroke="#22577A" stroke-width="8"></path><path d="M 371.4 -1.3 Q 288.9 73, 206.4 -1.3 Q 183.4 -109.9, 288.9 -144.2 Q 394.5 -109.9, 371.4 -1.3 Z" fill="#C7F9CC" stroke="#22577A" stroke-width="8"></path><path d="M 350.4 15.2 Q 288.9 56.5, 227.4 15.2 Q 288.9 -26, 350.4 15.2 Z" fill="#80ED99" stroke="#22577A" stroke-width="8"></path><path d="M 202.6 -27.7 Q 197.7 -101.6, 264.1 -134.2 Q 269.1 -60.4, 202.6 -27.7 Z" fill="#80ED99" stroke="#22577A" stroke-width="8"></path><path d="M 313.7 -134.2 Q 380.2 -101.6, 375.2 -27.7 Q 308.7 -60.4, 313.7 -134.2 Z" fill="#80ED99" stroke="#22577A" stroke-width="8"></path><path d="M 260.3 191.1 Q 177.8 265.4, 95.3 191.1 Q 72.3 82.5, 177.8 48.2 Q 283.4 82.5, 260.3 191.1 Z" fill="#C7F9CC" stroke="#22577A" stroke-width="8"></path><path d="M 239.3 207.6 Q 177.8 248.9, 116.4 207.6 Q 177.8 166.4, 239.3 207.6 Z" fill="#80ED99" stroke="#22577A" stroke-width="8"></path><path d="M 91.6 164.7 Q 86.6 90.8, 153 58.2 Q 158 132, 91.6 164.7 Z" fill="#80ED99" stroke="#22577A" stroke-width="8"></path><path d="M 202.6 58.2 Q 269.1 90.8, 264.1 164.7 Q 197.7 132, 202.6 58.2 Z" fill="#80ED99" stroke="#22577A" stroke-width="8"></path><path d="M 149.3 383.5 Q 66.8 457.8, -15.7 383.5 Q -38.8 274.9, 66.8 240.6 Q 172.3 274.9, 149.3 383.5 Z" fill="#C7F9CC" stroke="#22577A" stroke-width="8"></path><path d="M 128.3 400 Q 66.8 441.3, 5.3 400 Q 66.8 358.8, 128.3 400 Z" fill="#80ED99" stroke="#22577A" stroke-width="8"></path><path d="M -19.5 357.1 Q -24.5 283.2, 42 250.5 Q 46.9 324.4, -19.5 357.1 Z" fill="#80ED99" stroke="#22577A" stroke-width="8"></path><path d="M 91.6 250.5 Q 158 283.2, 153 357.1 Q 86.6 324.4, 91.6 250.5 Z" fill="#80ED99" stroke="#22577A" stroke-width="8"></path><path d="M 260.3 575.9 Q 177.8 650.1, 95.3 575.9 Q 72.3 467.3, 177.8 433 Q 283.4 467.3, 260.3 575.9 Z" fill="#C7F9CC" stroke="#22577A" stroke-width="8"></path><path d="M 239.3 592.4 Q 177.8 633.6, 116.4 592.4 Q 177.8 551.1, 239.3 592.4 Z" fill="#80ED99" stroke="#22577A" stroke-width="8"></path><path d="M 91.6 549.5 Q 86.6 475.6, 153 442.9 Q 158 516.8, 91.6 549.5 Z" fill="#80ED99" stroke="#22577A" stroke-width="8"></path><path d="M 202.6 442.9 Q 269.1 475.6, 264.1 549.5 Q 197.7 516.8, 202.6 442.9 Z" fill="#80ED99" stroke="#22577A" stroke-width="8"></path><ellipse cx="400" cy="400" rx="600" ry="600" fill="none" stroke="white" stroke-width="560"></ellipse><ellipse cx="400" cy="400" rx="320" ry="320" fill="none" stroke="#22577A" stroke-width="8"></ellipse></svg>