<svg viewBox="0 0 800 800" preserveAspectRatio="xMidYMin slice" xmlns="http://www.w3.org/2000/svg" xlink="http://www.w3.org/1999/xlink"><defs><g id="triangle-1-26"><path d="M 0 -33 Q -105.6 -67.3, -82.5 -175.9 Q 0 -250.1, 82.5 -175.9 Q 105.6 -67.3, 0 -33 Z" fill="#C7F9CC" stroke="#22577A" stroke-width="8"></path></g><g id="triangle-2-26"><path d="M 193.6 -16.5 Q 111.1 57.8, 28.6 -16.5 Q 5.5 -125.1, 111.1 -159.4 Q 216.6 -125.1, 193.6 -16.5 Z" fill="#C7F9CC" stroke="#22577A" stroke-width="8"></path><path d="M 172.6 0 Q 111.1 41.3, 49.6 0 Q 111.1 -41.2, 172.6 0 Z" fill="#80ED99" stroke="#22577A" stroke-width="8"></path><path d="M 24.8 -42.9 Q 19.8 -116.8, 86.3 -149.5 Q 91.3 -75.6, 24.8 -42.9 Z" fill="#80ED99" stroke="#22577A" stroke-width="8"></path><path d="M 135.9 -149.5 Q 202.3 -116.8, 197.4 -42.9 Q 130.9 -75.6, 135.9 -149.5 Z" fill="#80ED99" stroke="#22577A" stroke-width="8"></path></g></defs><rect x="0" y="0" width="800" height="800" fill="#38A3A5"></rect><use href="#triangle-1-26" transform="translate(400, 400)"></use><use href="#triangle-1-26" transform="translate(288.9, 592.4)"></use><use href="#triangle-1-26" transform="translate(511.1, 592.4)"></use><use href="#triangle-1-26" transform="translate(622.2, 400)"></use><use href="#triangle-1-26" transform="translate(511.1, 207.6)"></use><use href="#triangle-1-26" transform="translate(288.9, 207.6)"></use><use href="#triangle-1-26" transform="translate(177.8, 400)"></use><use href="#triangle-1-26" transform="translate(177.8, 784.8)"></use><use href="#triangle-1-26" transform="translate(400, 784.8)"></use><use href="#triangle-1-26" transform="translate(622.2, 784.8)"></use><use href="#triangle-1-26" transform="translate(733.2, 592.4)"></use><use href="#triangle-1-26" transform="translate(844.3, 400)"></use><use href="#triangle-1-26" transform="translate(733.2, 207.6)"></use><use href="#triangle-1-26" transform="translate(622.2, 15.2)"></use><use href="#triangle-1-26" transform="translate(400, 15.2)"></use><use href="#triangle-1-26" transform="translate(177.8, 15.2)"></use><use href="#triangle-1-26" transform="translate(66.8, 207.6)"></use><use href="#triangle-1-26" transform="translate(-44.3, 400)"></use><use href="#triangle-1-26" transform="translate(66.8, 592.4)"></use><use href="#triangle-2-26" transform="translate(400, 400)"></use><use href="#triangle-2-26" transform="translate(288.9, 592.4)"></use><use href="#triangle-2-26" transform="translate(511.1, 592.4)"></use><use href="#triangle-2-26" transform="translate(622.2, 400)"></use><use href="#triangle-2-26" transform="translate(511.1, 207.6)"></use><use href="#triangle-2-26" transform="translate(288.9, 207.6)"></use><use href="#triangle-2-26" transform="translate(177.8, 400)"></use><use href="#triangle-2-26" transform="translate(177.8, 784.8)"></use><use href="#triangle-2-26" transform="translate(400, 784.8)"></use><use href="#triangle-2-26" transform="translate(622.2, 784.8)"></use><use href="#triangle-2-26" transform="translate(733.2, 592.4)"></use><use href="#triangle-2-26" transform="translate(844.3, 400)"></use><use href="#triangle-2-26" transform="translate(733.2, 207.6)"></use><use href="#triangle-2-26" transform="translate(622.2, 15.2)"></use><use href="#triangle-2-26" transform="translate(400, 15.2)"></use><use href="#triangle-2-26" transform="translate(177.8, 15.2)"></use><use href="#triangle-2-26" transform="translate(66.8, 207.6)"></use><use href="#triangle-2-26" transform="translate(-44.3, 400)"></use><use href="#triangle-2-26" transform="translate(66.8, 592.4)"></use><ellipse cx="400" cy="400" rx="600" ry="600" fill="none" stroke="white" stroke-width="560"></ellipse><ellipse cx="400" cy="400" rx="320" ry="320" fill="none" stroke="#22577A" stroke-width="8"></ellipse></svg>