<svg viewBox="0 0 800 800" preserveAspectRatio="xMidYMin slice" xmlns="http://www.w3.org/2000/svg"><rect x="0" y="0" width="800" height="800" fill="#7c9885"></rect><path d="M -184.4 -99.2 L -184.4 -123.2 L -156.4 -123.2 L -123.2 -156.4 L -123.2 -184.4 L -99.2 -184.4 L -99.2 -156.4 L -66 -123.2 L -38 -123.2 L -38 -99.2 L -66 -99.2 L -99.2 -66 L -99.2 -38 L -123.2 -38 L -123.2 -66 L -156.4 -99.2 Z" fill="#28666e" stroke="none" stroke-width="1"></path><path d="M -144 -111.2 L -134.7 -120.5 L -101.9 -87.7 L -111.2 -78.4 L -120.5 -87.7 L -87.7 -120.5 L -78.4 -111.2 L -87.7 -101.9 L -120.5 -134.7 L -111.2 -144 L -101.9 -134.7 L -134.7 -101.9 Z" fill="#FEDC97" stroke="none" stroke-width="1"></path><path d="M -99.2 -184.4 L -99.2 -208.4 L -71.2 -208.4 L -38 -241.6 L -38 -269.6 L -14 -269.6 L -14 -241.6 L 19.2 -208.4 L 47.2 -208.4 L 47.2 -184.4 L 19.2 -184.4 L -14 -151.2 L -14 -123.2 L -38 -123.2 L -38 -151.2 L -71.2 -184.4 Z" fill="#28666e" stroke="none" stroke-width="1"></path><path d="M -58.8 -196.4 L -49.5 -205.7 L -16.7 -172.9 L -26 -163.6 L -35.3 -172.9 L -2.5 -205.7 L 6.8 -196.4 L -2.5 -187.1 L -35.3 -219.9 L -26 -229.2 L -16.7 -219.9 L -49.5 -187.1 Z" fill="#FEDC97" stroke="none" stroke-width="1"></path><path d="M -14 -269.6 L 14 -269.6 L 47.2 -236.4 L 47.2 -208.4 L 19.2 -208.4 L -14 -241.6 Z" fill="#033f63" stroke="none" stroke-width="1"></path><path d="M 47.2 -184.4 L 47.2 -156.4 L 14 -123.2 L -14 -123.2 L -14 -151.2 L 19.2 -184.4 Z" fill="#033f63" stroke="none" stroke-width="1"></path><path d="M -38 -123.2 L -66 -123.2 L -99.2 -156.4 L -99.2 -184.4 L -71.2 -184.4 L -38 -151.2 Z" fill="#033f63" stroke="none" stroke-width="1"></path><path d="M -99.2 -208.4 L -99.2 -236.4 L -66 -269.6 L -38 -269.6 L -38 -241.6 L -71.2 -208.4 Z" fill="#033f63" stroke="none" stroke-width="1"></path><path d="M -184.4 71.2 L -184.4 47.2 L -156.4 47.2 L -123.2 14 L -123.2 -14 L -99.2 -14 L -99.2 14 L -66 47.2 L -38 47.2 L -38 71.2 L -66 71.2 L -99.2 104.4 L -99.2 132.4 L -123.2 132.4 L -123.2 104.4 L -156.4 71.2 Z" fill="#28666e" stroke="none" stroke-width="1"></path><path d="M -144 59.2 L -134.7 49.9 L -101.9 82.7 L -111.2 92 L -120.5 82.7 L -87.7 49.9 L -78.4 59.2 L -87.7 68.5 L -120.5 35.7 L -111.2 26.4 L -101.9 35.7 L -134.7 68.5 Z" fill="#FEDC97" stroke="none" stroke-width="1"></path><path d="M -99.2 -14 L -99.2 -38 L -71.2 -38 L -38 -71.2 L -38 -99.2 L -14 -99.2 L -14 -71.2 L 19.2 -38 L 47.2 -38 L 47.2 -14 L 19.2 -14 L -14 19.2 L -14 47.2 L -38 47.2 L -38 19.2 L -71.2 -14 Z" fill="#28666e" stroke="none" stroke-width="1"></path><path d="M -58.8 -26 L -49.5 -35.3 L -16.7 -2.5 L -26 6.8 L -35.3 -2.5 L -2.5 -35.3 L 6.8 -26 L -2.5 -16.7 L -35.3 -49.5 L -26 -58.8 L -16.7 -49.5 L -49.5 -16.7 Z" fill="#FEDC97" stroke="none" stroke-width="1"></path><path d="M -14 -99.2 L 14 -99.2 L 47.2 -66 L 47.2 -38 L 19.2 -38 L -14 -71.2 Z" fill="#033f63" stroke="none" stroke-width="1"></path><path d="M 47.2 -14 L 47.2 14 L 14 47.2 L -14 47.2 L -14 19.2 L 19.2 -14 Z" fill="#033f63" stroke="none" stroke-width="1"></path><path d="M -38 47.2 L -66 47.2 L -99.2 14 L -99.2 -14 L -71.2 -14 L -38 19.2 Z" fill="#033f63" stroke="none" stroke-width="1"></path><path d="M -99.2 -38 L -99.2 -66 L -66 -99.2 L -38 -99.2 L -38 -71.2 L -71.2 -38 Z" fill="#033f63" stroke="none" stroke-width="1"></path><path d="M -184.4 241.6 L -184.4 217.6 L -156.4 217.6 L -123.2 184.4 L -123.2 156.4 L -99.2 156.4 L -99.2 184.4 L -66 217.6 L -38 217.6 L -38 241.6 L -66 241.6 L -99.2 274.8 L -99.2 302.8 L -123.2 302.8 L -123.2 274.8 L -156.4 241.6 Z" fill="#28666e" stroke="none" stroke-width="1"></path><path d="M -144 229.6 L -134.7 220.3 L -101.9 253.1 L -111.2 262.4 L -120.5 253.1 L -87.7 220.3 L -78.4 229.6 L -87.7 238.9 L -120.5 206.1 L -111.2 196.8 L -101.9 206.1 L -134.7 238.9 Z" fill="#FEDC97" stroke="none" stroke-width="1"></path><path d="M -99.2 156.4 L -99.2 132.4 L -71.2 132.4 L -38 99.2 L -38 71.2 L -14 71.2 L -14 99.2 L 19.2 132.4 L 47.2 132.4 L 47.2 156.4 L 19.2 156.4 L -14 189.6 L -14 217.6 L -38 217.6 L -38 189.6 L -71.2 156.4 Z" fill="#28666e" stroke="none" stroke-width="1"></path><path d="M -58.8 144.4 L -49.5 135.1 L -16.7 167.9 L -26 177.2 L -35.3 167.9 L -2.5 135.1 L 6.8 144.4 L -2.5 153.7 L -35.3 120.9 L -26 111.6 L -16.7 120.9 L -49.5 153.7 Z" fill="#FEDC97" stroke="none" stroke-width="1"></path><path d="M -14 71.2 L 14 71.2 L 47.2 104.4 L 47.2 132.4 L 19.2 132.4 L -14 99.2 Z" fill="#033f63" stroke="none" stroke-width="1"></path><path d="M 47.2 156.4 L 47.2 184.4 L 14 217.6 L -14 217.6 L -14 189.6 L 19.2 156.4 Z" fill="#033f63" stroke="none" stroke-width="1"></path><path d="M -38 217.6 L -66 217.6 L -99.2 184.4 L -99.2 156.4 L -71.2 156.4 L -38 189.6 Z" fill="#033f63" stroke="none" stroke-width="1"></path><path d="M -99.2 132.4 L -99.2 104.4 L -66 71.2 L -38 71.2 L -38 99.2 L -71.2 132.4 Z" fill="#033f63" stroke="none" stroke-width="1"></path><path d="M -184.4 412 L -184.4 388 L -156.4 388 L -123.2 354.8 L -123.2 326.8 L -99.2 326.8 L -99.2 354.8 L -66 388 L -38 388 L -38 412 L -66 412 L -99.2 445.2 L -99.2 473.2 L -123.2 473.2 L -123.2 445.2 L -156.4 412 Z" fill="#28666e" stroke="none" stroke-width="1"></path><path d="M -144 400 L -134.7 390.7 L -101.9 423.5 L -111.2 432.8 L -120.5 423.5 L -87.7 390.7 L -78.4 400 L -87.7 409.3 L -120.5 376.5 L -111.2 367.2 L -101.9 376.5 L -134.7 409.3 Z" fill="#FEDC97" stroke="none" stroke-width="1"></path><path d="M -99.2 326.8 L -99.2 302.8 L -71.2 302.8 L -38 269.6 L -38 241.6 L -14 241.6 L -14 269.6 L 19.2 302.8 L 47.2 302.8 L 47.2 326.8 L 19.2 326.8 L -14 360 L -14 388 L -38 388 L -38 360 L -71.2 326.8 Z" fill="#28666e" stroke="none" stroke-width="1"></path><path d="M -58.8 314.8 L -49.5 305.5 L -16.7 338.3 L -26 347.6 L -35.3 338.3 L -2.5 305.5 L 6.8 314.8 L -2.5 324.1 L -35.3 291.3 L -26 282 L -16.7 291.3 L -49.5 324.1 Z" fill="#FEDC97" stroke="none" stroke-width="1"></path><path d="M -14 241.6 L 14 241.6 L 47.2 274.8 L 47.2 302.8 L 19.2 302.8 L -14 269.6 Z" fill="#033f63" stroke="none" stroke-width="1"></path><path d="M 47.2 326.8 L 47.2 354.8 L 14 388 L -14 388 L -14 360 L 19.2 326.8 Z" fill="#033f63" stroke="none" stroke-width="1"></path><path d="M -38 388 L -66 388 L -99.2 354.8 L -99.2 326.8 L -71.2 326.8 L -38 360 Z" fill="#033f63" stroke="none" stroke-width="1"></path><path d="M -99.2 302.8 L -99.2 274.8 L -66 241.6 L -38 241.6 L -38 269.6 L -71.2 302.8 Z" fill="#033f63" stroke="none" stroke-width="1"></path><path d="M -184.4 582.4 L -184.4 558.4 L -156.4 558.4 L -123.2 525.2 L -123.2 497.2 L -99.2 497.2 L -99.2 525.2 L -66 558.4 L -38 558.4 L -38 582.4 L -66 582.4 L -99.2 615.6 L -99.2 643.6 L -123.2 643.6 L -123.2 615.6 L -156.4 582.4 Z" fill="#28666e" stroke="none" stroke-width="1"></path><path d="M -144 570.4 L -134.7 561.1 L -101.9 593.9 L -111.2 603.2 L -120.5 593.9 L -87.7 561.1 L -78.4 570.4 L -87.7 579.7 L -120.5 546.9 L -111.2 537.6 L -101.9 546.9 L -134.7 579.7 Z" fill="#FEDC97" stroke="none" stroke-width="1"></path><path d="M -99.2 497.2 L -99.2 473.2 L -71.2 473.2 L -38 440 L -38 412 L -14 412 L -14 440 L 19.2 473.2 L 47.2 473.2 L 47.2 497.2 L 19.2 497.2 L -14 530.4 L -14 558.4 L -38 558.4 L -38 530.4 L -71.2 497.2 Z" fill="#28666e" stroke="none" stroke-width="1"></path><path d="M -58.8 485.2 L -49.5 475.9 L -16.7 508.7 L -26 518 L -35.3 508.7 L -2.5 475.9 L 6.8 485.2 L -2.5 494.5 L -35.3 461.7 L -26 452.4 L -16.7 461.7 L -49.5 494.5 Z" fill="#FEDC97" stroke="none" stroke-width="1"></path><path d="M -14 412 L 14 412 L 47.2 445.2 L 47.2 473.2 L 19.2 473.2 L -14 440 Z" fill="#033f63" stroke="none" stroke-width="1"></path><path d="M 47.2 497.2 L 47.2 525.2 L 14 558.4 L -14 558.4 L -14 530.4 L 19.2 497.2 Z" fill="#033f63" stroke="none" stroke-width="1"></path><path d="M -38 558.4 L -66 558.4 L -99.2 525.2 L -99.2 497.2 L -71.2 497.2 L -38 530.4 Z" fill="#033f63" stroke="none" stroke-width="1"></path><path d="M -99.2 473.2 L -99.2 445.2 L -66 412 L -38 412 L -38 440 L -71.2 473.2 Z" fill="#033f63" stroke="none" stroke-width="1"></path><path d="M -184.4 752.8 L -184.4 728.8 L -156.4 728.8 L -123.2 695.6 L -123.2 667.6 L -99.2 667.6 L -99.2 695.6 L -66 728.8 L -38 728.8 L -38 752.8 L -66 752.8 L -99.2 786 L -99.2 814 L -123.2 814 L -123.2 786 L -156.4 752.8 Z" fill="#28666e" stroke="none" stroke-width="1"></path><path d="M -144 740.8 L -134.7 731.5 L -101.9 764.3 L -111.2 773.6 L -120.5 764.3 L -87.7 731.5 L -78.4 740.8 L -87.7 750.1 L -120.5 717.3 L -111.2 708 L -101.9 717.3 L -134.7 750.1 Z" fill="#FEDC97" stroke="none" stroke-width="1"></path><path d="M -99.2 667.6 L -99.2 643.6 L -71.2 643.6 L -38 610.4 L -38 582.4 L -14 582.4 L -14 610.4 L 19.2 643.6 L 47.2 643.6 L 47.2 667.6 L 19.2 667.6 L -14 700.8 L -14 728.8 L -38 728.8 L -38 700.8 L -71.2 667.6 Z" fill="#28666e" stroke="none" stroke-width="1"></path><path d="M -58.8 655.6 L -49.5 646.3 L -16.7 679.1 L -26 688.4 L -35.3 679.1 L -2.5 646.3 L 6.8 655.6 L -2.5 664.9 L -35.3 632.1 L -26 622.8 L -16.7 632.1 L -49.5 664.9 Z" fill="#FEDC97" stroke="none" stroke-width="1"></path><path d="M -14 582.4 L 14 582.4 L 47.2 615.6 L 47.2 643.6 L 19.2 643.6 L -14 610.4 Z" fill="#033f63" stroke="none" stroke-width="1"></path><path d="M 47.2 667.6 L 47.2 695.6 L 14 728.8 L -14 728.8 L -14 700.8 L 19.2 667.6 Z" fill="#033f63" stroke="none" stroke-width="1"></path><path d="M -38 728.8 L -66 728.8 L -99.2 695.6 L -99.2 667.6 L -71.2 667.6 L -38 700.8 Z" fill="#033f63" stroke="none" stroke-width="1"></path><path d="M -99.2 643.6 L -99.2 615.6 L -66 582.4 L -38 582.4 L -38 610.4 L -71.2 643.6 Z" fill="#033f63" stroke="none" stroke-width="1"></path><path d="M -184.4 923.2 L -184.4 899.2 L -156.4 899.2 L -123.2 866 L -123.2 838 L -99.2 838 L -99.2 866 L -66 899.2 L -38 899.2 L -38 923.2 L -66 923.2 L -99.2 956.4 L -99.2 984.4 L -123.2 984.4 L -123.2 956.4 L -156.4 923.2 Z" fill="#28666e" stroke="none" stroke-width="1"></path><path d="M -144 911.2 L -134.7 901.9 L -101.9 934.7 L -111.2 944 L -120.5 934.7 L -87.7 901.9 L -78.4 911.2 L -87.7 920.5 L -120.5 887.7 L -111.2 878.4 L -101.9 887.7 L -134.7 920.5 Z" fill="#FEDC97" stroke="none" stroke-width="1"></path><path d="M -99.2 838 L -99.2 814 L -71.2 814 L -38 780.8 L -38 752.8 L -14 752.8 L -14 780.8 L 19.2 814 L 47.2 814 L 47.2 838 L 19.2 838 L -14 871.2 L -14 899.2 L -38 899.2 L -38 871.2 L -71.2 838 Z" fill="#28666e" stroke="none" stroke-width="1"></path><path d="M -58.8 826 L -49.5 816.7 L -16.7 849.5 L -26 858.8 L -35.3 849.5 L -2.5 816.7 L 6.8 826 L -2.5 835.3 L -35.3 802.5 L -26 793.2 L -16.7 802.5 L -49.5 835.3 Z" fill="#FEDC97" stroke="none" stroke-width="1"></path><path d="M -14 752.8 L 14 752.8 L 47.2 786 L 47.2 814 L 19.2 814 L -14 780.8 Z" fill="#033f63" stroke="none" stroke-width="1"></path><path d="M 47.2 838 L 47.2 866 L 14 899.2 L -14 899.2 L -14 871.2 L 19.2 838 Z" fill="#033f63" stroke="none" stroke-width="1"></path><path d="M -38 899.2 L -66 899.2 L -99.2 866 L -99.2 838 L -71.2 838 L -38 871.2 Z" fill="#033f63" stroke="none" stroke-width="1"></path><path d="M -99.2 814 L -99.2 786 L -66 752.8 L -38 752.8 L -38 780.8 L -71.2 814 Z" fill="#033f63" stroke="none" stroke-width="1"></path><path d="M -14 -99.2 L -14 -123.2 L 14 -123.2 L 47.2 -156.4 L 47.2 -184.4 L 71.2 -184.4 L 71.2 -156.4 L 104.4 -123.2 L 132.4 -123.2 L 132.4 -99.2 L 104.4 -99.2 L 71.2 -66 L 71.2 -38 L 47.2 -38 L 47.2 -66 L 14 -99.2 Z" fill="#28666e" stroke="none" stroke-width="1"></path><path d="M 26.4 -111.2 L 35.7 -120.5 L 68.5 -87.7 L 59.2 -78.4 L 49.9 -87.7 L 82.7 -120.5 L 92 -111.2 L 82.7 -101.9 L 49.9 -134.7 L 59.2 -144 L 68.5 -134.7 L 35.7 -101.9 Z" fill="#FEDC97" stroke="none" stroke-width="1"></path><path d="M 71.2 -184.4 L 71.2 -208.4 L 99.2 -208.4 L 132.4 -241.6 L 132.4 -269.6 L 156.4 -269.6 L 156.4 -241.6 L 189.6 -208.4 L 217.6 -208.4 L 217.6 -184.4 L 189.6 -184.4 L 156.4 -151.2 L 156.4 -123.2 L 132.4 -123.2 L 132.4 -151.2 L 99.2 -184.4 Z" fill="#28666e" stroke="none" stroke-width="1"></path><path d="M 111.6 -196.4 L 120.9 -205.7 L 153.7 -172.9 L 144.4 -163.6 L 135.1 -172.9 L 167.9 -205.7 L 177.2 -196.4 L 167.9 -187.1 L 135.1 -219.9 L 144.4 -229.2 L 153.7 -219.9 L 120.9 -187.1 Z" fill="#FEDC97" stroke="none" stroke-width="1"></path><path d="M 156.4 -269.6 L 184.4 -269.6 L 217.6 -236.4 L 217.6 -208.4 L 189.6 -208.4 L 156.4 -241.6 Z" fill="#033f63" stroke="none" stroke-width="1"></path><path d="M 217.6 -184.4 L 217.6 -156.4 L 184.4 -123.2 L 156.4 -123.2 L 156.4 -151.2 L 189.6 -184.4 Z" fill="#033f63" stroke="none" stroke-width="1"></path><path d="M 132.4 -123.2 L 104.4 -123.2 L 71.2 -156.4 L 71.2 -184.4 L 99.2 -184.4 L 132.4 -151.2 Z" fill="#033f63" stroke="none" stroke-width="1"></path><path d="M 71.2 -208.4 L 71.2 -236.4 L 104.4 -269.6 L 132.4 -269.6 L 132.4 -241.6 L 99.2 -208.4 Z" fill="#033f63" stroke="none" stroke-width="1"></path><path d="M -14 71.2 L -14 47.2 L 14 47.2 L 47.2 14 L 47.2 -14 L 71.2 -14 L 71.2 14 L 104.4 47.2 L 132.4 47.2 L 132.4 71.2 L 104.4 71.2 L 71.2 104.4 L 71.2 132.4 L 47.2 132.4 L 47.2 104.4 L 14 71.2 Z" fill="#28666e" stroke="none" stroke-width="1"></path><path d="M 26.4 59.2 L 35.7 49.9 L 68.5 82.7 L 59.2 92 L 49.9 82.7 L 82.7 49.9 L 92 59.2 L 82.7 68.5 L 49.9 35.7 L 59.2 26.4 L 68.5 35.7 L 35.7 68.5 Z" fill="#FEDC97" stroke="none" stroke-width="1"></path><path d="M 71.2 -14 L 71.2 -38 L 99.2 -38 L 132.4 -71.2 L 132.4 -99.2 L 156.4 -99.2 L 156.4 -71.2 L 189.6 -38 L 217.6 -38 L 217.6 -14 L 189.6 -14 L 156.4 19.2 L 156.4 47.2 L 132.4 47.2 L 132.4 19.2 L 99.2 -14 Z" fill="#28666e" stroke="none" stroke-width="1"></path><path d="M 111.6 -26 L 120.9 -35.3 L 153.7 -2.5 L 144.4 6.8 L 135.1 -2.5 L 167.9 -35.3 L 177.2 -26 L 167.9 -16.7 L 135.1 -49.5 L 144.4 -58.8 L 153.7 -49.5 L 120.9 -16.7 Z" fill="#FEDC97" stroke="none" stroke-width="1"></path><path d="M 156.4 -99.2 L 184.4 -99.2 L 217.6 -66 L 217.6 -38 L 189.6 -38 L 156.4 -71.2 Z" fill="#033f63" stroke="none" stroke-width="1"></path><path d="M 217.6 -14 L 217.6 14 L 184.4 47.2 L 156.4 47.2 L 156.4 19.2 L 189.6 -14 Z" fill="#033f63" stroke="none" stroke-width="1"></path><path d="M 132.4 47.2 L 104.4 47.2 L 71.2 14 L 71.2 -14 L 99.2 -14 L 132.4 19.2 Z" fill="#033f63" stroke="none" stroke-width="1"></path><path d="M 71.2 -38 L 71.2 -66 L 104.4 -99.2 L 132.4 -99.2 L 132.4 -71.2 L 99.2 -38 Z" fill="#033f63" stroke="none" stroke-width="1"></path><path d="M -14 241.6 L -14 217.6 L 14 217.6 L 47.2 184.4 L 47.2 156.4 L 71.2 156.4 L 71.2 184.4 L 104.4 217.6 L 132.4 217.6 L 132.4 241.6 L 104.4 241.6 L 71.2 274.8 L 71.2 302.8 L 47.2 302.8 L 47.2 274.8 L 14 241.6 Z" fill="#28666e" stroke="none" stroke-width="1"></path><path d="M 26.4 229.6 L 35.7 220.3 L 68.5 253.1 L 59.2 262.4 L 49.9 253.1 L 82.7 220.3 L 92 229.6 L 82.7 238.9 L 49.9 206.1 L 59.2 196.8 L 68.5 206.1 L 35.7 238.9 Z" fill="#FEDC97" stroke="none" stroke-width="1"></path><path d="M 71.2 156.4 L 71.2 132.4 L 99.2 132.4 L 132.4 99.2 L 132.4 71.2 L 156.4 71.2 L 156.4 99.2 L 189.6 132.4 L 217.6 132.4 L 217.6 156.4 L 189.6 156.4 L 156.4 189.6 L 156.4 217.6 L 132.4 217.6 L 132.4 189.6 L 99.2 156.4 Z" fill="#28666e" stroke="none" stroke-width="1"></path><path d="M 111.6 144.4 L 120.9 135.1 L 153.7 167.9 L 144.4 177.2 L 135.1 167.9 L 167.9 135.1 L 177.2 144.4 L 167.9 153.7 L 135.1 120.9 L 144.4 111.6 L 153.7 120.9 L 120.9 153.7 Z" fill="#FEDC97" stroke="none" stroke-width="1"></path><path d="M 156.4 71.2 L 184.4 71.2 L 217.6 104.4 L 217.6 132.4 L 189.6 132.4 L 156.4 99.2 Z" fill="#033f63" stroke="none" stroke-width="1"></path><path d="M 217.6 156.4 L 217.6 184.4 L 184.4 217.6 L 156.4 217.6 L 156.4 189.6 L 189.6 156.4 Z" fill="#033f63" stroke="none" stroke-width="1"></path><path d="M 132.4 217.6 L 104.4 217.6 L 71.2 184.4 L 71.2 156.4 L 99.2 156.4 L 132.4 189.6 Z" fill="#033f63" stroke="none" stroke-width="1"></path><path d="M 71.2 132.4 L 71.2 104.4 L 104.4 71.2 L 132.4 71.2 L 132.4 99.2 L 99.2 132.4 Z" fill="#033f63" stroke="none" stroke-width="1"></path><path d="M -14 412 L -14 388 L 14 388 L 47.2 354.8 L 47.2 326.8 L 71.2 326.8 L 71.2 354.8 L 104.4 388 L 132.4 388 L 132.4 412 L 104.4 412 L 71.2 445.2 L 71.2 473.2 L 47.2 473.2 L 47.2 445.2 L 14 412 Z" fill="#28666e" stroke="none" stroke-width="1"></path><path d="M 26.4 400 L 35.7 390.7 L 68.5 423.5 L 59.2 432.8 L 49.9 423.5 L 82.7 390.7 L 92 400 L 82.7 409.3 L 49.9 376.5 L 59.2 367.2 L 68.5 376.5 L 35.7 409.3 Z" fill="#FEDC97" stroke="none" stroke-width="1"></path><path d="M 71.2 326.8 L 71.2 302.8 L 99.2 302.8 L 132.4 269.6 L 132.4 241.6 L 156.4 241.6 L 156.4 269.6 L 189.6 302.8 L 217.6 302.8 L 217.6 326.8 L 189.6 326.8 L 156.4 360 L 156.4 388 L 132.4 388 L 132.4 360 L 99.2 326.8 Z" fill="#28666e" stroke="none" stroke-width="1"></path><path d="M 111.6 314.8 L 120.9 305.5 L 153.7 338.3 L 144.4 347.6 L 135.1 338.3 L 167.9 305.5 L 177.2 314.8 L 167.9 324.1 L 135.1 291.3 L 144.4 282 L 153.7 291.3 L 120.9 324.1 Z" fill="#FEDC97" stroke="none" stroke-width="1"></path><path d="M 156.4 241.6 L 184.4 241.6 L 217.6 274.8 L 217.6 302.8 L 189.6 302.8 L 156.4 269.6 Z" fill="#033f63" stroke="none" stroke-width="1"></path><path d="M 217.6 326.8 L 217.6 354.8 L 184.4 388 L 156.4 388 L 156.4 360 L 189.6 326.8 Z" fill="#033f63" stroke="none" stroke-width="1"></path><path d="M 132.4 388 L 104.4 388 L 71.2 354.8 L 71.2 326.8 L 99.2 326.8 L 132.4 360 Z" fill="#033f63" stroke="none" stroke-width="1"></path><path d="M 71.2 302.8 L 71.2 274.8 L 104.4 241.6 L 132.4 241.6 L 132.4 269.6 L 99.2 302.8 Z" fill="#033f63" stroke="none" stroke-width="1"></path><path d="M -14 582.4 L -14 558.4 L 14 558.4 L 47.2 525.2 L 47.2 497.2 L 71.2 497.2 L 71.2 525.2 L 104.4 558.4 L 132.4 558.4 L 132.4 582.4 L 104.4 582.4 L 71.2 615.6 L 71.2 643.6 L 47.2 643.6 L 47.2 615.6 L 14 582.4 Z" fill="#28666e" stroke="none" stroke-width="1"></path><path d="M 26.4 570.4 L 35.7 561.1 L 68.5 593.9 L 59.2 603.2 L 49.9 593.9 L 82.7 561.1 L 92 570.4 L 82.7 579.7 L 49.9 546.9 L 59.2 537.6 L 68.5 546.9 L 35.7 579.7 Z" fill="#FEDC97" stroke="none" stroke-width="1"></path><path d="M 71.2 497.2 L 71.2 473.2 L 99.2 473.2 L 132.4 440 L 132.4 412 L 156.4 412 L 156.4 440 L 189.6 473.2 L 217.6 473.2 L 217.6 497.2 L 189.6 497.2 L 156.4 530.4 L 156.4 558.4 L 132.4 558.4 L 132.4 530.4 L 99.2 497.2 Z" fill="#28666e" stroke="none" stroke-width="1"></path><path d="M 111.6 485.2 L 120.9 475.9 L 153.7 508.7 L 144.4 518 L 135.1 508.7 L 167.9 475.9 L 177.2 485.2 L 167.9 494.5 L 135.1 461.7 L 144.4 452.4 L 153.7 461.7 L 120.9 494.5 Z" fill="#FEDC97" stroke="none" stroke-width="1"></path><path d="M 156.4 412 L 184.4 412 L 217.6 445.2 L 217.6 473.2 L 189.6 473.2 L 156.4 440 Z" fill="#033f63" stroke="none" stroke-width="1"></path><path d="M 217.6 497.2 L 217.6 525.2 L 184.4 558.4 L 156.4 558.4 L 156.4 530.4 L 189.6 497.2 Z" fill="#033f63" stroke="none" stroke-width="1"></path><path d="M 132.4 558.4 L 104.4 558.4 L 71.2 525.2 L 71.2 497.2 L 99.2 497.2 L 132.4 530.4 Z" fill="#033f63" stroke="none" stroke-width="1"></path><path d="M 71.2 473.2 L 71.2 445.2 L 104.4 412 L 132.4 412 L 132.4 440 L 99.2 473.2 Z" fill="#033f63" stroke="none" stroke-width="1"></path><path d="M -14 752.8 L -14 728.8 L 14 728.8 L 47.2 695.6 L 47.2 667.6 L 71.2 667.6 L 71.2 695.6 L 104.4 728.8 L 132.4 728.8 L 132.4 752.8 L 104.4 752.8 L 71.2 786 L 71.2 814 L 47.2 814 L 47.2 786 L 14 752.8 Z" fill="#28666e" stroke="none" stroke-width="1"></path><path d="M 26.4 740.8 L 35.7 731.5 L 68.5 764.3 L 59.2 773.6 L 49.9 764.3 L 82.7 731.5 L 92 740.8 L 82.7 750.1 L 49.9 717.3 L 59.2 708 L 68.5 717.3 L 35.7 750.1 Z" fill="#FEDC97" stroke="none" stroke-width="1"></path><path d="M 71.2 667.6 L 71.2 643.6 L 99.2 643.6 L 132.4 610.4 L 132.4 582.4 L 156.4 582.4 L 156.4 610.4 L 189.6 643.6 L 217.6 643.6 L 217.6 667.6 L 189.6 667.6 L 156.4 700.8 L 156.4 728.8 L 132.4 728.8 L 132.4 700.8 L 99.2 667.6 Z" fill="#28666e" stroke="none" stroke-width="1"></path><path d="M 111.6 655.6 L 120.9 646.3 L 153.7 679.1 L 144.4 688.4 L 135.1 679.1 L 167.9 646.3 L 177.2 655.6 L 167.9 664.9 L 135.1 632.1 L 144.4 622.8 L 153.7 632.1 L 120.9 664.9 Z" fill="#FEDC97" stroke="none" stroke-width="1"></path><path d="M 156.4 582.4 L 184.4 582.4 L 217.6 615.6 L 217.6 643.6 L 189.6 643.6 L 156.4 610.4 Z" fill="#033f63" stroke="none" stroke-width="1"></path><path d="M 217.6 667.6 L 217.6 695.6 L 184.4 728.8 L 156.4 728.8 L 156.4 700.8 L 189.6 667.6 Z" fill="#033f63" stroke="none" stroke-width="1"></path><path d="M 132.4 728.8 L 104.4 728.8 L 71.2 695.6 L 71.2 667.6 L 99.2 667.6 L 132.4 700.8 Z" fill="#033f63" stroke="none" stroke-width="1"></path><path d="M 71.2 643.6 L 71.2 615.6 L 104.4 582.4 L 132.4 582.4 L 132.4 610.4 L 99.2 643.6 Z" fill="#033f63" stroke="none" stroke-width="1"></path><path d="M -14 923.2 L -14 899.2 L 14 899.2 L 47.2 866 L 47.2 838 L 71.2 838 L 71.2 866 L 104.4 899.2 L 132.4 899.2 L 132.4 923.2 L 104.4 923.2 L 71.2 956.4 L 71.2 984.4 L 47.2 984.4 L 47.2 956.4 L 14 923.2 Z" fill="#28666e" stroke="none" stroke-width="1"></path><path d="M 26.4 911.2 L 35.7 901.9 L 68.5 934.7 L 59.2 944 L 49.9 934.7 L 82.7 901.9 L 92 911.2 L 82.7 920.5 L 49.9 887.7 L 59.2 878.4 L 68.5 887.7 L 35.7 920.5 Z" fill="#FEDC97" stroke="none" stroke-width="1"></path><path d="M 71.2 838 L 71.2 814 L 99.2 814 L 132.4 780.8 L 132.4 752.8 L 156.4 752.8 L 156.4 780.8 L 189.6 814 L 217.6 814 L 217.6 838 L 189.6 838 L 156.4 871.2 L 156.4 899.2 L 132.4 899.2 L 132.4 871.2 L 99.2 838 Z" fill="#28666e" stroke="none" stroke-width="1"></path><path d="M 111.6 826 L 120.9 816.7 L 153.7 849.5 L 144.4 858.8 L 135.1 849.5 L 167.9 816.7 L 177.2 826 L 167.9 835.3 L 135.1 802.5 L 144.4 793.2 L 153.7 802.5 L 120.9 835.3 Z" fill="#FEDC97" stroke="none" stroke-width="1"></path><path d="M 156.4 752.8 L 184.4 752.8 L 217.6 786 L 217.6 814 L 189.6 814 L 156.4 780.8 Z" fill="#033f63" stroke="none" stroke-width="1"></path><path d="M 217.6 838 L 217.6 866 L 184.4 899.2 L 156.4 899.2 L 156.4 871.2 L 189.6 838 Z" fill="#033f63" stroke="none" stroke-width="1"></path><path d="M 132.4 899.2 L 104.4 899.2 L 71.2 866 L 71.2 838 L 99.2 838 L 132.4 871.2 Z" fill="#033f63" stroke="none" stroke-width="1"></path><path d="M 71.2 814 L 71.2 786 L 104.4 752.8 L 132.4 752.8 L 132.4 780.8 L 99.2 814 Z" fill="#033f63" stroke="none" stroke-width="1"></path><path d="M 156.4 -99.2 L 156.4 -123.2 L 184.4 -123.2 L 217.6 -156.4 L 217.6 -184.4 L 241.6 -184.4 L 241.6 -156.4 L 274.8 -123.2 L 302.8 -123.2 L 302.8 -99.2 L 274.8 -99.2 L 241.6 -66 L 241.6 -38 L 217.6 -38 L 217.6 -66 L 184.4 -99.2 Z" fill="#28666e" stroke="none" stroke-width="1"></path><path d="M 196.8 -111.2 L 206.1 -120.5 L 238.9 -87.7 L 229.6 -78.4 L 220.3 -87.7 L 253.1 -120.5 L 262.4 -111.2 L 253.1 -101.9 L 220.3 -134.7 L 229.6 -144 L 238.9 -134.7 L 206.1 -101.9 Z" fill="#FEDC97" stroke="none" stroke-width="1"></path><path d="M 241.6 -184.4 L 241.6 -208.4 L 269.6 -208.4 L 302.8 -241.6 L 302.8 -269.6 L 326.8 -269.6 L 326.8 -241.6 L 360 -208.4 L 388 -208.4 L 388 -184.4 L 360 -184.4 L 326.8 -151.2 L 326.8 -123.2 L 302.8 -123.2 L 302.8 -151.2 L 269.6 -184.4 Z" fill="#28666e" stroke="none" stroke-width="1"></path><path d="M 282 -196.4 L 291.3 -205.7 L 324.1 -172.9 L 314.8 -163.6 L 305.5 -172.9 L 338.3 -205.7 L 347.6 -196.4 L 338.3 -187.1 L 305.5 -219.9 L 314.8 -229.2 L 324.1 -219.9 L 291.3 -187.1 Z" fill="#FEDC97" stroke="none" stroke-width="1"></path><path d="M 326.8 -269.6 L 354.8 -269.6 L 388 -236.4 L 388 -208.4 L 360 -208.4 L 326.8 -241.6 Z" fill="#033f63" stroke="none" stroke-width="1"></path><path d="M 388 -184.4 L 388 -156.4 L 354.8 -123.2 L 326.8 -123.2 L 326.8 -151.2 L 360 -184.4 Z" fill="#033f63" stroke="none" stroke-width="1"></path><path d="M 302.8 -123.2 L 274.8 -123.2 L 241.6 -156.4 L 241.6 -184.4 L 269.6 -184.4 L 302.8 -151.2 Z" fill="#033f63" stroke="none" stroke-width="1"></path><path d="M 241.6 -208.4 L 241.6 -236.4 L 274.8 -269.6 L 302.8 -269.6 L 302.8 -241.6 L 269.6 -208.4 Z" fill="#033f63" stroke="none" stroke-width="1"></path><path d="M 156.4 71.2 L 156.4 47.2 L 184.4 47.2 L 217.6 14 L 217.6 -14 L 241.6 -14 L 241.6 14 L 274.8 47.2 L 302.8 47.2 L 302.8 71.2 L 274.8 71.2 L 241.6 104.4 L 241.6 132.4 L 217.6 132.4 L 217.6 104.4 L 184.4 71.2 Z" fill="#28666e" stroke="none" stroke-width="1"></path><path d="M 196.8 59.2 L 206.1 49.9 L 238.9 82.7 L 229.6 92 L 220.3 82.7 L 253.1 49.9 L 262.4 59.2 L 253.1 68.5 L 220.3 35.7 L 229.6 26.4 L 238.9 35.7 L 206.1 68.5 Z" fill="#FEDC97" stroke="none" stroke-width="1"></path><path d="M 241.6 -14 L 241.6 -38 L 269.6 -38 L 302.8 -71.2 L 302.8 -99.2 L 326.8 -99.2 L 326.8 -71.2 L 360 -38 L 388 -38 L 388 -14 L 360 -14 L 326.8 19.2 L 326.8 47.2 L 302.8 47.2 L 302.8 19.2 L 269.6 -14 Z" fill="#28666e" stroke="none" stroke-width="1"></path><path d="M 282 -26 L 291.3 -35.3 L 324.1 -2.5 L 314.8 6.8 L 305.5 -2.5 L 338.3 -35.3 L 347.6 -26 L 338.3 -16.7 L 305.5 -49.5 L 314.8 -58.8 L 324.1 -49.5 L 291.3 -16.7 Z" fill="#FEDC97" stroke="none" stroke-width="1"></path><path d="M 326.8 -99.2 L 354.8 -99.2 L 388 -66 L 388 -38 L 360 -38 L 326.8 -71.2 Z" fill="#033f63" stroke="none" stroke-width="1"></path><path d="M 388 -14 L 388 14 L 354.8 47.2 L 326.8 47.2 L 326.8 19.2 L 360 -14 Z" fill="#033f63" stroke="none" stroke-width="1"></path><path d="M 302.8 47.2 L 274.8 47.2 L 241.6 14 L 241.6 -14 L 269.6 -14 L 302.8 19.2 Z" fill="#033f63" stroke="none" stroke-width="1"></path><path d="M 241.6 -38 L 241.6 -66 L 274.8 -99.2 L 302.8 -99.2 L 302.8 -71.2 L 269.6 -38 Z" fill="#033f63" stroke="none" stroke-width="1"></path><path d="M 156.4 241.6 L 156.4 217.6 L 184.4 217.6 L 217.6 184.4 L 217.6 156.4 L 241.6 156.4 L 241.6 184.4 L 274.8 217.6 L 302.8 217.6 L 302.8 241.6 L 274.8 241.6 L 241.6 274.8 L 241.6 302.8 L 217.6 302.8 L 217.6 274.8 L 184.4 241.6 Z" fill="#28666e" stroke="none" stroke-width="1"></path><path d="M 196.8 229.6 L 206.1 220.3 L 238.9 253.1 L 229.6 262.4 L 220.3 253.1 L 253.1 220.3 L 262.4 229.6 L 253.1 238.9 L 220.3 206.1 L 229.6 196.8 L 238.9 206.1 L 206.1 238.9 Z" fill="#FEDC97" stroke="none" stroke-width="1"></path><path d="M 241.6 156.4 L 241.6 132.4 L 269.6 132.4 L 302.8 99.2 L 302.8 71.2 L 326.8 71.2 L 326.8 99.2 L 360 132.4 L 388 132.4 L 388 156.4 L 360 156.4 L 326.8 189.6 L 326.8 217.6 L 302.8 217.6 L 302.8 189.6 L 269.6 156.4 Z" fill="#28666e" stroke="none" stroke-width="1"></path><path d="M 282 144.4 L 291.3 135.1 L 324.1 167.9 L 314.8 177.2 L 305.5 167.9 L 338.3 135.1 L 347.6 144.4 L 338.3 153.7 L 305.5 120.9 L 314.8 111.6 L 324.1 120.9 L 291.3 153.7 Z" fill="#FEDC97" stroke="none" stroke-width="1"></path><path d="M 326.8 71.2 L 354.8 71.2 L 388 104.4 L 388 132.4 L 360 132.4 L 326.8 99.2 Z" fill="#033f63" stroke="none" stroke-width="1"></path><path d="M 388 156.4 L 388 184.4 L 354.8 217.6 L 326.8 217.6 L 326.8 189.6 L 360 156.4 Z" fill="#033f63" stroke="none" stroke-width="1"></path><path d="M 302.8 217.6 L 274.8 217.6 L 241.6 184.4 L 241.6 156.4 L 269.6 156.4 L 302.8 189.6 Z" fill="#033f63" stroke="none" stroke-width="1"></path><path d="M 241.6 132.4 L 241.6 104.4 L 274.8 71.2 L 302.8 71.2 L 302.8 99.2 L 269.6 132.4 Z" fill="#033f63" stroke="none" stroke-width="1"></path><path d="M 156.4 412 L 156.4 388 L 184.4 388 L 217.6 354.8 L 217.6 326.8 L 241.6 326.8 L 241.6 354.8 L 274.8 388 L 302.8 388 L 302.8 412 L 274.8 412 L 241.6 445.2 L 241.6 473.2 L 217.6 473.2 L 217.6 445.2 L 184.4 412 Z" fill="#28666e" stroke="none" stroke-width="1"></path><path d="M 196.8 400 L 206.1 390.7 L 238.9 423.5 L 229.6 432.8 L 220.3 423.5 L 253.1 390.7 L 262.4 400 L 253.1 409.3 L 220.3 376.5 L 229.6 367.2 L 238.9 376.5 L 206.1 409.3 Z" fill="#FEDC97" stroke="none" stroke-width="1"></path><path d="M 241.6 326.8 L 241.6 302.8 L 269.6 302.8 L 302.8 269.6 L 302.8 241.6 L 326.8 241.6 L 326.8 269.6 L 360 302.8 L 388 302.8 L 388 326.8 L 360 326.8 L 326.8 360 L 326.8 388 L 302.8 388 L 302.8 360 L 269.6 326.8 Z" fill="#28666e" stroke="none" stroke-width="1"></path><path d="M 282 314.8 L 291.3 305.5 L 324.1 338.3 L 314.8 347.6 L 305.5 338.3 L 338.3 305.5 L 347.6 314.8 L 338.3 324.1 L 305.5 291.3 L 314.8 282 L 324.1 291.3 L 291.3 324.1 Z" fill="#FEDC97" stroke="none" stroke-width="1"></path><path d="M 326.8 241.6 L 354.8 241.6 L 388 274.8 L 388 302.8 L 360 302.8 L 326.8 269.6 Z" fill="#033f63" stroke="none" stroke-width="1"></path><path d="M 388 326.8 L 388 354.8 L 354.8 388 L 326.8 388 L 326.8 360 L 360 326.8 Z" fill="#033f63" stroke="none" stroke-width="1"></path><path d="M 302.8 388 L 274.8 388 L 241.6 354.8 L 241.6 326.8 L 269.6 326.8 L 302.8 360 Z" fill="#033f63" stroke="none" stroke-width="1"></path><path d="M 241.6 302.8 L 241.6 274.8 L 274.8 241.6 L 302.8 241.6 L 302.8 269.6 L 269.6 302.8 Z" fill="#033f63" stroke="none" stroke-width="1"></path><path d="M 156.4 582.4 L 156.4 558.4 L 184.4 558.4 L 217.6 525.2 L 217.6 497.2 L 241.6 497.2 L 241.6 525.2 L 274.8 558.4 L 302.8 558.4 L 302.8 582.4 L 274.8 582.4 L 241.6 615.6 L 241.6 643.6 L 217.6 643.6 L 217.6 615.6 L 184.4 582.4 Z" fill="#28666e" stroke="none" stroke-width="1"></path><path d="M 196.8 570.4 L 206.1 561.1 L 238.9 593.9 L 229.6 603.2 L 220.3 593.9 L 253.1 561.1 L 262.4 570.4 L 253.1 579.7 L 220.3 546.9 L 229.6 537.6 L 238.9 546.9 L 206.1 579.7 Z" fill="#FEDC97" stroke="none" stroke-width="1"></path><path d="M 241.6 497.2 L 241.6 473.2 L 269.6 473.2 L 302.8 440 L 302.8 412 L 326.8 412 L 326.8 440 L 360 473.2 L 388 473.2 L 388 497.2 L 360 497.2 L 326.8 530.4 L 326.8 558.4 L 302.8 558.4 L 302.8 530.4 L 269.6 497.2 Z" fill="#28666e" stroke="none" stroke-width="1"></path><path d="M 282 485.2 L 291.3 475.9 L 324.1 508.7 L 314.8 518 L 305.5 508.7 L 338.3 475.9 L 347.6 485.2 L 338.3 494.5 L 305.5 461.7 L 314.8 452.4 L 324.1 461.7 L 291.3 494.5 Z" fill="#FEDC97" stroke="none" stroke-width="1"></path><path d="M 326.8 412 L 354.8 412 L 388 445.2 L 388 473.2 L 360 473.2 L 326.8 440 Z" fill="#033f63" stroke="none" stroke-width="1"></path><path d="M 388 497.2 L 388 525.2 L 354.8 558.4 L 326.8 558.4 L 326.8 530.4 L 360 497.2 Z" fill="#033f63" stroke="none" stroke-width="1"></path><path d="M 302.8 558.4 L 274.8 558.4 L 241.6 525.2 L 241.6 497.2 L 269.6 497.2 L 302.8 530.4 Z" fill="#033f63" stroke="none" stroke-width="1"></path><path d="M 241.6 473.2 L 241.6 445.2 L 274.8 412 L 302.8 412 L 302.8 440 L 269.6 473.2 Z" fill="#033f63" stroke="none" stroke-width="1"></path><path d="M 156.4 752.8 L 156.4 728.8 L 184.4 728.8 L 217.6 695.6 L 217.6 667.6 L 241.6 667.6 L 241.6 695.6 L 274.8 728.8 L 302.8 728.8 L 302.8 752.8 L 274.8 752.8 L 241.6 786 L 241.6 814 L 217.6 814 L 217.6 786 L 184.4 752.8 Z" fill="#28666e" stroke="none" stroke-width="1"></path><path d="M 196.8 740.8 L 206.1 731.5 L 238.9 764.3 L 229.6 773.6 L 220.3 764.3 L 253.1 731.5 L 262.4 740.8 L 253.1 750.1 L 220.3 717.3 L 229.6 708 L 238.9 717.3 L 206.1 750.1 Z" fill="#FEDC97" stroke="none" stroke-width="1"></path><path d="M 241.6 667.6 L 241.6 643.6 L 269.6 643.6 L 302.8 610.4 L 302.8 582.4 L 326.8 582.4 L 326.8 610.4 L 360 643.6 L 388 643.6 L 388 667.6 L 360 667.6 L 326.8 700.8 L 326.8 728.8 L 302.8 728.8 L 302.8 700.8 L 269.6 667.6 Z" fill="#28666e" stroke="none" stroke-width="1"></path><path d="M 282 655.6 L 291.3 646.3 L 324.1 679.1 L 314.8 688.4 L 305.5 679.1 L 338.3 646.3 L 347.6 655.6 L 338.3 664.9 L 305.5 632.1 L 314.8 622.8 L 324.1 632.1 L 291.3 664.9 Z" fill="#FEDC97" stroke="none" stroke-width="1"></path><path d="M 326.8 582.4 L 354.8 582.4 L 388 615.6 L 388 643.6 L 360 643.6 L 326.8 610.4 Z" fill="#033f63" stroke="none" stroke-width="1"></path><path d="M 388 667.6 L 388 695.6 L 354.8 728.8 L 326.8 728.8 L 326.8 700.8 L 360 667.6 Z" fill="#033f63" stroke="none" stroke-width="1"></path><path d="M 302.8 728.8 L 274.8 728.8 L 241.6 695.6 L 241.6 667.6 L 269.6 667.6 L 302.8 700.8 Z" fill="#033f63" stroke="none" stroke-width="1"></path><path d="M 241.6 643.6 L 241.6 615.6 L 274.8 582.4 L 302.8 582.4 L 302.8 610.4 L 269.6 643.6 Z" fill="#033f63" stroke="none" stroke-width="1"></path><path d="M 156.4 923.2 L 156.4 899.2 L 184.4 899.2 L 217.6 866 L 217.6 838 L 241.6 838 L 241.6 866 L 274.8 899.2 L 302.8 899.2 L 302.8 923.2 L 274.8 923.2 L 241.6 956.4 L 241.6 984.4 L 217.6 984.4 L 217.6 956.4 L 184.4 923.2 Z" fill="#28666e" stroke="none" stroke-width="1"></path><path d="M 196.8 911.2 L 206.1 901.9 L 238.9 934.7 L 229.6 944 L 220.3 934.7 L 253.1 901.9 L 262.4 911.2 L 253.1 920.5 L 220.3 887.7 L 229.6 878.4 L 238.9 887.7 L 206.1 920.5 Z" fill="#FEDC97" stroke="none" stroke-width="1"></path><path d="M 241.6 838 L 241.6 814 L 269.6 814 L 302.8 780.8 L 302.8 752.8 L 326.8 752.8 L 326.8 780.8 L 360 814 L 388 814 L 388 838 L 360 838 L 326.8 871.2 L 326.8 899.2 L 302.8 899.2 L 302.8 871.2 L 269.6 838 Z" fill="#28666e" stroke="none" stroke-width="1"></path><path d="M 282 826 L 291.3 816.7 L 324.1 849.5 L 314.8 858.8 L 305.5 849.5 L 338.3 816.7 L 347.6 826 L 338.3 835.3 L 305.5 802.5 L 314.8 793.2 L 324.1 802.5 L 291.3 835.3 Z" fill="#FEDC97" stroke="none" stroke-width="1"></path><path d="M 326.8 752.8 L 354.8 752.8 L 388 786 L 388 814 L 360 814 L 326.8 780.8 Z" fill="#033f63" stroke="none" stroke-width="1"></path><path d="M 388 838 L 388 866 L 354.8 899.2 L 326.8 899.2 L 326.8 871.2 L 360 838 Z" fill="#033f63" stroke="none" stroke-width="1"></path><path d="M 302.8 899.2 L 274.8 899.2 L 241.6 866 L 241.6 838 L 269.6 838 L 302.8 871.2 Z" fill="#033f63" stroke="none" stroke-width="1"></path><path d="M 241.6 814 L 241.6 786 L 274.8 752.8 L 302.8 752.8 L 302.8 780.8 L 269.6 814 Z" fill="#033f63" stroke="none" stroke-width="1"></path><path d="M 326.8 -99.2 L 326.8 -123.2 L 354.8 -123.2 L 388 -156.4 L 388 -184.4 L 412 -184.4 L 412 -156.4 L 445.2 -123.2 L 473.2 -123.2 L 473.2 -99.2 L 445.2 -99.2 L 412 -66 L 412 -38 L 388 -38 L 388 -66 L 354.8 -99.2 Z" fill="#28666e" stroke="none" stroke-width="1"></path><path d="M 367.2 -111.2 L 376.5 -120.5 L 409.3 -87.7 L 400 -78.4 L 390.7 -87.7 L 423.5 -120.5 L 432.8 -111.2 L 423.5 -101.9 L 390.7 -134.7 L 400 -144 L 409.3 -134.7 L 376.5 -101.9 Z" fill="#FEDC97" stroke="none" stroke-width="1"></path><path d="M 412 -184.4 L 412 -208.4 L 440 -208.4 L 473.2 -241.6 L 473.2 -269.6 L 497.2 -269.6 L 497.2 -241.6 L 530.4 -208.4 L 558.4 -208.4 L 558.4 -184.4 L 530.4 -184.4 L 497.2 -151.2 L 497.2 -123.2 L 473.2 -123.2 L 473.2 -151.2 L 440 -184.4 Z" fill="#28666e" stroke="none" stroke-width="1"></path><path d="M 452.4 -196.4 L 461.7 -205.7 L 494.5 -172.9 L 485.2 -163.6 L 475.9 -172.9 L 508.7 -205.7 L 518 -196.4 L 508.7 -187.1 L 475.9 -219.9 L 485.2 -229.2 L 494.5 -219.9 L 461.7 -187.1 Z" fill="#FEDC97" stroke="none" stroke-width="1"></path><path d="M 497.2 -269.6 L 525.2 -269.6 L 558.4 -236.4 L 558.4 -208.4 L 530.4 -208.4 L 497.2 -241.6 Z" fill="#033f63" stroke="none" stroke-width="1"></path><path d="M 558.4 -184.4 L 558.4 -156.4 L 525.2 -123.2 L 497.2 -123.2 L 497.2 -151.2 L 530.4 -184.4 Z" fill="#033f63" stroke="none" stroke-width="1"></path><path d="M 473.2 -123.2 L 445.2 -123.2 L 412 -156.4 L 412 -184.4 L 440 -184.4 L 473.2 -151.2 Z" fill="#033f63" stroke="none" stroke-width="1"></path><path d="M 412 -208.4 L 412 -236.4 L 445.2 -269.6 L 473.2 -269.6 L 473.2 -241.6 L 440 -208.4 Z" fill="#033f63" stroke="none" stroke-width="1"></path><path d="M 326.8 71.2 L 326.8 47.2 L 354.8 47.2 L 388 14 L 388 -14 L 412 -14 L 412 14 L 445.2 47.2 L 473.2 47.2 L 473.2 71.2 L 445.2 71.2 L 412 104.4 L 412 132.4 L 388 132.4 L 388 104.4 L 354.8 71.2 Z" fill="#28666e" stroke="none" stroke-width="1"></path><path d="M 367.2 59.2 L 376.5 49.9 L 409.3 82.7 L 400 92 L 390.7 82.7 L 423.5 49.9 L 432.8 59.2 L 423.5 68.5 L 390.7 35.7 L 400 26.4 L 409.3 35.7 L 376.5 68.5 Z" fill="#FEDC97" stroke="none" stroke-width="1"></path><path d="M 412 -14 L 412 -38 L 440 -38 L 473.2 -71.2 L 473.2 -99.2 L 497.2 -99.2 L 497.2 -71.2 L 530.4 -38 L 558.4 -38 L 558.4 -14 L 530.4 -14 L 497.2 19.2 L 497.2 47.2 L 473.2 47.2 L 473.2 19.2 L 440 -14 Z" fill="#28666e" stroke="none" stroke-width="1"></path><path d="M 452.4 -26 L 461.7 -35.3 L 494.5 -2.5 L 485.2 6.8 L 475.9 -2.5 L 508.7 -35.3 L 518 -26 L 508.7 -16.7 L 475.9 -49.5 L 485.2 -58.8 L 494.5 -49.5 L 461.7 -16.7 Z" fill="#FEDC97" stroke="none" stroke-width="1"></path><path d="M 497.2 -99.2 L 525.2 -99.2 L 558.4 -66 L 558.4 -38 L 530.4 -38 L 497.2 -71.2 Z" fill="#033f63" stroke="none" stroke-width="1"></path><path d="M 558.4 -14 L 558.4 14 L 525.2 47.2 L 497.2 47.2 L 497.2 19.2 L 530.4 -14 Z" fill="#033f63" stroke="none" stroke-width="1"></path><path d="M 473.2 47.2 L 445.2 47.2 L 412 14 L 412 -14 L 440 -14 L 473.2 19.2 Z" fill="#033f63" stroke="none" stroke-width="1"></path><path d="M 412 -38 L 412 -66 L 445.2 -99.2 L 473.2 -99.2 L 473.2 -71.2 L 440 -38 Z" fill="#033f63" stroke="none" stroke-width="1"></path><path d="M 326.8 241.6 L 326.8 217.6 L 354.8 217.6 L 388 184.4 L 388 156.4 L 412 156.4 L 412 184.4 L 445.2 217.6 L 473.2 217.6 L 473.2 241.6 L 445.2 241.6 L 412 274.8 L 412 302.8 L 388 302.8 L 388 274.8 L 354.8 241.6 Z" fill="#28666e" stroke="none" stroke-width="1"></path><path d="M 367.2 229.6 L 376.5 220.3 L 409.3 253.1 L 400 262.4 L 390.7 253.1 L 423.5 220.3 L 432.8 229.6 L 423.5 238.9 L 390.7 206.1 L 400 196.8 L 409.3 206.1 L 376.5 238.9 Z" fill="#FEDC97" stroke="none" stroke-width="1"></path><path d="M 412 156.4 L 412 132.4 L 440 132.4 L 473.2 99.2 L 473.2 71.2 L 497.2 71.2 L 497.2 99.2 L 530.4 132.4 L 558.4 132.4 L 558.4 156.4 L 530.4 156.4 L 497.2 189.6 L 497.2 217.6 L 473.2 217.6 L 473.2 189.6 L 440 156.4 Z" fill="#28666e" stroke="none" stroke-width="1"></path><path d="M 452.4 144.4 L 461.7 135.1 L 494.5 167.9 L 485.2 177.2 L 475.9 167.9 L 508.7 135.1 L 518 144.4 L 508.7 153.7 L 475.9 120.9 L 485.2 111.6 L 494.5 120.9 L 461.7 153.7 Z" fill="#FEDC97" stroke="none" stroke-width="1"></path><path d="M 497.2 71.2 L 525.2 71.2 L 558.4 104.4 L 558.4 132.4 L 530.4 132.4 L 497.2 99.2 Z" fill="#033f63" stroke="none" stroke-width="1"></path><path d="M 558.4 156.4 L 558.4 184.4 L 525.2 217.6 L 497.2 217.6 L 497.2 189.6 L 530.4 156.4 Z" fill="#033f63" stroke="none" stroke-width="1"></path><path d="M 473.2 217.6 L 445.2 217.6 L 412 184.4 L 412 156.4 L 440 156.4 L 473.2 189.6 Z" fill="#033f63" stroke="none" stroke-width="1"></path><path d="M 412 132.4 L 412 104.4 L 445.2 71.2 L 473.2 71.2 L 473.2 99.2 L 440 132.4 Z" fill="#033f63" stroke="none" stroke-width="1"></path><path d="M 326.8 412 L 326.8 388 L 354.8 388 L 388 354.8 L 388 326.8 L 412 326.8 L 412 354.8 L 445.2 388 L 473.2 388 L 473.2 412 L 445.2 412 L 412 445.2 L 412 473.2 L 388 473.2 L 388 445.2 L 354.8 412 Z" fill="#28666e" stroke="none" stroke-width="1"></path><path d="M 367.2 400 L 376.5 390.7 L 409.3 423.5 L 400 432.8 L 390.7 423.5 L 423.5 390.7 L 432.8 400 L 423.5 409.3 L 390.7 376.5 L 400 367.2 L 409.3 376.5 L 376.5 409.3 Z" fill="#FEDC97" stroke="none" stroke-width="1"></path><path d="M 412 326.8 L 412 302.8 L 440 302.8 L 473.2 269.6 L 473.2 241.6 L 497.2 241.6 L 497.2 269.6 L 530.4 302.8 L 558.4 302.8 L 558.4 326.8 L 530.4 326.8 L 497.2 360 L 497.2 388 L 473.2 388 L 473.2 360 L 440 326.8 Z" fill="#28666e" stroke="none" stroke-width="1"></path><path d="M 452.4 314.8 L 461.7 305.5 L 494.5 338.3 L 485.2 347.6 L 475.9 338.3 L 508.7 305.5 L 518 314.8 L 508.7 324.1 L 475.9 291.3 L 485.2 282 L 494.5 291.3 L 461.7 324.1 Z" fill="#FEDC97" stroke="none" stroke-width="1"></path><path d="M 497.2 241.6 L 525.2 241.6 L 558.4 274.8 L 558.4 302.8 L 530.4 302.8 L 497.2 269.6 Z" fill="#033f63" stroke="none" stroke-width="1"></path><path d="M 558.4 326.8 L 558.4 354.8 L 525.2 388 L 497.2 388 L 497.2 360 L 530.4 326.8 Z" fill="#033f63" stroke="none" stroke-width="1"></path><path d="M 473.2 388 L 445.2 388 L 412 354.8 L 412 326.8 L 440 326.8 L 473.2 360 Z" fill="#033f63" stroke="none" stroke-width="1"></path><path d="M 412 302.8 L 412 274.8 L 445.2 241.6 L 473.2 241.6 L 473.2 269.6 L 440 302.8 Z" fill="#033f63" stroke="none" stroke-width="1"></path><path d="M 326.8 582.4 L 326.8 558.4 L 354.8 558.4 L 388 525.2 L 388 497.2 L 412 497.2 L 412 525.2 L 445.2 558.4 L 473.2 558.4 L 473.2 582.4 L 445.2 582.4 L 412 615.6 L 412 643.6 L 388 643.6 L 388 615.6 L 354.8 582.4 Z" fill="#28666e" stroke="none" stroke-width="1"></path><path d="M 367.2 570.4 L 376.5 561.1 L 409.3 593.9 L 400 603.2 L 390.7 593.9 L 423.5 561.1 L 432.8 570.4 L 423.5 579.7 L 390.7 546.9 L 400 537.6 L 409.3 546.9 L 376.5 579.7 Z" fill="#FEDC97" stroke="none" stroke-width="1"></path><path d="M 412 497.2 L 412 473.2 L 440 473.2 L 473.2 440 L 473.2 412 L 497.2 412 L 497.2 440 L 530.4 473.2 L 558.4 473.2 L 558.4 497.2 L 530.4 497.2 L 497.2 530.4 L 497.2 558.4 L 473.2 558.4 L 473.2 530.4 L 440 497.2 Z" fill="#28666e" stroke="none" stroke-width="1"></path><path d="M 452.4 485.2 L 461.7 475.9 L 494.5 508.7 L 485.2 518 L 475.9 508.7 L 508.7 475.9 L 518 485.2 L 508.7 494.5 L 475.9 461.7 L 485.2 452.4 L 494.5 461.7 L 461.7 494.5 Z" fill="#FEDC97" stroke="none" stroke-width="1"></path><path d="M 497.2 412 L 525.2 412 L 558.4 445.2 L 558.4 473.2 L 530.4 473.2 L 497.2 440 Z" fill="#033f63" stroke="none" stroke-width="1"></path><path d="M 558.4 497.2 L 558.4 525.2 L 525.2 558.4 L 497.2 558.4 L 497.2 530.4 L 530.4 497.2 Z" fill="#033f63" stroke="none" stroke-width="1"></path><path d="M 473.2 558.4 L 445.2 558.4 L 412 525.2 L 412 497.2 L 440 497.2 L 473.2 530.4 Z" fill="#033f63" stroke="none" stroke-width="1"></path><path d="M 412 473.2 L 412 445.2 L 445.2 412 L 473.2 412 L 473.2 440 L 440 473.2 Z" fill="#033f63" stroke="none" stroke-width="1"></path><path d="M 326.8 752.8 L 326.8 728.8 L 354.8 728.8 L 388 695.6 L 388 667.6 L 412 667.6 L 412 695.6 L 445.2 728.8 L 473.2 728.8 L 473.2 752.8 L 445.2 752.8 L 412 786 L 412 814 L 388 814 L 388 786 L 354.8 752.8 Z" fill="#28666e" stroke="none" stroke-width="1"></path><path d="M 367.2 740.8 L 376.5 731.5 L 409.3 764.3 L 400 773.6 L 390.7 764.3 L 423.5 731.5 L 432.8 740.8 L 423.5 750.1 L 390.7 717.3 L 400 708 L 409.3 717.3 L 376.5 750.1 Z" fill="#FEDC97" stroke="none" stroke-width="1"></path><path d="M 412 667.6 L 412 643.6 L 440 643.6 L 473.2 610.4 L 473.2 582.4 L 497.2 582.4 L 497.2 610.4 L 530.4 643.6 L 558.4 643.6 L 558.4 667.6 L 530.4 667.6 L 497.2 700.8 L 497.2 728.8 L 473.2 728.8 L 473.2 700.8 L 440 667.6 Z" fill="#28666e" stroke="none" stroke-width="1"></path><path d="M 452.4 655.6 L 461.7 646.3 L 494.5 679.1 L 485.2 688.4 L 475.9 679.1 L 508.7 646.3 L 518 655.6 L 508.7 664.9 L 475.9 632.1 L 485.2 622.8 L 494.5 632.1 L 461.7 664.9 Z" fill="#FEDC97" stroke="none" stroke-width="1"></path><path d="M 497.2 582.4 L 525.2 582.4 L 558.4 615.6 L 558.4 643.6 L 530.4 643.6 L 497.2 610.4 Z" fill="#033f63" stroke="none" stroke-width="1"></path><path d="M 558.4 667.6 L 558.4 695.6 L 525.2 728.8 L 497.2 728.8 L 497.2 700.8 L 530.4 667.6 Z" fill="#033f63" stroke="none" stroke-width="1"></path><path d="M 473.2 728.8 L 445.2 728.8 L 412 695.6 L 412 667.6 L 440 667.6 L 473.2 700.8 Z" fill="#033f63" stroke="none" stroke-width="1"></path><path d="M 412 643.6 L 412 615.6 L 445.2 582.4 L 473.2 582.4 L 473.2 610.4 L 440 643.6 Z" fill="#033f63" stroke="none" stroke-width="1"></path><path d="M 326.8 923.2 L 326.8 899.2 L 354.8 899.2 L 388 866 L 388 838 L 412 838 L 412 866 L 445.2 899.2 L 473.2 899.2 L 473.2 923.2 L 445.2 923.2 L 412 956.4 L 412 984.4 L 388 984.4 L 388 956.4 L 354.8 923.2 Z" fill="#28666e" stroke="none" stroke-width="1"></path><path d="M 367.2 911.2 L 376.5 901.9 L 409.3 934.7 L 400 944 L 390.7 934.7 L 423.5 901.9 L 432.8 911.2 L 423.5 920.5 L 390.7 887.7 L 400 878.4 L 409.3 887.7 L 376.5 920.5 Z" fill="#FEDC97" stroke="none" stroke-width="1"></path><path d="M 412 838 L 412 814 L 440 814 L 473.2 780.8 L 473.2 752.8 L 497.2 752.8 L 497.2 780.8 L 530.4 814 L 558.4 814 L 558.4 838 L 530.4 838 L 497.2 871.2 L 497.2 899.2 L 473.2 899.2 L 473.2 871.2 L 440 838 Z" fill="#28666e" stroke="none" stroke-width="1"></path><path d="M 452.4 826 L 461.7 816.7 L 494.5 849.5 L 485.2 858.8 L 475.9 849.5 L 508.7 816.7 L 518 826 L 508.7 835.3 L 475.9 802.5 L 485.2 793.2 L 494.5 802.5 L 461.7 835.3 Z" fill="#FEDC97" stroke="none" stroke-width="1"></path><path d="M 497.2 752.8 L 525.2 752.8 L 558.4 786 L 558.4 814 L 530.4 814 L 497.2 780.8 Z" fill="#033f63" stroke="none" stroke-width="1"></path><path d="M 558.4 838 L 558.4 866 L 525.2 899.2 L 497.2 899.2 L 497.2 871.2 L 530.4 838 Z" fill="#033f63" stroke="none" stroke-width="1"></path><path d="M 473.2 899.2 L 445.2 899.2 L 412 866 L 412 838 L 440 838 L 473.2 871.2 Z" fill="#033f63" stroke="none" stroke-width="1"></path><path d="M 412 814 L 412 786 L 445.2 752.8 L 473.2 752.8 L 473.2 780.8 L 440 814 Z" fill="#033f63" stroke="none" stroke-width="1"></path><path d="M 497.2 -99.2 L 497.2 -123.2 L 525.2 -123.2 L 558.4 -156.4 L 558.4 -184.4 L 582.4 -184.4 L 582.4 -156.4 L 615.6 -123.2 L 643.6 -123.2 L 643.6 -99.2 L 615.6 -99.2 L 582.4 -66 L 582.4 -38 L 558.4 -38 L 558.4 -66 L 525.2 -99.2 Z" fill="#28666e" stroke="none" stroke-width="1"></path><path d="M 537.6 -111.2 L 546.9 -120.5 L 579.7 -87.7 L 570.4 -78.4 L 561.1 -87.7 L 593.9 -120.5 L 603.2 -111.2 L 593.9 -101.9 L 561.1 -134.7 L 570.4 -144 L 579.7 -134.7 L 546.9 -101.9 Z" fill="#FEDC97" stroke="none" stroke-width="1"></path><path d="M 582.4 -184.4 L 582.4 -208.4 L 610.4 -208.4 L 643.6 -241.6 L 643.6 -269.6 L 667.6 -269.6 L 667.6 -241.6 L 700.8 -208.4 L 728.8 -208.4 L 728.8 -184.4 L 700.8 -184.4 L 667.6 -151.2 L 667.6 -123.2 L 643.6 -123.2 L 643.6 -151.2 L 610.4 -184.4 Z" fill="#28666e" stroke="none" stroke-width="1"></path><path d="M 622.8 -196.4 L 632.1 -205.7 L 664.9 -172.9 L 655.6 -163.6 L 646.3 -172.9 L 679.1 -205.7 L 688.4 -196.4 L 679.1 -187.1 L 646.3 -219.9 L 655.6 -229.2 L 664.9 -219.9 L 632.1 -187.1 Z" fill="#FEDC97" stroke="none" stroke-width="1"></path><path d="M 667.6 -269.6 L 695.6 -269.6 L 728.8 -236.4 L 728.8 -208.4 L 700.8 -208.4 L 667.6 -241.6 Z" fill="#033f63" stroke="none" stroke-width="1"></path><path d="M 728.8 -184.4 L 728.8 -156.4 L 695.6 -123.2 L 667.6 -123.2 L 667.6 -151.2 L 700.8 -184.4 Z" fill="#033f63" stroke="none" stroke-width="1"></path><path d="M 643.6 -123.2 L 615.6 -123.2 L 582.4 -156.4 L 582.4 -184.4 L 610.4 -184.4 L 643.6 -151.2 Z" fill="#033f63" stroke="none" stroke-width="1"></path><path d="M 582.4 -208.4 L 582.4 -236.4 L 615.6 -269.6 L 643.6 -269.6 L 643.6 -241.6 L 610.4 -208.4 Z" fill="#033f63" stroke="none" stroke-width="1"></path><path d="M 497.2 71.2 L 497.2 47.2 L 525.2 47.2 L 558.4 14 L 558.4 -14 L 582.4 -14 L 582.4 14 L 615.6 47.2 L 643.6 47.2 L 643.6 71.2 L 615.6 71.2 L 582.4 104.4 L 582.4 132.4 L 558.4 132.4 L 558.4 104.4 L 525.2 71.2 Z" fill="#28666e" stroke="none" stroke-width="1"></path><path d="M 537.6 59.2 L 546.9 49.9 L 579.7 82.7 L 570.4 92 L 561.1 82.7 L 593.9 49.9 L 603.2 59.2 L 593.9 68.5 L 561.1 35.7 L 570.4 26.4 L 579.7 35.7 L 546.9 68.5 Z" fill="#FEDC97" stroke="none" stroke-width="1"></path><path d="M 582.4 -14 L 582.4 -38 L 610.4 -38 L 643.6 -71.2 L 643.6 -99.2 L 667.6 -99.2 L 667.6 -71.2 L 700.8 -38 L 728.8 -38 L 728.8 -14 L 700.8 -14 L 667.6 19.2 L 667.6 47.2 L 643.6 47.2 L 643.6 19.2 L 610.4 -14 Z" fill="#28666e" stroke="none" stroke-width="1"></path><path d="M 622.8 -26 L 632.1 -35.3 L 664.9 -2.5 L 655.6 6.8 L 646.3 -2.5 L 679.1 -35.3 L 688.4 -26 L 679.1 -16.7 L 646.3 -49.5 L 655.6 -58.8 L 664.9 -49.5 L 632.1 -16.7 Z" fill="#FEDC97" stroke="none" stroke-width="1"></path><path d="M 667.6 -99.2 L 695.6 -99.2 L 728.8 -66 L 728.8 -38 L 700.8 -38 L 667.6 -71.2 Z" fill="#033f63" stroke="none" stroke-width="1"></path><path d="M 728.8 -14 L 728.8 14 L 695.6 47.2 L 667.6 47.2 L 667.6 19.2 L 700.8 -14 Z" fill="#033f63" stroke="none" stroke-width="1"></path><path d="M 643.6 47.2 L 615.6 47.2 L 582.4 14 L 582.4 -14 L 610.4 -14 L 643.6 19.2 Z" fill="#033f63" stroke="none" stroke-width="1"></path><path d="M 582.4 -38 L 582.4 -66 L 615.6 -99.2 L 643.6 -99.2 L 643.6 -71.2 L 610.4 -38 Z" fill="#033f63" stroke="none" stroke-width="1"></path><path d="M 497.2 241.6 L 497.2 217.6 L 525.2 217.6 L 558.4 184.4 L 558.4 156.4 L 582.4 156.4 L 582.4 184.4 L 615.6 217.6 L 643.6 217.6 L 643.6 241.6 L 615.6 241.6 L 582.4 274.8 L 582.4 302.8 L 558.4 302.8 L 558.4 274.8 L 525.2 241.6 Z" fill="#28666e" stroke="none" stroke-width="1"></path><path d="M 537.6 229.6 L 546.9 220.3 L 579.7 253.1 L 570.4 262.4 L 561.1 253.1 L 593.9 220.3 L 603.2 229.6 L 593.9 238.9 L 561.1 206.1 L 570.4 196.8 L 579.7 206.1 L 546.9 238.9 Z" fill="#FEDC97" stroke="none" stroke-width="1"></path><path d="M 582.4 156.4 L 582.4 132.4 L 610.4 132.4 L 643.6 99.2 L 643.6 71.2 L 667.6 71.2 L 667.6 99.2 L 700.8 132.4 L 728.8 132.4 L 728.8 156.4 L 700.8 156.4 L 667.6 189.6 L 667.6 217.6 L 643.6 217.6 L 643.6 189.6 L 610.4 156.4 Z" fill="#28666e" stroke="none" stroke-width="1"></path><path d="M 622.8 144.4 L 632.1 135.1 L 664.9 167.9 L 655.6 177.2 L 646.3 167.9 L 679.1 135.1 L 688.4 144.4 L 679.1 153.7 L 646.3 120.9 L 655.6 111.6 L 664.9 120.9 L 632.1 153.7 Z" fill="#FEDC97" stroke="none" stroke-width="1"></path><path d="M 667.6 71.2 L 695.6 71.2 L 728.8 104.4 L 728.8 132.4 L 700.8 132.4 L 667.6 99.2 Z" fill="#033f63" stroke="none" stroke-width="1"></path><path d="M 728.8 156.4 L 728.8 184.4 L 695.6 217.6 L 667.6 217.6 L 667.6 189.6 L 700.8 156.4 Z" fill="#033f63" stroke="none" stroke-width="1"></path><path d="M 643.6 217.6 L 615.6 217.6 L 582.4 184.4 L 582.4 156.4 L 610.4 156.4 L 643.6 189.6 Z" fill="#033f63" stroke="none" stroke-width="1"></path><path d="M 582.4 132.4 L 582.4 104.4 L 615.6 71.2 L 643.6 71.2 L 643.6 99.2 L 610.4 132.4 Z" fill="#033f63" stroke="none" stroke-width="1"></path><path d="M 497.2 412 L 497.2 388 L 525.2 388 L 558.4 354.8 L 558.4 326.8 L 582.4 326.8 L 582.4 354.8 L 615.6 388 L 643.6 388 L 643.6 412 L 615.6 412 L 582.4 445.2 L 582.4 473.2 L 558.4 473.2 L 558.4 445.2 L 525.2 412 Z" fill="#28666e" stroke="none" stroke-width="1"></path><path d="M 537.6 400 L 546.9 390.7 L 579.7 423.5 L 570.4 432.8 L 561.1 423.5 L 593.9 390.7 L 603.2 400 L 593.9 409.3 L 561.1 376.5 L 570.4 367.2 L 579.7 376.5 L 546.9 409.3 Z" fill="#FEDC97" stroke="none" stroke-width="1"></path><path d="M 582.4 326.8 L 582.4 302.8 L 610.4 302.8 L 643.6 269.6 L 643.6 241.6 L 667.6 241.6 L 667.6 269.6 L 700.8 302.8 L 728.8 302.8 L 728.8 326.8 L 700.8 326.8 L 667.6 360 L 667.6 388 L 643.6 388 L 643.6 360 L 610.4 326.8 Z" fill="#28666e" stroke="none" stroke-width="1"></path><path d="M 622.8 314.8 L 632.1 305.5 L 664.9 338.3 L 655.6 347.6 L 646.3 338.3 L 679.1 305.5 L 688.4 314.8 L 679.1 324.1 L 646.3 291.3 L 655.6 282 L 664.9 291.3 L 632.1 324.1 Z" fill="#FEDC97" stroke="none" stroke-width="1"></path><path d="M 667.6 241.6 L 695.6 241.6 L 728.8 274.8 L 728.8 302.8 L 700.8 302.8 L 667.6 269.6 Z" fill="#033f63" stroke="none" stroke-width="1"></path><path d="M 728.8 326.8 L 728.8 354.8 L 695.6 388 L 667.6 388 L 667.6 360 L 700.8 326.8 Z" fill="#033f63" stroke="none" stroke-width="1"></path><path d="M 643.6 388 L 615.6 388 L 582.4 354.8 L 582.4 326.8 L 610.4 326.8 L 643.6 360 Z" fill="#033f63" stroke="none" stroke-width="1"></path><path d="M 582.4 302.8 L 582.4 274.8 L 615.6 241.6 L 643.6 241.6 L 643.6 269.6 L 610.4 302.8 Z" fill="#033f63" stroke="none" stroke-width="1"></path><path d="M 497.2 582.4 L 497.2 558.4 L 525.2 558.4 L 558.4 525.2 L 558.4 497.2 L 582.4 497.2 L 582.4 525.2 L 615.6 558.4 L 643.6 558.4 L 643.6 582.4 L 615.6 582.4 L 582.4 615.6 L 582.4 643.6 L 558.4 643.6 L 558.4 615.6 L 525.2 582.4 Z" fill="#28666e" stroke="none" stroke-width="1"></path><path d="M 537.6 570.4 L 546.9 561.1 L 579.7 593.9 L 570.4 603.2 L 561.1 593.9 L 593.9 561.1 L 603.2 570.4 L 593.9 579.7 L 561.1 546.9 L 570.4 537.6 L 579.7 546.9 L 546.9 579.7 Z" fill="#FEDC97" stroke="none" stroke-width="1"></path><path d="M 582.4 497.2 L 582.4 473.2 L 610.4 473.2 L 643.6 440 L 643.6 412 L 667.6 412 L 667.6 440 L 700.8 473.2 L 728.8 473.2 L 728.8 497.2 L 700.8 497.2 L 667.6 530.4 L 667.6 558.4 L 643.6 558.4 L 643.6 530.4 L 610.4 497.2 Z" fill="#28666e" stroke="none" stroke-width="1"></path><path d="M 622.8 485.2 L 632.1 475.9 L 664.9 508.7 L 655.6 518 L 646.3 508.7 L 679.1 475.9 L 688.4 485.2 L 679.1 494.5 L 646.3 461.7 L 655.6 452.4 L 664.9 461.7 L 632.1 494.5 Z" fill="#FEDC97" stroke="none" stroke-width="1"></path><path d="M 667.6 412 L 695.6 412 L 728.8 445.2 L 728.8 473.2 L 700.8 473.2 L 667.6 440 Z" fill="#033f63" stroke="none" stroke-width="1"></path><path d="M 728.8 497.2 L 728.8 525.2 L 695.6 558.4 L 667.6 558.4 L 667.6 530.4 L 700.8 497.2 Z" fill="#033f63" stroke="none" stroke-width="1"></path><path d="M 643.6 558.4 L 615.6 558.4 L 582.4 525.2 L 582.4 497.2 L 610.4 497.2 L 643.6 530.4 Z" fill="#033f63" stroke="none" stroke-width="1"></path><path d="M 582.4 473.2 L 582.4 445.2 L 615.6 412 L 643.6 412 L 643.6 440 L 610.4 473.2 Z" fill="#033f63" stroke="none" stroke-width="1"></path><path d="M 497.2 752.8 L 497.2 728.8 L 525.2 728.8 L 558.4 695.6 L 558.4 667.6 L 582.4 667.6 L 582.4 695.6 L 615.6 728.8 L 643.6 728.8 L 643.6 752.8 L 615.6 752.8 L 582.4 786 L 582.4 814 L 558.4 814 L 558.4 786 L 525.2 752.8 Z" fill="#28666e" stroke="none" stroke-width="1"></path><path d="M 537.6 740.8 L 546.9 731.5 L 579.7 764.3 L 570.4 773.6 L 561.1 764.3 L 593.9 731.5 L 603.2 740.8 L 593.9 750.1 L 561.1 717.3 L 570.4 708 L 579.7 717.3 L 546.9 750.1 Z" fill="#FEDC97" stroke="none" stroke-width="1"></path><path d="M 582.4 667.6 L 582.4 643.6 L 610.4 643.6 L 643.6 610.4 L 643.6 582.4 L 667.6 582.4 L 667.6 610.4 L 700.8 643.6 L 728.8 643.6 L 728.8 667.6 L 700.8 667.6 L 667.6 700.8 L 667.6 728.8 L 643.6 728.8 L 643.6 700.8 L 610.4 667.6 Z" fill="#28666e" stroke="none" stroke-width="1"></path><path d="M 622.8 655.6 L 632.1 646.3 L 664.9 679.1 L 655.6 688.4 L 646.3 679.1 L 679.1 646.3 L 688.4 655.6 L 679.1 664.9 L 646.3 632.1 L 655.6 622.8 L 664.9 632.1 L 632.1 664.9 Z" fill="#FEDC97" stroke="none" stroke-width="1"></path><path d="M 667.6 582.4 L 695.6 582.4 L 728.8 615.6 L 728.8 643.6 L 700.8 643.6 L 667.6 610.4 Z" fill="#033f63" stroke="none" stroke-width="1"></path><path d="M 728.8 667.6 L 728.8 695.6 L 695.6 728.8 L 667.6 728.8 L 667.6 700.8 L 700.8 667.6 Z" fill="#033f63" stroke="none" stroke-width="1"></path><path d="M 643.6 728.8 L 615.6 728.8 L 582.4 695.6 L 582.4 667.6 L 610.4 667.6 L 643.6 700.8 Z" fill="#033f63" stroke="none" stroke-width="1"></path><path d="M 582.4 643.6 L 582.4 615.6 L 615.6 582.4 L 643.6 582.4 L 643.6 610.4 L 610.4 643.6 Z" fill="#033f63" stroke="none" stroke-width="1"></path><path d="M 497.2 923.2 L 497.2 899.2 L 525.2 899.2 L 558.4 866 L 558.4 838 L 582.4 838 L 582.4 866 L 615.6 899.2 L 643.6 899.2 L 643.6 923.2 L 615.6 923.2 L 582.4 956.4 L 582.4 984.4 L 558.4 984.4 L 558.4 956.4 L 525.2 923.2 Z" fill="#28666e" stroke="none" stroke-width="1"></path><path d="M 537.6 911.2 L 546.9 901.9 L 579.7 934.7 L 570.4 944 L 561.1 934.7 L 593.9 901.9 L 603.2 911.2 L 593.9 920.5 L 561.1 887.7 L 570.4 878.4 L 579.7 887.7 L 546.9 920.5 Z" fill="#FEDC97" stroke="none" stroke-width="1"></path><path d="M 582.4 838 L 582.4 814 L 610.4 814 L 643.6 780.8 L 643.6 752.8 L 667.6 752.8 L 667.6 780.8 L 700.8 814 L 728.8 814 L 728.8 838 L 700.8 838 L 667.6 871.2 L 667.6 899.2 L 643.6 899.2 L 643.6 871.2 L 610.4 838 Z" fill="#28666e" stroke="none" stroke-width="1"></path><path d="M 622.8 826 L 632.1 816.7 L 664.9 849.5 L 655.6 858.8 L 646.3 849.5 L 679.1 816.7 L 688.4 826 L 679.1 835.3 L 646.3 802.5 L 655.6 793.2 L 664.9 802.5 L 632.1 835.3 Z" fill="#FEDC97" stroke="none" stroke-width="1"></path><path d="M 667.6 752.8 L 695.6 752.8 L 728.8 786 L 728.8 814 L 700.8 814 L 667.6 780.8 Z" fill="#033f63" stroke="none" stroke-width="1"></path><path d="M 728.8 838 L 728.8 866 L 695.6 899.2 L 667.6 899.2 L 667.6 871.2 L 700.8 838 Z" fill="#033f63" stroke="none" stroke-width="1"></path><path d="M 643.6 899.2 L 615.6 899.2 L 582.4 866 L 582.4 838 L 610.4 838 L 643.6 871.2 Z" fill="#033f63" stroke="none" stroke-width="1"></path><path d="M 582.4 814 L 582.4 786 L 615.6 752.8 L 643.6 752.8 L 643.6 780.8 L 610.4 814 Z" fill="#033f63" stroke="none" stroke-width="1"></path><path d="M 667.6 -99.2 L 667.6 -123.2 L 695.6 -123.2 L 728.8 -156.4 L 728.8 -184.4 L 752.8 -184.4 L 752.8 -156.4 L 786 -123.2 L 814 -123.2 L 814 -99.2 L 786 -99.2 L 752.8 -66 L 752.8 -38 L 728.8 -38 L 728.8 -66 L 695.6 -99.2 Z" fill="#28666e" stroke="none" stroke-width="1"></path><path d="M 708 -111.2 L 717.3 -120.5 L 750.1 -87.7 L 740.8 -78.4 L 731.5 -87.7 L 764.3 -120.5 L 773.6 -111.2 L 764.3 -101.9 L 731.5 -134.7 L 740.8 -144 L 750.1 -134.7 L 717.3 -101.9 Z" fill="#FEDC97" stroke="none" stroke-width="1"></path><path d="M 752.8 -184.4 L 752.8 -208.4 L 780.8 -208.4 L 814 -241.6 L 814 -269.6 L 838 -269.6 L 838 -241.6 L 871.2 -208.4 L 899.2 -208.4 L 899.2 -184.4 L 871.2 -184.4 L 838 -151.2 L 838 -123.2 L 814 -123.2 L 814 -151.2 L 780.8 -184.4 Z" fill="#28666e" stroke="none" stroke-width="1"></path><path d="M 793.2 -196.4 L 802.5 -205.7 L 835.3 -172.9 L 826 -163.6 L 816.7 -172.9 L 849.5 -205.7 L 858.8 -196.4 L 849.5 -187.1 L 816.7 -219.9 L 826 -229.2 L 835.3 -219.9 L 802.5 -187.1 Z" fill="#FEDC97" stroke="none" stroke-width="1"></path><path d="M 838 -269.6 L 866 -269.6 L 899.2 -236.4 L 899.2 -208.4 L 871.2 -208.4 L 838 -241.6 Z" fill="#033f63" stroke="none" stroke-width="1"></path><path d="M 899.2 -184.4 L 899.2 -156.4 L 866 -123.2 L 838 -123.2 L 838 -151.2 L 871.2 -184.4 Z" fill="#033f63" stroke="none" stroke-width="1"></path><path d="M 814 -123.2 L 786 -123.2 L 752.8 -156.4 L 752.8 -184.4 L 780.8 -184.4 L 814 -151.2 Z" fill="#033f63" stroke="none" stroke-width="1"></path><path d="M 752.8 -208.4 L 752.8 -236.4 L 786 -269.6 L 814 -269.6 L 814 -241.6 L 780.8 -208.4 Z" fill="#033f63" stroke="none" stroke-width="1"></path><path d="M 667.6 71.2 L 667.6 47.2 L 695.6 47.2 L 728.8 14 L 728.8 -14 L 752.8 -14 L 752.8 14 L 786 47.2 L 814 47.2 L 814 71.2 L 786 71.2 L 752.8 104.4 L 752.8 132.4 L 728.8 132.4 L 728.8 104.4 L 695.6 71.2 Z" fill="#28666e" stroke="none" stroke-width="1"></path><path d="M 708 59.2 L 717.3 49.9 L 750.1 82.7 L 740.8 92 L 731.5 82.7 L 764.3 49.9 L 773.6 59.2 L 764.3 68.5 L 731.5 35.7 L 740.8 26.4 L 750.1 35.7 L 717.3 68.5 Z" fill="#FEDC97" stroke="none" stroke-width="1"></path><path d="M 752.8 -14 L 752.8 -38 L 780.8 -38 L 814 -71.2 L 814 -99.2 L 838 -99.2 L 838 -71.2 L 871.2 -38 L 899.2 -38 L 899.2 -14 L 871.2 -14 L 838 19.2 L 838 47.2 L 814 47.2 L 814 19.2 L 780.8 -14 Z" fill="#28666e" stroke="none" stroke-width="1"></path><path d="M 793.2 -26 L 802.5 -35.3 L 835.3 -2.5 L 826 6.8 L 816.7 -2.5 L 849.5 -35.3 L 858.8 -26 L 849.5 -16.7 L 816.7 -49.5 L 826 -58.8 L 835.3 -49.5 L 802.5 -16.7 Z" fill="#FEDC97" stroke="none" stroke-width="1"></path><path d="M 838 -99.2 L 866 -99.2 L 899.2 -66 L 899.2 -38 L 871.2 -38 L 838 -71.2 Z" fill="#033f63" stroke="none" stroke-width="1"></path><path d="M 899.2 -14 L 899.2 14 L 866 47.2 L 838 47.2 L 838 19.2 L 871.2 -14 Z" fill="#033f63" stroke="none" stroke-width="1"></path><path d="M 814 47.2 L 786 47.2 L 752.8 14 L 752.8 -14 L 780.8 -14 L 814 19.2 Z" fill="#033f63" stroke="none" stroke-width="1"></path><path d="M 752.8 -38 L 752.8 -66 L 786 -99.2 L 814 -99.2 L 814 -71.2 L 780.8 -38 Z" fill="#033f63" stroke="none" stroke-width="1"></path><path d="M 667.6 241.6 L 667.6 217.6 L 695.6 217.6 L 728.8 184.4 L 728.8 156.4 L 752.8 156.4 L 752.8 184.4 L 786 217.6 L 814 217.6 L 814 241.6 L 786 241.6 L 752.8 274.8 L 752.8 302.8 L 728.8 302.8 L 728.8 274.8 L 695.6 241.6 Z" fill="#28666e" stroke="none" stroke-width="1"></path><path d="M 708 229.6 L 717.3 220.3 L 750.1 253.1 L 740.8 262.4 L 731.5 253.1 L 764.3 220.3 L 773.6 229.6 L 764.3 238.9 L 731.5 206.1 L 740.8 196.8 L 750.1 206.1 L 717.3 238.9 Z" fill="#FEDC97" stroke="none" stroke-width="1"></path><path d="M 752.8 156.4 L 752.8 132.4 L 780.8 132.4 L 814 99.2 L 814 71.2 L 838 71.2 L 838 99.2 L 871.2 132.4 L 899.2 132.4 L 899.2 156.4 L 871.2 156.4 L 838 189.6 L 838 217.6 L 814 217.6 L 814 189.6 L 780.8 156.4 Z" fill="#28666e" stroke="none" stroke-width="1"></path><path d="M 793.2 144.4 L 802.5 135.1 L 835.3 167.9 L 826 177.2 L 816.7 167.9 L 849.5 135.1 L 858.8 144.4 L 849.5 153.7 L 816.7 120.9 L 826 111.6 L 835.3 120.9 L 802.5 153.7 Z" fill="#FEDC97" stroke="none" stroke-width="1"></path><path d="M 838 71.2 L 866 71.2 L 899.2 104.4 L 899.2 132.4 L 871.2 132.4 L 838 99.2 Z" fill="#033f63" stroke="none" stroke-width="1"></path><path d="M 899.2 156.4 L 899.2 184.4 L 866 217.6 L 838 217.6 L 838 189.6 L 871.2 156.4 Z" fill="#033f63" stroke="none" stroke-width="1"></path><path d="M 814 217.6 L 786 217.6 L 752.8 184.4 L 752.8 156.4 L 780.8 156.4 L 814 189.6 Z" fill="#033f63" stroke="none" stroke-width="1"></path><path d="M 752.8 132.4 L 752.8 104.4 L 786 71.2 L 814 71.2 L 814 99.2 L 780.8 132.4 Z" fill="#033f63" stroke="none" stroke-width="1"></path><path d="M 667.6 412 L 667.6 388 L 695.6 388 L 728.8 354.8 L 728.8 326.8 L 752.8 326.8 L 752.8 354.8 L 786 388 L 814 388 L 814 412 L 786 412 L 752.8 445.2 L 752.8 473.2 L 728.8 473.2 L 728.8 445.2 L 695.6 412 Z" fill="#28666e" stroke="none" stroke-width="1"></path><path d="M 708 400 L 717.3 390.7 L 750.1 423.5 L 740.8 432.8 L 731.5 423.5 L 764.3 390.7 L 773.6 400 L 764.3 409.3 L 731.5 376.5 L 740.8 367.2 L 750.1 376.5 L 717.3 409.3 Z" fill="#FEDC97" stroke="none" stroke-width="1"></path><path d="M 752.8 326.8 L 752.8 302.8 L 780.8 302.8 L 814 269.6 L 814 241.6 L 838 241.6 L 838 269.6 L 871.2 302.8 L 899.2 302.8 L 899.2 326.8 L 871.2 326.8 L 838 360 L 838 388 L 814 388 L 814 360 L 780.8 326.8 Z" fill="#28666e" stroke="none" stroke-width="1"></path><path d="M 793.2 314.8 L 802.5 305.5 L 835.3 338.3 L 826 347.6 L 816.7 338.3 L 849.5 305.5 L 858.8 314.8 L 849.5 324.1 L 816.7 291.3 L 826 282 L 835.3 291.3 L 802.5 324.1 Z" fill="#FEDC97" stroke="none" stroke-width="1"></path><path d="M 838 241.6 L 866 241.6 L 899.2 274.8 L 899.2 302.8 L 871.2 302.8 L 838 269.6 Z" fill="#033f63" stroke="none" stroke-width="1"></path><path d="M 899.2 326.8 L 899.2 354.8 L 866 388 L 838 388 L 838 360 L 871.2 326.8 Z" fill="#033f63" stroke="none" stroke-width="1"></path><path d="M 814 388 L 786 388 L 752.8 354.8 L 752.8 326.8 L 780.8 326.8 L 814 360 Z" fill="#033f63" stroke="none" stroke-width="1"></path><path d="M 752.8 302.8 L 752.8 274.8 L 786 241.6 L 814 241.6 L 814 269.6 L 780.8 302.8 Z" fill="#033f63" stroke="none" stroke-width="1"></path><path d="M 667.6 582.4 L 667.6 558.4 L 695.6 558.4 L 728.8 525.2 L 728.8 497.2 L 752.8 497.2 L 752.8 525.2 L 786 558.4 L 814 558.4 L 814 582.4 L 786 582.4 L 752.8 615.6 L 752.8 643.6 L 728.8 643.6 L 728.8 615.6 L 695.6 582.4 Z" fill="#28666e" stroke="none" stroke-width="1"></path><path d="M 708 570.4 L 717.3 561.1 L 750.1 593.9 L 740.8 603.2 L 731.5 593.9 L 764.3 561.1 L 773.6 570.4 L 764.3 579.7 L 731.5 546.9 L 740.8 537.6 L 750.1 546.9 L 717.3 579.7 Z" fill="#FEDC97" stroke="none" stroke-width="1"></path><path d="M 752.8 497.2 L 752.8 473.2 L 780.8 473.2 L 814 440 L 814 412 L 838 412 L 838 440 L 871.2 473.2 L 899.2 473.2 L 899.2 497.2 L 871.2 497.2 L 838 530.4 L 838 558.4 L 814 558.4 L 814 530.4 L 780.8 497.2 Z" fill="#28666e" stroke="none" stroke-width="1"></path><path d="M 793.2 485.2 L 802.5 475.9 L 835.3 508.7 L 826 518 L 816.7 508.7 L 849.5 475.9 L 858.8 485.2 L 849.5 494.5 L 816.7 461.7 L 826 452.4 L 835.3 461.7 L 802.5 494.5 Z" fill="#FEDC97" stroke="none" stroke-width="1"></path><path d="M 838 412 L 866 412 L 899.2 445.2 L 899.2 473.2 L 871.2 473.2 L 838 440 Z" fill="#033f63" stroke="none" stroke-width="1"></path><path d="M 899.2 497.2 L 899.2 525.2 L 866 558.4 L 838 558.4 L 838 530.4 L 871.2 497.2 Z" fill="#033f63" stroke="none" stroke-width="1"></path><path d="M 814 558.4 L 786 558.4 L 752.8 525.2 L 752.8 497.2 L 780.8 497.2 L 814 530.4 Z" fill="#033f63" stroke="none" stroke-width="1"></path><path d="M 752.8 473.2 L 752.8 445.2 L 786 412 L 814 412 L 814 440 L 780.8 473.2 Z" fill="#033f63" stroke="none" stroke-width="1"></path><path d="M 667.6 752.8 L 667.6 728.8 L 695.6 728.8 L 728.8 695.6 L 728.8 667.6 L 752.8 667.6 L 752.8 695.6 L 786 728.8 L 814 728.8 L 814 752.8 L 786 752.8 L 752.8 786 L 752.8 814 L 728.8 814 L 728.8 786 L 695.6 752.8 Z" fill="#28666e" stroke="none" stroke-width="1"></path><path d="M 708 740.8 L 717.3 731.5 L 750.1 764.3 L 740.8 773.6 L 731.5 764.3 L 764.3 731.5 L 773.6 740.8 L 764.3 750.1 L 731.5 717.3 L 740.8 708 L 750.1 717.3 L 717.3 750.1 Z" fill="#FEDC97" stroke="none" stroke-width="1"></path><path d="M 752.8 667.6 L 752.8 643.6 L 780.8 643.6 L 814 610.4 L 814 582.4 L 838 582.4 L 838 610.4 L 871.2 643.6 L 899.2 643.6 L 899.2 667.6 L 871.2 667.6 L 838 700.8 L 838 728.8 L 814 728.8 L 814 700.8 L 780.8 667.6 Z" fill="#28666e" stroke="none" stroke-width="1"></path><path d="M 793.2 655.6 L 802.5 646.3 L 835.3 679.1 L 826 688.4 L 816.7 679.1 L 849.5 646.3 L 858.8 655.6 L 849.5 664.9 L 816.7 632.1 L 826 622.8 L 835.3 632.1 L 802.5 664.9 Z" fill="#FEDC97" stroke="none" stroke-width="1"></path><path d="M 838 582.4 L 866 582.4 L 899.2 615.6 L 899.2 643.6 L 871.2 643.6 L 838 610.4 Z" fill="#033f63" stroke="none" stroke-width="1"></path><path d="M 899.2 667.6 L 899.2 695.6 L 866 728.8 L 838 728.8 L 838 700.8 L 871.2 667.6 Z" fill="#033f63" stroke="none" stroke-width="1"></path><path d="M 814 728.8 L 786 728.8 L 752.8 695.6 L 752.8 667.6 L 780.8 667.6 L 814 700.8 Z" fill="#033f63" stroke="none" stroke-width="1"></path><path d="M 752.8 643.6 L 752.8 615.6 L 786 582.4 L 814 582.4 L 814 610.4 L 780.8 643.6 Z" fill="#033f63" stroke="none" stroke-width="1"></path><path d="M 667.6 923.2 L 667.6 899.2 L 695.6 899.2 L 728.8 866 L 728.8 838 L 752.8 838 L 752.8 866 L 786 899.2 L 814 899.2 L 814 923.2 L 786 923.2 L 752.8 956.4 L 752.8 984.4 L 728.8 984.4 L 728.8 956.4 L 695.6 923.2 Z" fill="#28666e" stroke="none" stroke-width="1"></path><path d="M 708 911.2 L 717.3 901.9 L 750.1 934.7 L 740.8 944 L 731.5 934.7 L 764.3 901.9 L 773.6 911.2 L 764.3 920.5 L 731.5 887.7 L 740.8 878.4 L 750.1 887.7 L 717.3 920.5 Z" fill="#FEDC97" stroke="none" stroke-width="1"></path><path d="M 752.8 838 L 752.8 814 L 780.8 814 L 814 780.8 L 814 752.8 L 838 752.8 L 838 780.8 L 871.2 814 L 899.2 814 L 899.2 838 L 871.2 838 L 838 871.2 L 838 899.2 L 814 899.2 L 814 871.2 L 780.8 838 Z" fill="#28666e" stroke="none" stroke-width="1"></path><path d="M 793.2 826 L 802.5 816.7 L 835.3 849.5 L 826 858.8 L 816.7 849.5 L 849.5 816.7 L 858.8 826 L 849.5 835.3 L 816.7 802.5 L 826 793.2 L 835.3 802.5 L 802.5 835.3 Z" fill="#FEDC97" stroke="none" stroke-width="1"></path><path d="M 838 752.8 L 866 752.8 L 899.2 786 L 899.2 814 L 871.2 814 L 838 780.8 Z" fill="#033f63" stroke="none" stroke-width="1"></path><path d="M 899.2 838 L 899.2 866 L 866 899.2 L 838 899.2 L 838 871.2 L 871.2 838 Z" fill="#033f63" stroke="none" stroke-width="1"></path><path d="M 814 899.2 L 786 899.2 L 752.8 866 L 752.8 838 L 780.8 838 L 814 871.2 Z" fill="#033f63" stroke="none" stroke-width="1"></path><path d="M 752.8 814 L 752.8 786 L 786 752.8 L 814 752.8 L 814 780.8 L 780.8 814 Z" fill="#033f63" stroke="none" stroke-width="1"></path><path d="M 838 -99.2 L 838 -123.2 L 866 -123.2 L 899.2 -156.4 L 899.2 -184.4 L 923.2 -184.4 L 923.2 -156.4 L 956.4 -123.2 L 984.4 -123.2 L 984.4 -99.2 L 956.4 -99.2 L 923.2 -66 L 923.2 -38 L 899.2 -38 L 899.2 -66 L 866 -99.2 Z" fill="#28666e" stroke="none" stroke-width="1"></path><path d="M 878.4 -111.2 L 887.7 -120.5 L 920.5 -87.7 L 911.2 -78.4 L 901.9 -87.7 L 934.7 -120.5 L 944 -111.2 L 934.7 -101.9 L 901.9 -134.7 L 911.2 -144 L 920.5 -134.7 L 887.7 -101.9 Z" fill="#FEDC97" stroke="none" stroke-width="1"></path><path d="M 923.2 -184.4 L 923.2 -208.4 L 951.2 -208.4 L 984.4 -241.6 L 984.4 -269.6 L 1008.4 -269.6 L 1008.4 -241.6 L 1041.6 -208.4 L 1069.6 -208.4 L 1069.6 -184.4 L 1041.6 -184.4 L 1008.4 -151.2 L 1008.4 -123.2 L 984.4 -123.2 L 984.4 -151.2 L 951.2 -184.4 Z" fill="#28666e" stroke="none" stroke-width="1"></path><path d="M 963.6 -196.4 L 972.9 -205.7 L 1005.7 -172.9 L 996.4 -163.6 L 987.1 -172.9 L 1019.9 -205.7 L 1029.2 -196.4 L 1019.9 -187.1 L 987.1 -219.9 L 996.4 -229.2 L 1005.7 -219.9 L 972.9 -187.1 Z" fill="#FEDC97" stroke="none" stroke-width="1"></path><path d="M 1008.4 -269.6 L 1036.4 -269.6 L 1069.6 -236.4 L 1069.6 -208.4 L 1041.6 -208.4 L 1008.4 -241.6 Z" fill="#033f63" stroke="none" stroke-width="1"></path><path d="M 1069.6 -184.4 L 1069.6 -156.4 L 1036.4 -123.2 L 1008.4 -123.2 L 1008.4 -151.2 L 1041.6 -184.4 Z" fill="#033f63" stroke="none" stroke-width="1"></path><path d="M 984.4 -123.2 L 956.4 -123.2 L 923.2 -156.4 L 923.2 -184.4 L 951.2 -184.4 L 984.4 -151.2 Z" fill="#033f63" stroke="none" stroke-width="1"></path><path d="M 923.2 -208.4 L 923.2 -236.4 L 956.4 -269.6 L 984.4 -269.6 L 984.4 -241.6 L 951.2 -208.4 Z" fill="#033f63" stroke="none" stroke-width="1"></path><path d="M 838 71.2 L 838 47.2 L 866 47.2 L 899.2 14 L 899.2 -14 L 923.2 -14 L 923.2 14 L 956.4 47.2 L 984.4 47.2 L 984.4 71.2 L 956.4 71.2 L 923.2 104.4 L 923.2 132.4 L 899.2 132.4 L 899.2 104.4 L 866 71.2 Z" fill="#28666e" stroke="none" stroke-width="1"></path><path d="M 878.4 59.2 L 887.7 49.9 L 920.5 82.7 L 911.2 92 L 901.9 82.7 L 934.7 49.9 L 944 59.2 L 934.7 68.5 L 901.9 35.7 L 911.2 26.4 L 920.5 35.7 L 887.7 68.5 Z" fill="#FEDC97" stroke="none" stroke-width="1"></path><path d="M 923.2 -14 L 923.2 -38 L 951.2 -38 L 984.4 -71.2 L 984.4 -99.2 L 1008.4 -99.2 L 1008.4 -71.2 L 1041.6 -38 L 1069.6 -38 L 1069.6 -14 L 1041.6 -14 L 1008.4 19.2 L 1008.4 47.2 L 984.4 47.2 L 984.4 19.2 L 951.2 -14 Z" fill="#28666e" stroke="none" stroke-width="1"></path><path d="M 963.6 -26 L 972.9 -35.3 L 1005.7 -2.5 L 996.4 6.8 L 987.1 -2.5 L 1019.9 -35.3 L 1029.2 -26 L 1019.9 -16.7 L 987.1 -49.5 L 996.4 -58.8 L 1005.7 -49.5 L 972.9 -16.7 Z" fill="#FEDC97" stroke="none" stroke-width="1"></path><path d="M 1008.4 -99.2 L 1036.4 -99.2 L 1069.6 -66 L 1069.6 -38 L 1041.6 -38 L 1008.4 -71.2 Z" fill="#033f63" stroke="none" stroke-width="1"></path><path d="M 1069.6 -14 L 1069.6 14 L 1036.4 47.2 L 1008.4 47.2 L 1008.4 19.2 L 1041.6 -14 Z" fill="#033f63" stroke="none" stroke-width="1"></path><path d="M 984.4 47.2 L 956.4 47.2 L 923.2 14 L 923.2 -14 L 951.2 -14 L 984.4 19.2 Z" fill="#033f63" stroke="none" stroke-width="1"></path><path d="M 923.2 -38 L 923.2 -66 L 956.4 -99.2 L 984.4 -99.2 L 984.4 -71.2 L 951.2 -38 Z" fill="#033f63" stroke="none" stroke-width="1"></path><path d="M 838 241.6 L 838 217.6 L 866 217.6 L 899.2 184.4 L 899.2 156.4 L 923.2 156.4 L 923.2 184.4 L 956.4 217.6 L 984.4 217.6 L 984.4 241.6 L 956.4 241.6 L 923.2 274.8 L 923.2 302.8 L 899.2 302.8 L 899.2 274.8 L 866 241.6 Z" fill="#28666e" stroke="none" stroke-width="1"></path><path d="M 878.4 229.6 L 887.7 220.3 L 920.5 253.1 L 911.2 262.4 L 901.9 253.1 L 934.7 220.3 L 944 229.6 L 934.7 238.9 L 901.9 206.1 L 911.2 196.8 L 920.5 206.1 L 887.7 238.9 Z" fill="#FEDC97" stroke="none" stroke-width="1"></path><path d="M 923.2 156.4 L 923.2 132.4 L 951.2 132.4 L 984.4 99.2 L 984.4 71.2 L 1008.4 71.2 L 1008.4 99.2 L 1041.6 132.4 L 1069.6 132.4 L 1069.6 156.4 L 1041.6 156.4 L 1008.4 189.6 L 1008.4 217.6 L 984.4 217.6 L 984.4 189.6 L 951.2 156.4 Z" fill="#28666e" stroke="none" stroke-width="1"></path><path d="M 963.6 144.4 L 972.9 135.1 L 1005.7 167.9 L 996.4 177.2 L 987.1 167.9 L 1019.9 135.1 L 1029.2 144.4 L 1019.9 153.7 L 987.1 120.9 L 996.4 111.6 L 1005.7 120.9 L 972.9 153.7 Z" fill="#FEDC97" stroke="none" stroke-width="1"></path><path d="M 1008.4 71.2 L 1036.4 71.2 L 1069.6 104.4 L 1069.6 132.4 L 1041.6 132.4 L 1008.4 99.2 Z" fill="#033f63" stroke="none" stroke-width="1"></path><path d="M 1069.6 156.4 L 1069.6 184.4 L 1036.4 217.6 L 1008.4 217.6 L 1008.4 189.6 L 1041.6 156.4 Z" fill="#033f63" stroke="none" stroke-width="1"></path><path d="M 984.4 217.6 L 956.4 217.6 L 923.2 184.4 L 923.2 156.4 L 951.2 156.4 L 984.4 189.6 Z" fill="#033f63" stroke="none" stroke-width="1"></path><path d="M 923.2 132.4 L 923.2 104.4 L 956.4 71.2 L 984.4 71.2 L 984.4 99.2 L 951.2 132.4 Z" fill="#033f63" stroke="none" stroke-width="1"></path><path d="M 838 412 L 838 388 L 866 388 L 899.2 354.8 L 899.2 326.8 L 923.2 326.8 L 923.2 354.8 L 956.4 388 L 984.4 388 L 984.4 412 L 956.4 412 L 923.2 445.2 L 923.2 473.2 L 899.2 473.2 L 899.2 445.2 L 866 412 Z" fill="#28666e" stroke="none" stroke-width="1"></path><path d="M 878.4 400 L 887.7 390.7 L 920.5 423.5 L 911.2 432.8 L 901.9 423.5 L 934.7 390.7 L 944 400 L 934.7 409.3 L 901.9 376.5 L 911.2 367.2 L 920.5 376.5 L 887.7 409.3 Z" fill="#FEDC97" stroke="none" stroke-width="1"></path><path d="M 923.2 326.8 L 923.2 302.8 L 951.2 302.8 L 984.4 269.6 L 984.4 241.6 L 1008.4 241.6 L 1008.4 269.6 L 1041.6 302.8 L 1069.6 302.8 L 1069.6 326.8 L 1041.6 326.8 L 1008.4 360 L 1008.4 388 L 984.4 388 L 984.4 360 L 951.2 326.8 Z" fill="#28666e" stroke="none" stroke-width="1"></path><path d="M 963.6 314.8 L 972.9 305.5 L 1005.7 338.3 L 996.4 347.6 L 987.1 338.3 L 1019.9 305.5 L 1029.2 314.8 L 1019.9 324.1 L 987.1 291.3 L 996.4 282 L 1005.7 291.3 L 972.9 324.1 Z" fill="#FEDC97" stroke="none" stroke-width="1"></path><path d="M 1008.4 241.6 L 1036.4 241.6 L 1069.6 274.8 L 1069.6 302.8 L 1041.6 302.8 L 1008.4 269.6 Z" fill="#033f63" stroke="none" stroke-width="1"></path><path d="M 1069.6 326.8 L 1069.6 354.8 L 1036.4 388 L 1008.4 388 L 1008.4 360 L 1041.6 326.8 Z" fill="#033f63" stroke="none" stroke-width="1"></path><path d="M 984.4 388 L 956.4 388 L 923.2 354.8 L 923.2 326.8 L 951.2 326.8 L 984.4 360 Z" fill="#033f63" stroke="none" stroke-width="1"></path><path d="M 923.2 302.8 L 923.2 274.8 L 956.4 241.6 L 984.4 241.6 L 984.4 269.6 L 951.2 302.8 Z" fill="#033f63" stroke="none" stroke-width="1"></path><path d="M 838 582.4 L 838 558.4 L 866 558.4 L 899.2 525.2 L 899.2 497.2 L 923.2 497.2 L 923.2 525.2 L 956.4 558.4 L 984.4 558.4 L 984.4 582.4 L 956.4 582.4 L 923.2 615.6 L 923.2 643.6 L 899.2 643.6 L 899.2 615.6 L 866 582.4 Z" fill="#28666e" stroke="none" stroke-width="1"></path><path d="M 878.4 570.4 L 887.7 561.1 L 920.5 593.9 L 911.2 603.2 L 901.9 593.9 L 934.7 561.1 L 944 570.4 L 934.7 579.7 L 901.9 546.9 L 911.2 537.6 L 920.5 546.9 L 887.7 579.7 Z" fill="#FEDC97" stroke="none" stroke-width="1"></path><path d="M 923.2 497.2 L 923.2 473.2 L 951.2 473.2 L 984.4 440 L 984.4 412 L 1008.4 412 L 1008.4 440 L 1041.6 473.2 L 1069.6 473.2 L 1069.6 497.2 L 1041.6 497.2 L 1008.4 530.4 L 1008.4 558.4 L 984.4 558.4 L 984.4 530.4 L 951.2 497.2 Z" fill="#28666e" stroke="none" stroke-width="1"></path><path d="M 963.6 485.2 L 972.9 475.9 L 1005.7 508.7 L 996.4 518 L 987.1 508.7 L 1019.9 475.9 L 1029.2 485.2 L 1019.9 494.5 L 987.1 461.7 L 996.4 452.4 L 1005.7 461.7 L 972.9 494.5 Z" fill="#FEDC97" stroke="none" stroke-width="1"></path><path d="M 1008.4 412 L 1036.4 412 L 1069.6 445.2 L 1069.6 473.2 L 1041.6 473.2 L 1008.4 440 Z" fill="#033f63" stroke="none" stroke-width="1"></path><path d="M 1069.6 497.2 L 1069.6 525.2 L 1036.4 558.4 L 1008.4 558.4 L 1008.4 530.4 L 1041.6 497.2 Z" fill="#033f63" stroke="none" stroke-width="1"></path><path d="M 984.4 558.4 L 956.4 558.4 L 923.2 525.2 L 923.2 497.2 L 951.2 497.2 L 984.4 530.4 Z" fill="#033f63" stroke="none" stroke-width="1"></path><path d="M 923.2 473.2 L 923.2 445.2 L 956.4 412 L 984.4 412 L 984.4 440 L 951.2 473.2 Z" fill="#033f63" stroke="none" stroke-width="1"></path><path d="M 838 752.8 L 838 728.8 L 866 728.8 L 899.2 695.6 L 899.2 667.6 L 923.2 667.6 L 923.2 695.6 L 956.4 728.8 L 984.4 728.8 L 984.4 752.8 L 956.4 752.8 L 923.2 786 L 923.2 814 L 899.2 814 L 899.2 786 L 866 752.8 Z" fill="#28666e" stroke="none" stroke-width="1"></path><path d="M 878.4 740.8 L 887.7 731.5 L 920.5 764.3 L 911.2 773.6 L 901.9 764.3 L 934.7 731.5 L 944 740.8 L 934.7 750.1 L 901.9 717.3 L 911.2 708 L 920.5 717.3 L 887.7 750.1 Z" fill="#FEDC97" stroke="none" stroke-width="1"></path><path d="M 923.2 667.6 L 923.2 643.6 L 951.2 643.6 L 984.4 610.4 L 984.4 582.4 L 1008.4 582.4 L 1008.4 610.4 L 1041.6 643.6 L 1069.6 643.6 L 1069.6 667.6 L 1041.6 667.6 L 1008.4 700.8 L 1008.4 728.8 L 984.4 728.8 L 984.4 700.8 L 951.2 667.6 Z" fill="#28666e" stroke="none" stroke-width="1"></path><path d="M 963.6 655.6 L 972.9 646.3 L 1005.7 679.1 L 996.4 688.4 L 987.1 679.1 L 1019.9 646.3 L 1029.2 655.6 L 1019.9 664.9 L 987.1 632.1 L 996.4 622.8 L 1005.7 632.1 L 972.9 664.9 Z" fill="#FEDC97" stroke="none" stroke-width="1"></path><path d="M 1008.4 582.4 L 1036.4 582.4 L 1069.6 615.6 L 1069.6 643.6 L 1041.6 643.6 L 1008.4 610.4 Z" fill="#033f63" stroke="none" stroke-width="1"></path><path d="M 1069.6 667.6 L 1069.6 695.6 L 1036.4 728.8 L 1008.4 728.8 L 1008.4 700.8 L 1041.6 667.6 Z" fill="#033f63" stroke="none" stroke-width="1"></path><path d="M 984.4 728.8 L 956.4 728.8 L 923.2 695.6 L 923.2 667.6 L 951.2 667.6 L 984.4 700.8 Z" fill="#033f63" stroke="none" stroke-width="1"></path><path d="M 923.2 643.6 L 923.2 615.6 L 956.4 582.4 L 984.4 582.4 L 984.4 610.4 L 951.2 643.6 Z" fill="#033f63" stroke="none" stroke-width="1"></path><path d="M 838 923.2 L 838 899.2 L 866 899.2 L 899.2 866 L 899.2 838 L 923.2 838 L 923.2 866 L 956.4 899.2 L 984.4 899.2 L 984.4 923.2 L 956.4 923.2 L 923.2 956.4 L 923.2 984.4 L 899.2 984.4 L 899.2 956.4 L 866 923.2 Z" fill="#28666e" stroke="none" stroke-width="1"></path><path d="M 878.4 911.2 L 887.7 901.9 L 920.5 934.7 L 911.2 944 L 901.9 934.7 L 934.7 901.9 L 944 911.2 L 934.7 920.5 L 901.9 887.7 L 911.2 878.4 L 920.5 887.7 L 887.7 920.5 Z" fill="#FEDC97" stroke="none" stroke-width="1"></path><path d="M 923.2 838 L 923.2 814 L 951.2 814 L 984.4 780.8 L 984.4 752.8 L 1008.4 752.8 L 1008.4 780.8 L 1041.6 814 L 1069.6 814 L 1069.6 838 L 1041.6 838 L 1008.4 871.2 L 1008.4 899.2 L 984.4 899.2 L 984.4 871.2 L 951.2 838 Z" fill="#28666e" stroke="none" stroke-width="1"></path><path d="M 963.6 826 L 972.9 816.7 L 1005.7 849.5 L 996.4 858.8 L 987.1 849.5 L 1019.9 816.7 L 1029.2 826 L 1019.9 835.3 L 987.1 802.5 L 996.4 793.2 L 1005.7 802.5 L 972.9 835.3 Z" fill="#FEDC97" stroke="none" stroke-width="1"></path><path d="M 1008.4 752.8 L 1036.4 752.8 L 1069.6 786 L 1069.6 814 L 1041.6 814 L 1008.4 780.8 Z" fill="#033f63" stroke="none" stroke-width="1"></path><path d="M 1069.6 838 L 1069.6 866 L 1036.4 899.2 L 1008.4 899.2 L 1008.4 871.2 L 1041.6 838 Z" fill="#033f63" stroke="none" stroke-width="1"></path><path d="M 984.4 899.2 L 956.4 899.2 L 923.2 866 L 923.2 838 L 951.2 838 L 984.4 871.2 Z" fill="#033f63" stroke="none" stroke-width="1"></path><path d="M 923.2 814 L 923.2 786 L 956.4 752.8 L 984.4 752.8 L 984.4 780.8 L 951.2 814 Z" fill="#033f63" stroke="none" stroke-width="1"></path><ellipse cx="400" cy="400" rx="600" ry="600" fill="none" stroke="white" stroke-width="560"></ellipse></svg>