<svg viewBox="0 0 800 800" preserveAspectRatio="xMidYMin slice" xmlns="http://www.w3.org/2000/svg" xlink="http://www.w3.org/1999/xlink"><defs><g id="unit-27"><path d="M -73.2 12 L -73.2 -12 L -45.2 -12 L -12 -45.2 L -12 -73.2 L 12 -73.2 L 12 -45.2 L 45.2 -12 L 73.2 -12 L 73.2 12 L 45.2 12 L 12 45.2 L 12 73.2 L -12 73.2 L -12 45.2 L -45.2 12 Z" fill="#28666e" stroke="none" stroke-width="1"></path><path d="M -32.8 0 L -23.5 -9.3 L 9.3 23.5 L 0 32.8 L -9.3 23.5 L 23.5 -9.3 L 32.8 0 L 23.5 9.3 L -9.3 -23.5 L 0 -32.8 L 9.3 -23.5 L -23.5 9.3 Z" fill="#FEDC97" stroke="none" stroke-width="1"></path><path d="M 12 -73.2 L 12 -97.2 L 40 -97.2 L 73.2 -130.4 L 73.2 -158.4 L 97.2 -158.4 L 97.2 -130.4 L 130.4 -97.2 L 158.4 -97.2 L 158.4 -73.2 L 130.4 -73.2 L 97.2 -40 L 97.2 -12 L 73.2 -12 L 73.2 -40 L 40 -73.2 Z" fill="#28666e" stroke="none" stroke-width="1"></path><path d="M 52.4 -85.2 L 61.7 -94.5 L 94.5 -61.7 L 85.2 -52.4 L 75.9 -61.7 L 108.7 -94.5 L 118 -85.2 L 108.7 -75.9 L 75.9 -108.7 L 85.2 -118 L 94.5 -108.7 L 61.7 -75.9 Z" fill="#FEDC97" stroke="none" stroke-width="1"></path><path d="M 97.2 -158.4 L 125.2 -158.4 L 158.4 -125.2 L 158.4 -97.2 L 130.4 -97.2 L 97.2 -130.4 Z" fill="#033f63" stroke="none" stroke-width="1"></path><path d="M 158.4 -73.2 L 158.4 -45.2 L 125.2 -12 L 97.2 -12 L 97.2 -40 L 130.4 -73.2 Z" fill="#033f63" stroke="none" stroke-width="1"></path><path d="M 73.2 -12 L 45.2 -12 L 12 -45.2 L 12 -73.2 L 40 -73.2 L 73.2 -40 Z" fill="#033f63" stroke="none" stroke-width="1"></path><path d="M 12 -97.2 L 12 -125.2 L 45.2 -158.4 L 73.2 -158.4 L 73.2 -130.4 L 40 -97.2 Z" fill="#033f63" stroke="none" stroke-width="1"></path></g></defs><rect x="0" y="0" width="800" height="800" fill="#7c9885"></rect><use href="#unit-27" transform="translate(-111.2, -111.2)"></use><use href="#unit-27" transform="translate(-111.2, 59.2)"></use><use href="#unit-27" transform="translate(-111.2, 229.6)"></use><use href="#unit-27" transform="translate(-111.2, 400)"></use><use href="#unit-27" transform="translate(-111.2, 570.4)"></use><use href="#unit-27" transform="translate(-111.2, 740.8)"></use><use href="#unit-27" transform="translate(-111.2, 911.2)"></use><use href="#unit-27" transform="translate(59.2, -111.2)"></use><use href="#unit-27" transform="translate(59.2, 59.2)"></use><use href="#unit-27" transform="translate(59.2, 229.6)"></use><use href="#unit-27" transform="translate(59.2, 400)"></use><use href="#unit-27" transform="translate(59.2, 570.4)"></use><use href="#unit-27" transform="translate(59.2, 740.8)"></use><use href="#unit-27" transform="translate(59.2, 911.2)"></use><use href="#unit-27" transform="translate(229.6, -111.2)"></use><use href="#unit-27" transform="translate(229.6, 59.2)"></use><use href="#unit-27" transform="translate(229.6, 229.6)"></use><use href="#unit-27" transform="translate(229.6, 400)"></use><use href="#unit-27" transform="translate(229.6, 570.4)"></use><use href="#unit-27" transform="translate(229.6, 740.8)"></use><use href="#unit-27" transform="translate(229.6, 911.2)"></use><use href="#unit-27" transform="translate(400, -111.2)"></use><use href="#unit-27" transform="translate(400, 59.2)"></use><use href="#unit-27" transform="translate(400, 229.6)"></use><use href="#unit-27" transform="translate(400, 400)"></use><use href="#unit-27" transform="translate(400, 570.4)"></use><use href="#unit-27" transform="translate(400, 740.8)"></use><use href="#unit-27" transform="translate(400, 911.2)"></use><use href="#unit-27" transform="translate(570.4, -111.2)"></use><use href="#unit-27" transform="translate(570.4, 59.2)"></use><use href="#unit-27" transform="translate(570.4, 229.6)"></use><use href="#unit-27" transform="translate(570.4, 400)"></use><use href="#unit-27" transform="translate(570.4, 570.4)"></use><use href="#unit-27" transform="translate(570.4, 740.8)"></use><use href="#unit-27" transform="translate(570.4, 911.2)"></use><use href="#unit-27" transform="translate(740.8, -111.2)"></use><use href="#unit-27" transform="translate(740.8, 59.2)"></use><use href="#unit-27" transform="translate(740.8, 229.6)"></use><use href="#unit-27" transform="translate(740.8, 400)"></use><use href="#unit-27" transform="translate(740.8, 570.4)"></use><use href="#unit-27" transform="translate(740.8, 740.8)"></use><use href="#unit-27" transform="translate(740.8, 911.2)"></use><use href="#unit-27" transform="translate(911.2, -111.2)"></use><use href="#unit-27" transform="translate(911.2, 59.2)"></use><use href="#unit-27" transform="translate(911.2, 229.6)"></use><use href="#unit-27" transform="translate(911.2, 400)"></use><use href="#unit-27" transform="translate(911.2, 570.4)"></use><use href="#unit-27" transform="translate(911.2, 740.8)"></use><use href="#unit-27" transform="translate(911.2, 911.2)"></use><ellipse cx="400" cy="400" rx="600" ry="600" fill="none" stroke="white" stroke-width="560"></ellipse></svg>