<svg viewBox="0 0 800 800" preserveAspectRatio="xMidYMin slice" xmlns="http://www.w3.org/2000/svg" xlink="http://www.w3.org/1999/xlink"><defs><g id="unit-28"><path d="M -68.6 105 L -4.2 105 L -4.2 40.6 L -32.2 40.6 L -32.2 77 L -68.6 77 Z" fill="#f0eaeb" stroke="none" stroke-width="1"></path><path d="M 68.6 105 L 4.2 105 L 4.2 40.6 L 32.2 40.6 L 32.2 77 L 68.6 77 Z" fill="#f0eaeb" stroke="none" stroke-width="1"></path><path d="M -68.6 -105 L -4.2 -105 L -4.2 -40.6 L -32.2 -40.6 L -32.2 -77 L -68.6 -77 Z" fill="#f0eaeb" stroke="none" stroke-width="1"></path><path d="M 68.6 -105 L 4.2 -105 L 4.2 -40.6 L 32.2 -40.6 L 32.2 -77 L 68.6 -77 Z" fill="#f0eaeb" stroke="none" stroke-width="1"></path><path d="M -68.6 -68.6 L -40.6 -68.6 L -40.6 68.6 L -68.6 68.6 Z" fill="#8f8593" stroke="none" stroke-width="1"></path><path d="M 40.6 -68.6 L 68.6 -68.6 L 68.6 68.6 L 40.6 68.6 Z" fill="#8f8593" stroke="none" stroke-width="1"></path><path d="M -32.2 -32.2 L -4.2 -32.2 L -4.2 -15.1 L -22.4 -15.1 L -22.4 11.5 L -14 11.5 L -14 -6.7 L 4.2 -6.7 L 4.2 -32.2 L 32.2 -32.2 L 32.2 32.2 L 4.2 32.2 L 4.2 15.1 L 22.4 15.1 L 22.4 -11.5 L 14 -11.5 L 14 6.7 L -4.2 6.7 L -4.2 32.2 L -32.2 32.2 Z" fill="#d4cfd8" stroke="none" stroke-width="1"></path><path d="M 77 -68.6 L 77 -4.2 L 141.4 -4.2 L 141.4 -32.2 L 105 -32.2 L 105 -68.6 Z" fill="#f0eaeb" stroke="none" stroke-width="1"></path><path d="M 77 68.6 L 77 4.2 L 141.4 4.2 L 141.4 32.2 L 105 32.2 L 105 68.6 Z" fill="#f0eaeb" stroke="none" stroke-width="1"></path><path d="M 287 -68.6 L 287 -4.2 L 222.6 -4.2 L 222.6 -32.2 L 259 -32.2 L 259 -68.6 Z" fill="#f0eaeb" stroke="none" stroke-width="1"></path><path d="M 287 68.6 L 287 4.2 L 222.6 4.2 L 222.6 32.2 L 259 32.2 L 259 68.6 Z" fill="#f0eaeb" stroke="none" stroke-width="1"></path><path d="M 250.6 -68.6 L 250.6 -40.6 L 113.4 -40.6 L 113.4 -68.6 Z" fill="#8f8593" stroke="none" stroke-width="1"></path><path d="M 250.6 40.6 L 250.6 68.6 L 113.4 68.6 L 113.4 40.6 Z" fill="#8f8593" stroke="none" stroke-width="1"></path><path d="M 214.2 -32.2 L 214.2 -4.2 L 197.1 -4.2 L 197.1 -22.4 L 170.5 -22.4 L 170.5 -14 L 188.7 -14 L 188.7 4.2 L 214.2 4.2 L 214.2 32.2 L 149.8 32.2 L 149.8 4.2 L 166.9 4.2 L 166.9 22.4 L 193.5 22.4 L 193.5 14 L 175.3 14 L 175.3 -4.2 L 149.8 -4.2 L 149.8 -32.2 Z" fill="#d4cfd8" stroke="none" stroke-width="1"></path><path d="M 77 -105 L 105 -105 L 105 -77 L 77 -77 Z" fill="#d4cfd8" stroke="none" stroke-width="1"></path><path d="M -105 -105 L -77 -105 L -77 -77 L -105 -77 Z" fill="#d4cfd8" stroke="none" stroke-width="1"></path></g></defs><rect x="0" y="0" width="800" height="800" fill="#2b3140"></rect><use href="#unit-28" transform="translate(-1238, -146)"></use><use href="#unit-28" transform="translate(-1056, 36)"></use><use href="#unit-28" transform="translate(-874, 218)"></use><use href="#unit-28" transform="translate(-692, 400)"></use><use href="#unit-28" transform="translate(-510, 582)"></use><use href="#unit-28" transform="translate(-328, 764)"></use><use href="#unit-28" transform="translate(-146, 946)"></use><use href="#unit-28" transform="translate(-874, -146)"></use><use href="#unit-28" transform="translate(-692, 36)"></use><use href="#unit-28" transform="translate(-510, 218)"></use><use href="#unit-28" transform="translate(-328, 400)"></use><use href="#unit-28" transform="translate(-146, 582)"></use><use href="#unit-28" transform="translate(36, 764)"></use><use href="#unit-28" transform="translate(218, 946)"></use><use href="#unit-28" transform="translate(-510, -146)"></use><use href="#unit-28" transform="translate(-328, 36)"></use><use href="#unit-28" transform="translate(-146, 218)"></use><use href="#unit-28" transform="translate(36, 400)"></use><use href="#unit-28" transform="translate(218, 582)"></use><use href="#unit-28" transform="translate(400, 764)"></use><use href="#unit-28" transform="translate(582, 946)"></use><use href="#unit-28" transform="translate(-146, -146)"></use><use href="#unit-28" transform="translate(36, 36)"></use><use href="#unit-28" transform="translate(218, 218)"></use><use href="#unit-28" transform="translate(400, 400)"></use><use href="#unit-28" transform="translate(582, 582)"></use><use href="#unit-28" transform="translate(764, 764)"></use><use href="#unit-28" transform="translate(946, 946)"></use><use href="#unit-28" transform="translate(218, -146)"></use><use href="#unit-28" transform="translate(400, 36)"></use><use href="#unit-28" transform="translate(582, 218)"></use><use href="#unit-28" transform="translate(764, 400)"></use><use href="#unit-28" transform="translate(946, 582)"></use><use href="#unit-28" transform="translate(1128, 764)"></use><use href="#unit-28" transform="translate(1310, 946)"></use><use href="#unit-28" transform="translate(582, -146)"></use><use href="#unit-28" transform="translate(764, 36)"></use><use href="#unit-28" transform="translate(946, 218)"></use><use href="#unit-28" transform="translate(1128, 400)"></use><use href="#unit-28" transform="translate(1310, 582)"></use><use href="#unit-28" transform="translate(1492, 764)"></use><use href="#unit-28" transform="translate(1674, 946)"></use><use href="#unit-28" transform="translate(946, -146)"></use><use href="#unit-28" transform="translate(1128, 36)"></use><use href="#unit-28" transform="translate(1310, 218)"></use><use href="#unit-28" transform="translate(1492, 400)"></use><use href="#unit-28" transform="translate(1674, 582)"></use><use href="#unit-28" transform="translate(1856, 764)"></use><use href="#unit-28" transform="translate(2038, 946)"></use><ellipse cx="400" cy="400" rx="600" ry="600" fill="none" stroke="white" stroke-width="560"></ellipse><ellipse cx="400" cy="400" rx="320" ry="320" fill="none" stroke="#2b3140" stroke-width="8.4"></ellipse></svg>