<svg viewBox="0 0 800 800" preserveAspectRatio="xMidYMin slice" xmlns="http://www.w3.org/2000/svg"><path d="M -1040 0 Q -1015 35, -980 35 Q -945 35, -920 0 Q -960 -20.9, -960 -50 Q -960 -79.1, -920 -100 Q -945 -135, -980 -135 Q -1015 -135, -1040 -100 Q -1000 -79.1, -1000 -50 Q -1000 -20.9, -1040 0 Z" fill="#450503" stroke="#dab785" stroke-width="3"></path><path d="M -920 0 Q -895 -35, -860 -35 Q -825 -35, -800 0 Q -760 -20.9, -760 -50 Q -760 -79.1, -800 -100 Q -825 -65, -860 -65 Q -895 -65, -920 -100 Q -960 -79.1, -960 -50 Q -960 -20.9, -920 0 Z" fill="#5E0411" stroke="#dab785" stroke-width="3"></path><path d="M -1040 -100 Q -1000 -79.1, -1000 -50 Q -1000 -20.9, -1040 0" fill="none" stroke="#dab785" stroke-width="6"></path><path d="M -920 -100 Q -960 -79.1, -960 -50 Q -960 -20.9, -920 0" fill="none" stroke="#dab785" stroke-width="6"></path><path d="M -920 100 Q -895 135, -860 135 Q -825 135, -800 100 Q -840 79.1, -840 50 Q -840 20.9, -800 0 Q -825 -35, -860 -35 Q -895 -35, -920 0 Q -880 20.9, -880 50 Q -880 79.1, -920 100 Z" fill="#450503" stroke="#dab785" stroke-width="3"></path><path d="M -800 100 Q -775 65, -740 65 Q -705 65, -680 100 Q -640 79.1, -640 50 Q -640 20.9, -680 0 Q -705 35, -740 35 Q -775 35, -800 0 Q -840 20.9, -840 50 Q -840 79.1, -800 100 Z" fill="#5E0411" stroke="#dab785" stroke-width="3"></path><path d="M -920 0 Q -880 20.9, -880 50 Q -880 79.1, -920 100" fill="none" stroke="#dab785" stroke-width="6"></path><path d="M -800 0 Q -840 20.9, -840 50 Q -840 79.1, -800 100" fill="none" stroke="#dab785" stroke-width="6"></path><path d="M -800 200 Q -775 235, -740 235 Q -705 235, -680 200 Q -720 179.1, -720 150 Q -720 120.9, -680 100 Q -705 65, -740 65 Q -775 65, -800 100 Q -760 120.9, -760 150 Q -760 179.1, -800 200 Z" fill="#450503" stroke="#dab785" stroke-width="3"></path><path d="M -680 200 Q -655 165, -620 165 Q -585 165, -560 200 Q -520 179.1, -520 150 Q -520 120.9, -560 100 Q -585 135, -620 135 Q -655 135, -680 100 Q -720 120.9, -720 150 Q -720 179.1, -680 200 Z" fill="#5E0411" stroke="#dab785" stroke-width="3"></path><path d="M -800 100 Q -760 120.9, -760 150 Q -760 179.1, -800 200" fill="none" stroke="#dab785" stroke-width="6"></path><path d="M -680 100 Q -720 120.9, -720 150 Q -720 179.1, -680 200" fill="none" stroke="#dab785" stroke-width="6"></path><path d="M -680 300 Q -655 335, -620 335 Q -585 335, -560 300 Q -600 279.1, -600 250 Q -600 220.9, -560 200 Q -585 165, -620 165 Q -655 165, -680 200 Q -640 220.9, -640 250 Q -640 279.1, -680 300 Z" fill="#450503" stroke="#dab785" stroke-width="3"></path><path d="M -560 300 Q -535 265, -500 265 Q -465 265, -440 300 Q -400 279.1, -400 250 Q -400 220.9, -440 200 Q -465 235, -500 235 Q -535 235, -560 200 Q -600 220.9, -600 250 Q -600 279.1, -560 300 Z" fill="#5E0411" stroke="#dab785" stroke-width="3"></path><path d="M -680 200 Q -640 220.9, -640 250 Q -640 279.1, -680 300" fill="none" stroke="#dab785" stroke-width="6"></path><path d="M -560 200 Q -600 220.9, -600 250 Q -600 279.1, -560 300" fill="none" stroke="#dab785" stroke-width="6"></path><path d="M -560 400 Q -535 435, -500 435 Q -465 435, -440 400 Q -480 379.1, -480 350 Q -480 320.9, -440 300 Q -465 265, -500 265 Q -535 265, -560 300 Q -520 320.9, -520 350 Q -520 379.1, -560 400 Z" fill="#450503" stroke="#dab785" stroke-width="3"></path><path d="M -440 400 Q -415 365, -380 365 Q -345 365, -320 400 Q -280 379.1, -280 350 Q -280 320.9, -320 300 Q -345 335, -380 335 Q -415 335, -440 300 Q -480 320.9, -480 350 Q -480 379.1, -440 400 Z" fill="#5E0411" stroke="#dab785" stroke-width="3"></path><path d="M -560 300 Q -520 320.9, -520 350 Q -520 379.1, -560 400" fill="none" stroke="#dab785" stroke-width="6"></path><path d="M -440 300 Q -480 320.9, -480 350 Q -480 379.1, -440 400" fill="none" stroke="#dab785" stroke-width="6"></path><path d="M -440 500 Q -415 535, -380 535 Q -345 535, -320 500 Q -360 479.1, -360 450 Q -360 420.9, -320 400 Q -345 365, -380 365 Q -415 365, -440 400 Q -400 420.9, -400 450 Q -400 479.1, -440 500 Z" fill="#450503" stroke="#dab785" stroke-width="3"></path><path d="M -320 500 Q -295 465, -260 465 Q -225 465, -200 500 Q -160 479.1, -160 450 Q -160 420.9, -200 400 Q -225 435, -260 435 Q -295 435, -320 400 Q -360 420.9, -360 450 Q -360 479.1, -320 500 Z" fill="#5E0411" stroke="#dab785" stroke-width="3"></path><path d="M -440 400 Q -400 420.9, -400 450 Q -400 479.1, -440 500" fill="none" stroke="#dab785" stroke-width="6"></path><path d="M -320 400 Q -360 420.9, -360 450 Q -360 479.1, -320 500" fill="none" stroke="#dab785" stroke-width="6"></path><path d="M -320 600 Q -295 635, -260 635 Q -225 635, -200 600 Q -240 579.1, -240 550 Q -240 520.9, -200 500 Q -225 465, -260 465 Q -295 465, -320 500 Q -280 520.9, -280 550 Q -280 579.1, -320 600 Z" fill="#450503" stroke="#dab785" stroke-width="3"></path><path d="M -200 600 Q -175 565, -140 565 Q -105 565, -80 600 Q -40 579.1, -40 550 Q -40 520.9, -80 500 Q -105 535, -140 535 Q -175 535, -200 500 Q -240 520.9, -240 550 Q -240 579.1, -200 600 Z" fill="#5E0411" stroke="#dab785" stroke-width="3"></path><path d="M -320 500 Q -280 520.9, -280 550 Q -280 579.1, -320 600" fill="none" stroke="#dab785" stroke-width="6"></path><path d="M -200 500 Q -240 520.9, -240 550 Q -240 579.1, -200 600" fill="none" stroke="#dab785" stroke-width="6"></path><path d="M -200 700 Q -175 735, -140 735 Q -105 735, -80 700 Q -120 679.1, -120 650 Q -120 620.9, -80 600 Q -105 565, -140 565 Q -175 565, -200 600 Q -160 620.9, -160 650 Q -160 679.1, -200 700 Z" fill="#450503" stroke="#dab785" stroke-width="3"></path><path d="M -80 700 Q -55 665, -20 665 Q 15 665, 40 700 Q 80 679.1, 80 650 Q 80 620.9, 40 600 Q 15 635, -20 635 Q -55 635, -80 600 Q -120 620.9, -120 650 Q -120 679.1, -80 700 Z" fill="#5E0411" stroke="#dab785" stroke-width="3"></path><path d="M -200 600 Q -160 620.9, -160 650 Q -160 679.1, -200 700" fill="none" stroke="#dab785" stroke-width="6"></path><path d="M -80 600 Q -120 620.9, -120 650 Q -120 679.1, -80 700" fill="none" stroke="#dab785" stroke-width="6"></path><path d="M -80 800 Q -55 835, -20 835 Q 15 835, 40 800 Q 0 779.1, 0 750 Q 0 720.9, 40 700 Q 15 665, -20 665 Q -55 665, -80 700 Q -40 720.9, -40 750 Q -40 779.1, -80 800 Z" fill="#450503" stroke="#dab785" stroke-width="3"></path><path d="M 40 800 Q 65 765, 100 765 Q 135 765, 160 800 Q 200 779.1, 200 750 Q 200 720.9, 160 700 Q 135 735, 100 735 Q 65 735, 40 700 Q 0 720.9, 0 750 Q 0 779.1, 40 800 Z" fill="#5E0411" stroke="#dab785" stroke-width="3"></path><path d="M -80 700 Q -40 720.9, -40 750 Q -40 779.1, -80 800" fill="none" stroke="#dab785" stroke-width="6"></path><path d="M 40 700 Q 0 720.9, 0 750 Q 0 779.1, 40 800" fill="none" stroke="#dab785" stroke-width="6"></path><path d="M -800 0 Q -775 35, -740 35 Q -705 35, -680 0 Q -720 -20.9, -720 -50 Q -720 -79.1, -680 -100 Q -705 -135, -740 -135 Q -775 -135, -800 -100 Q -760 -79.1, -760 -50 Q -760 -20.9, -800 0 Z" fill="#450503" stroke="#dab785" stroke-width="3"></path><path d="M -680 0 Q -655 -35, -620 -35 Q -585 -35, -560 0 Q -520 -20.9, -520 -50 Q -520 -79.1, -560 -100 Q -585 -65, -620 -65 Q -655 -65, -680 -100 Q -720 -79.1, -720 -50 Q -720 -20.9, -680 0 Z" fill="#5E0411" stroke="#dab785" stroke-width="3"></path><path d="M -800 -100 Q -760 -79.1, -760 -50 Q -760 -20.9, -800 0" fill="none" stroke="#dab785" stroke-width="6"></path><path d="M -680 -100 Q -720 -79.1, -720 -50 Q -720 -20.9, -680 0" fill="none" stroke="#dab785" stroke-width="6"></path><path d="M -680 100 Q -655 135, -620 135 Q -585 135, -560 100 Q -600 79.1, -600 50 Q -600 20.9, -560 0 Q -585 -35, -620 -35 Q -655 -35, -680 0 Q -640 20.9, -640 50 Q -640 79.1, -680 100 Z" fill="#450503" stroke="#dab785" stroke-width="3"></path><path d="M -560 100 Q -535 65, -500 65 Q -465 65, -440 100 Q -400 79.1, -400 50 Q -400 20.9, -440 0 Q -465 35, -500 35 Q -535 35, -560 0 Q -600 20.9, -600 50 Q -600 79.1, -560 100 Z" fill="#5E0411" stroke="#dab785" stroke-width="3"></path><path d="M -680 0 Q -640 20.9, -640 50 Q -640 79.1, -680 100" fill="none" stroke="#dab785" stroke-width="6"></path><path d="M -560 0 Q -600 20.9, -600 50 Q -600 79.1, -560 100" fill="none" stroke="#dab785" stroke-width="6"></path><path d="M -560 200 Q -535 235, -500 235 Q -465 235, -440 200 Q -480 179.1, -480 150 Q -480 120.9, -440 100 Q -465 65, -500 65 Q -535 65, -560 100 Q -520 120.9, -520 150 Q -520 179.1, -560 200 Z" fill="#450503" stroke="#dab785" stroke-width="3"></path><path d="M -440 200 Q -415 165, -380 165 Q -345 165, -320 200 Q -280 179.1, -280 150 Q -280 120.9, -320 100 Q -345 135, -380 135 Q -415 135, -440 100 Q -480 120.9, -480 150 Q -480 179.1, -440 200 Z" fill="#5E0411" stroke="#dab785" stroke-width="3"></path><path d="M -560 100 Q -520 120.9, -520 150 Q -520 179.1, -560 200" fill="none" stroke="#dab785" stroke-width="6"></path><path d="M -440 100 Q -480 120.9, -480 150 Q -480 179.1, -440 200" fill="none" stroke="#dab785" stroke-width="6"></path><path d="M -440 300 Q -415 335, -380 335 Q -345 335, -320 300 Q -360 279.1, -360 250 Q -360 220.9, -320 200 Q -345 165, -380 165 Q -415 165, -440 200 Q -400 220.9, -400 250 Q -400 279.1, -440 300 Z" fill="#450503" stroke="#dab785" stroke-width="3"></path><path d="M -320 300 Q -295 265, -260 265 Q -225 265, -200 300 Q -160 279.1, -160 250 Q -160 220.9, -200 200 Q -225 235, -260 235 Q -295 235, -320 200 Q -360 220.9, -360 250 Q -360 279.1, -320 300 Z" fill="#5E0411" stroke="#dab785" stroke-width="3"></path><path d="M -440 200 Q -400 220.9, -400 250 Q -400 279.1, -440 300" fill="none" stroke="#dab785" stroke-width="6"></path><path d="M -320 200 Q -360 220.9, -360 250 Q -360 279.1, -320 300" fill="none" stroke="#dab785" stroke-width="6"></path><path d="M -320 400 Q -295 435, -260 435 Q -225 435, -200 400 Q -240 379.1, -240 350 Q -240 320.9, -200 300 Q -225 265, -260 265 Q -295 265, -320 300 Q -280 320.9, -280 350 Q -280 379.1, -320 400 Z" fill="#450503" stroke="#dab785" stroke-width="3"></path><path d="M -200 400 Q -175 365, -140 365 Q -105 365, -80 400 Q -40 379.1, -40 350 Q -40 320.9, -80 300 Q -105 335, -140 335 Q -175 335, -200 300 Q -240 320.9, -240 350 Q -240 379.1, -200 400 Z" fill="#5E0411" stroke="#dab785" stroke-width="3"></path><path d="M -320 300 Q -280 320.9, -280 350 Q -280 379.1, -320 400" fill="none" stroke="#dab785" stroke-width="6"></path><path d="M -200 300 Q -240 320.9, -240 350 Q -240 379.1, -200 400" fill="none" stroke="#dab785" stroke-width="6"></path><path d="M -200 500 Q -175 535, -140 535 Q -105 535, -80 500 Q -120 479.1, -120 450 Q -120 420.9, -80 400 Q -105 365, -140 365 Q -175 365, -200 400 Q -160 420.9, -160 450 Q -160 479.1, -200 500 Z" fill="#450503" stroke="#dab785" stroke-width="3"></path><path d="M -80 500 Q -55 465, -20 465 Q 15 465, 40 500 Q 80 479.1, 80 450 Q 80 420.9, 40 400 Q 15 435, -20 435 Q -55 435, -80 400 Q -120 420.9, -120 450 Q -120 479.1, -80 500 Z" fill="#5E0411" stroke="#dab785" stroke-width="3"></path><path d="M -200 400 Q -160 420.9, -160 450 Q -160 479.1, -200 500" fill="none" stroke="#dab785" stroke-width="6"></path><path d="M -80 400 Q -120 420.9, -120 450 Q -120 479.1, -80 500" fill="none" stroke="#dab785" stroke-width="6"></path><path d="M -80 600 Q -55 635, -20 635 Q 15 635, 40 600 Q 0 579.1, 0 550 Q 0 520.9, 40 500 Q 15 465, -20 465 Q -55 465, -80 500 Q -40 520.9, -40 550 Q -40 579.1, -80 600 Z" fill="#450503" stroke="#dab785" stroke-width="3"></path><path d="M 40 600 Q 65 565, 100 565 Q 135 565, 160 600 Q 200 579.1, 200 550 Q 200 520.9, 160 500 Q 135 535, 100 535 Q 65 535, 40 500 Q 0 520.9, 0 550 Q 0 579.1, 40 600 Z" fill="#5E0411" stroke="#dab785" stroke-width="3"></path><path d="M -80 500 Q -40 520.9, -40 550 Q -40 579.1, -80 600" fill="none" stroke="#dab785" stroke-width="6"></path><path d="M 40 500 Q 0 520.9, 0 550 Q 0 579.1, 40 600" fill="none" stroke="#dab785" stroke-width="6"></path><path d="M 40 700 Q 65 735, 100 735 Q 135 735, 160 700 Q 120 679.1, 120 650 Q 120 620.9, 160 600 Q 135 565, 100 565 Q 65 565, 40 600 Q 80 620.9, 80 650 Q 80 679.1, 40 700 Z" fill="#450503" stroke="#dab785" stroke-width="3"></path><path d="M 160 700 Q 185 665, 220 665 Q 255 665, 280 700 Q 320 679.1, 320 650 Q 320 620.9, 280 600 Q 255 635, 220 635 Q 185 635, 160 600 Q 120 620.9, 120 650 Q 120 679.1, 160 700 Z" fill="#5E0411" stroke="#dab785" stroke-width="3"></path><path d="M 40 600 Q 80 620.9, 80 650 Q 80 679.1, 40 700" fill="none" stroke="#dab785" stroke-width="6"></path><path d="M 160 600 Q 120 620.9, 120 650 Q 120 679.1, 160 700" fill="none" stroke="#dab785" stroke-width="6"></path><path d="M 160 800 Q 185 835, 220 835 Q 255 835, 280 800 Q 240 779.1, 240 750 Q 240 720.9, 280 700 Q 255 665, 220 665 Q 185 665, 160 700 Q 200 720.9, 200 750 Q 200 779.1, 160 800 Z" fill="#450503" stroke="#dab785" stroke-width="3"></path><path d="M 280 800 Q 305 765, 340 765 Q 375 765, 400 800 Q 440 779.1, 440 750 Q 440 720.9, 400 700 Q 375 735, 340 735 Q 305 735, 280 700 Q 240 720.9, 240 750 Q 240 779.1, 280 800 Z" fill="#5E0411" stroke="#dab785" stroke-width="3"></path><path d="M 160 700 Q 200 720.9, 200 750 Q 200 779.1, 160 800" fill="none" stroke="#dab785" stroke-width="6"></path><path d="M 280 700 Q 240 720.9, 240 750 Q 240 779.1, 280 800" fill="none" stroke="#dab785" stroke-width="6"></path><path d="M -560 0 Q -535 35, -500 35 Q -465 35, -440 0 Q -480 -20.9, -480 -50 Q -480 -79.1, -440 -100 Q -465 -135, -500 -135 Q -535 -135, -560 -100 Q -520 -79.1, -520 -50 Q -520 -20.9, -560 0 Z" fill="#450503" stroke="#dab785" stroke-width="3"></path><path d="M -440 0 Q -415 -35, -380 -35 Q -345 -35, -320 0 Q -280 -20.9, -280 -50 Q -280 -79.1, -320 -100 Q -345 -65, -380 -65 Q -415 -65, -440 -100 Q -480 -79.1, -480 -50 Q -480 -20.9, -440 0 Z" fill="#5E0411" stroke="#dab785" stroke-width="3"></path><path d="M -560 -100 Q -520 -79.1, -520 -50 Q -520 -20.9, -560 0" fill="none" stroke="#dab785" stroke-width="6"></path><path d="M -440 -100 Q -480 -79.1, -480 -50 Q -480 -20.9, -440 0" fill="none" stroke="#dab785" stroke-width="6"></path><path d="M -440 100 Q -415 135, -380 135 Q -345 135, -320 100 Q -360 79.1, -360 50 Q -360 20.9, -320 0 Q -345 -35, -380 -35 Q -415 -35, -440 0 Q -400 20.9, -400 50 Q -400 79.1, -440 100 Z" fill="#450503" stroke="#dab785" stroke-width="3"></path><path d="M -320 100 Q -295 65, -260 65 Q -225 65, -200 100 Q -160 79.1, -160 50 Q -160 20.9, -200 0 Q -225 35, -260 35 Q -295 35, -320 0 Q -360 20.9, -360 50 Q -360 79.1, -320 100 Z" fill="#5E0411" stroke="#dab785" stroke-width="3"></path><path d="M -440 0 Q -400 20.9, -400 50 Q -400 79.1, -440 100" fill="none" stroke="#dab785" stroke-width="6"></path><path d="M -320 0 Q -360 20.9, -360 50 Q -360 79.1, -320 100" fill="none" stroke="#dab785" stroke-width="6"></path><path d="M -320 200 Q -295 235, -260 235 Q -225 235, -200 200 Q -240 179.1, -240 150 Q -240 120.9, -200 100 Q -225 65, -260 65 Q -295 65, -320 100 Q -280 120.9, -280 150 Q -280 179.1, -320 200 Z" fill="#450503" stroke="#dab785" stroke-width="3"></path><path d="M -200 200 Q -175 165, -140 165 Q -105 165, -80 200 Q -40 179.1, -40 150 Q -40 120.9, -80 100 Q -105 135, -140 135 Q -175 135, -200 100 Q -240 120.9, -240 150 Q -240 179.1, -200 200 Z" fill="#5E0411" stroke="#dab785" stroke-width="3"></path><path d="M -320 100 Q -280 120.9, -280 150 Q -280 179.1, -320 200" fill="none" stroke="#dab785" stroke-width="6"></path><path d="M -200 100 Q -240 120.9, -240 150 Q -240 179.1, -200 200" fill="none" stroke="#dab785" stroke-width="6"></path><path d="M -200 300 Q -175 335, -140 335 Q -105 335, -80 300 Q -120 279.1, -120 250 Q -120 220.9, -80 200 Q -105 165, -140 165 Q -175 165, -200 200 Q -160 220.9, -160 250 Q -160 279.1, -200 300 Z" fill="#450503" stroke="#dab785" stroke-width="3"></path><path d="M -80 300 Q -55 265, -20 265 Q 15 265, 40 300 Q 80 279.1, 80 250 Q 80 220.9, 40 200 Q 15 235, -20 235 Q -55 235, -80 200 Q -120 220.9, -120 250 Q -120 279.1, -80 300 Z" fill="#5E0411" stroke="#dab785" stroke-width="3"></path><path d="M -200 200 Q -160 220.9, -160 250 Q -160 279.1, -200 300" fill="none" stroke="#dab785" stroke-width="6"></path><path d="M -80 200 Q -120 220.9, -120 250 Q -120 279.1, -80 300" fill="none" stroke="#dab785" stroke-width="6"></path><path d="M -80 400 Q -55 435, -20 435 Q 15 435, 40 400 Q 0 379.1, 0 350 Q 0 320.9, 40 300 Q 15 265, -20 265 Q -55 265, -80 300 Q -40 320.9, -40 350 Q -40 379.1, -80 400 Z" fill="#450503" stroke="#dab785" stroke-width="3"></path><path d="M 40 400 Q 65 365, 100 365 Q 135 365, 160 400 Q 200 379.1, 200 350 Q 200 320.9, 160 300 Q 135 335, 100 335 Q 65 335, 40 300 Q 0 320.9, 0 350 Q 0 379.1, 40 400 Z" fill="#5E0411" stroke="#dab785" stroke-width="3"></path><path d="M -80 300 Q -40 320.9, -40 350 Q -40 379.1, -80 400" fill="none" stroke="#dab785" stroke-width="6"></path><path d="M 40 300 Q 0 320.9, 0 350 Q 0 379.1, 40 400" fill="none" stroke="#dab785" stroke-width="6"></path><path d="M 40 500 Q 65 535, 100 535 Q 135 535, 160 500 Q 120 479.1, 120 450 Q 120 420.9, 160 400 Q 135 365, 100 365 Q 65 365, 40 400 Q 80 420.9, 80 450 Q 80 479.1, 40 500 Z" fill="#450503" stroke="#dab785" stroke-width="3"></path><path d="M 160 500 Q 185 465, 220 465 Q 255 465, 280 500 Q 320 479.1, 320 450 Q 320 420.9, 280 400 Q 255 435, 220 435 Q 185 435, 160 400 Q 120 420.9, 120 450 Q 120 479.1, 160 500 Z" fill="#5E0411" stroke="#dab785" stroke-width="3"></path><path d="M 40 400 Q 80 420.9, 80 450 Q 80 479.1, 40 500" fill="none" stroke="#dab785" stroke-width="6"></path><path d="M 160 400 Q 120 420.9, 120 450 Q 120 479.1, 160 500" fill="none" stroke="#dab785" stroke-width="6"></path><path d="M 160 600 Q 185 635, 220 635 Q 255 635, 280 600 Q 240 579.1, 240 550 Q 240 520.9, 280 500 Q 255 465, 220 465 Q 185 465, 160 500 Q 200 520.9, 200 550 Q 200 579.1, 160 600 Z" fill="#450503" stroke="#dab785" stroke-width="3"></path><path d="M 280 600 Q 305 565, 340 565 Q 375 565, 400 600 Q 440 579.1, 440 550 Q 440 520.9, 400 500 Q 375 535, 340 535 Q 305 535, 280 500 Q 240 520.9, 240 550 Q 240 579.1, 280 600 Z" fill="#5E0411" stroke="#dab785" stroke-width="3"></path><path d="M 160 500 Q 200 520.9, 200 550 Q 200 579.1, 160 600" fill="none" stroke="#dab785" stroke-width="6"></path><path d="M 280 500 Q 240 520.9, 240 550 Q 240 579.1, 280 600" fill="none" stroke="#dab785" stroke-width="6"></path><path d="M 280 700 Q 305 735, 340 735 Q 375 735, 400 700 Q 360 679.1, 360 650 Q 360 620.9, 400 600 Q 375 565, 340 565 Q 305 565, 280 600 Q 320 620.9, 320 650 Q 320 679.1, 280 700 Z" fill="#450503" stroke="#dab785" stroke-width="3"></path><path d="M 400 700 Q 425 665, 460 665 Q 495 665, 520 700 Q 560 679.1, 560 650 Q 560 620.9, 520 600 Q 495 635, 460 635 Q 425 635, 400 600 Q 360 620.9, 360 650 Q 360 679.1, 400 700 Z" fill="#5E0411" stroke="#dab785" stroke-width="3"></path><path d="M 280 600 Q 320 620.9, 320 650 Q 320 679.1, 280 700" fill="none" stroke="#dab785" stroke-width="6"></path><path d="M 400 600 Q 360 620.9, 360 650 Q 360 679.1, 400 700" fill="none" stroke="#dab785" stroke-width="6"></path><path d="M 400 800 Q 425 835, 460 835 Q 495 835, 520 800 Q 480 779.1, 480 750 Q 480 720.9, 520 700 Q 495 665, 460 665 Q 425 665, 400 700 Q 440 720.9, 440 750 Q 440 779.1, 400 800 Z" fill="#450503" stroke="#dab785" stroke-width="3"></path><path d="M 520 800 Q 545 765, 580 765 Q 615 765, 640 800 Q 680 779.1, 680 750 Q 680 720.9, 640 700 Q 615 735, 580 735 Q 545 735, 520 700 Q 480 720.9, 480 750 Q 480 779.1, 520 800 Z" fill="#5E0411" stroke="#dab785" stroke-width="3"></path><path d="M 400 700 Q 440 720.9, 440 750 Q 440 779.1, 400 800" fill="none" stroke="#dab785" stroke-width="6"></path><path d="M 520 700 Q 480 720.9, 480 750 Q 480 779.1, 520 800" fill="none" stroke="#dab785" stroke-width="6"></path><path d="M -320 0 Q -295 35, -260 35 Q -225 35, -200 0 Q -240 -20.9, -240 -50 Q -240 -79.1, -200 -100 Q -225 -135, -260 -135 Q -295 -135, -320 -100 Q -280 -79.1, -280 -50 Q -280 -20.9, -320 0 Z" fill="#450503" stroke="#dab785" stroke-width="3"></path><path d="M -200 0 Q -175 -35, -140 -35 Q -105 -35, -80 0 Q -40 -20.9, -40 -50 Q -40 -79.1, -80 -100 Q -105 -65, -140 -65 Q -175 -65, -200 -100 Q -240 -79.1, -240 -50 Q -240 -20.9, -200 0 Z" fill="#5E0411" stroke="#dab785" stroke-width="3"></path><path d="M -320 -100 Q -280 -79.1, -280 -50 Q -280 -20.9, -320 0" fill="none" stroke="#dab785" stroke-width="6"></path><path d="M -200 -100 Q -240 -79.1, -240 -50 Q -240 -20.9, -200 0" fill="none" stroke="#dab785" stroke-width="6"></path><path d="M -200 100 Q -175 135, -140 135 Q -105 135, -80 100 Q -120 79.1, -120 50 Q -120 20.9, -80 0 Q -105 -35, -140 -35 Q -175 -35, -200 0 Q -160 20.9, -160 50 Q -160 79.1, -200 100 Z" fill="#450503" stroke="#dab785" stroke-width="3"></path><path d="M -80 100 Q -55 65, -20 65 Q 15 65, 40 100 Q 80 79.1, 80 50 Q 80 20.9, 40 0 Q 15 35, -20 35 Q -55 35, -80 0 Q -120 20.9, -120 50 Q -120 79.1, -80 100 Z" fill="#5E0411" stroke="#dab785" stroke-width="3"></path><path d="M -200 0 Q -160 20.9, -160 50 Q -160 79.1, -200 100" fill="none" stroke="#dab785" stroke-width="6"></path><path d="M -80 0 Q -120 20.9, -120 50 Q -120 79.1, -80 100" fill="none" stroke="#dab785" stroke-width="6"></path><path d="M -80 200 Q -55 235, -20 235 Q 15 235, 40 200 Q 0 179.1, 0 150 Q 0 120.9, 40 100 Q 15 65, -20 65 Q -55 65, -80 100 Q -40 120.9, -40 150 Q -40 179.1, -80 200 Z" fill="#450503" stroke="#dab785" stroke-width="3"></path><path d="M 40 200 Q 65 165, 100 165 Q 135 165, 160 200 Q 200 179.1, 200 150 Q 200 120.9, 160 100 Q 135 135, 100 135 Q 65 135, 40 100 Q 0 120.9, 0 150 Q 0 179.1, 40 200 Z" fill="#5E0411" stroke="#dab785" stroke-width="3"></path><path d="M -80 100 Q -40 120.9, -40 150 Q -40 179.1, -80 200" fill="none" stroke="#dab785" stroke-width="6"></path><path d="M 40 100 Q 0 120.9, 0 150 Q 0 179.1, 40 200" fill="none" stroke="#dab785" stroke-width="6"></path><path d="M 40 300 Q 65 335, 100 335 Q 135 335, 160 300 Q 120 279.1, 120 250 Q 120 220.9, 160 200 Q 135 165, 100 165 Q 65 165, 40 200 Q 80 220.9, 80 250 Q 80 279.1, 40 300 Z" fill="#450503" stroke="#dab785" stroke-width="3"></path><path d="M 160 300 Q 185 265, 220 265 Q 255 265, 280 300 Q 320 279.1, 320 250 Q 320 220.9, 280 200 Q 255 235, 220 235 Q 185 235, 160 200 Q 120 220.9, 120 250 Q 120 279.1, 160 300 Z" fill="#5E0411" stroke="#dab785" stroke-width="3"></path><path d="M 40 200 Q 80 220.9, 80 250 Q 80 279.1, 40 300" fill="none" stroke="#dab785" stroke-width="6"></path><path d="M 160 200 Q 120 220.9, 120 250 Q 120 279.1, 160 300" fill="none" stroke="#dab785" stroke-width="6"></path><path d="M 160 400 Q 185 435, 220 435 Q 255 435, 280 400 Q 240 379.1, 240 350 Q 240 320.9, 280 300 Q 255 265, 220 265 Q 185 265, 160 300 Q 200 320.9, 200 350 Q 200 379.1, 160 400 Z" fill="#450503" stroke="#dab785" stroke-width="3"></path><path d="M 280 400 Q 305 365, 340 365 Q 375 365, 400 400 Q 440 379.1, 440 350 Q 440 320.9, 400 300 Q 375 335, 340 335 Q 305 335, 280 300 Q 240 320.9, 240 350 Q 240 379.1, 280 400 Z" fill="#5E0411" stroke="#dab785" stroke-width="3"></path><path d="M 160 300 Q 200 320.9, 200 350 Q 200 379.1, 160 400" fill="none" stroke="#dab785" stroke-width="6"></path><path d="M 280 300 Q 240 320.9, 240 350 Q 240 379.1, 280 400" fill="none" stroke="#dab785" stroke-width="6"></path><path d="M 280 500 Q 305 535, 340 535 Q 375 535, 400 500 Q 360 479.1, 360 450 Q 360 420.9, 400 400 Q 375 365, 340 365 Q 305 365, 280 400 Q 320 420.9, 320 450 Q 320 479.1, 280 500 Z" fill="#450503" stroke="#dab785" stroke-width="3"></path><path d="M 400 500 Q 425 465, 460 465 Q 495 465, 520 500 Q 560 479.1, 560 450 Q 560 420.9, 520 400 Q 495 435, 460 435 Q 425 435, 400 400 Q 360 420.9, 360 450 Q 360 479.1, 400 500 Z" fill="#5E0411" stroke="#dab785" stroke-width="3"></path><path d="M 280 400 Q 320 420.9, 320 450 Q 320 479.1, 280 500" fill="none" stroke="#dab785" stroke-width="6"></path><path d="M 400 400 Q 360 420.9, 360 450 Q 360 479.1, 400 500" fill="none" stroke="#dab785" stroke-width="6"></path><path d="M 400 600 Q 425 635, 460 635 Q 495 635, 520 600 Q 480 579.1, 480 550 Q 480 520.9, 520 500 Q 495 465, 460 465 Q 425 465, 400 500 Q 440 520.9, 440 550 Q 440 579.1, 400 600 Z" fill="#450503" stroke="#dab785" stroke-width="3"></path><path d="M 520 600 Q 545 565, 580 565 Q 615 565, 640 600 Q 680 579.1, 680 550 Q 680 520.9, 640 500 Q 615 535, 580 535 Q 545 535, 520 500 Q 480 520.9, 480 550 Q 480 579.1, 520 600 Z" fill="#5E0411" stroke="#dab785" stroke-width="3"></path><path d="M 400 500 Q 440 520.9, 440 550 Q 440 579.1, 400 600" fill="none" stroke="#dab785" stroke-width="6"></path><path d="M 520 500 Q 480 520.9, 480 550 Q 480 579.1, 520 600" fill="none" stroke="#dab785" stroke-width="6"></path><path d="M 520 700 Q 545 735, 580 735 Q 615 735, 640 700 Q 600 679.1, 600 650 Q 600 620.9, 640 600 Q 615 565, 580 565 Q 545 565, 520 600 Q 560 620.9, 560 650 Q 560 679.1, 520 700 Z" fill="#450503" stroke="#dab785" stroke-width="3"></path><path d="M 640 700 Q 665 665, 700 665 Q 735 665, 760 700 Q 800 679.1, 800 650 Q 800 620.9, 760 600 Q 735 635, 700 635 Q 665 635, 640 600 Q 600 620.9, 600 650 Q 600 679.1, 640 700 Z" fill="#5E0411" stroke="#dab785" stroke-width="3"></path><path d="M 520 600 Q 560 620.9, 560 650 Q 560 679.1, 520 700" fill="none" stroke="#dab785" stroke-width="6"></path><path d="M 640 600 Q 600 620.9, 600 650 Q 600 679.1, 640 700" fill="none" stroke="#dab785" stroke-width="6"></path><path d="M 640 800 Q 665 835, 700 835 Q 735 835, 760 800 Q 720 779.1, 720 750 Q 720 720.9, 760 700 Q 735 665, 700 665 Q 665 665, 640 700 Q 680 720.9, 680 750 Q 680 779.1, 640 800 Z" fill="#450503" stroke="#dab785" stroke-width="3"></path><path d="M 760 800 Q 785 765, 820 765 Q 855 765, 880 800 Q 920 779.1, 920 750 Q 920 720.9, 880 700 Q 855 735, 820 735 Q 785 735, 760 700 Q 720 720.9, 720 750 Q 720 779.1, 760 800 Z" fill="#5E0411" stroke="#dab785" stroke-width="3"></path><path d="M 640 700 Q 680 720.9, 680 750 Q 680 779.1, 640 800" fill="none" stroke="#dab785" stroke-width="6"></path><path d="M 760 700 Q 720 720.9, 720 750 Q 720 779.1, 760 800" fill="none" stroke="#dab785" stroke-width="6"></path><path d="M -80 0 Q -55 35, -20 35 Q 15 35, 40 0 Q 0 -20.9, 0 -50 Q 0 -79.1, 40 -100 Q 15 -135, -20 -135 Q -55 -135, -80 -100 Q -40 -79.1, -40 -50 Q -40 -20.9, -80 0 Z" fill="#450503" stroke="#dab785" stroke-width="3"></path><path d="M 40 0 Q 65 -35, 100 -35 Q 135 -35, 160 0 Q 200 -20.9, 200 -50 Q 200 -79.1, 160 -100 Q 135 -65, 100 -65 Q 65 -65, 40 -100 Q 0 -79.1, 0 -50 Q 0 -20.9, 40 0 Z" fill="#5E0411" stroke="#dab785" stroke-width="3"></path><path d="M -80 -100 Q -40 -79.1, -40 -50 Q -40 -20.9, -80 0" fill="none" stroke="#dab785" stroke-width="6"></path><path d="M 40 -100 Q 0 -79.1, 0 -50 Q 0 -20.9, 40 0" fill="none" stroke="#dab785" stroke-width="6"></path><path d="M 40 100 Q 65 135, 100 135 Q 135 135, 160 100 Q 120 79.1, 120 50 Q 120 20.9, 160 0 Q 135 -35, 100 -35 Q 65 -35, 40 0 Q 80 20.9, 80 50 Q 80 79.1, 40 100 Z" fill="#450503" stroke="#dab785" stroke-width="3"></path><path d="M 160 100 Q 185 65, 220 65 Q 255 65, 280 100 Q 320 79.1, 320 50 Q 320 20.9, 280 0 Q 255 35, 220 35 Q 185 35, 160 0 Q 120 20.9, 120 50 Q 120 79.1, 160 100 Z" fill="#5E0411" stroke="#dab785" stroke-width="3"></path><path d="M 40 0 Q 80 20.9, 80 50 Q 80 79.1, 40 100" fill="none" stroke="#dab785" stroke-width="6"></path><path d="M 160 0 Q 120 20.9, 120 50 Q 120 79.1, 160 100" fill="none" stroke="#dab785" stroke-width="6"></path><path d="M 160 200 Q 185 235, 220 235 Q 255 235, 280 200 Q 240 179.1, 240 150 Q 240 120.9, 280 100 Q 255 65, 220 65 Q 185 65, 160 100 Q 200 120.9, 200 150 Q 200 179.1, 160 200 Z" fill="#450503" stroke="#dab785" stroke-width="3"></path><path d="M 280 200 Q 305 165, 340 165 Q 375 165, 400 200 Q 440 179.1, 440 150 Q 440 120.9, 400 100 Q 375 135, 340 135 Q 305 135, 280 100 Q 240 120.9, 240 150 Q 240 179.1, 280 200 Z" fill="#5E0411" stroke="#dab785" stroke-width="3"></path><path d="M 160 100 Q 200 120.9, 200 150 Q 200 179.1, 160 200" fill="none" stroke="#dab785" stroke-width="6"></path><path d="M 280 100 Q 240 120.9, 240 150 Q 240 179.1, 280 200" fill="none" stroke="#dab785" stroke-width="6"></path><path d="M 280 300 Q 305 335, 340 335 Q 375 335, 400 300 Q 360 279.1, 360 250 Q 360 220.9, 400 200 Q 375 165, 340 165 Q 305 165, 280 200 Q 320 220.9, 320 250 Q 320 279.1, 280 300 Z" fill="#450503" stroke="#dab785" stroke-width="3"></path><path d="M 400 300 Q 425 265, 460 265 Q 495 265, 520 300 Q 560 279.1, 560 250 Q 560 220.9, 520 200 Q 495 235, 460 235 Q 425 235, 400 200 Q 360 220.9, 360 250 Q 360 279.1, 400 300 Z" fill="#5E0411" stroke="#dab785" stroke-width="3"></path><path d="M 280 200 Q 320 220.9, 320 250 Q 320 279.1, 280 300" fill="none" stroke="#dab785" stroke-width="6"></path><path d="M 400 200 Q 360 220.9, 360 250 Q 360 279.1, 400 300" fill="none" stroke="#dab785" stroke-width="6"></path><path d="M 400 400 Q 425 435, 460 435 Q 495 435, 520 400 Q 480 379.1, 480 350 Q 480 320.9, 520 300 Q 495 265, 460 265 Q 425 265, 400 300 Q 440 320.9, 440 350 Q 440 379.1, 400 400 Z" fill="#450503" stroke="#dab785" stroke-width="3"></path><path d="M 520 400 Q 545 365, 580 365 Q 615 365, 640 400 Q 680 379.1, 680 350 Q 680 320.9, 640 300 Q 615 335, 580 335 Q 545 335, 520 300 Q 480 320.9, 480 350 Q 480 379.1, 520 400 Z" fill="#5E0411" stroke="#dab785" stroke-width="3"></path><path d="M 400 300 Q 440 320.9, 440 350 Q 440 379.1, 400 400" fill="none" stroke="#dab785" stroke-width="6"></path><path d="M 520 300 Q 480 320.9, 480 350 Q 480 379.1, 520 400" fill="none" stroke="#dab785" stroke-width="6"></path><path d="M 520 500 Q 545 535, 580 535 Q 615 535, 640 500 Q 600 479.1, 600 450 Q 600 420.9, 640 400 Q 615 365, 580 365 Q 545 365, 520 400 Q 560 420.9, 560 450 Q 560 479.1, 520 500 Z" fill="#450503" stroke="#dab785" stroke-width="3"></path><path d="M 640 500 Q 665 465, 700 465 Q 735 465, 760 500 Q 800 479.1, 800 450 Q 800 420.9, 760 400 Q 735 435, 700 435 Q 665 435, 640 400 Q 600 420.9, 600 450 Q 600 479.1, 640 500 Z" fill="#5E0411" stroke="#dab785" stroke-width="3"></path><path d="M 520 400 Q 560 420.9, 560 450 Q 560 479.1, 520 500" fill="none" stroke="#dab785" stroke-width="6"></path><path d="M 640 400 Q 600 420.9, 600 450 Q 600 479.1, 640 500" fill="none" stroke="#dab785" stroke-width="6"></path><path d="M 640 600 Q 665 635, 700 635 Q 735 635, 760 600 Q 720 579.1, 720 550 Q 720 520.9, 760 500 Q 735 465, 700 465 Q 665 465, 640 500 Q 680 520.9, 680 550 Q 680 579.1, 640 600 Z" fill="#450503" stroke="#dab785" stroke-width="3"></path><path d="M 760 600 Q 785 565, 820 565 Q 855 565, 880 600 Q 920 579.1, 920 550 Q 920 520.9, 880 500 Q 855 535, 820 535 Q 785 535, 760 500 Q 720 520.9, 720 550 Q 720 579.1, 760 600 Z" fill="#5E0411" stroke="#dab785" stroke-width="3"></path><path d="M 640 500 Q 680 520.9, 680 550 Q 680 579.1, 640 600" fill="none" stroke="#dab785" stroke-width="6"></path><path d="M 760 500 Q 720 520.9, 720 550 Q 720 579.1, 760 600" fill="none" stroke="#dab785" stroke-width="6"></path><path d="M 760 700 Q 785 735, 820 735 Q 855 735, 880 700 Q 840 679.1, 840 650 Q 840 620.9, 880 600 Q 855 565, 820 565 Q 785 565, 760 600 Q 800 620.9, 800 650 Q 800 679.1, 760 700 Z" fill="#450503" stroke="#dab785" stroke-width="3"></path><path d="M 880 700 Q 905 665, 940 665 Q 975 665, 1000 700 Q 1040 679.1, 1040 650 Q 1040 620.9, 1000 600 Q 975 635, 940 635 Q 905 635, 880 600 Q 840 620.9, 840 650 Q 840 679.1, 880 700 Z" fill="#5E0411" stroke="#dab785" stroke-width="3"></path><path d="M 760 600 Q 800 620.9, 800 650 Q 800 679.1, 760 700" fill="none" stroke="#dab785" stroke-width="6"></path><path d="M 880 600 Q 840 620.9, 840 650 Q 840 679.1, 880 700" fill="none" stroke="#dab785" stroke-width="6"></path><path d="M 880 800 Q 905 835, 940 835 Q 975 835, 1000 800 Q 960 779.1, 960 750 Q 960 720.9, 1000 700 Q 975 665, 940 665 Q 905 665, 880 700 Q 920 720.9, 920 750 Q 920 779.1, 880 800 Z" fill="#450503" stroke="#dab785" stroke-width="3"></path><path d="M 1000 800 Q 1025 765, 1060 765 Q 1095 765, 1120 800 Q 1160 779.1, 1160 750 Q 1160 720.9, 1120 700 Q 1095 735, 1060 735 Q 1025 735, 1000 700 Q 960 720.9, 960 750 Q 960 779.1, 1000 800 Z" fill="#5E0411" stroke="#dab785" stroke-width="3"></path><path d="M 880 700 Q 920 720.9, 920 750 Q 920 779.1, 880 800" fill="none" stroke="#dab785" stroke-width="6"></path><path d="M 1000 700 Q 960 720.9, 960 750 Q 960 779.1, 1000 800" fill="none" stroke="#dab785" stroke-width="6"></path><path d="M 160 0 Q 185 35, 220 35 Q 255 35, 280 0 Q 240 -20.9, 240 -50 Q 240 -79.1, 280 -100 Q 255 -135, 220 -135 Q 185 -135, 160 -100 Q 200 -79.1, 200 -50 Q 200 -20.9, 160 0 Z" fill="#450503" stroke="#dab785" stroke-width="3"></path><path d="M 280 0 Q 305 -35, 340 -35 Q 375 -35, 400 0 Q 440 -20.9, 440 -50 Q 440 -79.1, 400 -100 Q 375 -65, 340 -65 Q 305 -65, 280 -100 Q 240 -79.1, 240 -50 Q 240 -20.9, 280 0 Z" fill="#5E0411" stroke="#dab785" stroke-width="3"></path><path d="M 160 -100 Q 200 -79.1, 200 -50 Q 200 -20.9, 160 0" fill="none" stroke="#dab785" stroke-width="6"></path><path d="M 280 -100 Q 240 -79.1, 240 -50 Q 240 -20.9, 280 0" fill="none" stroke="#dab785" stroke-width="6"></path><path d="M 280 100 Q 305 135, 340 135 Q 375 135, 400 100 Q 360 79.1, 360 50 Q 360 20.9, 400 0 Q 375 -35, 340 -35 Q 305 -35, 280 0 Q 320 20.9, 320 50 Q 320 79.1, 280 100 Z" fill="#450503" stroke="#dab785" stroke-width="3"></path><path d="M 400 100 Q 425 65, 460 65 Q 495 65, 520 100 Q 560 79.1, 560 50 Q 560 20.9, 520 0 Q 495 35, 460 35 Q 425 35, 400 0 Q 360 20.9, 360 50 Q 360 79.1, 400 100 Z" fill="#5E0411" stroke="#dab785" stroke-width="3"></path><path d="M 280 0 Q 320 20.9, 320 50 Q 320 79.1, 280 100" fill="none" stroke="#dab785" stroke-width="6"></path><path d="M 400 0 Q 360 20.9, 360 50 Q 360 79.1, 400 100" fill="none" stroke="#dab785" stroke-width="6"></path><path d="M 400 200 Q 425 235, 460 235 Q 495 235, 520 200 Q 480 179.1, 480 150 Q 480 120.9, 520 100 Q 495 65, 460 65 Q 425 65, 400 100 Q 440 120.9, 440 150 Q 440 179.1, 400 200 Z" fill="#450503" stroke="#dab785" stroke-width="3"></path><path d="M 520 200 Q 545 165, 580 165 Q 615 165, 640 200 Q 680 179.1, 680 150 Q 680 120.9, 640 100 Q 615 135, 580 135 Q 545 135, 520 100 Q 480 120.9, 480 150 Q 480 179.1, 520 200 Z" fill="#5E0411" stroke="#dab785" stroke-width="3"></path><path d="M 400 100 Q 440 120.9, 440 150 Q 440 179.1, 400 200" fill="none" stroke="#dab785" stroke-width="6"></path><path d="M 520 100 Q 480 120.9, 480 150 Q 480 179.1, 520 200" fill="none" stroke="#dab785" stroke-width="6"></path><path d="M 520 300 Q 545 335, 580 335 Q 615 335, 640 300 Q 600 279.1, 600 250 Q 600 220.9, 640 200 Q 615 165, 580 165 Q 545 165, 520 200 Q 560 220.9, 560 250 Q 560 279.1, 520 300 Z" fill="#450503" stroke="#dab785" stroke-width="3"></path><path d="M 640 300 Q 665 265, 700 265 Q 735 265, 760 300 Q 800 279.1, 800 250 Q 800 220.9, 760 200 Q 735 235, 700 235 Q 665 235, 640 200 Q 600 220.9, 600 250 Q 600 279.1, 640 300 Z" fill="#5E0411" stroke="#dab785" stroke-width="3"></path><path d="M 520 200 Q 560 220.9, 560 250 Q 560 279.1, 520 300" fill="none" stroke="#dab785" stroke-width="6"></path><path d="M 640 200 Q 600 220.9, 600 250 Q 600 279.1, 640 300" fill="none" stroke="#dab785" stroke-width="6"></path><path d="M 640 400 Q 665 435, 700 435 Q 735 435, 760 400 Q 720 379.1, 720 350 Q 720 320.9, 760 300 Q 735 265, 700 265 Q 665 265, 640 300 Q 680 320.9, 680 350 Q 680 379.1, 640 400 Z" fill="#450503" stroke="#dab785" stroke-width="3"></path><path d="M 760 400 Q 785 365, 820 365 Q 855 365, 880 400 Q 920 379.1, 920 350 Q 920 320.9, 880 300 Q 855 335, 820 335 Q 785 335, 760 300 Q 720 320.9, 720 350 Q 720 379.1, 760 400 Z" fill="#5E0411" stroke="#dab785" stroke-width="3"></path><path d="M 640 300 Q 680 320.9, 680 350 Q 680 379.1, 640 400" fill="none" stroke="#dab785" stroke-width="6"></path><path d="M 760 300 Q 720 320.9, 720 350 Q 720 379.1, 760 400" fill="none" stroke="#dab785" stroke-width="6"></path><path d="M 760 500 Q 785 535, 820 535 Q 855 535, 880 500 Q 840 479.1, 840 450 Q 840 420.9, 880 400 Q 855 365, 820 365 Q 785 365, 760 400 Q 800 420.9, 800 450 Q 800 479.1, 760 500 Z" fill="#450503" stroke="#dab785" stroke-width="3"></path><path d="M 880 500 Q 905 465, 940 465 Q 975 465, 1000 500 Q 1040 479.1, 1040 450 Q 1040 420.9, 1000 400 Q 975 435, 940 435 Q 905 435, 880 400 Q 840 420.9, 840 450 Q 840 479.1, 880 500 Z" fill="#5E0411" stroke="#dab785" stroke-width="3"></path><path d="M 760 400 Q 800 420.9, 800 450 Q 800 479.1, 760 500" fill="none" stroke="#dab785" stroke-width="6"></path><path d="M 880 400 Q 840 420.9, 840 450 Q 840 479.1, 880 500" fill="none" stroke="#dab785" stroke-width="6"></path><path d="M 880 600 Q 905 635, 940 635 Q 975 635, 1000 600 Q 960 579.1, 960 550 Q 960 520.9, 1000 500 Q 975 465, 940 465 Q 905 465, 880 500 Q 920 520.9, 920 550 Q 920 579.1, 880 600 Z" fill="#450503" stroke="#dab785" stroke-width="3"></path><path d="M 1000 600 Q 1025 565, 1060 565 Q 1095 565, 1120 600 Q 1160 579.1, 1160 550 Q 1160 520.9, 1120 500 Q 1095 535, 1060 535 Q 1025 535, 1000 500 Q 960 520.9, 960 550 Q 960 579.1, 1000 600 Z" fill="#5E0411" stroke="#dab785" stroke-width="3"></path><path d="M 880 500 Q 920 520.9, 920 550 Q 920 579.1, 880 600" fill="none" stroke="#dab785" stroke-width="6"></path><path d="M 1000 500 Q 960 520.9, 960 550 Q 960 579.1, 1000 600" fill="none" stroke="#dab785" stroke-width="6"></path><path d="M 1000 700 Q 1025 735, 1060 735 Q 1095 735, 1120 700 Q 1080 679.1, 1080 650 Q 1080 620.9, 1120 600 Q 1095 565, 1060 565 Q 1025 565, 1000 600 Q 1040 620.9, 1040 650 Q 1040 679.1, 1000 700 Z" fill="#450503" stroke="#dab785" stroke-width="3"></path><path d="M 1120 700 Q 1145 665, 1180 665 Q 1215 665, 1240 700 Q 1280 679.1, 1280 650 Q 1280 620.9, 1240 600 Q 1215 635, 1180 635 Q 1145 635, 1120 600 Q 1080 620.9, 1080 650 Q 1080 679.1, 1120 700 Z" fill="#5E0411" stroke="#dab785" stroke-width="3"></path><path d="M 1000 600 Q 1040 620.9, 1040 650 Q 1040 679.1, 1000 700" fill="none" stroke="#dab785" stroke-width="6"></path><path d="M 1120 600 Q 1080 620.9, 1080 650 Q 1080 679.1, 1120 700" fill="none" stroke="#dab785" stroke-width="6"></path><path d="M 1120 800 Q 1145 835, 1180 835 Q 1215 835, 1240 800 Q 1200 779.1, 1200 750 Q 1200 720.9, 1240 700 Q 1215 665, 1180 665 Q 1145 665, 1120 700 Q 1160 720.9, 1160 750 Q 1160 779.1, 1120 800 Z" fill="#450503" stroke="#dab785" stroke-width="3"></path><path d="M 1240 800 Q 1265 765, 1300 765 Q 1335 765, 1360 800 Q 1400 779.1, 1400 750 Q 1400 720.9, 1360 700 Q 1335 735, 1300 735 Q 1265 735, 1240 700 Q 1200 720.9, 1200 750 Q 1200 779.1, 1240 800 Z" fill="#5E0411" stroke="#dab785" stroke-width="3"></path><path d="M 1120 700 Q 1160 720.9, 1160 750 Q 1160 779.1, 1120 800" fill="none" stroke="#dab785" stroke-width="6"></path><path d="M 1240 700 Q 1200 720.9, 1200 750 Q 1200 779.1, 1240 800" fill="none" stroke="#dab785" stroke-width="6"></path><path d="M 400 0 Q 425 35, 460 35 Q 495 35, 520 0 Q 480 -20.9, 480 -50 Q 480 -79.1, 520 -100 Q 495 -135, 460 -135 Q 425 -135, 400 -100 Q 440 -79.1, 440 -50 Q 440 -20.9, 400 0 Z" fill="#450503" stroke="#dab785" stroke-width="3"></path><path d="M 520 0 Q 545 -35, 580 -35 Q 615 -35, 640 0 Q 680 -20.9, 680 -50 Q 680 -79.1, 640 -100 Q 615 -65, 580 -65 Q 545 -65, 520 -100 Q 480 -79.1, 480 -50 Q 480 -20.9, 520 0 Z" fill="#5E0411" stroke="#dab785" stroke-width="3"></path><path d="M 400 -100 Q 440 -79.1, 440 -50 Q 440 -20.9, 400 0" fill="none" stroke="#dab785" stroke-width="6"></path><path d="M 520 -100 Q 480 -79.1, 480 -50 Q 480 -20.9, 520 0" fill="none" stroke="#dab785" stroke-width="6"></path><path d="M 520 100 Q 545 135, 580 135 Q 615 135, 640 100 Q 600 79.1, 600 50 Q 600 20.9, 640 0 Q 615 -35, 580 -35 Q 545 -35, 520 0 Q 560 20.9, 560 50 Q 560 79.1, 520 100 Z" fill="#450503" stroke="#dab785" stroke-width="3"></path><path d="M 640 100 Q 665 65, 700 65 Q 735 65, 760 100 Q 800 79.1, 800 50 Q 800 20.9, 760 0 Q 735 35, 700 35 Q 665 35, 640 0 Q 600 20.9, 600 50 Q 600 79.1, 640 100 Z" fill="#5E0411" stroke="#dab785" stroke-width="3"></path><path d="M 520 0 Q 560 20.9, 560 50 Q 560 79.1, 520 100" fill="none" stroke="#dab785" stroke-width="6"></path><path d="M 640 0 Q 600 20.9, 600 50 Q 600 79.1, 640 100" fill="none" stroke="#dab785" stroke-width="6"></path><path d="M 640 200 Q 665 235, 700 235 Q 735 235, 760 200 Q 720 179.1, 720 150 Q 720 120.9, 760 100 Q 735 65, 700 65 Q 665 65, 640 100 Q 680 120.9, 680 150 Q 680 179.1, 640 200 Z" fill="#450503" stroke="#dab785" stroke-width="3"></path><path d="M 760 200 Q 785 165, 820 165 Q 855 165, 880 200 Q 920 179.1, 920 150 Q 920 120.9, 880 100 Q 855 135, 820 135 Q 785 135, 760 100 Q 720 120.9, 720 150 Q 720 179.1, 760 200 Z" fill="#5E0411" stroke="#dab785" stroke-width="3"></path><path d="M 640 100 Q 680 120.9, 680 150 Q 680 179.1, 640 200" fill="none" stroke="#dab785" stroke-width="6"></path><path d="M 760 100 Q 720 120.9, 720 150 Q 720 179.1, 760 200" fill="none" stroke="#dab785" stroke-width="6"></path><path d="M 760 300 Q 785 335, 820 335 Q 855 335, 880 300 Q 840 279.1, 840 250 Q 840 220.9, 880 200 Q 855 165, 820 165 Q 785 165, 760 200 Q 800 220.9, 800 250 Q 800 279.1, 760 300 Z" fill="#450503" stroke="#dab785" stroke-width="3"></path><path d="M 880 300 Q 905 265, 940 265 Q 975 265, 1000 300 Q 1040 279.1, 1040 250 Q 1040 220.9, 1000 200 Q 975 235, 940 235 Q 905 235, 880 200 Q 840 220.9, 840 250 Q 840 279.1, 880 300 Z" fill="#5E0411" stroke="#dab785" stroke-width="3"></path><path d="M 760 200 Q 800 220.9, 800 250 Q 800 279.1, 760 300" fill="none" stroke="#dab785" stroke-width="6"></path><path d="M 880 200 Q 840 220.9, 840 250 Q 840 279.1, 880 300" fill="none" stroke="#dab785" stroke-width="6"></path><path d="M 880 400 Q 905 435, 940 435 Q 975 435, 1000 400 Q 960 379.1, 960 350 Q 960 320.9, 1000 300 Q 975 265, 940 265 Q 905 265, 880 300 Q 920 320.9, 920 350 Q 920 379.1, 880 400 Z" fill="#450503" stroke="#dab785" stroke-width="3"></path><path d="M 1000 400 Q 1025 365, 1060 365 Q 1095 365, 1120 400 Q 1160 379.1, 1160 350 Q 1160 320.9, 1120 300 Q 1095 335, 1060 335 Q 1025 335, 1000 300 Q 960 320.9, 960 350 Q 960 379.1, 1000 400 Z" fill="#5E0411" stroke="#dab785" stroke-width="3"></path><path d="M 880 300 Q 920 320.9, 920 350 Q 920 379.1, 880 400" fill="none" stroke="#dab785" stroke-width="6"></path><path d="M 1000 300 Q 960 320.9, 960 350 Q 960 379.1, 1000 400" fill="none" stroke="#dab785" stroke-width="6"></path><path d="M 1000 500 Q 1025 535, 1060 535 Q 1095 535, 1120 500 Q 1080 479.1, 1080 450 Q 1080 420.9, 1120 400 Q 1095 365, 1060 365 Q 1025 365, 1000 400 Q 1040 420.9, 1040 450 Q 1040 479.1, 1000 500 Z" fill="#450503" stroke="#dab785" stroke-width="3"></path><path d="M 1120 500 Q 1145 465, 1180 465 Q 1215 465, 1240 500 Q 1280 479.1, 1280 450 Q 1280 420.9, 1240 400 Q 1215 435, 1180 435 Q 1145 435, 1120 400 Q 1080 420.9, 1080 450 Q 1080 479.1, 1120 500 Z" fill="#5E0411" stroke="#dab785" stroke-width="3"></path><path d="M 1000 400 Q 1040 420.9, 1040 450 Q 1040 479.1, 1000 500" fill="none" stroke="#dab785" stroke-width="6"></path><path d="M 1120 400 Q 1080 420.9, 1080 450 Q 1080 479.1, 1120 500" fill="none" stroke="#dab785" stroke-width="6"></path><path d="M 1120 600 Q 1145 635, 1180 635 Q 1215 635, 1240 600 Q 1200 579.1, 1200 550 Q 1200 520.9, 1240 500 Q 1215 465, 1180 465 Q 1145 465, 1120 500 Q 1160 520.9, 1160 550 Q 1160 579.1, 1120 600 Z" fill="#450503" stroke="#dab785" stroke-width="3"></path><path d="M 1240 600 Q 1265 565, 1300 565 Q 1335 565, 1360 600 Q 1400 579.1, 1400 550 Q 1400 520.9, 1360 500 Q 1335 535, 1300 535 Q 1265 535, 1240 500 Q 1200 520.9, 1200 550 Q 1200 579.1, 1240 600 Z" fill="#5E0411" stroke="#dab785" stroke-width="3"></path><path d="M 1120 500 Q 1160 520.9, 1160 550 Q 1160 579.1, 1120 600" fill="none" stroke="#dab785" stroke-width="6"></path><path d="M 1240 500 Q 1200 520.9, 1200 550 Q 1200 579.1, 1240 600" fill="none" stroke="#dab785" stroke-width="6"></path><path d="M 1240 700 Q 1265 735, 1300 735 Q 1335 735, 1360 700 Q 1320 679.1, 1320 650 Q 1320 620.9, 1360 600 Q 1335 565, 1300 565 Q 1265 565, 1240 600 Q 1280 620.9, 1280 650 Q 1280 679.1, 1240 700 Z" fill="#450503" stroke="#dab785" stroke-width="3"></path><path d="M 1360 700 Q 1385 665, 1420 665 Q 1455 665, 1480 700 Q 1520 679.1, 1520 650 Q 1520 620.9, 1480 600 Q 1455 635, 1420 635 Q 1385 635, 1360 600 Q 1320 620.9, 1320 650 Q 1320 679.1, 1360 700 Z" fill="#5E0411" stroke="#dab785" stroke-width="3"></path><path d="M 1240 600 Q 1280 620.9, 1280 650 Q 1280 679.1, 1240 700" fill="none" stroke="#dab785" stroke-width="6"></path><path d="M 1360 600 Q 1320 620.9, 1320 650 Q 1320 679.1, 1360 700" fill="none" stroke="#dab785" stroke-width="6"></path><path d="M 1360 800 Q 1385 835, 1420 835 Q 1455 835, 1480 800 Q 1440 779.1, 1440 750 Q 1440 720.9, 1480 700 Q 1455 665, 1420 665 Q 1385 665, 1360 700 Q 1400 720.9, 1400 750 Q 1400 779.1, 1360 800 Z" fill="#450503" stroke="#dab785" stroke-width="3"></path><path d="M 1480 800 Q 1505 765, 1540 765 Q 1575 765, 1600 800 Q 1640 779.1, 1640 750 Q 1640 720.9, 1600 700 Q 1575 735, 1540 735 Q 1505 735, 1480 700 Q 1440 720.9, 1440 750 Q 1440 779.1, 1480 800 Z" fill="#5E0411" stroke="#dab785" stroke-width="3"></path><path d="M 1360 700 Q 1400 720.9, 1400 750 Q 1400 779.1, 1360 800" fill="none" stroke="#dab785" stroke-width="6"></path><path d="M 1480 700 Q 1440 720.9, 1440 750 Q 1440 779.1, 1480 800" fill="none" stroke="#dab785" stroke-width="6"></path><path d="M 640 0 Q 665 35, 700 35 Q 735 35, 760 0 Q 720 -20.9, 720 -50 Q 720 -79.1, 760 -100 Q 735 -135, 700 -135 Q 665 -135, 640 -100 Q 680 -79.1, 680 -50 Q 680 -20.9, 640 0 Z" fill="#450503" stroke="#dab785" stroke-width="3"></path><path d="M 760 0 Q 785 -35, 820 -35 Q 855 -35, 880 0 Q 920 -20.9, 920 -50 Q 920 -79.1, 880 -100 Q 855 -65, 820 -65 Q 785 -65, 760 -100 Q 720 -79.1, 720 -50 Q 720 -20.9, 760 0 Z" fill="#5E0411" stroke="#dab785" stroke-width="3"></path><path d="M 640 -100 Q 680 -79.1, 680 -50 Q 680 -20.9, 640 0" fill="none" stroke="#dab785" stroke-width="6"></path><path d="M 760 -100 Q 720 -79.1, 720 -50 Q 720 -20.9, 760 0" fill="none" stroke="#dab785" stroke-width="6"></path><path d="M 760 100 Q 785 135, 820 135 Q 855 135, 880 100 Q 840 79.1, 840 50 Q 840 20.9, 880 0 Q 855 -35, 820 -35 Q 785 -35, 760 0 Q 800 20.9, 800 50 Q 800 79.1, 760 100 Z" fill="#450503" stroke="#dab785" stroke-width="3"></path><path d="M 880 100 Q 905 65, 940 65 Q 975 65, 1000 100 Q 1040 79.1, 1040 50 Q 1040 20.9, 1000 0 Q 975 35, 940 35 Q 905 35, 880 0 Q 840 20.9, 840 50 Q 840 79.1, 880 100 Z" fill="#5E0411" stroke="#dab785" stroke-width="3"></path><path d="M 760 0 Q 800 20.9, 800 50 Q 800 79.1, 760 100" fill="none" stroke="#dab785" stroke-width="6"></path><path d="M 880 0 Q 840 20.9, 840 50 Q 840 79.1, 880 100" fill="none" stroke="#dab785" stroke-width="6"></path><path d="M 880 200 Q 905 235, 940 235 Q 975 235, 1000 200 Q 960 179.1, 960 150 Q 960 120.9, 1000 100 Q 975 65, 940 65 Q 905 65, 880 100 Q 920 120.9, 920 150 Q 920 179.1, 880 200 Z" fill="#450503" stroke="#dab785" stroke-width="3"></path><path d="M 1000 200 Q 1025 165, 1060 165 Q 1095 165, 1120 200 Q 1160 179.1, 1160 150 Q 1160 120.9, 1120 100 Q 1095 135, 1060 135 Q 1025 135, 1000 100 Q 960 120.9, 960 150 Q 960 179.1, 1000 200 Z" fill="#5E0411" stroke="#dab785" stroke-width="3"></path><path d="M 880 100 Q 920 120.9, 920 150 Q 920 179.1, 880 200" fill="none" stroke="#dab785" stroke-width="6"></path><path d="M 1000 100 Q 960 120.9, 960 150 Q 960 179.1, 1000 200" fill="none" stroke="#dab785" stroke-width="6"></path><path d="M 1000 300 Q 1025 335, 1060 335 Q 1095 335, 1120 300 Q 1080 279.1, 1080 250 Q 1080 220.9, 1120 200 Q 1095 165, 1060 165 Q 1025 165, 1000 200 Q 1040 220.9, 1040 250 Q 1040 279.1, 1000 300 Z" fill="#450503" stroke="#dab785" stroke-width="3"></path><path d="M 1120 300 Q 1145 265, 1180 265 Q 1215 265, 1240 300 Q 1280 279.1, 1280 250 Q 1280 220.9, 1240 200 Q 1215 235, 1180 235 Q 1145 235, 1120 200 Q 1080 220.9, 1080 250 Q 1080 279.1, 1120 300 Z" fill="#5E0411" stroke="#dab785" stroke-width="3"></path><path d="M 1000 200 Q 1040 220.9, 1040 250 Q 1040 279.1, 1000 300" fill="none" stroke="#dab785" stroke-width="6"></path><path d="M 1120 200 Q 1080 220.9, 1080 250 Q 1080 279.1, 1120 300" fill="none" stroke="#dab785" stroke-width="6"></path><path d="M 1120 400 Q 1145 435, 1180 435 Q 1215 435, 1240 400 Q 1200 379.1, 1200 350 Q 1200 320.9, 1240 300 Q 1215 265, 1180 265 Q 1145 265, 1120 300 Q 1160 320.9, 1160 350 Q 1160 379.1, 1120 400 Z" fill="#450503" stroke="#dab785" stroke-width="3"></path><path d="M 1240 400 Q 1265 365, 1300 365 Q 1335 365, 1360 400 Q 1400 379.1, 1400 350 Q 1400 320.9, 1360 300 Q 1335 335, 1300 335 Q 1265 335, 1240 300 Q 1200 320.9, 1200 350 Q 1200 379.1, 1240 400 Z" fill="#5E0411" stroke="#dab785" stroke-width="3"></path><path d="M 1120 300 Q 1160 320.9, 1160 350 Q 1160 379.1, 1120 400" fill="none" stroke="#dab785" stroke-width="6"></path><path d="M 1240 300 Q 1200 320.9, 1200 350 Q 1200 379.1, 1240 400" fill="none" stroke="#dab785" stroke-width="6"></path><path d="M 1240 500 Q 1265 535, 1300 535 Q 1335 535, 1360 500 Q 1320 479.1, 1320 450 Q 1320 420.9, 1360 400 Q 1335 365, 1300 365 Q 1265 365, 1240 400 Q 1280 420.9, 1280 450 Q 1280 479.1, 1240 500 Z" fill="#450503" stroke="#dab785" stroke-width="3"></path><path d="M 1360 500 Q 1385 465, 1420 465 Q 1455 465, 1480 500 Q 1520 479.1, 1520 450 Q 1520 420.9, 1480 400 Q 1455 435, 1420 435 Q 1385 435, 1360 400 Q 1320 420.9, 1320 450 Q 1320 479.1, 1360 500 Z" fill="#5E0411" stroke="#dab785" stroke-width="3"></path><path d="M 1240 400 Q 1280 420.9, 1280 450 Q 1280 479.1, 1240 500" fill="none" stroke="#dab785" stroke-width="6"></path><path d="M 1360 400 Q 1320 420.9, 1320 450 Q 1320 479.1, 1360 500" fill="none" stroke="#dab785" stroke-width="6"></path><path d="M 1360 600 Q 1385 635, 1420 635 Q 1455 635, 1480 600 Q 1440 579.1, 1440 550 Q 1440 520.9, 1480 500 Q 1455 465, 1420 465 Q 1385 465, 1360 500 Q 1400 520.9, 1400 550 Q 1400 579.1, 1360 600 Z" fill="#450503" stroke="#dab785" stroke-width="3"></path><path d="M 1480 600 Q 1505 565, 1540 565 Q 1575 565, 1600 600 Q 1640 579.1, 1640 550 Q 1640 520.9, 1600 500 Q 1575 535, 1540 535 Q 1505 535, 1480 500 Q 1440 520.9, 1440 550 Q 1440 579.1, 1480 600 Z" fill="#5E0411" stroke="#dab785" stroke-width="3"></path><path d="M 1360 500 Q 1400 520.9, 1400 550 Q 1400 579.1, 1360 600" fill="none" stroke="#dab785" stroke-width="6"></path><path d="M 1480 500 Q 1440 520.9, 1440 550 Q 1440 579.1, 1480 600" fill="none" stroke="#dab785" stroke-width="6"></path><path d="M 1480 700 Q 1505 735, 1540 735 Q 1575 735, 1600 700 Q 1560 679.1, 1560 650 Q 1560 620.9, 1600 600 Q 1575 565, 1540 565 Q 1505 565, 1480 600 Q 1520 620.9, 1520 650 Q 1520 679.1, 1480 700 Z" fill="#450503" stroke="#dab785" stroke-width="3"></path><path d="M 1600 700 Q 1625 665, 1660 665 Q 1695 665, 1720 700 Q 1760 679.1, 1760 650 Q 1760 620.9, 1720 600 Q 1695 635, 1660 635 Q 1625 635, 1600 600 Q 1560 620.9, 1560 650 Q 1560 679.1, 1600 700 Z" fill="#5E0411" stroke="#dab785" stroke-width="3"></path><path d="M 1480 600 Q 1520 620.9, 1520 650 Q 1520 679.1, 1480 700" fill="none" stroke="#dab785" stroke-width="6"></path><path d="M 1600 600 Q 1560 620.9, 1560 650 Q 1560 679.1, 1600 700" fill="none" stroke="#dab785" stroke-width="6"></path><path d="M 1600 800 Q 1625 835, 1660 835 Q 1695 835, 1720 800 Q 1680 779.1, 1680 750 Q 1680 720.9, 1720 700 Q 1695 665, 1660 665 Q 1625 665, 1600 700 Q 1640 720.9, 1640 750 Q 1640 779.1, 1600 800 Z" fill="#450503" stroke="#dab785" stroke-width="3"></path><path d="M 1720 800 Q 1745 765, 1780 765 Q 1815 765, 1840 800 Q 1880 779.1, 1880 750 Q 1880 720.9, 1840 700 Q 1815 735, 1780 735 Q 1745 735, 1720 700 Q 1680 720.9, 1680 750 Q 1680 779.1, 1720 800 Z" fill="#5E0411" stroke="#dab785" stroke-width="3"></path><path d="M 1600 700 Q 1640 720.9, 1640 750 Q 1640 779.1, 1600 800" fill="none" stroke="#dab785" stroke-width="6"></path><path d="M 1720 700 Q 1680 720.9, 1680 750 Q 1680 779.1, 1720 800" fill="none" stroke="#dab785" stroke-width="6"></path><path d="M 880 0 Q 905 35, 940 35 Q 975 35, 1000 0 Q 960 -20.9, 960 -50 Q 960 -79.1, 1000 -100 Q 975 -135, 940 -135 Q 905 -135, 880 -100 Q 920 -79.1, 920 -50 Q 920 -20.9, 880 0 Z" fill="#450503" stroke="#dab785" stroke-width="3"></path><path d="M 1000 0 Q 1025 -35, 1060 -35 Q 1095 -35, 1120 0 Q 1160 -20.9, 1160 -50 Q 1160 -79.1, 1120 -100 Q 1095 -65, 1060 -65 Q 1025 -65, 1000 -100 Q 960 -79.1, 960 -50 Q 960 -20.9, 1000 0 Z" fill="#5E0411" stroke="#dab785" stroke-width="3"></path><path d="M 880 -100 Q 920 -79.1, 920 -50 Q 920 -20.9, 880 0" fill="none" stroke="#dab785" stroke-width="6"></path><path d="M 1000 -100 Q 960 -79.1, 960 -50 Q 960 -20.9, 1000 0" fill="none" stroke="#dab785" stroke-width="6"></path><path d="M 1000 100 Q 1025 135, 1060 135 Q 1095 135, 1120 100 Q 1080 79.1, 1080 50 Q 1080 20.9, 1120 0 Q 1095 -35, 1060 -35 Q 1025 -35, 1000 0 Q 1040 20.9, 1040 50 Q 1040 79.1, 1000 100 Z" fill="#450503" stroke="#dab785" stroke-width="3"></path><path d="M 1120 100 Q 1145 65, 1180 65 Q 1215 65, 1240 100 Q 1280 79.1, 1280 50 Q 1280 20.9, 1240 0 Q 1215 35, 1180 35 Q 1145 35, 1120 0 Q 1080 20.9, 1080 50 Q 1080 79.1, 1120 100 Z" fill="#5E0411" stroke="#dab785" stroke-width="3"></path><path d="M 1000 0 Q 1040 20.9, 1040 50 Q 1040 79.1, 1000 100" fill="none" stroke="#dab785" stroke-width="6"></path><path d="M 1120 0 Q 1080 20.9, 1080 50 Q 1080 79.1, 1120 100" fill="none" stroke="#dab785" stroke-width="6"></path><path d="M 1120 200 Q 1145 235, 1180 235 Q 1215 235, 1240 200 Q 1200 179.1, 1200 150 Q 1200 120.9, 1240 100 Q 1215 65, 1180 65 Q 1145 65, 1120 100 Q 1160 120.9, 1160 150 Q 1160 179.1, 1120 200 Z" fill="#450503" stroke="#dab785" stroke-width="3"></path><path d="M 1240 200 Q 1265 165, 1300 165 Q 1335 165, 1360 200 Q 1400 179.1, 1400 150 Q 1400 120.9, 1360 100 Q 1335 135, 1300 135 Q 1265 135, 1240 100 Q 1200 120.9, 1200 150 Q 1200 179.1, 1240 200 Z" fill="#5E0411" stroke="#dab785" stroke-width="3"></path><path d="M 1120 100 Q 1160 120.9, 1160 150 Q 1160 179.1, 1120 200" fill="none" stroke="#dab785" stroke-width="6"></path><path d="M 1240 100 Q 1200 120.9, 1200 150 Q 1200 179.1, 1240 200" fill="none" stroke="#dab785" stroke-width="6"></path><path d="M 1240 300 Q 1265 335, 1300 335 Q 1335 335, 1360 300 Q 1320 279.1, 1320 250 Q 1320 220.9, 1360 200 Q 1335 165, 1300 165 Q 1265 165, 1240 200 Q 1280 220.9, 1280 250 Q 1280 279.1, 1240 300 Z" fill="#450503" stroke="#dab785" stroke-width="3"></path><path d="M 1360 300 Q 1385 265, 1420 265 Q 1455 265, 1480 300 Q 1520 279.1, 1520 250 Q 1520 220.9, 1480 200 Q 1455 235, 1420 235 Q 1385 235, 1360 200 Q 1320 220.9, 1320 250 Q 1320 279.1, 1360 300 Z" fill="#5E0411" stroke="#dab785" stroke-width="3"></path><path d="M 1240 200 Q 1280 220.9, 1280 250 Q 1280 279.1, 1240 300" fill="none" stroke="#dab785" stroke-width="6"></path><path d="M 1360 200 Q 1320 220.9, 1320 250 Q 1320 279.1, 1360 300" fill="none" stroke="#dab785" stroke-width="6"></path><path d="M 1360 400 Q 1385 435, 1420 435 Q 1455 435, 1480 400 Q 1440 379.1, 1440 350 Q 1440 320.9, 1480 300 Q 1455 265, 1420 265 Q 1385 265, 1360 300 Q 1400 320.9, 1400 350 Q 1400 379.1, 1360 400 Z" fill="#450503" stroke="#dab785" stroke-width="3"></path><path d="M 1480 400 Q 1505 365, 1540 365 Q 1575 365, 1600 400 Q 1640 379.1, 1640 350 Q 1640 320.9, 1600 300 Q 1575 335, 1540 335 Q 1505 335, 1480 300 Q 1440 320.9, 1440 350 Q 1440 379.1, 1480 400 Z" fill="#5E0411" stroke="#dab785" stroke-width="3"></path><path d="M 1360 300 Q 1400 320.9, 1400 350 Q 1400 379.1, 1360 400" fill="none" stroke="#dab785" stroke-width="6"></path><path d="M 1480 300 Q 1440 320.9, 1440 350 Q 1440 379.1, 1480 400" fill="none" stroke="#dab785" stroke-width="6"></path><path d="M 1480 500 Q 1505 535, 1540 535 Q 1575 535, 1600 500 Q 1560 479.1, 1560 450 Q 1560 420.9, 1600 400 Q 1575 365, 1540 365 Q 1505 365, 1480 400 Q 1520 420.9, 1520 450 Q 1520 479.1, 1480 500 Z" fill="#450503" stroke="#dab785" stroke-width="3"></path><path d="M 1600 500 Q 1625 465, 1660 465 Q 1695 465, 1720 500 Q 1760 479.1, 1760 450 Q 1760 420.9, 1720 400 Q 1695 435, 1660 435 Q 1625 435, 1600 400 Q 1560 420.9, 1560 450 Q 1560 479.1, 1600 500 Z" fill="#5E0411" stroke="#dab785" stroke-width="3"></path><path d="M 1480 400 Q 1520 420.9, 1520 450 Q 1520 479.1, 1480 500" fill="none" stroke="#dab785" stroke-width="6"></path><path d="M 1600 400 Q 1560 420.9, 1560 450 Q 1560 479.1, 1600 500" fill="none" stroke="#dab785" stroke-width="6"></path><path d="M 1600 600 Q 1625 635, 1660 635 Q 1695 635, 1720 600 Q 1680 579.1, 1680 550 Q 1680 520.9, 1720 500 Q 1695 465, 1660 465 Q 1625 465, 1600 500 Q 1640 520.9, 1640 550 Q 1640 579.1, 1600 600 Z" fill="#450503" stroke="#dab785" stroke-width="3"></path><path d="M 1720 600 Q 1745 565, 1780 565 Q 1815 565, 1840 600 Q 1880 579.1, 1880 550 Q 1880 520.9, 1840 500 Q 1815 535, 1780 535 Q 1745 535, 1720 500 Q 1680 520.9, 1680 550 Q 1680 579.1, 1720 600 Z" fill="#5E0411" stroke="#dab785" stroke-width="3"></path><path d="M 1600 500 Q 1640 520.9, 1640 550 Q 1640 579.1, 1600 600" fill="none" stroke="#dab785" stroke-width="6"></path><path d="M 1720 500 Q 1680 520.9, 1680 550 Q 1680 579.1, 1720 600" fill="none" stroke="#dab785" stroke-width="6"></path><path d="M 1720 700 Q 1745 735, 1780 735 Q 1815 735, 1840 700 Q 1800 679.1, 1800 650 Q 1800 620.9, 1840 600 Q 1815 565, 1780 565 Q 1745 565, 1720 600 Q 1760 620.9, 1760 650 Q 1760 679.1, 1720 700 Z" fill="#450503" stroke="#dab785" stroke-width="3"></path><path d="M 1840 700 Q 1865 665, 1900 665 Q 1935 665, 1960 700 Q 2000 679.1, 2000 650 Q 2000 620.9, 1960 600 Q 1935 635, 1900 635 Q 1865 635, 1840 600 Q 1800 620.9, 1800 650 Q 1800 679.1, 1840 700 Z" fill="#5E0411" stroke="#dab785" stroke-width="3"></path><path d="M 1720 600 Q 1760 620.9, 1760 650 Q 1760 679.1, 1720 700" fill="none" stroke="#dab785" stroke-width="6"></path><path d="M 1840 600 Q 1800 620.9, 1800 650 Q 1800 679.1, 1840 700" fill="none" stroke="#dab785" stroke-width="6"></path><path d="M 1840 800 Q 1865 835, 1900 835 Q 1935 835, 1960 800 Q 1920 779.1, 1920 750 Q 1920 720.9, 1960 700 Q 1935 665, 1900 665 Q 1865 665, 1840 700 Q 1880 720.9, 1880 750 Q 1880 779.1, 1840 800 Z" fill="#450503" stroke="#dab785" stroke-width="3"></path><path d="M 1960 800 Q 1985 765, 2020 765 Q 2055 765, 2080 800 Q 2120 779.1, 2120 750 Q 2120 720.9, 2080 700 Q 2055 735, 2020 735 Q 1985 735, 1960 700 Q 1920 720.9, 1920 750 Q 1920 779.1, 1960 800 Z" fill="#5E0411" stroke="#dab785" stroke-width="3"></path><path d="M 1840 700 Q 1880 720.9, 1880 750 Q 1880 779.1, 1840 800" fill="none" stroke="#dab785" stroke-width="6"></path><path d="M 1960 700 Q 1920 720.9, 1920 750 Q 1920 779.1, 1960 800" fill="none" stroke="#dab785" stroke-width="6"></path><ellipse cx="400" cy="400" rx="600" ry="600" fill="none" stroke="white" stroke-width="560"></ellipse><ellipse cx="400" cy="400" rx="320" ry="320" fill="none" stroke="#dab785" stroke-width="3"></ellipse></svg>