<svg viewBox="0 0 800 800" preserveAspectRatio="xMidYMin slice" xmlns="http://www.w3.org/2000/svg" xlink="http://www.w3.org/1999/xlink"><defs><g id="unit-29"><path d="M 0 0 Q 25 35, 60 35 Q 95 35, 120 0 Q 80 -20.9, 80 -50 Q 80 -79.1, 120 -100 Q 95 -135, 60 -135 Q 25 -135, 0 -100 Q 40 -79.1, 40 -50 Q 40 -20.9, 0 0 Z" fill="#450503" stroke="#dab785" stroke-width="3"></path><path d="M 120 0 Q 145 -35, 180 -35 Q 215 -35, 240 0 Q 280 -20.9, 280 -50 Q 280 -79.1, 240 -100 Q 215 -65, 180 -65 Q 145 -65, 120 -100 Q 80 -79.1, 80 -50 Q 80 -20.9, 120 0 Z" fill="#5E0411" stroke="#dab785" stroke-width="3"></path><path d="M 0 -100 Q 40 -79.1, 40 -50 Q 40 -20.9, 0 0" fill="none" stroke="#dab785" stroke-width="6"></path><path d="M 120 -100 Q 80 -79.1, 80 -50 Q 80 -20.9, 120 0" fill="none" stroke="#dab785" stroke-width="6"></path></g></defs><use href="#unit-29" transform="translate(-1040, 0)"></use><use href="#unit-29" transform="translate(-920, 100)"></use><use href="#unit-29" transform="translate(-800, 200)"></use><use href="#unit-29" transform="translate(-680, 300)"></use><use href="#unit-29" transform="translate(-560, 400)"></use><use href="#unit-29" transform="translate(-440, 500)"></use><use href="#unit-29" transform="translate(-320, 600)"></use><use href="#unit-29" transform="translate(-200, 700)"></use><use href="#unit-29" transform="translate(-80, 800)"></use><use href="#unit-29" transform="translate(-800, 0)"></use><use href="#unit-29" transform="translate(-680, 100)"></use><use href="#unit-29" transform="translate(-560, 200)"></use><use href="#unit-29" transform="translate(-440, 300)"></use><use href="#unit-29" transform="translate(-320, 400)"></use><use href="#unit-29" transform="translate(-200, 500)"></use><use href="#unit-29" transform="translate(-80, 600)"></use><use href="#unit-29" transform="translate(40, 700)"></use><use href="#unit-29" transform="translate(160, 800)"></use><use href="#unit-29" transform="translate(-560, 0)"></use><use href="#unit-29" transform="translate(-440, 100)"></use><use href="#unit-29" transform="translate(-320, 200)"></use><use href="#unit-29" transform="translate(-200, 300)"></use><use href="#unit-29" transform="translate(-80, 400)"></use><use href="#unit-29" transform="translate(40, 500)"></use><use href="#unit-29" transform="translate(160, 600)"></use><use href="#unit-29" transform="translate(280, 700)"></use><use href="#unit-29" transform="translate(400, 800)"></use><use href="#unit-29" transform="translate(-320, 0)"></use><use href="#unit-29" transform="translate(-200, 100)"></use><use href="#unit-29" transform="translate(-80, 200)"></use><use href="#unit-29" transform="translate(40, 300)"></use><use href="#unit-29" transform="translate(160, 400)"></use><use href="#unit-29" transform="translate(280, 500)"></use><use href="#unit-29" transform="translate(400, 600)"></use><use href="#unit-29" transform="translate(520, 700)"></use><use href="#unit-29" transform="translate(640, 800)"></use><use href="#unit-29" transform="translate(-80, 0)"></use><use href="#unit-29" transform="translate(40, 100)"></use><use href="#unit-29" transform="translate(160, 200)"></use><use href="#unit-29" transform="translate(280, 300)"></use><use href="#unit-29" transform="translate(400, 400)"></use><use href="#unit-29" transform="translate(520, 500)"></use><use href="#unit-29" transform="translate(640, 600)"></use><use href="#unit-29" transform="translate(760, 700)"></use><use href="#unit-29" transform="translate(880, 800)"></use><use href="#unit-29" transform="translate(160, 0)"></use><use href="#unit-29" transform="translate(280, 100)"></use><use href="#unit-29" transform="translate(400, 200)"></use><use href="#unit-29" transform="translate(520, 300)"></use><use href="#unit-29" transform="translate(640, 400)"></use><use href="#unit-29" transform="translate(760, 500)"></use><use href="#unit-29" transform="translate(880, 600)"></use><use href="#unit-29" transform="translate(1000, 700)"></use><use href="#unit-29" transform="translate(1120, 800)"></use><use href="#unit-29" transform="translate(400, 0)"></use><use href="#unit-29" transform="translate(520, 100)"></use><use href="#unit-29" transform="translate(640, 200)"></use><use href="#unit-29" transform="translate(760, 300)"></use><use href="#unit-29" transform="translate(880, 400)"></use><use href="#unit-29" transform="translate(1000, 500)"></use><use href="#unit-29" transform="translate(1120, 600)"></use><use href="#unit-29" transform="translate(1240, 700)"></use><use href="#unit-29" transform="translate(1360, 800)"></use><use href="#unit-29" transform="translate(640, 0)"></use><use href="#unit-29" transform="translate(760, 100)"></use><use href="#unit-29" transform="translate(880, 200)"></use><use href="#unit-29" transform="translate(1000, 300)"></use><use href="#unit-29" transform="translate(1120, 400)"></use><use href="#unit-29" transform="translate(1240, 500)"></use><use href="#unit-29" transform="translate(1360, 600)"></use><use href="#unit-29" transform="translate(1480, 700)"></use><use href="#unit-29" transform="translate(1600, 800)"></use><use href="#unit-29" transform="translate(880, 0)"></use><use href="#unit-29" transform="translate(1000, 100)"></use><use href="#unit-29" transform="translate(1120, 200)"></use><use href="#unit-29" transform="translate(1240, 300)"></use><use href="#unit-29" transform="translate(1360, 400)"></use><use href="#unit-29" transform="translate(1480, 500)"></use><use href="#unit-29" transform="translate(1600, 600)"></use><use href="#unit-29" transform="translate(1720, 700)"></use><use href="#unit-29" transform="translate(1840, 800)"></use><ellipse cx="400" cy="400" rx="600" ry="600" fill="none" stroke="white" stroke-width="560"></ellipse><ellipse cx="400" cy="400" rx="320" ry="320" fill="none" stroke="#dab785" stroke-width="3"></ellipse></svg>