<svg viewBox="0 0 800 800" preserveAspectRatio="xMidYMin slice" xmlns="http://www.w3.org/2000/svg" xlink="http://www.w3.org/1999/xlink"><defs><g id="unit-30"><path d="M 60 0 L 90 52 L 30 52 L 0 103.9 L -30 52 L -90 52 L -60 0 L -90 -52 L -30 -52 L 0 -103.9 L 30 -52 L 90 -52 Z" fill="#fff9fb" stroke="#252627" stroke-width="4"></path><path d="M 90 52 L 64.6 52 L 52 30 L 77.3 30 L 60 0 Z" fill="#d3d4d9" stroke="#252627" stroke-width="4"></path><path d="M 30 52 L 0 0 L 52 30" fill="none" stroke="#252627" stroke-width="1"></path><path d="M 0 103.9 L -12.7 82 L 0 60 L 12.7 82 L 30 52 Z" fill="#d3d4d9" stroke="#252627" stroke-width="4"></path><path d="M -30 52 L 0 0 L 0 60" fill="none" stroke="#252627" stroke-width="1"></path><path d="M -90 52 L -77.3 30 L -52 30 L -64.6 52 L -30 52 Z" fill="#d3d4d9" stroke="#252627" stroke-width="4"></path><path d="M -60 0 L 0 0 L -52 30" fill="none" stroke="#252627" stroke-width="1"></path><path d="M -90 -52 L -64.6 -52 L -52 -30 L -77.3 -30 L -60 0 Z" fill="#d3d4d9" stroke="#252627" stroke-width="4"></path><path d="M -30 -52 L 0 0 L -52 -30" fill="none" stroke="#252627" stroke-width="1"></path><path d="M 0 -103.9 L 12.7 -82 L 0 -60 L -12.7 -82 L -30 -52 Z" fill="#d3d4d9" stroke="#252627" stroke-width="4"></path><path d="M 30 -52 L 0 0 L 0 -60" fill="none" stroke="#252627" stroke-width="1"></path><path d="M 90 -52 L 77.3 -30 L 52 -30 L 64.6 -52 L 30 -52 Z" fill="#d3d4d9" stroke="#252627" stroke-width="4"></path><path d="M 60 0 L 0 0 L 52 -30" fill="none" stroke="#252627" stroke-width="1"></path><path d="M 0 0 L 19.8 7.4 Q 23.2 6.2, 20.8 3.5 Z" fill="#bb0a21" stroke="none" stroke-width="1"></path><path d="M 0 0 L 13.4 16.3 Q 17 17, 16.3 13.4 Z" fill="#bb0a21" stroke="none" stroke-width="1"></path><path d="M 0 0 L 3.5 20.8 Q 6.2 23.2, 7.4 19.8 Z" fill="#bb0a21" stroke="none" stroke-width="1"></path><path d="M 0 0 L -7.4 19.8 Q -6.2 23.2, -3.5 20.8 Z" fill="#bb0a21" stroke="none" stroke-width="1"></path><path d="M 0 0 L -16.3 13.4 Q -17 17, -13.4 16.3 Z" fill="#bb0a21" stroke="none" stroke-width="1"></path><path d="M 0 0 L -20.8 3.5 Q -23.2 6.2, -19.8 7.4 Z" fill="#bb0a21" stroke="none" stroke-width="1"></path><path d="M 0 0 L -19.8 -7.4 Q -23.2 -6.2, -20.8 -3.5 Z" fill="#bb0a21" stroke="none" stroke-width="1"></path><path d="M 0 0 L -13.4 -16.3 Q -17 -17, -16.3 -13.4 Z" fill="#bb0a21" stroke="none" stroke-width="1"></path><path d="M 0 0 L -3.5 -20.8 Q -6.2 -23.2, -7.4 -19.8 Z" fill="#bb0a21" stroke="none" stroke-width="1"></path><path d="M 0 0 L 7.4 -19.8 Q 6.2 -23.2, 3.5 -20.8 Z" fill="#bb0a21" stroke="none" stroke-width="1"></path><path d="M 0 0 L 16.3 -13.4 Q 17 -17, 13.4 -16.3 Z" fill="#bb0a21" stroke="none" stroke-width="1"></path><path d="M 0 0 L 20.8 -3.5 Q 23.2 -6.2, 19.8 -7.4 Z" fill="#bb0a21" stroke="none" stroke-width="1"></path></g></defs><rect x="0" y="0" width="800" height="800" fill="#4b88a2"></rect><use href="#unit-30" transform="translate(400, 400)"></use><use href="#unit-30" transform="translate(258, 482)"></use><use href="#unit-30" transform="translate(400, 563.9)"></use><use href="#unit-30" transform="translate(542, 482)"></use><use href="#unit-30" transform="translate(542, 318)"></use><use href="#unit-30" transform="translate(400, 236.1)"></use><use href="#unit-30" transform="translate(258, 318)"></use><use href="#unit-30" transform="translate(116.1, 563.9)"></use><use href="#unit-30" transform="translate(258, 645.9)"></use><use href="#unit-30" transform="translate(400, 727.8)"></use><use href="#unit-30" transform="translate(542, 645.9)"></use><use href="#unit-30" transform="translate(683.9, 563.9)"></use><use href="#unit-30" transform="translate(683.9, 400)"></use><use href="#unit-30" transform="translate(683.9, 236.1)"></use><use href="#unit-30" transform="translate(542, 154.1)"></use><use href="#unit-30" transform="translate(400, 72.2)"></use><use href="#unit-30" transform="translate(258, 154.1)"></use><use href="#unit-30" transform="translate(116.1, 236.1)"></use><use href="#unit-30" transform="translate(116.1, 400)"></use><use href="#unit-30" transform="translate(-25.9, 645.9)"></use><use href="#unit-30" transform="translate(116.1, 727.8)"></use><use href="#unit-30" transform="translate(258, 809.8)"></use><use href="#unit-30" transform="translate(400, 891.8)"></use><use href="#unit-30" transform="translate(542, 809.8)"></use><use href="#unit-30" transform="translate(683.9, 727.8)"></use><use href="#unit-30" transform="translate(825.9, 645.9)"></use><use href="#unit-30" transform="translate(825.9, 482)"></use><use href="#unit-30" transform="translate(825.9, 318)"></use><use href="#unit-30" transform="translate(825.9, 154.1)"></use><use href="#unit-30" transform="translate(683.9, 72.2)"></use><use href="#unit-30" transform="translate(542, -9.8)"></use><use href="#unit-30" transform="translate(400, -91.8)"></use><use href="#unit-30" transform="translate(258, -9.8)"></use><use href="#unit-30" transform="translate(116.1, 72.2)"></use><use href="#unit-30" transform="translate(-25.9, 154.1)"></use><use href="#unit-30" transform="translate(-25.9, 318)"></use><use href="#unit-30" transform="translate(-25.9, 482)"></use><ellipse cx="400" cy="400" rx="600" ry="600" fill="none" stroke="white" stroke-width="560"></ellipse><ellipse cx="400" cy="400" rx="320" ry="320" fill="none" stroke="#252627" stroke-width="4"></ellipse></svg>