<svg viewBox="0 0 800 800" preserveAspectRatio="xMidYMin slice" xmlns="http://www.w3.org/2000/svg" xlink="http://www.w3.org/1999/xlink"><defs><g id="unit-31"><path d="M 40 69.3 L -40 69.3 L -80 0 L -40 -69.3 L 40 -69.3 L 80 0 Z" fill="#4ba3c3" stroke="none" stroke-width="1"></path><path d="M 53.9 69.3 L 103.9 -17.3 L 153.9 69.3 Z" fill="#175676" stroke="none" stroke-width="1"></path><path d="M -33.1 81.3 L 66.9 81.3 L 16.9 167.9 Z" fill="#175676" stroke="none" stroke-width="1"></path></g></defs><rect x="0" y="0" width="800" height="800" fill="#cce6f4"></rect><use href="#unit-31" transform="translate(400, 400)"></use><use href="#unit-31" transform="translate(330, 579.9)"></use><use href="#unit-31" transform="translate(520.8, 550.6)"></use><use href="#unit-31" transform="translate(590.8, 370.7)"></use><use href="#unit-31" transform="translate(470, 220.1)"></use><use href="#unit-31" transform="translate(279.2, 249.4)"></use><use href="#unit-31" transform="translate(209.2, 429.3)"></use><use href="#unit-31" transform="translate(260, 759.8)"></use><use href="#unit-31" transform="translate(450.8, 730.4)"></use><use href="#unit-31" transform="translate(641.6, 701.1)"></use><use href="#unit-31" transform="translate(711.6, 521.2)"></use><use href="#unit-31" transform="translate(781.6, 341.4)"></use><use href="#unit-31" transform="translate(660.8, 190.8)"></use><use href="#unit-31" transform="translate(540, 40.2)"></use><use href="#unit-31" transform="translate(349.2, 69.6)"></use><use href="#unit-31" transform="translate(158.4, 98.9)"></use><use href="#unit-31" transform="translate(88.4, 278.8)"></use><use href="#unit-31" transform="translate(18.4, 458.6)"></use><use href="#unit-31" transform="translate(139.2, 609.2)"></use><use href="#unit-31" transform="translate(190, 939.7)"></use><use href="#unit-31" transform="translate(380.8, 910.3)"></use><use href="#unit-31" transform="translate(571.6, 881)"></use><use href="#unit-31" transform="translate(762.4, 851.7)"></use><use href="#unit-31" transform="translate(832.4, 671.8)"></use><use href="#unit-31" transform="translate(902.4, 491.9)"></use><use href="#unit-31" transform="translate(972.4, 312)"></use><use href="#unit-31" transform="translate(851.6, 161.5)"></use><use href="#unit-31" transform="translate(730.8, 10.9)"></use><use href="#unit-31" transform="translate(610, -139.7)"></use><use href="#unit-31" transform="translate(419.2, -110.3)"></use><use href="#unit-31" transform="translate(228.4, -81)"></use><use href="#unit-31" transform="translate(37.6, -51.7)"></use><use href="#unit-31" transform="translate(-32.4, 128.2)"></use><use href="#unit-31" transform="translate(-102.4, 308.1)"></use><use href="#unit-31" transform="translate(-172.4, 488)"></use><use href="#unit-31" transform="translate(-51.6, 638.5)"></use><use href="#unit-31" transform="translate(69.2, 789.1)"></use><ellipse cx="400" cy="400" rx="600" ry="600" fill="none" stroke="white" stroke-width="560"></ellipse><ellipse cx="400" cy="400" rx="320" ry="320" fill="none" stroke="#cce6f4" stroke-width="12"></ellipse></svg>