<svg viewBox="0 0 800 800" preserveAspectRatio="xMidYMin slice" xmlns="http://www.w3.org/2000/svg"><rect x="0" y="0" width="800" height="800" fill="#cce6f4"></rect><path d="M 440 469.3 L 360 469.3 L 320 400 L 360 330.7 L 440 330.7 L 480 400 Z" fill="#4ba3c3" stroke="none" stroke-width="1"></path><path d="M 453.9 469.3 L 503.9 382.7 L 553.9 469.3 Z" fill="#175676" stroke="none" stroke-width="1"></path><path d="M 366.9 481.3 L 466.9 481.3 L 416.9 567.9 Z" fill="#175676" stroke="none" stroke-width="1"></path><path d="M 370 649.2 L 290 649.2 L 250 579.9 L 290 510.6 L 370 510.6 L 410 579.9 Z" fill="#4ba3c3" stroke="none" stroke-width="1"></path><path d="M 383.9 649.2 L 433.9 562.6 L 483.9 649.2 Z" fill="#175676" stroke="none" stroke-width="1"></path><path d="M 296.9 661.2 L 396.9 661.2 L 346.9 747.8 Z" fill="#175676" stroke="none" stroke-width="1"></path><path d="M 560.8 619.8 L 480.8 619.8 L 440.8 550.6 L 480.8 481.3 L 560.8 481.3 L 600.8 550.6 Z" fill="#4ba3c3" stroke="none" stroke-width="1"></path><path d="M 574.6 619.8 L 624.6 533.2 L 674.6 619.8 Z" fill="#175676" stroke="none" stroke-width="1"></path><path d="M 487.7 631.8 L 587.7 631.8 L 537.7 718.4 Z" fill="#175676" stroke="none" stroke-width="1"></path><path d="M 630.8 440 L 550.8 440 L 510.8 370.7 L 550.8 301.4 L 630.8 301.4 L 670.8 370.7 Z" fill="#4ba3c3" stroke="none" stroke-width="1"></path><path d="M 644.6 440 L 694.6 353.4 L 744.6 440 Z" fill="#175676" stroke="none" stroke-width="1"></path><path d="M 557.7 452 L 657.7 452 L 607.7 538.6 Z" fill="#175676" stroke="none" stroke-width="1"></path><path d="M 510 289.4 L 430 289.4 L 390 220.1 L 430 150.8 L 510 150.8 L 550 220.1 Z" fill="#4ba3c3" stroke="none" stroke-width="1"></path><path d="M 523.9 289.4 L 573.9 202.8 L 623.9 289.4 Z" fill="#175676" stroke="none" stroke-width="1"></path><path d="M 436.9 301.4 L 536.9 301.4 L 486.9 388 Z" fill="#175676" stroke="none" stroke-width="1"></path><path d="M 319.2 318.7 L 239.2 318.7 L 199.2 249.4 L 239.2 180.2 L 319.2 180.2 L 359.2 249.4 Z" fill="#4ba3c3" stroke="none" stroke-width="1"></path><path d="M 333.1 318.7 L 383.1 232.1 L 433.1 318.7 Z" fill="#175676" stroke="none" stroke-width="1"></path><path d="M 246.1 330.7 L 346.1 330.7 L 296.1 417.3 Z" fill="#175676" stroke="none" stroke-width="1"></path><path d="M 249.2 498.6 L 169.2 498.6 L 129.2 429.3 L 169.2 360 L 249.2 360 L 289.2 429.3 Z" fill="#4ba3c3" stroke="none" stroke-width="1"></path><path d="M 263.1 498.6 L 313.1 412 L 363.1 498.6 Z" fill="#175676" stroke="none" stroke-width="1"></path><path d="M 176.1 510.6 L 276.1 510.6 L 226.1 597.2 Z" fill="#175676" stroke="none" stroke-width="1"></path><path d="M 300 829.1 L 220 829.1 L 180 759.8 L 220 690.5 L 300 690.5 L 340 759.8 Z" fill="#4ba3c3" stroke="none" stroke-width="1"></path><path d="M 313.9 829.1 L 363.9 742.4 L 413.9 829.1 Z" fill="#175676" stroke="none" stroke-width="1"></path><path d="M 226.9 841.1 L 326.9 841.1 L 276.9 927.7 Z" fill="#175676" stroke="none" stroke-width="1"></path><path d="M 490.8 799.7 L 410.8 799.7 L 370.8 730.4 L 410.8 661.2 L 490.8 661.2 L 530.8 730.4 Z" fill="#4ba3c3" stroke="none" stroke-width="1"></path><path d="M 504.6 799.7 L 554.6 713.1 L 604.6 799.7 Z" fill="#175676" stroke="none" stroke-width="1"></path><path d="M 417.7 811.7 L 517.7 811.7 L 467.7 898.3 Z" fill="#175676" stroke="none" stroke-width="1"></path><path d="M 681.6 770.4 L 601.6 770.4 L 561.6 701.1 L 601.6 631.8 L 681.6 631.8 L 721.6 701.1 Z" fill="#4ba3c3" stroke="none" stroke-width="1"></path><path d="M 695.4 770.4 L 745.4 683.8 L 795.4 770.4 Z" fill="#175676" stroke="none" stroke-width="1"></path><path d="M 608.5 782.4 L 708.5 782.4 L 658.5 869 Z" fill="#175676" stroke="none" stroke-width="1"></path><path d="M 751.6 590.5 L 671.6 590.5 L 631.6 521.2 L 671.6 452 L 751.6 452 L 791.6 521.2 Z" fill="#4ba3c3" stroke="none" stroke-width="1"></path><path d="M 765.4 590.5 L 815.4 503.9 L 865.4 590.5 Z" fill="#175676" stroke="none" stroke-width="1"></path><path d="M 678.5 602.5 L 778.5 602.5 L 728.5 689.1 Z" fill="#175676" stroke="none" stroke-width="1"></path><path d="M 821.6 410.6 L 741.6 410.6 L 701.6 341.4 L 741.6 272.1 L 821.6 272.1 L 861.6 341.4 Z" fill="#4ba3c3" stroke="none" stroke-width="1"></path><path d="M 835.4 410.6 L 885.4 324 L 935.4 410.6 Z" fill="#175676" stroke="none" stroke-width="1"></path><path d="M 748.5 422.6 L 848.5 422.6 L 798.5 509.2 Z" fill="#175676" stroke="none" stroke-width="1"></path><path d="M 700.8 260.1 L 620.8 260.1 L 580.8 190.8 L 620.8 121.5 L 700.8 121.5 L 740.8 190.8 Z" fill="#4ba3c3" stroke="none" stroke-width="1"></path><path d="M 714.6 260.1 L 764.6 173.5 L 814.6 260.1 Z" fill="#175676" stroke="none" stroke-width="1"></path><path d="M 627.7 272.1 L 727.7 272.1 L 677.7 358.7 Z" fill="#175676" stroke="none" stroke-width="1"></path><path d="M 580 109.5 L 500 109.5 L 460 40.2 L 500 -29.1 L 580 -29.1 L 620 40.2 Z" fill="#4ba3c3" stroke="none" stroke-width="1"></path><path d="M 593.9 109.5 L 643.9 22.9 L 693.9 109.5 Z" fill="#175676" stroke="none" stroke-width="1"></path><path d="M 506.9 121.5 L 606.9 121.5 L 556.9 208.1 Z" fill="#175676" stroke="none" stroke-width="1"></path><path d="M 389.2 138.8 L 309.2 138.8 L 269.2 69.6 L 309.2 0.3 L 389.2 0.3 L 429.2 69.6 Z" fill="#4ba3c3" stroke="none" stroke-width="1"></path><path d="M 403.1 138.8 L 453.1 52.2 L 503.1 138.8 Z" fill="#175676" stroke="none" stroke-width="1"></path><path d="M 316.1 150.8 L 416.1 150.8 L 366.1 237.4 Z" fill="#175676" stroke="none" stroke-width="1"></path><path d="M 198.4 168.2 L 118.4 168.2 L 78.4 98.9 L 118.4 29.6 L 198.4 29.6 L 238.4 98.9 Z" fill="#4ba3c3" stroke="none" stroke-width="1"></path><path d="M 212.3 168.2 L 262.3 81.6 L 312.3 168.2 Z" fill="#175676" stroke="none" stroke-width="1"></path><path d="M 125.4 180.2 L 225.4 180.2 L 175.4 266.8 Z" fill="#175676" stroke="none" stroke-width="1"></path><path d="M 128.4 348 L 48.4 348 L 8.4 278.8 L 48.4 209.5 L 128.4 209.5 L 168.4 278.8 Z" fill="#4ba3c3" stroke="none" stroke-width="1"></path><path d="M 142.3 348 L 192.3 261.4 L 242.3 348 Z" fill="#175676" stroke="none" stroke-width="1"></path><path d="M 55.4 360 L 155.4 360 L 105.4 446.6 Z" fill="#175676" stroke="none" stroke-width="1"></path><path d="M 58.4 527.9 L -21.6 527.9 L -61.6 458.6 L -21.6 389.4 L 58.4 389.4 L 98.4 458.6 Z" fill="#4ba3c3" stroke="none" stroke-width="1"></path><path d="M 72.3 527.9 L 122.3 441.3 L 172.3 527.9 Z" fill="#175676" stroke="none" stroke-width="1"></path><path d="M -14.6 539.9 L 85.4 539.9 L 35.4 626.5 Z" fill="#175676" stroke="none" stroke-width="1"></path><path d="M 179.2 678.5 L 99.2 678.5 L 59.2 609.2 L 99.2 539.9 L 179.2 539.9 L 219.2 609.2 Z" fill="#4ba3c3" stroke="none" stroke-width="1"></path><path d="M 193.1 678.5 L 243.1 591.9 L 293.1 678.5 Z" fill="#175676" stroke="none" stroke-width="1"></path><path d="M 106.1 690.5 L 206.1 690.5 L 156.1 777.1 Z" fill="#175676" stroke="none" stroke-width="1"></path><path d="M 230 1008.9 L 150 1008.9 L 110 939.7 L 150 870.4 L 230 870.4 L 270 939.7 Z" fill="#4ba3c3" stroke="none" stroke-width="1"></path><path d="M 243.9 1008.9 L 293.9 922.3 L 343.9 1008.9 Z" fill="#175676" stroke="none" stroke-width="1"></path><path d="M 156.9 1020.9 L 256.9 1020.9 L 206.9 1107.5 Z" fill="#175676" stroke="none" stroke-width="1"></path><path d="M 420.8 979.6 L 340.8 979.6 L 300.8 910.3 L 340.8 841.1 L 420.8 841.1 L 460.8 910.3 Z" fill="#4ba3c3" stroke="none" stroke-width="1"></path><path d="M 434.6 979.6 L 484.6 893 L 534.6 979.6 Z" fill="#175676" stroke="none" stroke-width="1"></path><path d="M 347.7 991.6 L 447.7 991.6 L 397.7 1078.2 Z" fill="#175676" stroke="none" stroke-width="1"></path><path d="M 611.6 950.3 L 531.6 950.3 L 491.6 881 L 531.6 811.7 L 611.6 811.7 L 651.6 881 Z" fill="#4ba3c3" stroke="none" stroke-width="1"></path><path d="M 625.4 950.3 L 675.4 863.7 L 725.4 950.3 Z" fill="#175676" stroke="none" stroke-width="1"></path><path d="M 538.5 962.3 L 638.5 962.3 L 588.5 1048.9 Z" fill="#175676" stroke="none" stroke-width="1"></path><path d="M 802.4 921 L 722.4 921 L 682.4 851.7 L 722.4 782.4 L 802.4 782.4 L 842.4 851.7 Z" fill="#4ba3c3" stroke="none" stroke-width="1"></path><path d="M 816.2 921 L 866.2 834.4 L 916.2 921 Z" fill="#175676" stroke="none" stroke-width="1"></path><path d="M 729.3 933 L 829.3 933 L 779.3 1019.6 Z" fill="#175676" stroke="none" stroke-width="1"></path><path d="M 872.4 741.1 L 792.4 741.1 L 752.4 671.8 L 792.4 602.5 L 872.4 602.5 L 912.4 671.8 Z" fill="#4ba3c3" stroke="none" stroke-width="1"></path><path d="M 886.2 741.1 L 936.2 654.5 L 986.2 741.1 Z" fill="#175676" stroke="none" stroke-width="1"></path><path d="M 799.3 753.1 L 899.3 753.1 L 849.3 839.7 Z" fill="#175676" stroke="none" stroke-width="1"></path><path d="M 942.4 561.2 L 862.4 561.2 L 822.4 491.9 L 862.4 422.6 L 942.4 422.6 L 982.4 491.9 Z" fill="#4ba3c3" stroke="none" stroke-width="1"></path><path d="M 956.2 561.2 L 1006.2 474.6 L 1056.2 561.2 Z" fill="#175676" stroke="none" stroke-width="1"></path><path d="M 869.3 573.2 L 969.3 573.2 L 919.3 659.8 Z" fill="#175676" stroke="none" stroke-width="1"></path><path d="M 1012.4 381.3 L 932.4 381.3 L 892.4 312 L 932.4 242.8 L 1012.4 242.8 L 1052.4 312 Z" fill="#4ba3c3" stroke="none" stroke-width="1"></path><path d="M 1026.2 381.3 L 1076.2 294.7 L 1126.2 381.3 Z" fill="#175676" stroke="none" stroke-width="1"></path><path d="M 939.3 393.3 L 1039.3 393.3 L 989.3 479.9 Z" fill="#175676" stroke="none" stroke-width="1"></path><path d="M 891.6 230.8 L 811.6 230.8 L 771.6 161.5 L 811.6 92.2 L 891.6 92.2 L 931.6 161.5 Z" fill="#4ba3c3" stroke="none" stroke-width="1"></path><path d="M 905.4 230.8 L 955.4 144.2 L 1005.4 230.8 Z" fill="#175676" stroke="none" stroke-width="1"></path><path d="M 818.5 242.8 L 918.5 242.8 L 868.5 329.4 Z" fill="#175676" stroke="none" stroke-width="1"></path><path d="M 770.8 80.2 L 690.8 80.2 L 650.8 10.9 L 690.8 -58.4 L 770.8 -58.4 L 810.8 10.9 Z" fill="#4ba3c3" stroke="none" stroke-width="1"></path><path d="M 784.6 80.2 L 834.6 -6.4 L 884.6 80.2 Z" fill="#175676" stroke="none" stroke-width="1"></path><path d="M 697.7 92.2 L 797.7 92.2 L 747.7 178.8 Z" fill="#175676" stroke="none" stroke-width="1"></path><path d="M 650 -70.4 L 570 -70.4 L 530 -139.7 L 570 -208.9 L 650 -208.9 L 690 -139.7 Z" fill="#4ba3c3" stroke="none" stroke-width="1"></path><path d="M 663.9 -70.4 L 713.9 -157 L 763.9 -70.4 Z" fill="#175676" stroke="none" stroke-width="1"></path><path d="M 576.9 -58.4 L 676.9 -58.4 L 626.9 28.2 Z" fill="#175676" stroke="none" stroke-width="1"></path><path d="M 459.2 -41.1 L 379.2 -41.1 L 339.2 -110.3 L 379.2 -179.6 L 459.2 -179.6 L 499.2 -110.3 Z" fill="#4ba3c3" stroke="none" stroke-width="1"></path><path d="M 473.1 -41.1 L 523.1 -127.7 L 573.1 -41.1 Z" fill="#175676" stroke="none" stroke-width="1"></path><path d="M 386.1 -29.1 L 486.1 -29.1 L 436.1 57.6 Z" fill="#175676" stroke="none" stroke-width="1"></path><path d="M 268.4 -11.7 L 188.4 -11.7 L 148.4 -81 L 188.4 -150.3 L 268.4 -150.3 L 308.4 -81 Z" fill="#4ba3c3" stroke="none" stroke-width="1"></path><path d="M 282.3 -11.7 L 332.3 -98.3 L 382.3 -11.7 Z" fill="#175676" stroke="none" stroke-width="1"></path><path d="M 195.4 0.3 L 295.4 0.3 L 245.4 86.9 Z" fill="#175676" stroke="none" stroke-width="1"></path><path d="M 77.6 17.6 L -2.4 17.6 L -42.4 -51.7 L -2.4 -121 L 77.6 -121 L 117.6 -51.7 Z" fill="#4ba3c3" stroke="none" stroke-width="1"></path><path d="M 91.5 17.6 L 141.5 -69 L 191.5 17.6 Z" fill="#175676" stroke="none" stroke-width="1"></path><path d="M 4.6 29.6 L 104.6 29.6 L 54.6 116.2 Z" fill="#175676" stroke="none" stroke-width="1"></path><path d="M 7.6 197.5 L -72.4 197.5 L -112.4 128.2 L -72.4 58.9 L 7.6 58.9 L 47.6 128.2 Z" fill="#4ba3c3" stroke="none" stroke-width="1"></path><path d="M 21.5 197.5 L 71.5 110.9 L 121.5 197.5 Z" fill="#175676" stroke="none" stroke-width="1"></path><path d="M -65.4 209.5 L 34.6 209.5 L -15.4 296.1 Z" fill="#175676" stroke="none" stroke-width="1"></path><path d="M -62.4 377.4 L -142.4 377.4 L -182.4 308.1 L -142.4 238.8 L -62.4 238.8 L -22.4 308.1 Z" fill="#4ba3c3" stroke="none" stroke-width="1"></path><path d="M -48.5 377.4 L 1.5 290.8 L 51.5 377.4 Z" fill="#175676" stroke="none" stroke-width="1"></path><path d="M -135.4 389.4 L -35.4 389.4 L -85.4 476 Z" fill="#175676" stroke="none" stroke-width="1"></path><path d="M -132.4 557.2 L -212.4 557.2 L -252.4 488 L -212.4 418.7 L -132.4 418.7 L -92.4 488 Z" fill="#4ba3c3" stroke="none" stroke-width="1"></path><path d="M -118.5 557.2 L -68.5 470.6 L -18.5 557.2 Z" fill="#175676" stroke="none" stroke-width="1"></path><path d="M -205.4 569.2 L -105.4 569.2 L -155.4 655.8 Z" fill="#175676" stroke="none" stroke-width="1"></path><path d="M -11.6 707.8 L -91.6 707.8 L -131.6 638.5 L -91.6 569.2 L -11.6 569.2 L 28.4 638.5 Z" fill="#4ba3c3" stroke="none" stroke-width="1"></path><path d="M 2.3 707.8 L 52.3 621.2 L 102.3 707.8 Z" fill="#175676" stroke="none" stroke-width="1"></path><path d="M -84.6 719.8 L 15.4 719.8 L -34.6 806.4 Z" fill="#175676" stroke="none" stroke-width="1"></path><path d="M 109.2 858.4 L 29.2 858.4 L -10.8 789.1 L 29.2 719.8 L 109.2 719.8 L 149.2 789.1 Z" fill="#4ba3c3" stroke="none" stroke-width="1"></path><path d="M 123.1 858.4 L 173.1 771.8 L 223.1 858.4 Z" fill="#175676" stroke="none" stroke-width="1"></path><path d="M 36.1 870.4 L 136.1 870.4 L 86.1 957 Z" fill="#175676" stroke="none" stroke-width="1"></path><ellipse cx="400" cy="400" rx="600" ry="600" fill="none" stroke="white" stroke-width="560"></ellipse><ellipse cx="400" cy="400" rx="320" ry="320" fill="none" stroke="#cce6f4" stroke-width="12"></ellipse></svg>