<svg viewBox="0 0 800 800" preserveAspectRatio="xMidYMin slice" xmlns="http://www.w3.org/2000/svg" xlink="http://www.w3.org/1999/xlink"><defs><g id="unit-32"><path d="M -149.6 126.4 L -149.6 -14.4 L -135.8 -6.4 L -135.8 118.4 Z" fill="#f6e8ea" stroke="#f45b69" stroke-width="2"></path><path d="M -149.6 -30.4 L -27.7 40 L -41.6 48 L -149.6 -14.4 Z" fill="#f6e8ea" stroke="#f45b69" stroke-width="2"></path><path d="M -13.9 48 L -135.8 118.4 L -135.8 102.4 L -27.7 40 Z" fill="#f6e8ea" stroke="#f45b69" stroke-width="2"></path><path d="M -135.8 102.4 L -135.8 9.6 L -121.9 17.6 L -121.9 94.4 Z" fill="#f6e8ea" stroke="#f45b69" stroke-width="2"></path><path d="M -135.8 -6.4 L -55.4 40 L -69.3 48 L -135.8 9.6 Z" fill="#f6e8ea" stroke="#f45b69" stroke-width="2"></path><path d="M -41.6 48 L -121.9 94.4 L -121.9 78.4 L -55.4 40 Z" fill="#f6e8ea" stroke="#f45b69" stroke-width="2"></path><path d="M -121.9 78.4 L -121.9 33.6 L -108.1 41.6 L -108.1 70.4 Z" fill="#f6e8ea" stroke="#f45b69" stroke-width="2"></path><path d="M -121.9 17.6 L -83.1 40 L -97 48 L -121.9 33.6 Z" fill="#f6e8ea" stroke="#f45b69" stroke-width="2"></path><path d="M -69.3 48 L -108.1 70.4 L -108.1 54.4 L -83.1 40 Z" fill="#f6e8ea" stroke="#f45b69" stroke-width="2"></path><path d="M -13.9 32 L 20.8 12 L 20.8 28 L 0 40 Z" fill="#f6e8ea" stroke="#f45b69" stroke-width="2"></path><path d="M 20.8 28 L 20.8 -12 L 34.6 -4 L 34.6 20 Z" fill="#f6e8ea" stroke="#f45b69" stroke-width="2"></path><path d="M 34.6 -4 L 0 -24 L 13.9 -32 L 34.6 -20 Z" fill="#f6e8ea" stroke="#f45b69" stroke-width="2"></path><path d="M 13.9 -32 L -20.8 -12 L -20.8 -28 L 0 -40 Z" fill="#f6e8ea" stroke="#f45b69" stroke-width="2"></path><path d="M -20.8 -28 L -20.8 12 L -34.6 4 L -34.6 -20 Z" fill="#f6e8ea" stroke="#f45b69" stroke-width="2"></path><path d="M -34.6 4 L 0 24 L -13.9 32 L -34.6 20 Z" fill="#f6e8ea" stroke="#f45b69" stroke-width="2"></path><path d="M -13.9 16 L 6.9 4 L 6.9 20 L 0 24 Z" fill="#f6e8ea" stroke="#f45b69" stroke-width="2"></path><path d="M 6.9 20 L 6.9 -4 L 20.8 4 L 20.8 12 Z" fill="#f6e8ea" stroke="#f45b69" stroke-width="2"></path><path d="M 20.8 4 L 0 -8 L 13.9 -16 L 20.8 -12 Z" fill="#f6e8ea" stroke="#f45b69" stroke-width="2"></path><path d="M 13.9 -16 L -6.9 -4 L -6.9 -20 L 0 -24 Z" fill="#f6e8ea" stroke="#f45b69" stroke-width="2"></path><path d="M -6.9 -20 L -6.9 4 L -20.8 -4 L -20.8 -12 Z" fill="#f6e8ea" stroke="#f45b69" stroke-width="2"></path><path d="M -20.8 -4 L 0 8 L -13.9 16 L -20.8 12 Z" fill="#f6e8ea" stroke="#f45b69" stroke-width="2"></path><path d="M -101.2 114.4 L 20.8 44 L 20.8 60 L -87.3 122.4 Z" fill="#f6e8ea" stroke="#f45b69" stroke-width="2"></path><path d="M 34.6 36 L 34.6 176.8 L 20.8 168.8 L 20.8 44 Z" fill="#f6e8ea" stroke="#f45b69" stroke-width="2"></path><path d="M 34.6 192.8 L -87.3 122.4 L -73.4 114.4 L 34.6 176.8 Z" fill="#f6e8ea" stroke="#f45b69" stroke-width="2"></path><path d="M -73.4 114.4 L 6.9 68 L 6.9 84 L -59.6 122.4 Z" fill="#f6e8ea" stroke="#f45b69" stroke-width="2"></path><path d="M 20.8 60 L 20.8 152.8 L 6.9 144.8 L 6.9 68 Z" fill="#f6e8ea" stroke="#f45b69" stroke-width="2"></path><path d="M 20.8 168.8 L -59.6 122.4 L -45.7 114.4 L 20.8 152.8 Z" fill="#f6e8ea" stroke="#f45b69" stroke-width="2"></path><path d="M -45.7 114.4 L -6.9 92 L -6.9 108 L -31.9 122.4 Z" fill="#f6e8ea" stroke="#f45b69" stroke-width="2"></path><path d="M 6.9 84 L 6.9 128.8 L -6.9 120.8 L -6.9 92 Z" fill="#f6e8ea" stroke="#f45b69" stroke-width="2"></path><path d="M 6.9 144.8 L -31.9 122.4 L -18 114.4 L 6.9 128.8 Z" fill="#f6e8ea" stroke="#f45b69" stroke-width="2"></path><path d="M -149.6 142.4 L 34.6 36 L 34.6 20 L -149.6 126.4 Z" fill="#f6e8ea" stroke="#f45b69" stroke-width="2"></path><path d="M -115 122.4 L 69.3 228.8 L 83.1 220.8 L -101.2 114.4 Z" fill="#f6e8ea" stroke="#f45b69" stroke-width="2"></path><path d="M 34.6 -20 L 34.6 192.8 L 48.5 200.8 L 48.5 -12 Z" fill="#f6e8ea" stroke="#f45b69" stroke-width="2"></path></g></defs><rect x="0" y="0" width="800" height="800" fill="#f6e8ea"></rect><use href="#unit-32" transform="translate(400, 400)"></use><use href="#unit-32" transform="translate(598.1, 418.4)"></use><use href="#unit-32" transform="translate(515, 237.6)"></use><use href="#unit-32" transform="translate(316.9, 219.2)"></use><use href="#unit-32" transform="translate(201.9, 381.6)"></use><use href="#unit-32" transform="translate(285, 562.4)"></use><use href="#unit-32" transform="translate(483.1, 580.8)"></use><use href="#unit-32" transform="translate(796.3, 436.8)"></use><use href="#unit-32" transform="translate(713.2, 256)"></use><use href="#unit-32" transform="translate(630, 75.2)"></use><use href="#unit-32" transform="translate(431.9, 56.8)"></use><use href="#unit-32" transform="translate(233.7, 38.4)"></use><use href="#unit-32" transform="translate(118.7, 200.8)"></use><use href="#unit-32" transform="translate(3.7, 363.2)"></use><use href="#unit-32" transform="translate(86.8, 544)"></use><use href="#unit-32" transform="translate(170, 724.8)"></use><use href="#unit-32" transform="translate(368.1, 743.2)"></use><use href="#unit-32" transform="translate(566.3, 761.6)"></use><use href="#unit-32" transform="translate(681.3, 599.2)"></use><use href="#unit-32" transform="translate(994.4, 455.2)"></use><use href="#unit-32" transform="translate(911.3, 274.4)"></use><use href="#unit-32" transform="translate(828.2, 93.6)"></use><use href="#unit-32" transform="translate(745, -87.2)"></use><use href="#unit-32" transform="translate(546.9, -105.6)"></use><use href="#unit-32" transform="translate(348.7, -124)"></use><use href="#unit-32" transform="translate(150.6, -142.4)"></use><use href="#unit-32" transform="translate(35.6, 20)"></use><use href="#unit-32" transform="translate(-79.4, 182.4)"></use><use href="#unit-32" transform="translate(-194.4, 344.8)"></use><use href="#unit-32" transform="translate(-111.3, 525.6)"></use><use href="#unit-32" transform="translate(-28.2, 706.4)"></use><use href="#unit-32" transform="translate(55, 887.2)"></use><use href="#unit-32" transform="translate(253.1, 905.6)"></use><use href="#unit-32" transform="translate(451.3, 924)"></use><use href="#unit-32" transform="translate(649.4, 942.4)"></use><use href="#unit-32" transform="translate(764.4, 780)"></use><use href="#unit-32" transform="translate(879.4, 617.6)"></use><ellipse cx="400" cy="400" rx="600" ry="600" fill="none" stroke="white" stroke-width="560"></ellipse><ellipse cx="400" cy="400" rx="320" ry="320" fill="none" stroke="#f45b69" stroke-width="2"></ellipse></svg>