<svg viewBox="0 0 800 800" preserveAspectRatio="xMidYMin slice" xmlns="http://www.w3.org/2000/svg"><rect x="0" y="0" width="800" height="800" fill="#F7F9F7"></rect><path d="M -1168.8 -49.6 L -1112.4 -102.1 Q -1088.3 -124.7, -1064.2 -102.1 L -1120.5 -49.6 Q -1144.6 -27.1, -1168.8 -49.6 Z" fill="#DBF9F0" stroke="#210124" stroke-width="4"></path><path d="M -1064.2 -102.1 L -1007.9 -49.6 Q -983.7 -27.1, -959.6 -49.6 L -1015.9 -102.1 Q -1040 -124.7, -1064.2 -102.1 Z" fill="#B3DEC1" stroke="#210124" stroke-width="4"></path><path d="M -1064.2 36.9 L -1007.9 -15.6 Q -983.7 -38.1, -959.6 -15.6 L -1015.9 36.9 Q -1040 59.4, -1064.2 36.9 Z" fill="#DBF9F0" stroke="#210124" stroke-width="4"></path><path d="M -959.6 -15.6 L -903.3 36.9 Q -879.1 59.4, -855 36.9 L -911.3 -15.6 Q -935.5 -38.1, -959.6 -15.6 Z" fill="#B3DEC1" stroke="#210124" stroke-width="4"></path><path d="M -959.6 123.4 L -903.3 70.9 Q -879.1 48.4, -855 70.9 L -911.3 123.4 Q -935.5 145.9, -959.6 123.4 Z" fill="#DBF9F0" stroke="#210124" stroke-width="4"></path><path d="M -855 70.9 L -798.7 123.4 Q -774.6 145.9, -750.4 123.4 L -806.7 70.9 Q -830.9 48.4, -855 70.9 Z" fill="#B3DEC1" stroke="#210124" stroke-width="4"></path><path d="M -855 209.9 L -798.7 157.4 Q -774.6 134.9, -750.4 157.4 L -806.7 209.9 Q -830.9 232.4, -855 209.9 Z" fill="#DBF9F0" stroke="#210124" stroke-width="4"></path><path d="M -750.4 157.4 L -694.1 209.9 Q -670 232.4, -645.8 209.9 L -702.2 157.4 Q -726.3 134.9, -750.4 157.4 Z" fill="#B3DEC1" stroke="#210124" stroke-width="4"></path><path d="M -750.4 296.5 L -694.1 244 Q -670 221.4, -645.8 244 L -702.2 296.5 Q -726.3 319, -750.4 296.5 Z" fill="#DBF9F0" stroke="#210124" stroke-width="4"></path><path d="M -645.8 244 L -589.5 296.5 Q -565.4 319, -541.3 296.5 L -597.6 244 Q -621.7 221.4, -645.8 244 Z" fill="#B3DEC1" stroke="#210124" stroke-width="4"></path><path d="M -645.8 383 L -589.5 330.5 Q -565.4 308, -541.3 330.5 L -597.6 383 Q -621.7 405.5, -645.8 383 Z" fill="#DBF9F0" stroke="#210124" stroke-width="4"></path><path d="M -541.3 330.5 L -484.9 383 Q -460.8 405.5, -436.7 383 L -493 330.5 Q -517.1 308, -541.3 330.5 Z" fill="#B3DEC1" stroke="#210124" stroke-width="4"></path><path d="M -541.3 469.5 L -484.9 417 Q -460.8 394.5, -436.7 417 L -493 469.5 Q -517.1 492, -541.3 469.5 Z" fill="#DBF9F0" stroke="#210124" stroke-width="4"></path><path d="M -436.7 417 L -380.4 469.5 Q -356.2 492, -332.1 469.5 L -388.4 417 Q -412.5 394.5, -436.7 417 Z" fill="#B3DEC1" stroke="#210124" stroke-width="4"></path><path d="M -436.7 556 L -380.4 503.5 Q -356.2 481, -332.1 503.5 L -388.4 556 Q -412.5 578.6, -436.7 556 Z" fill="#DBF9F0" stroke="#210124" stroke-width="4"></path><path d="M -332.1 503.5 L -275.8 556 Q -251.6 578.6, -227.5 556 L -283.8 503.5 Q -308 481, -332.1 503.5 Z" fill="#B3DEC1" stroke="#210124" stroke-width="4"></path><path d="M -332.1 642.6 L -275.8 590.1 Q -251.6 567.6, -227.5 590.1 L -283.8 642.6 Q -308 665.1, -332.1 642.6 Z" fill="#DBF9F0" stroke="#210124" stroke-width="4"></path><path d="M -227.5 590.1 L -171.2 642.6 Q -147.1 665.1, -122.9 642.6 L -179.2 590.1 Q -203.4 567.6, -227.5 590.1 Z" fill="#B3DEC1" stroke="#210124" stroke-width="4"></path><path d="M -227.5 729.1 L -171.2 676.6 Q -147.1 654.1, -122.9 676.6 L -179.2 729.1 Q -203.4 751.6, -227.5 729.1 Z" fill="#DBF9F0" stroke="#210124" stroke-width="4"></path><path d="M -122.9 676.6 L -66.6 729.1 Q -42.5 751.6, -18.3 729.1 L -74.6 676.6 Q -98.8 654.1, -122.9 676.6 Z" fill="#B3DEC1" stroke="#210124" stroke-width="4"></path><path d="M -122.9 815.6 L -66.6 763.1 Q -42.5 740.6, -18.3 763.1 L -74.6 815.6 Q -98.8 838.1, -122.9 815.6 Z" fill="#DBF9F0" stroke="#210124" stroke-width="4"></path><path d="M -18.3 763.1 L 38 815.6 Q 62.1 838.1, 86.2 815.6 L 29.9 763.1 Q 5.8 740.6, -18.3 763.1 Z" fill="#B3DEC1" stroke="#210124" stroke-width="4"></path><path d="M -959.6 -49.6 L -903.3 -102.1 Q -879.1 -124.7, -855 -102.1 L -911.3 -49.6 Q -935.5 -27.1, -959.6 -49.6 Z" fill="#DBF9F0" stroke="#210124" stroke-width="4"></path><path d="M -855 -102.1 L -798.7 -49.6 Q -774.6 -27.1, -750.4 -49.6 L -806.7 -102.1 Q -830.9 -124.7, -855 -102.1 Z" fill="#B3DEC1" stroke="#210124" stroke-width="4"></path><path d="M -855 36.9 L -798.7 -15.6 Q -774.6 -38.1, -750.4 -15.6 L -806.7 36.9 Q -830.9 59.4, -855 36.9 Z" fill="#DBF9F0" stroke="#210124" stroke-width="4"></path><path d="M -750.4 -15.6 L -694.1 36.9 Q -670 59.4, -645.8 36.9 L -702.2 -15.6 Q -726.3 -38.1, -750.4 -15.6 Z" fill="#B3DEC1" stroke="#210124" stroke-width="4"></path><path d="M -750.4 123.4 L -694.1 70.9 Q -670 48.4, -645.8 70.9 L -702.2 123.4 Q -726.3 145.9, -750.4 123.4 Z" fill="#DBF9F0" stroke="#210124" stroke-width="4"></path><path d="M -645.8 70.9 L -589.5 123.4 Q -565.4 145.9, -541.3 123.4 L -597.6 70.9 Q -621.7 48.4, -645.8 70.9 Z" fill="#B3DEC1" stroke="#210124" stroke-width="4"></path><path d="M -645.8 209.9 L -589.5 157.4 Q -565.4 134.9, -541.3 157.4 L -597.6 209.9 Q -621.7 232.4, -645.8 209.9 Z" fill="#DBF9F0" stroke="#210124" stroke-width="4"></path><path d="M -541.3 157.4 L -484.9 209.9 Q -460.8 232.4, -436.7 209.9 L -493 157.4 Q -517.1 134.9, -541.3 157.4 Z" fill="#B3DEC1" stroke="#210124" stroke-width="4"></path><path d="M -541.3 296.5 L -484.9 244 Q -460.8 221.4, -436.7 244 L -493 296.5 Q -517.1 319, -541.3 296.5 Z" fill="#DBF9F0" stroke="#210124" stroke-width="4"></path><path d="M -436.7 244 L -380.4 296.5 Q -356.2 319, -332.1 296.5 L -388.4 244 Q -412.5 221.4, -436.7 244 Z" fill="#B3DEC1" stroke="#210124" stroke-width="4"></path><path d="M -436.7 383 L -380.4 330.5 Q -356.2 308, -332.1 330.5 L -388.4 383 Q -412.5 405.5, -436.7 383 Z" fill="#DBF9F0" stroke="#210124" stroke-width="4"></path><path d="M -332.1 330.5 L -275.8 383 Q -251.6 405.5, -227.5 383 L -283.8 330.5 Q -308 308, -332.1 330.5 Z" fill="#B3DEC1" stroke="#210124" stroke-width="4"></path><path d="M -332.1 469.5 L -275.8 417 Q -251.6 394.5, -227.5 417 L -283.8 469.5 Q -308 492, -332.1 469.5 Z" fill="#DBF9F0" stroke="#210124" stroke-width="4"></path><path d="M -227.5 417 L -171.2 469.5 Q -147.1 492, -122.9 469.5 L -179.2 417 Q -203.4 394.5, -227.5 417 Z" fill="#B3DEC1" stroke="#210124" stroke-width="4"></path><path d="M -227.5 556 L -171.2 503.5 Q -147.1 481, -122.9 503.5 L -179.2 556 Q -203.4 578.6, -227.5 556 Z" fill="#DBF9F0" stroke="#210124" stroke-width="4"></path><path d="M -122.9 503.5 L -66.6 556 Q -42.5 578.6, -18.3 556 L -74.6 503.5 Q -98.8 481, -122.9 503.5 Z" fill="#B3DEC1" stroke="#210124" stroke-width="4"></path><path d="M -122.9 642.6 L -66.6 590.1 Q -42.5 567.6, -18.3 590.1 L -74.6 642.6 Q -98.8 665.1, -122.9 642.6 Z" fill="#DBF9F0" stroke="#210124" stroke-width="4"></path><path d="M -18.3 590.1 L 38 642.6 Q 62.1 665.1, 86.2 642.6 L 29.9 590.1 Q 5.8 567.6, -18.3 590.1 Z" fill="#B3DEC1" stroke="#210124" stroke-width="4"></path><path d="M -18.3 729.1 L 38 676.6 Q 62.1 654.1, 86.2 676.6 L 29.9 729.1 Q 5.8 751.6, -18.3 729.1 Z" fill="#DBF9F0" stroke="#210124" stroke-width="4"></path><path d="M 86.2 676.6 L 142.6 729.1 Q 166.7 751.6, 190.8 729.1 L 134.5 676.6 Q 110.4 654.1, 86.2 676.6 Z" fill="#B3DEC1" stroke="#210124" stroke-width="4"></path><path d="M 86.2 815.6 L 142.6 763.1 Q 166.7 740.6, 190.8 763.1 L 134.5 815.6 Q 110.4 838.1, 86.2 815.6 Z" fill="#DBF9F0" stroke="#210124" stroke-width="4"></path><path d="M 190.8 763.1 L 247.1 815.6 Q 271.3 838.1, 295.4 815.6 L 239.1 763.1 Q 215 740.6, 190.8 763.1 Z" fill="#B3DEC1" stroke="#210124" stroke-width="4"></path><path d="M -750.4 -49.6 L -694.1 -102.1 Q -670 -124.7, -645.8 -102.1 L -702.2 -49.6 Q -726.3 -27.1, -750.4 -49.6 Z" fill="#DBF9F0" stroke="#210124" stroke-width="4"></path><path d="M -645.8 -102.1 L -589.5 -49.6 Q -565.4 -27.1, -541.3 -49.6 L -597.6 -102.1 Q -621.7 -124.7, -645.8 -102.1 Z" fill="#B3DEC1" stroke="#210124" stroke-width="4"></path><path d="M -645.8 36.9 L -589.5 -15.6 Q -565.4 -38.1, -541.3 -15.6 L -597.6 36.9 Q -621.7 59.4, -645.8 36.9 Z" fill="#DBF9F0" stroke="#210124" stroke-width="4"></path><path d="M -541.3 -15.6 L -484.9 36.9 Q -460.8 59.4, -436.7 36.9 L -493 -15.6 Q -517.1 -38.1, -541.3 -15.6 Z" fill="#B3DEC1" stroke="#210124" stroke-width="4"></path><path d="M -541.3 123.4 L -484.9 70.9 Q -460.8 48.4, -436.7 70.9 L -493 123.4 Q -517.1 145.9, -541.3 123.4 Z" fill="#DBF9F0" stroke="#210124" stroke-width="4"></path><path d="M -436.7 70.9 L -380.4 123.4 Q -356.2 145.9, -332.1 123.4 L -388.4 70.9 Q -412.5 48.4, -436.7 70.9 Z" fill="#B3DEC1" stroke="#210124" stroke-width="4"></path><path d="M -436.7 209.9 L -380.4 157.4 Q -356.2 134.9, -332.1 157.4 L -388.4 209.9 Q -412.5 232.4, -436.7 209.9 Z" fill="#DBF9F0" stroke="#210124" stroke-width="4"></path><path d="M -332.1 157.4 L -275.8 209.9 Q -251.6 232.4, -227.5 209.9 L -283.8 157.4 Q -308 134.9, -332.1 157.4 Z" fill="#B3DEC1" stroke="#210124" stroke-width="4"></path><path d="M -332.1 296.5 L -275.8 244 Q -251.6 221.4, -227.5 244 L -283.8 296.5 Q -308 319, -332.1 296.5 Z" fill="#DBF9F0" stroke="#210124" stroke-width="4"></path><path d="M -227.5 244 L -171.2 296.5 Q -147.1 319, -122.9 296.5 L -179.2 244 Q -203.4 221.4, -227.5 244 Z" fill="#B3DEC1" stroke="#210124" stroke-width="4"></path><path d="M -227.5 383 L -171.2 330.5 Q -147.1 308, -122.9 330.5 L -179.2 383 Q -203.4 405.5, -227.5 383 Z" fill="#DBF9F0" stroke="#210124" stroke-width="4"></path><path d="M -122.9 330.5 L -66.6 383 Q -42.5 405.5, -18.3 383 L -74.6 330.5 Q -98.8 308, -122.9 330.5 Z" fill="#B3DEC1" stroke="#210124" stroke-width="4"></path><path d="M -122.9 469.5 L -66.6 417 Q -42.5 394.5, -18.3 417 L -74.6 469.5 Q -98.8 492, -122.9 469.5 Z" fill="#DBF9F0" stroke="#210124" stroke-width="4"></path><path d="M -18.3 417 L 38 469.5 Q 62.1 492, 86.2 469.5 L 29.9 417 Q 5.8 394.5, -18.3 417 Z" fill="#B3DEC1" stroke="#210124" stroke-width="4"></path><path d="M -18.3 556 L 38 503.5 Q 62.1 481, 86.2 503.5 L 29.9 556 Q 5.8 578.6, -18.3 556 Z" fill="#DBF9F0" stroke="#210124" stroke-width="4"></path><path d="M 86.2 503.5 L 142.6 556 Q 166.7 578.6, 190.8 556 L 134.5 503.5 Q 110.4 481, 86.2 503.5 Z" fill="#B3DEC1" stroke="#210124" stroke-width="4"></path><path d="M 86.2 642.6 L 142.6 590.1 Q 166.7 567.6, 190.8 590.1 L 134.5 642.6 Q 110.4 665.1, 86.2 642.6 Z" fill="#DBF9F0" stroke="#210124" stroke-width="4"></path><path d="M 190.8 590.1 L 247.1 642.6 Q 271.3 665.1, 295.4 642.6 L 239.1 590.1 Q 215 567.6, 190.8 590.1 Z" fill="#B3DEC1" stroke="#210124" stroke-width="4"></path><path d="M 190.8 729.1 L 247.1 676.6 Q 271.3 654.1, 295.4 676.6 L 239.1 729.1 Q 215 751.6, 190.8 729.1 Z" fill="#DBF9F0" stroke="#210124" stroke-width="4"></path><path d="M 295.4 676.6 L 351.7 729.1 Q 375.9 751.6, 400 729.1 L 343.7 676.6 Q 319.6 654.1, 295.4 676.6 Z" fill="#B3DEC1" stroke="#210124" stroke-width="4"></path><path d="M 295.4 815.6 L 351.7 763.1 Q 375.9 740.6, 400 763.1 L 343.7 815.6 Q 319.6 838.1, 295.4 815.6 Z" fill="#DBF9F0" stroke="#210124" stroke-width="4"></path><path d="M 400 763.1 L 456.3 815.6 Q 480.4 838.1, 504.6 815.6 L 448.3 763.1 Q 424.1 740.6, 400 763.1 Z" fill="#B3DEC1" stroke="#210124" stroke-width="4"></path><path d="M -541.3 -49.6 L -484.9 -102.1 Q -460.8 -124.7, -436.7 -102.1 L -493 -49.6 Q -517.1 -27.1, -541.3 -49.6 Z" fill="#DBF9F0" stroke="#210124" stroke-width="4"></path><path d="M -436.7 -102.1 L -380.4 -49.6 Q -356.2 -27.1, -332.1 -49.6 L -388.4 -102.1 Q -412.5 -124.7, -436.7 -102.1 Z" fill="#B3DEC1" stroke="#210124" stroke-width="4"></path><path d="M -436.7 36.9 L -380.4 -15.6 Q -356.2 -38.1, -332.1 -15.6 L -388.4 36.9 Q -412.5 59.4, -436.7 36.9 Z" fill="#DBF9F0" stroke="#210124" stroke-width="4"></path><path d="M -332.1 -15.6 L -275.8 36.9 Q -251.6 59.4, -227.5 36.9 L -283.8 -15.6 Q -308 -38.1, -332.1 -15.6 Z" fill="#B3DEC1" stroke="#210124" stroke-width="4"></path><path d="M -332.1 123.4 L -275.8 70.9 Q -251.6 48.4, -227.5 70.9 L -283.8 123.4 Q -308 145.9, -332.1 123.4 Z" fill="#DBF9F0" stroke="#210124" stroke-width="4"></path><path d="M -227.5 70.9 L -171.2 123.4 Q -147.1 145.9, -122.9 123.4 L -179.2 70.9 Q -203.4 48.4, -227.5 70.9 Z" fill="#B3DEC1" stroke="#210124" stroke-width="4"></path><path d="M -227.5 209.9 L -171.2 157.4 Q -147.1 134.9, -122.9 157.4 L -179.2 209.9 Q -203.4 232.4, -227.5 209.9 Z" fill="#DBF9F0" stroke="#210124" stroke-width="4"></path><path d="M -122.9 157.4 L -66.6 209.9 Q -42.5 232.4, -18.3 209.9 L -74.6 157.4 Q -98.8 134.9, -122.9 157.4 Z" fill="#B3DEC1" stroke="#210124" stroke-width="4"></path><path d="M -122.9 296.5 L -66.6 244 Q -42.5 221.4, -18.3 244 L -74.6 296.5 Q -98.8 319, -122.9 296.5 Z" fill="#DBF9F0" stroke="#210124" stroke-width="4"></path><path d="M -18.3 244 L 38 296.5 Q 62.1 319, 86.2 296.5 L 29.9 244 Q 5.8 221.4, -18.3 244 Z" fill="#B3DEC1" stroke="#210124" stroke-width="4"></path><path d="M -18.3 383 L 38 330.5 Q 62.1 308, 86.2 330.5 L 29.9 383 Q 5.8 405.5, -18.3 383 Z" fill="#DBF9F0" stroke="#210124" stroke-width="4"></path><path d="M 86.2 330.5 L 142.6 383 Q 166.7 405.5, 190.8 383 L 134.5 330.5 Q 110.4 308, 86.2 330.5 Z" fill="#B3DEC1" stroke="#210124" stroke-width="4"></path><path d="M 86.2 469.5 L 142.6 417 Q 166.7 394.5, 190.8 417 L 134.5 469.5 Q 110.4 492, 86.2 469.5 Z" fill="#DBF9F0" stroke="#210124" stroke-width="4"></path><path d="M 190.8 417 L 247.1 469.5 Q 271.3 492, 295.4 469.5 L 239.1 417 Q 215 394.5, 190.8 417 Z" fill="#B3DEC1" stroke="#210124" stroke-width="4"></path><path d="M 190.8 556 L 247.1 503.5 Q 271.3 481, 295.4 503.5 L 239.1 556 Q 215 578.6, 190.8 556 Z" fill="#DBF9F0" stroke="#210124" stroke-width="4"></path><path d="M 295.4 503.5 L 351.7 556 Q 375.9 578.6, 400 556 L 343.7 503.5 Q 319.6 481, 295.4 503.5 Z" fill="#B3DEC1" stroke="#210124" stroke-width="4"></path><path d="M 295.4 642.6 L 351.7 590.1 Q 375.9 567.6, 400 590.1 L 343.7 642.6 Q 319.6 665.1, 295.4 642.6 Z" fill="#DBF9F0" stroke="#210124" stroke-width="4"></path><path d="M 400 590.1 L 456.3 642.6 Q 480.4 665.1, 504.6 642.6 L 448.3 590.1 Q 424.1 567.6, 400 590.1 Z" fill="#B3DEC1" stroke="#210124" stroke-width="4"></path><path d="M 400 729.1 L 456.3 676.6 Q 480.4 654.1, 504.6 676.6 L 448.3 729.1 Q 424.1 751.6, 400 729.1 Z" fill="#DBF9F0" stroke="#210124" stroke-width="4"></path><path d="M 504.6 676.6 L 560.9 729.1 Q 585 751.6, 609.2 729.1 L 552.9 676.6 Q 528.7 654.1, 504.6 676.6 Z" fill="#B3DEC1" stroke="#210124" stroke-width="4"></path><path d="M 504.6 815.6 L 560.9 763.1 Q 585 740.6, 609.2 763.1 L 552.9 815.6 Q 528.7 838.1, 504.6 815.6 Z" fill="#DBF9F0" stroke="#210124" stroke-width="4"></path><path d="M 609.2 763.1 L 665.5 815.6 Q 689.6 838.1, 713.8 815.6 L 657.4 763.1 Q 633.3 740.6, 609.2 763.1 Z" fill="#B3DEC1" stroke="#210124" stroke-width="4"></path><path d="M -332.1 -49.6 L -275.8 -102.1 Q -251.6 -124.7, -227.5 -102.1 L -283.8 -49.6 Q -308 -27.1, -332.1 -49.6 Z" fill="#DBF9F0" stroke="#210124" stroke-width="4"></path><path d="M -227.5 -102.1 L -171.2 -49.6 Q -147.1 -27.1, -122.9 -49.6 L -179.2 -102.1 Q -203.4 -124.7, -227.5 -102.1 Z" fill="#B3DEC1" stroke="#210124" stroke-width="4"></path><path d="M -227.5 36.9 L -171.2 -15.6 Q -147.1 -38.1, -122.9 -15.6 L -179.2 36.9 Q -203.4 59.4, -227.5 36.9 Z" fill="#DBF9F0" stroke="#210124" stroke-width="4"></path><path d="M -122.9 -15.6 L -66.6 36.9 Q -42.5 59.4, -18.3 36.9 L -74.6 -15.6 Q -98.8 -38.1, -122.9 -15.6 Z" fill="#B3DEC1" stroke="#210124" stroke-width="4"></path><path d="M -122.9 123.4 L -66.6 70.9 Q -42.5 48.4, -18.3 70.9 L -74.6 123.4 Q -98.8 145.9, -122.9 123.4 Z" fill="#DBF9F0" stroke="#210124" stroke-width="4"></path><path d="M -18.3 70.9 L 38 123.4 Q 62.1 145.9, 86.2 123.4 L 29.9 70.9 Q 5.8 48.4, -18.3 70.9 Z" fill="#B3DEC1" stroke="#210124" stroke-width="4"></path><path d="M -18.3 209.9 L 38 157.4 Q 62.1 134.9, 86.2 157.4 L 29.9 209.9 Q 5.8 232.4, -18.3 209.9 Z" fill="#DBF9F0" stroke="#210124" stroke-width="4"></path><path d="M 86.2 157.4 L 142.6 209.9 Q 166.7 232.4, 190.8 209.9 L 134.5 157.4 Q 110.4 134.9, 86.2 157.4 Z" fill="#B3DEC1" stroke="#210124" stroke-width="4"></path><path d="M 86.2 296.5 L 142.6 244 Q 166.7 221.4, 190.8 244 L 134.5 296.5 Q 110.4 319, 86.2 296.5 Z" fill="#DBF9F0" stroke="#210124" stroke-width="4"></path><path d="M 190.8 244 L 247.1 296.5 Q 271.3 319, 295.4 296.5 L 239.1 244 Q 215 221.4, 190.8 244 Z" fill="#B3DEC1" stroke="#210124" stroke-width="4"></path><path d="M 190.8 383 L 247.1 330.5 Q 271.3 308, 295.4 330.5 L 239.1 383 Q 215 405.5, 190.8 383 Z" fill="#DBF9F0" stroke="#210124" stroke-width="4"></path><path d="M 295.4 330.5 L 351.7 383 Q 375.9 405.5, 400 383 L 343.7 330.5 Q 319.6 308, 295.4 330.5 Z" fill="#B3DEC1" stroke="#210124" stroke-width="4"></path><path d="M 295.4 469.5 L 351.7 417 Q 375.9 394.5, 400 417 L 343.7 469.5 Q 319.6 492, 295.4 469.5 Z" fill="#DBF9F0" stroke="#210124" stroke-width="4"></path><path d="M 400 417 L 456.3 469.5 Q 480.4 492, 504.6 469.5 L 448.3 417 Q 424.1 394.5, 400 417 Z" fill="#B3DEC1" stroke="#210124" stroke-width="4"></path><path d="M 400 556 L 456.3 503.5 Q 480.4 481, 504.6 503.5 L 448.3 556 Q 424.1 578.6, 400 556 Z" fill="#DBF9F0" stroke="#210124" stroke-width="4"></path><path d="M 504.6 503.5 L 560.9 556 Q 585 578.6, 609.2 556 L 552.9 503.5 Q 528.7 481, 504.6 503.5 Z" fill="#B3DEC1" stroke="#210124" stroke-width="4"></path><path d="M 504.6 642.6 L 560.9 590.1 Q 585 567.6, 609.2 590.1 L 552.9 642.6 Q 528.7 665.1, 504.6 642.6 Z" fill="#DBF9F0" stroke="#210124" stroke-width="4"></path><path d="M 609.2 590.1 L 665.5 642.6 Q 689.6 665.1, 713.8 642.6 L 657.4 590.1 Q 633.3 567.6, 609.2 590.1 Z" fill="#B3DEC1" stroke="#210124" stroke-width="4"></path><path d="M 609.2 729.1 L 665.5 676.6 Q 689.6 654.1, 713.8 676.6 L 657.4 729.1 Q 633.3 751.6, 609.2 729.1 Z" fill="#DBF9F0" stroke="#210124" stroke-width="4"></path><path d="M 713.8 676.6 L 770.1 729.1 Q 794.2 751.6, 818.3 729.1 L 762 676.6 Q 737.9 654.1, 713.8 676.6 Z" fill="#B3DEC1" stroke="#210124" stroke-width="4"></path><path d="M 713.8 815.6 L 770.1 763.1 Q 794.2 740.6, 818.3 763.1 L 762 815.6 Q 737.9 838.1, 713.8 815.6 Z" fill="#DBF9F0" stroke="#210124" stroke-width="4"></path><path d="M 818.3 763.1 L 874.6 815.6 Q 898.8 838.1, 922.9 815.6 L 866.6 763.1 Q 842.5 740.6, 818.3 763.1 Z" fill="#B3DEC1" stroke="#210124" stroke-width="4"></path><path d="M -122.9 -49.6 L -66.6 -102.1 Q -42.5 -124.7, -18.3 -102.1 L -74.6 -49.6 Q -98.8 -27.1, -122.9 -49.6 Z" fill="#DBF9F0" stroke="#210124" stroke-width="4"></path><path d="M -18.3 -102.1 L 38 -49.6 Q 62.1 -27.1, 86.2 -49.6 L 29.9 -102.1 Q 5.8 -124.7, -18.3 -102.1 Z" fill="#B3DEC1" stroke="#210124" stroke-width="4"></path><path d="M -18.3 36.9 L 38 -15.6 Q 62.1 -38.1, 86.2 -15.6 L 29.9 36.9 Q 5.8 59.4, -18.3 36.9 Z" fill="#DBF9F0" stroke="#210124" stroke-width="4"></path><path d="M 86.2 -15.6 L 142.6 36.9 Q 166.7 59.4, 190.8 36.9 L 134.5 -15.6 Q 110.4 -38.1, 86.2 -15.6 Z" fill="#B3DEC1" stroke="#210124" stroke-width="4"></path><path d="M 86.2 123.4 L 142.6 70.9 Q 166.7 48.4, 190.8 70.9 L 134.5 123.4 Q 110.4 145.9, 86.2 123.4 Z" fill="#DBF9F0" stroke="#210124" stroke-width="4"></path><path d="M 190.8 70.9 L 247.1 123.4 Q 271.3 145.9, 295.4 123.4 L 239.1 70.9 Q 215 48.4, 190.8 70.9 Z" fill="#B3DEC1" stroke="#210124" stroke-width="4"></path><path d="M 190.8 209.9 L 247.1 157.4 Q 271.3 134.9, 295.4 157.4 L 239.1 209.9 Q 215 232.4, 190.8 209.9 Z" fill="#DBF9F0" stroke="#210124" stroke-width="4"></path><path d="M 295.4 157.4 L 351.7 209.9 Q 375.9 232.4, 400 209.9 L 343.7 157.4 Q 319.6 134.9, 295.4 157.4 Z" fill="#B3DEC1" stroke="#210124" stroke-width="4"></path><path d="M 295.4 296.5 L 351.7 244 Q 375.9 221.4, 400 244 L 343.7 296.5 Q 319.6 319, 295.4 296.5 Z" fill="#DBF9F0" stroke="#210124" stroke-width="4"></path><path d="M 400 244 L 456.3 296.5 Q 480.4 319, 504.6 296.5 L 448.3 244 Q 424.1 221.4, 400 244 Z" fill="#B3DEC1" stroke="#210124" stroke-width="4"></path><path d="M 400 383 L 456.3 330.5 Q 480.4 308, 504.6 330.5 L 448.3 383 Q 424.1 405.5, 400 383 Z" fill="#DBF9F0" stroke="#210124" stroke-width="4"></path><path d="M 504.6 330.5 L 560.9 383 Q 585 405.5, 609.2 383 L 552.9 330.5 Q 528.7 308, 504.6 330.5 Z" fill="#B3DEC1" stroke="#210124" stroke-width="4"></path><path d="M 504.6 469.5 L 560.9 417 Q 585 394.5, 609.2 417 L 552.9 469.5 Q 528.7 492, 504.6 469.5 Z" fill="#DBF9F0" stroke="#210124" stroke-width="4"></path><path d="M 609.2 417 L 665.5 469.5 Q 689.6 492, 713.8 469.5 L 657.4 417 Q 633.3 394.5, 609.2 417 Z" fill="#B3DEC1" stroke="#210124" stroke-width="4"></path><path d="M 609.2 556 L 665.5 503.5 Q 689.6 481, 713.8 503.5 L 657.4 556 Q 633.3 578.6, 609.2 556 Z" fill="#DBF9F0" stroke="#210124" stroke-width="4"></path><path d="M 713.8 503.5 L 770.1 556 Q 794.2 578.6, 818.3 556 L 762 503.5 Q 737.9 481, 713.8 503.5 Z" fill="#B3DEC1" stroke="#210124" stroke-width="4"></path><path d="M 713.8 642.6 L 770.1 590.1 Q 794.2 567.6, 818.3 590.1 L 762 642.6 Q 737.9 665.1, 713.8 642.6 Z" fill="#DBF9F0" stroke="#210124" stroke-width="4"></path><path d="M 818.3 590.1 L 874.6 642.6 Q 898.8 665.1, 922.9 642.6 L 866.6 590.1 Q 842.5 567.6, 818.3 590.1 Z" fill="#B3DEC1" stroke="#210124" stroke-width="4"></path><path d="M 818.3 729.1 L 874.6 676.6 Q 898.8 654.1, 922.9 676.6 L 866.6 729.1 Q 842.5 751.6, 818.3 729.1 Z" fill="#DBF9F0" stroke="#210124" stroke-width="4"></path><path d="M 922.9 676.6 L 979.2 729.1 Q 1003.4 751.6, 1027.5 729.1 L 971.2 676.6 Q 947.1 654.1, 922.9 676.6 Z" fill="#B3DEC1" stroke="#210124" stroke-width="4"></path><path d="M 922.9 815.6 L 979.2 763.1 Q 1003.4 740.6, 1027.5 763.1 L 971.2 815.6 Q 947.1 838.1, 922.9 815.6 Z" fill="#DBF9F0" stroke="#210124" stroke-width="4"></path><path d="M 1027.5 763.1 L 1083.8 815.6 Q 1108 838.1, 1132.1 815.6 L 1075.8 763.1 Q 1051.6 740.6, 1027.5 763.1 Z" fill="#B3DEC1" stroke="#210124" stroke-width="4"></path><path d="M 86.2 -49.6 L 142.6 -102.1 Q 166.7 -124.7, 190.8 -102.1 L 134.5 -49.6 Q 110.4 -27.1, 86.2 -49.6 Z" fill="#DBF9F0" stroke="#210124" stroke-width="4"></path><path d="M 190.8 -102.1 L 247.1 -49.6 Q 271.3 -27.1, 295.4 -49.6 L 239.1 -102.1 Q 215 -124.7, 190.8 -102.1 Z" fill="#B3DEC1" stroke="#210124" stroke-width="4"></path><path d="M 190.8 36.9 L 247.1 -15.6 Q 271.3 -38.1, 295.4 -15.6 L 239.1 36.9 Q 215 59.4, 190.8 36.9 Z" fill="#DBF9F0" stroke="#210124" stroke-width="4"></path><path d="M 295.4 -15.6 L 351.7 36.9 Q 375.9 59.4, 400 36.9 L 343.7 -15.6 Q 319.6 -38.1, 295.4 -15.6 Z" fill="#B3DEC1" stroke="#210124" stroke-width="4"></path><path d="M 295.4 123.4 L 351.7 70.9 Q 375.9 48.4, 400 70.9 L 343.7 123.4 Q 319.6 145.9, 295.4 123.4 Z" fill="#DBF9F0" stroke="#210124" stroke-width="4"></path><path d="M 400 70.9 L 456.3 123.4 Q 480.4 145.9, 504.6 123.4 L 448.3 70.9 Q 424.1 48.4, 400 70.9 Z" fill="#B3DEC1" stroke="#210124" stroke-width="4"></path><path d="M 400 209.9 L 456.3 157.4 Q 480.4 134.9, 504.6 157.4 L 448.3 209.9 Q 424.1 232.4, 400 209.9 Z" fill="#DBF9F0" stroke="#210124" stroke-width="4"></path><path d="M 504.6 157.4 L 560.9 209.9 Q 585 232.4, 609.2 209.9 L 552.9 157.4 Q 528.7 134.9, 504.6 157.4 Z" fill="#B3DEC1" stroke="#210124" stroke-width="4"></path><path d="M 504.6 296.5 L 560.9 244 Q 585 221.4, 609.2 244 L 552.9 296.5 Q 528.7 319, 504.6 296.5 Z" fill="#DBF9F0" stroke="#210124" stroke-width="4"></path><path d="M 609.2 244 L 665.5 296.5 Q 689.6 319, 713.8 296.5 L 657.4 244 Q 633.3 221.4, 609.2 244 Z" fill="#B3DEC1" stroke="#210124" stroke-width="4"></path><path d="M 609.2 383 L 665.5 330.5 Q 689.6 308, 713.8 330.5 L 657.4 383 Q 633.3 405.5, 609.2 383 Z" fill="#DBF9F0" stroke="#210124" stroke-width="4"></path><path d="M 713.8 330.5 L 770.1 383 Q 794.2 405.5, 818.3 383 L 762 330.5 Q 737.9 308, 713.8 330.5 Z" fill="#B3DEC1" stroke="#210124" stroke-width="4"></path><path d="M 713.8 469.5 L 770.1 417 Q 794.2 394.5, 818.3 417 L 762 469.5 Q 737.9 492, 713.8 469.5 Z" fill="#DBF9F0" stroke="#210124" stroke-width="4"></path><path d="M 818.3 417 L 874.6 469.5 Q 898.8 492, 922.9 469.5 L 866.6 417 Q 842.5 394.5, 818.3 417 Z" fill="#B3DEC1" stroke="#210124" stroke-width="4"></path><path d="M 818.3 556 L 874.6 503.5 Q 898.8 481, 922.9 503.5 L 866.6 556 Q 842.5 578.6, 818.3 556 Z" fill="#DBF9F0" stroke="#210124" stroke-width="4"></path><path d="M 922.9 503.5 L 979.2 556 Q 1003.4 578.6, 1027.5 556 L 971.2 503.5 Q 947.1 481, 922.9 503.5 Z" fill="#B3DEC1" stroke="#210124" stroke-width="4"></path><path d="M 922.9 642.6 L 979.2 590.1 Q 1003.4 567.6, 1027.5 590.1 L 971.2 642.6 Q 947.1 665.1, 922.9 642.6 Z" fill="#DBF9F0" stroke="#210124" stroke-width="4"></path><path d="M 1027.5 590.1 L 1083.8 642.6 Q 1108 665.1, 1132.1 642.6 L 1075.8 590.1 Q 1051.6 567.6, 1027.5 590.1 Z" fill="#B3DEC1" stroke="#210124" stroke-width="4"></path><path d="M 1027.5 729.1 L 1083.8 676.6 Q 1108 654.1, 1132.1 676.6 L 1075.8 729.1 Q 1051.6 751.6, 1027.5 729.1 Z" fill="#DBF9F0" stroke="#210124" stroke-width="4"></path><path d="M 1132.1 676.6 L 1188.4 729.1 Q 1212.5 751.6, 1236.7 729.1 L 1180.4 676.6 Q 1156.2 654.1, 1132.1 676.6 Z" fill="#B3DEC1" stroke="#210124" stroke-width="4"></path><path d="M 1132.1 815.6 L 1188.4 763.1 Q 1212.5 740.6, 1236.7 763.1 L 1180.4 815.6 Q 1156.2 838.1, 1132.1 815.6 Z" fill="#DBF9F0" stroke="#210124" stroke-width="4"></path><path d="M 1236.7 763.1 L 1293 815.6 Q 1317.1 838.1, 1341.3 815.6 L 1284.9 763.1 Q 1260.8 740.6, 1236.7 763.1 Z" fill="#B3DEC1" stroke="#210124" stroke-width="4"></path><path d="M 295.4 -49.6 L 351.7 -102.1 Q 375.9 -124.7, 400 -102.1 L 343.7 -49.6 Q 319.6 -27.1, 295.4 -49.6 Z" fill="#DBF9F0" stroke="#210124" stroke-width="4"></path><path d="M 400 -102.1 L 456.3 -49.6 Q 480.4 -27.1, 504.6 -49.6 L 448.3 -102.1 Q 424.1 -124.7, 400 -102.1 Z" fill="#B3DEC1" stroke="#210124" stroke-width="4"></path><path d="M 400 36.9 L 456.3 -15.6 Q 480.4 -38.1, 504.6 -15.6 L 448.3 36.9 Q 424.1 59.4, 400 36.9 Z" fill="#DBF9F0" stroke="#210124" stroke-width="4"></path><path d="M 504.6 -15.6 L 560.9 36.9 Q 585 59.4, 609.2 36.9 L 552.9 -15.6 Q 528.7 -38.1, 504.6 -15.6 Z" fill="#B3DEC1" stroke="#210124" stroke-width="4"></path><path d="M 504.6 123.4 L 560.9 70.9 Q 585 48.4, 609.2 70.9 L 552.9 123.4 Q 528.7 145.9, 504.6 123.4 Z" fill="#DBF9F0" stroke="#210124" stroke-width="4"></path><path d="M 609.2 70.9 L 665.5 123.4 Q 689.6 145.9, 713.8 123.4 L 657.4 70.9 Q 633.3 48.4, 609.2 70.9 Z" fill="#B3DEC1" stroke="#210124" stroke-width="4"></path><path d="M 609.2 209.9 L 665.5 157.4 Q 689.6 134.9, 713.8 157.4 L 657.4 209.9 Q 633.3 232.4, 609.2 209.9 Z" fill="#DBF9F0" stroke="#210124" stroke-width="4"></path><path d="M 713.8 157.4 L 770.1 209.9 Q 794.2 232.4, 818.3 209.9 L 762 157.4 Q 737.9 134.9, 713.8 157.4 Z" fill="#B3DEC1" stroke="#210124" stroke-width="4"></path><path d="M 713.8 296.5 L 770.1 244 Q 794.2 221.4, 818.3 244 L 762 296.5 Q 737.9 319, 713.8 296.5 Z" fill="#DBF9F0" stroke="#210124" stroke-width="4"></path><path d="M 818.3 244 L 874.6 296.5 Q 898.8 319, 922.9 296.5 L 866.6 244 Q 842.5 221.4, 818.3 244 Z" fill="#B3DEC1" stroke="#210124" stroke-width="4"></path><path d="M 818.3 383 L 874.6 330.5 Q 898.8 308, 922.9 330.5 L 866.6 383 Q 842.5 405.5, 818.3 383 Z" fill="#DBF9F0" stroke="#210124" stroke-width="4"></path><path d="M 922.9 330.5 L 979.2 383 Q 1003.4 405.5, 1027.5 383 L 971.2 330.5 Q 947.1 308, 922.9 330.5 Z" fill="#B3DEC1" stroke="#210124" stroke-width="4"></path><path d="M 922.9 469.5 L 979.2 417 Q 1003.4 394.5, 1027.5 417 L 971.2 469.5 Q 947.1 492, 922.9 469.5 Z" fill="#DBF9F0" stroke="#210124" stroke-width="4"></path><path d="M 1027.5 417 L 1083.8 469.5 Q 1108 492, 1132.1 469.5 L 1075.8 417 Q 1051.6 394.5, 1027.5 417 Z" fill="#B3DEC1" stroke="#210124" stroke-width="4"></path><path d="M 1027.5 556 L 1083.8 503.5 Q 1108 481, 1132.1 503.5 L 1075.8 556 Q 1051.6 578.6, 1027.5 556 Z" fill="#DBF9F0" stroke="#210124" stroke-width="4"></path><path d="M 1132.1 503.5 L 1188.4 556 Q 1212.5 578.6, 1236.7 556 L 1180.4 503.5 Q 1156.2 481, 1132.1 503.5 Z" fill="#B3DEC1" stroke="#210124" stroke-width="4"></path><path d="M 1132.1 642.6 L 1188.4 590.1 Q 1212.5 567.6, 1236.7 590.1 L 1180.4 642.6 Q 1156.2 665.1, 1132.1 642.6 Z" fill="#DBF9F0" stroke="#210124" stroke-width="4"></path><path d="M 1236.7 590.1 L 1293 642.6 Q 1317.1 665.1, 1341.3 642.6 L 1284.9 590.1 Q 1260.8 567.6, 1236.7 590.1 Z" fill="#B3DEC1" stroke="#210124" stroke-width="4"></path><path d="M 1236.7 729.1 L 1293 676.6 Q 1317.1 654.1, 1341.3 676.6 L 1284.9 729.1 Q 1260.8 751.6, 1236.7 729.1 Z" fill="#DBF9F0" stroke="#210124" stroke-width="4"></path><path d="M 1341.3 676.6 L 1397.6 729.1 Q 1421.7 751.6, 1445.8 729.1 L 1389.5 676.6 Q 1365.4 654.1, 1341.3 676.6 Z" fill="#B3DEC1" stroke="#210124" stroke-width="4"></path><path d="M 1341.3 815.6 L 1397.6 763.1 Q 1421.7 740.6, 1445.8 763.1 L 1389.5 815.6 Q 1365.4 838.1, 1341.3 815.6 Z" fill="#DBF9F0" stroke="#210124" stroke-width="4"></path><path d="M 1445.8 763.1 L 1502.2 815.6 Q 1526.3 838.1, 1550.4 815.6 L 1494.1 763.1 Q 1470 740.6, 1445.8 763.1 Z" fill="#B3DEC1" stroke="#210124" stroke-width="4"></path><path d="M 504.6 -49.6 L 560.9 -102.1 Q 585 -124.7, 609.2 -102.1 L 552.9 -49.6 Q 528.7 -27.1, 504.6 -49.6 Z" fill="#DBF9F0" stroke="#210124" stroke-width="4"></path><path d="M 609.2 -102.1 L 665.5 -49.6 Q 689.6 -27.1, 713.8 -49.6 L 657.4 -102.1 Q 633.3 -124.7, 609.2 -102.1 Z" fill="#B3DEC1" stroke="#210124" stroke-width="4"></path><path d="M 609.2 36.9 L 665.5 -15.6 Q 689.6 -38.1, 713.8 -15.6 L 657.4 36.9 Q 633.3 59.4, 609.2 36.9 Z" fill="#DBF9F0" stroke="#210124" stroke-width="4"></path><path d="M 713.8 -15.6 L 770.1 36.9 Q 794.2 59.4, 818.3 36.9 L 762 -15.6 Q 737.9 -38.1, 713.8 -15.6 Z" fill="#B3DEC1" stroke="#210124" stroke-width="4"></path><path d="M 713.8 123.4 L 770.1 70.9 Q 794.2 48.4, 818.3 70.9 L 762 123.4 Q 737.9 145.9, 713.8 123.4 Z" fill="#DBF9F0" stroke="#210124" stroke-width="4"></path><path d="M 818.3 70.9 L 874.6 123.4 Q 898.8 145.9, 922.9 123.4 L 866.6 70.9 Q 842.5 48.4, 818.3 70.9 Z" fill="#B3DEC1" stroke="#210124" stroke-width="4"></path><path d="M 818.3 209.9 L 874.6 157.4 Q 898.8 134.9, 922.9 157.4 L 866.6 209.9 Q 842.5 232.4, 818.3 209.9 Z" fill="#DBF9F0" stroke="#210124" stroke-width="4"></path><path d="M 922.9 157.4 L 979.2 209.9 Q 1003.4 232.4, 1027.5 209.9 L 971.2 157.4 Q 947.1 134.9, 922.9 157.4 Z" fill="#B3DEC1" stroke="#210124" stroke-width="4"></path><path d="M 922.9 296.5 L 979.2 244 Q 1003.4 221.4, 1027.5 244 L 971.2 296.5 Q 947.1 319, 922.9 296.5 Z" fill="#DBF9F0" stroke="#210124" stroke-width="4"></path><path d="M 1027.5 244 L 1083.8 296.5 Q 1108 319, 1132.1 296.5 L 1075.8 244 Q 1051.6 221.4, 1027.5 244 Z" fill="#B3DEC1" stroke="#210124" stroke-width="4"></path><path d="M 1027.5 383 L 1083.8 330.5 Q 1108 308, 1132.1 330.5 L 1075.8 383 Q 1051.6 405.5, 1027.5 383 Z" fill="#DBF9F0" stroke="#210124" stroke-width="4"></path><path d="M 1132.1 330.5 L 1188.4 383 Q 1212.5 405.5, 1236.7 383 L 1180.4 330.5 Q 1156.2 308, 1132.1 330.5 Z" fill="#B3DEC1" stroke="#210124" stroke-width="4"></path><path d="M 1132.1 469.5 L 1188.4 417 Q 1212.5 394.5, 1236.7 417 L 1180.4 469.5 Q 1156.2 492, 1132.1 469.5 Z" fill="#DBF9F0" stroke="#210124" stroke-width="4"></path><path d="M 1236.7 417 L 1293 469.5 Q 1317.1 492, 1341.3 469.5 L 1284.9 417 Q 1260.8 394.5, 1236.7 417 Z" fill="#B3DEC1" stroke="#210124" stroke-width="4"></path><path d="M 1236.7 556 L 1293 503.5 Q 1317.1 481, 1341.3 503.5 L 1284.9 556 Q 1260.8 578.6, 1236.7 556 Z" fill="#DBF9F0" stroke="#210124" stroke-width="4"></path><path d="M 1341.3 503.5 L 1397.6 556 Q 1421.7 578.6, 1445.8 556 L 1389.5 503.5 Q 1365.4 481, 1341.3 503.5 Z" fill="#B3DEC1" stroke="#210124" stroke-width="4"></path><path d="M 1341.3 642.6 L 1397.6 590.1 Q 1421.7 567.6, 1445.8 590.1 L 1389.5 642.6 Q 1365.4 665.1, 1341.3 642.6 Z" fill="#DBF9F0" stroke="#210124" stroke-width="4"></path><path d="M 1445.8 590.1 L 1502.2 642.6 Q 1526.3 665.1, 1550.4 642.6 L 1494.1 590.1 Q 1470 567.6, 1445.8 590.1 Z" fill="#B3DEC1" stroke="#210124" stroke-width="4"></path><path d="M 1445.8 729.1 L 1502.2 676.6 Q 1526.3 654.1, 1550.4 676.6 L 1494.1 729.1 Q 1470 751.6, 1445.8 729.1 Z" fill="#DBF9F0" stroke="#210124" stroke-width="4"></path><path d="M 1550.4 676.6 L 1606.7 729.1 Q 1630.9 751.6, 1655 729.1 L 1598.7 676.6 Q 1574.6 654.1, 1550.4 676.6 Z" fill="#B3DEC1" stroke="#210124" stroke-width="4"></path><path d="M 1550.4 815.6 L 1606.7 763.1 Q 1630.9 740.6, 1655 763.1 L 1598.7 815.6 Q 1574.6 838.1, 1550.4 815.6 Z" fill="#DBF9F0" stroke="#210124" stroke-width="4"></path><path d="M 1655 763.1 L 1711.3 815.6 Q 1735.5 838.1, 1759.6 815.6 L 1703.3 763.1 Q 1679.1 740.6, 1655 763.1 Z" fill="#B3DEC1" stroke="#210124" stroke-width="4"></path><path d="M 713.8 -49.6 L 770.1 -102.1 Q 794.2 -124.7, 818.3 -102.1 L 762 -49.6 Q 737.9 -27.1, 713.8 -49.6 Z" fill="#DBF9F0" stroke="#210124" stroke-width="4"></path><path d="M 818.3 -102.1 L 874.6 -49.6 Q 898.8 -27.1, 922.9 -49.6 L 866.6 -102.1 Q 842.5 -124.7, 818.3 -102.1 Z" fill="#B3DEC1" stroke="#210124" stroke-width="4"></path><path d="M 818.3 36.9 L 874.6 -15.6 Q 898.8 -38.1, 922.9 -15.6 L 866.6 36.9 Q 842.5 59.4, 818.3 36.9 Z" fill="#DBF9F0" stroke="#210124" stroke-width="4"></path><path d="M 922.9 -15.6 L 979.2 36.9 Q 1003.4 59.4, 1027.5 36.9 L 971.2 -15.6 Q 947.1 -38.1, 922.9 -15.6 Z" fill="#B3DEC1" stroke="#210124" stroke-width="4"></path><path d="M 922.9 123.4 L 979.2 70.9 Q 1003.4 48.4, 1027.5 70.9 L 971.2 123.4 Q 947.1 145.9, 922.9 123.4 Z" fill="#DBF9F0" stroke="#210124" stroke-width="4"></path><path d="M 1027.5 70.9 L 1083.8 123.4 Q 1108 145.9, 1132.1 123.4 L 1075.8 70.9 Q 1051.6 48.4, 1027.5 70.9 Z" fill="#B3DEC1" stroke="#210124" stroke-width="4"></path><path d="M 1027.5 209.9 L 1083.8 157.4 Q 1108 134.9, 1132.1 157.4 L 1075.8 209.9 Q 1051.6 232.4, 1027.5 209.9 Z" fill="#DBF9F0" stroke="#210124" stroke-width="4"></path><path d="M 1132.1 157.4 L 1188.4 209.9 Q 1212.5 232.4, 1236.7 209.9 L 1180.4 157.4 Q 1156.2 134.9, 1132.1 157.4 Z" fill="#B3DEC1" stroke="#210124" stroke-width="4"></path><path d="M 1132.1 296.5 L 1188.4 244 Q 1212.5 221.4, 1236.7 244 L 1180.4 296.5 Q 1156.2 319, 1132.1 296.5 Z" fill="#DBF9F0" stroke="#210124" stroke-width="4"></path><path d="M 1236.7 244 L 1293 296.5 Q 1317.1 319, 1341.3 296.5 L 1284.9 244 Q 1260.8 221.4, 1236.7 244 Z" fill="#B3DEC1" stroke="#210124" stroke-width="4"></path><path d="M 1236.7 383 L 1293 330.5 Q 1317.1 308, 1341.3 330.5 L 1284.9 383 Q 1260.8 405.5, 1236.7 383 Z" fill="#DBF9F0" stroke="#210124" stroke-width="4"></path><path d="M 1341.3 330.5 L 1397.6 383 Q 1421.7 405.5, 1445.8 383 L 1389.5 330.5 Q 1365.4 308, 1341.3 330.5 Z" fill="#B3DEC1" stroke="#210124" stroke-width="4"></path><path d="M 1341.3 469.5 L 1397.6 417 Q 1421.7 394.5, 1445.8 417 L 1389.5 469.5 Q 1365.4 492, 1341.3 469.5 Z" fill="#DBF9F0" stroke="#210124" stroke-width="4"></path><path d="M 1445.8 417 L 1502.2 469.5 Q 1526.3 492, 1550.4 469.5 L 1494.1 417 Q 1470 394.5, 1445.8 417 Z" fill="#B3DEC1" stroke="#210124" stroke-width="4"></path><path d="M 1445.8 556 L 1502.2 503.5 Q 1526.3 481, 1550.4 503.5 L 1494.1 556 Q 1470 578.6, 1445.8 556 Z" fill="#DBF9F0" stroke="#210124" stroke-width="4"></path><path d="M 1550.4 503.5 L 1606.7 556 Q 1630.9 578.6, 1655 556 L 1598.7 503.5 Q 1574.6 481, 1550.4 503.5 Z" fill="#B3DEC1" stroke="#210124" stroke-width="4"></path><path d="M 1550.4 642.6 L 1606.7 590.1 Q 1630.9 567.6, 1655 590.1 L 1598.7 642.6 Q 1574.6 665.1, 1550.4 642.6 Z" fill="#DBF9F0" stroke="#210124" stroke-width="4"></path><path d="M 1655 590.1 L 1711.3 642.6 Q 1735.5 665.1, 1759.6 642.6 L 1703.3 590.1 Q 1679.1 567.6, 1655 590.1 Z" fill="#B3DEC1" stroke="#210124" stroke-width="4"></path><path d="M 1655 729.1 L 1711.3 676.6 Q 1735.5 654.1, 1759.6 676.6 L 1703.3 729.1 Q 1679.1 751.6, 1655 729.1 Z" fill="#DBF9F0" stroke="#210124" stroke-width="4"></path><path d="M 1759.6 676.6 L 1815.9 729.1 Q 1840 751.6, 1864.2 729.1 L 1807.9 676.6 Q 1783.7 654.1, 1759.6 676.6 Z" fill="#B3DEC1" stroke="#210124" stroke-width="4"></path><path d="M 1759.6 815.6 L 1815.9 763.1 Q 1840 740.6, 1864.2 763.1 L 1807.9 815.6 Q 1783.7 838.1, 1759.6 815.6 Z" fill="#DBF9F0" stroke="#210124" stroke-width="4"></path><path d="M 1864.2 763.1 L 1920.5 815.6 Q 1944.6 838.1, 1968.8 815.6 L 1912.4 763.1 Q 1888.3 740.6, 1864.2 763.1 Z" fill="#B3DEC1" stroke="#210124" stroke-width="4"></path><path d="M 922.9 -49.6 L 979.2 -102.1 Q 1003.4 -124.7, 1027.5 -102.1 L 971.2 -49.6 Q 947.1 -27.1, 922.9 -49.6 Z" fill="#DBF9F0" stroke="#210124" stroke-width="4"></path><path d="M 1027.5 -102.1 L 1083.8 -49.6 Q 1108 -27.1, 1132.1 -49.6 L 1075.8 -102.1 Q 1051.6 -124.7, 1027.5 -102.1 Z" fill="#B3DEC1" stroke="#210124" stroke-width="4"></path><path d="M 1027.5 36.9 L 1083.8 -15.6 Q 1108 -38.1, 1132.1 -15.6 L 1075.8 36.9 Q 1051.6 59.4, 1027.5 36.9 Z" fill="#DBF9F0" stroke="#210124" stroke-width="4"></path><path d="M 1132.1 -15.6 L 1188.4 36.9 Q 1212.5 59.4, 1236.7 36.9 L 1180.4 -15.6 Q 1156.2 -38.1, 1132.1 -15.6 Z" fill="#B3DEC1" stroke="#210124" stroke-width="4"></path><path d="M 1132.1 123.4 L 1188.4 70.9 Q 1212.5 48.4, 1236.7 70.9 L 1180.4 123.4 Q 1156.2 145.9, 1132.1 123.4 Z" fill="#DBF9F0" stroke="#210124" stroke-width="4"></path><path d="M 1236.7 70.9 L 1293 123.4 Q 1317.1 145.9, 1341.3 123.4 L 1284.9 70.9 Q 1260.8 48.4, 1236.7 70.9 Z" fill="#B3DEC1" stroke="#210124" stroke-width="4"></path><path d="M 1236.7 209.9 L 1293 157.4 Q 1317.1 134.9, 1341.3 157.4 L 1284.9 209.9 Q 1260.8 232.4, 1236.7 209.9 Z" fill="#DBF9F0" stroke="#210124" stroke-width="4"></path><path d="M 1341.3 157.4 L 1397.6 209.9 Q 1421.7 232.4, 1445.8 209.9 L 1389.5 157.4 Q 1365.4 134.9, 1341.3 157.4 Z" fill="#B3DEC1" stroke="#210124" stroke-width="4"></path><path d="M 1341.3 296.5 L 1397.6 244 Q 1421.7 221.4, 1445.8 244 L 1389.5 296.5 Q 1365.4 319, 1341.3 296.5 Z" fill="#DBF9F0" stroke="#210124" stroke-width="4"></path><path d="M 1445.8 244 L 1502.2 296.5 Q 1526.3 319, 1550.4 296.5 L 1494.1 244 Q 1470 221.4, 1445.8 244 Z" fill="#B3DEC1" stroke="#210124" stroke-width="4"></path><path d="M 1445.8 383 L 1502.2 330.5 Q 1526.3 308, 1550.4 330.5 L 1494.1 383 Q 1470 405.5, 1445.8 383 Z" fill="#DBF9F0" stroke="#210124" stroke-width="4"></path><path d="M 1550.4 330.5 L 1606.7 383 Q 1630.9 405.5, 1655 383 L 1598.7 330.5 Q 1574.6 308, 1550.4 330.5 Z" fill="#B3DEC1" stroke="#210124" stroke-width="4"></path><path d="M 1550.4 469.5 L 1606.7 417 Q 1630.9 394.5, 1655 417 L 1598.7 469.5 Q 1574.6 492, 1550.4 469.5 Z" fill="#DBF9F0" stroke="#210124" stroke-width="4"></path><path d="M 1655 417 L 1711.3 469.5 Q 1735.5 492, 1759.6 469.5 L 1703.3 417 Q 1679.1 394.5, 1655 417 Z" fill="#B3DEC1" stroke="#210124" stroke-width="4"></path><path d="M 1655 556 L 1711.3 503.5 Q 1735.5 481, 1759.6 503.5 L 1703.3 556 Q 1679.1 578.6, 1655 556 Z" fill="#DBF9F0" stroke="#210124" stroke-width="4"></path><path d="M 1759.6 503.5 L 1815.9 556 Q 1840 578.6, 1864.2 556 L 1807.9 503.5 Q 1783.7 481, 1759.6 503.5 Z" fill="#B3DEC1" stroke="#210124" stroke-width="4"></path><path d="M 1759.6 642.6 L 1815.9 590.1 Q 1840 567.6, 1864.2 590.1 L 1807.9 642.6 Q 1783.7 665.1, 1759.6 642.6 Z" fill="#DBF9F0" stroke="#210124" stroke-width="4"></path><path d="M 1864.2 590.1 L 1920.5 642.6 Q 1944.6 665.1, 1968.8 642.6 L 1912.4 590.1 Q 1888.3 567.6, 1864.2 590.1 Z" fill="#B3DEC1" stroke="#210124" stroke-width="4"></path><path d="M 1864.2 729.1 L 1920.5 676.6 Q 1944.6 654.1, 1968.8 676.6 L 1912.4 729.1 Q 1888.3 751.6, 1864.2 729.1 Z" fill="#DBF9F0" stroke="#210124" stroke-width="4"></path><path d="M 1968.8 676.6 L 2025.1 729.1 Q 2049.2 751.6, 2073.3 729.1 L 2017 676.6 Q 1992.9 654.1, 1968.8 676.6 Z" fill="#B3DEC1" stroke="#210124" stroke-width="4"></path><path d="M 1968.8 815.6 L 2025.1 763.1 Q 2049.2 740.6, 2073.3 763.1 L 2017 815.6 Q 1992.9 838.1, 1968.8 815.6 Z" fill="#DBF9F0" stroke="#210124" stroke-width="4"></path><path d="M 2073.3 763.1 L 2129.7 815.6 Q 2153.8 838.1, 2177.9 815.6 L 2121.6 763.1 Q 2097.5 740.6, 2073.3 763.1 Z" fill="#B3DEC1" stroke="#210124" stroke-width="4"></path><ellipse cx="400" cy="400" rx="600" ry="600" fill="none" stroke="white" stroke-width="560"></ellipse><ellipse cx="400" cy="400" rx="320" ry="320" fill="none" stroke="#210124" stroke-width="4"></ellipse></svg>