<svg viewBox="0 0 800 800" preserveAspectRatio="xMidYMin slice" xmlns="http://www.w3.org/2000/svg" xlink="http://www.w3.org/1999/xlink"><defs><g id="unit-33"><path d="M 0 -17 L 56.3 -69.5 Q 80.4 -92, 104.6 -69.5 L 48.3 -17 Q 24.1 5.5, 0 -17 Z" fill="#DBF9F0" stroke="#210124" stroke-width="4"></path><path d="M 104.6 -69.5 L 160.9 -17 Q 185 5.5, 209.2 -17 L 152.9 -69.5 Q 128.7 -92, 104.6 -69.5 Z" fill="#B3DEC1" stroke="#210124" stroke-width="4"></path></g></defs><rect x="0" y="0" width="800" height="800" fill="#F7F9F7"></rect><use href="#unit-33" transform="translate(-1168.8, -32.6)"></use><use href="#unit-33" transform="translate(-1064.2, 53.9)"></use><use href="#unit-33" transform="translate(-959.6, 140.4)"></use><use href="#unit-33" transform="translate(-855, 226.9)"></use><use href="#unit-33" transform="translate(-750.4, 313.5)"></use><use href="#unit-33" transform="translate(-645.8, 400)"></use><use href="#unit-33" transform="translate(-541.3, 486.5)"></use><use href="#unit-33" transform="translate(-436.7, 573.1)"></use><use href="#unit-33" transform="translate(-332.1, 659.6)"></use><use href="#unit-33" transform="translate(-227.5, 746.1)"></use><use href="#unit-33" transform="translate(-122.9, 832.6)"></use><use href="#unit-33" transform="translate(-959.6, -32.6)"></use><use href="#unit-33" transform="translate(-855, 53.9)"></use><use href="#unit-33" transform="translate(-750.4, 140.4)"></use><use href="#unit-33" transform="translate(-645.8, 226.9)"></use><use href="#unit-33" transform="translate(-541.3, 313.5)"></use><use href="#unit-33" transform="translate(-436.7, 400)"></use><use href="#unit-33" transform="translate(-332.1, 486.5)"></use><use href="#unit-33" transform="translate(-227.5, 573.1)"></use><use href="#unit-33" transform="translate(-122.9, 659.6)"></use><use href="#unit-33" transform="translate(-18.3, 746.1)"></use><use href="#unit-33" transform="translate(86.2, 832.6)"></use><use href="#unit-33" transform="translate(-750.4, -32.6)"></use><use href="#unit-33" transform="translate(-645.8, 53.9)"></use><use href="#unit-33" transform="translate(-541.3, 140.4)"></use><use href="#unit-33" transform="translate(-436.7, 226.9)"></use><use href="#unit-33" transform="translate(-332.1, 313.5)"></use><use href="#unit-33" transform="translate(-227.5, 400)"></use><use href="#unit-33" transform="translate(-122.9, 486.5)"></use><use href="#unit-33" transform="translate(-18.3, 573.1)"></use><use href="#unit-33" transform="translate(86.2, 659.6)"></use><use href="#unit-33" transform="translate(190.8, 746.1)"></use><use href="#unit-33" transform="translate(295.4, 832.6)"></use><use href="#unit-33" transform="translate(-541.3, -32.6)"></use><use href="#unit-33" transform="translate(-436.7, 53.9)"></use><use href="#unit-33" transform="translate(-332.1, 140.4)"></use><use href="#unit-33" transform="translate(-227.5, 226.9)"></use><use href="#unit-33" transform="translate(-122.9, 313.5)"></use><use href="#unit-33" transform="translate(-18.3, 400)"></use><use href="#unit-33" transform="translate(86.2, 486.5)"></use><use href="#unit-33" transform="translate(190.8, 573.1)"></use><use href="#unit-33" transform="translate(295.4, 659.6)"></use><use href="#unit-33" transform="translate(400, 746.1)"></use><use href="#unit-33" transform="translate(504.6, 832.6)"></use><use href="#unit-33" transform="translate(-332.1, -32.6)"></use><use href="#unit-33" transform="translate(-227.5, 53.9)"></use><use href="#unit-33" transform="translate(-122.9, 140.4)"></use><use href="#unit-33" transform="translate(-18.3, 226.9)"></use><use href="#unit-33" transform="translate(86.2, 313.5)"></use><use href="#unit-33" transform="translate(190.8, 400)"></use><use href="#unit-33" transform="translate(295.4, 486.5)"></use><use href="#unit-33" transform="translate(400, 573.1)"></use><use href="#unit-33" transform="translate(504.6, 659.6)"></use><use href="#unit-33" transform="translate(609.2, 746.1)"></use><use href="#unit-33" transform="translate(713.8, 832.6)"></use><use href="#unit-33" transform="translate(-122.9, -32.6)"></use><use href="#unit-33" transform="translate(-18.3, 53.9)"></use><use href="#unit-33" transform="translate(86.2, 140.4)"></use><use href="#unit-33" transform="translate(190.8, 226.9)"></use><use href="#unit-33" transform="translate(295.4, 313.5)"></use><use href="#unit-33" transform="translate(400, 400)"></use><use href="#unit-33" transform="translate(504.6, 486.5)"></use><use href="#unit-33" transform="translate(609.2, 573.1)"></use><use href="#unit-33" transform="translate(713.8, 659.6)"></use><use href="#unit-33" transform="translate(818.3, 746.1)"></use><use href="#unit-33" transform="translate(922.9, 832.6)"></use><use href="#unit-33" transform="translate(86.2, -32.6)"></use><use href="#unit-33" transform="translate(190.8, 53.9)"></use><use href="#unit-33" transform="translate(295.4, 140.4)"></use><use href="#unit-33" transform="translate(400, 226.9)"></use><use href="#unit-33" transform="translate(504.6, 313.5)"></use><use href="#unit-33" transform="translate(609.2, 400)"></use><use href="#unit-33" transform="translate(713.8, 486.5)"></use><use href="#unit-33" transform="translate(818.3, 573.1)"></use><use href="#unit-33" transform="translate(922.9, 659.6)"></use><use href="#unit-33" transform="translate(1027.5, 746.1)"></use><use href="#unit-33" transform="translate(1132.1, 832.6)"></use><use href="#unit-33" transform="translate(295.4, -32.6)"></use><use href="#unit-33" transform="translate(400, 53.9)"></use><use href="#unit-33" transform="translate(504.6, 140.4)"></use><use href="#unit-33" transform="translate(609.2, 226.9)"></use><use href="#unit-33" transform="translate(713.8, 313.5)"></use><use href="#unit-33" transform="translate(818.3, 400)"></use><use href="#unit-33" transform="translate(922.9, 486.5)"></use><use href="#unit-33" transform="translate(1027.5, 573.1)"></use><use href="#unit-33" transform="translate(1132.1, 659.6)"></use><use href="#unit-33" transform="translate(1236.7, 746.1)"></use><use href="#unit-33" transform="translate(1341.3, 832.6)"></use><use href="#unit-33" transform="translate(504.6, -32.6)"></use><use href="#unit-33" transform="translate(609.2, 53.9)"></use><use href="#unit-33" transform="translate(713.8, 140.4)"></use><use href="#unit-33" transform="translate(818.3, 226.9)"></use><use href="#unit-33" transform="translate(922.9, 313.5)"></use><use href="#unit-33" transform="translate(1027.5, 400)"></use><use href="#unit-33" transform="translate(1132.1, 486.5)"></use><use href="#unit-33" transform="translate(1236.7, 573.1)"></use><use href="#unit-33" transform="translate(1341.3, 659.6)"></use><use href="#unit-33" transform="translate(1445.8, 746.1)"></use><use href="#unit-33" transform="translate(1550.4, 832.6)"></use><use href="#unit-33" transform="translate(713.8, -32.6)"></use><use href="#unit-33" transform="translate(818.3, 53.9)"></use><use href="#unit-33" transform="translate(922.9, 140.4)"></use><use href="#unit-33" transform="translate(1027.5, 226.9)"></use><use href="#unit-33" transform="translate(1132.1, 313.5)"></use><use href="#unit-33" transform="translate(1236.7, 400)"></use><use href="#unit-33" transform="translate(1341.3, 486.5)"></use><use href="#unit-33" transform="translate(1445.8, 573.1)"></use><use href="#unit-33" transform="translate(1550.4, 659.6)"></use><use href="#unit-33" transform="translate(1655, 746.1)"></use><use href="#unit-33" transform="translate(1759.6, 832.6)"></use><use href="#unit-33" transform="translate(922.9, -32.6)"></use><use href="#unit-33" transform="translate(1027.5, 53.9)"></use><use href="#unit-33" transform="translate(1132.1, 140.4)"></use><use href="#unit-33" transform="translate(1236.7, 226.9)"></use><use href="#unit-33" transform="translate(1341.3, 313.5)"></use><use href="#unit-33" transform="translate(1445.8, 400)"></use><use href="#unit-33" transform="translate(1550.4, 486.5)"></use><use href="#unit-33" transform="translate(1655, 573.1)"></use><use href="#unit-33" transform="translate(1759.6, 659.6)"></use><use href="#unit-33" transform="translate(1864.2, 746.1)"></use><use href="#unit-33" transform="translate(1968.8, 832.6)"></use><ellipse cx="400" cy="400" rx="600" ry="600" fill="none" stroke="white" stroke-width="560"></ellipse><ellipse cx="400" cy="400" rx="320" ry="320" fill="none" stroke="#210124" stroke-width="4"></ellipse></svg>