<svg viewBox="0 0 800 800" preserveAspectRatio="xMidYMin slice" xmlns="http://www.w3.org/2000/svg"><rect x="0" y="0" width="800" height="800" fill="#0d0628"></rect><path d="M -447.2 417.5 L -429.7 400 L -447.2 382.5 L -502.5 382.5 L -502.5 327.2 L -520 309.7 L -537.5 327.2 L -537.5 382.5 L -592.8 382.5 L -610.3 400 L -592.8 417.5 L -537.5 417.5 L -537.5 472.8 L -520 490.3 L -502.5 472.8 L -502.5 417.5 L -447.2 417.5" fill="#f9dbbd" stroke="black" stroke-width="3"></path><path d="M -520 309.7 L -552.8 342.5 L -577.5 317.8 L -544.7 285 L -577.5 252.2 L -552.8 227.5 L -520 260.3 L -487.2 227.5 L -462.5 252.2 L -495.3 285 L -462.5 317.8 L -487.2 342.5 Z" fill="#da627d" stroke="black" stroke-width="3"></path><path d="M -502.5 382.5 L -477.8 382.5 L -422.5 327.2 L -422.5 302.5 L -447.2 302.5 L -502.5 357.8 Z" fill="#fca17d" stroke="black" stroke-width="3"></path><path d="M -537.5 382.5 L -562.2 382.5 L -617.5 327.2 L -617.5 302.5 L -592.8 302.5 L -537.5 357.8 Z" fill="#fca17d" stroke="black" stroke-width="3"></path><path d="M -332.2 302.5 L -314.7 285 L -332.2 267.5 L -387.5 267.5 L -387.5 212.2 L -405 194.7 L -422.5 212.2 L -422.5 267.5 L -477.8 267.5 L -495.3 285 L -477.8 302.5 L -422.5 302.5 L -422.5 357.8 L -405 375.3 L -387.5 357.8 L -387.5 302.5 L -332.2 302.5" fill="#f9dbbd" stroke="black" stroke-width="3"></path><path d="M -405 194.7 L -437.8 227.5 L -462.5 202.8 L -429.7 170 L -462.5 137.2 L -437.8 112.5 L -405 145.3 L -372.2 112.5 L -347.5 137.2 L -380.3 170 L -347.5 202.8 L -372.2 227.5 Z" fill="#da627d" stroke="black" stroke-width="3"></path><path d="M -387.5 267.5 L -362.8 267.5 L -307.5 212.2 L -307.5 187.5 L -332.2 187.5 L -387.5 242.8 Z" fill="#fca17d" stroke="black" stroke-width="3"></path><path d="M -422.5 267.5 L -447.2 267.5 L -502.5 212.2 L -502.5 187.5 L -477.8 187.5 L -422.5 242.8 Z" fill="#fca17d" stroke="black" stroke-width="3"></path><path d="M -217.2 187.5 L -199.7 170 L -217.2 152.5 L -272.5 152.5 L -272.5 97.2 L -290 79.7 L -307.5 97.2 L -307.5 152.5 L -362.8 152.5 L -380.3 170 L -362.8 187.5 L -307.5 187.5 L -307.5 242.8 L -290 260.3 L -272.5 242.8 L -272.5 187.5 L -217.2 187.5" fill="#f9dbbd" stroke="black" stroke-width="3"></path><path d="M -290 79.7 L -322.8 112.5 L -347.5 87.8 L -314.7 55 L -347.5 22.2 L -322.8 -2.5 L -290 30.3 L -257.2 -2.5 L -232.5 22.2 L -265.3 55 L -232.5 87.8 L -257.2 112.5 Z" fill="#da627d" stroke="black" stroke-width="3"></path><path d="M -272.5 152.5 L -247.8 152.5 L -192.5 97.2 L -192.5 72.5 L -217.2 72.5 L -272.5 127.8 Z" fill="#fca17d" stroke="black" stroke-width="3"></path><path d="M -307.5 152.5 L -332.2 152.5 L -387.5 97.2 L -387.5 72.5 L -362.8 72.5 L -307.5 127.8 Z" fill="#fca17d" stroke="black" stroke-width="3"></path><path d="M -102.2 72.5 L -84.7 55 L -102.2 37.5 L -157.5 37.5 L -157.5 -17.8 L -175 -35.3 L -192.5 -17.8 L -192.5 37.5 L -247.8 37.5 L -265.3 55 L -247.8 72.5 L -192.5 72.5 L -192.5 127.8 L -175 145.3 L -157.5 127.8 L -157.5 72.5 L -102.2 72.5" fill="#f9dbbd" stroke="black" stroke-width="3"></path><path d="M -175 -35.3 L -207.8 -2.5 L -232.5 -27.2 L -199.7 -60 L -232.5 -92.8 L -207.8 -117.5 L -175 -84.7 L -142.2 -117.5 L -117.5 -92.8 L -150.3 -60 L -117.5 -27.2 L -142.2 -2.5 Z" fill="#da627d" stroke="black" stroke-width="3"></path><path d="M -157.5 37.5 L -132.8 37.5 L -77.5 -17.8 L -77.5 -42.5 L -102.2 -42.5 L -157.5 12.8 Z" fill="#fca17d" stroke="black" stroke-width="3"></path><path d="M -192.5 37.5 L -217.2 37.5 L -272.5 -17.8 L -272.5 -42.5 L -247.8 -42.5 L -192.5 12.8 Z" fill="#fca17d" stroke="black" stroke-width="3"></path><path d="M 12.8 -42.5 L 30.3 -60 L 12.8 -77.5 L -42.5 -77.5 L -42.5 -132.8 L -60 -150.3 L -77.5 -132.8 L -77.5 -77.5 L -132.8 -77.5 L -150.3 -60 L -132.8 -42.5 L -77.5 -42.5 L -77.5 12.8 L -60 30.3 L -42.5 12.8 L -42.5 -42.5 L 12.8 -42.5" fill="#f9dbbd" stroke="black" stroke-width="3"></path><path d="M -60 -150.3 L -92.8 -117.5 L -117.5 -142.2 L -84.7 -175 L -117.5 -207.8 L -92.8 -232.5 L -60 -199.7 L -27.2 -232.5 L -2.5 -207.8 L -35.3 -175 L -2.5 -142.2 L -27.2 -117.5 Z" fill="#da627d" stroke="black" stroke-width="3"></path><path d="M -42.5 -77.5 L -17.8 -77.5 L 37.5 -132.8 L 37.5 -157.5 L 12.8 -157.5 L -42.5 -102.2 Z" fill="#fca17d" stroke="black" stroke-width="3"></path><path d="M -77.5 -77.5 L -102.2 -77.5 L -157.5 -132.8 L -157.5 -157.5 L -132.8 -157.5 L -77.5 -102.2 Z" fill="#fca17d" stroke="black" stroke-width="3"></path><path d="M 127.8 -157.5 L 145.3 -175 L 127.8 -192.5 L 72.5 -192.5 L 72.5 -247.8 L 55 -265.3 L 37.5 -247.8 L 37.5 -192.5 L -17.8 -192.5 L -35.3 -175 L -17.8 -157.5 L 37.5 -157.5 L 37.5 -102.2 L 55 -84.7 L 72.5 -102.2 L 72.5 -157.5 L 127.8 -157.5" fill="#f9dbbd" stroke="black" stroke-width="3"></path><path d="M 55 -265.3 L 22.2 -232.5 L -2.5 -257.2 L 30.3 -290 L -2.5 -322.8 L 22.2 -347.5 L 55 -314.7 L 87.8 -347.5 L 112.5 -322.8 L 79.7 -290 L 112.5 -257.2 L 87.8 -232.5 Z" fill="#da627d" stroke="black" stroke-width="3"></path><path d="M 72.5 -192.5 L 97.2 -192.5 L 152.5 -247.8 L 152.5 -272.5 L 127.8 -272.5 L 72.5 -217.2 Z" fill="#fca17d" stroke="black" stroke-width="3"></path><path d="M 37.5 -192.5 L 12.8 -192.5 L -42.5 -247.8 L -42.5 -272.5 L -17.8 -272.5 L 37.5 -217.2 Z" fill="#fca17d" stroke="black" stroke-width="3"></path><path d="M 242.8 -272.5 L 260.3 -290 L 242.8 -307.5 L 187.5 -307.5 L 187.5 -362.8 L 170 -380.3 L 152.5 -362.8 L 152.5 -307.5 L 97.2 -307.5 L 79.7 -290 L 97.2 -272.5 L 152.5 -272.5 L 152.5 -217.2 L 170 -199.7 L 187.5 -217.2 L 187.5 -272.5 L 242.8 -272.5" fill="#f9dbbd" stroke="black" stroke-width="3"></path><path d="M 170 -380.3 L 137.2 -347.5 L 112.5 -372.2 L 145.3 -405 L 112.5 -437.8 L 137.2 -462.5 L 170 -429.7 L 202.8 -462.5 L 227.5 -437.8 L 194.7 -405 L 227.5 -372.2 L 202.8 -347.5 Z" fill="#da627d" stroke="black" stroke-width="3"></path><path d="M 187.5 -307.5 L 212.2 -307.5 L 267.5 -362.8 L 267.5 -387.5 L 242.8 -387.5 L 187.5 -332.2 Z" fill="#fca17d" stroke="black" stroke-width="3"></path><path d="M 152.5 -307.5 L 127.8 -307.5 L 72.5 -362.8 L 72.5 -387.5 L 97.2 -387.5 L 152.5 -332.2 Z" fill="#fca17d" stroke="black" stroke-width="3"></path><path d="M 357.8 -387.5 L 375.3 -405 L 357.8 -422.5 L 302.5 -422.5 L 302.5 -477.8 L 285 -495.3 L 267.5 -477.8 L 267.5 -422.5 L 212.2 -422.5 L 194.7 -405 L 212.2 -387.5 L 267.5 -387.5 L 267.5 -332.2 L 285 -314.7 L 302.5 -332.2 L 302.5 -387.5 L 357.8 -387.5" fill="#f9dbbd" stroke="black" stroke-width="3"></path><path d="M 285 -495.3 L 252.2 -462.5 L 227.5 -487.2 L 260.3 -520 L 227.5 -552.8 L 252.2 -577.5 L 285 -544.7 L 317.8 -577.5 L 342.5 -552.8 L 309.7 -520 L 342.5 -487.2 L 317.8 -462.5 Z" fill="#da627d" stroke="black" stroke-width="3"></path><path d="M 302.5 -422.5 L 327.2 -422.5 L 382.5 -477.8 L 382.5 -502.5 L 357.8 -502.5 L 302.5 -447.2 Z" fill="#fca17d" stroke="black" stroke-width="3"></path><path d="M 267.5 -422.5 L 242.8 -422.5 L 187.5 -477.8 L 187.5 -502.5 L 212.2 -502.5 L 267.5 -447.2 Z" fill="#fca17d" stroke="black" stroke-width="3"></path><path d="M 472.8 -502.5 L 490.3 -520 L 472.8 -537.5 L 417.5 -537.5 L 417.5 -592.8 L 400 -610.3 L 382.5 -592.8 L 382.5 -537.5 L 327.2 -537.5 L 309.7 -520 L 327.2 -502.5 L 382.5 -502.5 L 382.5 -447.2 L 400 -429.7 L 417.5 -447.2 L 417.5 -502.5 L 472.8 -502.5" fill="#f9dbbd" stroke="black" stroke-width="3"></path><path d="M 400 -610.3 L 367.2 -577.5 L 342.5 -602.2 L 375.3 -635 L 342.5 -667.8 L 367.2 -692.5 L 400 -659.7 L 432.8 -692.5 L 457.5 -667.8 L 424.7 -635 L 457.5 -602.2 L 432.8 -577.5 Z" fill="#da627d" stroke="black" stroke-width="3"></path><path d="M 417.5 -537.5 L 442.2 -537.5 L 497.5 -592.8 L 497.5 -617.5 L 472.8 -617.5 L 417.5 -562.2 Z" fill="#fca17d" stroke="black" stroke-width="3"></path><path d="M 382.5 -537.5 L 357.8 -537.5 L 302.5 -592.8 L 302.5 -617.5 L 327.2 -617.5 L 382.5 -562.2 Z" fill="#fca17d" stroke="black" stroke-width="3"></path><path d="M -332.2 532.5 L -314.7 515 L -332.2 497.5 L -387.5 497.5 L -387.5 442.2 L -405 424.7 L -422.5 442.2 L -422.5 497.5 L -477.8 497.5 L -495.3 515 L -477.8 532.5 L -422.5 532.5 L -422.5 587.8 L -405 605.3 L -387.5 587.8 L -387.5 532.5 L -332.2 532.5" fill="#f9dbbd" stroke="black" stroke-width="3"></path><path d="M -405 424.7 L -437.8 457.5 L -462.5 432.8 L -429.7 400 L -462.5 367.2 L -437.8 342.5 L -405 375.3 L -372.2 342.5 L -347.5 367.2 L -380.3 400 L -347.5 432.8 L -372.2 457.5 Z" fill="#da627d" stroke="black" stroke-width="3"></path><path d="M -387.5 497.5 L -362.8 497.5 L -307.5 442.2 L -307.5 417.5 L -332.2 417.5 L -387.5 472.8 Z" fill="#fca17d" stroke="black" stroke-width="3"></path><path d="M -422.5 497.5 L -447.2 497.5 L -502.5 442.2 L -502.5 417.5 L -477.8 417.5 L -422.5 472.8 Z" fill="#fca17d" stroke="black" stroke-width="3"></path><path d="M -217.2 417.5 L -199.7 400 L -217.2 382.5 L -272.5 382.5 L -272.5 327.2 L -290 309.7 L -307.5 327.2 L -307.5 382.5 L -362.8 382.5 L -380.3 400 L -362.8 417.5 L -307.5 417.5 L -307.5 472.8 L -290 490.3 L -272.5 472.8 L -272.5 417.5 L -217.2 417.5" fill="#f9dbbd" stroke="black" stroke-width="3"></path><path d="M -290 309.7 L -322.8 342.5 L -347.5 317.8 L -314.7 285 L -347.5 252.2 L -322.8 227.5 L -290 260.3 L -257.2 227.5 L -232.5 252.2 L -265.3 285 L -232.5 317.8 L -257.2 342.5 Z" fill="#da627d" stroke="black" stroke-width="3"></path><path d="M -272.5 382.5 L -247.8 382.5 L -192.5 327.2 L -192.5 302.5 L -217.2 302.5 L -272.5 357.8 Z" fill="#fca17d" stroke="black" stroke-width="3"></path><path d="M -307.5 382.5 L -332.2 382.5 L -387.5 327.2 L -387.5 302.5 L -362.8 302.5 L -307.5 357.8 Z" fill="#fca17d" stroke="black" stroke-width="3"></path><path d="M -102.2 302.5 L -84.7 285 L -102.2 267.5 L -157.5 267.5 L -157.5 212.2 L -175 194.7 L -192.5 212.2 L -192.5 267.5 L -247.8 267.5 L -265.3 285 L -247.8 302.5 L -192.5 302.5 L -192.5 357.8 L -175 375.3 L -157.5 357.8 L -157.5 302.5 L -102.2 302.5" fill="#f9dbbd" stroke="black" stroke-width="3"></path><path d="M -175 194.7 L -207.8 227.5 L -232.5 202.8 L -199.7 170 L -232.5 137.2 L -207.8 112.5 L -175 145.3 L -142.2 112.5 L -117.5 137.2 L -150.3 170 L -117.5 202.8 L -142.2 227.5 Z" fill="#da627d" stroke="black" stroke-width="3"></path><path d="M -157.5 267.5 L -132.8 267.5 L -77.5 212.2 L -77.5 187.5 L -102.2 187.5 L -157.5 242.8 Z" fill="#fca17d" stroke="black" stroke-width="3"></path><path d="M -192.5 267.5 L -217.2 267.5 L -272.5 212.2 L -272.5 187.5 L -247.8 187.5 L -192.5 242.8 Z" fill="#fca17d" stroke="black" stroke-width="3"></path><path d="M 12.8 187.5 L 30.3 170 L 12.8 152.5 L -42.5 152.5 L -42.5 97.2 L -60 79.7 L -77.5 97.2 L -77.5 152.5 L -132.8 152.5 L -150.3 170 L -132.8 187.5 L -77.5 187.5 L -77.5 242.8 L -60 260.3 L -42.5 242.8 L -42.5 187.5 L 12.8 187.5" fill="#f9dbbd" stroke="black" stroke-width="3"></path><path d="M -60 79.7 L -92.8 112.5 L -117.5 87.8 L -84.7 55 L -117.5 22.2 L -92.8 -2.5 L -60 30.3 L -27.2 -2.5 L -2.5 22.2 L -35.3 55 L -2.5 87.8 L -27.2 112.5 Z" fill="#da627d" stroke="black" stroke-width="3"></path><path d="M -42.5 152.5 L -17.8 152.5 L 37.5 97.2 L 37.5 72.5 L 12.8 72.5 L -42.5 127.8 Z" fill="#fca17d" stroke="black" stroke-width="3"></path><path d="M -77.5 152.5 L -102.2 152.5 L -157.5 97.2 L -157.5 72.5 L -132.8 72.5 L -77.5 127.8 Z" fill="#fca17d" stroke="black" stroke-width="3"></path><path d="M 127.8 72.5 L 145.3 55 L 127.8 37.5 L 72.5 37.5 L 72.5 -17.8 L 55 -35.3 L 37.5 -17.8 L 37.5 37.5 L -17.8 37.5 L -35.3 55 L -17.8 72.5 L 37.5 72.5 L 37.5 127.8 L 55 145.3 L 72.5 127.8 L 72.5 72.5 L 127.8 72.5" fill="#f9dbbd" stroke="black" stroke-width="3"></path><path d="M 55 -35.3 L 22.2 -2.5 L -2.5 -27.2 L 30.3 -60 L -2.5 -92.8 L 22.2 -117.5 L 55 -84.7 L 87.8 -117.5 L 112.5 -92.8 L 79.7 -60 L 112.5 -27.2 L 87.8 -2.5 Z" fill="#da627d" stroke="black" stroke-width="3"></path><path d="M 72.5 37.5 L 97.2 37.5 L 152.5 -17.8 L 152.5 -42.5 L 127.8 -42.5 L 72.5 12.8 Z" fill="#fca17d" stroke="black" stroke-width="3"></path><path d="M 37.5 37.5 L 12.8 37.5 L -42.5 -17.8 L -42.5 -42.5 L -17.8 -42.5 L 37.5 12.8 Z" fill="#fca17d" stroke="black" stroke-width="3"></path><path d="M 242.8 -42.5 L 260.3 -60 L 242.8 -77.5 L 187.5 -77.5 L 187.5 -132.8 L 170 -150.3 L 152.5 -132.8 L 152.5 -77.5 L 97.2 -77.5 L 79.7 -60 L 97.2 -42.5 L 152.5 -42.5 L 152.5 12.8 L 170 30.3 L 187.5 12.8 L 187.5 -42.5 L 242.8 -42.5" fill="#f9dbbd" stroke="black" stroke-width="3"></path><path d="M 170 -150.3 L 137.2 -117.5 L 112.5 -142.2 L 145.3 -175 L 112.5 -207.8 L 137.2 -232.5 L 170 -199.7 L 202.8 -232.5 L 227.5 -207.8 L 194.7 -175 L 227.5 -142.2 L 202.8 -117.5 Z" fill="#da627d" stroke="black" stroke-width="3"></path><path d="M 187.5 -77.5 L 212.2 -77.5 L 267.5 -132.8 L 267.5 -157.5 L 242.8 -157.5 L 187.5 -102.2 Z" fill="#fca17d" stroke="black" stroke-width="3"></path><path d="M 152.5 -77.5 L 127.8 -77.5 L 72.5 -132.8 L 72.5 -157.5 L 97.2 -157.5 L 152.5 -102.2 Z" fill="#fca17d" stroke="black" stroke-width="3"></path><path d="M 357.8 -157.5 L 375.3 -175 L 357.8 -192.5 L 302.5 -192.5 L 302.5 -247.8 L 285 -265.3 L 267.5 -247.8 L 267.5 -192.5 L 212.2 -192.5 L 194.7 -175 L 212.2 -157.5 L 267.5 -157.5 L 267.5 -102.2 L 285 -84.7 L 302.5 -102.2 L 302.5 -157.5 L 357.8 -157.5" fill="#f9dbbd" stroke="black" stroke-width="3"></path><path d="M 285 -265.3 L 252.2 -232.5 L 227.5 -257.2 L 260.3 -290 L 227.5 -322.8 L 252.2 -347.5 L 285 -314.7 L 317.8 -347.5 L 342.5 -322.8 L 309.7 -290 L 342.5 -257.2 L 317.8 -232.5 Z" fill="#da627d" stroke="black" stroke-width="3"></path><path d="M 302.5 -192.5 L 327.2 -192.5 L 382.5 -247.8 L 382.5 -272.5 L 357.8 -272.5 L 302.5 -217.2 Z" fill="#fca17d" stroke="black" stroke-width="3"></path><path d="M 267.5 -192.5 L 242.8 -192.5 L 187.5 -247.8 L 187.5 -272.5 L 212.2 -272.5 L 267.5 -217.2 Z" fill="#fca17d" stroke="black" stroke-width="3"></path><path d="M 472.8 -272.5 L 490.3 -290 L 472.8 -307.5 L 417.5 -307.5 L 417.5 -362.8 L 400 -380.3 L 382.5 -362.8 L 382.5 -307.5 L 327.2 -307.5 L 309.7 -290 L 327.2 -272.5 L 382.5 -272.5 L 382.5 -217.2 L 400 -199.7 L 417.5 -217.2 L 417.5 -272.5 L 472.8 -272.5" fill="#f9dbbd" stroke="black" stroke-width="3"></path><path d="M 400 -380.3 L 367.2 -347.5 L 342.5 -372.2 L 375.3 -405 L 342.5 -437.8 L 367.2 -462.5 L 400 -429.7 L 432.8 -462.5 L 457.5 -437.8 L 424.7 -405 L 457.5 -372.2 L 432.8 -347.5 Z" fill="#da627d" stroke="black" stroke-width="3"></path><path d="M 417.5 -307.5 L 442.2 -307.5 L 497.5 -362.8 L 497.5 -387.5 L 472.8 -387.5 L 417.5 -332.2 Z" fill="#fca17d" stroke="black" stroke-width="3"></path><path d="M 382.5 -307.5 L 357.8 -307.5 L 302.5 -362.8 L 302.5 -387.5 L 327.2 -387.5 L 382.5 -332.2 Z" fill="#fca17d" stroke="black" stroke-width="3"></path><path d="M 587.8 -387.5 L 605.3 -405 L 587.8 -422.5 L 532.5 -422.5 L 532.5 -477.8 L 515 -495.3 L 497.5 -477.8 L 497.5 -422.5 L 442.2 -422.5 L 424.7 -405 L 442.2 -387.5 L 497.5 -387.5 L 497.5 -332.2 L 515 -314.7 L 532.5 -332.2 L 532.5 -387.5 L 587.8 -387.5" fill="#f9dbbd" stroke="black" stroke-width="3"></path><path d="M 515 -495.3 L 482.2 -462.5 L 457.5 -487.2 L 490.3 -520 L 457.5 -552.8 L 482.2 -577.5 L 515 -544.7 L 547.8 -577.5 L 572.5 -552.8 L 539.7 -520 L 572.5 -487.2 L 547.8 -462.5 Z" fill="#da627d" stroke="black" stroke-width="3"></path><path d="M 532.5 -422.5 L 557.2 -422.5 L 612.5 -477.8 L 612.5 -502.5 L 587.8 -502.5 L 532.5 -447.2 Z" fill="#fca17d" stroke="black" stroke-width="3"></path><path d="M 497.5 -422.5 L 472.8 -422.5 L 417.5 -477.8 L 417.5 -502.5 L 442.2 -502.5 L 497.5 -447.2 Z" fill="#fca17d" stroke="black" stroke-width="3"></path><path d="M -217.2 647.5 L -199.7 630 L -217.2 612.5 L -272.5 612.5 L -272.5 557.2 L -290 539.7 L -307.5 557.2 L -307.5 612.5 L -362.8 612.5 L -380.3 630 L -362.8 647.5 L -307.5 647.5 L -307.5 702.8 L -290 720.3 L -272.5 702.8 L -272.5 647.5 L -217.2 647.5" fill="#f9dbbd" stroke="black" stroke-width="3"></path><path d="M -290 539.7 L -322.8 572.5 L -347.5 547.8 L -314.7 515 L -347.5 482.2 L -322.8 457.5 L -290 490.3 L -257.2 457.5 L -232.5 482.2 L -265.3 515 L -232.5 547.8 L -257.2 572.5 Z" fill="#da627d" stroke="black" stroke-width="3"></path><path d="M -272.5 612.5 L -247.8 612.5 L -192.5 557.2 L -192.5 532.5 L -217.2 532.5 L -272.5 587.8 Z" fill="#fca17d" stroke="black" stroke-width="3"></path><path d="M -307.5 612.5 L -332.2 612.5 L -387.5 557.2 L -387.5 532.5 L -362.8 532.5 L -307.5 587.8 Z" fill="#fca17d" stroke="black" stroke-width="3"></path><path d="M -102.2 532.5 L -84.7 515 L -102.2 497.5 L -157.5 497.5 L -157.5 442.2 L -175 424.7 L -192.5 442.2 L -192.5 497.5 L -247.8 497.5 L -265.3 515 L -247.8 532.5 L -192.5 532.5 L -192.5 587.8 L -175 605.3 L -157.5 587.8 L -157.5 532.5 L -102.2 532.5" fill="#f9dbbd" stroke="black" stroke-width="3"></path><path d="M -175 424.7 L -207.8 457.5 L -232.5 432.8 L -199.7 400 L -232.5 367.2 L -207.8 342.5 L -175 375.3 L -142.2 342.5 L -117.5 367.2 L -150.3 400 L -117.5 432.8 L -142.2 457.5 Z" fill="#da627d" stroke="black" stroke-width="3"></path><path d="M -157.5 497.5 L -132.8 497.5 L -77.5 442.2 L -77.5 417.5 L -102.2 417.5 L -157.5 472.8 Z" fill="#fca17d" stroke="black" stroke-width="3"></path><path d="M -192.5 497.5 L -217.2 497.5 L -272.5 442.2 L -272.5 417.5 L -247.8 417.5 L -192.5 472.8 Z" fill="#fca17d" stroke="black" stroke-width="3"></path><path d="M 12.8 417.5 L 30.3 400 L 12.8 382.5 L -42.5 382.5 L -42.5 327.2 L -60 309.7 L -77.5 327.2 L -77.5 382.5 L -132.8 382.5 L -150.3 400 L -132.8 417.5 L -77.5 417.5 L -77.5 472.8 L -60 490.3 L -42.5 472.8 L -42.5 417.5 L 12.8 417.5" fill="#f9dbbd" stroke="black" stroke-width="3"></path><path d="M -60 309.7 L -92.8 342.5 L -117.5 317.8 L -84.7 285 L -117.5 252.2 L -92.8 227.5 L -60 260.3 L -27.2 227.5 L -2.5 252.2 L -35.3 285 L -2.5 317.8 L -27.2 342.5 Z" fill="#da627d" stroke="black" stroke-width="3"></path><path d="M -42.5 382.5 L -17.8 382.5 L 37.5 327.2 L 37.5 302.5 L 12.8 302.5 L -42.5 357.8 Z" fill="#fca17d" stroke="black" stroke-width="3"></path><path d="M -77.5 382.5 L -102.2 382.5 L -157.5 327.2 L -157.5 302.5 L -132.8 302.5 L -77.5 357.8 Z" fill="#fca17d" stroke="black" stroke-width="3"></path><path d="M 127.8 302.5 L 145.3 285 L 127.8 267.5 L 72.5 267.5 L 72.5 212.2 L 55 194.7 L 37.5 212.2 L 37.5 267.5 L -17.8 267.5 L -35.3 285 L -17.8 302.5 L 37.5 302.5 L 37.5 357.8 L 55 375.3 L 72.5 357.8 L 72.5 302.5 L 127.8 302.5" fill="#f9dbbd" stroke="black" stroke-width="3"></path><path d="M 55 194.7 L 22.2 227.5 L -2.5 202.8 L 30.3 170 L -2.5 137.2 L 22.2 112.5 L 55 145.3 L 87.8 112.5 L 112.5 137.2 L 79.7 170 L 112.5 202.8 L 87.8 227.5 Z" fill="#da627d" stroke="black" stroke-width="3"></path><path d="M 72.5 267.5 L 97.2 267.5 L 152.5 212.2 L 152.5 187.5 L 127.8 187.5 L 72.5 242.8 Z" fill="#fca17d" stroke="black" stroke-width="3"></path><path d="M 37.5 267.5 L 12.8 267.5 L -42.5 212.2 L -42.5 187.5 L -17.8 187.5 L 37.5 242.8 Z" fill="#fca17d" stroke="black" stroke-width="3"></path><path d="M 242.8 187.5 L 260.3 170 L 242.8 152.5 L 187.5 152.5 L 187.5 97.2 L 170 79.7 L 152.5 97.2 L 152.5 152.5 L 97.2 152.5 L 79.7 170 L 97.2 187.5 L 152.5 187.5 L 152.5 242.8 L 170 260.3 L 187.5 242.8 L 187.5 187.5 L 242.8 187.5" fill="#f9dbbd" stroke="black" stroke-width="3"></path><path d="M 170 79.7 L 137.2 112.5 L 112.5 87.8 L 145.3 55 L 112.5 22.2 L 137.2 -2.5 L 170 30.3 L 202.8 -2.5 L 227.5 22.2 L 194.7 55 L 227.5 87.8 L 202.8 112.5 Z" fill="#da627d" stroke="black" stroke-width="3"></path><path d="M 187.5 152.5 L 212.2 152.5 L 267.5 97.2 L 267.5 72.5 L 242.8 72.5 L 187.5 127.8 Z" fill="#fca17d" stroke="black" stroke-width="3"></path><path d="M 152.5 152.5 L 127.8 152.5 L 72.5 97.2 L 72.5 72.5 L 97.2 72.5 L 152.5 127.8 Z" fill="#fca17d" stroke="black" stroke-width="3"></path><path d="M 357.8 72.5 L 375.3 55 L 357.8 37.5 L 302.5 37.5 L 302.5 -17.8 L 285 -35.3 L 267.5 -17.8 L 267.5 37.5 L 212.2 37.5 L 194.7 55 L 212.2 72.5 L 267.5 72.5 L 267.5 127.8 L 285 145.3 L 302.5 127.8 L 302.5 72.5 L 357.8 72.5" fill="#f9dbbd" stroke="black" stroke-width="3"></path><path d="M 285 -35.3 L 252.2 -2.5 L 227.5 -27.2 L 260.3 -60 L 227.5 -92.8 L 252.2 -117.5 L 285 -84.7 L 317.8 -117.5 L 342.5 -92.8 L 309.7 -60 L 342.5 -27.2 L 317.8 -2.5 Z" fill="#da627d" stroke="black" stroke-width="3"></path><path d="M 302.5 37.5 L 327.2 37.5 L 382.5 -17.8 L 382.5 -42.5 L 357.8 -42.5 L 302.5 12.8 Z" fill="#fca17d" stroke="black" stroke-width="3"></path><path d="M 267.5 37.5 L 242.8 37.5 L 187.5 -17.8 L 187.5 -42.5 L 212.2 -42.5 L 267.5 12.8 Z" fill="#fca17d" stroke="black" stroke-width="3"></path><path d="M 472.8 -42.5 L 490.3 -60 L 472.8 -77.5 L 417.5 -77.5 L 417.5 -132.8 L 400 -150.3 L 382.5 -132.8 L 382.5 -77.5 L 327.2 -77.5 L 309.7 -60 L 327.2 -42.5 L 382.5 -42.5 L 382.5 12.8 L 400 30.3 L 417.5 12.8 L 417.5 -42.5 L 472.8 -42.5" fill="#f9dbbd" stroke="black" stroke-width="3"></path><path d="M 400 -150.3 L 367.2 -117.5 L 342.5 -142.2 L 375.3 -175 L 342.5 -207.8 L 367.2 -232.5 L 400 -199.7 L 432.8 -232.5 L 457.5 -207.8 L 424.7 -175 L 457.5 -142.2 L 432.8 -117.5 Z" fill="#da627d" stroke="black" stroke-width="3"></path><path d="M 417.5 -77.5 L 442.2 -77.5 L 497.5 -132.8 L 497.5 -157.5 L 472.8 -157.5 L 417.5 -102.2 Z" fill="#fca17d" stroke="black" stroke-width="3"></path><path d="M 382.5 -77.5 L 357.8 -77.5 L 302.5 -132.8 L 302.5 -157.5 L 327.2 -157.5 L 382.5 -102.2 Z" fill="#fca17d" stroke="black" stroke-width="3"></path><path d="M 587.8 -157.5 L 605.3 -175 L 587.8 -192.5 L 532.5 -192.5 L 532.5 -247.8 L 515 -265.3 L 497.5 -247.8 L 497.5 -192.5 L 442.2 -192.5 L 424.7 -175 L 442.2 -157.5 L 497.5 -157.5 L 497.5 -102.2 L 515 -84.7 L 532.5 -102.2 L 532.5 -157.5 L 587.8 -157.5" fill="#f9dbbd" stroke="black" stroke-width="3"></path><path d="M 515 -265.3 L 482.2 -232.5 L 457.5 -257.2 L 490.3 -290 L 457.5 -322.8 L 482.2 -347.5 L 515 -314.7 L 547.8 -347.5 L 572.5 -322.8 L 539.7 -290 L 572.5 -257.2 L 547.8 -232.5 Z" fill="#da627d" stroke="black" stroke-width="3"></path><path d="M 532.5 -192.5 L 557.2 -192.5 L 612.5 -247.8 L 612.5 -272.5 L 587.8 -272.5 L 532.5 -217.2 Z" fill="#fca17d" stroke="black" stroke-width="3"></path><path d="M 497.5 -192.5 L 472.8 -192.5 L 417.5 -247.8 L 417.5 -272.5 L 442.2 -272.5 L 497.5 -217.2 Z" fill="#fca17d" stroke="black" stroke-width="3"></path><path d="M 702.8 -272.5 L 720.3 -290 L 702.8 -307.5 L 647.5 -307.5 L 647.5 -362.8 L 630 -380.3 L 612.5 -362.8 L 612.5 -307.5 L 557.2 -307.5 L 539.7 -290 L 557.2 -272.5 L 612.5 -272.5 L 612.5 -217.2 L 630 -199.7 L 647.5 -217.2 L 647.5 -272.5 L 702.8 -272.5" fill="#f9dbbd" stroke="black" stroke-width="3"></path><path d="M 630 -380.3 L 597.2 -347.5 L 572.5 -372.2 L 605.3 -405 L 572.5 -437.8 L 597.2 -462.5 L 630 -429.7 L 662.8 -462.5 L 687.5 -437.8 L 654.7 -405 L 687.5 -372.2 L 662.8 -347.5 Z" fill="#da627d" stroke="black" stroke-width="3"></path><path d="M 647.5 -307.5 L 672.2 -307.5 L 727.5 -362.8 L 727.5 -387.5 L 702.8 -387.5 L 647.5 -332.2 Z" fill="#fca17d" stroke="black" stroke-width="3"></path><path d="M 612.5 -307.5 L 587.8 -307.5 L 532.5 -362.8 L 532.5 -387.5 L 557.2 -387.5 L 612.5 -332.2 Z" fill="#fca17d" stroke="black" stroke-width="3"></path><path d="M -102.2 762.5 L -84.7 745 L -102.2 727.5 L -157.5 727.5 L -157.5 672.2 L -175 654.7 L -192.5 672.2 L -192.5 727.5 L -247.8 727.5 L -265.3 745 L -247.8 762.5 L -192.5 762.5 L -192.5 817.8 L -175 835.3 L -157.5 817.8 L -157.5 762.5 L -102.2 762.5" fill="#f9dbbd" stroke="black" stroke-width="3"></path><path d="M -175 654.7 L -207.8 687.5 L -232.5 662.8 L -199.7 630 L -232.5 597.2 L -207.8 572.5 L -175 605.3 L -142.2 572.5 L -117.5 597.2 L -150.3 630 L -117.5 662.8 L -142.2 687.5 Z" fill="#da627d" stroke="black" stroke-width="3"></path><path d="M -157.5 727.5 L -132.8 727.5 L -77.5 672.2 L -77.5 647.5 L -102.2 647.5 L -157.5 702.8 Z" fill="#fca17d" stroke="black" stroke-width="3"></path><path d="M -192.5 727.5 L -217.2 727.5 L -272.5 672.2 L -272.5 647.5 L -247.8 647.5 L -192.5 702.8 Z" fill="#fca17d" stroke="black" stroke-width="3"></path><path d="M 12.8 647.5 L 30.3 630 L 12.8 612.5 L -42.5 612.5 L -42.5 557.2 L -60 539.7 L -77.5 557.2 L -77.5 612.5 L -132.8 612.5 L -150.3 630 L -132.8 647.5 L -77.5 647.5 L -77.5 702.8 L -60 720.3 L -42.5 702.8 L -42.5 647.5 L 12.8 647.5" fill="#f9dbbd" stroke="black" stroke-width="3"></path><path d="M -60 539.7 L -92.8 572.5 L -117.5 547.8 L -84.7 515 L -117.5 482.2 L -92.8 457.5 L -60 490.3 L -27.2 457.5 L -2.5 482.2 L -35.3 515 L -2.5 547.8 L -27.2 572.5 Z" fill="#da627d" stroke="black" stroke-width="3"></path><path d="M -42.5 612.5 L -17.8 612.5 L 37.5 557.2 L 37.5 532.5 L 12.8 532.5 L -42.5 587.8 Z" fill="#fca17d" stroke="black" stroke-width="3"></path><path d="M -77.5 612.5 L -102.2 612.5 L -157.5 557.2 L -157.5 532.5 L -132.8 532.5 L -77.5 587.8 Z" fill="#fca17d" stroke="black" stroke-width="3"></path><path d="M 127.8 532.5 L 145.3 515 L 127.8 497.5 L 72.5 497.5 L 72.5 442.2 L 55 424.7 L 37.5 442.2 L 37.5 497.5 L -17.8 497.5 L -35.3 515 L -17.8 532.5 L 37.5 532.5 L 37.5 587.8 L 55 605.3 L 72.5 587.8 L 72.5 532.5 L 127.8 532.5" fill="#f9dbbd" stroke="black" stroke-width="3"></path><path d="M 55 424.7 L 22.2 457.5 L -2.5 432.8 L 30.3 400 L -2.5 367.2 L 22.2 342.5 L 55 375.3 L 87.8 342.5 L 112.5 367.2 L 79.7 400 L 112.5 432.8 L 87.8 457.5 Z" fill="#da627d" stroke="black" stroke-width="3"></path><path d="M 72.5 497.5 L 97.2 497.5 L 152.5 442.2 L 152.5 417.5 L 127.8 417.5 L 72.5 472.8 Z" fill="#fca17d" stroke="black" stroke-width="3"></path><path d="M 37.5 497.5 L 12.8 497.5 L -42.5 442.2 L -42.5 417.5 L -17.8 417.5 L 37.5 472.8 Z" fill="#fca17d" stroke="black" stroke-width="3"></path><path d="M 242.8 417.5 L 260.3 400 L 242.8 382.5 L 187.5 382.5 L 187.5 327.2 L 170 309.7 L 152.5 327.2 L 152.5 382.5 L 97.2 382.5 L 79.7 400 L 97.2 417.5 L 152.5 417.5 L 152.5 472.8 L 170 490.3 L 187.5 472.8 L 187.5 417.5 L 242.8 417.5" fill="#f9dbbd" stroke="black" stroke-width="3"></path><path d="M 170 309.7 L 137.2 342.5 L 112.5 317.8 L 145.3 285 L 112.5 252.2 L 137.2 227.5 L 170 260.3 L 202.8 227.5 L 227.5 252.2 L 194.7 285 L 227.5 317.8 L 202.8 342.5 Z" fill="#da627d" stroke="black" stroke-width="3"></path><path d="M 187.5 382.5 L 212.2 382.5 L 267.5 327.2 L 267.5 302.5 L 242.8 302.5 L 187.5 357.8 Z" fill="#fca17d" stroke="black" stroke-width="3"></path><path d="M 152.5 382.5 L 127.8 382.5 L 72.5 327.2 L 72.5 302.5 L 97.2 302.5 L 152.5 357.8 Z" fill="#fca17d" stroke="black" stroke-width="3"></path><path d="M 357.8 302.5 L 375.3 285 L 357.8 267.5 L 302.5 267.5 L 302.5 212.2 L 285 194.7 L 267.5 212.2 L 267.5 267.5 L 212.2 267.5 L 194.7 285 L 212.2 302.5 L 267.5 302.5 L 267.5 357.8 L 285 375.3 L 302.5 357.8 L 302.5 302.5 L 357.8 302.5" fill="#f9dbbd" stroke="black" stroke-width="3"></path><path d="M 285 194.7 L 252.2 227.5 L 227.5 202.8 L 260.3 170 L 227.5 137.2 L 252.2 112.5 L 285 145.3 L 317.8 112.5 L 342.5 137.2 L 309.7 170 L 342.5 202.8 L 317.8 227.5 Z" fill="#da627d" stroke="black" stroke-width="3"></path><path d="M 302.5 267.5 L 327.2 267.5 L 382.5 212.2 L 382.5 187.5 L 357.8 187.5 L 302.5 242.8 Z" fill="#fca17d" stroke="black" stroke-width="3"></path><path d="M 267.5 267.5 L 242.8 267.5 L 187.5 212.2 L 187.5 187.5 L 212.2 187.5 L 267.5 242.8 Z" fill="#fca17d" stroke="black" stroke-width="3"></path><path d="M 472.8 187.5 L 490.3 170 L 472.8 152.5 L 417.5 152.5 L 417.5 97.2 L 400 79.7 L 382.5 97.2 L 382.5 152.5 L 327.2 152.5 L 309.7 170 L 327.2 187.5 L 382.5 187.5 L 382.5 242.8 L 400 260.3 L 417.5 242.8 L 417.5 187.5 L 472.8 187.5" fill="#f9dbbd" stroke="black" stroke-width="3"></path><path d="M 400 79.7 L 367.2 112.5 L 342.5 87.8 L 375.3 55 L 342.5 22.2 L 367.2 -2.5 L 400 30.3 L 432.8 -2.5 L 457.5 22.2 L 424.7 55 L 457.5 87.8 L 432.8 112.5 Z" fill="#da627d" stroke="black" stroke-width="3"></path><path d="M 417.5 152.5 L 442.2 152.5 L 497.5 97.2 L 497.5 72.5 L 472.8 72.5 L 417.5 127.8 Z" fill="#fca17d" stroke="black" stroke-width="3"></path><path d="M 382.5 152.5 L 357.8 152.5 L 302.5 97.2 L 302.5 72.5 L 327.2 72.5 L 382.5 127.8 Z" fill="#fca17d" stroke="black" stroke-width="3"></path><path d="M 587.8 72.5 L 605.3 55 L 587.8 37.5 L 532.5 37.5 L 532.5 -17.8 L 515 -35.3 L 497.5 -17.8 L 497.5 37.5 L 442.2 37.5 L 424.7 55 L 442.2 72.5 L 497.5 72.5 L 497.5 127.8 L 515 145.3 L 532.5 127.8 L 532.5 72.5 L 587.8 72.5" fill="#f9dbbd" stroke="black" stroke-width="3"></path><path d="M 515 -35.3 L 482.2 -2.5 L 457.5 -27.2 L 490.3 -60 L 457.5 -92.8 L 482.2 -117.5 L 515 -84.7 L 547.8 -117.5 L 572.5 -92.8 L 539.7 -60 L 572.5 -27.2 L 547.8 -2.5 Z" fill="#da627d" stroke="black" stroke-width="3"></path><path d="M 532.5 37.5 L 557.2 37.5 L 612.5 -17.8 L 612.5 -42.5 L 587.8 -42.5 L 532.5 12.8 Z" fill="#fca17d" stroke="black" stroke-width="3"></path><path d="M 497.5 37.5 L 472.8 37.5 L 417.5 -17.8 L 417.5 -42.5 L 442.2 -42.5 L 497.5 12.8 Z" fill="#fca17d" stroke="black" stroke-width="3"></path><path d="M 702.8 -42.5 L 720.3 -60 L 702.8 -77.5 L 647.5 -77.5 L 647.5 -132.8 L 630 -150.3 L 612.5 -132.8 L 612.5 -77.5 L 557.2 -77.5 L 539.7 -60 L 557.2 -42.5 L 612.5 -42.5 L 612.5 12.8 L 630 30.3 L 647.5 12.8 L 647.5 -42.5 L 702.8 -42.5" fill="#f9dbbd" stroke="black" stroke-width="3"></path><path d="M 630 -150.3 L 597.2 -117.5 L 572.5 -142.2 L 605.3 -175 L 572.5 -207.8 L 597.2 -232.5 L 630 -199.7 L 662.8 -232.5 L 687.5 -207.8 L 654.7 -175 L 687.5 -142.2 L 662.8 -117.5 Z" fill="#da627d" stroke="black" stroke-width="3"></path><path d="M 647.5 -77.5 L 672.2 -77.5 L 727.5 -132.8 L 727.5 -157.5 L 702.8 -157.5 L 647.5 -102.2 Z" fill="#fca17d" stroke="black" stroke-width="3"></path><path d="M 612.5 -77.5 L 587.8 -77.5 L 532.5 -132.8 L 532.5 -157.5 L 557.2 -157.5 L 612.5 -102.2 Z" fill="#fca17d" stroke="black" stroke-width="3"></path><path d="M 817.8 -157.5 L 835.3 -175 L 817.8 -192.5 L 762.5 -192.5 L 762.5 -247.8 L 745 -265.3 L 727.5 -247.8 L 727.5 -192.5 L 672.2 -192.5 L 654.7 -175 L 672.2 -157.5 L 727.5 -157.5 L 727.5 -102.2 L 745 -84.7 L 762.5 -102.2 L 762.5 -157.5 L 817.8 -157.5" fill="#f9dbbd" stroke="black" stroke-width="3"></path><path d="M 745 -265.3 L 712.2 -232.5 L 687.5 -257.2 L 720.3 -290 L 687.5 -322.8 L 712.2 -347.5 L 745 -314.7 L 777.8 -347.5 L 802.5 -322.8 L 769.7 -290 L 802.5 -257.2 L 777.8 -232.5 Z" fill="#da627d" stroke="black" stroke-width="3"></path><path d="M 762.5 -192.5 L 787.2 -192.5 L 842.5 -247.8 L 842.5 -272.5 L 817.8 -272.5 L 762.5 -217.2 Z" fill="#fca17d" stroke="black" stroke-width="3"></path><path d="M 727.5 -192.5 L 702.8 -192.5 L 647.5 -247.8 L 647.5 -272.5 L 672.2 -272.5 L 727.5 -217.2 Z" fill="#fca17d" stroke="black" stroke-width="3"></path><path d="M 12.8 877.5 L 30.3 860 L 12.8 842.5 L -42.5 842.5 L -42.5 787.2 L -60 769.7 L -77.5 787.2 L -77.5 842.5 L -132.8 842.5 L -150.3 860 L -132.8 877.5 L -77.5 877.5 L -77.5 932.8 L -60 950.3 L -42.5 932.8 L -42.5 877.5 L 12.8 877.5" fill="#f9dbbd" stroke="black" stroke-width="3"></path><path d="M -60 769.7 L -92.8 802.5 L -117.5 777.8 L -84.7 745 L -117.5 712.2 L -92.8 687.5 L -60 720.3 L -27.2 687.5 L -2.5 712.2 L -35.3 745 L -2.5 777.8 L -27.2 802.5 Z" fill="#da627d" stroke="black" stroke-width="3"></path><path d="M -42.5 842.5 L -17.8 842.5 L 37.5 787.2 L 37.5 762.5 L 12.8 762.5 L -42.5 817.8 Z" fill="#fca17d" stroke="black" stroke-width="3"></path><path d="M -77.5 842.5 L -102.2 842.5 L -157.5 787.2 L -157.5 762.5 L -132.8 762.5 L -77.5 817.8 Z" fill="#fca17d" stroke="black" stroke-width="3"></path><path d="M 127.8 762.5 L 145.3 745 L 127.8 727.5 L 72.5 727.5 L 72.5 672.2 L 55 654.7 L 37.5 672.2 L 37.5 727.5 L -17.8 727.5 L -35.3 745 L -17.8 762.5 L 37.5 762.5 L 37.5 817.8 L 55 835.3 L 72.5 817.8 L 72.5 762.5 L 127.8 762.5" fill="#f9dbbd" stroke="black" stroke-width="3"></path><path d="M 55 654.7 L 22.2 687.5 L -2.5 662.8 L 30.3 630 L -2.5 597.2 L 22.2 572.5 L 55 605.3 L 87.8 572.5 L 112.5 597.2 L 79.7 630 L 112.5 662.8 L 87.8 687.5 Z" fill="#da627d" stroke="black" stroke-width="3"></path><path d="M 72.5 727.5 L 97.2 727.5 L 152.5 672.2 L 152.5 647.5 L 127.8 647.5 L 72.5 702.8 Z" fill="#fca17d" stroke="black" stroke-width="3"></path><path d="M 37.5 727.5 L 12.8 727.5 L -42.5 672.2 L -42.5 647.5 L -17.8 647.5 L 37.5 702.8 Z" fill="#fca17d" stroke="black" stroke-width="3"></path><path d="M 242.8 647.5 L 260.3 630 L 242.8 612.5 L 187.5 612.5 L 187.5 557.2 L 170 539.7 L 152.5 557.2 L 152.5 612.5 L 97.2 612.5 L 79.7 630 L 97.2 647.5 L 152.5 647.5 L 152.5 702.8 L 170 720.3 L 187.5 702.8 L 187.5 647.5 L 242.8 647.5" fill="#f9dbbd" stroke="black" stroke-width="3"></path><path d="M 170 539.7 L 137.2 572.5 L 112.5 547.8 L 145.3 515 L 112.5 482.2 L 137.2 457.5 L 170 490.3 L 202.8 457.5 L 227.5 482.2 L 194.7 515 L 227.5 547.8 L 202.8 572.5 Z" fill="#da627d" stroke="black" stroke-width="3"></path><path d="M 187.5 612.5 L 212.2 612.5 L 267.5 557.2 L 267.5 532.5 L 242.8 532.5 L 187.5 587.8 Z" fill="#fca17d" stroke="black" stroke-width="3"></path><path d="M 152.5 612.5 L 127.8 612.5 L 72.5 557.2 L 72.5 532.5 L 97.2 532.5 L 152.5 587.8 Z" fill="#fca17d" stroke="black" stroke-width="3"></path><path d="M 357.8 532.5 L 375.3 515 L 357.8 497.5 L 302.5 497.5 L 302.5 442.2 L 285 424.7 L 267.5 442.2 L 267.5 497.5 L 212.2 497.5 L 194.7 515 L 212.2 532.5 L 267.5 532.5 L 267.5 587.8 L 285 605.3 L 302.5 587.8 L 302.5 532.5 L 357.8 532.5" fill="#f9dbbd" stroke="black" stroke-width="3"></path><path d="M 285 424.7 L 252.2 457.5 L 227.5 432.8 L 260.3 400 L 227.5 367.2 L 252.2 342.5 L 285 375.3 L 317.8 342.5 L 342.5 367.2 L 309.7 400 L 342.5 432.8 L 317.8 457.5 Z" fill="#da627d" stroke="black" stroke-width="3"></path><path d="M 302.5 497.5 L 327.2 497.5 L 382.5 442.2 L 382.5 417.5 L 357.8 417.5 L 302.5 472.8 Z" fill="#fca17d" stroke="black" stroke-width="3"></path><path d="M 267.5 497.5 L 242.8 497.5 L 187.5 442.2 L 187.5 417.5 L 212.2 417.5 L 267.5 472.8 Z" fill="#fca17d" stroke="black" stroke-width="3"></path><path d="M 472.8 417.5 L 490.3 400 L 472.8 382.5 L 417.5 382.5 L 417.5 327.2 L 400 309.7 L 382.5 327.2 L 382.5 382.5 L 327.2 382.5 L 309.7 400 L 327.2 417.5 L 382.5 417.5 L 382.5 472.8 L 400 490.3 L 417.5 472.8 L 417.5 417.5 L 472.8 417.5" fill="#f9dbbd" stroke="black" stroke-width="3"></path><path d="M 400 309.7 L 367.2 342.5 L 342.5 317.8 L 375.3 285 L 342.5 252.2 L 367.2 227.5 L 400 260.3 L 432.8 227.5 L 457.5 252.2 L 424.7 285 L 457.5 317.8 L 432.8 342.5 Z" fill="#da627d" stroke="black" stroke-width="3"></path><path d="M 417.5 382.5 L 442.2 382.5 L 497.5 327.2 L 497.5 302.5 L 472.8 302.5 L 417.5 357.8 Z" fill="#fca17d" stroke="black" stroke-width="3"></path><path d="M 382.5 382.5 L 357.8 382.5 L 302.5 327.2 L 302.5 302.5 L 327.2 302.5 L 382.5 357.8 Z" fill="#fca17d" stroke="black" stroke-width="3"></path><path d="M 587.8 302.5 L 605.3 285 L 587.8 267.5 L 532.5 267.5 L 532.5 212.2 L 515 194.7 L 497.5 212.2 L 497.5 267.5 L 442.2 267.5 L 424.7 285 L 442.2 302.5 L 497.5 302.5 L 497.5 357.8 L 515 375.3 L 532.5 357.8 L 532.5 302.5 L 587.8 302.5" fill="#f9dbbd" stroke="black" stroke-width="3"></path><path d="M 515 194.7 L 482.2 227.5 L 457.5 202.8 L 490.3 170 L 457.5 137.2 L 482.2 112.5 L 515 145.3 L 547.8 112.5 L 572.5 137.2 L 539.7 170 L 572.5 202.8 L 547.8 227.5 Z" fill="#da627d" stroke="black" stroke-width="3"></path><path d="M 532.5 267.5 L 557.2 267.5 L 612.5 212.2 L 612.5 187.5 L 587.8 187.5 L 532.5 242.8 Z" fill="#fca17d" stroke="black" stroke-width="3"></path><path d="M 497.5 267.5 L 472.8 267.5 L 417.5 212.2 L 417.5 187.5 L 442.2 187.5 L 497.5 242.8 Z" fill="#fca17d" stroke="black" stroke-width="3"></path><path d="M 702.8 187.5 L 720.3 170 L 702.8 152.5 L 647.5 152.5 L 647.5 97.2 L 630 79.7 L 612.5 97.2 L 612.5 152.5 L 557.2 152.5 L 539.7 170 L 557.2 187.5 L 612.5 187.5 L 612.5 242.8 L 630 260.3 L 647.5 242.8 L 647.5 187.5 L 702.8 187.5" fill="#f9dbbd" stroke="black" stroke-width="3"></path><path d="M 630 79.7 L 597.2 112.5 L 572.5 87.8 L 605.3 55 L 572.5 22.2 L 597.2 -2.5 L 630 30.3 L 662.8 -2.5 L 687.5 22.2 L 654.7 55 L 687.5 87.8 L 662.8 112.5 Z" fill="#da627d" stroke="black" stroke-width="3"></path><path d="M 647.5 152.5 L 672.2 152.5 L 727.5 97.2 L 727.5 72.5 L 702.8 72.5 L 647.5 127.8 Z" fill="#fca17d" stroke="black" stroke-width="3"></path><path d="M 612.5 152.5 L 587.8 152.5 L 532.5 97.2 L 532.5 72.5 L 557.2 72.5 L 612.5 127.8 Z" fill="#fca17d" stroke="black" stroke-width="3"></path><path d="M 817.8 72.5 L 835.3 55 L 817.8 37.5 L 762.5 37.5 L 762.5 -17.8 L 745 -35.3 L 727.5 -17.8 L 727.5 37.5 L 672.2 37.5 L 654.7 55 L 672.2 72.5 L 727.5 72.5 L 727.5 127.8 L 745 145.3 L 762.5 127.8 L 762.5 72.5 L 817.8 72.5" fill="#f9dbbd" stroke="black" stroke-width="3"></path><path d="M 745 -35.3 L 712.2 -2.5 L 687.5 -27.2 L 720.3 -60 L 687.5 -92.8 L 712.2 -117.5 L 745 -84.7 L 777.8 -117.5 L 802.5 -92.8 L 769.7 -60 L 802.5 -27.2 L 777.8 -2.5 Z" fill="#da627d" stroke="black" stroke-width="3"></path><path d="M 762.5 37.5 L 787.2 37.5 L 842.5 -17.8 L 842.5 -42.5 L 817.8 -42.5 L 762.5 12.8 Z" fill="#fca17d" stroke="black" stroke-width="3"></path><path d="M 727.5 37.5 L 702.8 37.5 L 647.5 -17.8 L 647.5 -42.5 L 672.2 -42.5 L 727.5 12.8 Z" fill="#fca17d" stroke="black" stroke-width="3"></path><path d="M 932.8 -42.5 L 950.3 -60 L 932.8 -77.5 L 877.5 -77.5 L 877.5 -132.8 L 860 -150.3 L 842.5 -132.8 L 842.5 -77.5 L 787.2 -77.5 L 769.7 -60 L 787.2 -42.5 L 842.5 -42.5 L 842.5 12.8 L 860 30.3 L 877.5 12.8 L 877.5 -42.5 L 932.8 -42.5" fill="#f9dbbd" stroke="black" stroke-width="3"></path><path d="M 860 -150.3 L 827.2 -117.5 L 802.5 -142.2 L 835.3 -175 L 802.5 -207.8 L 827.2 -232.5 L 860 -199.7 L 892.8 -232.5 L 917.5 -207.8 L 884.7 -175 L 917.5 -142.2 L 892.8 -117.5 Z" fill="#da627d" stroke="black" stroke-width="3"></path><path d="M 877.5 -77.5 L 902.2 -77.5 L 957.5 -132.8 L 957.5 -157.5 L 932.8 -157.5 L 877.5 -102.2 Z" fill="#fca17d" stroke="black" stroke-width="3"></path><path d="M 842.5 -77.5 L 817.8 -77.5 L 762.5 -132.8 L 762.5 -157.5 L 787.2 -157.5 L 842.5 -102.2 Z" fill="#fca17d" stroke="black" stroke-width="3"></path><path d="M 127.8 992.5 L 145.3 975 L 127.8 957.5 L 72.5 957.5 L 72.5 902.2 L 55 884.7 L 37.5 902.2 L 37.5 957.5 L -17.8 957.5 L -35.3 975 L -17.8 992.5 L 37.5 992.5 L 37.5 1047.8 L 55 1065.3 L 72.5 1047.8 L 72.5 992.5 L 127.8 992.5" fill="#f9dbbd" stroke="black" stroke-width="3"></path><path d="M 55 884.7 L 22.2 917.5 L -2.5 892.8 L 30.3 860 L -2.5 827.2 L 22.2 802.5 L 55 835.3 L 87.8 802.5 L 112.5 827.2 L 79.7 860 L 112.5 892.8 L 87.8 917.5 Z" fill="#da627d" stroke="black" stroke-width="3"></path><path d="M 72.5 957.5 L 97.2 957.5 L 152.5 902.2 L 152.5 877.5 L 127.8 877.5 L 72.5 932.8 Z" fill="#fca17d" stroke="black" stroke-width="3"></path><path d="M 37.5 957.5 L 12.8 957.5 L -42.5 902.2 L -42.5 877.5 L -17.8 877.5 L 37.5 932.8 Z" fill="#fca17d" stroke="black" stroke-width="3"></path><path d="M 242.8 877.5 L 260.3 860 L 242.8 842.5 L 187.5 842.5 L 187.5 787.2 L 170 769.7 L 152.5 787.2 L 152.5 842.5 L 97.2 842.5 L 79.7 860 L 97.2 877.5 L 152.5 877.5 L 152.5 932.8 L 170 950.3 L 187.5 932.8 L 187.5 877.5 L 242.8 877.5" fill="#f9dbbd" stroke="black" stroke-width="3"></path><path d="M 170 769.7 L 137.2 802.5 L 112.5 777.8 L 145.3 745 L 112.5 712.2 L 137.2 687.5 L 170 720.3 L 202.8 687.5 L 227.5 712.2 L 194.7 745 L 227.5 777.8 L 202.8 802.5 Z" fill="#da627d" stroke="black" stroke-width="3"></path><path d="M 187.5 842.5 L 212.2 842.5 L 267.5 787.2 L 267.5 762.5 L 242.8 762.5 L 187.5 817.8 Z" fill="#fca17d" stroke="black" stroke-width="3"></path><path d="M 152.5 842.5 L 127.8 842.5 L 72.5 787.2 L 72.5 762.5 L 97.2 762.5 L 152.5 817.8 Z" fill="#fca17d" stroke="black" stroke-width="3"></path><path d="M 357.8 762.5 L 375.3 745 L 357.8 727.5 L 302.5 727.5 L 302.5 672.2 L 285 654.7 L 267.5 672.2 L 267.5 727.5 L 212.2 727.5 L 194.7 745 L 212.2 762.5 L 267.5 762.5 L 267.5 817.8 L 285 835.3 L 302.5 817.8 L 302.5 762.5 L 357.8 762.5" fill="#f9dbbd" stroke="black" stroke-width="3"></path><path d="M 285 654.7 L 252.2 687.5 L 227.5 662.8 L 260.3 630 L 227.5 597.2 L 252.2 572.5 L 285 605.3 L 317.8 572.5 L 342.5 597.2 L 309.7 630 L 342.5 662.8 L 317.8 687.5 Z" fill="#da627d" stroke="black" stroke-width="3"></path><path d="M 302.5 727.5 L 327.2 727.5 L 382.5 672.2 L 382.5 647.5 L 357.8 647.5 L 302.5 702.8 Z" fill="#fca17d" stroke="black" stroke-width="3"></path><path d="M 267.5 727.5 L 242.8 727.5 L 187.5 672.2 L 187.5 647.5 L 212.2 647.5 L 267.5 702.8 Z" fill="#fca17d" stroke="black" stroke-width="3"></path><path d="M 472.8 647.5 L 490.3 630 L 472.8 612.5 L 417.5 612.5 L 417.5 557.2 L 400 539.7 L 382.5 557.2 L 382.5 612.5 L 327.2 612.5 L 309.7 630 L 327.2 647.5 L 382.5 647.5 L 382.5 702.8 L 400 720.3 L 417.5 702.8 L 417.5 647.5 L 472.8 647.5" fill="#f9dbbd" stroke="black" stroke-width="3"></path><path d="M 400 539.7 L 367.2 572.5 L 342.5 547.8 L 375.3 515 L 342.5 482.2 L 367.2 457.5 L 400 490.3 L 432.8 457.5 L 457.5 482.2 L 424.7 515 L 457.5 547.8 L 432.8 572.5 Z" fill="#da627d" stroke="black" stroke-width="3"></path><path d="M 417.5 612.5 L 442.2 612.5 L 497.5 557.2 L 497.5 532.5 L 472.8 532.5 L 417.5 587.8 Z" fill="#fca17d" stroke="black" stroke-width="3"></path><path d="M 382.5 612.5 L 357.8 612.5 L 302.5 557.2 L 302.5 532.5 L 327.2 532.5 L 382.5 587.8 Z" fill="#fca17d" stroke="black" stroke-width="3"></path><path d="M 587.8 532.5 L 605.3 515 L 587.8 497.5 L 532.5 497.5 L 532.5 442.2 L 515 424.7 L 497.5 442.2 L 497.5 497.5 L 442.2 497.5 L 424.7 515 L 442.2 532.5 L 497.5 532.5 L 497.5 587.8 L 515 605.3 L 532.5 587.8 L 532.5 532.5 L 587.8 532.5" fill="#f9dbbd" stroke="black" stroke-width="3"></path><path d="M 515 424.7 L 482.2 457.5 L 457.5 432.8 L 490.3 400 L 457.5 367.2 L 482.2 342.5 L 515 375.3 L 547.8 342.5 L 572.5 367.2 L 539.7 400 L 572.5 432.8 L 547.8 457.5 Z" fill="#da627d" stroke="black" stroke-width="3"></path><path d="M 532.5 497.5 L 557.2 497.5 L 612.5 442.2 L 612.5 417.5 L 587.8 417.5 L 532.5 472.8 Z" fill="#fca17d" stroke="black" stroke-width="3"></path><path d="M 497.5 497.5 L 472.8 497.5 L 417.5 442.2 L 417.5 417.5 L 442.2 417.5 L 497.5 472.8 Z" fill="#fca17d" stroke="black" stroke-width="3"></path><path d="M 702.8 417.5 L 720.3 400 L 702.8 382.5 L 647.5 382.5 L 647.5 327.2 L 630 309.7 L 612.5 327.2 L 612.5 382.5 L 557.2 382.5 L 539.7 400 L 557.2 417.5 L 612.5 417.5 L 612.5 472.8 L 630 490.3 L 647.5 472.8 L 647.5 417.5 L 702.8 417.5" fill="#f9dbbd" stroke="black" stroke-width="3"></path><path d="M 630 309.7 L 597.2 342.5 L 572.5 317.8 L 605.3 285 L 572.5 252.2 L 597.2 227.5 L 630 260.3 L 662.8 227.5 L 687.5 252.2 L 654.7 285 L 687.5 317.8 L 662.8 342.5 Z" fill="#da627d" stroke="black" stroke-width="3"></path><path d="M 647.5 382.5 L 672.2 382.5 L 727.5 327.2 L 727.5 302.5 L 702.8 302.5 L 647.5 357.8 Z" fill="#fca17d" stroke="black" stroke-width="3"></path><path d="M 612.5 382.5 L 587.8 382.5 L 532.5 327.2 L 532.5 302.5 L 557.2 302.5 L 612.5 357.8 Z" fill="#fca17d" stroke="black" stroke-width="3"></path><path d="M 817.8 302.5 L 835.3 285 L 817.8 267.5 L 762.5 267.5 L 762.5 212.2 L 745 194.7 L 727.5 212.2 L 727.5 267.5 L 672.2 267.5 L 654.7 285 L 672.2 302.5 L 727.5 302.5 L 727.5 357.8 L 745 375.3 L 762.5 357.8 L 762.5 302.5 L 817.8 302.5" fill="#f9dbbd" stroke="black" stroke-width="3"></path><path d="M 745 194.7 L 712.2 227.5 L 687.5 202.8 L 720.3 170 L 687.5 137.2 L 712.2 112.5 L 745 145.3 L 777.8 112.5 L 802.5 137.2 L 769.7 170 L 802.5 202.8 L 777.8 227.5 Z" fill="#da627d" stroke="black" stroke-width="3"></path><path d="M 762.5 267.5 L 787.2 267.5 L 842.5 212.2 L 842.5 187.5 L 817.8 187.5 L 762.5 242.8 Z" fill="#fca17d" stroke="black" stroke-width="3"></path><path d="M 727.5 267.5 L 702.8 267.5 L 647.5 212.2 L 647.5 187.5 L 672.2 187.5 L 727.5 242.8 Z" fill="#fca17d" stroke="black" stroke-width="3"></path><path d="M 932.8 187.5 L 950.3 170 L 932.8 152.5 L 877.5 152.5 L 877.5 97.2 L 860 79.7 L 842.5 97.2 L 842.5 152.5 L 787.2 152.5 L 769.7 170 L 787.2 187.5 L 842.5 187.5 L 842.5 242.8 L 860 260.3 L 877.5 242.8 L 877.5 187.5 L 932.8 187.5" fill="#f9dbbd" stroke="black" stroke-width="3"></path><path d="M 860 79.7 L 827.2 112.5 L 802.5 87.8 L 835.3 55 L 802.5 22.2 L 827.2 -2.5 L 860 30.3 L 892.8 -2.5 L 917.5 22.2 L 884.7 55 L 917.5 87.8 L 892.8 112.5 Z" fill="#da627d" stroke="black" stroke-width="3"></path><path d="M 877.5 152.5 L 902.2 152.5 L 957.5 97.2 L 957.5 72.5 L 932.8 72.5 L 877.5 127.8 Z" fill="#fca17d" stroke="black" stroke-width="3"></path><path d="M 842.5 152.5 L 817.8 152.5 L 762.5 97.2 L 762.5 72.5 L 787.2 72.5 L 842.5 127.8 Z" fill="#fca17d" stroke="black" stroke-width="3"></path><path d="M 1047.8 72.5 L 1065.3 55 L 1047.8 37.5 L 992.5 37.5 L 992.5 -17.8 L 975 -35.3 L 957.5 -17.8 L 957.5 37.5 L 902.2 37.5 L 884.7 55 L 902.2 72.5 L 957.5 72.5 L 957.5 127.8 L 975 145.3 L 992.5 127.8 L 992.5 72.5 L 1047.8 72.5" fill="#f9dbbd" stroke="black" stroke-width="3"></path><path d="M 975 -35.3 L 942.2 -2.5 L 917.5 -27.2 L 950.3 -60 L 917.5 -92.8 L 942.2 -117.5 L 975 -84.7 L 1007.8 -117.5 L 1032.5 -92.8 L 999.7 -60 L 1032.5 -27.2 L 1007.8 -2.5 Z" fill="#da627d" stroke="black" stroke-width="3"></path><path d="M 992.5 37.5 L 1017.2 37.5 L 1072.5 -17.8 L 1072.5 -42.5 L 1047.8 -42.5 L 992.5 12.8 Z" fill="#fca17d" stroke="black" stroke-width="3"></path><path d="M 957.5 37.5 L 932.8 37.5 L 877.5 -17.8 L 877.5 -42.5 L 902.2 -42.5 L 957.5 12.8 Z" fill="#fca17d" stroke="black" stroke-width="3"></path><path d="M 242.8 1107.5 L 260.3 1090 L 242.8 1072.5 L 187.5 1072.5 L 187.5 1017.2 L 170 999.7 L 152.5 1017.2 L 152.5 1072.5 L 97.2 1072.5 L 79.7 1090 L 97.2 1107.5 L 152.5 1107.5 L 152.5 1162.8 L 170 1180.3 L 187.5 1162.8 L 187.5 1107.5 L 242.8 1107.5" fill="#f9dbbd" stroke="black" stroke-width="3"></path><path d="M 170 999.7 L 137.2 1032.5 L 112.5 1007.8 L 145.3 975 L 112.5 942.2 L 137.2 917.5 L 170 950.3 L 202.8 917.5 L 227.5 942.2 L 194.7 975 L 227.5 1007.8 L 202.8 1032.5 Z" fill="#da627d" stroke="black" stroke-width="3"></path><path d="M 187.5 1072.5 L 212.2 1072.5 L 267.5 1017.2 L 267.5 992.5 L 242.8 992.5 L 187.5 1047.8 Z" fill="#fca17d" stroke="black" stroke-width="3"></path><path d="M 152.5 1072.5 L 127.8 1072.5 L 72.5 1017.2 L 72.5 992.5 L 97.2 992.5 L 152.5 1047.8 Z" fill="#fca17d" stroke="black" stroke-width="3"></path><path d="M 357.8 992.5 L 375.3 975 L 357.8 957.5 L 302.5 957.5 L 302.5 902.2 L 285 884.7 L 267.5 902.2 L 267.5 957.5 L 212.2 957.5 L 194.7 975 L 212.2 992.5 L 267.5 992.5 L 267.5 1047.8 L 285 1065.3 L 302.5 1047.8 L 302.5 992.5 L 357.8 992.5" fill="#f9dbbd" stroke="black" stroke-width="3"></path><path d="M 285 884.7 L 252.2 917.5 L 227.5 892.8 L 260.3 860 L 227.5 827.2 L 252.2 802.5 L 285 835.3 L 317.8 802.5 L 342.5 827.2 L 309.7 860 L 342.5 892.8 L 317.8 917.5 Z" fill="#da627d" stroke="black" stroke-width="3"></path><path d="M 302.5 957.5 L 327.2 957.5 L 382.5 902.2 L 382.5 877.5 L 357.8 877.5 L 302.5 932.8 Z" fill="#fca17d" stroke="black" stroke-width="3"></path><path d="M 267.5 957.5 L 242.8 957.5 L 187.5 902.2 L 187.5 877.5 L 212.2 877.5 L 267.5 932.8 Z" fill="#fca17d" stroke="black" stroke-width="3"></path><path d="M 472.8 877.5 L 490.3 860 L 472.8 842.5 L 417.5 842.5 L 417.5 787.2 L 400 769.7 L 382.5 787.2 L 382.5 842.5 L 327.2 842.5 L 309.7 860 L 327.2 877.5 L 382.5 877.5 L 382.5 932.8 L 400 950.3 L 417.5 932.8 L 417.5 877.5 L 472.8 877.5" fill="#f9dbbd" stroke="black" stroke-width="3"></path><path d="M 400 769.7 L 367.2 802.5 L 342.5 777.8 L 375.3 745 L 342.5 712.2 L 367.2 687.5 L 400 720.3 L 432.8 687.5 L 457.5 712.2 L 424.7 745 L 457.5 777.8 L 432.8 802.5 Z" fill="#da627d" stroke="black" stroke-width="3"></path><path d="M 417.5 842.5 L 442.2 842.5 L 497.5 787.2 L 497.5 762.5 L 472.8 762.5 L 417.5 817.8 Z" fill="#fca17d" stroke="black" stroke-width="3"></path><path d="M 382.5 842.5 L 357.8 842.5 L 302.5 787.2 L 302.5 762.5 L 327.2 762.5 L 382.5 817.8 Z" fill="#fca17d" stroke="black" stroke-width="3"></path><path d="M 587.8 762.5 L 605.3 745 L 587.8 727.5 L 532.5 727.5 L 532.5 672.2 L 515 654.7 L 497.5 672.2 L 497.5 727.5 L 442.2 727.5 L 424.7 745 L 442.2 762.5 L 497.5 762.5 L 497.5 817.8 L 515 835.3 L 532.5 817.8 L 532.5 762.5 L 587.8 762.5" fill="#f9dbbd" stroke="black" stroke-width="3"></path><path d="M 515 654.7 L 482.2 687.5 L 457.5 662.8 L 490.3 630 L 457.5 597.2 L 482.2 572.5 L 515 605.3 L 547.8 572.5 L 572.5 597.2 L 539.7 630 L 572.5 662.8 L 547.8 687.5 Z" fill="#da627d" stroke="black" stroke-width="3"></path><path d="M 532.5 727.5 L 557.2 727.5 L 612.5 672.2 L 612.5 647.5 L 587.8 647.5 L 532.5 702.8 Z" fill="#fca17d" stroke="black" stroke-width="3"></path><path d="M 497.5 727.5 L 472.8 727.5 L 417.5 672.2 L 417.5 647.5 L 442.2 647.5 L 497.5 702.8 Z" fill="#fca17d" stroke="black" stroke-width="3"></path><path d="M 702.8 647.5 L 720.3 630 L 702.8 612.5 L 647.5 612.5 L 647.5 557.2 L 630 539.7 L 612.5 557.2 L 612.5 612.5 L 557.2 612.5 L 539.7 630 L 557.2 647.5 L 612.5 647.5 L 612.5 702.8 L 630 720.3 L 647.5 702.8 L 647.5 647.5 L 702.8 647.5" fill="#f9dbbd" stroke="black" stroke-width="3"></path><path d="M 630 539.7 L 597.2 572.5 L 572.5 547.8 L 605.3 515 L 572.5 482.2 L 597.2 457.5 L 630 490.3 L 662.8 457.5 L 687.5 482.2 L 654.7 515 L 687.5 547.8 L 662.8 572.5 Z" fill="#da627d" stroke="black" stroke-width="3"></path><path d="M 647.5 612.5 L 672.2 612.5 L 727.5 557.2 L 727.5 532.5 L 702.8 532.5 L 647.5 587.8 Z" fill="#fca17d" stroke="black" stroke-width="3"></path><path d="M 612.5 612.5 L 587.8 612.5 L 532.5 557.2 L 532.5 532.5 L 557.2 532.5 L 612.5 587.8 Z" fill="#fca17d" stroke="black" stroke-width="3"></path><path d="M 817.8 532.5 L 835.3 515 L 817.8 497.5 L 762.5 497.5 L 762.5 442.2 L 745 424.7 L 727.5 442.2 L 727.5 497.5 L 672.2 497.5 L 654.7 515 L 672.2 532.5 L 727.5 532.5 L 727.5 587.8 L 745 605.3 L 762.5 587.8 L 762.5 532.5 L 817.8 532.5" fill="#f9dbbd" stroke="black" stroke-width="3"></path><path d="M 745 424.7 L 712.2 457.5 L 687.5 432.8 L 720.3 400 L 687.5 367.2 L 712.2 342.5 L 745 375.3 L 777.8 342.5 L 802.5 367.2 L 769.7 400 L 802.5 432.8 L 777.8 457.5 Z" fill="#da627d" stroke="black" stroke-width="3"></path><path d="M 762.5 497.5 L 787.2 497.5 L 842.5 442.2 L 842.5 417.5 L 817.8 417.5 L 762.5 472.8 Z" fill="#fca17d" stroke="black" stroke-width="3"></path><path d="M 727.5 497.5 L 702.8 497.5 L 647.5 442.2 L 647.5 417.5 L 672.2 417.5 L 727.5 472.8 Z" fill="#fca17d" stroke="black" stroke-width="3"></path><path d="M 932.8 417.5 L 950.3 400 L 932.8 382.5 L 877.5 382.5 L 877.5 327.2 L 860 309.7 L 842.5 327.2 L 842.5 382.5 L 787.2 382.5 L 769.7 400 L 787.2 417.5 L 842.5 417.5 L 842.5 472.8 L 860 490.3 L 877.5 472.8 L 877.5 417.5 L 932.8 417.5" fill="#f9dbbd" stroke="black" stroke-width="3"></path><path d="M 860 309.7 L 827.2 342.5 L 802.5 317.8 L 835.3 285 L 802.5 252.2 L 827.2 227.5 L 860 260.3 L 892.8 227.5 L 917.5 252.2 L 884.7 285 L 917.5 317.8 L 892.8 342.5 Z" fill="#da627d" stroke="black" stroke-width="3"></path><path d="M 877.5 382.5 L 902.2 382.5 L 957.5 327.2 L 957.5 302.5 L 932.8 302.5 L 877.5 357.8 Z" fill="#fca17d" stroke="black" stroke-width="3"></path><path d="M 842.5 382.5 L 817.8 382.5 L 762.5 327.2 L 762.5 302.5 L 787.2 302.5 L 842.5 357.8 Z" fill="#fca17d" stroke="black" stroke-width="3"></path><path d="M 1047.8 302.5 L 1065.3 285 L 1047.8 267.5 L 992.5 267.5 L 992.5 212.2 L 975 194.7 L 957.5 212.2 L 957.5 267.5 L 902.2 267.5 L 884.7 285 L 902.2 302.5 L 957.5 302.5 L 957.5 357.8 L 975 375.3 L 992.5 357.8 L 992.5 302.5 L 1047.8 302.5" fill="#f9dbbd" stroke="black" stroke-width="3"></path><path d="M 975 194.7 L 942.2 227.5 L 917.5 202.8 L 950.3 170 L 917.5 137.2 L 942.2 112.5 L 975 145.3 L 1007.8 112.5 L 1032.5 137.2 L 999.7 170 L 1032.5 202.8 L 1007.8 227.5 Z" fill="#da627d" stroke="black" stroke-width="3"></path><path d="M 992.5 267.5 L 1017.2 267.5 L 1072.5 212.2 L 1072.5 187.5 L 1047.8 187.5 L 992.5 242.8 Z" fill="#fca17d" stroke="black" stroke-width="3"></path><path d="M 957.5 267.5 L 932.8 267.5 L 877.5 212.2 L 877.5 187.5 L 902.2 187.5 L 957.5 242.8 Z" fill="#fca17d" stroke="black" stroke-width="3"></path><path d="M 1162.8 187.5 L 1180.3 170 L 1162.8 152.5 L 1107.5 152.5 L 1107.5 97.2 L 1090 79.7 L 1072.5 97.2 L 1072.5 152.5 L 1017.2 152.5 L 999.7 170 L 1017.2 187.5 L 1072.5 187.5 L 1072.5 242.8 L 1090 260.3 L 1107.5 242.8 L 1107.5 187.5 L 1162.8 187.5" fill="#f9dbbd" stroke="black" stroke-width="3"></path><path d="M 1090 79.7 L 1057.2 112.5 L 1032.5 87.8 L 1065.3 55 L 1032.5 22.2 L 1057.2 -2.5 L 1090 30.3 L 1122.8 -2.5 L 1147.5 22.2 L 1114.7 55 L 1147.5 87.8 L 1122.8 112.5 Z" fill="#da627d" stroke="black" stroke-width="3"></path><path d="M 1107.5 152.5 L 1132.2 152.5 L 1187.5 97.2 L 1187.5 72.5 L 1162.8 72.5 L 1107.5 127.8 Z" fill="#fca17d" stroke="black" stroke-width="3"></path><path d="M 1072.5 152.5 L 1047.8 152.5 L 992.5 97.2 L 992.5 72.5 L 1017.2 72.5 L 1072.5 127.8 Z" fill="#fca17d" stroke="black" stroke-width="3"></path><path d="M 357.8 1222.5 L 375.3 1205 L 357.8 1187.5 L 302.5 1187.5 L 302.5 1132.2 L 285 1114.7 L 267.5 1132.2 L 267.5 1187.5 L 212.2 1187.5 L 194.7 1205 L 212.2 1222.5 L 267.5 1222.5 L 267.5 1277.8 L 285 1295.3 L 302.5 1277.8 L 302.5 1222.5 L 357.8 1222.5" fill="#f9dbbd" stroke="black" stroke-width="3"></path><path d="M 285 1114.7 L 252.2 1147.5 L 227.5 1122.8 L 260.3 1090 L 227.5 1057.2 L 252.2 1032.5 L 285 1065.3 L 317.8 1032.5 L 342.5 1057.2 L 309.7 1090 L 342.5 1122.8 L 317.8 1147.5 Z" fill="#da627d" stroke="black" stroke-width="3"></path><path d="M 302.5 1187.5 L 327.2 1187.5 L 382.5 1132.2 L 382.5 1107.5 L 357.8 1107.5 L 302.5 1162.8 Z" fill="#fca17d" stroke="black" stroke-width="3"></path><path d="M 267.5 1187.5 L 242.8 1187.5 L 187.5 1132.2 L 187.5 1107.5 L 212.2 1107.5 L 267.5 1162.8 Z" fill="#fca17d" stroke="black" stroke-width="3"></path><path d="M 472.8 1107.5 L 490.3 1090 L 472.8 1072.5 L 417.5 1072.5 L 417.5 1017.2 L 400 999.7 L 382.5 1017.2 L 382.5 1072.5 L 327.2 1072.5 L 309.7 1090 L 327.2 1107.5 L 382.5 1107.5 L 382.5 1162.8 L 400 1180.3 L 417.5 1162.8 L 417.5 1107.5 L 472.8 1107.5" fill="#f9dbbd" stroke="black" stroke-width="3"></path><path d="M 400 999.7 L 367.2 1032.5 L 342.5 1007.8 L 375.3 975 L 342.5 942.2 L 367.2 917.5 L 400 950.3 L 432.8 917.5 L 457.5 942.2 L 424.7 975 L 457.5 1007.8 L 432.8 1032.5 Z" fill="#da627d" stroke="black" stroke-width="3"></path><path d="M 417.5 1072.5 L 442.2 1072.5 L 497.5 1017.2 L 497.5 992.5 L 472.8 992.5 L 417.5 1047.8 Z" fill="#fca17d" stroke="black" stroke-width="3"></path><path d="M 382.5 1072.5 L 357.8 1072.5 L 302.5 1017.2 L 302.5 992.5 L 327.2 992.5 L 382.5 1047.8 Z" fill="#fca17d" stroke="black" stroke-width="3"></path><path d="M 587.8 992.5 L 605.3 975 L 587.8 957.5 L 532.5 957.5 L 532.5 902.2 L 515 884.7 L 497.5 902.2 L 497.5 957.5 L 442.2 957.5 L 424.7 975 L 442.2 992.5 L 497.5 992.5 L 497.5 1047.8 L 515 1065.3 L 532.5 1047.8 L 532.5 992.5 L 587.8 992.5" fill="#f9dbbd" stroke="black" stroke-width="3"></path><path d="M 515 884.7 L 482.2 917.5 L 457.5 892.8 L 490.3 860 L 457.5 827.2 L 482.2 802.5 L 515 835.3 L 547.8 802.5 L 572.5 827.2 L 539.7 860 L 572.5 892.8 L 547.8 917.5 Z" fill="#da627d" stroke="black" stroke-width="3"></path><path d="M 532.5 957.5 L 557.2 957.5 L 612.5 902.2 L 612.5 877.5 L 587.8 877.5 L 532.5 932.8 Z" fill="#fca17d" stroke="black" stroke-width="3"></path><path d="M 497.5 957.5 L 472.8 957.5 L 417.5 902.2 L 417.5 877.5 L 442.2 877.5 L 497.5 932.8 Z" fill="#fca17d" stroke="black" stroke-width="3"></path><path d="M 702.8 877.5 L 720.3 860 L 702.8 842.5 L 647.5 842.5 L 647.5 787.2 L 630 769.7 L 612.5 787.2 L 612.5 842.5 L 557.2 842.5 L 539.7 860 L 557.2 877.5 L 612.5 877.5 L 612.5 932.8 L 630 950.3 L 647.5 932.8 L 647.5 877.5 L 702.8 877.5" fill="#f9dbbd" stroke="black" stroke-width="3"></path><path d="M 630 769.7 L 597.2 802.5 L 572.5 777.8 L 605.3 745 L 572.5 712.2 L 597.2 687.5 L 630 720.3 L 662.8 687.5 L 687.5 712.2 L 654.7 745 L 687.5 777.8 L 662.8 802.5 Z" fill="#da627d" stroke="black" stroke-width="3"></path><path d="M 647.5 842.5 L 672.2 842.5 L 727.5 787.2 L 727.5 762.5 L 702.8 762.5 L 647.5 817.8 Z" fill="#fca17d" stroke="black" stroke-width="3"></path><path d="M 612.5 842.5 L 587.8 842.5 L 532.5 787.2 L 532.5 762.5 L 557.2 762.5 L 612.5 817.8 Z" fill="#fca17d" stroke="black" stroke-width="3"></path><path d="M 817.8 762.5 L 835.3 745 L 817.8 727.5 L 762.5 727.5 L 762.5 672.2 L 745 654.7 L 727.5 672.2 L 727.5 727.5 L 672.2 727.5 L 654.7 745 L 672.2 762.5 L 727.5 762.5 L 727.5 817.8 L 745 835.3 L 762.5 817.8 L 762.5 762.5 L 817.8 762.5" fill="#f9dbbd" stroke="black" stroke-width="3"></path><path d="M 745 654.7 L 712.2 687.5 L 687.5 662.8 L 720.3 630 L 687.5 597.2 L 712.2 572.5 L 745 605.3 L 777.8 572.5 L 802.5 597.2 L 769.7 630 L 802.5 662.8 L 777.8 687.5 Z" fill="#da627d" stroke="black" stroke-width="3"></path><path d="M 762.5 727.5 L 787.2 727.5 L 842.5 672.2 L 842.5 647.5 L 817.8 647.5 L 762.5 702.8 Z" fill="#fca17d" stroke="black" stroke-width="3"></path><path d="M 727.5 727.5 L 702.8 727.5 L 647.5 672.2 L 647.5 647.5 L 672.2 647.5 L 727.5 702.8 Z" fill="#fca17d" stroke="black" stroke-width="3"></path><path d="M 932.8 647.5 L 950.3 630 L 932.8 612.5 L 877.5 612.5 L 877.5 557.2 L 860 539.7 L 842.5 557.2 L 842.5 612.5 L 787.2 612.5 L 769.7 630 L 787.2 647.5 L 842.5 647.5 L 842.5 702.8 L 860 720.3 L 877.5 702.8 L 877.5 647.5 L 932.8 647.5" fill="#f9dbbd" stroke="black" stroke-width="3"></path><path d="M 860 539.7 L 827.2 572.5 L 802.5 547.8 L 835.3 515 L 802.5 482.2 L 827.2 457.5 L 860 490.3 L 892.8 457.5 L 917.5 482.2 L 884.7 515 L 917.5 547.8 L 892.8 572.5 Z" fill="#da627d" stroke="black" stroke-width="3"></path><path d="M 877.5 612.5 L 902.2 612.5 L 957.5 557.2 L 957.5 532.5 L 932.8 532.5 L 877.5 587.8 Z" fill="#fca17d" stroke="black" stroke-width="3"></path><path d="M 842.5 612.5 L 817.8 612.5 L 762.5 557.2 L 762.5 532.5 L 787.2 532.5 L 842.5 587.8 Z" fill="#fca17d" stroke="black" stroke-width="3"></path><path d="M 1047.8 532.5 L 1065.3 515 L 1047.8 497.5 L 992.5 497.5 L 992.5 442.2 L 975 424.7 L 957.5 442.2 L 957.5 497.5 L 902.2 497.5 L 884.7 515 L 902.2 532.5 L 957.5 532.5 L 957.5 587.8 L 975 605.3 L 992.5 587.8 L 992.5 532.5 L 1047.8 532.5" fill="#f9dbbd" stroke="black" stroke-width="3"></path><path d="M 975 424.7 L 942.2 457.5 L 917.5 432.8 L 950.3 400 L 917.5 367.2 L 942.2 342.5 L 975 375.3 L 1007.8 342.5 L 1032.5 367.2 L 999.7 400 L 1032.5 432.8 L 1007.8 457.5 Z" fill="#da627d" stroke="black" stroke-width="3"></path><path d="M 992.5 497.5 L 1017.2 497.5 L 1072.5 442.2 L 1072.5 417.5 L 1047.8 417.5 L 992.5 472.8 Z" fill="#fca17d" stroke="black" stroke-width="3"></path><path d="M 957.5 497.5 L 932.8 497.5 L 877.5 442.2 L 877.5 417.5 L 902.2 417.5 L 957.5 472.8 Z" fill="#fca17d" stroke="black" stroke-width="3"></path><path d="M 1162.8 417.5 L 1180.3 400 L 1162.8 382.5 L 1107.5 382.5 L 1107.5 327.2 L 1090 309.7 L 1072.5 327.2 L 1072.5 382.5 L 1017.2 382.5 L 999.7 400 L 1017.2 417.5 L 1072.5 417.5 L 1072.5 472.8 L 1090 490.3 L 1107.5 472.8 L 1107.5 417.5 L 1162.8 417.5" fill="#f9dbbd" stroke="black" stroke-width="3"></path><path d="M 1090 309.7 L 1057.2 342.5 L 1032.5 317.8 L 1065.3 285 L 1032.5 252.2 L 1057.2 227.5 L 1090 260.3 L 1122.8 227.5 L 1147.5 252.2 L 1114.7 285 L 1147.5 317.8 L 1122.8 342.5 Z" fill="#da627d" stroke="black" stroke-width="3"></path><path d="M 1107.5 382.5 L 1132.2 382.5 L 1187.5 327.2 L 1187.5 302.5 L 1162.8 302.5 L 1107.5 357.8 Z" fill="#fca17d" stroke="black" stroke-width="3"></path><path d="M 1072.5 382.5 L 1047.8 382.5 L 992.5 327.2 L 992.5 302.5 L 1017.2 302.5 L 1072.5 357.8 Z" fill="#fca17d" stroke="black" stroke-width="3"></path><path d="M 1277.8 302.5 L 1295.3 285 L 1277.8 267.5 L 1222.5 267.5 L 1222.5 212.2 L 1205 194.7 L 1187.5 212.2 L 1187.5 267.5 L 1132.2 267.5 L 1114.7 285 L 1132.2 302.5 L 1187.5 302.5 L 1187.5 357.8 L 1205 375.3 L 1222.5 357.8 L 1222.5 302.5 L 1277.8 302.5" fill="#f9dbbd" stroke="black" stroke-width="3"></path><path d="M 1205 194.7 L 1172.2 227.5 L 1147.5 202.8 L 1180.3 170 L 1147.5 137.2 L 1172.2 112.5 L 1205 145.3 L 1237.8 112.5 L 1262.5 137.2 L 1229.7 170 L 1262.5 202.8 L 1237.8 227.5 Z" fill="#da627d" stroke="black" stroke-width="3"></path><path d="M 1222.5 267.5 L 1247.2 267.5 L 1302.5 212.2 L 1302.5 187.5 L 1277.8 187.5 L 1222.5 242.8 Z" fill="#fca17d" stroke="black" stroke-width="3"></path><path d="M 1187.5 267.5 L 1162.8 267.5 L 1107.5 212.2 L 1107.5 187.5 L 1132.2 187.5 L 1187.5 242.8 Z" fill="#fca17d" stroke="black" stroke-width="3"></path><path d="M 472.8 1337.5 L 490.3 1320 L 472.8 1302.5 L 417.5 1302.5 L 417.5 1247.2 L 400 1229.7 L 382.5 1247.2 L 382.5 1302.5 L 327.2 1302.5 L 309.7 1320 L 327.2 1337.5 L 382.5 1337.5 L 382.5 1392.8 L 400 1410.3 L 417.5 1392.8 L 417.5 1337.5 L 472.8 1337.5" fill="#f9dbbd" stroke="black" stroke-width="3"></path><path d="M 400 1229.7 L 367.2 1262.5 L 342.5 1237.8 L 375.3 1205 L 342.5 1172.2 L 367.2 1147.5 L 400 1180.3 L 432.8 1147.5 L 457.5 1172.2 L 424.7 1205 L 457.5 1237.8 L 432.8 1262.5 Z" fill="#da627d" stroke="black" stroke-width="3"></path><path d="M 417.5 1302.5 L 442.2 1302.5 L 497.5 1247.2 L 497.5 1222.5 L 472.8 1222.5 L 417.5 1277.8 Z" fill="#fca17d" stroke="black" stroke-width="3"></path><path d="M 382.5 1302.5 L 357.8 1302.5 L 302.5 1247.2 L 302.5 1222.5 L 327.2 1222.5 L 382.5 1277.8 Z" fill="#fca17d" stroke="black" stroke-width="3"></path><path d="M 587.8 1222.5 L 605.3 1205 L 587.8 1187.5 L 532.5 1187.5 L 532.5 1132.2 L 515 1114.7 L 497.5 1132.2 L 497.5 1187.5 L 442.2 1187.5 L 424.7 1205 L 442.2 1222.5 L 497.5 1222.5 L 497.5 1277.8 L 515 1295.3 L 532.5 1277.8 L 532.5 1222.5 L 587.8 1222.5" fill="#f9dbbd" stroke="black" stroke-width="3"></path><path d="M 515 1114.7 L 482.2 1147.5 L 457.5 1122.8 L 490.3 1090 L 457.5 1057.2 L 482.2 1032.5 L 515 1065.3 L 547.8 1032.5 L 572.5 1057.2 L 539.7 1090 L 572.5 1122.8 L 547.8 1147.5 Z" fill="#da627d" stroke="black" stroke-width="3"></path><path d="M 532.5 1187.5 L 557.2 1187.5 L 612.5 1132.2 L 612.5 1107.5 L 587.8 1107.5 L 532.5 1162.8 Z" fill="#fca17d" stroke="black" stroke-width="3"></path><path d="M 497.5 1187.5 L 472.8 1187.5 L 417.5 1132.2 L 417.5 1107.5 L 442.2 1107.5 L 497.5 1162.8 Z" fill="#fca17d" stroke="black" stroke-width="3"></path><path d="M 702.8 1107.5 L 720.3 1090 L 702.8 1072.5 L 647.5 1072.5 L 647.5 1017.2 L 630 999.7 L 612.5 1017.2 L 612.5 1072.5 L 557.2 1072.5 L 539.7 1090 L 557.2 1107.5 L 612.5 1107.5 L 612.5 1162.8 L 630 1180.3 L 647.5 1162.8 L 647.5 1107.5 L 702.8 1107.5" fill="#f9dbbd" stroke="black" stroke-width="3"></path><path d="M 630 999.7 L 597.2 1032.5 L 572.5 1007.8 L 605.3 975 L 572.5 942.2 L 597.2 917.5 L 630 950.3 L 662.8 917.5 L 687.5 942.2 L 654.7 975 L 687.5 1007.8 L 662.8 1032.5 Z" fill="#da627d" stroke="black" stroke-width="3"></path><path d="M 647.5 1072.5 L 672.2 1072.5 L 727.5 1017.2 L 727.5 992.5 L 702.8 992.5 L 647.5 1047.8 Z" fill="#fca17d" stroke="black" stroke-width="3"></path><path d="M 612.5 1072.5 L 587.8 1072.5 L 532.5 1017.2 L 532.5 992.5 L 557.2 992.5 L 612.5 1047.8 Z" fill="#fca17d" stroke="black" stroke-width="3"></path><path d="M 817.8 992.5 L 835.3 975 L 817.8 957.5 L 762.5 957.5 L 762.5 902.2 L 745 884.7 L 727.5 902.2 L 727.5 957.5 L 672.2 957.5 L 654.7 975 L 672.2 992.5 L 727.5 992.5 L 727.5 1047.8 L 745 1065.3 L 762.5 1047.8 L 762.5 992.5 L 817.8 992.5" fill="#f9dbbd" stroke="black" stroke-width="3"></path><path d="M 745 884.7 L 712.2 917.5 L 687.5 892.8 L 720.3 860 L 687.5 827.2 L 712.2 802.5 L 745 835.3 L 777.8 802.5 L 802.5 827.2 L 769.7 860 L 802.5 892.8 L 777.8 917.5 Z" fill="#da627d" stroke="black" stroke-width="3"></path><path d="M 762.5 957.5 L 787.2 957.5 L 842.5 902.2 L 842.5 877.5 L 817.8 877.5 L 762.5 932.8 Z" fill="#fca17d" stroke="black" stroke-width="3"></path><path d="M 727.5 957.5 L 702.8 957.5 L 647.5 902.2 L 647.5 877.5 L 672.2 877.5 L 727.5 932.8 Z" fill="#fca17d" stroke="black" stroke-width="3"></path><path d="M 932.8 877.5 L 950.3 860 L 932.8 842.5 L 877.5 842.5 L 877.5 787.2 L 860 769.7 L 842.5 787.2 L 842.5 842.5 L 787.2 842.5 L 769.7 860 L 787.2 877.5 L 842.5 877.5 L 842.5 932.8 L 860 950.3 L 877.5 932.8 L 877.5 877.5 L 932.8 877.5" fill="#f9dbbd" stroke="black" stroke-width="3"></path><path d="M 860 769.7 L 827.2 802.5 L 802.5 777.8 L 835.3 745 L 802.5 712.2 L 827.2 687.5 L 860 720.3 L 892.8 687.5 L 917.5 712.2 L 884.7 745 L 917.5 777.8 L 892.8 802.5 Z" fill="#da627d" stroke="black" stroke-width="3"></path><path d="M 877.5 842.5 L 902.2 842.5 L 957.5 787.2 L 957.5 762.5 L 932.8 762.5 L 877.5 817.8 Z" fill="#fca17d" stroke="black" stroke-width="3"></path><path d="M 842.5 842.5 L 817.8 842.5 L 762.5 787.2 L 762.5 762.5 L 787.2 762.5 L 842.5 817.8 Z" fill="#fca17d" stroke="black" stroke-width="3"></path><path d="M 1047.8 762.5 L 1065.3 745 L 1047.8 727.5 L 992.5 727.5 L 992.5 672.2 L 975 654.7 L 957.5 672.2 L 957.5 727.5 L 902.2 727.5 L 884.7 745 L 902.2 762.5 L 957.5 762.5 L 957.5 817.8 L 975 835.3 L 992.5 817.8 L 992.5 762.5 L 1047.8 762.5" fill="#f9dbbd" stroke="black" stroke-width="3"></path><path d="M 975 654.7 L 942.2 687.5 L 917.5 662.8 L 950.3 630 L 917.5 597.2 L 942.2 572.5 L 975 605.3 L 1007.8 572.5 L 1032.5 597.2 L 999.7 630 L 1032.5 662.8 L 1007.8 687.5 Z" fill="#da627d" stroke="black" stroke-width="3"></path><path d="M 992.5 727.5 L 1017.2 727.5 L 1072.5 672.2 L 1072.5 647.5 L 1047.8 647.5 L 992.5 702.8 Z" fill="#fca17d" stroke="black" stroke-width="3"></path><path d="M 957.5 727.5 L 932.8 727.5 L 877.5 672.2 L 877.5 647.5 L 902.2 647.5 L 957.5 702.8 Z" fill="#fca17d" stroke="black" stroke-width="3"></path><path d="M 1162.8 647.5 L 1180.3 630 L 1162.8 612.5 L 1107.5 612.5 L 1107.5 557.2 L 1090 539.7 L 1072.5 557.2 L 1072.5 612.5 L 1017.2 612.5 L 999.7 630 L 1017.2 647.5 L 1072.5 647.5 L 1072.5 702.8 L 1090 720.3 L 1107.5 702.8 L 1107.5 647.5 L 1162.8 647.5" fill="#f9dbbd" stroke="black" stroke-width="3"></path><path d="M 1090 539.7 L 1057.2 572.5 L 1032.5 547.8 L 1065.3 515 L 1032.5 482.2 L 1057.2 457.5 L 1090 490.3 L 1122.8 457.5 L 1147.5 482.2 L 1114.7 515 L 1147.5 547.8 L 1122.8 572.5 Z" fill="#da627d" stroke="black" stroke-width="3"></path><path d="M 1107.5 612.5 L 1132.2 612.5 L 1187.5 557.2 L 1187.5 532.5 L 1162.8 532.5 L 1107.5 587.8 Z" fill="#fca17d" stroke="black" stroke-width="3"></path><path d="M 1072.5 612.5 L 1047.8 612.5 L 992.5 557.2 L 992.5 532.5 L 1017.2 532.5 L 1072.5 587.8 Z" fill="#fca17d" stroke="black" stroke-width="3"></path><path d="M 1277.8 532.5 L 1295.3 515 L 1277.8 497.5 L 1222.5 497.5 L 1222.5 442.2 L 1205 424.7 L 1187.5 442.2 L 1187.5 497.5 L 1132.2 497.5 L 1114.7 515 L 1132.2 532.5 L 1187.5 532.5 L 1187.5 587.8 L 1205 605.3 L 1222.5 587.8 L 1222.5 532.5 L 1277.8 532.5" fill="#f9dbbd" stroke="black" stroke-width="3"></path><path d="M 1205 424.7 L 1172.2 457.5 L 1147.5 432.8 L 1180.3 400 L 1147.5 367.2 L 1172.2 342.5 L 1205 375.3 L 1237.8 342.5 L 1262.5 367.2 L 1229.7 400 L 1262.5 432.8 L 1237.8 457.5 Z" fill="#da627d" stroke="black" stroke-width="3"></path><path d="M 1222.5 497.5 L 1247.2 497.5 L 1302.5 442.2 L 1302.5 417.5 L 1277.8 417.5 L 1222.5 472.8 Z" fill="#fca17d" stroke="black" stroke-width="3"></path><path d="M 1187.5 497.5 L 1162.8 497.5 L 1107.5 442.2 L 1107.5 417.5 L 1132.2 417.5 L 1187.5 472.8 Z" fill="#fca17d" stroke="black" stroke-width="3"></path><path d="M 1392.8 417.5 L 1410.3 400 L 1392.8 382.5 L 1337.5 382.5 L 1337.5 327.2 L 1320 309.7 L 1302.5 327.2 L 1302.5 382.5 L 1247.2 382.5 L 1229.7 400 L 1247.2 417.5 L 1302.5 417.5 L 1302.5 472.8 L 1320 490.3 L 1337.5 472.8 L 1337.5 417.5 L 1392.8 417.5" fill="#f9dbbd" stroke="black" stroke-width="3"></path><path d="M 1320 309.7 L 1287.2 342.5 L 1262.5 317.8 L 1295.3 285 L 1262.5 252.2 L 1287.2 227.5 L 1320 260.3 L 1352.8 227.5 L 1377.5 252.2 L 1344.7 285 L 1377.5 317.8 L 1352.8 342.5 Z" fill="#da627d" stroke="black" stroke-width="3"></path><path d="M 1337.5 382.5 L 1362.2 382.5 L 1417.5 327.2 L 1417.5 302.5 L 1392.8 302.5 L 1337.5 357.8 Z" fill="#fca17d" stroke="black" stroke-width="3"></path><path d="M 1302.5 382.5 L 1277.8 382.5 L 1222.5 327.2 L 1222.5 302.5 L 1247.2 302.5 L 1302.5 357.8 Z" fill="#fca17d" stroke="black" stroke-width="3"></path><ellipse cx="400" cy="400" rx="600" ry="600" fill="none" stroke="white" stroke-width="560"></ellipse><ellipse cx="400" cy="400" rx="320" ry="320" fill="none" stroke="black" stroke-width="3"></ellipse></svg>