<svg viewBox="0 0 800 800" preserveAspectRatio="xMidYMin slice" xmlns="http://www.w3.org/2000/svg" xlink="http://www.w3.org/1999/xlink"><defs><g id="unit-34"><path d="M 72.8 17.5 L 90.3 0 L 72.8 -17.5 L 17.5 -17.5 L 17.5 -72.8 L 0 -90.3 L -17.5 -72.8 L -17.5 -17.5 L -72.8 -17.5 L -90.3 0 L -72.8 17.5 L -17.5 17.5 L -17.5 72.8 L 0 90.3 L 17.5 72.8 L 17.5 17.5 L 72.8 17.5" fill="#f9dbbd" stroke="black" stroke-width="3"></path><path d="M 0 -90.3 L -32.8 -57.5 L -57.5 -82.2 L -24.7 -115 L -57.5 -147.8 L -32.8 -172.5 L 0 -139.7 L 32.8 -172.5 L 57.5 -147.8 L 24.7 -115 L 57.5 -82.2 L 32.8 -57.5 Z" fill="#da627d" stroke="black" stroke-width="3"></path><path d="M 17.5 -17.5 L 42.2 -17.5 L 97.5 -72.8 L 97.5 -97.5 L 72.8 -97.5 L 17.5 -42.2 Z" fill="#fca17d" stroke="black" stroke-width="3"></path><path d="M -17.5 -17.5 L -42.2 -17.5 L -97.5 -72.8 L -97.5 -97.5 L -72.8 -97.5 L -17.5 -42.2 Z" fill="#fca17d" stroke="black" stroke-width="3"></path></g></defs><rect x="0" y="0" width="800" height="800" fill="#0d0628"></rect><use href="#unit-34" transform="translate(-520, 400)"></use><use href="#unit-34" transform="translate(-405, 285)"></use><use href="#unit-34" transform="translate(-290, 170)"></use><use href="#unit-34" transform="translate(-175, 55)"></use><use href="#unit-34" transform="translate(-60, -60)"></use><use href="#unit-34" transform="translate(55, -175)"></use><use href="#unit-34" transform="translate(170, -290)"></use><use href="#unit-34" transform="translate(285, -405)"></use><use href="#unit-34" transform="translate(400, -520)"></use><use href="#unit-34" transform="translate(-405, 515)"></use><use href="#unit-34" transform="translate(-290, 400)"></use><use href="#unit-34" transform="translate(-175, 285)"></use><use href="#unit-34" transform="translate(-60, 170)"></use><use href="#unit-34" transform="translate(55, 55)"></use><use href="#unit-34" transform="translate(170, -60)"></use><use href="#unit-34" transform="translate(285, -175)"></use><use href="#unit-34" transform="translate(400, -290)"></use><use href="#unit-34" transform="translate(515, -405)"></use><use href="#unit-34" transform="translate(-290, 630)"></use><use href="#unit-34" transform="translate(-175, 515)"></use><use href="#unit-34" transform="translate(-60, 400)"></use><use href="#unit-34" transform="translate(55, 285)"></use><use href="#unit-34" transform="translate(170, 170)"></use><use href="#unit-34" transform="translate(285, 55)"></use><use href="#unit-34" transform="translate(400, -60)"></use><use href="#unit-34" transform="translate(515, -175)"></use><use href="#unit-34" transform="translate(630, -290)"></use><use href="#unit-34" transform="translate(-175, 745)"></use><use href="#unit-34" transform="translate(-60, 630)"></use><use href="#unit-34" transform="translate(55, 515)"></use><use href="#unit-34" transform="translate(170, 400)"></use><use href="#unit-34" transform="translate(285, 285)"></use><use href="#unit-34" transform="translate(400, 170)"></use><use href="#unit-34" transform="translate(515, 55)"></use><use href="#unit-34" transform="translate(630, -60)"></use><use href="#unit-34" transform="translate(745, -175)"></use><use href="#unit-34" transform="translate(-60, 860)"></use><use href="#unit-34" transform="translate(55, 745)"></use><use href="#unit-34" transform="translate(170, 630)"></use><use href="#unit-34" transform="translate(285, 515)"></use><use href="#unit-34" transform="translate(400, 400)"></use><use href="#unit-34" transform="translate(515, 285)"></use><use href="#unit-34" transform="translate(630, 170)"></use><use href="#unit-34" transform="translate(745, 55)"></use><use href="#unit-34" transform="translate(860, -60)"></use><use href="#unit-34" transform="translate(55, 975)"></use><use href="#unit-34" transform="translate(170, 860)"></use><use href="#unit-34" transform="translate(285, 745)"></use><use href="#unit-34" transform="translate(400, 630)"></use><use href="#unit-34" transform="translate(515, 515)"></use><use href="#unit-34" transform="translate(630, 400)"></use><use href="#unit-34" transform="translate(745, 285)"></use><use href="#unit-34" transform="translate(860, 170)"></use><use href="#unit-34" transform="translate(975, 55)"></use><use href="#unit-34" transform="translate(170, 1090)"></use><use href="#unit-34" transform="translate(285, 975)"></use><use href="#unit-34" transform="translate(400, 860)"></use><use href="#unit-34" transform="translate(515, 745)"></use><use href="#unit-34" transform="translate(630, 630)"></use><use href="#unit-34" transform="translate(745, 515)"></use><use href="#unit-34" transform="translate(860, 400)"></use><use href="#unit-34" transform="translate(975, 285)"></use><use href="#unit-34" transform="translate(1090, 170)"></use><use href="#unit-34" transform="translate(285, 1205)"></use><use href="#unit-34" transform="translate(400, 1090)"></use><use href="#unit-34" transform="translate(515, 975)"></use><use href="#unit-34" transform="translate(630, 860)"></use><use href="#unit-34" transform="translate(745, 745)"></use><use href="#unit-34" transform="translate(860, 630)"></use><use href="#unit-34" transform="translate(975, 515)"></use><use href="#unit-34" transform="translate(1090, 400)"></use><use href="#unit-34" transform="translate(1205, 285)"></use><use href="#unit-34" transform="translate(400, 1320)"></use><use href="#unit-34" transform="translate(515, 1205)"></use><use href="#unit-34" transform="translate(630, 1090)"></use><use href="#unit-34" transform="translate(745, 975)"></use><use href="#unit-34" transform="translate(860, 860)"></use><use href="#unit-34" transform="translate(975, 745)"></use><use href="#unit-34" transform="translate(1090, 630)"></use><use href="#unit-34" transform="translate(1205, 515)"></use><use href="#unit-34" transform="translate(1320, 400)"></use><ellipse cx="400" cy="400" rx="600" ry="600" fill="none" stroke="white" stroke-width="560"></ellipse><ellipse cx="400" cy="400" rx="320" ry="320" fill="none" stroke="black" stroke-width="3"></ellipse></svg>