<svg viewBox="0 0 800 800" preserveAspectRatio="xMidYMin slice" xmlns="http://www.w3.org/2000/svg" xlink="http://www.w3.org/1999/xlink"><defs><g id="unit-35"><path d="M 0 0 L 13.5 23.4 L -9.9 36.9 L 3.6 60.3 L 27 46.8 L 40.5 70.1 L 63.9 56.6 L 50.4 33.3 L 73.8 19.8 L 87.3 43.1 L 110.6 29.6 L 97.1 6.3 L 120.5 -7.2 L 107 -30.6 L 83.6 -17.1 L 70.1 -40.5 L 46.8 -27 L 60.3 -3.6 L 36.9 9.9 L 23.4 -13.5 Z" fill="#abe188" stroke="#5d675b" stroke-width="4"></path><path d="M 70.1 -40.5 L 46.8 -27 L 60.3 -3.6 L 36.9 9.9 L 23.4 -13.5 L 0 0 L -13.5 -23.4 L 9.9 -36.9 L -3.6 -60.3 L -27 -46.8 L -40.5 -70.1 L -17.1 -83.6 L -30.6 -107 L -7.2 -120.5 L 6.3 -97.1 L 29.6 -110.6 L 43.1 -87.3 L 19.8 -73.8 L 33.3 -50.4 L 56.6 -63.9 Z" fill="#f7ef99" stroke="#5d675b" stroke-width="4"></path></g></defs><rect x="0" y="0" width="800" height="800" fill="white"></rect><use href="#unit-35" transform="translate(1101.5, -5)"></use><use href="#unit-35" transform="translate(990.8, -34.6)"></use><use href="#unit-35" transform="translate(880.2, -64.3)"></use><use href="#unit-35" transform="translate(769.5, -93.9)"></use><use href="#unit-35" transform="translate(658.9, -123.6)"></use><use href="#unit-35" transform="translate(548.2, -153.2)"></use><use href="#unit-35" transform="translate(437.6, -182.9)"></use><use href="#unit-35" transform="translate(326.9, -212.5)"></use><use href="#unit-35" transform="translate(216.3, -242.2)"></use><use href="#unit-35" transform="translate(105.6, -271.8)"></use><use href="#unit-35" transform="translate(-5, -301.5)"></use><use href="#unit-35" transform="translate(1071.8, 105.6)"></use><use href="#unit-35" transform="translate(961.2, 76)"></use><use href="#unit-35" transform="translate(850.5, 46.4)"></use><use href="#unit-35" transform="translate(739.9, 16.7)"></use><use href="#unit-35" transform="translate(629.2, -12.9)"></use><use href="#unit-35" transform="translate(518.6, -42.6)"></use><use href="#unit-35" transform="translate(407.9, -72.2)"></use><use href="#unit-35" transform="translate(297.3, -101.9)"></use><use href="#unit-35" transform="translate(186.6, -131.5)"></use><use href="#unit-35" transform="translate(76, -161.2)"></use><use href="#unit-35" transform="translate(-34.6, -190.8)"></use><use href="#unit-35" transform="translate(1042.2, 216.3)"></use><use href="#unit-35" transform="translate(931.5, 186.6)"></use><use href="#unit-35" transform="translate(820.9, 157)"></use><use href="#unit-35" transform="translate(710.2, 127.4)"></use><use href="#unit-35" transform="translate(599.6, 97.7)"></use><use href="#unit-35" transform="translate(488.9, 68.1)"></use><use href="#unit-35" transform="translate(378.3, 38.4)"></use><use href="#unit-35" transform="translate(267.6, 8.8)"></use><use href="#unit-35" transform="translate(157, -20.9)"></use><use href="#unit-35" transform="translate(46.4, -50.5)"></use><use href="#unit-35" transform="translate(-64.3, -80.2)"></use><use href="#unit-35" transform="translate(1012.5, 326.9)"></use><use href="#unit-35" transform="translate(901.9, 297.3)"></use><use href="#unit-35" transform="translate(791.2, 267.6)"></use><use href="#unit-35" transform="translate(680.6, 238)"></use><use href="#unit-35" transform="translate(569.9, 208.4)"></use><use href="#unit-35" transform="translate(459.3, 178.7)"></use><use href="#unit-35" transform="translate(348.6, 149.1)"></use><use href="#unit-35" transform="translate(238, 119.4)"></use><use href="#unit-35" transform="translate(127.4, 89.8)"></use><use href="#unit-35" transform="translate(16.7, 60.1)"></use><use href="#unit-35" transform="translate(-93.9, 30.5)"></use><use href="#unit-35" transform="translate(982.9, 437.6)"></use><use href="#unit-35" transform="translate(872.2, 407.9)"></use><use href="#unit-35" transform="translate(761.6, 378.3)"></use><use href="#unit-35" transform="translate(650.9, 348.6)"></use><use href="#unit-35" transform="translate(540.3, 319)"></use><use href="#unit-35" transform="translate(429.6, 289.4)"></use><use href="#unit-35" transform="translate(319, 259.7)"></use><use href="#unit-35" transform="translate(208.4, 230.1)"></use><use href="#unit-35" transform="translate(97.7, 200.4)"></use><use href="#unit-35" transform="translate(-12.9, 170.8)"></use><use href="#unit-35" transform="translate(-123.6, 141.1)"></use><use href="#unit-35" transform="translate(953.2, 548.2)"></use><use href="#unit-35" transform="translate(842.6, 518.6)"></use><use href="#unit-35" transform="translate(731.9, 488.9)"></use><use href="#unit-35" transform="translate(621.3, 459.3)"></use><use href="#unit-35" transform="translate(510.6, 429.6)"></use><use href="#unit-35" transform="translate(400, 400)"></use><use href="#unit-35" transform="translate(289.4, 370.4)"></use><use href="#unit-35" transform="translate(178.7, 340.7)"></use><use href="#unit-35" transform="translate(68.1, 311.1)"></use><use href="#unit-35" transform="translate(-42.6, 281.4)"></use><use href="#unit-35" transform="translate(-153.2, 251.8)"></use><use href="#unit-35" transform="translate(923.6, 658.9)"></use><use href="#unit-35" transform="translate(812.9, 629.2)"></use><use href="#unit-35" transform="translate(702.3, 599.6)"></use><use href="#unit-35" transform="translate(591.6, 569.9)"></use><use href="#unit-35" transform="translate(481, 540.3)"></use><use href="#unit-35" transform="translate(370.4, 510.6)"></use><use href="#unit-35" transform="translate(259.7, 481)"></use><use href="#unit-35" transform="translate(149.1, 451.4)"></use><use href="#unit-35" transform="translate(38.4, 421.7)"></use><use href="#unit-35" transform="translate(-72.2, 392.1)"></use><use href="#unit-35" transform="translate(-182.9, 362.4)"></use><use href="#unit-35" transform="translate(893.9, 769.5)"></use><use href="#unit-35" transform="translate(783.3, 739.9)"></use><use href="#unit-35" transform="translate(672.6, 710.2)"></use><use href="#unit-35" transform="translate(562, 680.6)"></use><use href="#unit-35" transform="translate(451.4, 650.9)"></use><use href="#unit-35" transform="translate(340.7, 621.3)"></use><use href="#unit-35" transform="translate(230.1, 591.6)"></use><use href="#unit-35" transform="translate(119.4, 562)"></use><use href="#unit-35" transform="translate(8.8, 532.4)"></use><use href="#unit-35" transform="translate(-101.9, 502.7)"></use><use href="#unit-35" transform="translate(-212.5, 473.1)"></use><use href="#unit-35" transform="translate(864.3, 880.2)"></use><use href="#unit-35" transform="translate(753.6, 850.5)"></use><use href="#unit-35" transform="translate(643, 820.9)"></use><use href="#unit-35" transform="translate(532.4, 791.2)"></use><use href="#unit-35" transform="translate(421.7, 761.6)"></use><use href="#unit-35" transform="translate(311.1, 731.9)"></use><use href="#unit-35" transform="translate(200.4, 702.3)"></use><use href="#unit-35" transform="translate(89.8, 672.6)"></use><use href="#unit-35" transform="translate(-20.9, 643)"></use><use href="#unit-35" transform="translate(-131.5, 613.4)"></use><use href="#unit-35" transform="translate(-242.2, 583.7)"></use><use href="#unit-35" transform="translate(834.6, 990.8)"></use><use href="#unit-35" transform="translate(724, 961.2)"></use><use href="#unit-35" transform="translate(613.4, 931.5)"></use><use href="#unit-35" transform="translate(502.7, 901.9)"></use><use href="#unit-35" transform="translate(392.1, 872.2)"></use><use href="#unit-35" transform="translate(281.4, 842.6)"></use><use href="#unit-35" transform="translate(170.8, 812.9)"></use><use href="#unit-35" transform="translate(60.1, 783.3)"></use><use href="#unit-35" transform="translate(-50.5, 753.6)"></use><use href="#unit-35" transform="translate(-161.2, 724)"></use><use href="#unit-35" transform="translate(-271.8, 694.4)"></use><use href="#unit-35" transform="translate(805, 1101.5)"></use><use href="#unit-35" transform="translate(694.4, 1071.8)"></use><use href="#unit-35" transform="translate(583.7, 1042.2)"></use><use href="#unit-35" transform="translate(473.1, 1012.5)"></use><use href="#unit-35" transform="translate(362.4, 982.9)"></use><use href="#unit-35" transform="translate(251.8, 953.2)"></use><use href="#unit-35" transform="translate(141.1, 923.6)"></use><use href="#unit-35" transform="translate(30.5, 893.9)"></use><use href="#unit-35" transform="translate(-80.2, 864.3)"></use><use href="#unit-35" transform="translate(-190.8, 834.6)"></use><use href="#unit-35" transform="translate(-301.5, 805)"></use><ellipse cx="400" cy="400" rx="600" ry="600" fill="none" stroke="white" stroke-width="560"></ellipse><ellipse cx="400" cy="400" rx="320" ry="320" fill="none" stroke="#5d675b" stroke-width="4"></ellipse></svg>