<svg viewBox="0 0 800 800" preserveAspectRatio="xMidYMin slice" xmlns="http://www.w3.org/2000/svg"><rect x="0" y="0" width="800" height="800" fill="white"></rect><path d="M 1101.5 -5 L 1115 18.4 L 1091.6 31.9 L 1105.1 55.3 L 1128.5 41.8 L 1142 65.1 L 1165.4 51.6 L 1151.9 28.3 L 1175.2 14.8 L 1188.7 38.1 L 1212.1 24.6 L 1198.6 1.3 L 1222 -12.2 L 1208.5 -35.6 L 1185.1 -22.1 L 1171.6 -45.5 L 1148.2 -32 L 1161.7 -8.6 L 1138.4 4.9 L 1124.9 -18.5 Z" fill="#abe188" stroke="#5d675b" stroke-width="4"></path><path d="M 1171.6 -45.5 L 1148.2 -32 L 1161.7 -8.6 L 1138.4 4.9 L 1124.9 -18.5 L 1101.5 -5 L 1088 -28.4 L 1111.4 -41.9 L 1097.9 -65.3 L 1074.5 -51.8 L 1061 -75.1 L 1084.4 -88.6 L 1070.9 -112 L 1094.2 -125.5 L 1107.7 -102.1 L 1131.1 -115.6 L 1144.6 -92.3 L 1121.2 -78.8 L 1134.7 -55.4 L 1158.1 -68.9 Z" fill="#f7ef99" stroke="#5d675b" stroke-width="4"></path><path d="M 990.8 -34.6 L 1004.3 -11.3 L 980.9 2.2 L 994.4 25.6 L 1017.8 12.1 L 1031.3 35.5 L 1054.7 22 L 1041.2 -1.4 L 1064.6 -14.9 L 1078.1 8.5 L 1101.5 -5 L 1088 -28.4 L 1111.4 -41.9 L 1097.9 -65.3 L 1074.5 -51.8 L 1061 -75.1 L 1037.6 -61.6 L 1051.1 -38.3 L 1027.7 -24.8 L 1014.2 -48.1 Z" fill="#abe188" stroke="#5d675b" stroke-width="4"></path><path d="M 1061 -75.1 L 1037.6 -61.6 L 1051.1 -38.3 L 1027.7 -24.8 L 1014.2 -48.1 L 990.8 -34.6 L 977.3 -58 L 1000.7 -71.5 L 987.2 -94.9 L 963.8 -81.4 L 950.3 -104.8 L 973.7 -118.3 L 960.2 -141.7 L 983.6 -155.2 L 997.1 -131.8 L 1020.5 -145.3 L 1034 -121.9 L 1010.6 -108.4 L 1024.1 -85 L 1047.5 -98.5 Z" fill="#f7ef99" stroke="#5d675b" stroke-width="4"></path><path d="M 880.2 -64.3 L 893.7 -40.9 L 870.3 -27.4 L 883.8 -4 L 907.2 -17.5 L 920.7 5.9 L 944.1 -7.6 L 930.6 -31 L 953.9 -44.5 L 967.4 -21.1 L 990.8 -34.6 L 977.3 -58 L 1000.7 -71.5 L 987.2 -94.9 L 963.8 -81.4 L 950.3 -104.8 L 926.9 -91.3 L 940.4 -67.9 L 917.1 -54.4 L 903.6 -77.8 Z" fill="#abe188" stroke="#5d675b" stroke-width="4"></path><path d="M 950.3 -104.8 L 926.9 -91.3 L 940.4 -67.9 L 917.1 -54.4 L 903.6 -77.8 L 880.2 -64.3 L 866.7 -87.7 L 890.1 -101.2 L 876.6 -124.6 L 853.2 -111.1 L 839.7 -134.4 L 863.1 -147.9 L 849.6 -171.3 L 872.9 -184.8 L 886.4 -161.4 L 909.8 -174.9 L 923.3 -151.6 L 899.9 -138.1 L 913.4 -114.7 L 936.8 -128.2 Z" fill="#f7ef99" stroke="#5d675b" stroke-width="4"></path><path d="M 769.5 -93.9 L 783 -70.6 L 759.7 -57.1 L 773.2 -33.7 L 796.5 -47.2 L 810 -23.8 L 833.4 -37.3 L 819.9 -60.7 L 843.3 -74.2 L 856.8 -50.8 L 880.2 -64.3 L 866.7 -87.7 L 890.1 -101.2 L 876.6 -124.6 L 853.2 -111.1 L 839.7 -134.4 L 816.3 -120.9 L 829.8 -97.6 L 806.4 -84.1 L 792.9 -107.4 Z" fill="#abe188" stroke="#5d675b" stroke-width="4"></path><path d="M 839.7 -134.4 L 816.3 -120.9 L 829.8 -97.6 L 806.4 -84.1 L 792.9 -107.4 L 769.5 -93.9 L 756 -117.3 L 779.4 -130.8 L 765.9 -154.2 L 742.5 -140.7 L 729 -164.1 L 752.4 -177.6 L 738.9 -201 L 762.3 -214.5 L 775.8 -191.1 L 799.2 -204.6 L 812.7 -181.2 L 789.3 -167.7 L 802.8 -144.3 L 826.2 -157.8 Z" fill="#f7ef99" stroke="#5d675b" stroke-width="4"></path><path d="M 658.9 -123.6 L 672.4 -100.2 L 649 -86.7 L 662.5 -63.3 L 685.9 -76.8 L 699.4 -53.4 L 722.8 -66.9 L 709.3 -90.3 L 732.7 -103.8 L 746.2 -80.4 L 769.5 -93.9 L 756 -117.3 L 779.4 -130.8 L 765.9 -154.2 L 742.5 -140.7 L 729 -164.1 L 705.7 -150.6 L 719.2 -127.2 L 695.8 -113.7 L 682.3 -137.1 Z" fill="#abe188" stroke="#5d675b" stroke-width="4"></path><path d="M 729 -164.1 L 705.7 -150.6 L 719.2 -127.2 L 695.8 -113.7 L 682.3 -137.1 L 658.9 -123.6 L 645.4 -147 L 668.8 -160.5 L 655.3 -183.9 L 631.9 -170.4 L 618.4 -193.7 L 641.8 -207.2 L 628.3 -230.6 L 651.7 -244.1 L 665.2 -220.7 L 688.5 -234.2 L 702 -210.9 L 678.7 -197.4 L 692.2 -174 L 715.5 -187.5 Z" fill="#f7ef99" stroke="#5d675b" stroke-width="4"></path><path d="M 548.2 -153.2 L 561.7 -129.9 L 538.4 -116.4 L 551.9 -93 L 575.2 -106.5 L 588.7 -83.1 L 612.1 -96.6 L 598.6 -120 L 622 -133.5 L 635.5 -110.1 L 658.9 -123.6 L 645.4 -147 L 668.8 -160.5 L 655.3 -183.9 L 631.9 -170.4 L 618.4 -193.7 L 595 -180.2 L 608.5 -156.9 L 585.1 -143.4 L 571.6 -166.7 Z" fill="#abe188" stroke="#5d675b" stroke-width="4"></path><path d="M 618.4 -193.7 L 595 -180.2 L 608.5 -156.9 L 585.1 -143.4 L 571.6 -166.7 L 548.2 -153.2 L 534.7 -176.6 L 558.1 -190.1 L 544.6 -213.5 L 521.2 -200 L 507.7 -223.4 L 531.1 -236.9 L 517.6 -260.3 L 541 -273.8 L 554.5 -250.4 L 577.9 -263.9 L 591.4 -240.5 L 568 -227 L 581.5 -203.6 L 604.9 -217.1 Z" fill="#f7ef99" stroke="#5d675b" stroke-width="4"></path><path d="M 437.6 -182.9 L 451.1 -159.5 L 427.7 -146 L 441.2 -122.6 L 464.6 -136.1 L 478.1 -112.7 L 501.5 -126.2 L 488 -149.6 L 511.4 -163.1 L 524.9 -139.7 L 548.2 -153.2 L 534.7 -176.6 L 558.1 -190.1 L 544.6 -213.5 L 521.2 -200 L 507.7 -223.4 L 484.4 -209.9 L 497.9 -186.5 L 474.5 -173 L 461 -196.4 Z" fill="#abe188" stroke="#5d675b" stroke-width="4"></path><path d="M 507.7 -223.4 L 484.4 -209.9 L 497.9 -186.5 L 474.5 -173 L 461 -196.4 L 437.6 -182.9 L 424.1 -206.3 L 447.5 -219.8 L 434 -243.2 L 410.6 -229.7 L 397.1 -253 L 420.5 -266.5 L 407 -289.9 L 430.4 -303.4 L 443.9 -280 L 467.2 -293.5 L 480.7 -270.2 L 457.4 -256.7 L 470.9 -233.3 L 494.2 -246.8 Z" fill="#f7ef99" stroke="#5d675b" stroke-width="4"></path><path d="M 326.9 -212.5 L 340.4 -189.2 L 317.1 -175.7 L 330.6 -152.3 L 353.9 -165.8 L 367.4 -142.4 L 390.8 -155.9 L 377.3 -179.3 L 400.7 -192.8 L 414.2 -169.4 L 437.6 -182.9 L 424.1 -206.3 L 447.5 -219.8 L 434 -243.2 L 410.6 -229.7 L 397.1 -253 L 373.7 -239.5 L 387.2 -216.2 L 363.8 -202.7 L 350.3 -226 Z" fill="#abe188" stroke="#5d675b" stroke-width="4"></path><path d="M 397.1 -253 L 373.7 -239.5 L 387.2 -216.2 L 363.8 -202.7 L 350.3 -226 L 326.9 -212.5 L 313.4 -235.9 L 336.8 -249.4 L 323.3 -272.8 L 299.9 -259.3 L 286.4 -282.7 L 309.8 -296.2 L 296.3 -319.6 L 319.7 -333.1 L 333.2 -309.7 L 356.6 -323.2 L 370.1 -299.8 L 346.7 -286.3 L 360.2 -262.9 L 383.6 -276.4 Z" fill="#f7ef99" stroke="#5d675b" stroke-width="4"></path><path d="M 216.3 -242.2 L 229.8 -218.8 L 206.4 -205.3 L 219.9 -181.9 L 243.3 -195.4 L 256.8 -172 L 280.2 -185.5 L 266.7 -208.9 L 290.1 -222.4 L 303.6 -199 L 326.9 -212.5 L 313.4 -235.9 L 336.8 -249.4 L 323.3 -272.8 L 299.9 -259.3 L 286.4 -282.7 L 263.1 -269.2 L 276.6 -245.8 L 253.2 -232.3 L 239.7 -255.7 Z" fill="#abe188" stroke="#5d675b" stroke-width="4"></path><path d="M 286.4 -282.7 L 263.1 -269.2 L 276.6 -245.8 L 253.2 -232.3 L 239.7 -255.7 L 216.3 -242.2 L 202.8 -265.6 L 226.2 -279.1 L 212.7 -302.4 L 189.3 -288.9 L 175.8 -312.3 L 199.2 -325.8 L 185.7 -349.2 L 209.1 -362.7 L 222.6 -339.3 L 245.9 -352.8 L 259.4 -329.4 L 236.1 -315.9 L 249.6 -292.6 L 272.9 -306.1 Z" fill="#f7ef99" stroke="#5d675b" stroke-width="4"></path><path d="M 105.6 -271.8 L 119.1 -248.4 L 95.8 -234.9 L 109.3 -211.6 L 132.6 -225.1 L 146.1 -201.7 L 169.5 -215.2 L 156 -238.6 L 179.4 -252.1 L 192.9 -228.7 L 216.3 -242.2 L 202.8 -265.6 L 226.2 -279.1 L 212.7 -302.4 L 189.3 -288.9 L 175.8 -312.3 L 152.4 -298.8 L 165.9 -275.4 L 142.5 -261.9 L 129 -285.3 Z" fill="#abe188" stroke="#5d675b" stroke-width="4"></path><path d="M 175.8 -312.3 L 152.4 -298.8 L 165.9 -275.4 L 142.5 -261.9 L 129 -285.3 L 105.6 -271.8 L 92.1 -295.2 L 115.5 -308.7 L 102 -332.1 L 78.6 -318.6 L 65.1 -342 L 88.5 -355.5 L 75 -378.9 L 98.4 -392.4 L 111.9 -369 L 135.3 -382.5 L 148.8 -359.1 L 125.4 -345.6 L 138.9 -322.2 L 162.3 -335.7 Z" fill="#f7ef99" stroke="#5d675b" stroke-width="4"></path><path d="M -5 -301.5 L 8.5 -278.1 L -14.9 -264.6 L -1.4 -241.2 L 22 -254.7 L 35.5 -231.3 L 58.9 -244.8 L 45.4 -268.2 L 68.8 -281.7 L 82.3 -258.3 L 105.6 -271.8 L 92.1 -295.2 L 115.5 -308.7 L 102 -332.1 L 78.6 -318.6 L 65.1 -342 L 41.8 -328.5 L 55.3 -305.1 L 31.9 -291.6 L 18.4 -315 Z" fill="#abe188" stroke="#5d675b" stroke-width="4"></path><path d="M 65.1 -342 L 41.8 -328.5 L 55.3 -305.1 L 31.9 -291.6 L 18.4 -315 L -5 -301.5 L -18.5 -324.9 L 4.9 -338.4 L -8.6 -361.7 L -32 -348.2 L -45.5 -371.6 L -22.1 -385.1 L -35.6 -408.5 L -12.2 -422 L 1.3 -398.6 L 24.6 -412.1 L 38.1 -388.7 L 14.8 -375.2 L 28.3 -351.9 L 51.6 -365.4 Z" fill="#f7ef99" stroke="#5d675b" stroke-width="4"></path><path d="M 1071.8 105.6 L 1085.3 129 L 1061.9 142.5 L 1075.4 165.9 L 1098.8 152.4 L 1112.3 175.8 L 1135.7 162.3 L 1122.2 138.9 L 1145.6 125.4 L 1159.1 148.8 L 1182.5 135.3 L 1169 111.9 L 1192.4 98.4 L 1178.9 75 L 1155.5 88.5 L 1142 65.1 L 1118.6 78.6 L 1132.1 102 L 1108.7 115.5 L 1095.2 92.1 Z" fill="#abe188" stroke="#5d675b" stroke-width="4"></path><path d="M 1142 65.1 L 1118.6 78.6 L 1132.1 102 L 1108.7 115.5 L 1095.2 92.1 L 1071.8 105.6 L 1058.3 82.3 L 1081.7 68.8 L 1068.2 45.4 L 1044.8 58.9 L 1031.3 35.5 L 1054.7 22 L 1041.2 -1.4 L 1064.6 -14.9 L 1078.1 8.5 L 1101.5 -5 L 1115 18.4 L 1091.6 31.9 L 1105.1 55.3 L 1128.5 41.8 Z" fill="#f7ef99" stroke="#5d675b" stroke-width="4"></path><path d="M 961.2 76 L 974.7 99.4 L 951.3 112.9 L 964.8 136.3 L 988.2 122.8 L 1001.7 146.1 L 1025.1 132.6 L 1011.6 109.3 L 1034.9 95.8 L 1048.4 119.1 L 1071.8 105.6 L 1058.3 82.3 L 1081.7 68.8 L 1068.2 45.4 L 1044.8 58.9 L 1031.3 35.5 L 1007.9 49 L 1021.4 72.4 L 998.1 85.9 L 984.6 62.5 Z" fill="#abe188" stroke="#5d675b" stroke-width="4"></path><path d="M 1031.3 35.5 L 1007.9 49 L 1021.4 72.4 L 998.1 85.9 L 984.6 62.5 L 961.2 76 L 947.7 52.6 L 971.1 39.1 L 957.6 15.7 L 934.2 29.2 L 920.7 5.9 L 944.1 -7.6 L 930.6 -31 L 953.9 -44.5 L 967.4 -21.1 L 990.8 -34.6 L 1004.3 -11.3 L 980.9 2.2 L 994.4 25.6 L 1017.8 12.1 Z" fill="#f7ef99" stroke="#5d675b" stroke-width="4"></path><path d="M 850.5 46.4 L 864 69.7 L 840.7 83.2 L 854.2 106.6 L 877.5 93.1 L 891 116.5 L 914.4 103 L 900.9 79.6 L 924.3 66.1 L 937.8 89.5 L 961.2 76 L 947.7 52.6 L 971.1 39.1 L 957.6 15.7 L 934.2 29.2 L 920.7 5.9 L 897.3 19.4 L 910.8 42.7 L 887.4 56.2 L 873.9 32.9 Z" fill="#abe188" stroke="#5d675b" stroke-width="4"></path><path d="M 920.7 5.9 L 897.3 19.4 L 910.8 42.7 L 887.4 56.2 L 873.9 32.9 L 850.5 46.4 L 837 23 L 860.4 9.5 L 846.9 -13.9 L 823.5 -0.4 L 810 -23.8 L 833.4 -37.3 L 819.9 -60.7 L 843.3 -74.2 L 856.8 -50.8 L 880.2 -64.3 L 893.7 -40.9 L 870.3 -27.4 L 883.8 -4 L 907.2 -17.5 Z" fill="#f7ef99" stroke="#5d675b" stroke-width="4"></path><path d="M 739.9 16.7 L 753.4 40.1 L 730 53.6 L 743.5 77 L 766.9 63.5 L 780.4 86.9 L 803.8 73.4 L 790.3 50 L 813.7 36.5 L 827.2 59.9 L 850.5 46.4 L 837 23 L 860.4 9.5 L 846.9 -13.9 L 823.5 -0.4 L 810 -23.8 L 786.7 -10.3 L 800.2 13.1 L 776.8 26.6 L 763.3 3.2 Z" fill="#abe188" stroke="#5d675b" stroke-width="4"></path><path d="M 810 -23.8 L 786.7 -10.3 L 800.2 13.1 L 776.8 26.6 L 763.3 3.2 L 739.9 16.7 L 726.4 -6.7 L 749.8 -20.2 L 736.3 -43.6 L 712.9 -30.1 L 699.4 -53.4 L 722.8 -66.9 L 709.3 -90.3 L 732.7 -103.8 L 746.2 -80.4 L 769.5 -93.9 L 783 -70.6 L 759.7 -57.1 L 773.2 -33.7 L 796.5 -47.2 Z" fill="#f7ef99" stroke="#5d675b" stroke-width="4"></path><path d="M 629.2 -12.9 L 642.7 10.4 L 619.4 23.9 L 632.9 47.3 L 656.2 33.8 L 669.7 57.2 L 693.1 43.7 L 679.6 20.3 L 703 6.8 L 716.5 30.2 L 739.9 16.7 L 726.4 -6.7 L 749.8 -20.2 L 736.3 -43.6 L 712.9 -30.1 L 699.4 -53.4 L 676 -39.9 L 689.5 -16.6 L 666.1 -3.1 L 652.6 -26.4 Z" fill="#abe188" stroke="#5d675b" stroke-width="4"></path><path d="M 699.4 -53.4 L 676 -39.9 L 689.5 -16.6 L 666.1 -3.1 L 652.6 -26.4 L 629.2 -12.9 L 615.7 -36.3 L 639.1 -49.8 L 625.6 -73.2 L 602.2 -59.7 L 588.7 -83.1 L 612.1 -96.6 L 598.6 -120 L 622 -133.5 L 635.5 -110.1 L 658.9 -123.6 L 672.4 -100.2 L 649 -86.7 L 662.5 -63.3 L 685.9 -76.8 Z" fill="#f7ef99" stroke="#5d675b" stroke-width="4"></path><path d="M 518.6 -42.6 L 532.1 -19.2 L 508.7 -5.7 L 522.2 17.7 L 545.6 4.2 L 559.1 27.6 L 582.5 14.1 L 569 -9.3 L 592.4 -22.8 L 605.9 0.6 L 629.2 -12.9 L 615.7 -36.3 L 639.1 -49.8 L 625.6 -73.2 L 602.2 -59.7 L 588.7 -83.1 L 565.4 -69.6 L 578.9 -46.2 L 555.5 -32.7 L 542 -56.1 Z" fill="#abe188" stroke="#5d675b" stroke-width="4"></path><path d="M 588.7 -83.1 L 565.4 -69.6 L 578.9 -46.2 L 555.5 -32.7 L 542 -56.1 L 518.6 -42.6 L 505.1 -66 L 528.5 -79.5 L 515 -102.9 L 491.6 -89.4 L 478.1 -112.7 L 501.5 -126.2 L 488 -149.6 L 511.4 -163.1 L 524.9 -139.7 L 548.2 -153.2 L 561.7 -129.9 L 538.4 -116.4 L 551.9 -93 L 575.2 -106.5 Z" fill="#f7ef99" stroke="#5d675b" stroke-width="4"></path><path d="M 407.9 -72.2 L 421.4 -48.9 L 398.1 -35.4 L 411.6 -12 L 434.9 -25.5 L 448.4 -2.1 L 471.8 -15.6 L 458.3 -39 L 481.7 -52.5 L 495.2 -29.1 L 518.6 -42.6 L 505.1 -66 L 528.5 -79.5 L 515 -102.9 L 491.6 -89.4 L 478.1 -112.7 L 454.7 -99.2 L 468.2 -75.9 L 444.8 -62.4 L 431.3 -85.7 Z" fill="#abe188" stroke="#5d675b" stroke-width="4"></path><path d="M 478.1 -112.7 L 454.7 -99.2 L 468.2 -75.9 L 444.8 -62.4 L 431.3 -85.7 L 407.9 -72.2 L 394.4 -95.6 L 417.8 -109.1 L 404.3 -132.5 L 380.9 -119 L 367.4 -142.4 L 390.8 -155.9 L 377.3 -179.3 L 400.7 -192.8 L 414.2 -169.4 L 437.6 -182.9 L 451.1 -159.5 L 427.7 -146 L 441.2 -122.6 L 464.6 -136.1 Z" fill="#f7ef99" stroke="#5d675b" stroke-width="4"></path><path d="M 297.3 -101.9 L 310.8 -78.5 L 287.4 -65 L 300.9 -41.6 L 324.3 -55.1 L 337.8 -31.7 L 361.2 -45.2 L 347.7 -68.6 L 371.1 -82.1 L 384.6 -58.7 L 407.9 -72.2 L 394.4 -95.6 L 417.8 -109.1 L 404.3 -132.5 L 380.9 -119 L 367.4 -142.4 L 344.1 -128.9 L 357.6 -105.5 L 334.2 -92 L 320.7 -115.4 Z" fill="#abe188" stroke="#5d675b" stroke-width="4"></path><path d="M 367.4 -142.4 L 344.1 -128.9 L 357.6 -105.5 L 334.2 -92 L 320.7 -115.4 L 297.3 -101.9 L 283.8 -125.3 L 307.2 -138.8 L 293.7 -162.2 L 270.3 -148.7 L 256.8 -172 L 280.2 -185.5 L 266.7 -208.9 L 290.1 -222.4 L 303.6 -199 L 326.9 -212.5 L 340.4 -189.2 L 317.1 -175.7 L 330.6 -152.3 L 353.9 -165.8 Z" fill="#f7ef99" stroke="#5d675b" stroke-width="4"></path><path d="M 186.6 -131.5 L 200.1 -108.2 L 176.8 -94.7 L 190.3 -71.3 L 213.6 -84.8 L 227.1 -61.4 L 250.5 -74.9 L 237 -98.3 L 260.4 -111.8 L 273.9 -88.4 L 297.3 -101.9 L 283.8 -125.3 L 307.2 -138.8 L 293.7 -162.2 L 270.3 -148.7 L 256.8 -172 L 233.4 -158.5 L 246.9 -135.2 L 223.5 -121.7 L 210 -145 Z" fill="#abe188" stroke="#5d675b" stroke-width="4"></path><path d="M 256.8 -172 L 233.4 -158.5 L 246.9 -135.2 L 223.5 -121.7 L 210 -145 L 186.6 -131.5 L 173.1 -154.9 L 196.5 -168.4 L 183 -191.8 L 159.6 -178.3 L 146.1 -201.7 L 169.5 -215.2 L 156 -238.6 L 179.4 -252.1 L 192.9 -228.7 L 216.3 -242.2 L 229.8 -218.8 L 206.4 -205.3 L 219.9 -181.9 L 243.3 -195.4 Z" fill="#f7ef99" stroke="#5d675b" stroke-width="4"></path><path d="M 76 -161.2 L 89.5 -137.8 L 66.1 -124.3 L 79.6 -100.9 L 103 -114.4 L 116.5 -91 L 139.9 -104.5 L 126.4 -127.9 L 149.8 -141.4 L 163.3 -118 L 186.6 -131.5 L 173.1 -154.9 L 196.5 -168.4 L 183 -191.8 L 159.6 -178.3 L 146.1 -201.7 L 122.8 -188.2 L 136.3 -164.8 L 112.9 -151.3 L 99.4 -174.7 Z" fill="#abe188" stroke="#5d675b" stroke-width="4"></path><path d="M 146.1 -201.7 L 122.8 -188.2 L 136.3 -164.8 L 112.9 -151.3 L 99.4 -174.7 L 76 -161.2 L 62.5 -184.6 L 85.9 -198.1 L 72.4 -221.4 L 49 -207.9 L 35.5 -231.3 L 58.9 -244.8 L 45.4 -268.2 L 68.8 -281.7 L 82.3 -258.3 L 105.6 -271.8 L 119.1 -248.4 L 95.8 -234.9 L 109.3 -211.6 L 132.6 -225.1 Z" fill="#f7ef99" stroke="#5d675b" stroke-width="4"></path><path d="M -34.6 -190.8 L -21.1 -167.4 L -44.5 -153.9 L -31 -130.6 L -7.6 -144.1 L 5.9 -120.7 L 29.2 -134.2 L 15.7 -157.6 L 39.1 -171.1 L 52.6 -147.7 L 76 -161.2 L 62.5 -184.6 L 85.9 -198.1 L 72.4 -221.4 L 49 -207.9 L 35.5 -231.3 L 12.1 -217.8 L 25.6 -194.4 L 2.2 -180.9 L -11.3 -204.3 Z" fill="#abe188" stroke="#5d675b" stroke-width="4"></path><path d="M 35.5 -231.3 L 12.1 -217.8 L 25.6 -194.4 L 2.2 -180.9 L -11.3 -204.3 L -34.6 -190.8 L -48.1 -214.2 L -24.8 -227.7 L -38.3 -251.1 L -61.6 -237.6 L -75.1 -261 L -51.8 -274.5 L -65.3 -297.9 L -41.9 -311.4 L -28.4 -288 L -5 -301.5 L 8.5 -278.1 L -14.9 -264.6 L -1.4 -241.2 L 22 -254.7 Z" fill="#f7ef99" stroke="#5d675b" stroke-width="4"></path><path d="M 1042.2 216.3 L 1055.7 239.7 L 1032.3 253.2 L 1045.8 276.6 L 1069.2 263.1 L 1082.7 286.4 L 1106.1 272.9 L 1092.6 249.6 L 1115.9 236.1 L 1129.4 259.4 L 1152.8 245.9 L 1139.3 222.6 L 1162.7 209.1 L 1149.2 185.7 L 1125.8 199.2 L 1112.3 175.8 L 1088.9 189.3 L 1102.4 212.7 L 1079.1 226.2 L 1065.6 202.8 Z" fill="#abe188" stroke="#5d675b" stroke-width="4"></path><path d="M 1112.3 175.8 L 1088.9 189.3 L 1102.4 212.7 L 1079.1 226.2 L 1065.6 202.8 L 1042.2 216.3 L 1028.7 192.9 L 1052.1 179.4 L 1038.6 156 L 1015.2 169.5 L 1001.7 146.1 L 1025.1 132.6 L 1011.6 109.3 L 1034.9 95.8 L 1048.4 119.1 L 1071.8 105.6 L 1085.3 129 L 1061.9 142.5 L 1075.4 165.9 L 1098.8 152.4 Z" fill="#f7ef99" stroke="#5d675b" stroke-width="4"></path><path d="M 931.5 186.6 L 945 210 L 921.7 223.5 L 935.2 246.9 L 958.5 233.4 L 972 256.8 L 995.4 243.3 L 981.9 219.9 L 1005.3 206.4 L 1018.8 229.8 L 1042.2 216.3 L 1028.7 192.9 L 1052.1 179.4 L 1038.6 156 L 1015.2 169.5 L 1001.7 146.1 L 978.3 159.6 L 991.8 183 L 968.4 196.5 L 954.9 173.1 Z" fill="#abe188" stroke="#5d675b" stroke-width="4"></path><path d="M 1001.7 146.1 L 978.3 159.6 L 991.8 183 L 968.4 196.5 L 954.9 173.1 L 931.5 186.6 L 918 163.3 L 941.4 149.8 L 927.9 126.4 L 904.5 139.9 L 891 116.5 L 914.4 103 L 900.9 79.6 L 924.3 66.1 L 937.8 89.5 L 961.2 76 L 974.7 99.4 L 951.3 112.9 L 964.8 136.3 L 988.2 122.8 Z" fill="#f7ef99" stroke="#5d675b" stroke-width="4"></path><path d="M 820.9 157 L 834.4 180.4 L 811 193.9 L 824.5 217.3 L 847.9 203.8 L 861.4 227.1 L 884.8 213.6 L 871.3 190.3 L 894.7 176.8 L 908.2 200.1 L 931.5 186.6 L 918 163.3 L 941.4 149.8 L 927.9 126.4 L 904.5 139.9 L 891 116.5 L 867.7 130 L 881.2 153.4 L 857.8 166.9 L 844.3 143.5 Z" fill="#abe188" stroke="#5d675b" stroke-width="4"></path><path d="M 891 116.5 L 867.7 130 L 881.2 153.4 L 857.8 166.9 L 844.3 143.5 L 820.9 157 L 807.4 133.6 L 830.8 120.1 L 817.3 96.7 L 793.9 110.2 L 780.4 86.9 L 803.8 73.4 L 790.3 50 L 813.7 36.5 L 827.2 59.9 L 850.5 46.4 L 864 69.7 L 840.7 83.2 L 854.2 106.6 L 877.5 93.1 Z" fill="#f7ef99" stroke="#5d675b" stroke-width="4"></path><path d="M 710.2 127.4 L 723.7 150.7 L 700.4 164.2 L 713.9 187.6 L 737.2 174.1 L 750.7 197.5 L 774.1 184 L 760.6 160.6 L 784 147.1 L 797.5 170.5 L 820.9 157 L 807.4 133.6 L 830.8 120.1 L 817.3 96.7 L 793.9 110.2 L 780.4 86.9 L 757 100.4 L 770.5 123.7 L 747.1 137.2 L 733.6 113.9 Z" fill="#abe188" stroke="#5d675b" stroke-width="4"></path><path d="M 780.4 86.9 L 757 100.4 L 770.5 123.7 L 747.1 137.2 L 733.6 113.9 L 710.2 127.4 L 696.7 104 L 720.1 90.5 L 706.6 67.1 L 683.2 80.6 L 669.7 57.2 L 693.1 43.7 L 679.6 20.3 L 703 6.8 L 716.5 30.2 L 739.9 16.7 L 753.4 40.1 L 730 53.6 L 743.5 77 L 766.9 63.5 Z" fill="#f7ef99" stroke="#5d675b" stroke-width="4"></path><path d="M 599.6 97.7 L 613.1 121.1 L 589.7 134.6 L 603.2 158 L 626.6 144.5 L 640.1 167.9 L 663.5 154.4 L 650 131 L 673.4 117.5 L 686.9 140.9 L 710.2 127.4 L 696.7 104 L 720.1 90.5 L 706.6 67.1 L 683.2 80.6 L 669.7 57.2 L 646.4 70.7 L 659.9 94.1 L 636.5 107.6 L 623 84.2 Z" fill="#abe188" stroke="#5d675b" stroke-width="4"></path><path d="M 669.7 57.2 L 646.4 70.7 L 659.9 94.1 L 636.5 107.6 L 623 84.2 L 599.6 97.7 L 586.1 74.3 L 609.5 60.8 L 596 37.4 L 572.6 50.9 L 559.1 27.6 L 582.5 14.1 L 569 -9.3 L 592.4 -22.8 L 605.9 0.6 L 629.2 -12.9 L 642.7 10.4 L 619.4 23.9 L 632.9 47.3 L 656.2 33.8 Z" fill="#f7ef99" stroke="#5d675b" stroke-width="4"></path><path d="M 488.9 68.1 L 502.4 91.4 L 479.1 104.9 L 492.6 128.3 L 515.9 114.8 L 529.4 138.2 L 552.8 124.7 L 539.3 101.3 L 562.7 87.8 L 576.2 111.2 L 599.6 97.7 L 586.1 74.3 L 609.5 60.8 L 596 37.4 L 572.6 50.9 L 559.1 27.6 L 535.7 41.1 L 549.2 64.4 L 525.8 77.9 L 512.3 54.6 Z" fill="#abe188" stroke="#5d675b" stroke-width="4"></path><path d="M 559.1 27.6 L 535.7 41.1 L 549.2 64.4 L 525.8 77.9 L 512.3 54.6 L 488.9 68.1 L 475.4 44.7 L 498.8 31.2 L 485.3 7.8 L 461.9 21.3 L 448.4 -2.1 L 471.8 -15.6 L 458.3 -39 L 481.7 -52.5 L 495.2 -29.1 L 518.6 -42.6 L 532.1 -19.2 L 508.7 -5.7 L 522.2 17.7 L 545.6 4.2 Z" fill="#f7ef99" stroke="#5d675b" stroke-width="4"></path><path d="M 378.3 38.4 L 391.8 61.8 L 368.4 75.3 L 381.9 98.7 L 405.3 85.2 L 418.8 108.6 L 442.2 95.1 L 428.7 71.7 L 452.1 58.2 L 465.6 81.6 L 488.9 68.1 L 475.4 44.7 L 498.8 31.2 L 485.3 7.8 L 461.9 21.3 L 448.4 -2.1 L 425.1 11.4 L 438.6 34.8 L 415.2 48.3 L 401.7 24.9 Z" fill="#abe188" stroke="#5d675b" stroke-width="4"></path><path d="M 448.4 -2.1 L 425.1 11.4 L 438.6 34.8 L 415.2 48.3 L 401.7 24.9 L 378.3 38.4 L 364.8 15 L 388.2 1.5 L 374.7 -21.9 L 351.3 -8.4 L 337.8 -31.7 L 361.2 -45.2 L 347.7 -68.6 L 371.1 -82.1 L 384.6 -58.7 L 407.9 -72.2 L 421.4 -48.9 L 398.1 -35.4 L 411.6 -12 L 434.9 -25.5 Z" fill="#f7ef99" stroke="#5d675b" stroke-width="4"></path><path d="M 267.6 8.8 L 281.1 32.1 L 257.8 45.6 L 271.3 69 L 294.6 55.5 L 308.1 78.9 L 331.5 65.4 L 318 42 L 341.4 28.5 L 354.9 51.9 L 378.3 38.4 L 364.8 15 L 388.2 1.5 L 374.7 -21.9 L 351.3 -8.4 L 337.8 -31.7 L 314.4 -18.2 L 327.9 5.1 L 304.5 18.6 L 291 -4.7 Z" fill="#abe188" stroke="#5d675b" stroke-width="4"></path><path d="M 337.8 -31.7 L 314.4 -18.2 L 327.9 5.1 L 304.5 18.6 L 291 -4.7 L 267.6 8.8 L 254.1 -14.6 L 277.5 -28.1 L 264 -51.5 L 240.6 -38 L 227.1 -61.4 L 250.5 -74.9 L 237 -98.3 L 260.4 -111.8 L 273.9 -88.4 L 297.3 -101.9 L 310.8 -78.5 L 287.4 -65 L 300.9 -41.6 L 324.3 -55.1 Z" fill="#f7ef99" stroke="#5d675b" stroke-width="4"></path><path d="M 157 -20.9 L 170.5 2.5 L 147.1 16 L 160.6 39.4 L 184 25.9 L 197.5 49.3 L 220.9 35.8 L 207.4 12.4 L 230.8 -1.1 L 244.3 22.3 L 267.6 8.8 L 254.1 -14.6 L 277.5 -28.1 L 264 -51.5 L 240.6 -38 L 227.1 -61.4 L 203.8 -47.9 L 217.3 -24.5 L 193.9 -11 L 180.4 -34.4 Z" fill="#abe188" stroke="#5d675b" stroke-width="4"></path><path d="M 227.1 -61.4 L 203.8 -47.9 L 217.3 -24.5 L 193.9 -11 L 180.4 -34.4 L 157 -20.9 L 143.5 -44.3 L 166.9 -57.8 L 153.4 -81.2 L 130 -67.7 L 116.5 -91 L 139.9 -104.5 L 126.4 -127.9 L 149.8 -141.4 L 163.3 -118 L 186.6 -131.5 L 200.1 -108.2 L 176.8 -94.7 L 190.3 -71.3 L 213.6 -84.8 Z" fill="#f7ef99" stroke="#5d675b" stroke-width="4"></path><path d="M 46.4 -50.5 L 59.9 -27.2 L 36.5 -13.7 L 50 9.7 L 73.4 -3.8 L 86.9 19.6 L 110.2 6.1 L 96.7 -17.3 L 120.1 -30.8 L 133.6 -7.4 L 157 -20.9 L 143.5 -44.3 L 166.9 -57.8 L 153.4 -81.2 L 130 -67.7 L 116.5 -91 L 93.1 -77.5 L 106.6 -54.2 L 83.2 -40.7 L 69.7 -64 Z" fill="#abe188" stroke="#5d675b" stroke-width="4"></path><path d="M 116.5 -91 L 93.1 -77.5 L 106.6 -54.2 L 83.2 -40.7 L 69.7 -64 L 46.4 -50.5 L 32.9 -73.9 L 56.2 -87.4 L 42.7 -110.8 L 19.4 -97.3 L 5.9 -120.7 L 29.2 -134.2 L 15.7 -157.6 L 39.1 -171.1 L 52.6 -147.7 L 76 -161.2 L 89.5 -137.8 L 66.1 -124.3 L 79.6 -100.9 L 103 -114.4 Z" fill="#f7ef99" stroke="#5d675b" stroke-width="4"></path><path d="M -64.3 -80.2 L -50.8 -56.8 L -74.2 -43.3 L -60.7 -19.9 L -37.3 -33.4 L -23.8 -10 L -0.4 -23.5 L -13.9 -46.9 L 9.5 -60.4 L 23 -37 L 46.4 -50.5 L 32.9 -73.9 L 56.2 -87.4 L 42.7 -110.8 L 19.4 -97.3 L 5.9 -120.7 L -17.5 -107.2 L -4 -83.8 L -27.4 -70.3 L -40.9 -93.7 Z" fill="#abe188" stroke="#5d675b" stroke-width="4"></path><path d="M 5.9 -120.7 L -17.5 -107.2 L -4 -83.8 L -27.4 -70.3 L -40.9 -93.7 L -64.3 -80.2 L -77.8 -103.6 L -54.4 -117.1 L -67.9 -140.4 L -91.3 -126.9 L -104.8 -150.3 L -81.4 -163.8 L -94.9 -187.2 L -71.5 -200.7 L -58 -177.3 L -34.6 -190.8 L -21.1 -167.4 L -44.5 -153.9 L -31 -130.6 L -7.6 -144.1 Z" fill="#f7ef99" stroke="#5d675b" stroke-width="4"></path><path d="M 1012.5 326.9 L 1026 350.3 L 1002.7 363.8 L 1016.2 387.2 L 1039.5 373.7 L 1053 397.1 L 1076.4 383.6 L 1062.9 360.2 L 1086.3 346.7 L 1099.8 370.1 L 1123.2 356.6 L 1109.7 333.2 L 1133.1 319.7 L 1119.6 296.3 L 1096.2 309.8 L 1082.7 286.4 L 1059.3 299.9 L 1072.8 323.3 L 1049.4 336.8 L 1035.9 313.4 Z" fill="#abe188" stroke="#5d675b" stroke-width="4"></path><path d="M 1082.7 286.4 L 1059.3 299.9 L 1072.8 323.3 L 1049.4 336.8 L 1035.9 313.4 L 1012.5 326.9 L 999 303.6 L 1022.4 290.1 L 1008.9 266.7 L 985.5 280.2 L 972 256.8 L 995.4 243.3 L 981.9 219.9 L 1005.3 206.4 L 1018.8 229.8 L 1042.2 216.3 L 1055.7 239.7 L 1032.3 253.2 L 1045.8 276.6 L 1069.2 263.1 Z" fill="#f7ef99" stroke="#5d675b" stroke-width="4"></path><path d="M 901.9 297.3 L 915.4 320.7 L 892 334.2 L 905.5 357.6 L 928.9 344.1 L 942.4 367.4 L 965.8 353.9 L 952.3 330.6 L 975.7 317.1 L 989.2 340.4 L 1012.5 326.9 L 999 303.6 L 1022.4 290.1 L 1008.9 266.7 L 985.5 280.2 L 972 256.8 L 948.7 270.3 L 962.2 293.7 L 938.8 307.2 L 925.3 283.8 Z" fill="#abe188" stroke="#5d675b" stroke-width="4"></path><path d="M 972 256.8 L 948.7 270.3 L 962.2 293.7 L 938.8 307.2 L 925.3 283.8 L 901.9 297.3 L 888.4 273.9 L 911.8 260.4 L 898.3 237 L 874.9 250.5 L 861.4 227.1 L 884.8 213.6 L 871.3 190.3 L 894.7 176.8 L 908.2 200.1 L 931.5 186.6 L 945 210 L 921.7 223.5 L 935.2 246.9 L 958.5 233.4 Z" fill="#f7ef99" stroke="#5d675b" stroke-width="4"></path><path d="M 791.2 267.6 L 804.7 291 L 781.4 304.5 L 794.9 327.9 L 818.2 314.4 L 831.7 337.8 L 855.1 324.3 L 841.6 300.9 L 865 287.4 L 878.5 310.8 L 901.9 297.3 L 888.4 273.9 L 911.8 260.4 L 898.3 237 L 874.9 250.5 L 861.4 227.1 L 838 240.6 L 851.5 264 L 828.1 277.5 L 814.6 254.1 Z" fill="#abe188" stroke="#5d675b" stroke-width="4"></path><path d="M 861.4 227.1 L 838 240.6 L 851.5 264 L 828.1 277.5 L 814.6 254.1 L 791.2 267.6 L 777.7 244.3 L 801.1 230.8 L 787.6 207.4 L 764.2 220.9 L 750.7 197.5 L 774.1 184 L 760.6 160.6 L 784 147.1 L 797.5 170.5 L 820.9 157 L 834.4 180.4 L 811 193.9 L 824.5 217.3 L 847.9 203.8 Z" fill="#f7ef99" stroke="#5d675b" stroke-width="4"></path><path d="M 680.6 238 L 694.1 261.4 L 670.7 274.9 L 684.2 298.3 L 707.6 284.8 L 721.1 308.1 L 744.5 294.6 L 731 271.3 L 754.4 257.8 L 767.9 281.1 L 791.2 267.6 L 777.7 244.3 L 801.1 230.8 L 787.6 207.4 L 764.2 220.9 L 750.7 197.5 L 727.4 211 L 740.9 234.4 L 717.5 247.9 L 704 224.5 Z" fill="#abe188" stroke="#5d675b" stroke-width="4"></path><path d="M 750.7 197.5 L 727.4 211 L 740.9 234.4 L 717.5 247.9 L 704 224.5 L 680.6 238 L 667.1 214.6 L 690.5 201.1 L 677 177.7 L 653.6 191.2 L 640.1 167.9 L 663.5 154.4 L 650 131 L 673.4 117.5 L 686.9 140.9 L 710.2 127.4 L 723.7 150.7 L 700.4 164.2 L 713.9 187.6 L 737.2 174.1 Z" fill="#f7ef99" stroke="#5d675b" stroke-width="4"></path><path d="M 569.9 208.4 L 583.4 231.7 L 560.1 245.2 L 573.6 268.6 L 596.9 255.1 L 610.4 278.5 L 633.8 265 L 620.3 241.6 L 643.7 228.1 L 657.2 251.5 L 680.6 238 L 667.1 214.6 L 690.5 201.1 L 677 177.7 L 653.6 191.2 L 640.1 167.9 L 616.7 181.4 L 630.2 204.7 L 606.8 218.2 L 593.3 194.9 Z" fill="#abe188" stroke="#5d675b" stroke-width="4"></path><path d="M 640.1 167.9 L 616.7 181.4 L 630.2 204.7 L 606.8 218.2 L 593.3 194.9 L 569.9 208.4 L 556.4 185 L 579.8 171.5 L 566.3 148.1 L 542.9 161.6 L 529.4 138.2 L 552.8 124.7 L 539.3 101.3 L 562.7 87.8 L 576.2 111.2 L 599.6 97.7 L 613.1 121.1 L 589.7 134.6 L 603.2 158 L 626.6 144.5 Z" fill="#f7ef99" stroke="#5d675b" stroke-width="4"></path><path d="M 459.3 178.7 L 472.8 202.1 L 449.4 215.6 L 462.9 239 L 486.3 225.5 L 499.8 248.9 L 523.2 235.4 L 509.7 212 L 533.1 198.5 L 546.6 221.9 L 569.9 208.4 L 556.4 185 L 579.8 171.5 L 566.3 148.1 L 542.9 161.6 L 529.4 138.2 L 506.1 151.7 L 519.6 175.1 L 496.2 188.6 L 482.7 165.2 Z" fill="#abe188" stroke="#5d675b" stroke-width="4"></path><path d="M 529.4 138.2 L 506.1 151.7 L 519.6 175.1 L 496.2 188.6 L 482.7 165.2 L 459.3 178.7 L 445.8 155.3 L 469.2 141.8 L 455.7 118.4 L 432.3 131.9 L 418.8 108.6 L 442.2 95.1 L 428.7 71.7 L 452.1 58.2 L 465.6 81.6 L 488.9 68.1 L 502.4 91.4 L 479.1 104.9 L 492.6 128.3 L 515.9 114.8 Z" fill="#f7ef99" stroke="#5d675b" stroke-width="4"></path><path d="M 348.6 149.1 L 362.1 172.4 L 338.8 185.9 L 352.3 209.3 L 375.6 195.8 L 389.1 219.2 L 412.5 205.7 L 399 182.3 L 422.4 168.8 L 435.9 192.2 L 459.3 178.7 L 445.8 155.3 L 469.2 141.8 L 455.7 118.4 L 432.3 131.9 L 418.8 108.6 L 395.4 122.1 L 408.9 145.4 L 385.5 158.9 L 372 135.6 Z" fill="#abe188" stroke="#5d675b" stroke-width="4"></path><path d="M 418.8 108.6 L 395.4 122.1 L 408.9 145.4 L 385.5 158.9 L 372 135.6 L 348.6 149.1 L 335.1 125.7 L 358.5 112.2 L 345 88.8 L 321.6 102.3 L 308.1 78.9 L 331.5 65.4 L 318 42 L 341.4 28.5 L 354.9 51.9 L 378.3 38.4 L 391.8 61.8 L 368.4 75.3 L 381.9 98.7 L 405.3 85.2 Z" fill="#f7ef99" stroke="#5d675b" stroke-width="4"></path><path d="M 238 119.4 L 251.5 142.8 L 228.1 156.3 L 241.6 179.7 L 265 166.2 L 278.5 189.6 L 301.9 176.1 L 288.4 152.7 L 311.8 139.2 L 325.3 162.6 L 348.6 149.1 L 335.1 125.7 L 358.5 112.2 L 345 88.8 L 321.6 102.3 L 308.1 78.9 L 284.8 92.4 L 298.3 115.8 L 274.9 129.3 L 261.4 105.9 Z" fill="#abe188" stroke="#5d675b" stroke-width="4"></path><path d="M 308.1 78.9 L 284.8 92.4 L 298.3 115.8 L 274.9 129.3 L 261.4 105.9 L 238 119.4 L 224.5 96 L 247.9 82.5 L 234.4 59.1 L 211 72.6 L 197.5 49.3 L 220.9 35.8 L 207.4 12.4 L 230.8 -1.1 L 244.3 22.3 L 267.6 8.8 L 281.1 32.1 L 257.8 45.6 L 271.3 69 L 294.6 55.5 Z" fill="#f7ef99" stroke="#5d675b" stroke-width="4"></path><path d="M 127.4 89.8 L 140.9 113.1 L 117.5 126.6 L 131 150 L 154.4 136.5 L 167.9 159.9 L 191.2 146.4 L 177.7 123 L 201.1 109.5 L 214.6 132.9 L 238 119.4 L 224.5 96 L 247.9 82.5 L 234.4 59.1 L 211 72.6 L 197.5 49.3 L 174.1 62.8 L 187.6 86.1 L 164.2 99.6 L 150.7 76.3 Z" fill="#abe188" stroke="#5d675b" stroke-width="4"></path><path d="M 197.5 49.3 L 174.1 62.8 L 187.6 86.1 L 164.2 99.6 L 150.7 76.3 L 127.4 89.8 L 113.9 66.4 L 137.2 52.9 L 123.7 29.5 L 100.4 43 L 86.9 19.6 L 110.2 6.1 L 96.7 -17.3 L 120.1 -30.8 L 133.6 -7.4 L 157 -20.9 L 170.5 2.5 L 147.1 16 L 160.6 39.4 L 184 25.9 Z" fill="#f7ef99" stroke="#5d675b" stroke-width="4"></path><path d="M 16.7 60.1 L 30.2 83.5 L 6.8 97 L 20.3 120.4 L 43.7 106.9 L 57.2 130.3 L 80.6 116.8 L 67.1 93.4 L 90.5 79.9 L 104 103.3 L 127.4 89.8 L 113.9 66.4 L 137.2 52.9 L 123.7 29.5 L 100.4 43 L 86.9 19.6 L 63.5 33.1 L 77 56.5 L 53.6 70 L 40.1 46.6 Z" fill="#abe188" stroke="#5d675b" stroke-width="4"></path><path d="M 86.9 19.6 L 63.5 33.1 L 77 56.5 L 53.6 70 L 40.1 46.6 L 16.7 60.1 L 3.2 36.7 L 26.6 23.2 L 13.1 -0.2 L -10.3 13.3 L -23.8 -10 L -0.4 -23.5 L -13.9 -46.9 L 9.5 -60.4 L 23 -37 L 46.4 -50.5 L 59.9 -27.2 L 36.5 -13.7 L 50 9.7 L 73.4 -3.8 Z" fill="#f7ef99" stroke="#5d675b" stroke-width="4"></path><path d="M -93.9 30.5 L -80.4 53.8 L -103.8 67.3 L -90.3 90.7 L -66.9 77.2 L -53.4 100.6 L -30.1 87.1 L -43.6 63.7 L -20.2 50.2 L -6.7 73.6 L 16.7 60.1 L 3.2 36.7 L 26.6 23.2 L 13.1 -0.2 L -10.3 13.3 L -23.8 -10 L -47.2 3.5 L -33.7 26.8 L -57.1 40.3 L -70.6 17 Z" fill="#abe188" stroke="#5d675b" stroke-width="4"></path><path d="M -23.8 -10 L -47.2 3.5 L -33.7 26.8 L -57.1 40.3 L -70.6 17 L -93.9 30.5 L -107.4 7.1 L -84.1 -6.4 L -97.6 -29.8 L -120.9 -16.3 L -134.4 -39.7 L -111.1 -53.2 L -124.6 -76.6 L -101.2 -90.1 L -87.7 -66.7 L -64.3 -80.2 L -50.8 -56.8 L -74.2 -43.3 L -60.7 -19.9 L -37.3 -33.4 Z" fill="#f7ef99" stroke="#5d675b" stroke-width="4"></path><path d="M 982.9 437.6 L 996.4 461 L 973 474.5 L 986.5 497.9 L 1009.9 484.4 L 1023.4 507.7 L 1046.8 494.2 L 1033.3 470.9 L 1056.7 457.4 L 1070.2 480.7 L 1093.5 467.2 L 1080 443.9 L 1103.4 430.4 L 1089.9 407 L 1066.5 420.5 L 1053 397.1 L 1029.7 410.6 L 1043.2 434 L 1019.8 447.5 L 1006.3 424.1 Z" fill="#abe188" stroke="#5d675b" stroke-width="4"></path><path d="M 1053 397.1 L 1029.7 410.6 L 1043.2 434 L 1019.8 447.5 L 1006.3 424.1 L 982.9 437.6 L 969.4 414.2 L 992.8 400.7 L 979.3 377.3 L 955.9 390.8 L 942.4 367.4 L 965.8 353.9 L 952.3 330.6 L 975.7 317.1 L 989.2 340.4 L 1012.5 326.9 L 1026 350.3 L 1002.7 363.8 L 1016.2 387.2 L 1039.5 373.7 Z" fill="#f7ef99" stroke="#5d675b" stroke-width="4"></path><path d="M 872.2 407.9 L 885.7 431.3 L 862.4 444.8 L 875.9 468.2 L 899.2 454.7 L 912.7 478.1 L 936.1 464.6 L 922.6 441.2 L 946 427.7 L 959.5 451.1 L 982.9 437.6 L 969.4 414.2 L 992.8 400.7 L 979.3 377.3 L 955.9 390.8 L 942.4 367.4 L 919 380.9 L 932.5 404.3 L 909.1 417.8 L 895.6 394.4 Z" fill="#abe188" stroke="#5d675b" stroke-width="4"></path><path d="M 942.4 367.4 L 919 380.9 L 932.5 404.3 L 909.1 417.8 L 895.6 394.4 L 872.2 407.9 L 858.7 384.6 L 882.1 371.1 L 868.6 347.7 L 845.2 361.2 L 831.7 337.8 L 855.1 324.3 L 841.6 300.9 L 865 287.4 L 878.5 310.8 L 901.9 297.3 L 915.4 320.7 L 892 334.2 L 905.5 357.6 L 928.9 344.1 Z" fill="#f7ef99" stroke="#5d675b" stroke-width="4"></path><path d="M 761.6 378.3 L 775.1 401.7 L 751.7 415.2 L 765.2 438.6 L 788.6 425.1 L 802.1 448.4 L 825.5 434.9 L 812 411.6 L 835.4 398.1 L 848.9 421.4 L 872.2 407.9 L 858.7 384.6 L 882.1 371.1 L 868.6 347.7 L 845.2 361.2 L 831.7 337.8 L 808.4 351.3 L 821.9 374.7 L 798.5 388.2 L 785 364.8 Z" fill="#abe188" stroke="#5d675b" stroke-width="4"></path><path d="M 831.7 337.8 L 808.4 351.3 L 821.9 374.7 L 798.5 388.2 L 785 364.8 L 761.6 378.3 L 748.1 354.9 L 771.5 341.4 L 758 318 L 734.6 331.5 L 721.1 308.1 L 744.5 294.6 L 731 271.3 L 754.4 257.8 L 767.9 281.1 L 791.2 267.6 L 804.7 291 L 781.4 304.5 L 794.9 327.9 L 818.2 314.4 Z" fill="#f7ef99" stroke="#5d675b" stroke-width="4"></path><path d="M 650.9 348.6 L 664.4 372 L 641.1 385.5 L 654.6 408.9 L 677.9 395.4 L 691.4 418.8 L 714.8 405.3 L 701.3 381.9 L 724.7 368.4 L 738.2 391.8 L 761.6 378.3 L 748.1 354.9 L 771.5 341.4 L 758 318 L 734.6 331.5 L 721.1 308.1 L 697.7 321.6 L 711.2 345 L 687.8 358.5 L 674.3 335.1 Z" fill="#abe188" stroke="#5d675b" stroke-width="4"></path><path d="M 721.1 308.1 L 697.7 321.6 L 711.2 345 L 687.8 358.5 L 674.3 335.1 L 650.9 348.6 L 637.4 325.3 L 660.8 311.8 L 647.3 288.4 L 623.9 301.9 L 610.4 278.5 L 633.8 265 L 620.3 241.6 L 643.7 228.1 L 657.2 251.5 L 680.6 238 L 694.1 261.4 L 670.7 274.9 L 684.2 298.3 L 707.6 284.8 Z" fill="#f7ef99" stroke="#5d675b" stroke-width="4"></path><path d="M 540.3 319 L 553.8 342.4 L 530.4 355.9 L 543.9 379.3 L 567.3 365.8 L 580.8 389.1 L 604.2 375.6 L 590.7 352.3 L 614.1 338.8 L 627.6 362.1 L 650.9 348.6 L 637.4 325.3 L 660.8 311.8 L 647.3 288.4 L 623.9 301.9 L 610.4 278.5 L 587.1 292 L 600.6 315.4 L 577.2 328.9 L 563.7 305.5 Z" fill="#abe188" stroke="#5d675b" stroke-width="4"></path><path d="M 610.4 278.5 L 587.1 292 L 600.6 315.4 L 577.2 328.9 L 563.7 305.5 L 540.3 319 L 526.8 295.6 L 550.2 282.1 L 536.7 258.7 L 513.3 272.2 L 499.8 248.9 L 523.2 235.4 L 509.7 212 L 533.1 198.5 L 546.6 221.9 L 569.9 208.4 L 583.4 231.7 L 560.1 245.2 L 573.6 268.6 L 596.9 255.1 Z" fill="#f7ef99" stroke="#5d675b" stroke-width="4"></path><path d="M 429.6 289.4 L 443.1 312.7 L 419.8 326.2 L 433.3 349.6 L 456.6 336.1 L 470.1 359.5 L 493.5 346 L 480 322.6 L 503.4 309.1 L 516.9 332.5 L 540.3 319 L 526.8 295.6 L 550.2 282.1 L 536.7 258.7 L 513.3 272.2 L 499.8 248.9 L 476.4 262.4 L 489.9 285.7 L 466.5 299.2 L 453 275.9 Z" fill="#abe188" stroke="#5d675b" stroke-width="4"></path><path d="M 499.8 248.9 L 476.4 262.4 L 489.9 285.7 L 466.5 299.2 L 453 275.9 L 429.6 289.4 L 416.1 266 L 439.5 252.5 L 426 229.1 L 402.6 242.6 L 389.1 219.2 L 412.5 205.7 L 399 182.3 L 422.4 168.8 L 435.9 192.2 L 459.3 178.7 L 472.8 202.1 L 449.4 215.6 L 462.9 239 L 486.3 225.5 Z" fill="#f7ef99" stroke="#5d675b" stroke-width="4"></path><path d="M 319 259.7 L 332.5 283.1 L 309.1 296.6 L 322.6 320 L 346 306.5 L 359.5 329.9 L 382.9 316.4 L 369.4 293 L 392.8 279.5 L 406.3 302.9 L 429.6 289.4 L 416.1 266 L 439.5 252.5 L 426 229.1 L 402.6 242.6 L 389.1 219.2 L 365.8 232.7 L 379.3 256.1 L 355.9 269.6 L 342.4 246.2 Z" fill="#abe188" stroke="#5d675b" stroke-width="4"></path><path d="M 389.1 219.2 L 365.8 232.7 L 379.3 256.1 L 355.9 269.6 L 342.4 246.2 L 319 259.7 L 305.5 236.3 L 328.9 222.8 L 315.4 199.4 L 292 212.9 L 278.5 189.6 L 301.9 176.1 L 288.4 152.7 L 311.8 139.2 L 325.3 162.6 L 348.6 149.1 L 362.1 172.4 L 338.8 185.9 L 352.3 209.3 L 375.6 195.8 Z" fill="#f7ef99" stroke="#5d675b" stroke-width="4"></path><path d="M 208.4 230.1 L 221.9 253.4 L 198.5 266.9 L 212 290.3 L 235.4 276.8 L 248.9 300.2 L 272.2 286.7 L 258.7 263.3 L 282.1 249.8 L 295.6 273.2 L 319 259.7 L 305.5 236.3 L 328.9 222.8 L 315.4 199.4 L 292 212.9 L 278.5 189.6 L 255.1 203.1 L 268.6 226.4 L 245.2 239.9 L 231.7 216.6 Z" fill="#abe188" stroke="#5d675b" stroke-width="4"></path><path d="M 278.5 189.6 L 255.1 203.1 L 268.6 226.4 L 245.2 239.9 L 231.7 216.6 L 208.4 230.1 L 194.9 206.7 L 218.2 193.2 L 204.7 169.8 L 181.4 183.3 L 167.9 159.9 L 191.2 146.4 L 177.7 123 L 201.1 109.5 L 214.6 132.9 L 238 119.4 L 251.5 142.8 L 228.1 156.3 L 241.6 179.7 L 265 166.2 Z" fill="#f7ef99" stroke="#5d675b" stroke-width="4"></path><path d="M 97.7 200.4 L 111.2 223.8 L 87.8 237.3 L 101.3 260.7 L 124.7 247.2 L 138.2 270.6 L 161.6 257.1 L 148.1 233.7 L 171.5 220.2 L 185 243.6 L 208.4 230.1 L 194.9 206.7 L 218.2 193.2 L 204.7 169.8 L 181.4 183.3 L 167.9 159.9 L 144.5 173.4 L 158 196.8 L 134.6 210.3 L 121.1 186.9 Z" fill="#abe188" stroke="#5d675b" stroke-width="4"></path><path d="M 167.9 159.9 L 144.5 173.4 L 158 196.8 L 134.6 210.3 L 121.1 186.9 L 97.7 200.4 L 84.2 177 L 107.6 163.5 L 94.1 140.1 L 70.7 153.6 L 57.2 130.3 L 80.6 116.8 L 67.1 93.4 L 90.5 79.9 L 104 103.3 L 127.4 89.8 L 140.9 113.1 L 117.5 126.6 L 131 150 L 154.4 136.5 Z" fill="#f7ef99" stroke="#5d675b" stroke-width="4"></path><path d="M -12.9 170.8 L 0.6 194.1 L -22.8 207.6 L -9.3 231 L 14.1 217.5 L 27.6 240.9 L 50.9 227.4 L 37.4 204 L 60.8 190.5 L 74.3 213.9 L 97.7 200.4 L 84.2 177 L 107.6 163.5 L 94.1 140.1 L 70.7 153.6 L 57.2 130.3 L 33.8 143.8 L 47.3 167.1 L 23.9 180.6 L 10.4 157.3 Z" fill="#abe188" stroke="#5d675b" stroke-width="4"></path><path d="M 57.2 130.3 L 33.8 143.8 L 47.3 167.1 L 23.9 180.6 L 10.4 157.3 L -12.9 170.8 L -26.4 147.4 L -3.1 133.9 L -16.6 110.5 L -39.9 124 L -53.4 100.6 L -30.1 87.1 L -43.6 63.7 L -20.2 50.2 L -6.7 73.6 L 16.7 60.1 L 30.2 83.5 L 6.8 97 L 20.3 120.4 L 43.7 106.9 Z" fill="#f7ef99" stroke="#5d675b" stroke-width="4"></path><path d="M -123.6 141.1 L -110.1 164.5 L -133.5 178 L -120 201.4 L -96.6 187.9 L -83.1 211.3 L -59.7 197.8 L -73.2 174.4 L -49.8 160.9 L -36.3 184.3 L -12.9 170.8 L -26.4 147.4 L -3.1 133.9 L -16.6 110.5 L -39.9 124 L -53.4 100.6 L -76.8 114.1 L -63.3 137.5 L -86.7 151 L -100.2 127.6 Z" fill="#abe188" stroke="#5d675b" stroke-width="4"></path><path d="M -53.4 100.6 L -76.8 114.1 L -63.3 137.5 L -86.7 151 L -100.2 127.6 L -123.6 141.1 L -137.1 117.7 L -113.7 104.2 L -127.2 80.8 L -150.6 94.3 L -164.1 71 L -140.7 57.5 L -154.2 34.1 L -130.8 20.6 L -117.3 44 L -93.9 30.5 L -80.4 53.8 L -103.8 67.3 L -90.3 90.7 L -66.9 77.2 Z" fill="#f7ef99" stroke="#5d675b" stroke-width="4"></path><path d="M 953.2 548.2 L 966.7 571.6 L 943.4 585.1 L 956.9 608.5 L 980.2 595 L 993.7 618.4 L 1017.1 604.9 L 1003.6 581.5 L 1027 568 L 1040.5 591.4 L 1063.9 577.9 L 1050.4 554.5 L 1073.8 541 L 1060.3 517.6 L 1036.9 531.1 L 1023.4 507.7 L 1000 521.2 L 1013.5 544.6 L 990.1 558.1 L 976.6 534.7 Z" fill="#abe188" stroke="#5d675b" stroke-width="4"></path><path d="M 1023.4 507.7 L 1000 521.2 L 1013.5 544.6 L 990.1 558.1 L 976.6 534.7 L 953.2 548.2 L 939.7 524.9 L 963.1 511.4 L 949.6 488 L 926.2 501.5 L 912.7 478.1 L 936.1 464.6 L 922.6 441.2 L 946 427.7 L 959.5 451.1 L 982.9 437.6 L 996.4 461 L 973 474.5 L 986.5 497.9 L 1009.9 484.4 Z" fill="#f7ef99" stroke="#5d675b" stroke-width="4"></path><path d="M 842.6 518.6 L 856.1 542 L 832.7 555.5 L 846.2 578.9 L 869.6 565.4 L 883.1 588.7 L 906.5 575.2 L 893 551.9 L 916.4 538.4 L 929.9 561.7 L 953.2 548.2 L 939.7 524.9 L 963.1 511.4 L 949.6 488 L 926.2 501.5 L 912.7 478.1 L 889.4 491.6 L 902.9 515 L 879.5 528.5 L 866 505.1 Z" fill="#abe188" stroke="#5d675b" stroke-width="4"></path><path d="M 912.7 478.1 L 889.4 491.6 L 902.9 515 L 879.5 528.5 L 866 505.1 L 842.6 518.6 L 829.1 495.2 L 852.5 481.7 L 839 458.3 L 815.6 471.8 L 802.1 448.4 L 825.5 434.9 L 812 411.6 L 835.4 398.1 L 848.9 421.4 L 872.2 407.9 L 885.7 431.3 L 862.4 444.8 L 875.9 468.2 L 899.2 454.7 Z" fill="#f7ef99" stroke="#5d675b" stroke-width="4"></path><path d="M 731.9 488.9 L 745.4 512.3 L 722.1 525.8 L 735.6 549.2 L 758.9 535.7 L 772.4 559.1 L 795.8 545.6 L 782.3 522.2 L 805.7 508.7 L 819.2 532.1 L 842.6 518.6 L 829.1 495.2 L 852.5 481.7 L 839 458.3 L 815.6 471.8 L 802.1 448.4 L 778.7 461.9 L 792.2 485.3 L 768.8 498.8 L 755.3 475.4 Z" fill="#abe188" stroke="#5d675b" stroke-width="4"></path><path d="M 802.1 448.4 L 778.7 461.9 L 792.2 485.3 L 768.8 498.8 L 755.3 475.4 L 731.9 488.9 L 718.4 465.6 L 741.8 452.1 L 728.3 428.7 L 704.9 442.2 L 691.4 418.8 L 714.8 405.3 L 701.3 381.9 L 724.7 368.4 L 738.2 391.8 L 761.6 378.3 L 775.1 401.7 L 751.7 415.2 L 765.2 438.6 L 788.6 425.1 Z" fill="#f7ef99" stroke="#5d675b" stroke-width="4"></path><path d="M 621.3 459.3 L 634.8 482.7 L 611.4 496.2 L 624.9 519.6 L 648.3 506.1 L 661.8 529.4 L 685.2 515.9 L 671.7 492.6 L 695.1 479.1 L 708.6 502.4 L 731.9 488.9 L 718.4 465.6 L 741.8 452.1 L 728.3 428.7 L 704.9 442.2 L 691.4 418.8 L 668.1 432.3 L 681.6 455.7 L 658.2 469.2 L 644.7 445.8 Z" fill="#abe188" stroke="#5d675b" stroke-width="4"></path><path d="M 691.4 418.8 L 668.1 432.3 L 681.6 455.7 L 658.2 469.2 L 644.7 445.8 L 621.3 459.3 L 607.8 435.9 L 631.2 422.4 L 617.7 399 L 594.3 412.5 L 580.8 389.1 L 604.2 375.6 L 590.7 352.3 L 614.1 338.8 L 627.6 362.1 L 650.9 348.6 L 664.4 372 L 641.1 385.5 L 654.6 408.9 L 677.9 395.4 Z" fill="#f7ef99" stroke="#5d675b" stroke-width="4"></path><path d="M 510.6 429.6 L 524.1 453 L 500.8 466.5 L 514.3 489.9 L 537.6 476.4 L 551.1 499.8 L 574.5 486.3 L 561 462.9 L 584.4 449.4 L 597.9 472.8 L 621.3 459.3 L 607.8 435.9 L 631.2 422.4 L 617.7 399 L 594.3 412.5 L 580.8 389.1 L 557.4 402.6 L 570.9 426 L 547.5 439.5 L 534 416.1 Z" fill="#abe188" stroke="#5d675b" stroke-width="4"></path><path d="M 580.8 389.1 L 557.4 402.6 L 570.9 426 L 547.5 439.5 L 534 416.1 L 510.6 429.6 L 497.1 406.3 L 520.5 392.8 L 507 369.4 L 483.6 382.9 L 470.1 359.5 L 493.5 346 L 480 322.6 L 503.4 309.1 L 516.9 332.5 L 540.3 319 L 553.8 342.4 L 530.4 355.9 L 543.9 379.3 L 567.3 365.8 Z" fill="#f7ef99" stroke="#5d675b" stroke-width="4"></path><path d="M 400 400 L 413.5 423.4 L 390.1 436.9 L 403.6 460.3 L 427 446.8 L 440.5 470.1 L 463.9 456.6 L 450.4 433.3 L 473.8 419.8 L 487.3 443.1 L 510.6 429.6 L 497.1 406.3 L 520.5 392.8 L 507 369.4 L 483.6 382.9 L 470.1 359.5 L 446.8 373 L 460.3 396.4 L 436.9 409.9 L 423.4 386.5 Z" fill="#abe188" stroke="#5d675b" stroke-width="4"></path><path d="M 470.1 359.5 L 446.8 373 L 460.3 396.4 L 436.9 409.9 L 423.4 386.5 L 400 400 L 386.5 376.6 L 409.9 363.1 L 396.4 339.7 L 373 353.2 L 359.5 329.9 L 382.9 316.4 L 369.4 293 L 392.8 279.5 L 406.3 302.9 L 429.6 289.4 L 443.1 312.7 L 419.8 326.2 L 433.3 349.6 L 456.6 336.1 Z" fill="#f7ef99" stroke="#5d675b" stroke-width="4"></path><path d="M 289.4 370.4 L 302.9 393.7 L 279.5 407.2 L 293 430.6 L 316.4 417.1 L 329.9 440.5 L 353.2 427 L 339.7 403.6 L 363.1 390.1 L 376.6 413.5 L 400 400 L 386.5 376.6 L 409.9 363.1 L 396.4 339.7 L 373 353.2 L 359.5 329.9 L 336.1 343.4 L 349.6 366.7 L 326.2 380.2 L 312.7 356.9 Z" fill="#abe188" stroke="#5d675b" stroke-width="4"></path><path d="M 359.5 329.9 L 336.1 343.4 L 349.6 366.7 L 326.2 380.2 L 312.7 356.9 L 289.4 370.4 L 275.9 347 L 299.2 333.5 L 285.7 310.1 L 262.4 323.6 L 248.9 300.2 L 272.2 286.7 L 258.7 263.3 L 282.1 249.8 L 295.6 273.2 L 319 259.7 L 332.5 283.1 L 309.1 296.6 L 322.6 320 L 346 306.5 Z" fill="#f7ef99" stroke="#5d675b" stroke-width="4"></path><path d="M 178.7 340.7 L 192.2 364.1 L 168.8 377.6 L 182.3 401 L 205.7 387.5 L 219.2 410.9 L 242.6 397.4 L 229.1 374 L 252.5 360.5 L 266 383.9 L 289.4 370.4 L 275.9 347 L 299.2 333.5 L 285.7 310.1 L 262.4 323.6 L 248.9 300.2 L 225.5 313.7 L 239 337.1 L 215.6 350.6 L 202.1 327.2 Z" fill="#abe188" stroke="#5d675b" stroke-width="4"></path><path d="M 248.9 300.2 L 225.5 313.7 L 239 337.1 L 215.6 350.6 L 202.1 327.2 L 178.7 340.7 L 165.2 317.3 L 188.6 303.8 L 175.1 280.4 L 151.7 293.9 L 138.2 270.6 L 161.6 257.1 L 148.1 233.7 L 171.5 220.2 L 185 243.6 L 208.4 230.1 L 221.9 253.4 L 198.5 266.9 L 212 290.3 L 235.4 276.8 Z" fill="#f7ef99" stroke="#5d675b" stroke-width="4"></path><path d="M 68.1 311.1 L 81.6 334.4 L 58.2 347.9 L 71.7 371.3 L 95.1 357.8 L 108.6 381.2 L 131.9 367.7 L 118.4 344.3 L 141.8 330.8 L 155.3 354.2 L 178.7 340.7 L 165.2 317.3 L 188.6 303.8 L 175.1 280.4 L 151.7 293.9 L 138.2 270.6 L 114.8 284.1 L 128.3 307.4 L 104.9 320.9 L 91.4 297.6 Z" fill="#abe188" stroke="#5d675b" stroke-width="4"></path><path d="M 138.2 270.6 L 114.8 284.1 L 128.3 307.4 L 104.9 320.9 L 91.4 297.6 L 68.1 311.1 L 54.6 287.7 L 77.9 274.2 L 64.4 250.8 L 41.1 264.3 L 27.6 240.9 L 50.9 227.4 L 37.4 204 L 60.8 190.5 L 74.3 213.9 L 97.7 200.4 L 111.2 223.8 L 87.8 237.3 L 101.3 260.7 L 124.7 247.2 Z" fill="#f7ef99" stroke="#5d675b" stroke-width="4"></path><path d="M -42.6 281.4 L -29.1 304.8 L -52.5 318.3 L -39 341.7 L -15.6 328.2 L -2.1 351.6 L 21.3 338.1 L 7.8 314.7 L 31.2 301.2 L 44.7 324.6 L 68.1 311.1 L 54.6 287.7 L 77.9 274.2 L 64.4 250.8 L 41.1 264.3 L 27.6 240.9 L 4.2 254.4 L 17.7 277.8 L -5.7 291.3 L -19.2 267.9 Z" fill="#abe188" stroke="#5d675b" stroke-width="4"></path><path d="M 27.6 240.9 L 4.2 254.4 L 17.7 277.8 L -5.7 291.3 L -19.2 267.9 L -42.6 281.4 L -56.1 258 L -32.7 244.5 L -46.2 221.1 L -69.6 234.6 L -83.1 211.3 L -59.7 197.8 L -73.2 174.4 L -49.8 160.9 L -36.3 184.3 L -12.9 170.8 L 0.6 194.1 L -22.8 207.6 L -9.3 231 L 14.1 217.5 Z" fill="#f7ef99" stroke="#5d675b" stroke-width="4"></path><path d="M -153.2 251.8 L -139.7 275.1 L -163.1 288.6 L -149.6 312 L -126.2 298.5 L -112.7 321.9 L -89.4 308.4 L -102.9 285 L -79.5 271.5 L -66 294.9 L -42.6 281.4 L -56.1 258 L -32.7 244.5 L -46.2 221.1 L -69.6 234.6 L -83.1 211.3 L -106.5 224.8 L -93 248.1 L -116.4 261.6 L -129.9 238.3 Z" fill="#abe188" stroke="#5d675b" stroke-width="4"></path><path d="M -83.1 211.3 L -106.5 224.8 L -93 248.1 L -116.4 261.6 L -129.9 238.3 L -153.2 251.8 L -166.7 228.4 L -143.4 214.9 L -156.9 191.5 L -180.2 205 L -193.7 181.6 L -170.4 168.1 L -183.9 144.7 L -160.5 131.2 L -147 154.6 L -123.6 141.1 L -110.1 164.5 L -133.5 178 L -120 201.4 L -96.6 187.9 Z" fill="#f7ef99" stroke="#5d675b" stroke-width="4"></path><path d="M 923.6 658.9 L 937.1 682.3 L 913.7 695.8 L 927.2 719.2 L 950.6 705.7 L 964.1 729 L 987.5 715.5 L 974 692.2 L 997.4 678.7 L 1010.9 702 L 1034.2 688.5 L 1020.7 665.2 L 1044.1 651.7 L 1030.6 628.3 L 1007.2 641.8 L 993.7 618.4 L 970.4 631.9 L 983.9 655.3 L 960.5 668.8 L 947 645.4 Z" fill="#abe188" stroke="#5d675b" stroke-width="4"></path><path d="M 993.7 618.4 L 970.4 631.9 L 983.9 655.3 L 960.5 668.8 L 947 645.4 L 923.6 658.9 L 910.1 635.5 L 933.5 622 L 920 598.6 L 896.6 612.1 L 883.1 588.7 L 906.5 575.2 L 893 551.9 L 916.4 538.4 L 929.9 561.7 L 953.2 548.2 L 966.7 571.6 L 943.4 585.1 L 956.9 608.5 L 980.2 595 Z" fill="#f7ef99" stroke="#5d675b" stroke-width="4"></path><path d="M 812.9 629.2 L 826.4 652.6 L 803.1 666.1 L 816.6 689.5 L 839.9 676 L 853.4 699.4 L 876.8 685.9 L 863.3 662.5 L 886.7 649 L 900.2 672.4 L 923.6 658.9 L 910.1 635.5 L 933.5 622 L 920 598.6 L 896.6 612.1 L 883.1 588.7 L 859.7 602.2 L 873.2 625.6 L 849.8 639.1 L 836.3 615.7 Z" fill="#abe188" stroke="#5d675b" stroke-width="4"></path><path d="M 883.1 588.7 L 859.7 602.2 L 873.2 625.6 L 849.8 639.1 L 836.3 615.7 L 812.9 629.2 L 799.4 605.9 L 822.8 592.4 L 809.3 569 L 785.9 582.5 L 772.4 559.1 L 795.8 545.6 L 782.3 522.2 L 805.7 508.7 L 819.2 532.1 L 842.6 518.6 L 856.1 542 L 832.7 555.5 L 846.2 578.9 L 869.6 565.4 Z" fill="#f7ef99" stroke="#5d675b" stroke-width="4"></path><path d="M 702.3 599.6 L 715.8 623 L 692.4 636.5 L 705.9 659.9 L 729.3 646.4 L 742.8 669.7 L 766.2 656.2 L 752.7 632.9 L 776.1 619.4 L 789.6 642.7 L 812.9 629.2 L 799.4 605.9 L 822.8 592.4 L 809.3 569 L 785.9 582.5 L 772.4 559.1 L 749.1 572.6 L 762.6 596 L 739.2 609.5 L 725.7 586.1 Z" fill="#abe188" stroke="#5d675b" stroke-width="4"></path><path d="M 772.4 559.1 L 749.1 572.6 L 762.6 596 L 739.2 609.5 L 725.7 586.1 L 702.3 599.6 L 688.8 576.2 L 712.2 562.7 L 698.7 539.3 L 675.3 552.8 L 661.8 529.4 L 685.2 515.9 L 671.7 492.6 L 695.1 479.1 L 708.6 502.4 L 731.9 488.9 L 745.4 512.3 L 722.1 525.8 L 735.6 549.2 L 758.9 535.7 Z" fill="#f7ef99" stroke="#5d675b" stroke-width="4"></path><path d="M 591.6 569.9 L 605.1 593.3 L 581.8 606.8 L 595.3 630.2 L 618.6 616.7 L 632.1 640.1 L 655.5 626.6 L 642 603.2 L 665.4 589.7 L 678.9 613.1 L 702.3 599.6 L 688.8 576.2 L 712.2 562.7 L 698.7 539.3 L 675.3 552.8 L 661.8 529.4 L 638.4 542.9 L 651.9 566.3 L 628.5 579.8 L 615 556.4 Z" fill="#abe188" stroke="#5d675b" stroke-width="4"></path><path d="M 661.8 529.4 L 638.4 542.9 L 651.9 566.3 L 628.5 579.8 L 615 556.4 L 591.6 569.9 L 578.1 546.6 L 601.5 533.1 L 588 509.7 L 564.6 523.2 L 551.1 499.8 L 574.5 486.3 L 561 462.9 L 584.4 449.4 L 597.9 472.8 L 621.3 459.3 L 634.8 482.7 L 611.4 496.2 L 624.9 519.6 L 648.3 506.1 Z" fill="#f7ef99" stroke="#5d675b" stroke-width="4"></path><path d="M 481 540.3 L 494.5 563.7 L 471.1 577.2 L 484.6 600.6 L 508 587.1 L 521.5 610.4 L 544.9 596.9 L 531.4 573.6 L 554.8 560.1 L 568.3 583.4 L 591.6 569.9 L 578.1 546.6 L 601.5 533.1 L 588 509.7 L 564.6 523.2 L 551.1 499.8 L 527.8 513.3 L 541.3 536.7 L 517.9 550.2 L 504.4 526.8 Z" fill="#abe188" stroke="#5d675b" stroke-width="4"></path><path d="M 551.1 499.8 L 527.8 513.3 L 541.3 536.7 L 517.9 550.2 L 504.4 526.8 L 481 540.3 L 467.5 516.9 L 490.9 503.4 L 477.4 480 L 454 493.5 L 440.5 470.1 L 463.9 456.6 L 450.4 433.3 L 473.8 419.8 L 487.3 443.1 L 510.6 429.6 L 524.1 453 L 500.8 466.5 L 514.3 489.9 L 537.6 476.4 Z" fill="#f7ef99" stroke="#5d675b" stroke-width="4"></path><path d="M 370.4 510.6 L 383.9 534 L 360.5 547.5 L 374 570.9 L 397.4 557.4 L 410.9 580.8 L 434.2 567.3 L 420.7 543.9 L 444.1 530.4 L 457.6 553.8 L 481 540.3 L 467.5 516.9 L 490.9 503.4 L 477.4 480 L 454 493.5 L 440.5 470.1 L 417.1 483.6 L 430.6 507 L 407.2 520.5 L 393.7 497.1 Z" fill="#abe188" stroke="#5d675b" stroke-width="4"></path><path d="M 440.5 470.1 L 417.1 483.6 L 430.6 507 L 407.2 520.5 L 393.7 497.1 L 370.4 510.6 L 356.9 487.3 L 380.2 473.8 L 366.7 450.4 L 343.4 463.9 L 329.9 440.5 L 353.2 427 L 339.7 403.6 L 363.1 390.1 L 376.6 413.5 L 400 400 L 413.5 423.4 L 390.1 436.9 L 403.6 460.3 L 427 446.8 Z" fill="#f7ef99" stroke="#5d675b" stroke-width="4"></path><path d="M 259.7 481 L 273.2 504.4 L 249.8 517.9 L 263.3 541.3 L 286.7 527.8 L 300.2 551.1 L 323.6 537.6 L 310.1 514.3 L 333.5 500.8 L 347 524.1 L 370.4 510.6 L 356.9 487.3 L 380.2 473.8 L 366.7 450.4 L 343.4 463.9 L 329.9 440.5 L 306.5 454 L 320 477.4 L 296.6 490.9 L 283.1 467.5 Z" fill="#abe188" stroke="#5d675b" stroke-width="4"></path><path d="M 329.9 440.5 L 306.5 454 L 320 477.4 L 296.6 490.9 L 283.1 467.5 L 259.7 481 L 246.2 457.6 L 269.6 444.1 L 256.1 420.7 L 232.7 434.2 L 219.2 410.9 L 242.6 397.4 L 229.1 374 L 252.5 360.5 L 266 383.9 L 289.4 370.4 L 302.9 393.7 L 279.5 407.2 L 293 430.6 L 316.4 417.1 Z" fill="#f7ef99" stroke="#5d675b" stroke-width="4"></path><path d="M 149.1 451.4 L 162.6 474.7 L 139.2 488.2 L 152.7 511.6 L 176.1 498.1 L 189.6 521.5 L 212.9 508 L 199.4 484.6 L 222.8 471.1 L 236.3 494.5 L 259.7 481 L 246.2 457.6 L 269.6 444.1 L 256.1 420.7 L 232.7 434.2 L 219.2 410.9 L 195.8 424.4 L 209.3 447.7 L 185.9 461.2 L 172.4 437.9 Z" fill="#abe188" stroke="#5d675b" stroke-width="4"></path><path d="M 219.2 410.9 L 195.8 424.4 L 209.3 447.7 L 185.9 461.2 L 172.4 437.9 L 149.1 451.4 L 135.6 428 L 158.9 414.5 L 145.4 391.1 L 122.1 404.6 L 108.6 381.2 L 131.9 367.7 L 118.4 344.3 L 141.8 330.8 L 155.3 354.2 L 178.7 340.7 L 192.2 364.1 L 168.8 377.6 L 182.3 401 L 205.7 387.5 Z" fill="#f7ef99" stroke="#5d675b" stroke-width="4"></path><path d="M 38.4 421.7 L 51.9 445.1 L 28.5 458.6 L 42 482 L 65.4 468.5 L 78.9 491.9 L 102.3 478.4 L 88.8 455 L 112.2 441.5 L 125.7 464.9 L 149.1 451.4 L 135.6 428 L 158.9 414.5 L 145.4 391.1 L 122.1 404.6 L 108.6 381.2 L 85.2 394.7 L 98.7 418.1 L 75.3 431.6 L 61.8 408.2 Z" fill="#abe188" stroke="#5d675b" stroke-width="4"></path><path d="M 108.6 381.2 L 85.2 394.7 L 98.7 418.1 L 75.3 431.6 L 61.8 408.2 L 38.4 421.7 L 24.9 398.3 L 48.3 384.8 L 34.8 361.4 L 11.4 374.9 L -2.1 351.6 L 21.3 338.1 L 7.8 314.7 L 31.2 301.2 L 44.7 324.6 L 68.1 311.1 L 81.6 334.4 L 58.2 347.9 L 71.7 371.3 L 95.1 357.8 Z" fill="#f7ef99" stroke="#5d675b" stroke-width="4"></path><path d="M -72.2 392.1 L -58.7 415.4 L -82.1 428.9 L -68.6 452.3 L -45.2 438.8 L -31.7 462.2 L -8.4 448.7 L -21.9 425.3 L 1.5 411.8 L 15 435.2 L 38.4 421.7 L 24.9 398.3 L 48.3 384.8 L 34.8 361.4 L 11.4 374.9 L -2.1 351.6 L -25.5 365.1 L -12 388.4 L -35.4 401.9 L -48.9 378.6 Z" fill="#abe188" stroke="#5d675b" stroke-width="4"></path><path d="M -2.1 351.6 L -25.5 365.1 L -12 388.4 L -35.4 401.9 L -48.9 378.6 L -72.2 392.1 L -85.7 368.7 L -62.4 355.2 L -75.9 331.8 L -99.2 345.3 L -112.7 321.9 L -89.4 308.4 L -102.9 285 L -79.5 271.5 L -66 294.9 L -42.6 281.4 L -29.1 304.8 L -52.5 318.3 L -39 341.7 L -15.6 328.2 Z" fill="#f7ef99" stroke="#5d675b" stroke-width="4"></path><path d="M -182.9 362.4 L -169.4 385.8 L -192.8 399.3 L -179.3 422.7 L -155.9 409.2 L -142.4 432.6 L -119 419.1 L -132.5 395.7 L -109.1 382.2 L -95.6 405.6 L -72.2 392.1 L -85.7 368.7 L -62.4 355.2 L -75.9 331.8 L -99.2 345.3 L -112.7 321.9 L -136.1 335.4 L -122.6 358.8 L -146 372.3 L -159.5 348.9 Z" fill="#abe188" stroke="#5d675b" stroke-width="4"></path><path d="M -112.7 321.9 L -136.1 335.4 L -122.6 358.8 L -146 372.3 L -159.5 348.9 L -182.9 362.4 L -196.4 339 L -173 325.5 L -186.5 302.1 L -209.9 315.6 L -223.4 292.3 L -200 278.8 L -213.5 255.4 L -190.1 241.9 L -176.6 265.3 L -153.2 251.8 L -139.7 275.1 L -163.1 288.6 L -149.6 312 L -126.2 298.5 Z" fill="#f7ef99" stroke="#5d675b" stroke-width="4"></path><path d="M 893.9 769.5 L 907.4 792.9 L 884.1 806.4 L 897.6 829.8 L 920.9 816.3 L 934.4 839.7 L 957.8 826.2 L 944.3 802.8 L 967.7 789.3 L 981.2 812.7 L 1004.6 799.2 L 991.1 775.8 L 1014.5 762.3 L 1001 738.9 L 977.6 752.4 L 964.1 729 L 940.7 742.5 L 954.2 765.9 L 930.8 779.4 L 917.3 756 Z" fill="#abe188" stroke="#5d675b" stroke-width="4"></path><path d="M 964.1 729 L 940.7 742.5 L 954.2 765.9 L 930.8 779.4 L 917.3 756 L 893.9 769.5 L 880.4 746.2 L 903.8 732.7 L 890.3 709.3 L 866.9 722.8 L 853.4 699.4 L 876.8 685.9 L 863.3 662.5 L 886.7 649 L 900.2 672.4 L 923.6 658.9 L 937.1 682.3 L 913.7 695.8 L 927.2 719.2 L 950.6 705.7 Z" fill="#f7ef99" stroke="#5d675b" stroke-width="4"></path><path d="M 783.3 739.9 L 796.8 763.3 L 773.4 776.8 L 786.9 800.2 L 810.3 786.7 L 823.8 810 L 847.2 796.5 L 833.7 773.2 L 857.1 759.7 L 870.6 783 L 893.9 769.5 L 880.4 746.2 L 903.8 732.7 L 890.3 709.3 L 866.9 722.8 L 853.4 699.4 L 830.1 712.9 L 843.6 736.3 L 820.2 749.8 L 806.7 726.4 Z" fill="#abe188" stroke="#5d675b" stroke-width="4"></path><path d="M 853.4 699.4 L 830.1 712.9 L 843.6 736.3 L 820.2 749.8 L 806.7 726.4 L 783.3 739.9 L 769.8 716.5 L 793.2 703 L 779.7 679.6 L 756.3 693.1 L 742.8 669.7 L 766.2 656.2 L 752.7 632.9 L 776.1 619.4 L 789.6 642.7 L 812.9 629.2 L 826.4 652.6 L 803.1 666.1 L 816.6 689.5 L 839.9 676 Z" fill="#f7ef99" stroke="#5d675b" stroke-width="4"></path><path d="M 672.6 710.2 L 686.1 733.6 L 662.8 747.1 L 676.3 770.5 L 699.6 757 L 713.1 780.4 L 736.5 766.9 L 723 743.5 L 746.4 730 L 759.9 753.4 L 783.3 739.9 L 769.8 716.5 L 793.2 703 L 779.7 679.6 L 756.3 693.1 L 742.8 669.7 L 719.4 683.2 L 732.9 706.6 L 709.5 720.1 L 696 696.7 Z" fill="#abe188" stroke="#5d675b" stroke-width="4"></path><path d="M 742.8 669.7 L 719.4 683.2 L 732.9 706.6 L 709.5 720.1 L 696 696.7 L 672.6 710.2 L 659.1 686.9 L 682.5 673.4 L 669 650 L 645.6 663.5 L 632.1 640.1 L 655.5 626.6 L 642 603.2 L 665.4 589.7 L 678.9 613.1 L 702.3 599.6 L 715.8 623 L 692.4 636.5 L 705.9 659.9 L 729.3 646.4 Z" fill="#f7ef99" stroke="#5d675b" stroke-width="4"></path><path d="M 562 680.6 L 575.5 704 L 552.1 717.5 L 565.6 740.9 L 589 727.4 L 602.5 750.7 L 625.9 737.2 L 612.4 713.9 L 635.8 700.4 L 649.3 723.7 L 672.6 710.2 L 659.1 686.9 L 682.5 673.4 L 669 650 L 645.6 663.5 L 632.1 640.1 L 608.8 653.6 L 622.3 677 L 598.9 690.5 L 585.4 667.1 Z" fill="#abe188" stroke="#5d675b" stroke-width="4"></path><path d="M 632.1 640.1 L 608.8 653.6 L 622.3 677 L 598.9 690.5 L 585.4 667.1 L 562 680.6 L 548.5 657.2 L 571.9 643.7 L 558.4 620.3 L 535 633.8 L 521.5 610.4 L 544.9 596.9 L 531.4 573.6 L 554.8 560.1 L 568.3 583.4 L 591.6 569.9 L 605.1 593.3 L 581.8 606.8 L 595.3 630.2 L 618.6 616.7 Z" fill="#f7ef99" stroke="#5d675b" stroke-width="4"></path><path d="M 451.4 650.9 L 464.9 674.3 L 441.5 687.8 L 455 711.2 L 478.4 697.7 L 491.9 721.1 L 515.2 707.6 L 501.7 684.2 L 525.1 670.7 L 538.6 694.1 L 562 680.6 L 548.5 657.2 L 571.9 643.7 L 558.4 620.3 L 535 633.8 L 521.5 610.4 L 498.1 623.9 L 511.6 647.3 L 488.2 660.8 L 474.7 637.4 Z" fill="#abe188" stroke="#5d675b" stroke-width="4"></path><path d="M 521.5 610.4 L 498.1 623.9 L 511.6 647.3 L 488.2 660.8 L 474.7 637.4 L 451.4 650.9 L 437.9 627.6 L 461.2 614.1 L 447.7 590.7 L 424.4 604.2 L 410.9 580.8 L 434.2 567.3 L 420.7 543.9 L 444.1 530.4 L 457.6 553.8 L 481 540.3 L 494.5 563.7 L 471.1 577.2 L 484.6 600.6 L 508 587.1 Z" fill="#f7ef99" stroke="#5d675b" stroke-width="4"></path><path d="M 340.7 621.3 L 354.2 644.7 L 330.8 658.2 L 344.3 681.6 L 367.7 668.1 L 381.2 691.4 L 404.6 677.9 L 391.1 654.6 L 414.5 641.1 L 428 664.4 L 451.4 650.9 L 437.9 627.6 L 461.2 614.1 L 447.7 590.7 L 424.4 604.2 L 410.9 580.8 L 387.5 594.3 L 401 617.7 L 377.6 631.2 L 364.1 607.8 Z" fill="#abe188" stroke="#5d675b" stroke-width="4"></path><path d="M 410.9 580.8 L 387.5 594.3 L 401 617.7 L 377.6 631.2 L 364.1 607.8 L 340.7 621.3 L 327.2 597.9 L 350.6 584.4 L 337.1 561 L 313.7 574.5 L 300.2 551.1 L 323.6 537.6 L 310.1 514.3 L 333.5 500.8 L 347 524.1 L 370.4 510.6 L 383.9 534 L 360.5 547.5 L 374 570.9 L 397.4 557.4 Z" fill="#f7ef99" stroke="#5d675b" stroke-width="4"></path><path d="M 230.1 591.6 L 243.6 615 L 220.2 628.5 L 233.7 651.9 L 257.1 638.4 L 270.6 661.8 L 293.9 648.3 L 280.4 624.9 L 303.8 611.4 L 317.3 634.8 L 340.7 621.3 L 327.2 597.9 L 350.6 584.4 L 337.1 561 L 313.7 574.5 L 300.2 551.1 L 276.8 564.6 L 290.3 588 L 266.9 601.5 L 253.4 578.1 Z" fill="#abe188" stroke="#5d675b" stroke-width="4"></path><path d="M 300.2 551.1 L 276.8 564.6 L 290.3 588 L 266.9 601.5 L 253.4 578.1 L 230.1 591.6 L 216.6 568.3 L 239.9 554.8 L 226.4 531.4 L 203.1 544.9 L 189.6 521.5 L 212.9 508 L 199.4 484.6 L 222.8 471.1 L 236.3 494.5 L 259.7 481 L 273.2 504.4 L 249.8 517.9 L 263.3 541.3 L 286.7 527.8 Z" fill="#f7ef99" stroke="#5d675b" stroke-width="4"></path><path d="M 119.4 562 L 132.9 585.4 L 109.5 598.9 L 123 622.3 L 146.4 608.8 L 159.9 632.1 L 183.3 618.6 L 169.8 595.3 L 193.2 581.8 L 206.7 605.1 L 230.1 591.6 L 216.6 568.3 L 239.9 554.8 L 226.4 531.4 L 203.1 544.9 L 189.6 521.5 L 166.2 535 L 179.7 558.4 L 156.3 571.9 L 142.8 548.5 Z" fill="#abe188" stroke="#5d675b" stroke-width="4"></path><path d="M 189.6 521.5 L 166.2 535 L 179.7 558.4 L 156.3 571.9 L 142.8 548.5 L 119.4 562 L 105.9 538.6 L 129.3 525.1 L 115.8 501.7 L 92.4 515.2 L 78.9 491.9 L 102.3 478.4 L 88.8 455 L 112.2 441.5 L 125.7 464.9 L 149.1 451.4 L 162.6 474.7 L 139.2 488.2 L 152.7 511.6 L 176.1 498.1 Z" fill="#f7ef99" stroke="#5d675b" stroke-width="4"></path><path d="M 8.8 532.4 L 22.3 555.7 L -1.1 569.2 L 12.4 592.6 L 35.8 579.1 L 49.3 602.5 L 72.6 589 L 59.1 565.6 L 82.5 552.1 L 96 575.5 L 119.4 562 L 105.9 538.6 L 129.3 525.1 L 115.8 501.7 L 92.4 515.2 L 78.9 491.9 L 55.5 505.4 L 69 528.7 L 45.6 542.2 L 32.1 518.9 Z" fill="#abe188" stroke="#5d675b" stroke-width="4"></path><path d="M 78.9 491.9 L 55.5 505.4 L 69 528.7 L 45.6 542.2 L 32.1 518.9 L 8.8 532.4 L -4.7 509 L 18.6 495.5 L 5.1 472.1 L -18.2 485.6 L -31.7 462.2 L -8.4 448.7 L -21.9 425.3 L 1.5 411.8 L 15 435.2 L 38.4 421.7 L 51.9 445.1 L 28.5 458.6 L 42 482 L 65.4 468.5 Z" fill="#f7ef99" stroke="#5d675b" stroke-width="4"></path><path d="M -101.9 502.7 L -88.4 526.1 L -111.8 539.6 L -98.3 563 L -74.9 549.5 L -61.4 572.9 L -38 559.4 L -51.5 536 L -28.1 522.5 L -14.6 545.9 L 8.8 532.4 L -4.7 509 L 18.6 495.5 L 5.1 472.1 L -18.2 485.6 L -31.7 462.2 L -55.1 475.7 L -41.6 499.1 L -65 512.6 L -78.5 489.2 Z" fill="#abe188" stroke="#5d675b" stroke-width="4"></path><path d="M -31.7 462.2 L -55.1 475.7 L -41.6 499.1 L -65 512.6 L -78.5 489.2 L -101.9 502.7 L -115.4 479.3 L -92 465.8 L -105.5 442.4 L -128.9 455.9 L -142.4 432.6 L -119 419.1 L -132.5 395.7 L -109.1 382.2 L -95.6 405.6 L -72.2 392.1 L -58.7 415.4 L -82.1 428.9 L -68.6 452.3 L -45.2 438.8 Z" fill="#f7ef99" stroke="#5d675b" stroke-width="4"></path><path d="M -212.5 473.1 L -199 496.4 L -222.4 509.9 L -208.9 533.3 L -185.5 519.8 L -172 543.2 L -148.7 529.7 L -162.2 506.3 L -138.8 492.8 L -125.3 516.2 L -101.9 502.7 L -115.4 479.3 L -92 465.8 L -105.5 442.4 L -128.9 455.9 L -142.4 432.6 L -165.8 446.1 L -152.3 469.4 L -175.7 482.9 L -189.2 459.6 Z" fill="#abe188" stroke="#5d675b" stroke-width="4"></path><path d="M -142.4 432.6 L -165.8 446.1 L -152.3 469.4 L -175.7 482.9 L -189.2 459.6 L -212.5 473.1 L -226 449.7 L -202.7 436.2 L -216.2 412.8 L -239.5 426.3 L -253 402.9 L -229.7 389.4 L -243.2 366 L -219.8 352.5 L -206.3 375.9 L -182.9 362.4 L -169.4 385.8 L -192.8 399.3 L -179.3 422.7 L -155.9 409.2 Z" fill="#f7ef99" stroke="#5d675b" stroke-width="4"></path><path d="M 864.3 880.2 L 877.8 903.6 L 854.4 917.1 L 867.9 940.4 L 891.3 926.9 L 904.8 950.3 L 928.2 936.8 L 914.7 913.4 L 938.1 899.9 L 951.6 923.3 L 974.9 909.8 L 961.4 886.4 L 984.8 872.9 L 971.3 849.6 L 947.9 863.1 L 934.4 839.7 L 911.1 853.2 L 924.6 876.6 L 901.2 890.1 L 887.7 866.7 Z" fill="#abe188" stroke="#5d675b" stroke-width="4"></path><path d="M 934.4 839.7 L 911.1 853.2 L 924.6 876.6 L 901.2 890.1 L 887.7 866.7 L 864.3 880.2 L 850.8 856.8 L 874.2 843.3 L 860.7 819.9 L 837.3 833.4 L 823.8 810 L 847.2 796.5 L 833.7 773.2 L 857.1 759.7 L 870.6 783 L 893.9 769.5 L 907.4 792.9 L 884.1 806.4 L 897.6 829.8 L 920.9 816.3 Z" fill="#f7ef99" stroke="#5d675b" stroke-width="4"></path><path d="M 753.6 850.5 L 767.1 873.9 L 743.8 887.4 L 757.3 910.8 L 780.6 897.3 L 794.1 920.7 L 817.5 907.2 L 804 883.8 L 827.4 870.3 L 840.9 893.7 L 864.3 880.2 L 850.8 856.8 L 874.2 843.3 L 860.7 819.9 L 837.3 833.4 L 823.8 810 L 800.4 823.5 L 813.9 846.9 L 790.5 860.4 L 777 837 Z" fill="#abe188" stroke="#5d675b" stroke-width="4"></path><path d="M 823.8 810 L 800.4 823.5 L 813.9 846.9 L 790.5 860.4 L 777 837 L 753.6 850.5 L 740.1 827.2 L 763.5 813.7 L 750 790.3 L 726.6 803.8 L 713.1 780.4 L 736.5 766.9 L 723 743.5 L 746.4 730 L 759.9 753.4 L 783.3 739.9 L 796.8 763.3 L 773.4 776.8 L 786.9 800.2 L 810.3 786.7 Z" fill="#f7ef99" stroke="#5d675b" stroke-width="4"></path><path d="M 643 820.9 L 656.5 844.3 L 633.1 857.8 L 646.6 881.2 L 670 867.7 L 683.5 891 L 706.9 877.5 L 693.4 854.2 L 716.8 840.7 L 730.3 864 L 753.6 850.5 L 740.1 827.2 L 763.5 813.7 L 750 790.3 L 726.6 803.8 L 713.1 780.4 L 689.8 793.9 L 703.3 817.3 L 679.9 830.8 L 666.4 807.4 Z" fill="#abe188" stroke="#5d675b" stroke-width="4"></path><path d="M 713.1 780.4 L 689.8 793.9 L 703.3 817.3 L 679.9 830.8 L 666.4 807.4 L 643 820.9 L 629.5 797.5 L 652.9 784 L 639.4 760.6 L 616 774.1 L 602.5 750.7 L 625.9 737.2 L 612.4 713.9 L 635.8 700.4 L 649.3 723.7 L 672.6 710.2 L 686.1 733.6 L 662.8 747.1 L 676.3 770.5 L 699.6 757 Z" fill="#f7ef99" stroke="#5d675b" stroke-width="4"></path><path d="M 532.4 791.2 L 545.9 814.6 L 522.5 828.1 L 536 851.5 L 559.4 838 L 572.9 861.4 L 596.2 847.9 L 582.7 824.5 L 606.1 811 L 619.6 834.4 L 643 820.9 L 629.5 797.5 L 652.9 784 L 639.4 760.6 L 616 774.1 L 602.5 750.7 L 579.1 764.2 L 592.6 787.6 L 569.2 801.1 L 555.7 777.7 Z" fill="#abe188" stroke="#5d675b" stroke-width="4"></path><path d="M 602.5 750.7 L 579.1 764.2 L 592.6 787.6 L 569.2 801.1 L 555.7 777.7 L 532.4 791.2 L 518.9 767.9 L 542.2 754.4 L 528.7 731 L 505.4 744.5 L 491.9 721.1 L 515.2 707.6 L 501.7 684.2 L 525.1 670.7 L 538.6 694.1 L 562 680.6 L 575.5 704 L 552.1 717.5 L 565.6 740.9 L 589 727.4 Z" fill="#f7ef99" stroke="#5d675b" stroke-width="4"></path><path d="M 421.7 761.6 L 435.2 785 L 411.8 798.5 L 425.3 821.9 L 448.7 808.4 L 462.2 831.7 L 485.6 818.2 L 472.1 794.9 L 495.5 781.4 L 509 804.7 L 532.4 791.2 L 518.9 767.9 L 542.2 754.4 L 528.7 731 L 505.4 744.5 L 491.9 721.1 L 468.5 734.6 L 482 758 L 458.6 771.5 L 445.1 748.1 Z" fill="#abe188" stroke="#5d675b" stroke-width="4"></path><path d="M 491.9 721.1 L 468.5 734.6 L 482 758 L 458.6 771.5 L 445.1 748.1 L 421.7 761.6 L 408.2 738.2 L 431.6 724.7 L 418.1 701.3 L 394.7 714.8 L 381.2 691.4 L 404.6 677.9 L 391.1 654.6 L 414.5 641.1 L 428 664.4 L 451.4 650.9 L 464.9 674.3 L 441.5 687.8 L 455 711.2 L 478.4 697.7 Z" fill="#f7ef99" stroke="#5d675b" stroke-width="4"></path><path d="M 311.1 731.9 L 324.6 755.3 L 301.2 768.8 L 314.7 792.2 L 338.1 778.7 L 351.6 802.1 L 374.9 788.6 L 361.4 765.2 L 384.8 751.7 L 398.3 775.1 L 421.7 761.6 L 408.2 738.2 L 431.6 724.7 L 418.1 701.3 L 394.7 714.8 L 381.2 691.4 L 357.8 704.9 L 371.3 728.3 L 347.9 741.8 L 334.4 718.4 Z" fill="#abe188" stroke="#5d675b" stroke-width="4"></path><path d="M 381.2 691.4 L 357.8 704.9 L 371.3 728.3 L 347.9 741.8 L 334.4 718.4 L 311.1 731.9 L 297.6 708.6 L 320.9 695.1 L 307.4 671.7 L 284.1 685.2 L 270.6 661.8 L 293.9 648.3 L 280.4 624.9 L 303.8 611.4 L 317.3 634.8 L 340.7 621.3 L 354.2 644.7 L 330.8 658.2 L 344.3 681.6 L 367.7 668.1 Z" fill="#f7ef99" stroke="#5d675b" stroke-width="4"></path><path d="M 200.4 702.3 L 213.9 725.7 L 190.5 739.2 L 204 762.6 L 227.4 749.1 L 240.9 772.4 L 264.3 758.9 L 250.8 735.6 L 274.2 722.1 L 287.7 745.4 L 311.1 731.9 L 297.6 708.6 L 320.9 695.1 L 307.4 671.7 L 284.1 685.2 L 270.6 661.8 L 247.2 675.3 L 260.7 698.7 L 237.3 712.2 L 223.8 688.8 Z" fill="#abe188" stroke="#5d675b" stroke-width="4"></path><path d="M 270.6 661.8 L 247.2 675.3 L 260.7 698.7 L 237.3 712.2 L 223.8 688.8 L 200.4 702.3 L 186.9 678.9 L 210.3 665.4 L 196.8 642 L 173.4 655.5 L 159.9 632.1 L 183.3 618.6 L 169.8 595.3 L 193.2 581.8 L 206.7 605.1 L 230.1 591.6 L 243.6 615 L 220.2 628.5 L 233.7 651.9 L 257.1 638.4 Z" fill="#f7ef99" stroke="#5d675b" stroke-width="4"></path><path d="M 89.8 672.6 L 103.3 696 L 79.9 709.5 L 93.4 732.9 L 116.8 719.4 L 130.3 742.8 L 153.6 729.3 L 140.1 705.9 L 163.5 692.4 L 177 715.8 L 200.4 702.3 L 186.9 678.9 L 210.3 665.4 L 196.8 642 L 173.4 655.5 L 159.9 632.1 L 136.5 645.6 L 150 669 L 126.6 682.5 L 113.1 659.1 Z" fill="#abe188" stroke="#5d675b" stroke-width="4"></path><path d="M 159.9 632.1 L 136.5 645.6 L 150 669 L 126.6 682.5 L 113.1 659.1 L 89.8 672.6 L 76.3 649.3 L 99.6 635.8 L 86.1 612.4 L 62.8 625.9 L 49.3 602.5 L 72.6 589 L 59.1 565.6 L 82.5 552.1 L 96 575.5 L 119.4 562 L 132.9 585.4 L 109.5 598.9 L 123 622.3 L 146.4 608.8 Z" fill="#f7ef99" stroke="#5d675b" stroke-width="4"></path><path d="M -20.9 643 L -7.4 666.4 L -30.8 679.9 L -17.3 703.3 L 6.1 689.8 L 19.6 713.1 L 43 699.6 L 29.5 676.3 L 52.9 662.8 L 66.4 686.1 L 89.8 672.6 L 76.3 649.3 L 99.6 635.8 L 86.1 612.4 L 62.8 625.9 L 49.3 602.5 L 25.9 616 L 39.4 639.4 L 16 652.9 L 2.5 629.5 Z" fill="#abe188" stroke="#5d675b" stroke-width="4"></path><path d="M 49.3 602.5 L 25.9 616 L 39.4 639.4 L 16 652.9 L 2.5 629.5 L -20.9 643 L -34.4 619.6 L -11 606.1 L -24.5 582.7 L -47.9 596.2 L -61.4 572.9 L -38 559.4 L -51.5 536 L -28.1 522.5 L -14.6 545.9 L 8.8 532.4 L 22.3 555.7 L -1.1 569.2 L 12.4 592.6 L 35.8 579.1 Z" fill="#f7ef99" stroke="#5d675b" stroke-width="4"></path><path d="M -131.5 613.4 L -118 636.7 L -141.4 650.2 L -127.9 673.6 L -104.5 660.1 L -91 683.5 L -67.7 670 L -81.2 646.6 L -57.8 633.1 L -44.3 656.5 L -20.9 643 L -34.4 619.6 L -11 606.1 L -24.5 582.7 L -47.9 596.2 L -61.4 572.9 L -84.8 586.4 L -71.3 609.7 L -94.7 623.2 L -108.2 599.9 Z" fill="#abe188" stroke="#5d675b" stroke-width="4"></path><path d="M -61.4 572.9 L -84.8 586.4 L -71.3 609.7 L -94.7 623.2 L -108.2 599.9 L -131.5 613.4 L -145 590 L -121.7 576.5 L -135.2 553.1 L -158.5 566.6 L -172 543.2 L -148.7 529.7 L -162.2 506.3 L -138.8 492.8 L -125.3 516.2 L -101.9 502.7 L -88.4 526.1 L -111.8 539.6 L -98.3 563 L -74.9 549.5 Z" fill="#f7ef99" stroke="#5d675b" stroke-width="4"></path><path d="M -242.2 583.7 L -228.7 607.1 L -252.1 620.6 L -238.6 644 L -215.2 630.5 L -201.7 653.9 L -178.3 640.4 L -191.8 617 L -168.4 603.5 L -154.9 626.9 L -131.5 613.4 L -145 590 L -121.7 576.5 L -135.2 553.1 L -158.5 566.6 L -172 543.2 L -195.4 556.7 L -181.9 580.1 L -205.3 593.6 L -218.8 570.2 Z" fill="#abe188" stroke="#5d675b" stroke-width="4"></path><path d="M -172 543.2 L -195.4 556.7 L -181.9 580.1 L -205.3 593.6 L -218.8 570.2 L -242.2 583.7 L -255.7 560.3 L -232.3 546.8 L -245.8 523.4 L -269.2 536.9 L -282.7 513.6 L -259.3 500.1 L -272.8 476.7 L -249.4 463.2 L -235.9 486.6 L -212.5 473.1 L -199 496.4 L -222.4 509.9 L -208.9 533.3 L -185.5 519.8 Z" fill="#f7ef99" stroke="#5d675b" stroke-width="4"></path><path d="M 834.6 990.8 L 848.1 1014.2 L 824.8 1027.7 L 838.3 1051.1 L 861.6 1037.6 L 875.1 1061 L 898.5 1047.5 L 885 1024.1 L 908.4 1010.6 L 921.9 1034 L 945.3 1020.5 L 931.8 997.1 L 955.2 983.6 L 941.7 960.2 L 918.3 973.7 L 904.8 950.3 L 881.4 963.8 L 894.9 987.2 L 871.5 1000.7 L 858 977.3 Z" fill="#abe188" stroke="#5d675b" stroke-width="4"></path><path d="M 904.8 950.3 L 881.4 963.8 L 894.9 987.2 L 871.5 1000.7 L 858 977.3 L 834.6 990.8 L 821.1 967.4 L 844.5 953.9 L 831 930.6 L 807.6 944.1 L 794.1 920.7 L 817.5 907.2 L 804 883.8 L 827.4 870.3 L 840.9 893.7 L 864.3 880.2 L 877.8 903.6 L 854.4 917.1 L 867.9 940.4 L 891.3 926.9 Z" fill="#f7ef99" stroke="#5d675b" stroke-width="4"></path><path d="M 724 961.2 L 737.5 984.6 L 714.1 998.1 L 727.6 1021.4 L 751 1007.9 L 764.5 1031.3 L 787.9 1017.8 L 774.4 994.4 L 797.8 980.9 L 811.3 1004.3 L 834.6 990.8 L 821.1 967.4 L 844.5 953.9 L 831 930.6 L 807.6 944.1 L 794.1 920.7 L 770.8 934.2 L 784.3 957.6 L 760.9 971.1 L 747.4 947.7 Z" fill="#abe188" stroke="#5d675b" stroke-width="4"></path><path d="M 794.1 920.7 L 770.8 934.2 L 784.3 957.6 L 760.9 971.1 L 747.4 947.7 L 724 961.2 L 710.5 937.8 L 733.9 924.3 L 720.4 900.9 L 697 914.4 L 683.5 891 L 706.9 877.5 L 693.4 854.2 L 716.8 840.7 L 730.3 864 L 753.6 850.5 L 767.1 873.9 L 743.8 887.4 L 757.3 910.8 L 780.6 897.3 Z" fill="#f7ef99" stroke="#5d675b" stroke-width="4"></path><path d="M 613.4 931.5 L 626.9 954.9 L 603.5 968.4 L 617 991.8 L 640.4 978.3 L 653.9 1001.7 L 677.2 988.2 L 663.7 964.8 L 687.1 951.3 L 700.6 974.7 L 724 961.2 L 710.5 937.8 L 733.9 924.3 L 720.4 900.9 L 697 914.4 L 683.5 891 L 660.1 904.5 L 673.6 927.9 L 650.2 941.4 L 636.7 918 Z" fill="#abe188" stroke="#5d675b" stroke-width="4"></path><path d="M 683.5 891 L 660.1 904.5 L 673.6 927.9 L 650.2 941.4 L 636.7 918 L 613.4 931.5 L 599.9 908.2 L 623.2 894.7 L 609.7 871.3 L 586.4 884.8 L 572.9 861.4 L 596.2 847.9 L 582.7 824.5 L 606.1 811 L 619.6 834.4 L 643 820.9 L 656.5 844.3 L 633.1 857.8 L 646.6 881.2 L 670 867.7 Z" fill="#f7ef99" stroke="#5d675b" stroke-width="4"></path><path d="M 502.7 901.9 L 516.2 925.3 L 492.8 938.8 L 506.3 962.2 L 529.7 948.7 L 543.2 972 L 566.6 958.5 L 553.1 935.2 L 576.5 921.7 L 590 945 L 613.4 931.5 L 599.9 908.2 L 623.2 894.7 L 609.7 871.3 L 586.4 884.8 L 572.9 861.4 L 549.5 874.9 L 563 898.3 L 539.6 911.8 L 526.1 888.4 Z" fill="#abe188" stroke="#5d675b" stroke-width="4"></path><path d="M 572.9 861.4 L 549.5 874.9 L 563 898.3 L 539.6 911.8 L 526.1 888.4 L 502.7 901.9 L 489.2 878.5 L 512.6 865 L 499.1 841.6 L 475.7 855.1 L 462.2 831.7 L 485.6 818.2 L 472.1 794.9 L 495.5 781.4 L 509 804.7 L 532.4 791.2 L 545.9 814.6 L 522.5 828.1 L 536 851.5 L 559.4 838 Z" fill="#f7ef99" stroke="#5d675b" stroke-width="4"></path><path d="M 392.1 872.2 L 405.6 895.6 L 382.2 909.1 L 395.7 932.5 L 419.1 919 L 432.6 942.4 L 455.9 928.9 L 442.4 905.5 L 465.8 892 L 479.3 915.4 L 502.7 901.9 L 489.2 878.5 L 512.6 865 L 499.1 841.6 L 475.7 855.1 L 462.2 831.7 L 438.8 845.2 L 452.3 868.6 L 428.9 882.1 L 415.4 858.7 Z" fill="#abe188" stroke="#5d675b" stroke-width="4"></path><path d="M 462.2 831.7 L 438.8 845.2 L 452.3 868.6 L 428.9 882.1 L 415.4 858.7 L 392.1 872.2 L 378.6 848.9 L 401.9 835.4 L 388.4 812 L 365.1 825.5 L 351.6 802.1 L 374.9 788.6 L 361.4 765.2 L 384.8 751.7 L 398.3 775.1 L 421.7 761.6 L 435.2 785 L 411.8 798.5 L 425.3 821.9 L 448.7 808.4 Z" fill="#f7ef99" stroke="#5d675b" stroke-width="4"></path><path d="M 281.4 842.6 L 294.9 866 L 271.5 879.5 L 285 902.9 L 308.4 889.4 L 321.9 912.7 L 345.3 899.2 L 331.8 875.9 L 355.2 862.4 L 368.7 885.7 L 392.1 872.2 L 378.6 848.9 L 401.9 835.4 L 388.4 812 L 365.1 825.5 L 351.6 802.1 L 328.2 815.6 L 341.7 839 L 318.3 852.5 L 304.8 829.1 Z" fill="#abe188" stroke="#5d675b" stroke-width="4"></path><path d="M 351.6 802.1 L 328.2 815.6 L 341.7 839 L 318.3 852.5 L 304.8 829.1 L 281.4 842.6 L 267.9 819.2 L 291.3 805.7 L 277.8 782.3 L 254.4 795.8 L 240.9 772.4 L 264.3 758.9 L 250.8 735.6 L 274.2 722.1 L 287.7 745.4 L 311.1 731.9 L 324.6 755.3 L 301.2 768.8 L 314.7 792.2 L 338.1 778.7 Z" fill="#f7ef99" stroke="#5d675b" stroke-width="4"></path><path d="M 170.8 812.9 L 184.3 836.3 L 160.9 849.8 L 174.4 873.2 L 197.8 859.7 L 211.3 883.1 L 234.6 869.6 L 221.1 846.2 L 244.5 832.7 L 258 856.1 L 281.4 842.6 L 267.9 819.2 L 291.3 805.7 L 277.8 782.3 L 254.4 795.8 L 240.9 772.4 L 217.5 785.9 L 231 809.3 L 207.6 822.8 L 194.1 799.4 Z" fill="#abe188" stroke="#5d675b" stroke-width="4"></path><path d="M 240.9 772.4 L 217.5 785.9 L 231 809.3 L 207.6 822.8 L 194.1 799.4 L 170.8 812.9 L 157.3 789.6 L 180.6 776.1 L 167.1 752.7 L 143.8 766.2 L 130.3 742.8 L 153.6 729.3 L 140.1 705.9 L 163.5 692.4 L 177 715.8 L 200.4 702.3 L 213.9 725.7 L 190.5 739.2 L 204 762.6 L 227.4 749.1 Z" fill="#f7ef99" stroke="#5d675b" stroke-width="4"></path><path d="M 60.1 783.3 L 73.6 806.7 L 50.2 820.2 L 63.7 843.6 L 87.1 830.1 L 100.6 853.4 L 124 839.9 L 110.5 816.6 L 133.9 803.1 L 147.4 826.4 L 170.8 812.9 L 157.3 789.6 L 180.6 776.1 L 167.1 752.7 L 143.8 766.2 L 130.3 742.8 L 106.9 756.3 L 120.4 779.7 L 97 793.2 L 83.5 769.8 Z" fill="#abe188" stroke="#5d675b" stroke-width="4"></path><path d="M 130.3 742.8 L 106.9 756.3 L 120.4 779.7 L 97 793.2 L 83.5 769.8 L 60.1 783.3 L 46.6 759.9 L 70 746.4 L 56.5 723 L 33.1 736.5 L 19.6 713.1 L 43 699.6 L 29.5 676.3 L 52.9 662.8 L 66.4 686.1 L 89.8 672.6 L 103.3 696 L 79.9 709.5 L 93.4 732.9 L 116.8 719.4 Z" fill="#f7ef99" stroke="#5d675b" stroke-width="4"></path><path d="M -50.5 753.6 L -37 777 L -60.4 790.5 L -46.9 813.9 L -23.5 800.4 L -10 823.8 L 13.3 810.3 L -0.2 786.9 L 23.2 773.4 L 36.7 796.8 L 60.1 783.3 L 46.6 759.9 L 70 746.4 L 56.5 723 L 33.1 736.5 L 19.6 713.1 L -3.8 726.6 L 9.7 750 L -13.7 763.5 L -27.2 740.1 Z" fill="#abe188" stroke="#5d675b" stroke-width="4"></path><path d="M 19.6 713.1 L -3.8 726.6 L 9.7 750 L -13.7 763.5 L -27.2 740.1 L -50.5 753.6 L -64 730.3 L -40.7 716.8 L -54.2 693.4 L -77.5 706.9 L -91 683.5 L -67.7 670 L -81.2 646.6 L -57.8 633.1 L -44.3 656.5 L -20.9 643 L -7.4 666.4 L -30.8 679.9 L -17.3 703.3 L 6.1 689.8 Z" fill="#f7ef99" stroke="#5d675b" stroke-width="4"></path><path d="M -161.2 724 L -147.7 747.4 L -171.1 760.9 L -157.6 784.3 L -134.2 770.8 L -120.7 794.1 L -97.3 780.6 L -110.8 757.3 L -87.4 743.8 L -73.9 767.1 L -50.5 753.6 L -64 730.3 L -40.7 716.8 L -54.2 693.4 L -77.5 706.9 L -91 683.5 L -114.4 697 L -100.9 720.4 L -124.3 733.9 L -137.8 710.5 Z" fill="#abe188" stroke="#5d675b" stroke-width="4"></path><path d="M -91 683.5 L -114.4 697 L -100.9 720.4 L -124.3 733.9 L -137.8 710.5 L -161.2 724 L -174.7 700.6 L -151.3 687.1 L -164.8 663.7 L -188.2 677.2 L -201.7 653.9 L -178.3 640.4 L -191.8 617 L -168.4 603.5 L -154.9 626.9 L -131.5 613.4 L -118 636.7 L -141.4 650.2 L -127.9 673.6 L -104.5 660.1 Z" fill="#f7ef99" stroke="#5d675b" stroke-width="4"></path><path d="M -271.8 694.4 L -258.3 717.7 L -281.7 731.2 L -268.2 754.6 L -244.8 741.1 L -231.3 764.5 L -207.9 751 L -221.4 727.6 L -198.1 714.1 L -184.6 737.5 L -161.2 724 L -174.7 700.6 L -151.3 687.1 L -164.8 663.7 L -188.2 677.2 L -201.7 653.9 L -225.1 667.4 L -211.6 690.7 L -234.9 704.2 L -248.4 680.9 Z" fill="#abe188" stroke="#5d675b" stroke-width="4"></path><path d="M -201.7 653.9 L -225.1 667.4 L -211.6 690.7 L -234.9 704.2 L -248.4 680.9 L -271.8 694.4 L -285.3 671 L -261.9 657.5 L -275.4 634.1 L -298.8 647.6 L -312.3 624.2 L -288.9 610.7 L -302.4 587.3 L -279.1 573.8 L -265.6 597.2 L -242.2 583.7 L -228.7 607.1 L -252.1 620.6 L -238.6 644 L -215.2 630.5 Z" fill="#f7ef99" stroke="#5d675b" stroke-width="4"></path><path d="M 805 1101.5 L 818.5 1124.9 L 795.1 1138.4 L 808.6 1161.7 L 832 1148.2 L 845.5 1171.6 L 868.9 1158.1 L 855.4 1134.7 L 878.8 1121.2 L 892.3 1144.6 L 915.6 1131.1 L 902.1 1107.7 L 925.5 1094.2 L 912 1070.9 L 888.6 1084.4 L 875.1 1061 L 851.8 1074.5 L 865.3 1097.9 L 841.9 1111.4 L 828.4 1088 Z" fill="#abe188" stroke="#5d675b" stroke-width="4"></path><path d="M 875.1 1061 L 851.8 1074.5 L 865.3 1097.9 L 841.9 1111.4 L 828.4 1088 L 805 1101.5 L 791.5 1078.1 L 814.9 1064.6 L 801.4 1041.2 L 778 1054.7 L 764.5 1031.3 L 787.9 1017.8 L 774.4 994.4 L 797.8 980.9 L 811.3 1004.3 L 834.6 990.8 L 848.1 1014.2 L 824.8 1027.7 L 838.3 1051.1 L 861.6 1037.6 Z" fill="#f7ef99" stroke="#5d675b" stroke-width="4"></path><path d="M 694.4 1071.8 L 707.9 1095.2 L 684.5 1108.7 L 698 1132.1 L 721.4 1118.6 L 734.9 1142 L 758.2 1128.5 L 744.7 1105.1 L 768.1 1091.6 L 781.6 1115 L 805 1101.5 L 791.5 1078.1 L 814.9 1064.6 L 801.4 1041.2 L 778 1054.7 L 764.5 1031.3 L 741.1 1044.8 L 754.6 1068.2 L 731.2 1081.7 L 717.7 1058.3 Z" fill="#abe188" stroke="#5d675b" stroke-width="4"></path><path d="M 764.5 1031.3 L 741.1 1044.8 L 754.6 1068.2 L 731.2 1081.7 L 717.7 1058.3 L 694.4 1071.8 L 680.9 1048.4 L 704.2 1034.9 L 690.7 1011.6 L 667.4 1025.1 L 653.9 1001.7 L 677.2 988.2 L 663.7 964.8 L 687.1 951.3 L 700.6 974.7 L 724 961.2 L 737.5 984.6 L 714.1 998.1 L 727.6 1021.4 L 751 1007.9 Z" fill="#f7ef99" stroke="#5d675b" stroke-width="4"></path><path d="M 583.7 1042.2 L 597.2 1065.6 L 573.8 1079.1 L 587.3 1102.4 L 610.7 1088.9 L 624.2 1112.3 L 647.6 1098.8 L 634.1 1075.4 L 657.5 1061.9 L 671 1085.3 L 694.4 1071.8 L 680.9 1048.4 L 704.2 1034.9 L 690.7 1011.6 L 667.4 1025.1 L 653.9 1001.7 L 630.5 1015.2 L 644 1038.6 L 620.6 1052.1 L 607.1 1028.7 Z" fill="#abe188" stroke="#5d675b" stroke-width="4"></path><path d="M 653.9 1001.7 L 630.5 1015.2 L 644 1038.6 L 620.6 1052.1 L 607.1 1028.7 L 583.7 1042.2 L 570.2 1018.8 L 593.6 1005.3 L 580.1 981.9 L 556.7 995.4 L 543.2 972 L 566.6 958.5 L 553.1 935.2 L 576.5 921.7 L 590 945 L 613.4 931.5 L 626.9 954.9 L 603.5 968.4 L 617 991.8 L 640.4 978.3 Z" fill="#f7ef99" stroke="#5d675b" stroke-width="4"></path><path d="M 473.1 1012.5 L 486.6 1035.9 L 463.2 1049.4 L 476.7 1072.8 L 500.1 1059.3 L 513.6 1082.7 L 536.9 1069.2 L 523.4 1045.8 L 546.8 1032.3 L 560.3 1055.7 L 583.7 1042.2 L 570.2 1018.8 L 593.6 1005.3 L 580.1 981.9 L 556.7 995.4 L 543.2 972 L 519.8 985.5 L 533.3 1008.9 L 509.9 1022.4 L 496.4 999 Z" fill="#abe188" stroke="#5d675b" stroke-width="4"></path><path d="M 543.2 972 L 519.8 985.5 L 533.3 1008.9 L 509.9 1022.4 L 496.4 999 L 473.1 1012.5 L 459.6 989.2 L 482.9 975.7 L 469.4 952.3 L 446.1 965.8 L 432.6 942.4 L 455.9 928.9 L 442.4 905.5 L 465.8 892 L 479.3 915.4 L 502.7 901.9 L 516.2 925.3 L 492.8 938.8 L 506.3 962.2 L 529.7 948.7 Z" fill="#f7ef99" stroke="#5d675b" stroke-width="4"></path><path d="M 362.4 982.9 L 375.9 1006.3 L 352.5 1019.8 L 366 1043.2 L 389.4 1029.7 L 402.9 1053 L 426.3 1039.5 L 412.8 1016.2 L 436.2 1002.7 L 449.7 1026 L 473.1 1012.5 L 459.6 989.2 L 482.9 975.7 L 469.4 952.3 L 446.1 965.8 L 432.6 942.4 L 409.2 955.9 L 422.7 979.3 L 399.3 992.8 L 385.8 969.4 Z" fill="#abe188" stroke="#5d675b" stroke-width="4"></path><path d="M 432.6 942.4 L 409.2 955.9 L 422.7 979.3 L 399.3 992.8 L 385.8 969.4 L 362.4 982.9 L 348.9 959.5 L 372.3 946 L 358.8 922.6 L 335.4 936.1 L 321.9 912.7 L 345.3 899.2 L 331.8 875.9 L 355.2 862.4 L 368.7 885.7 L 392.1 872.2 L 405.6 895.6 L 382.2 909.1 L 395.7 932.5 L 419.1 919 Z" fill="#f7ef99" stroke="#5d675b" stroke-width="4"></path><path d="M 251.8 953.2 L 265.3 976.6 L 241.9 990.1 L 255.4 1013.5 L 278.8 1000 L 292.3 1023.4 L 315.6 1009.9 L 302.1 986.5 L 325.5 973 L 339 996.4 L 362.4 982.9 L 348.9 959.5 L 372.3 946 L 358.8 922.6 L 335.4 936.1 L 321.9 912.7 L 298.5 926.2 L 312 949.6 L 288.6 963.1 L 275.1 939.7 Z" fill="#abe188" stroke="#5d675b" stroke-width="4"></path><path d="M 321.9 912.7 L 298.5 926.2 L 312 949.6 L 288.6 963.1 L 275.1 939.7 L 251.8 953.2 L 238.3 929.9 L 261.6 916.4 L 248.1 893 L 224.8 906.5 L 211.3 883.1 L 234.6 869.6 L 221.1 846.2 L 244.5 832.7 L 258 856.1 L 281.4 842.6 L 294.9 866 L 271.5 879.5 L 285 902.9 L 308.4 889.4 Z" fill="#f7ef99" stroke="#5d675b" stroke-width="4"></path><path d="M 141.1 923.6 L 154.6 947 L 131.2 960.5 L 144.7 983.9 L 168.1 970.4 L 181.6 993.7 L 205 980.2 L 191.5 956.9 L 214.9 943.4 L 228.4 966.7 L 251.8 953.2 L 238.3 929.9 L 261.6 916.4 L 248.1 893 L 224.8 906.5 L 211.3 883.1 L 187.9 896.6 L 201.4 920 L 178 933.5 L 164.5 910.1 Z" fill="#abe188" stroke="#5d675b" stroke-width="4"></path><path d="M 211.3 883.1 L 187.9 896.6 L 201.4 920 L 178 933.5 L 164.5 910.1 L 141.1 923.6 L 127.6 900.2 L 151 886.7 L 137.5 863.3 L 114.1 876.8 L 100.6 853.4 L 124 839.9 L 110.5 816.6 L 133.9 803.1 L 147.4 826.4 L 170.8 812.9 L 184.3 836.3 L 160.9 849.8 L 174.4 873.2 L 197.8 859.7 Z" fill="#f7ef99" stroke="#5d675b" stroke-width="4"></path><path d="M 30.5 893.9 L 44 917.3 L 20.6 930.8 L 34.1 954.2 L 57.5 940.7 L 71 964.1 L 94.3 950.6 L 80.8 927.2 L 104.2 913.7 L 117.7 937.1 L 141.1 923.6 L 127.6 900.2 L 151 886.7 L 137.5 863.3 L 114.1 876.8 L 100.6 853.4 L 77.2 866.9 L 90.7 890.3 L 67.3 903.8 L 53.8 880.4 Z" fill="#abe188" stroke="#5d675b" stroke-width="4"></path><path d="M 100.6 853.4 L 77.2 866.9 L 90.7 890.3 L 67.3 903.8 L 53.8 880.4 L 30.5 893.9 L 17 870.6 L 40.3 857.1 L 26.8 833.7 L 3.5 847.2 L -10 823.8 L 13.3 810.3 L -0.2 786.9 L 23.2 773.4 L 36.7 796.8 L 60.1 783.3 L 73.6 806.7 L 50.2 820.2 L 63.7 843.6 L 87.1 830.1 Z" fill="#f7ef99" stroke="#5d675b" stroke-width="4"></path><path d="M -80.2 864.3 L -66.7 887.7 L -90.1 901.2 L -76.6 924.6 L -53.2 911.1 L -39.7 934.4 L -16.3 920.9 L -29.8 897.6 L -6.4 884.1 L 7.1 907.4 L 30.5 893.9 L 17 870.6 L 40.3 857.1 L 26.8 833.7 L 3.5 847.2 L -10 823.8 L -33.4 837.3 L -19.9 860.7 L -43.3 874.2 L -56.8 850.8 Z" fill="#abe188" stroke="#5d675b" stroke-width="4"></path><path d="M -10 823.8 L -33.4 837.3 L -19.9 860.7 L -43.3 874.2 L -56.8 850.8 L -80.2 864.3 L -93.7 840.9 L -70.3 827.4 L -83.8 804 L -107.2 817.5 L -120.7 794.1 L -97.3 780.6 L -110.8 757.3 L -87.4 743.8 L -73.9 767.1 L -50.5 753.6 L -37 777 L -60.4 790.5 L -46.9 813.9 L -23.5 800.4 Z" fill="#f7ef99" stroke="#5d675b" stroke-width="4"></path><path d="M -190.8 834.6 L -177.3 858 L -200.7 871.5 L -187.2 894.9 L -163.8 881.4 L -150.3 904.8 L -126.9 891.3 L -140.4 867.9 L -117.1 854.4 L -103.6 877.8 L -80.2 864.3 L -93.7 840.9 L -70.3 827.4 L -83.8 804 L -107.2 817.5 L -120.7 794.1 L -144.1 807.6 L -130.6 831 L -153.9 844.5 L -167.4 821.1 Z" fill="#abe188" stroke="#5d675b" stroke-width="4"></path><path d="M -120.7 794.1 L -144.1 807.6 L -130.6 831 L -153.9 844.5 L -167.4 821.1 L -190.8 834.6 L -204.3 811.3 L -180.9 797.8 L -194.4 774.4 L -217.8 787.9 L -231.3 764.5 L -207.9 751 L -221.4 727.6 L -198.1 714.1 L -184.6 737.5 L -161.2 724 L -147.7 747.4 L -171.1 760.9 L -157.6 784.3 L -134.2 770.8 Z" fill="#f7ef99" stroke="#5d675b" stroke-width="4"></path><path d="M -301.5 805 L -288 828.4 L -311.4 841.9 L -297.9 865.3 L -274.5 851.8 L -261 875.1 L -237.6 861.6 L -251.1 838.3 L -227.7 824.8 L -214.2 848.1 L -190.8 834.6 L -204.3 811.3 L -180.9 797.8 L -194.4 774.4 L -217.8 787.9 L -231.3 764.5 L -254.7 778 L -241.2 801.4 L -264.6 814.9 L -278.1 791.5 Z" fill="#abe188" stroke="#5d675b" stroke-width="4"></path><path d="M -231.3 764.5 L -254.7 778 L -241.2 801.4 L -264.6 814.9 L -278.1 791.5 L -301.5 805 L -315 781.6 L -291.6 768.1 L -305.1 744.7 L -328.5 758.2 L -342 734.9 L -318.6 721.4 L -332.1 698 L -308.7 684.5 L -295.2 707.9 L -271.8 694.4 L -258.3 717.7 L -281.7 731.2 L -268.2 754.6 L -244.8 741.1 Z" fill="#f7ef99" stroke="#5d675b" stroke-width="4"></path><ellipse cx="400" cy="400" rx="600" ry="600" fill="none" stroke="white" stroke-width="560"></ellipse><ellipse cx="400" cy="400" rx="320" ry="320" fill="none" stroke="#5d675b" stroke-width="4"></ellipse></svg>