<svg viewBox="0 0 800 800" preserveAspectRatio="xMidYMin slice" xmlns="http://www.w3.org/2000/svg" xlink="http://www.w3.org/1999/xlink"><defs><g id="unit-36"><path d="M 10 -53.1 L 87 -8.7 L 87 -50.2 L 46 -73.9 Z" fill="#f3fcf0" stroke="none" stroke-width="1"></path><path d="M 133 17.9 L 97 -2.9 L 97 -50.2 L 133 -71 Z" fill="#f3fcf0" stroke="none" stroke-width="1"></path><path d="M 56 -79.7 L 92 -58.9 L 133 -82.5 L 133 -124.1 Z" fill="#f3fcf0" stroke="none" stroke-width="1"></path><path d="M 51 -17.9 L 51 71 L 87 50.2 L 87 2.9 Z" fill="#f3fcf0" stroke="none" stroke-width="1"></path><path d="M 51 124.1 L 51 82.5 L 92 58.9 L 128 79.7 Z" fill="#f3fcf0" stroke="none" stroke-width="1"></path><path d="M 97 8.7 L 97 50.2 L 138 73.9 L 174 53.1 Z" fill="#f3fcf0" stroke="none" stroke-width="1"></path><path d="M 41 23.7 L 41 -23.7 L 0 -47.3 L -41 -23.7 L -41 23.7 L 0 47.3 Z" fill="#ffd23f" stroke="none" stroke-width="1"></path></g></defs><rect x="0" y="0" width="800" height="800" fill="#1f271b"></rect><use href="#unit-36" transform="translate(400, 400)"></use><use href="#unit-36" transform="translate(308, 559.3)"></use><use href="#unit-36" transform="translate(492, 559.3)"></use><use href="#unit-36" transform="translate(584, 400)"></use><use href="#unit-36" transform="translate(492, 240.7)"></use><use href="#unit-36" transform="translate(308, 240.7)"></use><use href="#unit-36" transform="translate(216, 400)"></use><use href="#unit-36" transform="translate(216, 718.6)"></use><use href="#unit-36" transform="translate(400, 718.6)"></use><use href="#unit-36" transform="translate(584, 718.6)"></use><use href="#unit-36" transform="translate(676, 559.3)"></use><use href="#unit-36" transform="translate(767.9, 400)"></use><use href="#unit-36" transform="translate(676, 240.7)"></use><use href="#unit-36" transform="translate(584, 81.4)"></use><use href="#unit-36" transform="translate(400, 81.4)"></use><use href="#unit-36" transform="translate(216, 81.4)"></use><use href="#unit-36" transform="translate(124, 240.7)"></use><use href="#unit-36" transform="translate(32.1, 400)"></use><use href="#unit-36" transform="translate(124, 559.3)"></use><use href="#unit-36" transform="translate(124, 878)"></use><use href="#unit-36" transform="translate(308, 878)"></use><use href="#unit-36" transform="translate(492, 878)"></use><use href="#unit-36" transform="translate(676, 878)"></use><use href="#unit-36" transform="translate(767.9, 718.6)"></use><use href="#unit-36" transform="translate(859.9, 559.3)"></use><use href="#unit-36" transform="translate(951.9, 400)"></use><use href="#unit-36" transform="translate(859.9, 240.7)"></use><use href="#unit-36" transform="translate(767.9, 81.4)"></use><use href="#unit-36" transform="translate(676, -78)"></use><use href="#unit-36" transform="translate(492, -78)"></use><use href="#unit-36" transform="translate(308, -78)"></use><use href="#unit-36" transform="translate(124, -78)"></use><use href="#unit-36" transform="translate(32.1, 81.4)"></use><use href="#unit-36" transform="translate(-59.9, 240.7)"></use><use href="#unit-36" transform="translate(-151.9, 400)"></use><use href="#unit-36" transform="translate(-59.9, 559.3)"></use><use href="#unit-36" transform="translate(32.1, 718.6)"></use><ellipse cx="400" cy="400" rx="600" ry="600" fill="none" stroke="white" stroke-width="560"></ellipse><ellipse cx="400" cy="400" rx="320" ry="320" fill="none" stroke="#1f271b" stroke-width="10"></ellipse></svg>