<svg viewBox="0 0 800 800" preserveAspectRatio="xMidYMin slice" xmlns="http://www.w3.org/2000/svg"><rect x="0" y="0" width="800" height="800" fill="#1f271b"></rect><path d="M 410 346.9 L 487 391.3 L 487 349.8 L 446 326.1 Z" fill="#f3fcf0" stroke="none" stroke-width="1"></path><path d="M 533 417.9 L 497 397.1 L 497 349.8 L 533 329 Z" fill="#f3fcf0" stroke="none" stroke-width="1"></path><path d="M 456 320.3 L 492 341.1 L 533 317.5 L 533 275.9 Z" fill="#f3fcf0" stroke="none" stroke-width="1"></path><path d="M 451 382.1 L 451 471 L 487 450.2 L 487 402.9 Z" fill="#f3fcf0" stroke="none" stroke-width="1"></path><path d="M 451 524.1 L 451 482.5 L 492 458.9 L 528 479.7 Z" fill="#f3fcf0" stroke="none" stroke-width="1"></path><path d="M 497 408.7 L 497 450.2 L 538 473.9 L 574 453.1 Z" fill="#f3fcf0" stroke="none" stroke-width="1"></path><path d="M 441 423.7 L 441 376.3 L 400 352.7 L 359 376.3 L 359 423.7 L 400 447.3 Z" fill="#ffd23f" stroke="none" stroke-width="1"></path><path d="M 318 506.2 L 395 550.7 L 395 509.1 L 354 485.4 Z" fill="#f3fcf0" stroke="none" stroke-width="1"></path><path d="M 441 577.2 L 405 556.4 L 405 509.1 L 441 488.3 Z" fill="#f3fcf0" stroke="none" stroke-width="1"></path><path d="M 364 479.7 L 400 500.4 L 441 476.8 L 441 435.2 Z" fill="#f3fcf0" stroke="none" stroke-width="1"></path><path d="M 359 541.4 L 359 630.3 L 395 609.5 L 395 562.2 Z" fill="#f3fcf0" stroke="none" stroke-width="1"></path><path d="M 359 683.4 L 359 641.9 L 400 618.2 L 436 639 Z" fill="#f3fcf0" stroke="none" stroke-width="1"></path><path d="M 405 568 L 405 609.5 L 446 633.2 L 482 612.4 Z" fill="#f3fcf0" stroke="none" stroke-width="1"></path><path d="M 349 583 L 349 535.7 L 308 512 L 267 535.7 L 267 583 L 308 606.7 Z" fill="#ffd23f" stroke="none" stroke-width="1"></path><path d="M 502 506.2 L 579 550.7 L 579 509.1 L 538 485.4 Z" fill="#f3fcf0" stroke="none" stroke-width="1"></path><path d="M 625 577.2 L 589 556.4 L 589 509.1 L 625 488.3 Z" fill="#f3fcf0" stroke="none" stroke-width="1"></path><path d="M 548 479.7 L 584 500.4 L 625 476.8 L 625 435.2 Z" fill="#f3fcf0" stroke="none" stroke-width="1"></path><path d="M 543 541.4 L 543 630.3 L 579 609.5 L 579 562.2 Z" fill="#f3fcf0" stroke="none" stroke-width="1"></path><path d="M 543 683.4 L 543 641.9 L 584 618.2 L 620 639 Z" fill="#f3fcf0" stroke="none" stroke-width="1"></path><path d="M 589 568 L 589 609.5 L 630 633.2 L 666 612.4 Z" fill="#f3fcf0" stroke="none" stroke-width="1"></path><path d="M 533 583 L 533 535.7 L 492 512 L 451 535.7 L 451 583 L 492 606.7 Z" fill="#ffd23f" stroke="none" stroke-width="1"></path><path d="M 594 346.9 L 671 391.3 L 671 349.8 L 630 326.1 Z" fill="#f3fcf0" stroke="none" stroke-width="1"></path><path d="M 716.9 417.9 L 681 397.1 L 681 349.8 L 716.9 329 Z" fill="#f3fcf0" stroke="none" stroke-width="1"></path><path d="M 640 320.3 L 676 341.1 L 716.9 317.5 L 716.9 275.9 Z" fill="#f3fcf0" stroke="none" stroke-width="1"></path><path d="M 635 382.1 L 635 471 L 671 450.2 L 671 402.9 Z" fill="#f3fcf0" stroke="none" stroke-width="1"></path><path d="M 635 524.1 L 635 482.5 L 676 458.9 L 711.9 479.7 Z" fill="#f3fcf0" stroke="none" stroke-width="1"></path><path d="M 681 408.7 L 681 450.2 L 721.9 473.9 L 757.9 453.1 Z" fill="#f3fcf0" stroke="none" stroke-width="1"></path><path d="M 625 423.7 L 625 376.3 L 584 352.7 L 543 376.3 L 543 423.7 L 584 447.3 Z" fill="#ffd23f" stroke="none" stroke-width="1"></path><path d="M 502 187.6 L 579 232 L 579 190.5 L 538 166.8 Z" fill="#f3fcf0" stroke="none" stroke-width="1"></path><path d="M 625 258.6 L 589 237.8 L 589 190.5 L 625 169.7 Z" fill="#f3fcf0" stroke="none" stroke-width="1"></path><path d="M 548 161 L 584 181.8 L 625 158.1 L 625 116.6 Z" fill="#f3fcf0" stroke="none" stroke-width="1"></path><path d="M 543 222.8 L 543 311.7 L 579 290.9 L 579 243.6 Z" fill="#f3fcf0" stroke="none" stroke-width="1"></path><path d="M 543 364.8 L 543 323.2 L 584 299.6 L 620 320.3 Z" fill="#f3fcf0" stroke="none" stroke-width="1"></path><path d="M 589 249.3 L 589 290.9 L 630 314.6 L 666 293.8 Z" fill="#f3fcf0" stroke="none" stroke-width="1"></path><path d="M 533 264.3 L 533 217 L 492 193.3 L 451 217 L 451 264.3 L 492 288 Z" fill="#ffd23f" stroke="none" stroke-width="1"></path><path d="M 318 187.6 L 395 232 L 395 190.5 L 354 166.8 Z" fill="#f3fcf0" stroke="none" stroke-width="1"></path><path d="M 441 258.6 L 405 237.8 L 405 190.5 L 441 169.7 Z" fill="#f3fcf0" stroke="none" stroke-width="1"></path><path d="M 364 161 L 400 181.8 L 441 158.1 L 441 116.6 Z" fill="#f3fcf0" stroke="none" stroke-width="1"></path><path d="M 359 222.8 L 359 311.7 L 395 290.9 L 395 243.6 Z" fill="#f3fcf0" stroke="none" stroke-width="1"></path><path d="M 359 364.8 L 359 323.2 L 400 299.6 L 436 320.3 Z" fill="#f3fcf0" stroke="none" stroke-width="1"></path><path d="M 405 249.3 L 405 290.9 L 446 314.6 L 482 293.8 Z" fill="#f3fcf0" stroke="none" stroke-width="1"></path><path d="M 349 264.3 L 349 217 L 308 193.3 L 267 217 L 267 264.3 L 308 288 Z" fill="#ffd23f" stroke="none" stroke-width="1"></path><path d="M 226 346.9 L 303 391.3 L 303 349.8 L 262 326.1 Z" fill="#f3fcf0" stroke="none" stroke-width="1"></path><path d="M 349 417.9 L 313 397.1 L 313 349.8 L 349 329 Z" fill="#f3fcf0" stroke="none" stroke-width="1"></path><path d="M 272 320.3 L 308 341.1 L 349 317.5 L 349 275.9 Z" fill="#f3fcf0" stroke="none" stroke-width="1"></path><path d="M 267 382.1 L 267 471 L 303 450.2 L 303 402.9 Z" fill="#f3fcf0" stroke="none" stroke-width="1"></path><path d="M 267 524.1 L 267 482.5 L 308 458.9 L 344 479.7 Z" fill="#f3fcf0" stroke="none" stroke-width="1"></path><path d="M 313 408.7 L 313 450.2 L 354 473.9 L 390 453.1 Z" fill="#f3fcf0" stroke="none" stroke-width="1"></path><path d="M 257 423.7 L 257 376.3 L 216 352.7 L 175 376.3 L 175 423.7 L 216 447.3 Z" fill="#ffd23f" stroke="none" stroke-width="1"></path><path d="M 226 665.5 L 303 710 L 303 668.4 L 262 644.8 Z" fill="#f3fcf0" stroke="none" stroke-width="1"></path><path d="M 349 736.5 L 313 715.8 L 313 668.4 L 349 647.6 Z" fill="#f3fcf0" stroke="none" stroke-width="1"></path><path d="M 272 639 L 308 659.8 L 349 636.1 L 349 594.5 Z" fill="#f3fcf0" stroke="none" stroke-width="1"></path><path d="M 267 700.7 L 267 789.6 L 303 768.9 L 303 721.5 Z" fill="#f3fcf0" stroke="none" stroke-width="1"></path><path d="M 267 842.7 L 267 801.2 L 308 777.5 L 344 798.3 Z" fill="#f3fcf0" stroke="none" stroke-width="1"></path><path d="M 313 727.3 L 313 768.9 L 354 792.5 L 390 771.7 Z" fill="#f3fcf0" stroke="none" stroke-width="1"></path><path d="M 257 742.3 L 257 695 L 216 671.3 L 175 695 L 175 742.3 L 216 766 Z" fill="#ffd23f" stroke="none" stroke-width="1"></path><path d="M 410 665.5 L 487 710 L 487 668.4 L 446 644.8 Z" fill="#f3fcf0" stroke="none" stroke-width="1"></path><path d="M 533 736.5 L 497 715.8 L 497 668.4 L 533 647.6 Z" fill="#f3fcf0" stroke="none" stroke-width="1"></path><path d="M 456 639 L 492 659.8 L 533 636.1 L 533 594.5 Z" fill="#f3fcf0" stroke="none" stroke-width="1"></path><path d="M 451 700.7 L 451 789.6 L 487 768.9 L 487 721.5 Z" fill="#f3fcf0" stroke="none" stroke-width="1"></path><path d="M 451 842.7 L 451 801.2 L 492 777.5 L 528 798.3 Z" fill="#f3fcf0" stroke="none" stroke-width="1"></path><path d="M 497 727.3 L 497 768.9 L 538 792.5 L 574 771.7 Z" fill="#f3fcf0" stroke="none" stroke-width="1"></path><path d="M 441 742.3 L 441 695 L 400 671.3 L 359 695 L 359 742.3 L 400 766 Z" fill="#ffd23f" stroke="none" stroke-width="1"></path><path d="M 594 665.5 L 671 710 L 671 668.4 L 630 644.8 Z" fill="#f3fcf0" stroke="none" stroke-width="1"></path><path d="M 716.9 736.5 L 681 715.8 L 681 668.4 L 716.9 647.6 Z" fill="#f3fcf0" stroke="none" stroke-width="1"></path><path d="M 640 639 L 676 659.8 L 716.9 636.1 L 716.9 594.5 Z" fill="#f3fcf0" stroke="none" stroke-width="1"></path><path d="M 635 700.7 L 635 789.6 L 671 768.9 L 671 721.5 Z" fill="#f3fcf0" stroke="none" stroke-width="1"></path><path d="M 635 842.7 L 635 801.2 L 676 777.5 L 711.9 798.3 Z" fill="#f3fcf0" stroke="none" stroke-width="1"></path><path d="M 681 727.3 L 681 768.9 L 721.9 792.5 L 757.9 771.7 Z" fill="#f3fcf0" stroke="none" stroke-width="1"></path><path d="M 625 742.3 L 625 695 L 584 671.3 L 543 695 L 543 742.3 L 584 766 Z" fill="#ffd23f" stroke="none" stroke-width="1"></path><path d="M 686 506.2 L 762.9 550.7 L 762.9 509.1 L 721.9 485.4 Z" fill="#f3fcf0" stroke="none" stroke-width="1"></path><path d="M 808.9 577.2 L 772.9 556.4 L 772.9 509.1 L 808.9 488.3 Z" fill="#f3fcf0" stroke="none" stroke-width="1"></path><path d="M 731.9 479.7 L 767.9 500.4 L 808.9 476.8 L 808.9 435.2 Z" fill="#f3fcf0" stroke="none" stroke-width="1"></path><path d="M 726.9 541.4 L 726.9 630.3 L 762.9 609.5 L 762.9 562.2 Z" fill="#f3fcf0" stroke="none" stroke-width="1"></path><path d="M 726.9 683.4 L 726.9 641.9 L 767.9 618.2 L 803.9 639 Z" fill="#f3fcf0" stroke="none" stroke-width="1"></path><path d="M 772.9 568 L 772.9 609.5 L 813.9 633.2 L 849.9 612.4 Z" fill="#f3fcf0" stroke="none" stroke-width="1"></path><path d="M 716.9 583 L 716.9 535.7 L 676 512 L 635 535.7 L 635 583 L 676 606.7 Z" fill="#ffd23f" stroke="none" stroke-width="1"></path><path d="M 777.9 346.9 L 854.9 391.3 L 854.9 349.8 L 813.9 326.1 Z" fill="#f3fcf0" stroke="none" stroke-width="1"></path><path d="M 900.9 417.9 L 864.9 397.1 L 864.9 349.8 L 900.9 329 Z" fill="#f3fcf0" stroke="none" stroke-width="1"></path><path d="M 823.9 320.3 L 859.9 341.1 L 900.9 317.5 L 900.9 275.9 Z" fill="#f3fcf0" stroke="none" stroke-width="1"></path><path d="M 818.9 382.1 L 818.9 471 L 854.9 450.2 L 854.9 402.9 Z" fill="#f3fcf0" stroke="none" stroke-width="1"></path><path d="M 818.9 524.1 L 818.9 482.5 L 859.9 458.9 L 895.9 479.7 Z" fill="#f3fcf0" stroke="none" stroke-width="1"></path><path d="M 864.9 408.7 L 864.9 450.2 L 905.9 473.9 L 941.9 453.1 Z" fill="#f3fcf0" stroke="none" stroke-width="1"></path><path d="M 808.9 423.7 L 808.9 376.3 L 767.9 352.7 L 726.9 376.3 L 726.9 423.7 L 767.9 447.3 Z" fill="#ffd23f" stroke="none" stroke-width="1"></path><path d="M 686 187.6 L 762.9 232 L 762.9 190.5 L 721.9 166.8 Z" fill="#f3fcf0" stroke="none" stroke-width="1"></path><path d="M 808.9 258.6 L 772.9 237.8 L 772.9 190.5 L 808.9 169.7 Z" fill="#f3fcf0" stroke="none" stroke-width="1"></path><path d="M 731.9 161 L 767.9 181.8 L 808.9 158.1 L 808.9 116.6 Z" fill="#f3fcf0" stroke="none" stroke-width="1"></path><path d="M 726.9 222.8 L 726.9 311.7 L 762.9 290.9 L 762.9 243.6 Z" fill="#f3fcf0" stroke="none" stroke-width="1"></path><path d="M 726.9 364.8 L 726.9 323.2 L 767.9 299.6 L 803.9 320.3 Z" fill="#f3fcf0" stroke="none" stroke-width="1"></path><path d="M 772.9 249.3 L 772.9 290.9 L 813.9 314.6 L 849.9 293.8 Z" fill="#f3fcf0" stroke="none" stroke-width="1"></path><path d="M 716.9 264.3 L 716.9 217 L 676 193.3 L 635 217 L 635 264.3 L 676 288 Z" fill="#ffd23f" stroke="none" stroke-width="1"></path><path d="M 594 28.3 L 671 72.7 L 671 31.1 L 630 7.5 Z" fill="#f3fcf0" stroke="none" stroke-width="1"></path><path d="M 716.9 99.3 L 681 78.5 L 681 31.1 L 716.9 10.4 Z" fill="#f3fcf0" stroke="none" stroke-width="1"></path><path d="M 640 1.7 L 676 22.5 L 716.9 -1.2 L 716.9 -42.7 Z" fill="#f3fcf0" stroke="none" stroke-width="1"></path><path d="M 635 63.5 L 635 152.4 L 671 131.6 L 671 84.2 Z" fill="#f3fcf0" stroke="none" stroke-width="1"></path><path d="M 635 205.5 L 635 163.9 L 676 140.2 L 711.9 161 Z" fill="#f3fcf0" stroke="none" stroke-width="1"></path><path d="M 681 90 L 681 131.6 L 721.9 155.2 L 757.9 134.5 Z" fill="#f3fcf0" stroke="none" stroke-width="1"></path><path d="M 625 105 L 625 57.7 L 584 34 L 543 57.7 L 543 105 L 584 128.7 Z" fill="#ffd23f" stroke="none" stroke-width="1"></path><path d="M 410 28.3 L 487 72.7 L 487 31.1 L 446 7.5 Z" fill="#f3fcf0" stroke="none" stroke-width="1"></path><path d="M 533 99.3 L 497 78.5 L 497 31.1 L 533 10.4 Z" fill="#f3fcf0" stroke="none" stroke-width="1"></path><path d="M 456 1.7 L 492 22.5 L 533 -1.2 L 533 -42.7 Z" fill="#f3fcf0" stroke="none" stroke-width="1"></path><path d="M 451 63.5 L 451 152.4 L 487 131.6 L 487 84.2 Z" fill="#f3fcf0" stroke="none" stroke-width="1"></path><path d="M 451 205.5 L 451 163.9 L 492 140.2 L 528 161 Z" fill="#f3fcf0" stroke="none" stroke-width="1"></path><path d="M 497 90 L 497 131.6 L 538 155.2 L 574 134.5 Z" fill="#f3fcf0" stroke="none" stroke-width="1"></path><path d="M 441 105 L 441 57.7 L 400 34 L 359 57.7 L 359 105 L 400 128.7 Z" fill="#ffd23f" stroke="none" stroke-width="1"></path><path d="M 226 28.3 L 303 72.7 L 303 31.1 L 262 7.5 Z" fill="#f3fcf0" stroke="none" stroke-width="1"></path><path d="M 349 99.3 L 313 78.5 L 313 31.1 L 349 10.4 Z" fill="#f3fcf0" stroke="none" stroke-width="1"></path><path d="M 272 1.7 L 308 22.5 L 349 -1.2 L 349 -42.7 Z" fill="#f3fcf0" stroke="none" stroke-width="1"></path><path d="M 267 63.5 L 267 152.4 L 303 131.6 L 303 84.2 Z" fill="#f3fcf0" stroke="none" stroke-width="1"></path><path d="M 267 205.5 L 267 163.9 L 308 140.2 L 344 161 Z" fill="#f3fcf0" stroke="none" stroke-width="1"></path><path d="M 313 90 L 313 131.6 L 354 155.2 L 390 134.5 Z" fill="#f3fcf0" stroke="none" stroke-width="1"></path><path d="M 257 105 L 257 57.7 L 216 34 L 175 57.7 L 175 105 L 216 128.7 Z" fill="#ffd23f" stroke="none" stroke-width="1"></path><path d="M 134 187.6 L 211 232 L 211 190.5 L 170 166.8 Z" fill="#f3fcf0" stroke="none" stroke-width="1"></path><path d="M 257 258.6 L 221 237.8 L 221 190.5 L 257 169.7 Z" fill="#f3fcf0" stroke="none" stroke-width="1"></path><path d="M 180 161 L 216 181.8 L 257 158.1 L 257 116.6 Z" fill="#f3fcf0" stroke="none" stroke-width="1"></path><path d="M 175 222.8 L 175 311.7 L 211 290.9 L 211 243.6 Z" fill="#f3fcf0" stroke="none" stroke-width="1"></path><path d="M 175 364.8 L 175 323.2 L 216 299.6 L 252 320.3 Z" fill="#f3fcf0" stroke="none" stroke-width="1"></path><path d="M 221 249.3 L 221 290.9 L 262 314.6 L 298 293.8 Z" fill="#f3fcf0" stroke="none" stroke-width="1"></path><path d="M 165 264.3 L 165 217 L 124 193.3 L 83.1 217 L 83.1 264.3 L 124 288 Z" fill="#ffd23f" stroke="none" stroke-width="1"></path><path d="M 42.1 346.9 L 119 391.3 L 119 349.8 L 78.1 326.1 Z" fill="#f3fcf0" stroke="none" stroke-width="1"></path><path d="M 165 417.9 L 129 397.1 L 129 349.8 L 165 329 Z" fill="#f3fcf0" stroke="none" stroke-width="1"></path><path d="M 88.1 320.3 L 124 341.1 L 165 317.5 L 165 275.9 Z" fill="#f3fcf0" stroke="none" stroke-width="1"></path><path d="M 83.1 382.1 L 83.1 471 L 119 450.2 L 119 402.9 Z" fill="#f3fcf0" stroke="none" stroke-width="1"></path><path d="M 83.1 524.1 L 83.1 482.5 L 124 458.9 L 160 479.7 Z" fill="#f3fcf0" stroke="none" stroke-width="1"></path><path d="M 129 408.7 L 129 450.2 L 170 473.9 L 206 453.1 Z" fill="#f3fcf0" stroke="none" stroke-width="1"></path><path d="M 73.1 423.7 L 73.1 376.3 L 32.1 352.7 L -8.9 376.3 L -8.9 423.7 L 32.1 447.3 Z" fill="#ffd23f" stroke="none" stroke-width="1"></path><path d="M 134 506.2 L 211 550.7 L 211 509.1 L 170 485.4 Z" fill="#f3fcf0" stroke="none" stroke-width="1"></path><path d="M 257 577.2 L 221 556.4 L 221 509.1 L 257 488.3 Z" fill="#f3fcf0" stroke="none" stroke-width="1"></path><path d="M 180 479.7 L 216 500.4 L 257 476.8 L 257 435.2 Z" fill="#f3fcf0" stroke="none" stroke-width="1"></path><path d="M 175 541.4 L 175 630.3 L 211 609.5 L 211 562.2 Z" fill="#f3fcf0" stroke="none" stroke-width="1"></path><path d="M 175 683.4 L 175 641.9 L 216 618.2 L 252 639 Z" fill="#f3fcf0" stroke="none" stroke-width="1"></path><path d="M 221 568 L 221 609.5 L 262 633.2 L 298 612.4 Z" fill="#f3fcf0" stroke="none" stroke-width="1"></path><path d="M 165 583 L 165 535.7 L 124 512 L 83.1 535.7 L 83.1 583 L 124 606.7 Z" fill="#ffd23f" stroke="none" stroke-width="1"></path><path d="M 134 824.9 L 211 869.3 L 211 827.7 L 170 804.1 Z" fill="#f3fcf0" stroke="none" stroke-width="1"></path><path d="M 257 895.9 L 221 875.1 L 221 827.7 L 257 807 Z" fill="#f3fcf0" stroke="none" stroke-width="1"></path><path d="M 180 798.3 L 216 819.1 L 257 795.4 L 257 753.9 Z" fill="#f3fcf0" stroke="none" stroke-width="1"></path><path d="M 175 860.1 L 175 949 L 211 928.2 L 211 880.8 Z" fill="#f3fcf0" stroke="none" stroke-width="1"></path><path d="M 175 1002.1 L 175 960.5 L 216 936.8 L 252 957.6 Z" fill="#f3fcf0" stroke="none" stroke-width="1"></path><path d="M 221 886.6 L 221 928.2 L 262 951.8 L 298 931.1 Z" fill="#f3fcf0" stroke="none" stroke-width="1"></path><path d="M 165 901.6 L 165 854.3 L 124 830.6 L 83.1 854.3 L 83.1 901.6 L 124 925.3 Z" fill="#ffd23f" stroke="none" stroke-width="1"></path><path d="M 318 824.9 L 395 869.3 L 395 827.7 L 354 804.1 Z" fill="#f3fcf0" stroke="none" stroke-width="1"></path><path d="M 441 895.9 L 405 875.1 L 405 827.7 L 441 807 Z" fill="#f3fcf0" stroke="none" stroke-width="1"></path><path d="M 364 798.3 L 400 819.1 L 441 795.4 L 441 753.9 Z" fill="#f3fcf0" stroke="none" stroke-width="1"></path><path d="M 359 860.1 L 359 949 L 395 928.2 L 395 880.8 Z" fill="#f3fcf0" stroke="none" stroke-width="1"></path><path d="M 359 1002.1 L 359 960.5 L 400 936.8 L 436 957.6 Z" fill="#f3fcf0" stroke="none" stroke-width="1"></path><path d="M 405 886.6 L 405 928.2 L 446 951.8 L 482 931.1 Z" fill="#f3fcf0" stroke="none" stroke-width="1"></path><path d="M 349 901.6 L 349 854.3 L 308 830.6 L 267 854.3 L 267 901.6 L 308 925.3 Z" fill="#ffd23f" stroke="none" stroke-width="1"></path><path d="M 502 824.9 L 579 869.3 L 579 827.7 L 538 804.1 Z" fill="#f3fcf0" stroke="none" stroke-width="1"></path><path d="M 625 895.9 L 589 875.1 L 589 827.7 L 625 807 Z" fill="#f3fcf0" stroke="none" stroke-width="1"></path><path d="M 548 798.3 L 584 819.1 L 625 795.4 L 625 753.9 Z" fill="#f3fcf0" stroke="none" stroke-width="1"></path><path d="M 543 860.1 L 543 949 L 579 928.2 L 579 880.8 Z" fill="#f3fcf0" stroke="none" stroke-width="1"></path><path d="M 543 1002.1 L 543 960.5 L 584 936.8 L 620 957.6 Z" fill="#f3fcf0" stroke="none" stroke-width="1"></path><path d="M 589 886.6 L 589 928.2 L 630 951.8 L 666 931.1 Z" fill="#f3fcf0" stroke="none" stroke-width="1"></path><path d="M 533 901.6 L 533 854.3 L 492 830.6 L 451 854.3 L 451 901.6 L 492 925.3 Z" fill="#ffd23f" stroke="none" stroke-width="1"></path><path d="M 686 824.9 L 762.9 869.3 L 762.9 827.7 L 721.9 804.1 Z" fill="#f3fcf0" stroke="none" stroke-width="1"></path><path d="M 808.9 895.9 L 772.9 875.1 L 772.9 827.7 L 808.9 807 Z" fill="#f3fcf0" stroke="none" stroke-width="1"></path><path d="M 731.9 798.3 L 767.9 819.1 L 808.9 795.4 L 808.9 753.9 Z" fill="#f3fcf0" stroke="none" stroke-width="1"></path><path d="M 726.9 860.1 L 726.9 949 L 762.9 928.2 L 762.9 880.8 Z" fill="#f3fcf0" stroke="none" stroke-width="1"></path><path d="M 726.9 1002.1 L 726.9 960.5 L 767.9 936.8 L 803.9 957.6 Z" fill="#f3fcf0" stroke="none" stroke-width="1"></path><path d="M 772.9 886.6 L 772.9 928.2 L 813.9 951.8 L 849.9 931.1 Z" fill="#f3fcf0" stroke="none" stroke-width="1"></path><path d="M 716.9 901.6 L 716.9 854.3 L 676 830.6 L 635 854.3 L 635 901.6 L 676 925.3 Z" fill="#ffd23f" stroke="none" stroke-width="1"></path><path d="M 777.9 665.5 L 854.9 710 L 854.9 668.4 L 813.9 644.8 Z" fill="#f3fcf0" stroke="none" stroke-width="1"></path><path d="M 900.9 736.5 L 864.9 715.8 L 864.9 668.4 L 900.9 647.6 Z" fill="#f3fcf0" stroke="none" stroke-width="1"></path><path d="M 823.9 639 L 859.9 659.8 L 900.9 636.1 L 900.9 594.5 Z" fill="#f3fcf0" stroke="none" stroke-width="1"></path><path d="M 818.9 700.7 L 818.9 789.6 L 854.9 768.9 L 854.9 721.5 Z" fill="#f3fcf0" stroke="none" stroke-width="1"></path><path d="M 818.9 842.7 L 818.9 801.2 L 859.9 777.5 L 895.9 798.3 Z" fill="#f3fcf0" stroke="none" stroke-width="1"></path><path d="M 864.9 727.3 L 864.9 768.9 L 905.9 792.5 L 941.9 771.7 Z" fill="#f3fcf0" stroke="none" stroke-width="1"></path><path d="M 808.9 742.3 L 808.9 695 L 767.9 671.3 L 726.9 695 L 726.9 742.3 L 767.9 766 Z" fill="#ffd23f" stroke="none" stroke-width="1"></path><path d="M 869.9 506.2 L 946.9 550.7 L 946.9 509.1 L 905.9 485.4 Z" fill="#f3fcf0" stroke="none" stroke-width="1"></path><path d="M 992.9 577.2 L 956.9 556.4 L 956.9 509.1 L 992.9 488.3 Z" fill="#f3fcf0" stroke="none" stroke-width="1"></path><path d="M 915.9 479.7 L 951.9 500.4 L 992.9 476.8 L 992.9 435.2 Z" fill="#f3fcf0" stroke="none" stroke-width="1"></path><path d="M 910.9 541.4 L 910.9 630.3 L 946.9 609.5 L 946.9 562.2 Z" fill="#f3fcf0" stroke="none" stroke-width="1"></path><path d="M 910.9 683.4 L 910.9 641.9 L 951.9 618.2 L 987.9 639 Z" fill="#f3fcf0" stroke="none" stroke-width="1"></path><path d="M 956.9 568 L 956.9 609.5 L 997.9 633.2 L 1033.9 612.4 Z" fill="#f3fcf0" stroke="none" stroke-width="1"></path><path d="M 900.9 583 L 900.9 535.7 L 859.9 512 L 818.9 535.7 L 818.9 583 L 859.9 606.7 Z" fill="#ffd23f" stroke="none" stroke-width="1"></path><path d="M 961.9 346.9 L 1038.9 391.3 L 1038.9 349.8 L 997.9 326.1 Z" fill="#f3fcf0" stroke="none" stroke-width="1"></path><path d="M 1084.9 417.9 L 1048.9 397.1 L 1048.9 349.8 L 1084.9 329 Z" fill="#f3fcf0" stroke="none" stroke-width="1"></path><path d="M 1007.9 320.3 L 1043.9 341.1 L 1084.9 317.5 L 1084.9 275.9 Z" fill="#f3fcf0" stroke="none" stroke-width="1"></path><path d="M 1002.9 382.1 L 1002.9 471 L 1038.9 450.2 L 1038.9 402.9 Z" fill="#f3fcf0" stroke="none" stroke-width="1"></path><path d="M 1002.9 524.1 L 1002.9 482.5 L 1043.9 458.9 L 1079.9 479.7 Z" fill="#f3fcf0" stroke="none" stroke-width="1"></path><path d="M 1048.9 408.7 L 1048.9 450.2 L 1089.9 473.9 L 1125.9 453.1 Z" fill="#f3fcf0" stroke="none" stroke-width="1"></path><path d="M 992.9 423.7 L 992.9 376.3 L 951.9 352.7 L 910.9 376.3 L 910.9 423.7 L 951.9 447.3 Z" fill="#ffd23f" stroke="none" stroke-width="1"></path><path d="M 869.9 187.6 L 946.9 232 L 946.9 190.5 L 905.9 166.8 Z" fill="#f3fcf0" stroke="none" stroke-width="1"></path><path d="M 992.9 258.6 L 956.9 237.8 L 956.9 190.5 L 992.9 169.7 Z" fill="#f3fcf0" stroke="none" stroke-width="1"></path><path d="M 915.9 161 L 951.9 181.8 L 992.9 158.1 L 992.9 116.6 Z" fill="#f3fcf0" stroke="none" stroke-width="1"></path><path d="M 910.9 222.8 L 910.9 311.7 L 946.9 290.9 L 946.9 243.6 Z" fill="#f3fcf0" stroke="none" stroke-width="1"></path><path d="M 910.9 364.8 L 910.9 323.2 L 951.9 299.6 L 987.9 320.3 Z" fill="#f3fcf0" stroke="none" stroke-width="1"></path><path d="M 956.9 249.3 L 956.9 290.9 L 997.9 314.6 L 1033.9 293.8 Z" fill="#f3fcf0" stroke="none" stroke-width="1"></path><path d="M 900.9 264.3 L 900.9 217 L 859.9 193.3 L 818.9 217 L 818.9 264.3 L 859.9 288 Z" fill="#ffd23f" stroke="none" stroke-width="1"></path><path d="M 777.9 28.3 L 854.9 72.7 L 854.9 31.1 L 813.9 7.5 Z" fill="#f3fcf0" stroke="none" stroke-width="1"></path><path d="M 900.9 99.3 L 864.9 78.5 L 864.9 31.1 L 900.9 10.4 Z" fill="#f3fcf0" stroke="none" stroke-width="1"></path><path d="M 823.9 1.7 L 859.9 22.5 L 900.9 -1.2 L 900.9 -42.7 Z" fill="#f3fcf0" stroke="none" stroke-width="1"></path><path d="M 818.9 63.5 L 818.9 152.4 L 854.9 131.6 L 854.9 84.2 Z" fill="#f3fcf0" stroke="none" stroke-width="1"></path><path d="M 818.9 205.5 L 818.9 163.9 L 859.9 140.2 L 895.9 161 Z" fill="#f3fcf0" stroke="none" stroke-width="1"></path><path d="M 864.9 90 L 864.9 131.6 L 905.9 155.2 L 941.9 134.5 Z" fill="#f3fcf0" stroke="none" stroke-width="1"></path><path d="M 808.9 105 L 808.9 57.7 L 767.9 34 L 726.9 57.7 L 726.9 105 L 767.9 128.7 Z" fill="#ffd23f" stroke="none" stroke-width="1"></path><path d="M 686 -131.1 L 762.9 -86.6 L 762.9 -128.2 L 721.9 -151.8 Z" fill="#f3fcf0" stroke="none" stroke-width="1"></path><path d="M 808.9 -60.1 L 772.9 -80.8 L 772.9 -128.2 L 808.9 -149 Z" fill="#f3fcf0" stroke="none" stroke-width="1"></path><path d="M 731.9 -157.6 L 767.9 -136.8 L 808.9 -160.5 L 808.9 -202.1 Z" fill="#f3fcf0" stroke="none" stroke-width="1"></path><path d="M 726.9 -95.9 L 726.9 -7 L 762.9 -27.7 L 762.9 -75.1 Z" fill="#f3fcf0" stroke="none" stroke-width="1"></path><path d="M 726.9 46.1 L 726.9 4.6 L 767.9 -19.1 L 803.9 1.7 Z" fill="#f3fcf0" stroke="none" stroke-width="1"></path><path d="M 772.9 -69.3 L 772.9 -27.7 L 813.9 -4.1 L 849.9 -24.9 Z" fill="#f3fcf0" stroke="none" stroke-width="1"></path><path d="M 716.9 -54.3 L 716.9 -101.6 L 676 -125.3 L 635 -101.6 L 635 -54.3 L 676 -30.6 Z" fill="#ffd23f" stroke="none" stroke-width="1"></path><path d="M 502 -131.1 L 579 -86.6 L 579 -128.2 L 538 -151.8 Z" fill="#f3fcf0" stroke="none" stroke-width="1"></path><path d="M 625 -60.1 L 589 -80.8 L 589 -128.2 L 625 -149 Z" fill="#f3fcf0" stroke="none" stroke-width="1"></path><path d="M 548 -157.6 L 584 -136.8 L 625 -160.5 L 625 -202.1 Z" fill="#f3fcf0" stroke="none" stroke-width="1"></path><path d="M 543 -95.9 L 543 -7 L 579 -27.7 L 579 -75.1 Z" fill="#f3fcf0" stroke="none" stroke-width="1"></path><path d="M 543 46.1 L 543 4.6 L 584 -19.1 L 620 1.7 Z" fill="#f3fcf0" stroke="none" stroke-width="1"></path><path d="M 589 -69.3 L 589 -27.7 L 630 -4.1 L 666 -24.9 Z" fill="#f3fcf0" stroke="none" stroke-width="1"></path><path d="M 533 -54.3 L 533 -101.6 L 492 -125.3 L 451 -101.6 L 451 -54.3 L 492 -30.6 Z" fill="#ffd23f" stroke="none" stroke-width="1"></path><path d="M 318 -131.1 L 395 -86.6 L 395 -128.2 L 354 -151.8 Z" fill="#f3fcf0" stroke="none" stroke-width="1"></path><path d="M 441 -60.1 L 405 -80.8 L 405 -128.2 L 441 -149 Z" fill="#f3fcf0" stroke="none" stroke-width="1"></path><path d="M 364 -157.6 L 400 -136.8 L 441 -160.5 L 441 -202.1 Z" fill="#f3fcf0" stroke="none" stroke-width="1"></path><path d="M 359 -95.9 L 359 -7 L 395 -27.7 L 395 -75.1 Z" fill="#f3fcf0" stroke="none" stroke-width="1"></path><path d="M 359 46.1 L 359 4.6 L 400 -19.1 L 436 1.7 Z" fill="#f3fcf0" stroke="none" stroke-width="1"></path><path d="M 405 -69.3 L 405 -27.7 L 446 -4.1 L 482 -24.9 Z" fill="#f3fcf0" stroke="none" stroke-width="1"></path><path d="M 349 -54.3 L 349 -101.6 L 308 -125.3 L 267 -101.6 L 267 -54.3 L 308 -30.6 Z" fill="#ffd23f" stroke="none" stroke-width="1"></path><path d="M 134 -131.1 L 211 -86.6 L 211 -128.2 L 170 -151.8 Z" fill="#f3fcf0" stroke="none" stroke-width="1"></path><path d="M 257 -60.1 L 221 -80.8 L 221 -128.2 L 257 -149 Z" fill="#f3fcf0" stroke="none" stroke-width="1"></path><path d="M 180 -157.6 L 216 -136.8 L 257 -160.5 L 257 -202.1 Z" fill="#f3fcf0" stroke="none" stroke-width="1"></path><path d="M 175 -95.9 L 175 -7 L 211 -27.7 L 211 -75.1 Z" fill="#f3fcf0" stroke="none" stroke-width="1"></path><path d="M 175 46.1 L 175 4.6 L 216 -19.1 L 252 1.7 Z" fill="#f3fcf0" stroke="none" stroke-width="1"></path><path d="M 221 -69.3 L 221 -27.7 L 262 -4.1 L 298 -24.9 Z" fill="#f3fcf0" stroke="none" stroke-width="1"></path><path d="M 165 -54.3 L 165 -101.6 L 124 -125.3 L 83.1 -101.6 L 83.1 -54.3 L 124 -30.6 Z" fill="#ffd23f" stroke="none" stroke-width="1"></path><path d="M 42.1 28.3 L 119 72.7 L 119 31.1 L 78.1 7.5 Z" fill="#f3fcf0" stroke="none" stroke-width="1"></path><path d="M 165 99.3 L 129 78.5 L 129 31.1 L 165 10.4 Z" fill="#f3fcf0" stroke="none" stroke-width="1"></path><path d="M 88.1 1.7 L 124 22.5 L 165 -1.2 L 165 -42.7 Z" fill="#f3fcf0" stroke="none" stroke-width="1"></path><path d="M 83.1 63.5 L 83.1 152.4 L 119 131.6 L 119 84.2 Z" fill="#f3fcf0" stroke="none" stroke-width="1"></path><path d="M 83.1 205.5 L 83.1 163.9 L 124 140.2 L 160 161 Z" fill="#f3fcf0" stroke="none" stroke-width="1"></path><path d="M 129 90 L 129 131.6 L 170 155.2 L 206 134.5 Z" fill="#f3fcf0" stroke="none" stroke-width="1"></path><path d="M 73.1 105 L 73.1 57.7 L 32.1 34 L -8.9 57.7 L -8.9 105 L 32.1 128.7 Z" fill="#ffd23f" stroke="none" stroke-width="1"></path><path d="M -49.9 187.6 L 27.1 232 L 27.1 190.5 L -13.9 166.8 Z" fill="#f3fcf0" stroke="none" stroke-width="1"></path><path d="M 73.1 258.6 L 37.1 237.8 L 37.1 190.5 L 73.1 169.7 Z" fill="#f3fcf0" stroke="none" stroke-width="1"></path><path d="M -3.9 161 L 32.1 181.8 L 73.1 158.1 L 73.1 116.6 Z" fill="#f3fcf0" stroke="none" stroke-width="1"></path><path d="M -8.9 222.8 L -8.9 311.7 L 27.1 290.9 L 27.1 243.6 Z" fill="#f3fcf0" stroke="none" stroke-width="1"></path><path d="M -8.9 364.8 L -8.9 323.2 L 32.1 299.6 L 68.1 320.3 Z" fill="#f3fcf0" stroke="none" stroke-width="1"></path><path d="M 37.1 249.3 L 37.1 290.9 L 78.1 314.6 L 114 293.8 Z" fill="#f3fcf0" stroke="none" stroke-width="1"></path><path d="M -18.9 264.3 L -18.9 217 L -59.9 193.3 L -100.9 217 L -100.9 264.3 L -59.9 288 Z" fill="#ffd23f" stroke="none" stroke-width="1"></path><path d="M -141.9 346.9 L -64.9 391.3 L -64.9 349.8 L -105.9 326.1 Z" fill="#f3fcf0" stroke="none" stroke-width="1"></path><path d="M -18.9 417.9 L -54.9 397.1 L -54.9 349.8 L -18.9 329 Z" fill="#f3fcf0" stroke="none" stroke-width="1"></path><path d="M -95.9 320.3 L -59.9 341.1 L -18.9 317.5 L -18.9 275.9 Z" fill="#f3fcf0" stroke="none" stroke-width="1"></path><path d="M -100.9 382.1 L -100.9 471 L -64.9 450.2 L -64.9 402.9 Z" fill="#f3fcf0" stroke="none" stroke-width="1"></path><path d="M -100.9 524.1 L -100.9 482.5 L -59.9 458.9 L -23.9 479.7 Z" fill="#f3fcf0" stroke="none" stroke-width="1"></path><path d="M -54.9 408.7 L -54.9 450.2 L -13.9 473.9 L 22.1 453.1 Z" fill="#f3fcf0" stroke="none" stroke-width="1"></path><path d="M -110.9 423.7 L -110.9 376.3 L -151.9 352.7 L -192.9 376.3 L -192.9 423.7 L -151.9 447.3 Z" fill="#ffd23f" stroke="none" stroke-width="1"></path><path d="M -49.9 506.2 L 27.1 550.7 L 27.1 509.1 L -13.9 485.4 Z" fill="#f3fcf0" stroke="none" stroke-width="1"></path><path d="M 73.1 577.2 L 37.1 556.4 L 37.1 509.1 L 73.1 488.3 Z" fill="#f3fcf0" stroke="none" stroke-width="1"></path><path d="M -3.9 479.7 L 32.1 500.4 L 73.1 476.8 L 73.1 435.2 Z" fill="#f3fcf0" stroke="none" stroke-width="1"></path><path d="M -8.9 541.4 L -8.9 630.3 L 27.1 609.5 L 27.1 562.2 Z" fill="#f3fcf0" stroke="none" stroke-width="1"></path><path d="M -8.9 683.4 L -8.9 641.9 L 32.1 618.2 L 68.1 639 Z" fill="#f3fcf0" stroke="none" stroke-width="1"></path><path d="M 37.1 568 L 37.1 609.5 L 78.1 633.2 L 114 612.4 Z" fill="#f3fcf0" stroke="none" stroke-width="1"></path><path d="M -18.9 583 L -18.9 535.7 L -59.9 512 L -100.9 535.7 L -100.9 583 L -59.9 606.7 Z" fill="#ffd23f" stroke="none" stroke-width="1"></path><path d="M 42.1 665.5 L 119 710 L 119 668.4 L 78.1 644.8 Z" fill="#f3fcf0" stroke="none" stroke-width="1"></path><path d="M 165 736.5 L 129 715.8 L 129 668.4 L 165 647.6 Z" fill="#f3fcf0" stroke="none" stroke-width="1"></path><path d="M 88.1 639 L 124 659.8 L 165 636.1 L 165 594.5 Z" fill="#f3fcf0" stroke="none" stroke-width="1"></path><path d="M 83.1 700.7 L 83.1 789.6 L 119 768.9 L 119 721.5 Z" fill="#f3fcf0" stroke="none" stroke-width="1"></path><path d="M 83.1 842.7 L 83.1 801.2 L 124 777.5 L 160 798.3 Z" fill="#f3fcf0" stroke="none" stroke-width="1"></path><path d="M 129 727.3 L 129 768.9 L 170 792.5 L 206 771.7 Z" fill="#f3fcf0" stroke="none" stroke-width="1"></path><path d="M 73.1 742.3 L 73.1 695 L 32.1 671.3 L -8.9 695 L -8.9 742.3 L 32.1 766 Z" fill="#ffd23f" stroke="none" stroke-width="1"></path><ellipse cx="400" cy="400" rx="600" ry="600" fill="none" stroke="white" stroke-width="560"></ellipse><ellipse cx="400" cy="400" rx="320" ry="320" fill="none" stroke="#1f271b" stroke-width="10"></ellipse></svg>